<svg viewBox="0 0 330.0000305175781 200.00001525878906" xmlns="http://www.w3.org/2000/svg"><g><g><g><g><g><line x1="70" y1="178" x2="65" y2="178" style="visibility: inherit;" fill="rgb(0, 0, 0)" stroke="rgb(204, 204, 204)" stroke-width="1px"></line><line x1="70" y1="160.2" x2="65" y2="160.2" style="visibility: inherit;" fill="rgb(0, 0, 0)" stroke="rgb(204, 204, 204)" stroke-width="1px"></line><line x1="70" y1="142.40000000000003" x2="65" y2="142.40000000000003" style="visibility: inherit;" fill="rgb(0, 0, 0)" stroke="rgb(204, 204, 204)" stroke-width="1px"></line><line x1="70" y1="124.6" x2="65" y2="124.6" style="visibility: inherit;" fill="rgb(0, 0, 0)" stroke="rgb(204, 204, 204)" stroke-width="1px"></line><line x1="70" y1="106.79999999999998" x2="65" y2="106.79999999999998" style="visibility: inherit;" fill="rgb(0, 0, 0)" stroke="rgb(204, 204, 204)" stroke-width="1px"></line><line x1="70" y1="88.99999999999996" x2="65" y2="88.99999999999996" style="visibility: inherit;" fill="rgb(0, 0, 0)" stroke="rgb(204, 204, 204)" stroke-width="1px"></line><line x1="70" y1="71.19999999999995" x2="65" y2="71.19999999999995" style="visibility: inherit;" fill="rgb(0, 0, 0)" stroke="rgb(204, 204, 204)" stroke-width="1px"></line><line x1="70" y1="53.39999999999993" x2="65" y2="53.39999999999993" style="visibility: inherit;" fill="rgb(0, 0, 0)" stroke="rgb(204, 204, 204)" stroke-width="1px"></line><line x1="70" y1="35.60000000000003" x2="65" y2="35.60000000000003" style="visibility: inherit;" fill="rgb(0, 0, 0)" stroke="rgb(204, 204, 204)" stroke-width="1px"></line><line x1="70" y1="17.800000000000015" x2="65" y2="17.800000000000015" style="visibility: inherit;" fill="rgb(0, 0, 0)" stroke="rgb(204, 204, 204)" stroke-width="1px"></line><line x1="70" y1="0" x2="65" y2="0" style="visibility: inherit;" fill="rgb(0, 0, 0)" stroke="rgb(204, 204, 204)" stroke-width="1px"></line></g><g transform="translate(60, 0)"><text x="0" y="178" dx="0em" dy="0.3em" style="text-anchor: end; visibility: hidden; font-family: Roboto, sans-serif; font-size: 12px; font-weight: 200;" fill="rgb(50, 49, 63)" stroke="none" stroke-width="1px">0.028</text><text x="0" y="160.2" dx="0em" dy="0.3em" style="text-anchor: end; visibility: inherit; font-family: Roboto, sans-serif; font-size: 12px; font-weight: 200;" fill="rgb(50, 49, 63)" stroke="none" stroke-width="1px">0.029</text><text x="0" y="142.40000000000003" dx="0em" dy="0.3em" style="text-anchor: end; visibility: hidden; font-family: Roboto, sans-serif; font-size: 12px; font-weight: 200;" fill="rgb(50, 49, 63)" stroke="none" stroke-width="1px">0.03</text><text x="0" y="124.6" dx="0em" dy="0.3em" style="text-anchor: end; visibility: inherit; font-family: Roboto, sans-serif; font-size: 12px; font-weight: 200;" fill="rgb(50, 49, 63)" stroke="none" stroke-width="1px">0.031</text><text x="0" y="106.79999999999998" dx="0em" dy="0.3em" style="text-anchor: end; visibility: hidden; font-family: Roboto, sans-serif; font-size: 12px; font-weight: 200;" fill="rgb(50, 49, 63)" stroke="none" stroke-width="1px">0.032</text><text x="0" y="88.99999999999996" dx="0em" dy="0.3em" style="text-anchor: end; visibility: inherit; font-family: Roboto, sans-serif; font-size: 12px; font-weight: 200;" fill="rgb(50, 49, 63)" stroke="none" stroke-width="1px">0.033</text><text x="0" y="71.19999999999995" dx="0em" dy="0.3em" style="text-anchor: end; visibility: hidden; font-family: Roboto, sans-serif; font-size: 12px; font-weight: 200;" fill="rgb(50, 49, 63)" stroke="none" stroke-width="1px">0.034</text><text x="0" y="53.39999999999993" dx="0em" dy="0.3em" style="text-anchor: end; visibility: inherit; font-family: Roboto, sans-serif; font-size: 12px; font-weight: 200;" fill="rgb(50, 49, 63)" stroke="none" stroke-width="1px">0.035</text><text x="0" y="35.60000000000003" dx="0em" dy="0.3em" style="text-anchor: end; visibility: hidden; font-family: Roboto, sans-serif; font-size: 12px; font-weight: 200;" fill="rgb(50, 49, 63)" stroke="none" stroke-width="1px">0.036</text><text x="0" y="17.800000000000015" dx="0em" dy="0.3em" style="text-anchor: end; visibility: inherit; font-family: Roboto, sans-serif; font-size: 12px; font-weight: 200;" fill="rgb(50, 49, 63)" stroke="none" stroke-width="1px">0.037</text><text x="0" y="0" dx="0em" dy="0.3em" style="text-anchor: end; visibility: hidden; font-family: Roboto, sans-serif; font-size: 12px; font-weight: 200;" fill="rgb(50, 49, 63)" stroke="none" stroke-width="1px">0.038</text></g><line x1="70" y1="0" x2="70" y2="178" fill="rgb(0, 0, 0)" stroke="rgb(204, 204, 204)" stroke-width="1px"></line></g></g><g transform="translate(70, 0)" clip-path="url(#clip_0)"><clipPath id="clip_0"><rect width="260" height="177"></rect></clipPath><g><g><g><line x1="0" y1="0" x2="0" y2="178" fill="rgb(0, 0, 0)" stroke="rgb(60, 60, 60)" stroke-width="1px" opacity="0.25"></line><line x1="28.888888888888886" y1="0" x2="28.888888888888886" y2="178" fill="rgb(0, 0, 0)" stroke="rgb(60, 60, 60)" stroke-width="1px" opacity="0.25"></line><line x1="57.77777777777777" y1="0" x2="57.77777777777777" y2="178" fill="rgb(0, 0, 0)" stroke="rgb(60, 60, 60)" stroke-width="1px" opacity="0.25"></line><line x1="86.66666666666666" y1="0" x2="86.66666666666666" y2="178" fill="rgb(0, 0, 0)" stroke="rgb(60, 60, 60)" stroke-width="1px" opacity="0.25"></line><line x1="115.55555555555554" y1="0" x2="115.55555555555554" y2="178" fill="rgb(0, 0, 0)" stroke="rgb(60, 60, 60)" stroke-width="1px" opacity="0.25"></line><line x1="144.44444444444446" y1="0" x2="144.44444444444446" y2="178" fill="rgb(0, 0, 0)" stroke="rgb(60, 60, 60)" stroke-width="1px" opacity="0.25"></line><line x1="173.33333333333331" y1="0" x2="173.33333333333331" y2="178" fill="rgb(0, 0, 0)" stroke="rgb(60, 60, 60)" stroke-width="1px" opacity="0.25"></line><line x1="202.22222222222223" y1="0" x2="202.22222222222223" y2="178" fill="rgb(0, 0, 0)" stroke="rgb(60, 60, 60)" stroke-width="1px" opacity="0.25"></line><line x1="231.1111111111111" y1="0" x2="231.1111111111111" y2="178" fill="rgb(0, 0, 0)" stroke="rgb(60, 60, 60)" stroke-width="1px" opacity="0.25"></line><line x1="260" y1="0" x2="260" y2="178" fill="rgb(0, 0, 0)" stroke="rgb(60, 60, 60)" stroke-width="1px" opacity="0.25"></line></g><g><line x1="0" y1="178" x2="260" y2="178" fill="rgb(0, 0, 0)" stroke="rgb(60, 60, 60)" stroke-width="1px" opacity="0.25"></line><line x1="0" y1="160.2" x2="260" y2="160.2" fill="rgb(0, 0, 0)" stroke="rgb(60, 60, 60)" stroke-width="1px" opacity="0.25"></line><line x1="0" y1="142.40000000000003" x2="260" y2="142.40000000000003" fill="rgb(0, 0, 0)" stroke="rgb(60, 60, 60)" stroke-width="1px" opacity="0.25"></line><line x1="0" y1="124.6" x2="260" y2="124.6" fill="rgb(0, 0, 0)" stroke="rgb(60, 60, 60)" stroke-width="1px" opacity="0.25"></line><line x1="0" y1="106.79999999999998" x2="260" y2="106.79999999999998" fill="rgb(0, 0, 0)" stroke="rgb(60, 60, 60)" stroke-width="1px" opacity="0.25"></line><line x1="0" y1="88.99999999999996" x2="260" y2="88.99999999999996" fill="rgb(0, 0, 0)" stroke="rgb(60, 60, 60)" stroke-width="1px" opacity="0.25"></line><line x1="0" y1="71.19999999999995" x2="260" y2="71.19999999999995" fill="rgb(0, 0, 0)" stroke="rgb(60, 60, 60)" stroke-width="1px" opacity="0.25"></line><line x1="0" y1="53.39999999999993" x2="260" y2="53.39999999999993" fill="rgb(0, 0, 0)" stroke="rgb(60, 60, 60)" stroke-width="1px" opacity="0.25"></line><line x1="0" y1="35.60000000000003" x2="260" y2="35.60000000000003" fill="rgb(0, 0, 0)" stroke="rgb(60, 60, 60)" stroke-width="1px" opacity="0.25"></line><line x1="0" y1="17.800000000000015" x2="260" y2="17.800000000000015" fill="rgb(0, 0, 0)" stroke="rgb(60, 60, 60)" stroke-width="1px" opacity="0.25"></line><line x1="0" y1="0" x2="260" y2="0" fill="rgb(0, 0, 0)" stroke="rgb(60, 60, 60)" stroke-width="1px" opacity="0.25"></line></g></g></g><g><g><line x1="0" y1="676.4000000000001" x2="260" y2="676.4000000000001" fill="rgb(0, 0, 0)" stroke="rgb(153, 153, 153)" stroke-width="1.5px"></line></g></g><g><g><line x1="28.888888888888886" y1="0" x2="28.888888888888886" y2="178" fill="rgb(0, 0, 0)" stroke="rgb(153, 153, 153)" stroke-width="1.5px"></line></g></g><g><g><g><g><g><path stroke="rgb(255, 112, 67)" stroke-width="2px" d="M29.03333333333333,150.64001172184945L29.40888888888889,150.64166947603226L29.582222222222224,150.64309040818893L30.044444444444444,150.64635324106715L30.10222222222222,150.64831947468167L30.18888888888889,150.64989737211164L30.42,150.65211910369834L30.506666666666668,150.6538432932189L30.939999999999998,150.65657390573412L31.026666666666667,150.6582345825385L31.604444444444443,150.6523431017244L31.835555555555555,150.64172454720395L31.951111111111114,150.63178279512059L32.52888888888889,150.60822681266873L32.904444444444444,150.5866084691195L33.36666666666667,150.56204968206046L33.45333333333333,150.5440425678606L33.71333333333334,150.52408851772208L34.03111111111111,150.4996237878676L34.175555555555555,150.4731422627488L34.23333333333333,150.45236016964066L34.26222222222222,150.43743769706882L34.37777777777777,150.41925389104495L34.86888888888888,150.38335790990132L35.33111111111111,150.34345246150605L35.504444444444445,150.3141646564762L35.648888888888884,150.29189724078174L36.08222222222222,150.25677379567443L36.25555555555556,150.2260317164579L36.400000000000006,150.20058412096105L36.602222222222224,150.17681460268636L36.717777777777776,150.15796422979622L36.775555555555556,150.1447973222488L37.324444444444445,150.10967022264416L37.64222222222222,150.06201684800968L37.78666666666667,150.02166139995072L37.84444444444444,149.99276663354047L38.07555555555555,149.95970100206378L38.422222222222224,149.9008977688567L38.68222222222222,149.83899892782136L38.913333333333334,149.7833325624912L39.37555555555555,149.712865359776L39.49111111111111,149.66453755090794L39.78,149.61143048875698L41.05111111111111,149.4744911603378L41.08,149.39011280370707L41.57111111111111,149.2905621482869L41.628888888888895,149.2250627704808L41.657777777777774,149.18291180660367L41.74444444444445,149.14801951605074L42.17777777777778,149.0705613551016L42.26444444444445,149.01069180473527L42.29333333333333,148.97052622380744L42.58222222222222,148.90404141630466L43.07333333333333,148.80407352021774L43.13111111111111,148.73817791564127L43.73777777777778,148.62213188185007L43.82444444444444,148.54218639954155L44.05555555555556,148.46609033718244L44.22888888888889,148.3975689540776L44.28666666666667,148.3484989041371L44.373333333333335,148.30761173929474L44.54666666666667,148.26117056110925L44.69111111111111,148.2170598632063L44.98,148.15906959092416L45.153333333333336,148.10342751095166L45.44222222222222,148.0438232228129L45.61555555555555,147.9945598998647L45.67333333333333,147.95977666491157L45.81777777777778,147.9258170969121L45.84666666666667,147.9025767568846L46.28,147.85071639919872L46.8,147.76907183709494L46.85777777777778,147.70898477782467L47.20444444444444,147.6151498624662L47.406666666666666,147.53211265379073L47.43555555555555,147.47755578263926L47.49333333333333,147.43433139147953L47.58,147.3945909799492L47.63777777777778,147.3642748607013L47.98444444444444,147.2935542746075L48.18666666666666,147.21315272114796L48.27333333333333,147.14806900657493L48.36,147.09059781335162L48.62,147.01037434400536L48.76444444444444,146.94066293395406L49.51555555555556,146.7608313677123L49.63111111111111,146.6332383082754L49.74666666666666,146.54070172229092L49.775555555555556,146.48141335319684L49.977777777777774,146.420165034957L50.23777777777777,146.33512898017597L50.35333333333333,146.25690691667577L50.46888888888889,146.1781978463994L50.61333333333333,146.10007186626598L50.72888888888889,146.03034579452995L50.988888888888894,145.9407005208559L51.10444444444445,145.87151613580153L51.13333333333333,145.82622582523203L51.16222222222222,145.79519238715278L51.22,145.76869467642848L51.422222222222224,145.72595369426577L51.56666666666667,145.68198097472296L51.62444444444445,145.64924482896868L51.76888888888889,145.60996206995807L51.82666666666667,145.57742727993104L51.94222222222222,145.538384692658L52.05777777777778,145.49336854981726L52.23111111111111,145.4282437799415L52.260000000000005,145.38269704568629L52.92444444444444,145.18843978994036L53.04,145.0444330272254L53.99333333333333,144.62348091347087L54.13777777777778,144.33332504238527L54.19555555555555,144.14764050248766L54.36888888888889,143.98603298189343L54.6,143.82701541496573L54.77333333333333,143.6891133195952L54.888888888888886,143.58163836996528L55.09111111111111,143.47443639040455L55.14888888888889,143.39702557564064L55.32222222222222,143.3038967289942L55.379999999999995,143.2314153551112L55.784444444444446,143.07704266900126L55.81333333333333,142.97593135591927L56.102222222222224,142.81866391632906L56.18888888888889,142.69423842271536L56.44888888888889,142.54467916155082L56.56444444444445,142.4251438156618L56.68,142.3217263481529L56.94,142.18198687562418L56.96888888888889,142.08903217511818L57.142222222222216,141.9882745373097L57.17111111111111,141.92133482026145L57.315555555555555,141.84580114678795L57.66222222222222,141.72427729842815L57.83555555555556,141.6090836267337L57.92222222222222,141.51689148549224L58.18222222222222,141.40749362828723L58.26888888888889,141.3234604735517L58.5,141.21145169731037L58.846666666666664,141.0407229983572L59.04888888888889,140.87446887396362L59.42444444444445,140.6453717869674L59.59777777777778,140.4451708544585L59.684444444444445,140.29263788517076L59.742222222222225,140.17919596228458L59.85777777777778,140.07412973519237L59.97333333333333,139.97804101154844L60.03111111111111,139.90610456732296L60.175555555555555,139.83186975638495L60.20444444444444,139.77963689041394L60.46444444444444,139.66315491600196L60.63777777777778,139.5313850832186L60.75333333333333,139.41495077325123L60.782222222222224,139.33595264621502L61.071111111111115,139.20033472340066L61.21555555555556,139.06871412492254L61.62,138.8496814304379L62.284444444444446,138.46685344539802L62.4,138.20189290739725L62.428888888888885,138.03456150351542L62.45777777777778,137.92543624316806L62.97777777777778,137.7291311268517L63.324444444444445,137.52113970544988L63.35333333333333,137.3891303064052L63.52666666666667,137.26181000957632L63.72888888888889,137.12734338694656L64.48,136.74170295389797L64.53777777777778,136.48989516253653L64.82666666666667,136.22705133173096L65.14444444444443,135.94582245357768L65.2311111111111,135.7519403112408L65.31777777777778,135.6055327339456L65.89555555555556,135.3324838902644L66.06888888888889,135.11368345535348L66.27111111111111,134.9175120646748L66.44444444444444,134.73721243232453L66.73333333333333,134.53675542408206L66.90666666666667,134.36131115993248L66.99333333333333,134.22973272705312L67.31111111111112,134.02470351519727L67.39777777777778,133.8541018120202L67.48444444444443,133.6979765064569L67.51333333333334,133.58684848708222L68.03333333333333,133.26097849346584L68.9,132.84366224966874L68.98666666666666,132.57108512140766L69.07333333333334,132.38890568743622L69.10222222222222,132.27311289269014L69.73777777777777,132.0291088554757L70.08444444444444,131.65601849517205L70.14222222222223,131.38106566405878L70.25777777777778,131.11611149511685L70.37333333333333,130.85974262000292L70.4888888888889,130.6194528367589L71.21111111111111,130.03199549832763L71.24000000000001,129.66403104018457L71.55777777777777,129.2830735251384L71.78888888888888,128.95821665317285L71.90444444444445,128.71785354131737L71.96222222222222,128.5504271156447L72.25111111111111,128.3439413027082L72.45333333333333,128.14994670606345L72.88666666666667,127.8394070402186L73.00222222222223,127.60174590917833L73.69555555555556,127.20548631651647L73.72444444444444,126.95725355448391L74.18666666666667,126.60704927743714L74.21555555555555,126.384911308892L74.47555555555556,126.15440456045123L74.64888888888889,125.91912852270872L74.76444444444445,125.70699775900525L75.02444444444444,125.42135735920712L75.22666666666666,125.12082743747023L75.25555555555556,124.9229903382241L75.63111111111111,124.6111530853617L75.8911111111111,124.32550056298422L76.03555555555556,124.09354134273435L76.17999999999999,123.90017714185653L76.26666666666667,123.7595708112904L76.41111111111111,123.6357922495001L76.49777777777777,123.53884703520497L76.84444444444445,123.38508716943008L77.07555555555555,123.2242797989973L77.27777777777777,123.07758531804855L77.47999999999999,122.92982316873056L77.74,122.75022811568732L77.85555555555555,122.59732712195483L77.88444444444445,122.49617048195698L77.91333333333334,122.42657767350497L77.9711111111111,122.36779353746789L78.05777777777777,122.3053756733478L78.25999999999999,122.18925457237607L78.52,121.98945483945873L78.80888888888889,121.66494182338158L78.92444444444445,121.37814245337158L78.98222222222222,121.1666613299484L79.06888888888889,120.98893928163264L79.21333333333332,120.8060228361667L79.3,120.65049242937452L79.32888888888888,120.54238701798847L79.35777777777778,120.46220612250762L79.90666666666667,120.15266311957244L80.16666666666667,119.84665067430622L80.34,119.56455934665374L80.54222222222222,119.278598655592L80.57111111111111,119.08935721238291L80.83111111111111,118.83730366897476L81.03333333333333,118.5894974152558L81.38,118.30967867614706L81.64,118.03502806330847L81.75555555555556,117.83172475043017L82.04444444444444,117.57534531559386L82.16,117.352555080687L82.30444444444444,117.142040717861L82.42,116.95928888574899L82.79555555555555,116.59004674348627L82.88222222222223,116.30815920587415L83.05555555555554,116.03685597751165L83.08444444444444,115.85823917253981L83.11333333333333,115.7348098365317L84.09555555555555,115.19488352345523L84.2688888888889,114.80273435954504L84.76,114.26827991035132L84.81777777777778,113.91511525885186L84.87555555555555,113.67141411170908L85.0488888888889,113.42063555160492L85.13555555555556,113.21332734012208L85.19333333333333,113.04541641940828L85.28,112.88196697276923L85.71333333333334,112.48186775471032L86.11777777777777,112.00181846633708L86.17555555555555,111.68015637645219L86.69555555555556,111.23605578094177L86.81111111111112,110.91766130059631L87.04222222222222,110.62363166051911L87.15777777777777,110.39440445922497L87.44666666666666,110.07968737138917L87.53333333333333,109.83531572254665L87.62,109.6271038498412L87.70666666666666,109.44387682711663L88.4,108.78054248115762L88.74666666666667,108.10719553483332L88.77555555555556,107.68438180358896L88.86222222222223,107.37626617951204L88.89111111111112,107.17338696362386L88.94888888888889,107.01744338775767L89.00666666666666,106.89356023374245L89.12222222222222,106.75148787440685L89.23777777777778,106.60441685880309L89.38222222222223,106.4456998036211L89.44,106.32285801684296L89.87333333333333,106.00529067346719L90.85555555555555,105.19021458762451L90.97111111111111,104.62748507820109L91.02888888888889,104.24112266160567L91.17333333333333,103.88185707007365L91.43333333333334,103.4495165161759L91.66444444444444,102.99701697662296L91.78,102.6412768163372L92.06888888888889,102.2425886367613L92.12666666666667,101.96905358641459L92.18444444444445,101.77206923728656L92.21333333333334,101.63722151378086L92.32888888888888,101.48520185625132L92.41555555555556,101.34208246276124L92.64666666666666,101.11619027736991L92.76222222222223,100.90705068041807L93.16666666666667,100.51863384681901L93.34,100.1731482269642L93.48444444444445,99.89273000253894L93.51333333333334,99.71203928049603L93.57111111111111,99.57362612757801L93.65777777777778,99.44516903325147L93.71555555555555,99.34064236738817L93.77333333333334,99.25182668601585L93.80222222222221,99.18562005659999L94.00444444444445,99.06101906479033L94.0911111111111,98.94724156725786L94.23555555555556,98.81255880515798L94.78444444444445,98.49873521996149L95.07333333333332,98.19673239393597L95.24666666666667,97.95266865970827L95.42,97.75214784671148L95.53555555555556,97.59764583664702L95.56444444444445,97.49738527153467L95.88222222222221,97.34895683774073L95.91111111111111,97.25318918853232L96.34444444444445,97.06095981496111L96.63333333333333,96.86891458927109L96.89333333333333,96.68029536067553L97.38444444444444,96.40140145337047L97.90444444444444,96.02540027448813L97.93333333333332,95.77698886960317L97.99111111111111,95.5792968879316L98.28,95.17406263173669L98.39555555555556,94.81914965999752L98.94444444444444,94.23024975235832L99.26222222222222,93.6438693557714L99.49333333333333,93.15552174535597L99.66666666666667,92.76442717961785L99.69555555555554,92.5125563207406L99.75333333333333,92.3287826790296L99.81111111111112,92.18976640545623L99.95555555555555,92.04638572599472L100.67777777777778,91.67063493529551L100.70666666666666,91.42834167837854L100.99555555555555,91.14108849024633L101.05333333333333,90.94865785870472L101.19777777777779,90.78527049084622L101.60222222222222,90.5564744201906L101.77555555555556,90.36949067637964L101.97777777777779,90.18815218761947L102.03555555555555,90.05754631135093L102.09333333333333,89.95891839845913L102.4688888888889,89.7579970370766L102.58444444444444,89.57585533684708L102.64222222222223,89.43349480525386L103.01777777777777,89.11933493313629L103.36444444444444,88.74246508656411L103.71111111111111,88.36648220049426L103.74000000000001,88.12747129098827L103.7688888888889,87.97133319316063L104,87.75733716689192L104.17333333333333,87.5124193251291L104.66444444444444,87.05919521928782L104.83777777777777,86.68458609271616L104.86666666666666,86.4454710965667L105.09777777777778,86.19871738227093L105.27111111111111,85.9621012942307L105.44444444444444,85.71809355594593L105.58888888888889,85.48293938504382L106.25333333333333,85.0353878132505L106.31111111111112,84.74558456850068L106.45555555555555,84.52356144018177L106.6,84.34777643577583L106.97555555555556,84.11071953711695L107.17777777777778,83.85209779225454L107.6111111111111,83.46924215485252L107.95777777777778,83.08534437137602L108.04444444444445,82.81543179343787L108.21777777777777,82.58473386520542L108.44888888888889,82.36398440453047L108.47777777777777,82.22111076982397L108.53555555555556,82.11278808397992L108.79555555555555,81.93840922047457L109.46,81.57267898756122L109.48888888888888,81.34276384137779L109.51777777777778,81.19508042110631L109.72,81.00795998438373L110.03777777777778,80.6890387169372L110.09555555555556,80.46026049803805L110.44222222222221,80.11347996205754L110.4711111111111,79.8819113171736L110.55777777777777,79.67652734259597L110.61555555555556,79.50481096351044L110.64444444444445,79.37655674841336L111.48222222222222,78.75999860183201L111.82888888888888,78.2082677591789L111.85777777777778,77.8646037977307L112.11777777777777,77.5138492561202L112.2911111111111,77.18409127812498L112.37777777777778,76.92401103032184L112.55111111111111,76.651522227839L112.66666666666667,76.42551172060695L113.15777777777778,75.97408335139113L113.21555555555557,75.66041648584465L113.24444444444444,75.45062577603976L113.27333333333333,75.303426000349L113.5911111111111,75.03057820133712L114.11111111111111,74.71045709927293L114.60222222222222,74.40515319633123L114.80444444444444,74.15924143628853L114.83333333333333,74.00294143817767L114.92,73.87645726479258L115.49777777777778,73.56182363436913L115.64222222222222,73.32392088416997L115.7,73.16173709299444L115.75777777777779,73.04121825972965L115.81555555555555,72.94479658293588L115.87333333333333,72.8627005796901L115.9888888888889,72.76970479138322L116.01777777777778,72.70422603397142L116.33555555555554,72.5526624042306L116.42222222222222,72.43323737850862L116.65333333333334,72.29901208919924L116.74000000000001,72.198557341353L117,72.09295486227023L117.43333333333334,71.92545988807285L117.5488888888889,71.77546899467237L117.60666666666665,71.65926868051008L118.04,71.41523232418129L118.41555555555556,71.1220793721547L119.08,70.76081089719953L119.51333333333334,70.428829265504L119.54222222222222,70.22282360128699L119.74444444444444,70.05418233711804L119.8888888888889,69.92403329753454L120.03333333333333,69.81316012706509L120.14888888888888,69.71231408218239L120.20666666666666,69.62790827095324L120.66888888888889,69.42297428691269L120.98666666666666,69.24343806173731L121.18888888888888,69.09614241877983L121.21777777777777,69.00224802708505L121.42,68.90418903479495L121.50666666666666,68.82349780827482L122.19999999999999,68.69344199436736L122.28666666666666,68.59978583060408L122.48888888888888,68.51484004379931L122.57555555555555,68.45180412126544L122.60444444444444,68.41029572244267L122.66222222222223,68.37700907800073L122.69111111111111,68.352634096226L123.26888888888888,68.26642065053043L123.41333333333334,68.19328766110455L123.67333333333333,68.1103644409354L123.7311111111111,68.05355510703168L123.78888888888889,68.01119399780899L124.36666666666666,67.8666842717819L124.59777777777778,67.73448966138909L125.00222222222223,67.54560197468614L125.0311111111111,67.42356946871294L125.17555555555556,67.31334889176853L125.32,67.21830531265354L125.52222222222221,67.131413065827L125.86888888888889,66.99705311026344L126.36,66.79694621542794L126.41777777777777,66.66115330684005L126.47555555555556,66.56015584843048L126.56222222222222,66.46939950929097L126.70666666666666,66.37298463193181L127.19777777777777,66.17882852558853L127.34222222222222,66.01114341261732L127.97777777777777,65.77327029849747L128.06444444444446,65.61826578703914L128.20888888888888,65.49380553679103L128.4111111111111,65.37655825922744L128.52666666666667,65.27817395394952L128.58444444444444,65.20399812856854L128.7577777777778,65.11753155946452L128.78666666666666,65.05756177759007L128.96,64.97773562583826L129.16222222222223,64.89132698961197L129.33555555555557,64.78921870105326L129.42222222222222,64.70450645275619L129.91333333333333,64.52344593517606L129.9711111111111,64.40077839322461L130.26,64.25776438491096L130.34666666666666,64.14927790270183L130.40444444444444,64.06622922006801L130.54888888888888,63.95123037805294L131.01111111111112,63.67977287000505L131.06888888888886,63.464407236731574L131.2422222222222,63.15559339961788L131.35777777777778,62.85243214393487L131.41555555555556,62.6191052247574L131.82,62.23705043849285L132.3111111111111,61.856656909328336L132.6577777777778,61.574948272908635L132.86,61.379160307529474L132.88888888888889,61.25752324979471L133.40888888888887,61.071256725317L133.46666666666667,60.936394348338695L133.52444444444444,60.83367413913935L133.6111111111111,60.74138019225435L133.6977777777778,60.65459932888418L134.18888888888887,60.397552821665265L134.50666666666666,60.07932661153635L134.53555555555556,59.872237728701634L134.70888888888888,59.658730913797974L134.9111111111111,59.434583178520136L135.60444444444445,58.9430010243415L135.7777777777778,58.57773643041608L135.83555555555557,58.3378623777923L136.44222222222223,57.89355288829186L136.52888888888887,57.589647832428085L136.64444444444445,57.36743912632154L136.67333333333332,57.22626277884769L136.70222222222222,57.13436894822677L136.87555555555556,57.02472569232321L136.96222222222224,56.93018765023433L137.02,56.85680771095205L137.28,56.75180091752194L137.48222222222222,56.65304239924895L137.85777777777778,56.51564738712401L137.97333333333333,56.415253586540764L138.08888888888887,56.336848320347094L138.46444444444444,56.206917451490234L138.52222222222224,56.11320363442254L138.60888888888888,56.029973844052314L138.95555555555558,55.87762654743254L139.0711111111111,55.74879271102938L139.21555555555554,55.61974395461667L139.2733333333333,55.519875340150485L139.56222222222223,55.35062196760579L139.62,55.22838117187742L139.67777777777778,55.13559455338441L140.0533333333333,54.96894588627406L140.51555555555555,54.81248694752445L140.66,54.69630484399081L140.86222222222221,54.59651728997757L141.58444444444444,54.40418356734584L141.61333333333332,54.28350504444881L141.64222222222222,54.20574006919166L141.84444444444443,54.12067423512994L142.13333333333333,53.97120392233403L142.36444444444444,53.80555680698313L142.56666666666666,53.63797516170836L142.68222222222224,53.49379408445183L143,53.30315195135013L143.17333333333332,53.15325094587652L143.34666666666666,53.02572573975955L143.98222222222222,52.86711862895638L144.3,52.69789916761967L144.44444444444446,52.540773046542704L144.5888888888889,52.39100902588936L144.70444444444445,52.259163015554996L144.73333333333332,52.17093113033214L145.0511111111111,52.00163091759821L145.08,51.88723966563314L145.39777777777778,51.71916618755207L145.48444444444445,51.59596231228563L145.68666666666667,51.480874635257976L145.77333333333334,51.39808256237424L145.80222222222224,51.344322612337635L145.8311111111111,51.30824717667836L146.64,51.20742757551156L147.13111111111112,51.05036168713738L147.27555555555554,50.90872364651785L147.30444444444444,50.81562445766692L147.59333333333333,50.69735381488184L149.26888888888888,50.49000467708217L149.70222222222225,50.30899283558442L150.01999999999998,50.1676550321001L150.04888888888888,50.08059780432094L150.10666666666668,50.02170592685531L150.16444444444446,49.97865229690069L150.2511111111111,49.94186567928789L150.28,49.915788574614446L150.33777777777777,49.89088541245354L151.0022222222222,49.819341156338965L151.14666666666668,49.75744989481885L151.23333333333332,49.69766358475273L151.46444444444447,49.606568691375145L151.7822222222222,49.504805012489754L152.04222222222222,49.42260712381917L152.1288888888889,49.3692036843104L152.15777777777777,49.33572932099119L152.41777777777776,49.28575207957516L152.5911111111111,49.22027653317975L153.05333333333334,49.12550285733537L153.2266666666667,49.051212339859006L153.3422222222222,48.99979482010649L153.60222222222222,48.94483393142015L153.66,48.89878103321423L153.92,48.81682800522822L154.03555555555556,48.75282923502555L154.2088888888889,48.69676494433188L154.35333333333332,48.646946689091344L154.7866666666667,48.56326492822303L154.9888888888889,48.49127961275661L155.10444444444443,48.44007815526541L155.36444444444444,48.400445194283854L155.79777777777778,48.37273985578995L156,48.33842510005458L156.17333333333335,48.29876544249422L156.2888888888889,48.255607079102816L156.31777777777776,48.22430115141521L156.86666666666667,48.09470004318992L156.89555555555555,48.005136168473015L156.95333333333335,47.92670393733572L157.12666666666667,47.810708548715084L157.21333333333334,47.71365890627528L157.99333333333334,47.57980900600802L158.16666666666666,47.50689928051973L158.2822222222222,47.46941312502115L158.3688888888889,47.45071437329222L158.6,47.440794801534246L158.65777777777777,47.43250894058999L159.1488888888889,47.39968715375213L159.17777777777778,47.37779258409462L159.72666666666666,47.3181856770475L159.75555555555556,47.278655115315814L159.8422222222222,47.24387624236907L160.04444444444442,47.206802713709806L160.10222222222222,47.181959237955745L160.33333333333334,47.14936159986422L160.39111111111112,47.12574483476978L160.42,47.109001941221344L160.85333333333335,47.05256561204032L161.14222222222222,46.97016477205888L161.2288888888889,46.90210437308868L161.54666666666665,46.797398180551035L161.63333333333335,46.7199066560189L161.69111111111113,46.663465216202766L161.74888888888887,46.61986601975152L162.09555555555556,46.548986925045206L162.58666666666664,46.46855657658547L163.02,46.369902640352066L163.19333333333336,46.274982360464L163.39555555555557,46.18654612509112L163.62666666666667,46.069455286310266L163.7422222222222,45.95212056424989L163.94444444444443,45.80713405482031L163.97333333333336,45.711017870140516L164.00222222222223,45.64499307825109L164.29111111111112,45.542914025509056L164.89777777777778,45.363846688582676L165.04222222222222,45.22561184472693L165.18666666666667,45.1132822722605L165.64888888888888,44.971033611918116L165.79333333333335,44.83316676320115L165.96666666666667,44.69559488356994L166.0822222222222,44.583132608299714L166.1111111111111,44.508281552532516L166.34222222222223,44.39790952190121L166.42888888888888,44.30532138099887L166.45777777777778,44.24080336183677L166.51555555555558,44.18527629190902L166.60222222222222,44.125542079295L166.86222222222221,44.03652079754191L166.9488888888889,43.97236578138539L166.9777777777778,43.93079597992827L167.03555555555556,43.89967399146038L167.09333333333333,43.87312315050293L167.18,43.84125168170647L167.20888888888888,43.815975216902075L167.38222222222223,43.762375965045L167.55555555555557,43.70273748059626L167.61333333333334,43.66109257113664L167.70000000000002,43.63032337887135L168.2777777777778,43.52499554433249L168.33555555555557,43.45487606214184L168.7111111111111,43.39238084129506L169.0577777777778,43.33339921457773L169.60666666666665,43.25138092889307L169.66444444444446,43.19880140098287L170.12666666666667,43.15484042091576L170.2133333333333,43.12612971498608L170.2711111111111,43.10548168679502L170.3,43.09136880553022L170.8488888888889,43.069400326706514L171.54222222222222,43.03579570788007L171.6288888888889,43.00271571599166L172.00444444444446,42.95292204930025L172.23555555555555,42.90434638210309L172.46666666666667,42.866951996971146L172.49555555555554,42.8439318364197L172.58222222222224,42.83025236042347L172.64000000000001,42.822946493101156L172.6688888888889,42.81890778557781L173.07333333333332,42.81661718139841L173.30444444444444,42.79036324411501L173.94,42.691829268872L174.11333333333332,42.61594567342948L174.20000000000002,42.565296371247435L174.40222222222224,42.520716414133275L174.7777777777778,42.45505763368576L174.83555555555554,42.408713059882956L174.86444444444444,42.377590807235684L175.06666666666666,42.34531060931472L175.58666666666667,42.27480408953062L176.04888888888888,42.11982594136251L176.2511111111111,41.93551669003875L176.39555555555555,41.77246653486685L176.42444444444445,41.66588349967844L176.59777777777776,41.553155919490095L176.97333333333333,41.36441048179746L177.0311111111111,41.23501006242438L177.20444444444445,41.10787590191836L177.95555555555555,40.905924376523956L178.10000000000002,40.772578914568705L178.47555555555556,40.64464264846203L178.5911111111111,40.53156944117756L179.11111111111111,40.30951459170465L179.34222222222223,40.12463932371791L180.00666666666666,39.93361148081221L180.09333333333333,39.80663455988174L180.12222222222223,39.72583321967841L180.23777777777778,39.66056268119291L180.26666666666668,39.61766046466511L180.38222222222223,39.57910801042369L180.90222222222224,39.551069585497636L181.01777777777778,39.536209311494545L181.68222222222224,39.48628693962648L182.05777777777777,39.44620132294032L182.51999999999998,39.37148898510181L182.83777777777777,39.29584061663182L183.29999999999998,39.19294741845636L183.38666666666668,39.120840589383334L183.70444444444445,39.0392757392998L183.73333333333332,38.987021320883976L183.82,38.94497947086375L184.3111111111111,38.87336376779966L184.42666666666668,38.81999691172653L185.00444444444446,38.74150663282997L185.0622222222222,38.68512904206828L185.46666666666667,38.58984622454592L185.61111111111111,38.5240562122819L186.01555555555555,38.46251418124177L186.04444444444442,38.4247401924761L186.10222222222222,38.40125355314209L186.24666666666667,38.38567622179391L187.05555555555554,38.39831827446581L187.31555555555556,38.39720361211757L187.51777777777778,38.37406893002309L187.63333333333333,38.34626298563066L187.80666666666667,38.317749685146765L187.98,38.292313147841845L188.12444444444444,38.25986363009154L188.2111111111111,38.196814877483504L188.2688888888889,38.12291289490059L188.70222222222222,37.872665373811664L188.9622222222222,37.66206851263612L189.19333333333333,37.50984943067891L189.48222222222222,37.39761701676766L189.68444444444444,37.31866002710771L189.8288888888889,37.26797032494617L189.88666666666666,37.236362920637525L189.97333333333333,37.2181676759932L190.23333333333335,37.21836411324819L190.29111111111112,37.22009994368361L190.46444444444444,37.21631406176448L190.81111111111113,37.195422637631594L190.95555555555555,37.170076658827114L191.24444444444444,37.10866414696102L191.53333333333333,37.0449477600463L191.59111111111113,36.99918509289073L192.02444444444444,36.896743955400304L192.3422222222222,36.75782899748487L192.4,36.66076708013538L192.51555555555555,36.57664244040684L192.86222222222221,36.46760251679918L192.94888888888892,36.38761684989274L193.93111111111114,36.16236511048875L194.13333333333335,35.98366154895542L194.22,35.859092672266485L194.33555555555557,35.75981658434746L194.74,35.631129213189304L195.05777777777777,35.45962373257593L195.26,35.31144386196681L195.4622222222222,35.185561390307875L195.75111111111113,35.08531147693841L195.83777777777777,35.0174960735754L195.98222222222222,34.966197204787505L196.12666666666667,34.924569540142365L196.3,34.894977753710315L196.64666666666665,34.88958289703822L196.67555555555558,34.88730084944431L197.16666666666666,34.88548071175017L197.25333333333336,34.88452124946837L197.45555555555558,34.87940995665501L197.8022222222222,34.86507045252393L198.23555555555558,34.84299252404736L198.29333333333335,34.82595282539118L198.49555555555557,34.8011407693886L198.78444444444443,34.764662945310015L199.01555555555558,34.728904163861074L199.07333333333335,34.69954472304803L199.1311111111111,34.674873656758095L199.27555555555557,34.640124918656596L199.53555555555556,34.587473319552586L199.82444444444445,34.541108454812914L199.85333333333335,34.511061514347375L200.14222222222222,34.46497088726127L200.2577777777778,34.42256912979945L200.28666666666666,34.391398876866525L200.83555555555557,34.27930548546361L200.98000000000002,34.19817736362003L201.0377777777778,34.141092361298725L201.06666666666666,34.10222617226089L201.1533333333333,34.06559137724184L201.41333333333333,34.01064108504265L201.9333333333333,33.90841657098185L202.5111111111111,33.83580913410219L202.65555555555557,33.777789055500214L202.91555555555556,33.72035197925197L203.08888888888887,33.67827732629551L203.11777777777777,33.652422480982395L203.14666666666668,33.636883049727516L203.23333333333332,33.62891211838785L203.32,33.62696763474503L203.72444444444446,33.62158361791827L203.95555555555558,33.58753224205518L204.44666666666666,33.466893491694634L204.47555555555553,33.39169869038417L204.5911111111111,33.34003036506746L204.73555555555555,33.305846481846466L204.9377777777778,33.278545990780934L205.1977777777778,33.255136818406584L205.25555555555553,33.24159527225357L205.54444444444445,33.24317815305628L205.7177777777778,33.23938007355827L205.77555555555554,33.23516496897398L205.9488888888889,33.23250328588871L206.00666666666666,33.231357185175305L206.06444444444446,33.230510380345756L206.4111111111111,33.22175331263432L206.4688888888889,33.2157829222005L206.52666666666667,33.21177630286937L206.7577777777778,33.19518195546578L207.1911111111111,33.12811903093404L207.30666666666667,33.074062237347086L207.45111111111112,33.02971885514558L207.5377777777778,32.9991076917189L208,32.985833614512465L208.2888888888889,32.97248478260285L208.31777777777776,32.96065601781986L208.37555555555554,32.945946351742634L208.54888888888888,32.919853384528146L208.57777777777775,32.902155251046175L208.72222222222223,32.88490535422569L208.92444444444445,32.869966752555406L209.0688888888889,32.8623563189664L209.2711111111111,32.84073508378018L209.44444444444446,32.80420897123912L209.82000000000002,32.74181757758681L210.02222222222224,32.69565632337703L210.57111111111112,32.68599593636026L211.14888888888888,32.671340665797175L211.23555555555555,32.65708354567276L211.35111111111112,32.63744221362338L211.38,32.62149313588668L211.58222222222224,32.573543364403974L212.07333333333332,32.3706960502853L212.39111111111112,32.16373931071693L212.70888888888888,31.909305574307062L212.9111111111111,31.65092040169785L213.08444444444444,31.410136989763725L213.77777777777777,30.87998048544608L214.44222222222223,30.395633731369333L214.70222222222225,30.07428428535714L215.13555555555556,29.809037390977466L215.16444444444446,29.646626794117918L215.36666666666667,29.534167814122565L215.48222222222222,29.458761730114745L215.85777777777778,29.40229839940079L215.88666666666668,29.367863395567056L216.17555555555555,29.352401110384033L216.29111111111112,29.344317322285857L216.5222222222222,29.33158940155015L216.5511111111111,29.32275906609717L216.66666666666669,29.312819153113537L216.92666666666668,29.26847488048275L216.95555555555555,29.236802220121643L217.24444444444447,29.18459049211469L217.27333333333334,29.15138024655898L217.3022222222222,29.12946479420611L217.53333333333333,29.09151552021954L217.6488888888889,29.06012563407692L218.11111111111111,29.001717794539157L218.3422222222222,28.967415764690376L218.80444444444444,28.96924738333286L218.92,28.976208173308773L218.97777777777776,28.984151064797633L219.0066666666667,28.9905612918403L219.09333333333333,28.999950958053297L219.35333333333332,29.01624743268501L219.38222222222223,29.026635371003152L219.64222222222222,29.033106850596422L219.7288888888889,29.03298460424674L220.01777777777778,29.021214142922858L220.16222222222223,29.013939673593256L220.97111111111113,28.975305897528305L221.20222222222222,28.929871939739165L221.4622222222222,28.892028462362607L221.51999999999998,28.860463337583703L221.63555555555556,28.822559554864913L221.8088888888889,28.78475161522023L221.89555555555555,28.75869829493402L222.09777777777776,28.73821239851507L222.18444444444444,28.72226053942798L222.3288888888889,28.707490706858355L222.41555555555556,28.69690474296652L222.44444444444443,28.690473592430656L222.64666666666665,28.68637618550676L222.76222222222222,28.683572928482395L222.87777777777777,28.685233006700276L223.16666666666666,28.703124884262294L223.19555555555556,28.71645936935815L223.54222222222222,28.715627546129554L223.65777777777777,28.70690599144569L223.85999999999999,28.6915143410031L223.97555555555556,28.681138815859743L224.29333333333335,28.685974036681593L224.64,28.688662976639268L225.10222222222222,28.66810222066445L225.70888888888888,28.620727474671654L225.82444444444442,28.583231396187546L226.2577777777778,28.509834064667945L226.4022222222222,28.455265611186945L226.48888888888888,28.418996838197256L226.66222222222223,28.38914573399125L226.77777777777777,28.369802771853788L226.89333333333335,28.35313089778861L227.12444444444444,28.33299557978407L227.29777777777778,28.31998604663905L227.32666666666665,28.31310866909445L227.35555555555555,28.310202349646183L227.8177777777778,28.314983478440812L228.02,28.327135579141395L228.07777777777778,28.335806091041846L228.25111111111113,28.34405866587847L228.48222222222222,28.357232671527196L228.56888888888886,28.365587984054116L228.68444444444444,28.34773742588096L228.7422222222222,28.32318152804215L228.97333333333336,28.268449696415946L229.20444444444445,28.181819789716172L229.29111111111112,28.10345039910588L229.69555555555556,27.958369289317744L229.8111111111111,27.851082760381104L230.04222222222222,27.758674904279324L230.12888888888887,27.69646655355234L230.3022222222222,27.647205712999877L230.79333333333335,27.59505070364828L230.82222222222222,27.55967299173089L230.88,27.529083368955973L231.4,27.41418199168383L231.51555555555558,27.32097164408412L231.60222222222222,27.24687644968067L232.03555555555556,27.11141525941871L232.12222222222223,27.0077522327768L232.23777777777778,26.922027569429126L232.44,26.834573088536253L232.4977777777778,26.766451200514837L232.81555555555556,26.66603153745524L232.98888888888888,26.57238593936084L233.39333333333332,26.456201141119696L233.74,26.390124059343776L233.94222222222223,26.353952463045417L234.17333333333332,26.332647366270137L234.40444444444444,26.297159706917224L234.4333333333333,26.269925720314248L234.57777777777778,26.226902117025894L234.69333333333333,26.18718934398406L235.0688888888889,25.934379410395056L235.18444444444444,25.722457294255012L235.58888888888887,25.463850748890284L235.93555555555557,25.23139569065191L235.96444444444444,25.08789099753628L236.16666666666666,24.98475973070102L236.39777777777778,24.917735301616382L236.5711111111111,24.86823722074179L236.74444444444444,24.824639761148315L236.94666666666666,24.77914524060383L237.00444444444446,24.74540318001443L237.26444444444445,24.70181676476674L237.32222222222222,24.672375931319486L237.3511111111111,24.653173035369516L237.9,24.637142206422205L237.98666666666668,24.627417612786157L238.24666666666667,24.62627761645028L238.62222222222223,24.633842603462426L238.94,24.62519913440796L239.02666666666667,24.617997223888857L239.31555555555553,24.60943222686957L239.4311111111111,24.600049377949986" style="fill: none;" fill="none"></path></g></g></g></g><g opacity="0.2"><g><g><g><path stroke="rgb(255, 112, 67)" stroke-width="2px" d="M29.03333333333333,150.64001172184945L29.40888888888889,150.64266412854195L29.582222222222224,150.6444545030594L30.044444444444444,150.65019033253193L30.10222222222222,150.65088658928872L30.18888888888889,150.65208017230034L30.42,150.655296215415L30.506666666666668,150.656357178092L30.939999999999998,150.66060102880002L31.026666666666667,150.66070049405099L31.604444444444443,150.64355931580067L31.835555555555555,150.6258545011282L31.951111111111114,150.616902628541L32.52888888888889,150.57293898761273L32.904444444444444,150.55420636534691L33.36666666666667,150.5252288222313L33.45333333333333,150.5170395165682L33.71333333333334,150.49416250884533L34.03111111111111,150.4629304200411L34.175555555555555,150.43342239558697L34.23333333333333,150.4211881697178L34.26222222222222,150.41505447924138L34.37777777777777,150.39197854101658L34.86888888888888,150.3295143634081L35.33111111111111,150.2835945725441L35.504444444444445,150.2702330738306L35.648888888888884,150.25849617421628L36.08222222222222,150.20408868193627L36.25555555555556,150.17991862595082L36.400000000000006,150.1624127417803L36.602222222222224,150.1411603331566L36.717777777777776,150.1296886742115L36.775555555555556,150.12504696249962L37.324444444444445,150.05697957575322L37.64222222222222,149.99053678810597L37.78666666666667,149.96112822890282L37.84444444444444,149.94942448437214L38.07555555555555,149.91010255515576L38.422222222222224,149.81269291937352L38.68222222222222,149.7461506664753L38.913333333333334,149.69983301460744L39.37555555555555,149.60716455578805L39.49111111111111,149.59204583764077L39.78,149.5317698955536L41.05111111111111,149.26908216774464L41.08,149.26354526877404L41.57111111111111,149.1412361651659L41.628888888888895,149.1268137037754L41.657777777777774,149.1196853607893L41.74444444444445,149.09568108022214L42.17777777777778,148.95437411367894L42.26444444444445,148.92088747918606L42.29333333333333,148.91027785241604L42.58222222222222,148.80431420505047L43.07333333333333,148.65412167608739L43.13111111111111,148.63933450877667L43.73777777777778,148.4480628311634L43.82444444444444,148.4222681760788L44.05555555555556,148.35194624364377L44.22888888888889,148.2947868794203L44.28666666666667,148.2748938292265L44.373333333333335,148.2462809920311L44.54666666666667,148.19150879383088L44.69111111111111,148.1508938163519L44.98,148.07208418250084L45.153333333333336,148.01996439099312L45.44222222222222,147.9544167906046L45.61555555555555,147.92066491544247L45.67333333333333,147.9076018124819L45.81777777777778,147.8748777449131L45.84666666666667,147.86771624684334L46.28,147.77292586266995L46.8,147.6466049939394L46.85777777777778,147.61885418891907L47.20444444444444,147.47439748942853L47.406666666666666,147.4075568407774L47.43555555555555,147.3957204759121L47.49333333333333,147.36949480473996L47.58,147.33498036265374L47.63777777777778,147.31880068182946L47.98444444444444,147.1874733954668L48.18666666666666,147.0925503909588L48.27333333333333,147.05044343471528L48.36,147.00439102351666L48.62,146.89003913998604L48.76444444444444,146.83609581887723L49.51555555555556,146.49108401834965L49.63111111111111,146.44184871912003L49.74666666666666,146.40189684331418L49.775555555555556,146.39248079955578L49.977777777777774,146.32829255759717L50.23777777777777,146.20757489800454L50.35333333333333,146.13957382142544L50.46888888888889,146.06013424098492L50.61333333333333,145.98288289606572L50.72888888888889,145.9257566869259L50.988888888888894,145.8062326103449L51.10444444444445,145.76773955821992L51.13333333333333,145.75829035937787L51.16222222222222,145.74864223003388L51.22,145.72894811034203L51.422222222222224,145.66184222102166L51.56666666666667,145.61602189540864L51.62444444444445,145.60014061033726L51.76888888888889,145.55103793144227L51.82666666666667,145.5286250948906L51.94222222222222,145.4798208117485L52.05777777777778,145.42584433555604L52.23111111111111,145.3305566251278L52.260000000000005,145.31437694430352L52.92444444444444,144.89705390632153L53.04,144.82842288315297L53.99333333333333,143.99205274283887L54.13777777777778,143.89809123575688L54.19555555555555,143.86911369264126L54.36888888888889,143.74362170100213L54.6,143.58848906457425L54.77333333333333,143.48226017653943L54.888888888888886,143.4204259455204L55.09111111111111,143.31363342106343L55.14888888888889,143.28090935349465L55.32222222222222,143.16420345902444L55.379999999999995,143.12269329428673L55.784444444444446,142.84548363983632L55.81333333333333,142.82426438629628L56.102222222222224,142.5827627569437L56.18888888888889,142.50760018229485L56.44888888888889,142.320340269804L56.56444444444445,142.24584079682828L56.68,142.1666001468897L56.94,141.97237766683102L56.96888888888889,141.94960012435914L57.142222222222216,141.83713808059693L57.17111111111111,141.820925244689L57.315555555555555,141.7325006365776L57.66222222222222,141.54199152588845L57.83555555555556,141.43629311919213L57.92222222222222,141.37860327363015L58.18222222222222,141.2433968424797L58.26888888888889,141.1974107414484L58.5,141.0434385329485L58.846666666666664,140.78462994992734L59.04888888888889,140.62508768737317L59.42444444444445,140.30172615647317L59.59777777777778,140.14486945569516L59.684444444444445,140.06383843123913L59.742222222222225,140.00903307795525L59.85777777777778,139.91653039455414L59.97333333333333,139.83390792608262L60.03111111111111,139.79819990098477L60.175555555555555,139.72051753997803L60.20444444444444,139.70128759145737L60.46444444444444,139.48843195438386L60.63777777777778,139.3337303340435L60.75333333333333,139.24029930830002L60.782222222222224,139.21745545566083L61.071111111111115,138.99690783917904L61.21555555555556,138.87128322720528L61.62,138.52113238871098L62.284444444444446,137.8926114678383L62.4,137.80445210039616L62.428888888888885,137.7835643976927L62.45777777777778,137.76174835264683L62.97777777777778,137.43467345237733L63.324444444444445,137.2091525733471L63.35333333333333,137.19111620783806L63.52666666666667,137.07082956433297L63.72888888888889,136.92564345300198L64.48,136.1632423043251L64.53777777777778,136.1121834754944L64.82666666666667,135.83278558552266L65.14444444444443,135.52397913634778L65.2311111111111,135.4611170977354L65.31777777777778,135.3859213680029L65.89555555555556,134.9229106247425L66.06888888888889,134.7854828029871L66.27111111111111,134.62325497865677L66.44444444444444,134.466762983799L66.73333333333333,134.23606991171837L66.90666666666667,134.09814476370812L66.99333333333333,134.032365077734L67.31111111111112,133.71715969741345L67.39777777777778,133.5981992572546L67.48444444444443,133.46378854811192L67.51333333333334,133.42015645802022L68.03333333333333,132.77217350304127L68.9,132.21768788397313L68.98666666666666,132.16221942901612L69.07333333333334,132.115636536479L69.10222222222222,132.09942370057107L69.73777777777777,131.663102799654L70.08444444444444,131.0963829547167L70.14222222222223,130.96863641738892L70.25777777777778,130.718680241704L70.37333333333333,130.47518930733204L70.4888888888889,130.2590181618929L71.21111111111111,129.1508094906807L71.24000000000001,129.11208435297013L71.55777777777777,128.7116372525692L71.78888888888888,128.4709313452244L71.90444444444445,128.3573088735342L71.96222222222222,128.29928747713566L72.25111111111111,128.03421258330346L72.45333333333333,127.8589548110962L72.88666666666667,127.37359754145146L73.00222222222223,127.24525421261788L73.69555555555556,126.61109692752362L73.72444444444444,126.58490441143513L74.18666666666667,126.08174286186696L74.21555555555555,126.05170435607434L74.47555555555556,125.80864443778992L74.64888888888889,125.56621446609498L74.76444444444445,125.38880161345006L75.02444444444444,124.99289675951005L75.22666666666666,124.67003255486489L75.25555555555556,124.6262346893549L75.63111111111111,124.14339720606804L75.8911111111111,123.897021779418L76.03555555555556,123.74560251235962L76.17999999999999,123.61013084053994L76.26666666666667,123.54866131544114L76.41111111111111,123.45012440681458L76.49777777777777,123.39342921376229L76.84444444444445,123.1544473707676L77.07555555555555,122.98306874334813L77.27777777777777,122.85754359662533L77.47999999999999,122.70817994475365L77.74,122.48083553612233L77.85555555555555,122.36797563135625L77.88444444444445,122.34443552196026L77.91333333333334,122.32218846082688L77.9711111111111,122.27961733341218L78.05777777777777,122.21174887716771L78.25999999999999,122.01507292091847L78.52,121.68975524008275L78.80888888888889,121.17817229926587L78.92444444444445,120.94794339835644L78.98222222222222,120.84943964481354L79.06888888888889,120.7223562091589L79.21333333333332,120.5316481679678L79.3,120.41719681918622L79.32888888888888,120.38022890090943L79.35777777777778,120.34193477928639L79.90666666666667,119.68834861516953L80.16666666666667,119.38763200640679L80.34,119.14142235517502L80.54222222222222,118.84965761899949L80.57111111111111,118.80549504756928L80.83111111111111,118.45922335386277L81.03333333333333,118.21778803467751L81.38,117.88995056748391L81.64,117.6230521440506L81.75555555555556,117.52676978111268L82.04444444444444,117.19077616333962L82.16,117.0183697283268L82.30444444444444,116.82626917362214L82.42,116.68516113758088L82.79555555555555,116.03618353009225L82.88222222222223,115.88532789945603L83.05555555555554,115.62990113496781L83.08444444444444,115.59031396508217L83.11333333333333,115.54966583251954L84.09555555555555,114.38499405384064L84.2688888888889,114.21451061367989L84.76,113.46659823656083L84.81777777777778,113.38536828160287L84.87555555555555,113.30586239099503L85.0488888888889,113.04446771144868L85.13555555555556,112.90236502289773L85.19333333333333,112.79355003833771L85.28,112.63679280281067L85.71333333333334,111.88171892762185L86.11777777777777,111.28174453377724L86.17555555555555,111.19766324162484L86.69555555555556,110.56990488767624L86.81111111111112,110.44006958007813L87.04222222222222,110.18258720040322L87.15777777777777,110.05056365728379L87.44666666666666,109.60761173963547L87.53333333333333,109.46875824928284L87.62,109.31478604078293L87.70666666666666,109.16903629302979L88.4,107.78554096221924L88.74666666666667,107.09717511534691L88.77555555555556,107.05016120672227L88.86222222222223,106.91409274339676L88.89111111111112,106.8690681397915L88.94888888888889,106.78352802395821L89.00666666666666,106.70773550271988L89.12222222222222,106.53837933540345L89.23777777777778,106.38381033539773L89.38222222222223,106.20762422084809L89.44,106.13859533667565L89.87333333333333,105.5289396584034L90.85555555555555,103.9676004588604L90.97111111111111,103.78339081406594L91.02888888888889,103.66157903671265L91.17333333333333,103.3429586827755L91.43333333333334,102.80100568532944L91.66444444444444,102.31826766729355L91.78,102.10766657590867L92.06888888888889,101.64455636739731L92.12666666666667,101.55875101089478L92.18444444444445,101.47659271359444L92.21333333333334,101.43494992852212L92.32888888888888,101.25717236995698L92.41555555555556,101.12740337252617L92.64666666666666,100.77735199928284L92.76222222222223,100.59334128499032L93.16666666666667,99.9360085964203L93.34,99.65491979718209L93.48444444444445,99.47210266590119L93.51333333333334,99.44100319743157L93.57111111111111,99.366006398201L93.65777777777778,99.25248339176179L93.71555555555555,99.18385236859322L93.77333333333334,99.1186031639576L93.80222222222221,99.08631011247635L94.00444444444445,98.87411757707596L94.0911111111111,98.7765753209591L94.23555555555556,98.61053466200829L94.78444444444445,98.0279998421669L95.07333333333332,97.7437281548977L95.24666666666667,97.58657305836678L95.42,97.45136662721634L95.53555555555556,97.36589282155037L95.56444444444445,97.34699442386628L95.88222222222221,97.12631418704987L95.91111111111111,97.10953771471978L96.34444444444445,96.77261575460435L96.63333333333333,96.58084675073624L96.89333333333333,96.39736651778222L97.38444444444444,95.98306059241295L97.90444444444444,95.46139850616456L97.93333333333332,95.4043717622757L97.99111111111111,95.28275891542435L98.28,94.56621124744416L98.39555555555556,94.28678020238877L98.94444444444444,93.34689989089966L99.26222222222222,92.76429876089097L99.49333333333333,92.4230003297329L99.66666666666667,92.17778533101082L99.69555555555554,92.13475003242493L99.75333333333333,92.0531222164631L99.81111111111112,91.98124199509621L99.95555555555555,91.83131470680237L100.67777777777778,91.1070087492466L100.70666666666666,91.06490179300309L100.99555555555555,90.71020870804787L101.05333333333333,90.66001191139222L101.19777777777779,90.54018943905831L101.60222222222222,90.21328031420708L101.77555555555556,90.08901506066323L101.97777777777779,89.91614445447922L102.03555555555555,89.86163749694825L102.09333333333333,89.8109765291214L102.4688888888889,89.45661499500275L102.58444444444444,89.30264278650284L102.64222222222223,89.219954007864L103.01777777777777,88.64809512495994L103.36444444444444,88.1771603167057L103.71111111111111,87.80250787138938L103.74000000000001,87.7689549267292L103.7688888888889,87.73712604641914L104,87.43634312748908L104.17333333333333,87.14504256248473L104.66444444444444,86.37935906052589L104.83777777777777,86.12267240285873L104.86666666666666,86.0867986023426L105.09777777777778,85.82858681082725L105.27111111111111,85.6071771621704L105.44444444444444,85.35208194851874L105.58888888888889,85.13020812869071L106.25333333333333,84.36406045556068L106.31111111111112,84.31087970137595L106.45555555555555,84.19052674770354L106.6,84.08409892916679L106.97555555555556,83.75513418912887L107.17777777777778,83.46416517496108L107.6111111111111,82.89495869874953L107.95777777777778,82.50949769616126L108.04444444444445,82.41056292653083L108.21777777777777,82.23868697285651L108.44888888888889,82.03286021351813L108.47777777777777,82.00680031776427L108.53555555555556,81.95030405521392L108.79555555555555,81.67684092521667L109.46,81.02408363819121L109.48888888888888,80.99789112210273L109.51777777777778,80.973555290699L109.72,80.72727932929992L110.03777777777778,80.21065681576728L110.09555555555556,80.11709316968917L110.44222222222221,79.59330915808677L110.4711111111111,79.53455834984779L110.55777777777777,79.36845138072967L110.61555555555556,79.2472363948822L110.64444444444445,79.18417542576789L111.48222222222222,77.8351613819599L111.82888888888888,77.3806714951992L111.85777777777778,77.34910785555839L112.11777777777777,76.9877174437046L112.2911111111111,76.68945431113242L112.37777777777778,76.53389065861701L112.55111111111111,76.2427890241146L112.66666666666667,76.08649595975875L113.15777777777778,75.29694079756736L113.21555555555557,75.18991618752479L113.24444444444444,75.13593971133231L113.27333333333333,75.08262633681296L113.5911111111111,74.62130650281905L114.11111111111111,74.23027544617652L114.60222222222222,73.94719734191894L114.80444444444444,73.79037379622459L114.83333333333333,73.76849144101142L114.92,73.68673100471496L115.49777777777778,73.08987318873405L115.64222222222222,72.96706675887107L115.7,72.91846140623092L115.75777777777779,72.86044000983237L115.81555555555555,72.8001640677452L115.87333333333333,72.73955657482146L115.9888888888889,72.63021110892295L116.01777777777778,72.60600789785384L116.33555555555554,72.32531695961951L116.42222222222222,72.25409983992576L116.65333333333334,72.09767415523528L116.74000000000001,72.0478752195835L117,71.93455114364623L117.43333333333334,71.67421742677688L117.5488888888889,71.55048265457152L117.60666666666665,71.48496820926665L118.04,71.0491777896881L118.41555555555556,70.68234994411468L119.08,70.21890818476676L119.51333333333334,69.93085681796073L119.54222222222222,69.91381510496139L119.74444444444444,69.80122044086455L119.8888888888889,69.72880973815917L120.03333333333333,69.64685037136077L120.14888888888888,69.56104501485824L120.20666666666666,69.50129955410956L120.66888888888889,69.11557331085204L120.98666666666666,68.97413372397422L121.18888888888888,68.87519895434379L121.21777777777777,68.86140643954276L121.42,68.75710054636001L121.50666666666666,68.7024609684944L122.19999999999999,68.49835827350616L122.28666666666666,68.45930158495902L122.48888888888888,68.38742136359214L122.57555555555555,68.3572502374649L122.60444444444444,68.34803312420844L122.66222222222223,68.32707911133765L122.69111111111111,68.31607162356376L123.26888888888888,68.13710048198699L123.41333333333334,68.0835881769657L123.67333333333333,67.98597961068153L123.7311111111111,67.96834110617637L123.78888888888889,67.94765233397483L124.36666666666666,67.64991968274116L124.59777777777778,67.53619774580001L125.00222222222223,67.26227044463157L125.0311111111111,67.24052070975303L125.17555555555556,67.14801802635192L125.32,67.07573994398116L125.52222222222221,67.00107469558715L125.86888888888889,66.79551317691802L126.36,66.49678587317466L126.41777777777777,66.45746394395827L126.47555555555556,66.40865966081618L126.56222222222222,66.33326500058173L126.70666666666666,66.22836231589316L127.19777777777777,65.8875943660736L127.34222222222222,65.75961574316024L127.97777777777777,65.41646062731742L128.06444444444446,65.38575901985168L128.20888888888888,65.3071151614189L128.4111111111111,65.20068734288215L128.52666666666667,65.1305974960327L128.58444444444444,65.0927343904972L128.7577777777778,64.98783170580863L128.78666666666666,64.96760710477828L128.96,64.85799639821052L129.16222222222223,64.76171403527259L129.33555555555557,64.63605626821517L129.42222222222222,64.57743808031081L129.91333333333333,64.25185515880584L129.9711111111111,64.21677708029746L130.26,64.04324337244033L130.34666666666666,63.98654817938804L130.40444444444444,63.94165619611739L130.54888888888888,63.77873211503028L131.01111111111112,63.272586607933036L131.06888888888886,63.14135878682136L131.2422222222222,62.69237264394759L131.35777777777778,62.3976902604103L131.41555555555556,62.269114845991126L131.82,61.66396825909614L132.3111111111111,61.286066615581504L132.6577777777778,61.15238531827926L132.86,61.08547835946082L132.88888888888889,61.07506766319274L133.40888888888887,60.79185693860053L133.46666666666667,60.73410078287124L133.52444444444444,60.67959382534026L133.6111111111111,60.60293927192687L133.6977777777778,60.52442803382873L134.18888888888887,60.01198306083678L134.50666666666666,59.60198729634284L134.53555555555556,59.561604404449454L134.70888888888888,59.33847069144248L134.9111111111111,59.09836157560348L135.60444444444445,58.205627793073646L135.7777777777778,58.029839539527885L135.83555555555557,57.97805129885673L136.44222222222223,57.22708865404128L136.52888888888887,57.13379024863242L136.64444444444445,57.03412606716155L136.67333333333332,57.014498257637015L136.70222222222222,56.996528202295295L136.87555555555556,56.86026080846786L136.96222222222224,56.788380587100974L137.02,56.74673780202865L137.28,56.59429072737693L137.48222222222222,56.504904621839515L137.85777777777778,56.30955486893653L137.97333333333333,56.264662885665885L138.08888888888887,56.21924042105674L138.46444444444444,56.012021148204795L138.52222222222224,55.9726329088211L138.60888888888888,55.90512915849685L138.95555555555558,55.649105602502814L139.0711111111111,55.555541956424705L139.21555555555554,55.42617081999778L139.2733333333333,55.3700724184513L139.56222222222223,55.09674190878867L139.62,55.04501997828483L139.67777777777778,54.996414625644675L140.0533333333333,54.718972885608665L140.51555555555555,54.57779853940009L140.66,54.52203168869018L140.86222222222221,54.446835958957664L141.58444444444444,54.11568298339843L141.61333333333332,54.10248726010322L141.64222222222222,54.08909260630607L141.84444444444443,53.99307548403739L142.13333333333333,53.74699845314025L142.36444444444444,53.5570861339569L142.56666666666666,53.38660269379615L142.68222222222224,53.277522468566886L143,53.01718875169753L143.17333333333332,52.92839943766593L143.34666666666666,52.834437930583945L143.98222222222222,52.62920796275138L144.3,52.44406997561454L144.44444444444446,52.30508386492728L144.5888888888889,52.16636299490928L144.70444444444445,52.0613940000534L144.73333333333332,52.038583302497855L145.0511111111111,51.74768059849738L145.08,51.715652787685386L145.39777777777778,51.467055970430366L145.48444444444445,51.411156499385825L145.68666666666667,51.308243119716636L145.77333333333334,51.2738944530487L145.80222222222224,51.263682687282554L145.8311111111111,51.254134023189536L146.64,51.05619817376136L147.13111111111112,50.8147628545761L147.27555555555554,50.69626658558845L147.30444444444444,50.675975674390784L147.59333333333333,50.519947850704185L149.26888888888888,50.17898097038268L149.70222222222225,50.037475073337546L150.01999999999998,49.95564832687377L150.04888888888888,49.9500119626522L150.10666666666668,49.93336811065673L150.16444444444446,49.91407185196876L150.2511111111111,49.886685752868644L150.28,49.87667291760444L150.33777777777777,49.85353066921233L151.0022222222222,49.7120247721672L151.14666666666668,49.66461300253867L151.23333333333332,49.60798411965369L151.46444444444447,49.469926351308814L151.7822222222222,49.3521594941616L152.04222222222222,49.29931029081344L152.1288888888889,49.289098525047294L152.15777777777777,49.28551777601241L152.41777777777776,49.21078621745109L152.5911111111111,49.1220632135868L153.05333333333334,48.98334234356879L153.2266666666667,48.9397765636444L153.3422222222222,48.922668540477744L153.60222222222222,48.86239259839057L153.66,48.82970168590545L153.92,48.6938984632492L154.03555555555556,48.65683107972144L154.2088888888889,48.612668508291236L154.35333333333332,48.57221930623054L154.7866666666667,48.43774228692054L154.9888888888889,48.383301639556876L155.10444444444443,48.363275969028464L155.36444444444444,48.34099575281142L155.79777777777778,48.331181848049155L156,48.286952966451636L156.17333333333335,48.23927595615386L156.2888888888889,48.19086953401565L156.31777777777776,48.17734225988387L156.86666666666667,47.90029838085174L156.89555555555555,47.87079035639762L156.95333333333335,47.80905559062957L157.12666666666667,47.636715465784064L157.21333333333334,47.5680844426155L157.99333333333334,47.379034155607215L158.16666666666666,47.39753469228744L158.2822222222222,47.413183891773215L158.3688888888889,47.42266624569892L158.6,47.42591544389724L158.65777777777777,47.42008014917373L159.1488888888889,47.350454473495475L159.17777777777778,47.34495072960853L159.72666666666666,47.22877531647681L159.75555555555556,47.21935927271842L159.8422222222222,47.19170793294906L160.04444444444442,47.151192420721046L160.10222222222222,47.14469402432441L160.33333333333334,47.10046514272689L160.39111111111112,47.09031968712806L160.42,47.083887600898734L160.85333333333335,46.96791111826896L161.14222222222222,46.84656351208686L161.2288888888889,46.8000137746334L161.54666666666665,46.640338891744605L161.63333333333335,46.603669369220725L161.69111111111113,46.57880305647849L161.74888888888887,46.55446722507476L162.09555555555556,46.44266828298568L162.58666666666664,46.34791105389594L163.02,46.22192173600196L163.19333333333336,46.13260194063186L163.39555555555557,46.053891772031776L163.62666666666667,45.893819028139106L163.7422222222222,45.7761184811592L163.94444444444443,45.58965429067611L163.97333333333336,45.566843593120566L164.00222222222223,45.54595589041709L164.29111111111112,45.389795446395865L164.89777777777778,45.0952456831932L165.04222222222222,45.018259578943244L165.18666666666667,44.94478791356086L165.64888888888888,44.75766062140464L165.79333333333335,44.62636649012565L165.96666666666667,44.489237064123145L166.0822222222222,44.41443919539451L166.1111111111111,44.3960049688816L166.34222222222223,44.23235147595405L166.42888888888888,44.1664391696453L166.45777777777778,44.144026333093635L166.51555555555558,44.10198568701743L166.60222222222222,44.03594076037406L166.86222222222221,43.90298887491225L166.9488888888889,43.87613325715064L166.9777777777778,43.86844127774238L167.03555555555556,43.852991008758536L167.09333333333333,43.83329688906669L167.18,43.7934444785118L167.20888888888888,43.77806051969527L167.38222222222223,43.681977087259284L167.55555555555557,43.61327975392341L167.61333333333334,43.59862520694732L167.70000000000002,43.58416959047317L168.2777777777778,43.36700379252433L168.33555555555557,43.349696838855735L168.7111111111111,43.298638010025016L169.0577777777778,43.24492677450179L169.60666666666665,43.1283535003662L169.66444444444446,43.1199321091175L170.12666666666667,43.08889895081519L170.2133333333333,43.08306365609168L170.2711111111111,43.07450964450835L170.3,43.07019948363303L170.8488888888889,43.03644760847091L171.54222222222222,42.98538877964019L171.6288888888889,42.95309572815894L172.00444444444446,42.87823154926299L172.23555555555555,42.83148288130759L172.46666666666667,42.81086041927337L172.49555555555554,42.80940159559249L172.58222222222224,42.80973314642905L172.64000000000001,42.81198769211768L172.6688888888889,42.81284972429275L173.07333333333332,42.81318127512931L173.30444444444444,42.75098233819007L173.94,42.54402830600738L174.11333333333332,42.5021202802658L174.20000000000002,42.48932241797446L174.40222222222224,42.45384647846221L174.7777777777778,42.356569463014594L174.83555555555554,42.33919619917869L174.86444444444444,42.33090742826461L175.06666666666666,42.296890312433234L175.58666666666667,42.1690443098545L176.04888888888888,41.88735871911048L176.2511111111111,41.65905281305312L176.39555555555555,41.527891302108756L176.42444444444445,41.50600894689559L176.59777777777776,41.38406454920768L176.97333333333333,41.08129232525825L177.0311111111111,41.04090943336486L177.20444444444445,40.91717466115951L177.95555555555555,40.6029970884323L178.10000000000002,40.57256072163581L178.47555555555556,40.4527382493019L178.5911111111111,40.36195963025092L179.11111111111111,39.97643231749534L179.34222222222223,39.84732642173766L180.00666666666666,39.647069716453544L180.09333333333333,39.61616917848586L180.12222222222223,39.604631209373466L180.23777777777778,39.562656873464576L180.26666666666668,39.553307139873496L180.38222222222223,39.5212793290615L180.90222222222224,39.509011948108665L181.01777777777778,39.5139189004898L181.68222222222224,39.411403381824485L182.05777777777777,39.38607289791106L182.51999999999998,39.259420478343955L182.83777777777777,39.18236806392669L183.29999999999998,39.038607621192924L183.38666666666668,39.01268034577369L183.70444444444445,38.91692846417426L183.73333333333332,38.908639693260184L183.82,38.8819166958332L184.3111111111111,38.76594021320342L184.42666666666668,38.739946627616874L185.00444444444446,38.62377121448516L185.0622222222222,38.60056265592574L185.46666666666667,38.4469219982624L185.61111111111111,38.425371193885795L186.01555555555555,38.37020113468169L186.04444444444442,38.36807920932769L186.10222222222222,38.366023594141L186.24666666666667,38.36231022477149L187.05555555555554,38.417281353473655L187.31555555555556,38.395531618595115L187.51777777777778,38.339366906881324L187.63333333333333,38.3045540690422L187.80666666666667,38.27497973442077L187.98,38.254158341884605L188.12444444444444,38.211189353466025L188.2111111111111,38.10224174857139L188.2688888888889,38.01205992102622L188.70222222222222,37.497294092178336L188.9622222222222,37.34617322087287L189.19333333333333,37.281520807743064L189.48222222222222,37.22926839590072L189.68444444444444,37.20022454261779L189.8288888888889,37.19193577170371L189.88666666666666,37.188951814174644L189.97333333333333,37.19087480902671L190.23333333333335,37.2186587691307L190.29111111111112,37.22270368933677L190.46444444444444,37.21063523888587L190.81111111111113,37.16408550143241L190.95555555555555,37.132057690620414L191.24444444444444,37.016545379161826L191.53333333333333,36.94937317967414L191.59111111111113,36.930541092157355L192.02444444444444,36.74308224916457L192.3422222222222,36.549456560611716L192.4,36.51517420411109L192.51555555555555,36.45045548081397L192.86222222222221,36.3040426313877L192.94888888888892,36.26763834953307L193.93111111111114,35.82448750138282L194.13333333333335,35.715606206655494L194.22,35.67223935723304L194.33555555555557,35.61090245246886L194.74,35.43809815645217L195.05777777777777,35.2023655116558L195.26,35.08917405605315L195.4622222222222,34.99673768281936L195.75111111111113,34.934936606883994L195.83777777777777,34.915772968530646L195.98222222222222,34.8892489016056L196.12666666666667,34.862128043174735L196.3,34.85059007406234L196.64666666666665,34.88149061203002L196.67555555555558,34.883877778053275L197.16666666666666,34.88275050520896L197.25333333333336,34.883082056045524L197.45555555555558,34.871743017435065L197.8022222222222,34.8435611963272L198.23555555555558,34.80987563133239L198.29333333333335,34.800393277406684L198.49555555555557,34.76392268538474L198.78444444444443,34.70994620919227L199.01555555555558,34.675265991687766L199.07333333333335,34.655505561828605L199.1311111111111,34.63786705732345L199.27555555555557,34.588001811504355L199.53555555555556,34.50849592089652L199.82444444444445,34.47156115770339L199.85333333333335,34.46599110364913L200.14222222222222,34.39583494663238L200.2577777777778,34.35896649360656L200.28666666666666,34.34464349746703L200.83555555555557,34.11116539835929L200.98000000000002,34.07648518085479L201.0377777777778,34.05546485781669L201.06666666666666,34.04392688870429L201.1533333333333,34.010639184713355L201.41333333333333,33.928215646743766L201.9333333333333,33.75507979989051L202.5111111111111,33.726897978782645L202.65555555555557,33.690758937597266L202.91555555555556,33.6341963648796L203.08888888888887,33.61516534686088L203.11777777777777,33.61364021301269L203.14666666666668,33.613573902845374L203.23333333333332,33.61695572137832L203.32,33.62405090928077L203.72444444444446,33.61350759267806L203.95555555555558,33.536455178260795L204.44666666666666,33.28593536615371L204.47555555555553,33.27890648841857L204.5911111111111,33.26252787709235L204.73555555555555,33.25457065701484L204.9377777777778,33.23759525418281L205.1977777777778,33.22002305984496L205.25555555555553,33.2212829530239L205.54444444444445,33.24555247426032L205.7177777777778,33.23368295431136L205.77555555555554,33.22884231209754L205.9488888888889,33.22851076126098L206.00666666666666,33.22963803410529L206.06444444444446,33.22924017310142L206.4111111111111,33.20861771106719L206.4688888888889,33.20682733654975L206.52666666666667,33.20576637387275L206.7577777777778,33.170290434360496L207.1911111111111,33.02752464413642L207.30666666666667,32.992977046966544L207.45111111111112,32.96320378184318L207.5377777777778,32.95319094657897L208,32.965922498702994L208.2888888888889,32.95246153473853L208.31777777777776,32.942912870645515L208.37555555555554,32.92388185262679L208.54888888888888,32.880713933706275L208.57777777777775,32.8756080508232L208.72222222222223,32.85903050899505L208.92444444444445,32.847558850049964L209.0688888888889,32.85094066858291L209.2711111111111,32.80830323100089L209.44444444444446,32.74941980242728L209.82000000000002,32.64823048710822L210.02222222222224,32.62641444206237L210.57111111111112,32.67150535583495L211.14888888888888,32.64935775995254L211.23555555555555,32.63569786548614L211.35111111111112,32.60798021554946L211.38,32.59756951928138L211.58222222222224,32.501618707180015L212.07333333333332,32.066425079107276L212.39111111111112,31.853304201364505L212.70888888888888,31.527654969692218L212.9111111111111,31.263342642784107L213.08444444444444,31.0489618718624L213.77777777777777,30.084745728969562L214.44222222222223,29.669113600254047L214.70222222222225,29.592260116338718L215.13555555555556,29.411167049407947L215.16444444444446,29.403010898828494L215.36666666666667,29.36547934412955L215.48222222222222,29.345652604103076L215.85777777777778,29.317603403329837L215.88666666666668,29.316210889816272L216.17555555555555,29.329207682609546L216.29111111111112,29.332191640138614L216.5222222222222,29.312497520446765L216.5511111111111,29.309513562917697L216.66666666666669,29.29790928363799L216.92666666666668,29.201958471536624L216.95555555555555,29.189293229579913L217.24444444444447,29.10627290010451L217.27333333333334,29.101564878225314L217.3022222222222,29.096591615676868L217.53333333333333,29.034591609239566L217.6488888888889,29.013040804862964L218.11111111111111,28.914106035232532L218.3422222222222,28.915962719917285L218.80444444444444,28.97199481129645L218.92,28.98664935827254L218.97777777777776,28.996065402030933L219.0066666666667,29.000176632404315L219.09333333333333,29.014035457372653L219.35333333333332,29.040692144632327L219.38222222222223,29.042217278480518L219.64222222222222,29.04281406998633L219.7288888888889,29.032801234722125L220.01777777777778,29.00355845093726L220.16222222222223,29.003027969598758L220.97111111111113,28.91735523343085L221.20222222222222,28.86172100305556L221.4622222222222,28.835263246297824L221.51999999999998,28.81311565041541L221.63555555555556,28.765703880786884L221.8088888888889,28.728039705753314L221.89555555555555,28.71961831450461L222.09777777777776,28.7074835538864L222.18444444444444,28.69833275079726L222.3288888888889,28.685335958003986L222.41555555555556,28.681025797128665L222.44444444444443,28.680826866626727L222.64666666666665,28.680230075120914L222.76222222222222,28.67936804294585L222.87777777777777,28.68772312402724L223.16666666666666,28.72996270060538L223.19555555555556,28.736461097002017L223.54222222222222,28.714379811286914L223.65777777777777,28.69382365942L223.85999999999999,28.668426865339267L223.97555555555556,28.665575528144824L224.29333333333335,28.693226867914188L224.64,28.692696386575687L225.10222222222222,28.637261086702335L225.70888888888888,28.54966535568236L225.82444444444442,28.526987278461444L226.2577777777778,28.399738067388522L226.4022222222222,28.37341293096541L226.48888888888888,28.364593678712833L226.66222222222223,28.344369077682483L226.77777777777777,28.3407883286476L226.89333333333335,28.32812308669089L227.12444444444444,28.30279260277747L227.29777777777778,28.300471746921527L227.32666666666665,28.30279260277747L227.35555555555555,28.30584287047385L227.8177777777778,28.322155171632755L228.02,28.345363730192172L228.07777777777778,28.34881185889243L228.25111111111113,28.35643752813338L228.48222222222222,28.376993680000293L228.56888888888886,28.378120952844608L228.68444444444444,28.320961588621127L228.7422222222222,28.28634768128394L228.97333333333336,28.186351948976505L229.20444444444445,28.051874929666507L229.29111111111112,27.985896313190448L229.69555555555556,27.740747624635684L229.8111111111111,27.690152966976154L230.04222222222222,27.620063120126712L230.12888888888887,27.603154027461994L230.3022222222222,27.573314452171314L230.79333333333335,27.51681818962096L230.82222222222222,27.506606423854816L230.88,27.48319893479346L231.4,27.241829925775516L231.51555555555558,27.181156122684467L231.60222222222222,27.13573365807532L232.03555555555556,26.908223474025714L232.12222222222223,26.85225769281386L232.23777777777778,26.793440574407565L232.44,26.703391367197025L232.4977777777778,26.664268368482578L232.81555555555556,26.51540204286574L232.98888888888888,26.43191754221915L233.39333333333332,26.281923943758L233.74,26.291008436679828L233.94222222222223,26.29969506859778L234.17333333333332,26.30068972110747L234.40444444444444,26.243928217887866L234.4333333333333,26.22907474040984L234.57777777777778,26.16236671209334L234.69333333333333,26.127620184421527L235.0688888888889,25.55516451001166L235.18444444444444,25.404574120044696L235.58888888888887,25.07594093084334L235.93555555555557,24.88271310329436L235.96444444444444,24.872633957862842L236.16666666666666,24.83006283044814L236.39777777777778,24.81719865798949L236.5711111111111,24.793990099430072L236.74444444444444,24.759243571758258L236.94666666666666,24.710903459787357L237.00444444444446,24.69479008913039L237.26444444444445,24.636437141895282L237.32222222222222,24.628214681148517L237.3511111111111,24.624368691444385L237.9,24.61309596300124L237.98666666666668,24.61283072233199L238.24666666666667,24.624567621946323L238.62222222222223,24.645190083980548L238.94,24.612233930826175L239.02666666666667,24.607194358110416L239.31555555555553,24.596584731340396L239.4311111111111,24.585975104570377" style="fill: none;" fill="none"></path></g></g></g></g></g><g><g><circle r="4" cx="162.09555555555556" cy="46.548986925045206" fill="rgb(255, 112, 67)" style="stroke: none;" stroke="none" stroke-width="1px"></circle></g></g></g><g transform="translate(70, 178)" clip-path="url(#clip_1)"><clipPath id="clip_1"><rect width="260" height="21"></rect></clipPath><g><g><line x1="0" y1="0" x2="0" y2="5" style="visibility: inherit;" fill="rgb(0, 0, 0)" stroke="rgb(204, 204, 204)" stroke-width="1px"></line><line x1="28.888888888888886" y1="0" x2="28.888888888888886" y2="5" style="visibility: inherit;" fill="rgb(0, 0, 0)" stroke="rgb(204, 204, 204)" stroke-width="1px"></line><line x1="57.77777777777777" y1="0" x2="57.77777777777777" y2="5" style="visibility: inherit;" fill="rgb(0, 0, 0)" stroke="rgb(204, 204, 204)" stroke-width="1px"></line><line x1="86.66666666666666" y1="0" x2="86.66666666666666" y2="5" style="visibility: inherit;" fill="rgb(0, 0, 0)" stroke="rgb(204, 204, 204)" stroke-width="1px"></line><line x1="115.55555555555554" y1="0" x2="115.55555555555554" y2="5" style="visibility: inherit;" fill="rgb(0, 0, 0)" stroke="rgb(204, 204, 204)" stroke-width="1px"></line><line x1="144.44444444444446" y1="0" x2="144.44444444444446" y2="5" style="visibility: inherit;" fill="rgb(0, 0, 0)" stroke="rgb(204, 204, 204)" stroke-width="1px"></line><line x1="173.33333333333331" y1="0" x2="173.33333333333331" y2="5" style="visibility: inherit;" fill="rgb(0, 0, 0)" stroke="rgb(204, 204, 204)" stroke-width="1px"></line><line x1="202.22222222222223" y1="0" x2="202.22222222222223" y2="5" style="visibility: inherit;" fill="rgb(0, 0, 0)" stroke="rgb(204, 204, 204)" stroke-width="1px"></line><line x1="231.1111111111111" y1="0" x2="231.1111111111111" y2="5" style="visibility: inherit;" fill="rgb(0, 0, 0)" stroke="rgb(204, 204, 204)" stroke-width="1px"></line><line x1="260" y1="0" x2="260" y2="5" style="visibility: inherit;" fill="rgb(0, 0, 0)" stroke="rgb(204, 204, 204)" stroke-width="1px"></line></g><g transform="translate(0, 8)"><text x="0" y="0" dx="0em" dy="0.95em" style="text-anchor: middle; visibility: hidden; font-family: Roboto, sans-serif; font-size: 12px; font-weight: 200;" fill="rgb(50, 49, 63)" stroke="none" stroke-width="1px">-1k</text><text x="28.888888888888886" y="0" dx="0em" dy="0.95em" style="text-anchor: middle; visibility: inherit; font-family: Roboto, sans-serif; font-size: 12px; font-weight: 200;" fill="rgb(50, 49, 63)" stroke="none" stroke-width="1px">0</text><text x="57.77777777777777" y="0" dx="0em" dy="0.95em" style="text-anchor: middle; visibility: inherit; font-family: Roboto, sans-serif; font-size: 12px; font-weight: 200;" fill="rgb(50, 49, 63)" stroke="none" stroke-width="1px">1k</text><text x="86.66666666666666" y="0" dx="0em" dy="0.95em" style="text-anchor: middle; visibility: inherit; font-family: Roboto, sans-serif; font-size: 12px; font-weight: 200;" fill="rgb(50, 49, 63)" stroke="none" stroke-width="1px">2k</text><text x="115.55555555555554" y="0" dx="0em" dy="0.95em" style="text-anchor: middle; visibility: inherit; font-family: Roboto, sans-serif; font-size: 12px; font-weight: 200;" fill="rgb(50, 49, 63)" stroke="none" stroke-width="1px">3k</text><text x="144.44444444444446" y="0" dx="0em" dy="0.95em" style="text-anchor: middle; visibility: inherit; font-family: Roboto, sans-serif; font-size: 12px; font-weight: 200;" fill="rgb(50, 49, 63)" stroke="none" stroke-width="1px">4k</text><text x="173.33333333333331" y="0" dx="0em" dy="0.95em" style="text-anchor: middle; visibility: inherit; font-family: Roboto, sans-serif; font-size: 12px; font-weight: 200;" fill="rgb(50, 49, 63)" stroke="none" stroke-width="1px">5k</text><text x="202.22222222222223" y="0" dx="0em" dy="0.95em" style="text-anchor: middle; visibility: inherit; font-family: Roboto, sans-serif; font-size: 12px; font-weight: 200;" fill="rgb(50, 49, 63)" stroke="none" stroke-width="1px">6k</text><text x="231.1111111111111" y="0" dx="0em" dy="0.95em" style="text-anchor: middle; visibility: inherit; font-family: Roboto, sans-serif; font-size: 12px; font-weight: 200;" fill="rgb(50, 49, 63)" stroke="none" stroke-width="1px">7k</text><text x="260" y="0" dx="0em" dy="0.95em" style="text-anchor: middle; visibility: hidden; font-family: Roboto, sans-serif; font-size: 12px; font-weight: 200;" fill="rgb(50, 49, 63)" stroke="none" stroke-width="1px">8k</text></g><line x1="0" y1="0" x2="260" y2="0" fill="rgb(0, 0, 0)" stroke="rgb(204, 204, 204)" stroke-width="1px"></line></g></g></g></g></svg>