<svg viewBox="0 0 330.0000305175781 200.00001525878906" xmlns="http://www.w3.org/2000/svg"><g><g><g><g><g><line x1="70" y1="178" x2="65" y2="178" style="visibility: inherit;" fill="rgb(0, 0, 0)" stroke="rgb(204, 204, 204)" stroke-width="1px"></line><line x1="70" y1="165.28571428571428" x2="65" y2="165.28571428571428" style="visibility: inherit;" fill="rgb(0, 0, 0)" stroke="rgb(204, 204, 204)" stroke-width="1px"></line><line x1="70" y1="152.57142857142858" x2="65" y2="152.57142857142858" style="visibility: inherit;" fill="rgb(0, 0, 0)" stroke="rgb(204, 204, 204)" stroke-width="1px"></line><line x1="70" y1="139.85714285714286" x2="65" y2="139.85714285714286" style="visibility: inherit;" fill="rgb(0, 0, 0)" stroke="rgb(204, 204, 204)" stroke-width="1px"></line><line x1="70" y1="127.14285714285714" x2="65" y2="127.14285714285714" style="visibility: inherit;" fill="rgb(0, 0, 0)" stroke="rgb(204, 204, 204)" stroke-width="1px"></line><line x1="70" y1="114.42857142857142" x2="65" y2="114.42857142857142" style="visibility: inherit;" fill="rgb(0, 0, 0)" stroke="rgb(204, 204, 204)" stroke-width="1px"></line><line x1="70" y1="101.71428571428571" x2="65" y2="101.71428571428571" style="visibility: inherit;" fill="rgb(0, 0, 0)" stroke="rgb(204, 204, 204)" stroke-width="1px"></line><line x1="70" y1="89" x2="65" y2="89" style="visibility: inherit;" fill="rgb(0, 0, 0)" stroke="rgb(204, 204, 204)" stroke-width="1px"></line><line x1="70" y1="76.28571428571429" x2="65" y2="76.28571428571429" style="visibility: inherit;" fill="rgb(0, 0, 0)" stroke="rgb(204, 204, 204)" stroke-width="1px"></line><line x1="70" y1="63.57142857142856" x2="65" y2="63.57142857142856" style="visibility: inherit;" fill="rgb(0, 0, 0)" stroke="rgb(204, 204, 204)" stroke-width="1px"></line><line x1="70" y1="50.857142857142854" x2="65" y2="50.857142857142854" style="visibility: inherit;" fill="rgb(0, 0, 0)" stroke="rgb(204, 204, 204)" stroke-width="1px"></line><line x1="70" y1="38.142857142857146" x2="65" y2="38.142857142857146" style="visibility: inherit;" fill="rgb(0, 0, 0)" stroke="rgb(204, 204, 204)" stroke-width="1px"></line><line x1="70" y1="25.428571428571438" x2="65" y2="25.428571428571438" style="visibility: inherit;" fill="rgb(0, 0, 0)" stroke="rgb(204, 204, 204)" stroke-width="1px"></line><line x1="70" y1="12.714285714285728" x2="65" y2="12.714285714285728" style="visibility: inherit;" fill="rgb(0, 0, 0)" stroke="rgb(204, 204, 204)" stroke-width="1px"></line><line x1="70" y1="0" x2="65" y2="0" style="visibility: inherit;" fill="rgb(0, 0, 0)" stroke="rgb(204, 204, 204)" stroke-width="1px"></line></g><g transform="translate(60, 0)"><text x="0" y="178" dx="0em" dy="0.3em" style="text-anchor: end; visibility: hidden; font-family: Roboto, sans-serif; font-size: 12px; font-weight: 200;" fill="rgb(50, 49, 63)" stroke="none" stroke-width="1px">-2e-3</text><text x="0" y="165.28571428571428" dx="0em" dy="0.3em" style="text-anchor: end; visibility: inherit; font-family: Roboto, sans-serif; font-size: 12px; font-weight: 200;" fill="rgb(50, 49, 63)" stroke="none" stroke-width="1px">-1e-3</text><text x="0" y="152.57142857142858" dx="0em" dy="0.3em" style="text-anchor: end; visibility: hidden; font-family: Roboto, sans-serif; font-size: 12px; font-weight: 200;" fill="rgb(50, 49, 63)" stroke="none" stroke-width="1px">0</text><text x="0" y="139.85714285714286" dx="0em" dy="0.3em" style="text-anchor: end; visibility: inherit; font-family: Roboto, sans-serif; font-size: 12px; font-weight: 200;" fill="rgb(50, 49, 63)" stroke="none" stroke-width="1px">1e-3</text><text x="0" y="127.14285714285714" dx="0em" dy="0.3em" style="text-anchor: end; visibility: hidden; font-family: Roboto, sans-serif; font-size: 12px; font-weight: 200;" fill="rgb(50, 49, 63)" stroke="none" stroke-width="1px">2e-3</text><text x="0" y="114.42857142857142" dx="0em" dy="0.3em" style="text-anchor: end; visibility: inherit; font-family: Roboto, sans-serif; font-size: 12px; font-weight: 200;" fill="rgb(50, 49, 63)" stroke="none" stroke-width="1px">3e-3</text><text x="0" y="101.71428571428571" dx="0em" dy="0.3em" style="text-anchor: end; visibility: hidden; font-family: Roboto, sans-serif; font-size: 12px; font-weight: 200;" fill="rgb(50, 49, 63)" stroke="none" stroke-width="1px">4e-3</text><text x="0" y="89" dx="0em" dy="0.3em" style="text-anchor: end; visibility: inherit; font-family: Roboto, sans-serif; font-size: 12px; font-weight: 200;" fill="rgb(50, 49, 63)" stroke="none" stroke-width="1px">5e-3</text><text x="0" y="76.28571428571429" dx="0em" dy="0.3em" style="text-anchor: end; visibility: hidden; font-family: Roboto, sans-serif; font-size: 12px; font-weight: 200;" fill="rgb(50, 49, 63)" stroke="none" stroke-width="1px">6e-3</text><text x="0" y="63.57142857142856" dx="0em" dy="0.3em" style="text-anchor: end; visibility: inherit; font-family: Roboto, sans-serif; font-size: 12px; font-weight: 200;" fill="rgb(50, 49, 63)" stroke="none" stroke-width="1px">7e-3</text><text x="0" y="50.857142857142854" dx="0em" dy="0.3em" style="text-anchor: end; visibility: hidden; font-family: Roboto, sans-serif; font-size: 12px; font-weight: 200;" fill="rgb(50, 49, 63)" stroke="none" stroke-width="1px">8e-3</text><text x="0" y="38.142857142857146" dx="0em" dy="0.3em" style="text-anchor: end; visibility: inherit; font-family: Roboto, sans-serif; font-size: 12px; font-weight: 200;" fill="rgb(50, 49, 63)" stroke="none" stroke-width="1px">9e-3</text><text x="0" y="25.428571428571438" dx="0em" dy="0.3em" style="text-anchor: end; visibility: hidden; font-family: Roboto, sans-serif; font-size: 12px; font-weight: 200;" fill="rgb(50, 49, 63)" stroke="none" stroke-width="1px">0.01</text><text x="0" y="12.714285714285728" dx="0em" dy="0.3em" style="text-anchor: end; visibility: inherit; font-family: Roboto, sans-serif; font-size: 12px; font-weight: 200;" fill="rgb(50, 49, 63)" stroke="none" stroke-width="1px">0.011</text><text x="0" y="0" dx="0em" dy="0.3em" style="text-anchor: end; visibility: hidden; font-family: Roboto, sans-serif; font-size: 12px; font-weight: 200;" fill="rgb(50, 49, 63)" stroke="none" stroke-width="1px">0.012</text></g><line x1="70" y1="0" x2="70" y2="178" fill="rgb(0, 0, 0)" stroke="rgb(204, 204, 204)" stroke-width="1px"></line></g></g><g transform="translate(70, 0)" clip-path="url(#clip_0)"><clipPath id="clip_0"><rect width="260" height="177"></rect></clipPath><g><g><g><line x1="0" y1="0" x2="0" y2="178" fill="rgb(0, 0, 0)" stroke="rgb(60, 60, 60)" stroke-width="1px" opacity="0.25"></line><line x1="28.888888888888886" y1="0" x2="28.888888888888886" y2="178" fill="rgb(0, 0, 0)" stroke="rgb(60, 60, 60)" stroke-width="1px" opacity="0.25"></line><line x1="57.77777777777777" y1="0" x2="57.77777777777777" y2="178" fill="rgb(0, 0, 0)" stroke="rgb(60, 60, 60)" stroke-width="1px" opacity="0.25"></line><line x1="86.66666666666666" y1="0" x2="86.66666666666666" y2="178" fill="rgb(0, 0, 0)" stroke="rgb(60, 60, 60)" stroke-width="1px" opacity="0.25"></line><line x1="115.55555555555554" y1="0" x2="115.55555555555554" y2="178" fill="rgb(0, 0, 0)" stroke="rgb(60, 60, 60)" stroke-width="1px" opacity="0.25"></line><line x1="144.44444444444446" y1="0" x2="144.44444444444446" y2="178" fill="rgb(0, 0, 0)" stroke="rgb(60, 60, 60)" stroke-width="1px" opacity="0.25"></line><line x1="173.33333333333331" y1="0" x2="173.33333333333331" y2="178" fill="rgb(0, 0, 0)" stroke="rgb(60, 60, 60)" stroke-width="1px" opacity="0.25"></line><line x1="202.22222222222223" y1="0" x2="202.22222222222223" y2="178" fill="rgb(0, 0, 0)" stroke="rgb(60, 60, 60)" stroke-width="1px" opacity="0.25"></line><line x1="231.1111111111111" y1="0" x2="231.1111111111111" y2="178" fill="rgb(0, 0, 0)" stroke="rgb(60, 60, 60)" stroke-width="1px" opacity="0.25"></line><line x1="260" y1="0" x2="260" y2="178" fill="rgb(0, 0, 0)" stroke="rgb(60, 60, 60)" stroke-width="1px" opacity="0.25"></line></g><g><line x1="0" y1="178" x2="260" y2="178" fill="rgb(0, 0, 0)" stroke="rgb(60, 60, 60)" stroke-width="1px" opacity="0.25"></line><line x1="0" y1="165.28571428571428" x2="260" y2="165.28571428571428" fill="rgb(0, 0, 0)" stroke="rgb(60, 60, 60)" stroke-width="1px" opacity="0.25"></line><line x1="0" y1="152.57142857142858" x2="260" y2="152.57142857142858" fill="rgb(0, 0, 0)" stroke="rgb(60, 60, 60)" stroke-width="1px" opacity="0.25"></line><line x1="0" y1="139.85714285714286" x2="260" y2="139.85714285714286" fill="rgb(0, 0, 0)" stroke="rgb(60, 60, 60)" stroke-width="1px" opacity="0.25"></line><line x1="0" y1="127.14285714285714" x2="260" y2="127.14285714285714" fill="rgb(0, 0, 0)" stroke="rgb(60, 60, 60)" stroke-width="1px" opacity="0.25"></line><line x1="0" y1="114.42857142857142" x2="260" y2="114.42857142857142" fill="rgb(0, 0, 0)" stroke="rgb(60, 60, 60)" stroke-width="1px" opacity="0.25"></line><line x1="0" y1="101.71428571428571" x2="260" y2="101.71428571428571" fill="rgb(0, 0, 0)" stroke="rgb(60, 60, 60)" stroke-width="1px" opacity="0.25"></line><line x1="0" y1="89" x2="260" y2="89" fill="rgb(0, 0, 0)" stroke="rgb(60, 60, 60)" stroke-width="1px" opacity="0.25"></line><line x1="0" y1="76.28571428571429" x2="260" y2="76.28571428571429" fill="rgb(0, 0, 0)" stroke="rgb(60, 60, 60)" stroke-width="1px" opacity="0.25"></line><line x1="0" y1="63.57142857142856" x2="260" y2="63.57142857142856" fill="rgb(0, 0, 0)" stroke="rgb(60, 60, 60)" stroke-width="1px" opacity="0.25"></line><line x1="0" y1="50.857142857142854" x2="260" y2="50.857142857142854" fill="rgb(0, 0, 0)" stroke="rgb(60, 60, 60)" stroke-width="1px" opacity="0.25"></line><line x1="0" y1="38.142857142857146" x2="260" y2="38.142857142857146" fill="rgb(0, 0, 0)" stroke="rgb(60, 60, 60)" stroke-width="1px" opacity="0.25"></line><line x1="0" y1="25.428571428571438" x2="260" y2="25.428571428571438" fill="rgb(0, 0, 0)" stroke="rgb(60, 60, 60)" stroke-width="1px" opacity="0.25"></line><line x1="0" y1="12.714285714285728" x2="260" y2="12.714285714285728" fill="rgb(0, 0, 0)" stroke="rgb(60, 60, 60)" stroke-width="1px" opacity="0.25"></line><line x1="0" y1="0" x2="260" y2="0" fill="rgb(0, 0, 0)" stroke="rgb(60, 60, 60)" stroke-width="1px" opacity="0.25"></line></g></g></g><g><g><line x1="0" y1="152.57142857142858" x2="260" y2="152.57142857142858" fill="rgb(0, 0, 0)" stroke="rgb(153, 153, 153)" stroke-width="1.5px"></line></g></g><g><g><line x1="28.888888888888886" y1="0" x2="28.888888888888886" y2="178" fill="rgb(0, 0, 0)" stroke="rgb(153, 153, 153)" stroke-width="1.5px"></line></g></g><g><g><g><g><g><path stroke="rgb(255, 112, 67)" stroke-width="2px" d="M37.84444444444444,-1.2985077070549713L38.07555555555555,13.986677183798932L38.422222222222224,15.027777899664155L38.68222222222222,-7.463792827517768L38.913333333333334,11.493702222707403L39.37555555555555,32.70524862672572L39.49111111111111,26.58167129140524L39.78,-16.057295662169114L41.05111111111111,-9.539786473433896L41.08,5.808356132898764L41.57111111111111,3.12263755767496L41.628888888888895,23.846850825360104L41.657777777777774,39.18004486207458L41.74444444444445,28.274818019872527L42.17777777777778,33.307945148683096L42.26444444444445,18.506556626749855L42.29333333333333,21.72595548044065L42.58222222222222,24.437757593287984L43.07333333333333,45.015666573465694L43.13111111111111,40.67044483504352L43.73777777777778,44.35556882421677L43.82444444444444,30.58714331567402L44.05555555555556,44.033737246830185L44.22888888888889,46.75380466218285L44.28666666666667,52.100917231269065L44.373333333333335,60.38004878279086L44.54666666666667,49.305179982368855L44.69111111111111,12.181912833272573L44.98,24.267295148690668L45.153333333333336,42.56835845832664L45.44222222222222,42.43551897242449L45.61555555555555,33.75760323460057L45.67333333333333,32.51338835153076L45.81777777777778,44.24574138960807L45.84666666666667,58.48522248561127L46.28,64.00955819412181L46.8,69.0466869944068L46.85777777777778,68.18423522341358L47.20444444444444,66.13326339044464L47.406666666666666,60.553531405183286L47.43555555555555,70.82836299436161L47.49333333333333,70.81744083300497L47.58,35.87261454271151L47.63777777777778,27.95251890084414L47.98444444444444,28.705470032290794L48.18666666666666,35.480521428804174L48.27333333333333,-12.847413448134184L48.36,20.533385578140738L48.62,34.78529029177051L48.76444444444444,40.167569689329135L49.51555555555556,51.55208851836661L49.63111111111111,59.88017101785777L49.74666666666666,60.04005851801689L49.775555555555556,67.65213007198504L49.977777777777774,74.53903054085553L50.23777777777777,51.4860507345287L50.35333333333333,-1.1569644027725747L50.46888888888889,21.48442855459085L50.61333333333333,37.7139672010042L50.72888888888889,57.79239864355567L50.988888888888894,67.61457377922852L51.10444444444445,53.578073888392304L51.13333333333333,66.0183756615943L51.16222222222222,74.59439114194755L51.22,75.17664365383685L51.422222222222224,76.8335487726662L51.56666666666667,76.75778203081518L51.62444444444445,58.156132129345636L51.76888888888889,57.10169976950545L51.82666666666667,50.612656628664894L51.94222222222222,46.98947309460264L52.05777777777778,55.08457099224172L52.23111111111111,45.97224913603518L52.260000000000005,61.50887149569408L52.92444444444444,68.38297666650085L53.04,68.83357468165455L53.99333333333333,27.911316303204202L54.13777777777778,38.119117444501185L54.19555555555555,42.304052855306104L54.36888888888889,53.974764327077594L54.6,65.16156643450938L54.77333333333333,73.90848885752881L54.888888888888886,78.58550573561607L55.09111111111111,80.61878323829015L55.14888888888889,84.28936748860637L55.32222222222222,78.6506852155145L55.379999999999995,71.95051576700817L55.784444444444446,74.15401879297755L55.81333333333333,57.41001025304576L56.102222222222224,70.05735996813236L56.18888888888889,79.25197729779534L56.44888888888889,58.93449123177593L56.56444444444445,48.560552416372005L56.68,46.46731728714654L56.94,58.534294246829944L56.96888888888889,67.28841495721525L57.142222222222216,81.40270839521963L57.17111111111111,87.16882306207738L57.315555555555555,96.53786569958214L57.66222222222222,96.14910704461761L57.83555555555556,81.77396535658512L57.92222222222222,74.30618458921204L58.18222222222222,79.91234169861372L58.26888888888889,89.5608200774447L58.5,79.65403118172706L58.846666666666664,82.60884150315688L59.04888888888889,78.14982238892621L59.42444444444445,81.80334694801682L59.59777777777778,73.60085984028443L59.684444444444445,73.26751251344122L59.742222222222225,66.89722226966252L59.85777777777778,79.8625303094828L59.97333333333333,66.88566889887798L60.03111111111111,68.29230105892272L60.175555555555555,65.50610893143767L60.20444444444444,74.53775695112338L60.46444444444444,74.01438143319653L60.63777777777778,59.29479198350852L60.75333333333333,58.03238890861649L60.782222222222224,67.24449126151312L61.071111111111115,74.79905105027964L61.21555555555556,46.059855279542596L61.62,64.47434136659103L62.284444444444446,71.23628200078129L62.4,70.54474321445298L62.428888888888885,76.09756685715344L62.45777777777778,78.34326390939098L62.97777777777778,75.64413023090361L63.324444444444445,66.17635860542909L63.35333333333333,72.12513014546732L63.52666666666667,77.06505975114611L63.72888888888889,82.73788020986416L64.48,83.59269727774748L64.53777777777778,91.79165584896975L64.82666666666667,69.0751628053059L65.14444444444443,76.0189105208694L65.2311111111111,78.07035266630864L65.31777777777778,82.99473216440944L65.89555555555556,64.2826074226811L66.06888888888889,77.98682821434566L66.27111111111111,80.17749421127593L66.44444444444444,84.76152264394563L66.73333333333333,72.8158209889935L66.90666666666667,81.34578565945493L66.99333333333333,73.40616287681193L67.31111111111112,60.62529815328898L67.39777777777778,78.60606830771435L67.48444444444443,81.58843119416039L67.51333333333334,60.983981818653696L68.03333333333333,63.933184753348385L68.9,75.01549586917075L68.98666666666666,81.49807457634873L69.07333333333334,92.35048776423376L69.10222222222222,92.12117561880018L69.73777777777777,92.79297970663895L70.08444444444444,64.42173365611663L70.14222222222223,66.35486752029983L70.25777777777778,80.32498171279012L70.37333333333333,94.56400232608341L70.4888888888889,85.05259601275117L71.21111111111111,74.9414427529488L71.24000000000001,81.12578866188011L71.55777777777777,83.13731421264579L71.78888888888888,87.67524264678613L71.90444444444445,96.08239498807004L71.96222222222222,94.98613399821609L72.25111111111111,95.00644859770081L72.45333333333333,87.79489061806372L72.88666666666667,57.23243759829351L73.00222222222223,74.5821576506409L73.69555555555556,72.59618488089178L73.72444444444444,82.21078316607777L74.18666666666667,75.83070008130663L74.21555555555555,87.16015035271863L74.47555555555556,96.94203026009164L74.64888888888889,78.79121304442876L74.76444444444445,71.90750036557466L75.02444444444444,71.42836267134092L75.22666666666666,76.52182935298664L75.25555555555556,83.10327519782805L75.63111111111111,88.57389710261053L75.8911111111111,91.27723802340489L76.03555555555556,82.89292702205455L76.17999999999999,91.80485000484104L76.26666666666667,96.32850374720813L76.41111111111111,79.17425160735526L76.49777777777777,72.74409705754496L76.84444444444445,79.79876092288721L77.07555555555555,86.17898796008893L77.27777777777777,87.83657453000382L77.47999999999999,94.45369462639422L77.74,91.76660705489117L77.85555555555555,94.53348743419595L77.88444444444445,86.12907741283114L77.91333333333334,88.702708279408L77.9711111111111,88.46767607222445L78.05777777777777,97.85159719446567L78.25999999999999,99.83183684558944L78.52,97.54619463769788L78.80888888888889,91.5501535234003L78.92444444444445,94.17076953100342L78.98222222222222,78.33391150677225L79.06888888888889,74.64193854835047L79.21333333333332,69.37694177520693L79.3,76.1785384047857L79.32888888888888,68.83055539452022L79.35777777777778,71.24970220255929L79.90666666666667,73.1060730643328L80.16666666666667,81.7085111793943L80.34,92.55107276662737L80.54222222222222,99.34538576117315L80.57111111111111,97.13109601397865L80.83111111111111,71.87384703033044L81.03333333333333,83.74700793296961L81.38,89.71868953444795L81.64,70.40598893707792L81.75555555555556,80.6019926891332L82.04444444444444,89.23209428450241L82.16,88.87947284930553L82.30444444444444,81.24719073795868L82.42,88.57400620619326L82.79555555555555,88.12872859791271L82.88222222222223,84.7911052588373L83.05555555555554,76.7949233756427L83.08444444444444,71.33603556745179L83.11333333333333,76.77973442188375L84.09555555555555,84.17196890701592L84.2688888888889,85.58779087358559L84.76,94.45877052426927L84.81777777777778,89.914710918975L84.87555555555555,80.72196103903948L85.0488888888889,76.91232725459602L85.13555555555556,82.23954387826396L85.19333333333333,85.85327740993561L85.28,75.46850316218413L85.71333333333334,89.00901083441133L86.11777777777777,96.911472404783L86.17555555555555,100.26979622402321L86.69555555555556,74.51531918313651L86.81111111111112,83.67473146512324L87.04222222222222,91.35266775455602L87.15777777777777,86.91590444868436L87.44666666666666,72.27266019444757L87.53333333333333,86.8561738223073L87.62,101.4298540322411L87.70666666666666,81.76160007910215L88.4,80.3073451909627L88.74666666666667,55.68537481897592L88.77555555555556,68.13035409251677L88.86222222222223,74.48195727803775L88.89111111111112,81.163860511115L88.94888888888889,88.86333140554731L89.00666666666666,83.82139758383288L89.12222222222222,79.9728497339618L89.23777777777778,86.88005987246821L89.38222222222223,69.49581916722222L89.44,70.20499683269259L89.87333333333333,79.08172241486717L90.85555555555555,81.2118303124081L90.97111111111111,43.26622329318349L91.02888888888889,62.07777088531151L91.17333333333333,83.17311230007074L91.43333333333334,86.6576790689765L91.66444444444444,84.89755326067012L91.78,76.39607746101466L92.06888888888889,81.52687447976157L92.12666666666667,86.7286634538664L92.18444444444445,78.17114043860484L92.21333333333334,84.3959987790686L92.32888888888888,92.67528927427628L92.41555555555556,73.01546162555445L92.64666666666666,79.54000567034213L92.76222222222223,73.56619050519576L93.16666666666667,89.681328279562L93.34,93.11061946362344L93.48444444444445,88.62882756690522L93.51333333333334,57.750097248385956L93.57111111111111,65.54555384529611L93.65777777777778,77.18504250644858L93.71555555555555,77.93958937265577L93.77333333333334,83.0203693097972L93.80222222222221,85.20709875633037L94.00444444444445,80.62371258830855L94.0911111111111,85.63945167087726L94.23555555555556,90.3266181364762L94.78444444444445,87.8695639927962L95.07333333333332,94.94756455650031L95.24666666666667,100.6693741769754L95.42,95.91897418744345L95.53555555555556,90.25327553623818L95.56444444444445,80.62892071065504L95.88222222222221,91.5655179155515L95.91111111111111,98.37625422459435L96.34444444444445,88.41522572033841L96.63333333333333,78.04614972016869L96.89333333333333,87.30095958483356L97.38444444444444,91.93036511745196L97.90444444444444,87.52985230594277L97.93333333333332,94.00250946895633L97.99111111111111,95.77933620654215L98.28,99.64573429690829L98.39555555555556,95.59927371243852L98.94444444444444,96.86022960113758L99.26222222222222,99.26952484911759L99.49333333333333,83.63693261586135L99.66666666666667,79.58798768422224L99.69555555555554,77.31091860201406L99.75333333333333,88.14632223162491L99.81111111111112,90.54856707776791L99.95555555555555,84.44039249877967L100.67777777777778,94.58057424966852L100.70666666666666,92.57643077974706L100.99555555555555,84.80032888922206L101.05333333333333,72.51071310542463L101.19777777777779,41.13391585649513L101.60222222222222,64.35942002450588L101.77555555555556,72.2924114361032L101.97777777777779,92.17456675310108L102.03555555555555,101.06622670201251L102.09333333333333,91.88604545763945L102.4688888888889,88.29826021062708L102.58444444444444,83.60294937901976L102.64222222222223,86.71725471057465L103.01777777777777,95.36875702476142L103.36444444444444,85.77304763432015L103.71111111111111,92.21800477960254L103.74000000000001,100.75543978851593L103.7688888888889,110.87862877678948L104,93.43531925437665L104.17333333333333,96.6497438994516L104.66444444444444,102.65432955277632L104.83777777777777,84.12212780621962L104.86666666666666,83.48233061181752L105.09777777777778,90.40442127375154L105.27111111111111,94.13350373993468L105.44444444444444,101.30145991949615L105.58888888888889,98.58927033225011L106.25333333333333,96.38098241721322L106.31111111111112,104.19044717121814L106.45555555555555,98.92644290500951L106.6,101.85953387308845L106.97555555555556,96.39088869654375L107.17777777777778,87.39656203639734L107.6111111111111,83.04977203166109L107.95777777777778,79.03606457500743L108.04444444444445,80.27034047920671L108.21777777777777,88.1813417547551L108.44888888888889,91.1041145232341L108.47777777777777,95.02108581916902L108.53555555555556,86.9481320676164L108.79555555555555,94.90363475140668L109.46,102.12648841127513L109.48888888888888,85.72549085314213L109.51777777777778,84.94542595570937L109.72,80.95382339701446L110.03777777777778,85.60026037745625L110.09555555555556,90.3722601284901L110.44222222222221,95.49324184072645L110.4711111111111,102.66263641184008L110.55777777777777,97.95250235634876L110.61555555555556,98.03807058288783L110.64444444444445,86.84638766240127L111.48222222222222,84.79616792843795L111.82888888888888,97.53646343620538L111.85777777777778,89.67969421165624L112.11777777777777,93.33106998551918L112.2911111111111,82.10498748689314L112.37777777777778,84.75047891590079L112.55111111111111,97.27911360297593L112.66666666666667,94.5597914043392L113.15777777777778,99.60563074942806L113.21555555555557,102.29384417610478L113.24444444444444,91.19686682538457L113.27333333333333,95.88615225776083L113.5911111111111,87.89485356417583L114.11111111111111,83.68024568404556L114.60222222222222,61.58118366047365L114.80444444444444,72.5076742439716L114.83333333333333,75.58330551309027L114.92,82.71858024014612L115.49777777777778,91.40725875019606L115.64222222222222,95.21594072949635L115.7,76.07573333042198L115.75777777777779,88.07063714998222L115.81555555555555,94.77459176639215L115.87333333333333,98.86071939388894L115.9888888888889,100.99293016181664L116.01777777777778,99.85960854930873L116.33555555555554,106.66077839063949L116.42222222222222,98.55639262845807L116.65333333333334,99.551172703679L116.74000000000001,101.27856397543457L117,104.96267609513124L117.43333333333334,108.67225757913016L117.5488888888889,97.53021894713261L117.60666666666665,98.6657660986612L118.04,92.58757802694531L118.41555555555556,87.38698717691764L119.08,87.38842535160938L119.51333333333334,84.76944696073082L119.54222222222222,96.24789611688719L119.74444444444444,98.6994548368371L119.8888888888889,99.64912347534226L120.03333333333333,88.54389479843421L120.14888888888888,96.12690972078144L120.20666666666666,95.63240241324738L120.66888888888889,90.72280518920152L120.98666666666666,100.78801344631103L121.18888888888888,102.28505771508037L121.21777777777777,99.44888037447551L121.42,102.18545200923164L121.50666666666666,106.22573309242176L122.19999999999999,104.95965685956917L122.28666666666666,108.33230326013283L122.48888888888888,110.0711966858852L122.57555555555555,105.90264003060406L122.60444444444444,98.78405674212746L122.66222222222223,101.28975258343563L122.69111111111111,102.67334169533595L123.26888888888888,106.5070118226811L123.41333333333334,109.14982077194054L123.67333333333333,97.09854907243557L123.7311111111111,92.04909452978524L123.78888888888889,98.18098490209347L124.36666666666666,99.70376103298729L124.59777777777778,91.16036064176734L125.00222222222223,95.65640169636933L125.0311111111111,99.72278896169635L125.17555555555556,108.37935699309827L125.32,110.79462590388012L125.52222222222221,94.48166164755895L125.86888888888889,105.97254225494652L126.36,101.93256073694171L126.41777777777777,107.28203695714916L126.47555555555556,111.0776843238329L126.56222222222222,118.69007975307267L126.70666666666666,111.3728866322808L127.19777777777777,116.42431681269244L127.34222222222222,104.02482740593541L127.97777777777777,112.58017274116884L128.06444444444446,98.6106415570871L128.20888888888888,106.88040051134716L128.4111111111111,101.03149379888264L128.52666666666667,106.0683864876148L128.58444444444444,105.48269246728606L128.7577777777778,103.47643715141476L128.78666666666666,102.68442273649814L128.96,105.8053553700172L129.16222222222223,96.9245644447894L129.33555555555557,82.28012711949721L129.42222222222222,95.93696736014999L129.91333333333333,102.03544523653798L129.9711111111111,109.98905903163714L130.26,97.92487097696927L130.34666666666666,87.33102578662572L130.40444444444444,79.64202640265157L130.54888888888888,95.13317561291754L131.01111111111112,86.82847652797334L131.06888888888886,91.20667760585123L131.2422222222222,102.84201446673752L131.35777777777778,98.95414181075809L131.41555555555556,103.41044852480822L131.82,94.20682761491942L132.3111111111111,97.42778324948995L132.6577777777778,104.93493043286098L132.86,102.7004491738485L132.88888888888889,96.00568568377875L133.40888888888887,92.57396745186556L133.46666666666667,97.19234431067584L133.52444444444444,89.78870283020935L133.6111111111111,98.16602576645255L133.6977777777778,97.88367252933492L134.18888888888887,90.5037427261153L134.50666666666666,79.90489199568334L134.53555555555556,89.28028089929182L134.70888888888888,95.41860337035989L134.9111111111111,88.64855443842919L135.60444444444445,86.76087809341634L135.7777777777778,96.23263331867746L135.83555555555557,92.7669520050904L136.44222222222223,77.45422679330066L136.52888888888887,91.6491350794614L136.64444444444445,84.47612231057427L136.67333333333332,98.37012646991933L136.70222222222222,79.65984082502337L136.87555555555556,93.01879509994002L136.96222222222224,106.2002649163223L137.02,110.23167279775754L137.28,100.08265441882672L137.48222222222222,87.40876455655815L137.85777777777778,96.95892539203835L137.97333333333333,92.0648424098021L138.08888888888887,82.91852360290189L138.46444444444444,89.4098558696281L138.52222222222224,102.95970096092309L138.60888888888888,94.63022498514499L138.95555555555558,91.02134664853448L139.0711111111111,91.73422903631433L139.21555555555554,55.430862218311965L139.2733333333333,73.54408905048037L139.56222222222223,92.98644842354065L139.62,86.90418695639988L139.67777777777778,78.79045306560818L140.0533333333333,81.76383287303956L140.51555555555555,89.39228970655643L140.66,103.2024116331483L140.86222222222221,111.0114340520247L141.58444444444444,107.38321501297105L141.61333333333332,109.3472588094017L141.64222222222222,110.65275076126274L141.84444444444443,113.06716118958721L142.13333333333333,112.45985952494394L142.36444444444444,102.82697370592608L142.56666666666666,104.98848509403804L142.68222222222224,103.2446598694062L143,109.93200468961552L143.17333333333332,111.71452853891176L143.34666666666666,58.843886866050504L143.98222222222222,83.31410884258088L144.3,99.79855000783596L144.44444444444446,109.38114359020518L144.5888888888889,104.97791805141765L144.70444444444445,103.32850147137913L144.73333333333332,111.54454877404153L145.0511111111111,105.9695750336515L145.08,112.95691672850649L145.39777777777778,115.06958623536825L145.48444444444445,113.38916696877037L145.68666666666667,117.39113166621351L145.77333333333334,113.03482723914061L145.80222222222224,105.98840764443986L145.8311111111111,104.81338836654285L146.64,109.86470440281703L147.13111111111112,108.37289905539403L147.27555555555554,112.14858562142827L147.30444444444444,110.11892343290215L147.59333333333333,94.71679164477158L149.26888888888888,99.55811185681885L149.70222222222225,110.08128857947543L150.01999999999998,114.65779007821004L150.04888888888888,113.6684037294269L150.10666666666668,101.00830248550825L150.16444444444446,110.9193490954542L150.2511111111111,93.39738199677745L150.28,75.2394801646188L150.33777777777777,83.24281230324513L151.0022222222222,96.18478130093901L151.14666666666668,106.22903012487873L151.23333333333332,114.88228677752836L151.46444444444447,111.08483248282974L151.7822222222222,113.78693788684397L152.04222222222222,107.52808201467047L152.1288888888889,101.10130236219963L152.15777777777777,103.30750899693898L152.41777777777776,110.39488903839309L152.5911111111111,112.75731743998821L153.05333333333334,118.61519102296018L153.2266666666667,119.25657958029464L153.3422222222222,119.81342839336504L153.60222222222222,112.84696114016667L153.66,105.95619563283381L153.92,111.67856508293579L154.03555555555556,113.91478983725122L154.2088888888889,101.72825116911537L154.35333333333332,102.32567684138932L154.7866666666667,99.07305341298736L154.9888888888889,108.21577897995498L155.10444444444443,110.61174535915978L155.36444444444444,110.94400100774858L155.79777777777778,113.57376767445552L156,110.86581210344404L156.17333333333335,94.2290752464921L156.2888888888889,89.78447916180522L156.31777777777776,103.21399361767463L156.86666666666667,109.49503858495753L156.89555555555555,113.44367635559867L156.95333333333335,116.74398875560743L157.12666666666667,105.46525339040133L157.21333333333334,110.32793690819469L157.99333333333334,115.00168891243635L158.16666666666666,100.51011944983473L158.2822222222222,103.55340832639465L158.3688888888889,74.74927786093191L158.6,92.0353637896126L158.65777777777777,76.88364818189842L159.1488888888889,94.65241175120227L159.17777777777778,82.02220467846399L159.72666666666666,100.34757359413857L159.75555555555556,112.27532785167216L159.8422222222222,111.06338922026706L160.04444444444442,112.14866526703804L160.10222222222222,119.22349514112122L160.33333333333334,117.44702668408557L160.39111111111112,109.80573232211388L160.42,112.92233576352172L160.85333333333335,113.4776253465656L161.14222222222222,113.10107190276388L161.2288888888889,117.09584000732767L161.54666666666665,118.9879928726672L161.63333333333335,110.8934658337153L161.69111111111113,115.64065244095342L161.74888888888887,110.07167728230587L162.09555555555556,114.78403381781631L162.58666666666664,113.97083838480965L163.02,113.15827838694435L163.19333333333336,105.45309263195965L163.39555555555557,112.24927758996795L163.62666666666667,117.32742190011976L163.7422222222222,121.47300638485419L163.94444444444443,117.14454219690329L163.97333333333336,105.93572910015888L164.00222222222223,106.33555160756258L164.29111111111112,112.79263903483105L164.89777777777778,86.91490956331191L165.04222222222222,101.26048243038935L165.18666666666667,96.01712536190371L165.64888888888888,63.11642468539385L165.79333333333335,89.69125950845017L165.96666666666667,103.43921219862659L166.0822222222222,106.39829980286115L166.1111111111111,110.23559360315976L166.34222222222223,111.8321182821683L166.42888888888888,107.02722958825693L166.45777777777778,107.56482583324285L166.51555555555558,114.42048269246833L166.60222222222222,117.25361101426712L166.86222222222221,106.26764490258373L166.9488888888889,89.60099787934486L166.9777777777778,101.00962964985374L167.03555555555556,103.73394323464396L167.09333333333333,110.24686027246555L167.18,104.096874958911L167.20888888888888,100.24229246262732L167.38222222222223,85.94384049810526L167.55555555555557,89.18715694871365L167.61333333333334,100.73149972550591L167.70000000000002,109.15419538648865L168.2777777777778,114.25191022845132L168.33555555555557,103.10953001975517L168.7111111111111,99.99886643681907L169.0577777777778,108.34846961513834L169.60666666666665,110.01589714149046L169.66444444444446,116.33993045144068L170.12666666666667,121.61561537348331L170.2133333333333,119.71630784821657L170.2711111111111,119.6497710380512L170.3,119.45246295394558L170.8488888888889,120.50406416842716L171.54222222222222,120.92365650236663L171.6288888888889,112.3004531890583L172.00444444444446,113.27959371922717L172.23555555555555,100.96666470402323L172.46666666666667,107.0976889888192L172.49555555555554,111.72447027387972L172.58222222222224,116.96101451046492L172.64000000000001,102.62450573882084L172.6688888888889,100.79365954402034L173.07333333333332,99.2838203864188L173.30444444444444,106.83107426303403L173.94,105.07906157482047L174.11333333333332,86.73052000399882L174.20000000000002,101.77066461105449L174.40222222222224,105.9611889559372L174.7777777777778,110.24098453303243L174.83555555555554,101.1684790816992L174.86444444444444,110.3239288163579L175.06666666666666,104.523655926132L175.58666666666667,108.20825366927953L176.04888888888888,100.70050656968048L176.2511111111111,105.85152451488872L176.39555555555555,111.53777099841791L176.42444444444445,115.38875506859395L176.59777777777776,117.72150257946306L176.97333333333333,108.48571663566895L177.0311111111111,103.94387084163026L177.20444444444445,110.04649147810049L177.95555555555555,110.13733594913613L178.10000000000002,111.12473550936609L178.47555555555556,96.22641443163769L178.5911111111111,100.93956506648603L179.11111111111111,104.62838166359714L179.34222222222223,111.11670231783012L180.00666666666666,115.07702202828469L180.09333333333333,102.83264255044477L180.12222222222223,111.09792790561772L180.23777777777778,109.70686687039392L180.26666666666668,105.83606293631402L180.38222222222223,93.68275724805223L180.90222222222224,99.34892556247779L181.01777777777778,93.12743926494777L181.68222222222224,91.95465279425571L182.05777777777777,99.44904188525483L182.51999999999998,110.59731571726086L182.83777777777777,115.11144506949577L183.29999999999998,116.38722046943967L183.38666666666668,104.7700079531561L183.70444444444445,108.47470798413784L183.73333333333332,117.20160694388049L183.82,104.75979318556827L184.3111111111111,106.72257084451701L184.42666666666668,108.41723531633028L185.00444444444446,102.0468315135546L185.0622222222222,108.24644031062937L185.46666666666667,113.64376756595416L185.61111111111111,119.55082844374682L186.01555555555555,119.87816811235611L186.04444444444442,119.72252768292856L186.10222222222222,118.41490124419657L186.24666666666667,119.36564825020712L187.05555555555554,117.49869455826912L187.31555555555556,113.34687477852908L187.51777777777778,112.79713028566499L187.63333333333333,106.3289963980021L187.80666666666667,88.06172503770686L187.98,96.17615442355961L188.12444444444444,103.7791402228504L188.2111111111111,114.36281968442292L188.2688888888889,111.26232706767222L188.70222222222222,107.4887025365517L188.9622222222222,114.41044924527404L189.19333333333333,111.85314989693674L189.48222222222222,111.54883691679493L189.68444444444444,118.0878307471445L189.8288888888889,120.70378888439615L189.88666666666666,113.2976337286322L189.97333333333333,111.4835247890219L190.23333333333335,116.10249156864587L190.29111111111112,99.63878644601337L190.46444444444444,107.52266410891143L190.81111111111113,112.29383540149459L190.95555555555555,57.398808765387116L191.24444444444444,78.71518141900464L191.53333333333333,94.55653615306508L191.59111111111113,97.78180930407972L192.02444444444444,100.46479202710725L192.3422222222222,103.48434529087115L192.4,105.06529418467893L192.51555555555555,109.93895415003888L192.86222222222221,114.96807047767345L192.94888888888892,105.82101586380205L193.93111111111114,115.1774573067407L194.13333333333335,118.38688886327031L194.22,116.02684234839452L194.33555555555557,120.00228692438553L194.74,118.79213706291101L195.05777777777777,116.31007576431945L195.26,114.92777715516755L195.4622222222222,97.80351864312264L195.75111111111113,97.63475381357263L195.83777777777777,105.39685531974652L195.98222222222222,108.55726721394976L196.12666666666667,100.17498016639473L196.3,105.88183147427222L196.64666666666665,104.06789729192212L196.67555555555558,107.58893531304213L197.16666666666666,97.31380645755468L197.25333333333336,92.24230458248067L197.45555555555558,102.53021240456518L197.8022222222222,113.08704907324937L198.23555555555558,110.27007682409814L198.29333333333335,114.77901669273079L198.49555555555557,115.00324005836258L198.78444444444443,116.33136300991949L199.01555555555558,117.01494467588991L199.07333333333335,114.5549978083407L199.1311111111111,117.66847596264095L199.27555555555557,110.67074428764708L199.53555555555556,115.36377297437538L199.82444444444445,117.25122179361279L199.85333333333335,104.48830079598484L200.14222222222222,110.57560978495034L200.2577777777778,119.0313248978263L200.28666666666666,114.79566613881451L200.83555555555557,120.43069520446076L200.98000000000002,118.90680936529542L201.0377777777778,123.64958295641638L201.06666666666666,120.73954471822557L201.1533333333333,123.53293110835284L201.41333333333333,122.29395496215488L201.9333333333333,122.18019733828089L202.5111111111111,107.54644679023748L202.65555555555557,115.71458678108878L202.91555555555556,117.26188675666451L203.08888888888887,116.23534709671326L203.11777777777777,110.12780351742194L203.14666666666668,117.48511123002947L203.23333333333332,119.5178033834182L203.32,118.73061606067316L203.72444444444446,100.70197758904122L203.95555555555558,107.82514881337725L204.44666666666666,114.07445511442448L204.47555555555553,116.64741589282596L204.5911111111111,86.10989529327199L204.73555555555555,88.93316954463677L204.9377777777778,95.27833052948516L205.1977777777778,109.00130211861247L205.25555555555553,111.63052900889873L205.54444444444445,107.83767100258855L205.7177777777778,116.89253967087338L205.77555555555554,117.59254603742794L205.9488888888889,119.03537826760721L206.00666666666666,120.01144377454587L206.06444444444446,100.92060662780598L206.4111111111111,111.66261758783737L206.4688888888889,113.77762044841047L206.52666666666667,118.50915556474924L206.7577777777778,112.68930564386145L207.1911111111111,108.24732611216601L207.30666666666667,118.61014255329964L207.45111111111112,121.69562370850782L207.5377777777778,114.52260306130052L208,121.03793862594146L208.2888888888889,121.89076936473236L208.31777777777776,118.50003275806009L208.37555555555554,114.16753261045908L208.54888888888888,89.46244176225497L208.57777777777775,92.30452239532679L208.72222222222223,97.9290947879092L208.92444444444445,103.97207173196888L209.0688888888889,99.06878604264678L209.2711111111111,102.26292897890835L209.44444444444446,104.12120980719652L209.82000000000002,107.43905297903035L210.02222222222224,103.42928908417454L210.57111111111112,95.38442122365646L211.14888888888888,104.96528603688246L211.23555555555555,104.43301955153905L211.35111111111112,112.2056800192233L211.38,113.98987687940644L211.58222222222224,116.81397565886951L212.07333333333332,118.44734076435994L212.39111111111112,120.75760927822284L212.70888888888888,111.48917229787166L212.9111111111111,113.07819691009571L213.08444444444444,115.19499514428698L213.77777777777777,120.9644036581435L214.44222222222223,114.06397798088811L214.70222222222225,117.10807041748792L215.13555555555556,120.85769716392332L215.16444444444446,122.17931322236794L215.36666666666667,124.39719125595227L215.48222222222222,123.93494443692542L215.85777777777778,123.08430587345741L215.88666666666668,121.45816417797181L216.17555555555555,121.32797997421147L216.29111111111112,122.87057756522542L216.5222222222222,117.1810231717354L216.5511111111111,118.95466150967975L216.66666666666669,116.2908158595229L216.92666666666668,113.4897379472984L216.95555555555555,115.13679589993981L217.24444444444447,118.7150252872668L217.27333333333334,119.52520204748626L217.3022222222222,112.943129753246L217.53333333333333,103.92817916625043L217.6488888888889,99.0497754084835L218.11111111111111,104.65270848561087L218.3422222222222,102.3005768677348L218.80444444444444,106.83535665035485L218.92,106.20638643338992L218.97777777777776,102.88236992545895L219.0066666666667,113.0716972100763L219.09333333333333,113.9077236096663L219.35333333333332,122.03884106280948L219.38222222222223,124.3732342269849L219.64222222222222,126.02649765362969L219.7288888888889,124.57170348842604L220.01777777777778,125.65015759679476L220.16222222222223,121.29650918355122L220.97111111111113,116.34915549284538L221.20222222222222,123.38163738401595L221.4622222222222,112.12167218043383L221.51999999999998,112.14033879605601L221.63555555555556,105.13491301781254L221.8088888888889,110.01548026636178L221.89555555555555,117.51430691891018L222.09777777777776,113.23597568128086L222.18444444444444,119.25763854472767L222.3288888888889,115.12516763965787L222.41555555555556,105.57380048153529L222.44444444444443,106.27733043455576L222.64666666666665,115.90592302535427L222.76222222222222,101.67800031864743L222.87777777777777,112.84369956151605L223.16666666666666,101.61068116820006L223.19555555555556,95.97020271388381L223.54222222222222,101.87378776682174L223.65777777777777,106.10638749517653L223.85999999999999,118.00148779934949L223.97555555555556,122.1173957774185L224.29333333333335,122.3369329777062L224.64,124.25273863819581L225.10222222222222,112.6564653253397L225.70888888888888,105.5938436491224L225.82444444444442,116.95953376076503L226.2577777777778,125.27750550817011L226.4022222222222,123.11326283282372L226.48888888888888,114.51183404004092L226.66222222222223,121.34296507975127L226.77777777777777,112.02397494987477L226.89333333333335,117.31168742548637L227.12444444444444,120.70623372686632L227.29777777777778,126.19765846684497L227.32666666666665,122.8753589568687L227.35555555555555,121.38390695769503L227.8177777777778,122.94595297279733L228.02,117.83536532444141L228.07777777777778,122.61769076576759L228.25111111111113,123.89761888692337L228.48222222222222,117.4014366555145L228.56888888888886,120.8219056548009L228.68444444444444,122.11544835832977L228.7422222222222,125.65688379773782L228.97333333333336,120.13573576866304L229.20444444444445,122.6769878569552L229.29111111111112,120.17867402454071L229.69555555555556,122.86997084312266L229.8111111111111,120.52226765960316L230.04222222222222,113.33905798415543L230.12888888888887,114.75951592893806L230.3022222222222,99.60477799487953L230.79333333333335,101.87530375575587L230.82222222222222,109.99942801212748L230.88,117.40127196510635L231.4,112.55358378957426L231.51555555555558,106.12142739389199L231.60222222222222,115.19430057910469L232.03555555555556,121.43949239239241L232.12222222222223,111.90044540570975L232.23777777777778,118.3490204637371L232.44,122.341430179037L232.4977777777778,124.52170188350775L232.81555555555556,119.90868312257793L232.98888888888888,103.06189240576356L233.39333333333332,110.01775672216988L233.74,112.18189725770135L233.94222222222223,114.72527918726637L234.17333333333332,112.85243152152049L234.40444444444444,112.29913955883795L234.4333333333333,112.11737111951308L234.57777777777778,112.74320551037174L234.69333333333333,109.7898931178286L235.0688888888889,110.64296653545193L235.18444444444444,119.12671362915981L235.58888888888887,110.87116802455309L235.93555555555557,118.66412193172683L235.96444444444444,124.58503166657862L236.16666666666666,127.12566777675724L236.39777777777778,126.00362665090445L236.5711111111111,122.4351224540041L236.74444444444444,118.44887203611275L236.94666666666666,124.861306236545L237.00444444444446,119.19597172786237L237.26444444444445,114.25840355964313L237.32222222222222,121.65032968107731L237.3511111111111,118.41185669242238L237.9,112.75802988599219L237.98666666666668,114.56856096570694L238.24666666666667,120.86330347364078L238.62222222222223,123.28565191263345L238.94,124.88579590341084L239.02666666666667,121.69099141575985L239.31555555555553,115.94447157994053L239.4311111111111,121.5492752287588" style="fill: none;" fill="none"></path></g></g></g></g><g opacity="0.2"><g><g><g><path stroke="rgb(255, 112, 67)" stroke-width="2px" d="M34.86888888888888,-87.79712579718661L35.33111111111111,10.569934072239064L35.504444444444445,-289.04950192570686L35.648888888888884,-9.761485532990507L36.08222222222222,20.886836976877284L36.25555555555556,-40.62130195328169L36.602222222222224,-28.18076857605152L36.717777777777776,19.375083573162556L36.775555555555556,-153.46368188943185L37.324444444444445,1.0448692941239845L37.64222222222222,-43.32444776488204L37.78666666666667,13.296951544071959L37.84444444444444,26.064038813114166L38.07555555555555,36.914454378187656L38.422222222222224,16.589428967663217L38.68222222222222,-41.201148843126674L38.913333333333334,39.92994476003306L39.37555555555555,64.52256820723414L39.49111111111111,17.396305292844772L39.78,-80.01574607406344L41.05111111111111,0.2364773079752922L41.08,28.830570040004588L41.57111111111111,-0.9059403049094223L41.628888888888895,54.93317072572453L41.657777777777774,62.17983591662986L41.74444444444445,11.916977756789755L42.17777777777778,40.857635841837954L42.26444444444445,-3.695526156042292L42.29333333333333,26.55505376096282L42.58222222222222,28.505460762551856L43.07333333333333,75.88253004369992L43.13111111111111,34.152612227414345L43.73777777777778,49.88325480797462L43.82444444444444,9.934505052864552L44.05555555555556,64.20362814356174L44.22888888888889,50.83390578521149L44.28666666666667,60.12158608489804L44.373333333333335,72.79874611007315L44.54666666666667,32.69287678173611L44.69111111111111,-43.50298789037127L44.98,42.39536862181766L45.153333333333336,70.01995342278056L45.44222222222222,42.23625974357128L45.61555555555555,20.740729627864695L45.67333333333333,30.64706602692604L45.81777777777778,61.84427094672408L45.84666666666667,79.84444412961602L46.28,72.29606175688761L46.8,76.6023801948343L46.85777777777778,66.89055756692376L47.20444444444444,63.05680564099126L47.406666666666666,52.18393342729125L47.43555555555555,86.24061037812915L47.49333333333333,70.80105759096998L47.58,-16.544624892728663L47.63777777777778,16.072375438043046L47.98444444444444,29.834896729460787L48.18666666666666,45.64309852357421L48.27333333333333,-85.33931576354165L48.36,70.60458411755306L48.62,56.163147362215184L48.76444444444444,48.240988785667085L49.51555555555556,68.62886676192284L49.63111111111111,72.37229476709452L49.74666666666666,60.279889768255615L49.775555555555556,79.07023740293724L49.977777777777774,84.8693812441613L50.23777777777777,16.906581025038456L50.35333333333333,-80.1214871087245L50.46888888888889,55.44651799063597L50.61333333333333,62.058275170624256L50.72888888888889,87.91004580738289L50.988888888888894,82.34783648273775L51.10444444444445,32.523324052137994L51.13333333333333,84.6788283213973L51.16222222222222,87.4584143624774L51.22,76.05002242167082L51.422222222222224,79.31890645091023L51.56666666666667,76.64413191803865L51.62444444444445,30.253657277141308L51.76888888888889,55.52005122974515L51.82666666666667,40.879091917404104L51.94222222222222,41.55469779350929L52.05777777777778,67.22721783870034L52.23111111111111,32.303766351725386L52.260000000000005,84.81380503518241L52.92444444444444,78.69413442271096L53.04,69.5094717043851L53.99333333333333,-33.47207126447134L54.13777777777778,53.430819156446624L54.19555555555555,48.581455971513485L54.36888888888889,71.48083153473479L54.6,81.94176959565708L54.77333333333333,87.02887249205794L54.888888888888886,85.60103105274695L55.09111111111111,83.66869949230127L55.14888888888889,89.79524386408073L55.32222222222222,70.19266180587667L55.379999999999995,61.900261594248676L55.784444444444446,77.45927333193166L55.81333333333333,32.293997443148065L56.102222222222224,89.02838454076223L56.18888888888889,93.0439032922898L56.44888888888889,28.45826213274684L56.56444444444445,32.99964419326613L56.68,43.32746459330831L56.94,76.63475968635508L56.96888888888889,80.41959602279323L57.142222222222216,102.57414855222616L57.17111111111111,95.817995062364L57.315555555555555,110.59142965583928L57.66222222222222,95.56596906217081L57.83555555555556,60.211252824536395L57.92222222222222,63.10451343815241L58.18222222222222,88.3215773627162L58.26888888888889,104.03353764569121L58.5,64.7938478381506L58.846666666666664,87.04105698530164L59.04888888888889,71.46129371758018L59.42444444444445,87.28363378665277L59.59777777777778,61.29712917868581L59.684444444444445,72.76749152317643L59.742222222222225,57.34178690399442L59.85777777777778,99.31049236921328L59.97333333333333,47.42037678297076L60.03111111111111,70.40224929898977L60.175555555555555,61.32682074021015L60.20444444444444,88.08522898065192L60.46444444444444,73.22931815630623L60.63777777777778,37.21540780897651L60.75333333333333,56.13878429627845L60.782222222222224,81.06264479085803L61.071111111111115,86.13089073342937L61.21555555555556,2.9510616234370697L61.62,92.09607049716371L62.284444444444446,81.37919295206666L62.4,69.50743503496051L62.428888888888885,84.42680232120412L62.45777777777778,81.71180948774729L62.97777777777778,71.59542971317258L63.324444444444445,51.974701167217326L63.35333333333333,81.04828745552473L63.52666666666667,84.47495415966425L63.72888888888889,91.24711089794125L64.48,84.87492287957242L64.53777777777778,104.09009370580316L64.82666666666667,35.00042323981013L65.14444444444443,86.43453209421465L65.2311111111111,81.14751588446754L65.31777777777778,90.3813014115606L65.89555555555556,36.21442031008856L66.06888888888889,98.54315940184253L66.27111111111111,83.4634932066713L66.44444444444444,91.6375652929502L66.73333333333333,54.89726850656526L66.90666666666667,94.14073266514711L66.99333333333333,61.496728702847456L67.31111111111112,41.45400106800454L67.39777777777778,105.57722353935242L67.48444444444443,86.06197552382946L67.51333333333334,30.077307755393647L68.03333333333333,68.35698915539044L68.9,91.63896254290428L68.98666666666666,91.22194263711572L69.07333333333334,108.62910754606128L69.10222222222222,91.77720740064979L69.73777777777777,93.80068583839707L70.08444444444444,21.864864580333233L70.14222222222223,69.25456831657462L70.25777777777778,101.28015300152558L70.37333333333333,115.92253324602332L70.4888888888889,70.7854865427528L71.21111111111111,59.77471286324518L71.24000000000001,90.40230752527714L71.55777777777777,86.15460253879428L71.78888888888888,94.48213529799666L71.90444444444445,108.69312349999589L71.96222222222222,93.34174251343522L72.25111111111111,95.03692049692783L72.45333333333333,76.97755364860807L72.88666666666667,11.388758068638182L73.00222222222223,100.60673772916198L73.69555555555556,69.61722572626812L73.72444444444444,96.63268059385675L74.18666666666667,66.26057545414993L74.21555555555555,104.15432575983661L74.47555555555556,111.61485012115114L74.64888888888889,51.56498722093446L74.76444444444445,61.58193134729352L75.02444444444444,70.70965612999031L75.22666666666666,84.1620293754552L75.25555555555556,92.97544396509018L75.63111111111111,96.77982995978422L75.8911111111111,95.33224940459642L76.03555555555556,70.31646052002907L76.17999999999999,105.17273447902076L76.26666666666667,103.11398436075874L76.41111111111111,53.44287339757595L76.49777777777777,63.098865232829546L76.84444444444445,90.38075672090054L77.07555555555555,95.7493285158915L77.27777777777777,90.32295438487616L77.47999999999999,104.37937477097981L77.74,87.7359756976366L77.85555555555555,98.68380800315313L77.88444444444445,73.52246238078389L77.91333333333334,92.56315457927329L77.9711111111111,88.11512776144913L78.05777777777777,111.92747887782753L78.25999999999999,102.80219632227507L78.52,94.11773132586055L78.80888888888889,82.55609185195395L78.92444444444445,98.10169354240809L78.98222222222222,54.57862447042551L79.06888888888889,69.10397911071777L79.21333333333332,61.479446615491604L79.3,86.38093334915382L79.32888888888888,57.80858087912202L79.35777777777778,74.87842241461787L79.90666666666667,75.8906293569931L80.16666666666667,94.61216835198658L80.34,108.81491514747697L80.54222222222222,109.53685525299184L80.57111111111111,93.80966139318687L80.83111111111111,33.98797355485814L81.03333333333333,101.55674928692835L81.38,98.67621193666544L81.64,41.43693804102285L81.75555555555556,95.89599831721611L82.04444444444444,102.17724667755621L82.16,88.35054069651025L82.30444444444444,69.7987675709384L82.42,99.56422940854516L82.79555555555555,87.46081218549183L82.88222222222223,79.78467025022421L83.05555555555554,64.8006505508508L83.08444444444444,63.14770385516541L83.11333333333333,84.94528270353165L84.09555555555555,95.26032063471419L84.2688888888889,87.71152382344007L84.76,107.76524000029478L84.81777777777778,83.0986215110336L84.87555555555555,66.9328362191362L85.0488888888889,71.19787657793078L85.13555555555556,90.2303688137659L85.19333333333333,91.27387770744306L85.28,59.89134179055691L85.71333333333334,109.31977234275215L86.11777777777777,108.76516476034053L86.17555555555555,105.30728195288353L86.69555555555556,35.88360362180643L86.81111111111112,97.41384988810334L87.04222222222222,102.8695721887052L87.15777777777777,80.26075948987689L87.44666666666666,50.307793813092374L87.53333333333333,108.73144426409688L87.62,123.2903743471418L87.70666666666666,52.2592191493937L88.4,78.12596285875354L88.74666666666667,18.752419260995723L88.77555555555556,86.79782300282803L88.86222222222223,84.0093620563192L88.89111111111112,91.18671536073089L88.94888888888889,100.41253774719578L89.00666666666666,76.25849685126119L89.12222222222222,74.20002795915518L89.23777777777778,97.24087508022785L89.38222222222223,43.41945810935328L89.44,71.26876333089811L89.87333333333333,92.39681078812905L90.85555555555555,84.40699215871948L90.97111111111111,-13.6521872356534L91.02888888888889,90.29509227350354L91.17333333333333,114.8161244222096L91.43333333333334,91.88452922233515L91.66444444444444,82.25736454821059L91.78,63.64386376153145L92.06888888888889,89.22307000788194L92.12666666666667,94.53134691502366L92.18444444444445,65.33485591571245L92.21333333333334,93.73328628976431L92.32888888888888,105.0942250170878L92.41555555555556,43.525720152471756L92.64666666666666,89.3268217375236L92.76222222222223,64.60546775747623L93.16666666666667,113.85403494111128L93.34,98.25455623971564L93.48444444444445,81.90613972182784L93.51333333333334,11.432001770607066L93.57111111111111,77.23873874066132L93.65777777777778,94.64427549817734L93.71555555555555,79.07140967196652L93.77333333333334,90.64153921550937L93.80222222222221,88.48719292613012L94.00444444444445,73.74863333627582L94.0911111111111,93.16306029473033L94.23555555555556,97.35736783487457L94.78444444444445,84.18398277727621L95.07333333333332,105.5645654020565L95.24666666666667,109.25208860768802L95.42,88.7933742031455L95.53555555555556,81.75472755943026L95.56444444444445,66.19238847228033L95.88222222222221,107.97041372289615L95.91111111111111,108.59235868815865L96.34444444444445,73.47368296395454L96.63333333333333,62.4925357199141L96.89333333333333,101.18317438183087L97.38444444444444,98.87447341637952L97.90444444444444,80.92908308867898L97.93333333333332,103.71149521347668L97.99111111111111,98.44457631292087L98.28,105.4453314324575L98.39555555555556,89.52958283573389L98.94444444444444,98.75166343418616L99.26222222222222,102.8834677210876L99.49333333333333,60.18804426597698L99.66666666666667,73.51457028676357L99.69555555555554,73.89531497870173L99.75333333333333,104.3994276760412L99.81111111111112,94.15193434698242L99.95555555555555,75.27813063029733L100.67777777777778,109.79084687600178L100.70666666666666,89.57021557486482L100.99555555555555,73.13617605343461L101.05333333333333,54.07628942972848L101.19777777777779,-5.931280016899109L101.60222222222222,99.19767627652202L101.77555555555556,84.19189855349916L101.97777777777779,121.99779972859793L102.03555555555555,114.40371662537966L102.09333333333333,78.11577359107989L102.4688888888889,82.91658234010849L102.58444444444444,76.55998313160879L102.64222222222223,91.38871270790696L103.01777777777777,108.3460104960416L103.36444444444444,71.37948354865823L103.71111111111111,101.8854404975261L103.74000000000001,113.56159230188601L103.7688888888889,126.0634122591998L104,67.27035497075745L104.17333333333333,101.471380867064L104.66444444444444,111.66120803276343L104.83777777777777,56.32382518638458L104.86666666666666,82.52263482021434L105.09777777777778,100.78755726665258L105.27111111111111,99.7271274392094L105.44444444444444,112.05339418883834L105.58888888888889,94.52098595138106L106.25333333333333,93.06855054465788L106.31111111111112,115.90464430222553L106.45555555555555,91.0304365056966L106.6,106.25917032520685L106.97555555555556,88.1879209317267L107.17777777777778,73.90507204617772L107.6111111111111,76.52958702455673L107.95777777777778,73.01550339002695L108.04444444444445,82.12175433550563L108.21777777777777,100.04784366807766L108.44888888888889,95.48827367595263L108.47777777777777,100.8965427630714L108.53555555555556,74.8387014402875L108.79555555555555,106.8368887770921L109.46,112.96076890107777L109.48888888888888,61.12399451594267L109.51777777777778,83.77532860956022L109.72,74.96641955897212L110.03777777777778,92.56991584811892L110.09555555555556,97.53025975504093L110.44222222222221,103.174714409081L110.4711111111111,113.41672826851052L110.55777777777777,90.88730127311177L110.61555555555556,98.1664229226964L110.64444444444445,70.05886328167149L111.48222222222222,81.720838327493L111.82888888888888,116.64690669785652L111.85777777777778,77.89454037483249L112.11777777777777,98.80813364631362L112.2911111111111,65.26586373895407L112.37777777777778,88.71871605941227L112.55111111111111,116.07206563358861L112.66666666666667,90.4808081063841L113.15777777777778,107.1743897670614L113.21555555555557,106.32616431611989L113.24444444444444,74.55140079930425L113.27333333333333,102.9200804063252L113.5911111111111,75.90790552379829L114.11111111111111,77.35833386385016L114.60222222222222,28.4325906251158L114.80444444444444,88.89741011921849L114.83333333333333,80.19675241676825L114.92,93.42149233072996L115.49777777777778,104.440276515271L115.64222222222222,100.92896369844675L115.7,47.36542223181043L115.75777777777779,106.0629928793226L115.81555555555555,104.83052369100707L115.87333333333333,104.98991083513413L115.9888888888889,104.19124631370816L116.01777777777778,98.15962613054685L116.33555555555554,116.86253315263562L116.42222222222222,86.39981398518596L116.65333333333334,101.04334281651037L116.74000000000001,103.86965088306792L117,110.48884427467627L117.43333333333334,114.2366298051285L117.5488888888889,80.8171609991363L117.60666666666665,100.36908682595406L118.04,83.47029591937151L118.41555555555556,79.58610090187618L119.08,87.39058261364698L119.51333333333334,80.84097937441298L119.54222222222222,113.46556985112173L119.74444444444444,102.37679291676197L119.8888888888889,101.07362643310003L120.03333333333333,71.88605178307209L120.14888888888888,107.50143210430231L120.20666666666666,94.89064145194632L120.66888888888889,83.35840935313277L120.98666666666666,115.88582583197527L121.18888888888888,104.53062411823444L121.21777777777777,95.19461436356816L121.42,106.29030946136587L121.50666666666666,112.28615471720695L122.19999999999999,103.06054251029022L122.28666666666666,113.39127286097832L122.48888888888888,112.67953682451375L122.57555555555555,99.64980504768235L122.60444444444444,88.10618180941258L122.66222222222223,105.04829634539783L122.69111111111111,104.74872536318642L123.26888888888888,112.25751701369882L123.41333333333334,113.1140341958297L123.67333333333333,79.02164152317815L123.7311111111111,84.47491271580968L123.78888888888889,107.37882046055581L124.36666666666666,101.98792522932801L124.59777777777778,78.34526005493743L125.00222222222223,102.40046327827233L125.0311111111111,105.82236985968692L125.17555555555556,121.36420904020113L125.32,114.41752927005291L125.52222222222221,70.0122152630772L125.86888888888889,123.20886316602784L126.36,95.87258845993452L126.41777777777777,115.30625128746033L126.47555555555556,116.77115537385855L126.56222222222222,130.1086728969323L126.70666666666666,100.397096951093L127.19777777777777,124.00146208330989L127.34222222222222,85.42559329579983L127.97777777777777,125.41319074401898L128.06444444444446,77.65634478096452L128.20888888888888,119.28503894273724L128.4111111111111,92.25813373018589L128.52666666666667,113.623725520713L128.58444444444444,104.60415143679295L128.7577777777778,100.46705417760782L128.78666666666666,101.4964011141232L128.96,110.48675432029579L129.16222222222223,83.60337805694768L129.33555555555557,60.31347113155894L129.42222222222222,116.42222772112913L129.91333333333333,111.18316205111998L129.9711111111111,121.91947972428586L130.26,79.82858889496752L130.34666666666666,71.44025800111038L130.40444444444444,68.1085273266903L130.54888888888888,118.36989942831653L131.01111111111112,74.37142790055701L131.06888888888886,97.77397922266807L131.2422222222222,120.29501975806696L131.35777777777778,93.12233282678895L131.41555555555556,110.09490859588342L131.82,80.40139625008617L132.3111111111111,102.25921670134578L132.6577777777778,116.1956512079175L132.86,99.34872728532977L132.88888888888889,85.96354044867414L133.40888888888887,87.4263901039958L133.46666666666667,104.11990959889121L133.52444444444444,78.68324060950961L133.6111111111111,110.73201017081738L133.6977777777778,97.46014267365847L134.18888888888887,79.43384802128587L134.50666666666666,64.00661590003543L134.53555555555556,103.34336425470454L134.70888888888888,104.626087076962L134.9111111111111,78.49348104053311L135.60444444444445,83.92936357589704L135.7777777777778,110.44026615656912L135.83555555555557,87.56843003470983L136.44222222222223,54.485138975616024L136.52888888888887,112.94149750870254L136.64444444444445,73.71660315724355L136.67333333333332,119.21113270893693L136.70222222222222,51.59441235767944L136.87555555555556,113.05722651231501L136.96222222222224,125.97246964089572L137.02,116.27878461991038L137.28,84.85912685043046L137.48222222222222,68.39792976315532L137.85777777777778,111.28416664525867L137.97333333333333,84.72371793644768L138.08888888888887,69.1990453925516L138.46444444444444,99.14685426971741L138.52222222222224,123.28446859786553L138.60888888888888,82.13601102147784L138.95555555555558,85.60802914361868L139.0711111111111,92.80355261798415L139.21555555555554,0.9758119913084251L139.2733333333333,100.71392929873295L139.56222222222223,122.14998748313103L139.62,77.78079475568873L139.67777777777778,66.61985222942063L140.0533333333333,86.22390258418662L140.51555555555555,100.83497495683176L140.66,123.91759452303606L140.86222222222221,122.72496768033929L141.58444444444444,101.94088645439062L141.61333333333332,112.29332450404763L141.64222222222222,112.61098868905432L141.84444444444443,116.68877683207393L142.13333333333333,111.54890702797897L142.36444444444444,88.37764497739929L142.56666666666666,108.23075217620604L142.68222222222224,100.62892203245845L143,119.96302191992956L143.17333333333332,114.38831431285612L143.34666666666666,-20.462075643241405L143.98222222222222,120.01944180737648L144.3,124.52521175571852L144.44444444444446,123.75503396375902L144.5888888888889,98.3730797432363L144.70444444444445,100.85437660132136L144.73333333333332,123.86861972803516L145.0511111111111,97.60711442306638L145.08,123.43792927078903L145.39777777777778,118.2385904956609L145.48444444444445,110.86853806887355L145.68666666666667,123.39407871237822L145.77333333333334,106.50037059853119L145.80222222222224,95.41877825238876L145.8311111111111,103.0508594496974L146.64,117.4416784572282L147.13111111111112,106.13519103425953L147.27555555555554,117.81211547047965L147.30444444444444,107.07443015011293L147.59333333333333,71.61359396257572L149.26888888888888,106.82009217488978L149.70222222222225,125.86605366346028L150.01999999999998,121.52254232631199L150.04888888888888,112.18432420625217L150.10666666666668,82.0181506196303L150.16444444444446,125.78591901037309L150.2511111111111,67.11443134876234L150.28,48.00262741638081L150.33777777777777,95.2478105111846L151.0022222222222,115.59773479747984L151.14666666666668,121.2954033607883L151.23333333333332,127.86217175650276L151.46444444444447,105.38865104078181L151.7822222222222,117.8400959928653L152.04222222222222,98.13979820641023L152.1288888888889,91.46113288349338L152.15777777777777,106.616818949048L152.41777777777776,121.02595910057425L152.5911111111111,116.30096004238086L153.05333333333334,127.40200139741812L153.2266666666667,120.21866241629634L153.3422222222222,120.64870161297065L153.60222222222222,102.39726026036911L153.66,95.62004737183452L153.92,120.26211925808873L154.03555555555556,117.2691269687244L154.2088888888889,83.4484431669116L154.35333333333332,103.22181534980025L154.7866666666667,94.19411827038441L154.9888888888889,121.92986733040638L155.10444444444443,114.20569492796702L155.36444444444444,111.44238448063177L155.79777777777778,117.51841767451592L156,106.80387874692678L156.17333333333335,69.2739699610642L156.2888888888889,83.11758503477488L156.31777777777776,123.35826530147877L156.86666666666667,118.91660603588181L156.89555555555555,119.36663301156037L156.95333333333335,121.6944573556206L157.12666666666667,88.54715034259218L157.21333333333334,117.62196218488472L157.99333333333334,122.01231691879886L158.16666666666666,78.7727652559323L158.2822222222222,108.1183416412345L158.3688888888889,31.543082162737846L158.6,117.96449268263366L158.65777777777777,54.15607477032714L159.1488888888889,121.30555710515804L159.17777777777778,63.076894069356584L159.72666666666666,127.83562696765043L159.75555555555556,130.16695923797255L159.8422222222222,109.24548127315938L160.04444444444442,113.77657933719456L160.10222222222222,129.835739952246L160.33333333333334,114.78232399853212L160.39111111111112,98.34379077915635L160.42,117.59724092563349L160.85333333333335,114.3105597211314L161.14222222222222,112.53624173706132L161.2288888888889,123.0879921641733L161.54666666666665,121.82622217067652L161.63333333333335,98.75167527528745L161.69111111111113,122.7614323518106L161.74888888888887,101.71821454433459L162.09555555555556,121.85256862108197L162.58666666666664,112.75104523529964L163.02,111.93943839014642L163.19333333333336,93.89531399948257L163.39555555555557,122.44355502698038L163.62666666666667,124.94463836534746L163.7422222222222,127.69138311195586L163.94444444444443,110.65184591497693L163.97333333333336,89.12250945504222L164.00222222222223,106.93528536866818L164.29111111111112,122.47827017573374L164.89777777777778,48.09831535603318L165.04222222222222,122.77884173100549L165.18666666666667,88.15208975917527L165.64888888888888,13.765373670629096L165.79333333333335,129.55351174303465L165.96666666666667,124.06114123389125L166.0822222222222,110.83693120921296L166.1111111111111,115.99153430360768L166.34222222222223,114.22690530068107L166.42888888888888,99.81989654738989L166.45777777777778,108.3712202007217L166.51555555555558,124.70396798130658L166.60222222222222,121.50330349696534L166.86222222222221,89.78869573505861L166.9488888888889,64.60102734448654L166.9777777777778,118.12257730561707L167.03555555555556,107.82041361182928L167.09333333333333,120.01623582919794L167.18,94.87189698857921L167.20888888888888,94.46041871820178L167.38222222222223,64.49616255132216L167.55555555555557,94.05213162462626L167.61333333333334,118.0480138906943L167.70000000000002,121.78823887796275L168.2777777777778,121.8984824913953L168.33555555555557,86.39595970671091L168.7111111111111,95.33287106241498L169.0577777777778,120.87287438261721L169.60666666666665,112.51703843101859L169.66444444444446,125.82598041636604L170.12666666666667,129.52914275654726L170.2133333333333,116.86734656031642L170.2711111111111,119.54996582280312L170.3,119.15650082778718L170.8488888888889,122.08146599014955L171.54222222222222,121.5530450032758L171.6288888888889,99.3656482190958L172.00444444444446,114.7483045144805L172.23555555555555,82.49727118121726L172.46666666666667,116.29422541601318L172.49555555555554,118.66464220147047L172.58222222222224,124.81583086534269L172.64000000000001,81.11974258135471L172.6688888888889,98.04739025181956L173.07333333333332,97.01906165001648L173.30444444444444,118.15195507795684L173.94,102.45104254250016L174.11333333333332,59.2077076477664L174.20000000000002,124.33088152163796L174.40222222222224,112.2469754732613L174.7777777777778,116.6606778986752L174.83555555555554,87.55972090469939L174.86444444444444,124.05710341834597L175.06666666666666,95.82324659079313L175.58666666666667,113.73515028400081L176.04888888888888,89.43888592028193L176.2511111111111,113.57805143270109L176.39555555555555,120.06714072371167L176.42444444444445,121.16523117385805L176.59777777777776,121.22062384576671L176.97333333333333,94.63203771997776L177.0311111111111,97.1311021505722L177.20444444444445,119.20042243280582L177.95555555555555,110.27360265568964L178.10000000000002,112.60583484971099L178.47555555555556,73.87893281504512L178.5911111111111,108.00929101875849L179.11111111111111,110.1616065592638L179.34222222222223,120.8491832991796L180.00666666666666,121.01750159396656L180.09333333333333,84.46607333368489L180.12222222222223,123.49585593837712L180.23777777777778,107.62027531755822L180.26666666666668,100.02985703519411L180.38222222222223,75.45279871565955L180.90222222222224,107.8481780341161L181.01777777777778,83.7952098186527L181.68222222222224,90.19547308821764L182.05777777777777,110.6906255217535L182.51999999999998,127.31972646526992L182.83777777777777,121.88263909784811L183.29999999999998,118.30088356935553L183.38666666666668,87.34418917873076L183.70444444444445,114.03175803061042L183.73333333333332,130.2919553834945L183.82,86.09707254809993L184.3111111111111,109.6667373329401L184.42666666666668,110.95923202405018L185.00444444444446,92.49122580939107L185.0622222222222,117.54585350624151L185.46666666666667,121.73975844894137L185.61111111111111,128.41141976043582L186.01555555555555,120.36917761527002L186.04444444444442,119.48906703878727L186.10222222222222,116.4534615860986L186.24666666666667,120.79176875922296L187.05555555555554,114.69826402036207L187.31555555555556,107.11914510891907L187.51777777777778,111.9725135463689L187.63333333333333,96.62679556650775L187.80666666666667,60.660817997264004L187.98,108.34779850233879L188.12444444444444,115.18361892178655L188.2111111111111,130.2383388767817L188.2688888888889,106.61158814254615L188.70222222222222,101.82826573987093L188.9622222222222,124.79306930835757L189.19333333333333,108.0172008744308L189.48222222222222,111.09236744658224L189.68444444444444,127.89632149266876L189.8288888888889,124.62772609027368L189.88666666666666,102.1884009949863L189.97333333333333,108.76236137960639L190.23333333333335,123.03094173808184L190.29111111111112,74.94322876206466L190.46444444444444,119.34848060325854L190.81111111111113,119.4505923403693L190.95555555555555,-24.94373118877411L191.24444444444444,110.68974039943092L191.53333333333333,118.31856825415578L191.59111111111113,102.61971903060164L192.02444444444444,104.4892661116485L192.3422222222222,108.01367518651698L192.4,107.43671752539065L192.51555555555555,117.24944409807878L192.86222222222221,122.51174496912532L192.94888888888892,92.1004339429949L193.93111111111114,129.21211947114872L194.13333333333335,123.20103619806468L194.22,112.4867725760809L194.33555555555557,125.96545378837202L194.74,116.97691227069922L195.05777777777777,112.5869838164321L195.26,112.8543292414397L195.4622222222222,72.11713087505528L195.75111111111113,97.38160656924758L195.83777777777777,117.04000757900732L195.98222222222222,113.29788505525462L196.12666666666667,87.60154959506222L196.3,114.44210843608849L196.64666666666665,101.34699601839695L196.67555555555558,112.87049234472215L197.16666666666666,81.90111317432353L197.25333333333336,84.63505176986966L197.45555555555558,117.96207413769193L197.8022222222222,128.92230407627565L198.23555555555558,106.04461845037129L198.29333333333335,121.54242649567979L198.49555555555557,115.33957510681026L198.78444444444443,118.32354743725486L199.01555555555558,118.04031717484551L199.07333333333335,110.86507750701692L199.1311111111111,122.33869319409132L199.27555555555557,100.17414677515626L199.53555555555556,122.40331600446787L199.82444444444445,120.0823950224689L199.85333333333335,85.3439192995429L200.14222222222222,119.70657326839864L200.2577777777778,131.7148975671402L200.28666666666666,108.44217800029688L200.83555555555557,128.88323880293007L200.98000000000002,116.62098060654742L201.0377777777778,130.76374334309781L201.06666666666666,116.37448736093938L201.1533333333333,127.72301069354373L201.41333333333333,120.43549074285798L201.9333333333333,122.00956090246993L202.5111111111111,85.59582096817238L202.65555555555557,127.96679676736571L202.91555555555556,119.5828367200281L203.08888888888887,114.69553760678642L203.11777777777777,100.9664881484849L203.14666666666668,128.52107279894076L203.23333333333332,122.56684161350131L203.32,117.54983507655561L203.72444444444446,73.65901988159332L203.95555555555558,118.50990564988129L204.44666666666666,123.44841456599534L204.47555555555553,120.50685706042819L204.5911111111111,40.303614393941L204.73555555555555,93.16808092168398L204.9377777777778,104.79607200675778L205.1977777777778,129.58575950230338L205.25555555555553,115.57436934432812L205.54444444444445,102.14838399312325L205.7177777777778,130.47484267330063L205.77555555555554,118.64255558725979L205.9488888888889,121.19962661287613L206.00666666666666,121.47554203495383L206.06444444444446,72.28435090769615L206.4111111111111,127.77563402788448L206.4688888888889,116.95012473927014L206.52666666666667,125.60645823925734L206.7577777777778,103.9595307625298L207.1911111111111,101.58435681462288L207.30666666666667,134.1543672150001L207.45111111111112,126.32384544132012L207.5377777777778,103.76307209048953L208,130.81094197290284L208.2888888888889,123.17001547291875L208.31777777777776,113.41392784805171L208.37555555555554,107.66878238905754L208.54888888888888,52.40480548994882L208.57777777777775,96.56764334493451L208.72222222222223,106.3659533767828L208.92444444444445,113.03653714805841L209.0688888888889,91.71385750866361L209.2711111111111,107.05414338330073L209.44444444444446,106.90863104962878L209.82000000000002,112.41581773678107L210.02222222222224,97.41464324189084L210.57111111111112,83.31711943287935L211.14888888888888,119.3365832567215L211.23555555555555,103.63461982352393L211.35111111111112,123.86467072074967L211.38,116.66617216968112L211.58222222222224,121.05012382806413L212.07333333333332,120.8973884225956L212.39111111111112,124.22301204901721L212.70888888888888,97.5865168273449L212.9111111111111,115.46173382843179L213.08444444444444,118.37019249557383L213.77777777777777,129.6185164289283L214.44222222222223,103.71333946500506L214.70222222222225,121.67420907238764L215.13555555555556,126.48213728357639L215.16444444444446,124.1617373100349L215.36666666666667,127.72400830632873L215.48222222222222,123.24157420838517L215.85777777777778,121.80834802825537L215.88666666666668,119.01895163474339L216.17555555555555,121.13270366857094L216.29111111111112,125.1844739517463L216.5222222222222,108.64669158150043L216.5511111111111,121.61511901659625L216.66666666666669,112.29504738428764L216.92666666666668,109.28812107896167L216.95555555555555,117.60738282890193L217.24444444444447,124.08236936825726L217.27333333333334,120.74046718781548L217.3022222222222,103.07002131188554L217.53333333333333,90.40575328575713L217.6488888888889,91.73216977183309L218.11111111111111,113.05710810130196L218.3422222222222,98.77237944092069L218.80444444444444,113.63752632428493L218.92,105.26293110794253L218.97777777777776,97.89634516356247L219.0066666666667,128.3556881370023L219.09333333333333,115.16176320905132L219.35333333333332,134.23551724252425L219.38222222222223,127.87482397324804L219.64222222222222,128.50639279359686L219.7288888888889,122.38951224062059L220.01777777777778,127.2678387593478L220.16222222222223,114.76603656368596L220.97111111111113,108.92812495678663L221.20222222222222,133.9303602207718L221.4622222222222,95.23172437506062L221.51999999999998,112.16833871948931L221.63555555555556,94.62677435044732L221.8088888888889,117.3363311391856L221.89555555555555,128.7625468977328L222.09777777777776,106.81847882483687L222.18444444444444,128.29013283989792L222.3288888888889,108.92646128205317L222.41555555555556,91.24674974435143L222.44444444444443,107.33262536408645L222.64666666666665,130.34881191155208L222.76222222222222,80.33611625858717L222.87777777777777,129.59224842581898L223.16666666666666,84.76115357822606L223.19555555555556,87.50948503240943L223.54222222222222,110.72916534622865L223.65777777777777,112.45528708770871L223.85999999999999,135.84413825560893L223.97555555555556,128.29125774452197L224.29333333333335,122.66623877813774L224.64,127.12644712893027L225.10222222222222,95.2620553560555L225.70888888888888,94.99991113479648L225.82444444444442,134.00806892822897L226.2577777777778,137.75446312927775L226.4022222222222,119.86689881980419L226.48888888888888,101.6096908508667L226.66222222222223,131.5896616393168L226.77777777777777,98.04548975506L226.89333333333335,125.24325613890376L227.12444444444444,125.79805317893624L227.29777777777778,134.43479557681297L227.32666666666665,117.89190969190426L227.35555555555555,119.14672895893455L227.8177777777778,125.28902199545078L228.02,110.16948385190751L228.07777777777778,129.79117892775685L228.25111111111113,125.81751106865704L228.48222222222222,107.65716330840118L228.56888888888886,125.95260915373053L228.68444444444444,124.05576241362307L228.7422222222222,130.96903695684992L228.97333333333336,111.85401372505086L229.20444444444445,126.48886598939342L229.29111111111112,116.43120327591896L229.69555555555556,126.90691607099559L229.8111111111111,117.00071288432393L230.04222222222222,102.56424347098384L230.12888888888887,116.89020284611199L230.3022222222222,76.87267109379172L230.79333333333335,105.28109239707035L230.82222222222222,122.18561439668494L230.88,128.50403789457465L231.4,105.28205152627613L231.51555555555558,96.4731928003686L231.60222222222222,128.8036103569237L232.03555555555556,130.807280112324L232.12222222222223,97.59187492568579L232.23777777777778,128.0218830507781L232.44,128.33004475198686L232.4977777777778,127.79210944021386L232.81555555555556,112.98915498118315L232.98888888888888,77.79170633054206L233.39333333333332,120.45155319677932L233.74,115.42810806099858L233.94222222222223,118.54035208161388L234.17333333333332,110.04316002290163L234.40444444444444,111.46920161481414L234.4333333333333,111.8447184605258L234.57777777777778,113.68195709665972L234.69333333333333,105.3599245290139L235.0688888888889,111.92257666188691L235.18444444444444,131.85233426972158L235.58888888888887,98.48784961764302L235.93555555555557,130.3535527924874L235.96444444444444,133.4663962688563L236.16666666666666,130.9366219420252L236.39777777777778,124.32056496212525L236.5711111111111,117.08236615865357L236.74444444444444,112.4694964092757L236.94666666666666,134.47995753719337L237.00444444444446,110.69796996483845L237.26444444444445,106.85205130731421L237.32222222222222,132.7382188632286L237.3511111111111,113.55414720943995L237.9,104.27728967634695L237.98666666666668,117.28435758527901L238.24666666666667,130.30541723554157L238.62222222222223,126.91917457112245L238.94,127.28601188957691L239.02666666666667,116.8987846842834L239.31555555555553,107.32469182621155L239.4311111111111,129.95648070198618" style="fill: none;" fill="none"></path></g></g></g></g></g></g><g transform="translate(70, 178)" clip-path="url(#clip_1)"><clipPath id="clip_1"><rect width="260" height="21"></rect></clipPath><g><g><line x1="0" y1="0" x2="0" y2="5" style="visibility: inherit;" fill="rgb(0, 0, 0)" stroke="rgb(204, 204, 204)" stroke-width="1px"></line><line x1="28.888888888888886" y1="0" x2="28.888888888888886" y2="5" style="visibility: inherit;" fill="rgb(0, 0, 0)" stroke="rgb(204, 204, 204)" stroke-width="1px"></line><line x1="57.77777777777777" y1="0" x2="57.77777777777777" y2="5" style="visibility: inherit;" fill="rgb(0, 0, 0)" stroke="rgb(204, 204, 204)" stroke-width="1px"></line><line x1="86.66666666666666" y1="0" x2="86.66666666666666" y2="5" style="visibility: inherit;" fill="rgb(0, 0, 0)" stroke="rgb(204, 204, 204)" stroke-width="1px"></line><line x1="115.55555555555554" y1="0" x2="115.55555555555554" y2="5" style="visibility: inherit;" fill="rgb(0, 0, 0)" stroke="rgb(204, 204, 204)" stroke-width="1px"></line><line x1="144.44444444444446" y1="0" x2="144.44444444444446" y2="5" style="visibility: inherit;" fill="rgb(0, 0, 0)" stroke="rgb(204, 204, 204)" stroke-width="1px"></line><line x1="173.33333333333331" y1="0" x2="173.33333333333331" y2="5" style="visibility: inherit;" fill="rgb(0, 0, 0)" stroke="rgb(204, 204, 204)" stroke-width="1px"></line><line x1="202.22222222222223" y1="0" x2="202.22222222222223" y2="5" style="visibility: inherit;" fill="rgb(0, 0, 0)" stroke="rgb(204, 204, 204)" stroke-width="1px"></line><line x1="231.1111111111111" y1="0" x2="231.1111111111111" y2="5" style="visibility: inherit;" fill="rgb(0, 0, 0)" stroke="rgb(204, 204, 204)" stroke-width="1px"></line><line x1="260" y1="0" x2="260" y2="5" style="visibility: inherit;" fill="rgb(0, 0, 0)" stroke="rgb(204, 204, 204)" stroke-width="1px"></line></g><g transform="translate(0, 8)"><text x="0" y="0" dx="0em" dy="0.95em" style="text-anchor: middle; visibility: hidden; font-family: Roboto, sans-serif; font-size: 12px; font-weight: 200;" fill="rgb(50, 49, 63)" stroke="none" stroke-width="1px">-1k</text><text x="28.888888888888886" y="0" dx="0em" dy="0.95em" style="text-anchor: middle; visibility: inherit; font-family: Roboto, sans-serif; font-size: 12px; font-weight: 200;" fill="rgb(50, 49, 63)" stroke="none" stroke-width="1px">0</text><text x="57.77777777777777" y="0" dx="0em" dy="0.95em" style="text-anchor: middle; visibility: inherit; font-family: Roboto, sans-serif; font-size: 12px; font-weight: 200;" fill="rgb(50, 49, 63)" stroke="none" stroke-width="1px">1k</text><text x="86.66666666666666" y="0" dx="0em" dy="0.95em" style="text-anchor: middle; visibility: inherit; font-family: Roboto, sans-serif; font-size: 12px; font-weight: 200;" fill="rgb(50, 49, 63)" stroke="none" stroke-width="1px">2k</text><text x="115.55555555555554" y="0" dx="0em" dy="0.95em" style="text-anchor: middle; visibility: inherit; font-family: Roboto, sans-serif; font-size: 12px; font-weight: 200;" fill="rgb(50, 49, 63)" stroke="none" stroke-width="1px">3k</text><text x="144.44444444444446" y="0" dx="0em" dy="0.95em" style="text-anchor: middle; visibility: inherit; font-family: Roboto, sans-serif; font-size: 12px; font-weight: 200;" fill="rgb(50, 49, 63)" stroke="none" stroke-width="1px">4k</text><text x="173.33333333333331" y="0" dx="0em" dy="0.95em" style="text-anchor: middle; visibility: inherit; font-family: Roboto, sans-serif; font-size: 12px; font-weight: 200;" fill="rgb(50, 49, 63)" stroke="none" stroke-width="1px">5k</text><text x="202.22222222222223" y="0" dx="0em" dy="0.95em" style="text-anchor: middle; visibility: inherit; font-family: Roboto, sans-serif; font-size: 12px; font-weight: 200;" fill="rgb(50, 49, 63)" stroke="none" stroke-width="1px">6k</text><text x="231.1111111111111" y="0" dx="0em" dy="0.95em" style="text-anchor: middle; visibility: inherit; font-family: Roboto, sans-serif; font-size: 12px; font-weight: 200;" fill="rgb(50, 49, 63)" stroke="none" stroke-width="1px">7k</text><text x="260" y="0" dx="0em" dy="0.95em" style="text-anchor: middle; visibility: hidden; font-family: Roboto, sans-serif; font-size: 12px; font-weight: 200;" fill="rgb(50, 49, 63)" stroke="none" stroke-width="1px">8k</text></g><line x1="0" y1="0" x2="260" y2="0" fill="rgb(0, 0, 0)" stroke="rgb(204, 204, 204)" stroke-width="1px"></line></g></g></g></g></svg>