<svg viewBox="0 0 330.0000305175781 200.00001525878906" xmlns="http://www.w3.org/2000/svg"><g><g><g><g><g><line x1="58" y1="178" x2="53" y2="178" style="visibility: inherit;" fill="rgb(0, 0, 0)" stroke="rgb(204, 204, 204)" stroke-width="1px"></line><line x1="58" y1="165.28571428571428" x2="53" y2="165.28571428571428" style="visibility: inherit;" fill="rgb(0, 0, 0)" stroke="rgb(204, 204, 204)" stroke-width="1px"></line><line x1="58" y1="152.57142857142856" x2="53" y2="152.57142857142856" style="visibility: inherit;" fill="rgb(0, 0, 0)" stroke="rgb(204, 204, 204)" stroke-width="1px"></line><line x1="58" y1="139.85714285714286" x2="53" y2="139.85714285714286" style="visibility: inherit;" fill="rgb(0, 0, 0)" stroke="rgb(204, 204, 204)" stroke-width="1px"></line><line x1="58" y1="127.14285714285717" x2="53" y2="127.14285714285717" style="visibility: inherit;" fill="rgb(0, 0, 0)" stroke="rgb(204, 204, 204)" stroke-width="1px"></line><line x1="58" y1="114.42857142857142" x2="53" y2="114.42857142857142" style="visibility: inherit;" fill="rgb(0, 0, 0)" stroke="rgb(204, 204, 204)" stroke-width="1px"></line><line x1="58" y1="101.71428571428571" x2="53" y2="101.71428571428571" style="visibility: inherit;" fill="rgb(0, 0, 0)" stroke="rgb(204, 204, 204)" stroke-width="1px"></line><line x1="58" y1="89.00000000000001" x2="53" y2="89.00000000000001" style="visibility: inherit;" fill="rgb(0, 0, 0)" stroke="rgb(204, 204, 204)" stroke-width="1px"></line><line x1="58" y1="76.28571428571429" x2="53" y2="76.28571428571429" style="visibility: inherit;" fill="rgb(0, 0, 0)" stroke="rgb(204, 204, 204)" stroke-width="1px"></line><line x1="58" y1="63.57142857142856" x2="53" y2="63.57142857142856" style="visibility: inherit;" fill="rgb(0, 0, 0)" stroke="rgb(204, 204, 204)" stroke-width="1px"></line><line x1="58" y1="50.857142857142875" x2="53" y2="50.857142857142875" style="visibility: inherit;" fill="rgb(0, 0, 0)" stroke="rgb(204, 204, 204)" stroke-width="1px"></line><line x1="58" y1="38.142857142857146" x2="53" y2="38.142857142857146" style="visibility: inherit;" fill="rgb(0, 0, 0)" stroke="rgb(204, 204, 204)" stroke-width="1px"></line><line x1="58" y1="25.428571428571438" x2="53" y2="25.428571428571438" style="visibility: inherit;" fill="rgb(0, 0, 0)" stroke="rgb(204, 204, 204)" stroke-width="1px"></line><line x1="58" y1="12.714285714285728" x2="53" y2="12.714285714285728" style="visibility: inherit;" fill="rgb(0, 0, 0)" stroke="rgb(204, 204, 204)" stroke-width="1px"></line><line x1="58" y1="0" x2="53" y2="0" style="visibility: inherit;" fill="rgb(0, 0, 0)" stroke="rgb(204, 204, 204)" stroke-width="1px"></line></g><g transform="translate(48, 0)"><text x="0" y="178" dx="0em" dy="0.3em" style="text-anchor: end; visibility: hidden; font-family: Roboto, sans-serif; font-size: 12px; font-weight: 200;" fill="rgb(50, 49, 63)" stroke="none" stroke-width="1px">0.16</text><text x="0" y="165.28571428571428" dx="0em" dy="0.3em" style="text-anchor: end; visibility: inherit; font-family: Roboto, sans-serif; font-size: 12px; font-weight: 200;" fill="rgb(50, 49, 63)" stroke="none" stroke-width="1px">0.18</text><text x="0" y="152.57142857142856" dx="0em" dy="0.3em" style="text-anchor: end; visibility: hidden; font-family: Roboto, sans-serif; font-size: 12px; font-weight: 200;" fill="rgb(50, 49, 63)" stroke="none" stroke-width="1px">0.2</text><text x="0" y="139.85714285714286" dx="0em" dy="0.3em" style="text-anchor: end; visibility: inherit; font-family: Roboto, sans-serif; font-size: 12px; font-weight: 200;" fill="rgb(50, 49, 63)" stroke="none" stroke-width="1px">0.22</text><text x="0" y="127.14285714285717" dx="0em" dy="0.3em" style="text-anchor: end; visibility: hidden; font-family: Roboto, sans-serif; font-size: 12px; font-weight: 200;" fill="rgb(50, 49, 63)" stroke="none" stroke-width="1px">0.24</text><text x="0" y="114.42857142857142" dx="0em" dy="0.3em" style="text-anchor: end; visibility: inherit; font-family: Roboto, sans-serif; font-size: 12px; font-weight: 200;" fill="rgb(50, 49, 63)" stroke="none" stroke-width="1px">0.26</text><text x="0" y="101.71428571428571" dx="0em" dy="0.3em" style="text-anchor: end; visibility: hidden; font-family: Roboto, sans-serif; font-size: 12px; font-weight: 200;" fill="rgb(50, 49, 63)" stroke="none" stroke-width="1px">0.28</text><text x="0" y="89.00000000000001" dx="0em" dy="0.3em" style="text-anchor: end; visibility: inherit; font-family: Roboto, sans-serif; font-size: 12px; font-weight: 200;" fill="rgb(50, 49, 63)" stroke="none" stroke-width="1px">0.3</text><text x="0" y="76.28571428571429" dx="0em" dy="0.3em" style="text-anchor: end; visibility: hidden; font-family: Roboto, sans-serif; font-size: 12px; font-weight: 200;" fill="rgb(50, 49, 63)" stroke="none" stroke-width="1px">0.32</text><text x="0" y="63.57142857142856" dx="0em" dy="0.3em" style="text-anchor: end; visibility: inherit; font-family: Roboto, sans-serif; font-size: 12px; font-weight: 200;" fill="rgb(50, 49, 63)" stroke="none" stroke-width="1px">0.34</text><text x="0" y="50.857142857142875" dx="0em" dy="0.3em" style="text-anchor: end; visibility: hidden; font-family: Roboto, sans-serif; font-size: 12px; font-weight: 200;" fill="rgb(50, 49, 63)" stroke="none" stroke-width="1px">0.36</text><text x="0" y="38.142857142857146" dx="0em" dy="0.3em" style="text-anchor: end; visibility: inherit; font-family: Roboto, sans-serif; font-size: 12px; font-weight: 200;" fill="rgb(50, 49, 63)" stroke="none" stroke-width="1px">0.38</text><text x="0" y="25.428571428571438" dx="0em" dy="0.3em" style="text-anchor: end; visibility: hidden; font-family: Roboto, sans-serif; font-size: 12px; font-weight: 200;" fill="rgb(50, 49, 63)" stroke="none" stroke-width="1px">0.4</text><text x="0" y="12.714285714285728" dx="0em" dy="0.3em" style="text-anchor: end; visibility: inherit; font-family: Roboto, sans-serif; font-size: 12px; font-weight: 200;" fill="rgb(50, 49, 63)" stroke="none" stroke-width="1px">0.42</text><text x="0" y="0" dx="0em" dy="0.3em" style="text-anchor: end; visibility: hidden; font-family: Roboto, sans-serif; font-size: 12px; font-weight: 200;" fill="rgb(50, 49, 63)" stroke="none" stroke-width="1px">0.44</text></g><line x1="58" y1="0" x2="58" y2="178" fill="rgb(0, 0, 0)" stroke="rgb(204, 204, 204)" stroke-width="1px"></line></g></g><g transform="translate(58, 0)" clip-path="url(#clip_0)"><clipPath id="clip_0"><rect width="271" height="177"></rect></clipPath><g><g><g><line x1="0" y1="0" x2="0" y2="178" fill="rgb(0, 0, 0)" stroke="rgb(60, 60, 60)" stroke-width="1px" opacity="0.25"></line><line x1="30.22222222222222" y1="0" x2="30.22222222222222" y2="178" fill="rgb(0, 0, 0)" stroke="rgb(60, 60, 60)" stroke-width="1px" opacity="0.25"></line><line x1="60.44444444444444" y1="0" x2="60.44444444444444" y2="178" fill="rgb(0, 0, 0)" stroke="rgb(60, 60, 60)" stroke-width="1px" opacity="0.25"></line><line x1="90.66666666666666" y1="0" x2="90.66666666666666" y2="178" fill="rgb(0, 0, 0)" stroke="rgb(60, 60, 60)" stroke-width="1px" opacity="0.25"></line><line x1="120.88888888888889" y1="0" x2="120.88888888888889" y2="178" fill="rgb(0, 0, 0)" stroke="rgb(60, 60, 60)" stroke-width="1px" opacity="0.25"></line><line x1="151.11111111111111" y1="0" x2="151.11111111111111" y2="178" fill="rgb(0, 0, 0)" stroke="rgb(60, 60, 60)" stroke-width="1px" opacity="0.25"></line><line x1="181.33333333333331" y1="0" x2="181.33333333333331" y2="178" fill="rgb(0, 0, 0)" stroke="rgb(60, 60, 60)" stroke-width="1px" opacity="0.25"></line><line x1="211.55555555555557" y1="0" x2="211.55555555555557" y2="178" fill="rgb(0, 0, 0)" stroke="rgb(60, 60, 60)" stroke-width="1px" opacity="0.25"></line><line x1="241.77777777777777" y1="0" x2="241.77777777777777" y2="178" fill="rgb(0, 0, 0)" stroke="rgb(60, 60, 60)" stroke-width="1px" opacity="0.25"></line><line x1="272" y1="0" x2="272" y2="178" fill="rgb(0, 0, 0)" stroke="rgb(60, 60, 60)" stroke-width="1px" opacity="0.25"></line></g><g><line x1="0" y1="178" x2="272" y2="178" fill="rgb(0, 0, 0)" stroke="rgb(60, 60, 60)" stroke-width="1px" opacity="0.25"></line><line x1="0" y1="165.28571428571428" x2="272" y2="165.28571428571428" fill="rgb(0, 0, 0)" stroke="rgb(60, 60, 60)" stroke-width="1px" opacity="0.25"></line><line x1="0" y1="152.57142857142856" x2="272" y2="152.57142857142856" fill="rgb(0, 0, 0)" stroke="rgb(60, 60, 60)" stroke-width="1px" opacity="0.25"></line><line x1="0" y1="139.85714285714286" x2="272" y2="139.85714285714286" fill="rgb(0, 0, 0)" stroke="rgb(60, 60, 60)" stroke-width="1px" opacity="0.25"></line><line x1="0" y1="127.14285714285717" x2="272" y2="127.14285714285717" fill="rgb(0, 0, 0)" stroke="rgb(60, 60, 60)" stroke-width="1px" opacity="0.25"></line><line x1="0" y1="114.42857142857142" x2="272" y2="114.42857142857142" fill="rgb(0, 0, 0)" stroke="rgb(60, 60, 60)" stroke-width="1px" opacity="0.25"></line><line x1="0" y1="101.71428571428571" x2="272" y2="101.71428571428571" fill="rgb(0, 0, 0)" stroke="rgb(60, 60, 60)" stroke-width="1px" opacity="0.25"></line><line x1="0" y1="89.00000000000001" x2="272" y2="89.00000000000001" fill="rgb(0, 0, 0)" stroke="rgb(60, 60, 60)" stroke-width="1px" opacity="0.25"></line><line x1="0" y1="76.28571428571429" x2="272" y2="76.28571428571429" fill="rgb(0, 0, 0)" stroke="rgb(60, 60, 60)" stroke-width="1px" opacity="0.25"></line><line x1="0" y1="63.57142857142856" x2="272" y2="63.57142857142856" fill="rgb(0, 0, 0)" stroke="rgb(60, 60, 60)" stroke-width="1px" opacity="0.25"></line><line x1="0" y1="50.857142857142875" x2="272" y2="50.857142857142875" fill="rgb(0, 0, 0)" stroke="rgb(60, 60, 60)" stroke-width="1px" opacity="0.25"></line><line x1="0" y1="38.142857142857146" x2="272" y2="38.142857142857146" fill="rgb(0, 0, 0)" stroke="rgb(60, 60, 60)" stroke-width="1px" opacity="0.25"></line><line x1="0" y1="25.428571428571438" x2="272" y2="25.428571428571438" fill="rgb(0, 0, 0)" stroke="rgb(60, 60, 60)" stroke-width="1px" opacity="0.25"></line><line x1="0" y1="12.714285714285728" x2="272" y2="12.714285714285728" fill="rgb(0, 0, 0)" stroke="rgb(60, 60, 60)" stroke-width="1px" opacity="0.25"></line><line x1="0" y1="0" x2="272" y2="0" fill="rgb(0, 0, 0)" stroke="rgb(60, 60, 60)" stroke-width="1px" opacity="0.25"></line></g></g></g><g><g><line x1="0" y1="279.7142857142857" x2="272" y2="279.7142857142857" fill="rgb(0, 0, 0)" stroke="rgb(153, 153, 153)" stroke-width="1.5px"></line></g></g><g><g><line x1="30.22222222222222" y1="0" x2="30.22222222222222" y2="178" fill="rgb(0, 0, 0)" stroke="rgb(153, 153, 153)" stroke-width="1.5px"></line></g></g><g><g><g><g><g><path stroke="rgb(255, 112, 67)" stroke-width="2px" d="M38.291555555555554,-3.410866516085522L38.412444444444446,16.750755085577584L38.47288888888889,21.89560202389515L39.04711111111111,34.30806151718968L39.379555555555555,40.99143165244985L39.53066666666667,19.63285061166723L39.59111111111111,30.971555847382383L39.83288888888889,19.911039574390205L40.19555555555556,18.841904147705456L40.467555555555556,13.401188530604731L40.70933333333333,13.708414236942275L41.19288888888889,40.53320420412317L41.31377777777777,29.36983264907024L41.616,9.332136520223905L42.94577777777778,37.53722979458494L42.976,33.480120155240066L43.489777777777775,27.063258144545095L43.550222222222224,45.20688207641644L43.58044444444444,36.37877087399635L43.67111111111112,40.60756051223363L44.12444444444444,39.10499913160944L44.21511111111111,38.254517342917985L44.24533333333333,45.987271692418055L44.547555555555554,49.78698288564072L45.06133333333333,74.09228110157356L45.12177777777778,47.147850035674594L45.75644444444444,53.34115411497414L45.847111111111104,58.32446405853678L46.08888888888889,70.76333057792027L46.270222222222216,62.30083529896124L46.330666666666666,67.85701844115452L46.42133333333333,62.31111487587492L46.602666666666664,58.07754850207171L46.75377777777778,61.5041112071521L47.056,37.882902940373064L47.23733333333333,66.26791453036444L47.53955555555556,57.83615826002992L47.72088888888889,33.28950119105888L47.781333333333336,31.275090912934207L47.93244444444444,45.95502014668435L47.96266666666667,65.64802278959885L48.416,74.01268708807142L48.96,83.02907178122089L49.02044444444444,81.07015304669994L49.38311111111111,62.88269724363667L49.59466666666666,55.05354044556793L49.62488888888889,73.49846905984303L49.68533333333333,84.96573502474578L49.775999999999996,66.98354827895749L49.836444444444446,52.71633237152856L50.19911111111111,31.84872209927605L50.410666666666664,33.17684871069715L50.501333333333335,16.663034904671516L50.592,47.71458243989175L50.864,71.67955386778507L51.01511111111111,60.24961927021026L51.80088888888889,78.96489826388986L51.92177777777778,82.61128204621147L52.04266666666666,76.08551678904544L52.07288888888889,71.67311787344775L52.28444444444444,77.17591802576977L52.556444444444445,47.00757526848876L52.67733333333333,18.595664464115387L52.79822222222222,27.679649800807645L52.94933333333333,58.98461016546429L53.07022222222223,82.33506102197101L53.342222222222226,95.13098396899792L53.46311111111111,103.83082832463931L53.49333333333333,98.4882982722167L53.523555555555554,78.21296688708841L53.584,80.67231252325624L53.79555555555555,88.04565986031409L53.946666666666665,86.11896544885533L54.007111111111115,80.7314431525497L54.15822222222222,72.64060737576312L54.218666666666664,75.08227045638526L54.339555555555556,64.6363177632623L54.46044444444444,72.88113170306453L54.641777777777776,74.37745115253244L54.672000000000004,82.7390015803494L55.36711111111111,82.85726254309095L55.488,86.00680694228762L56.48533333333333,51.82949387067087L56.63644444444444,49.80052129986856L56.696888888888886,36.658326496346355L56.87822222222222,40.810404171913454L57.12,47.6172528754462L57.30133333333333,71.30606537065783L57.422222222222224,77.54865856427222L57.63377777777777,71.80931424431108L57.69422222222222,88.62759394247595L57.87555555555556,89.64429955107389L57.936,82.74958826384962L58.35911111111111,82.96970324258649L58.38933333333333,86.67111591593242L58.69155555555556,102.2346869832028L58.782222222222224,98.8588402209984L59.05422222222222,93.36042240660656L59.175111111111114,68.87575069479337L59.296,66.61623219752768L59.568,72.31819639268194L59.598222222222226,86.31791547335786L59.779555555555554,88.9731114590025L59.809777777777775,94.7296057393465L59.96088888888889,104.58441896908788L60.32355555555555,105.98638157990418L60.504888888888885,86.0598664782966L60.595555555555556,86.91607450006414L60.867555555555555,76.95706704165771L60.958222222222226,80.14609902615518L61.2,77.26398965171933L61.562666666666665,90.6880901840446L61.77422222222223,90.52647068934633L62.16711111111111,86.3501960174177L62.34844444444444,84.82850441039919L62.43911111111112,87.80873745927575L62.49955555555555,91.40221895809304L62.620444444444445,97.18542853955483L62.74133333333333,89.44144106911625L62.80177777777778,91.36023258400735L62.95288888888889,97.86045692531505L62.98311111111111,78.41565379685817L63.255111111111106,88.48891266440204L63.43644444444445,91.068870314346L63.55733333333333,72.9462482706737L63.587555555555554,88.81192793532968L63.88977777777778,96.78953719359917L64.04088888888889,74.94701567509857L64.464,87.13909683443273L65.15911111111112,80.1089554997173L65.28,71.70350109682093L65.31022222222222,77.22197549515052L65.34044444444444,82.61013708013432L65.88444444444444,94.40945887777377L66.24711111111111,89.95877482336947L66.27733333333333,105.13784511335861L66.45866666666667,95.7758860725481L66.67022222222222,92.33817049237858L67.456,96.26606228573782L67.51644444444445,109.11520670172624L67.81866666666666,95.14648630297133L68.1511111111111,88.27425370091338L68.24177777777777,101.3117239886684L68.33244444444445,96.20518235904098L68.9368888888889,94.53082293424846L69.11822222222223,102.50948436181625L69.32977777777778,105.59470762682484L69.5111111111111,106.32877671812916L69.81333333333333,85.32841289100016L69.99466666666667,95.81786470787759L70.08533333333332,64.07761527149952L70.41777777777777,33.304674781512844L70.50844444444445,48.91672786815351L70.59911111111111,28.912079512394907L70.62933333333334,46.59538996008656L71.17333333333333,47.12974713062673L72.08,73.86644509239537L72.17066666666666,103.35907586951323L72.26133333333333,104.55960235576534L72.29155555555556,113.61471220686174L72.95644444444444,75.09383741944089L73.31911111111111,60.17913622473256L73.37955555555556,77.5061702146718L73.50044444444444,93.4093249619188L73.62133333333334,102.78487401912277L73.74222222222222,100.12767706255201L74.49777777777778,83.44192263874035L74.528,96.77872701521288L74.86044444444444,88.18658796399745L75.10222222222221,88.80031940268569L75.22311111111111,95.59586258487158L75.28355555555555,103.17072016366363L75.58577777777778,104.61128823125047L75.79733333333334,113.23578291036897L76.25066666666666,98.05822214253247L76.37155555555556,107.4534083667589L77.09688888888888,100.64437830484209L77.1271111111111,94.95128352323097L77.61066666666666,104.94256949778321L77.6408888888889,120.99600614521457L77.91288888888889,111.78066865196816L78.09422222222221,76.34851350199912L78.21511111111111,18.106888199433417L78.48711111111112,41.73877642598265L78.69866666666667,59.900922395779034L78.72888888888889,76.8649916006798L79.12177777777777,102.71160868470771L79.39377777777777,94.03076664520532L79.54488888888889,105.20405184660014L79.696,112.29685442110095L79.78666666666666,118.29209794931869L79.93777777777777,117.49404703236718L80.02844444444445,112.56370506507984L80.39111111111112,110.72129917550072L80.63288888888889,110.98239830464625L80.84444444444445,104.31530202398432L81.056,117.12346671886796L81.328,130.91339107417454L81.44888888888889,131.5634421914337L81.47911111111111,116.02281134525902L81.50933333333334,111.57408681971664L81.56977777777777,118.98541467891407L81.66044444444445,119.68672516903189L81.872,129.4511710428565L82.14399999999999,66.72525146146828L82.44622222222222,68.37191861168105L82.56711111111112,71.81118980566852L82.62755555555555,84.18326292773772L82.71822222222222,89.43036625418054L82.86933333333333,81.34522363069304L82.96,83.46719399831854L82.99022222222223,75.49373030849455L83.02044444444445,94.30795150426206L83.59466666666667,107.7887400337545L83.86666666666667,100.89972429309074L84.048,103.3147356355501L84.25955555555555,110.64949351813274L84.28977777777777,106.69397127616503L84.56177777777778,90.1707578522109L84.77333333333333,101.98330685883761L85.136,109.21553641534706L85.408,108.55510269049064L85.5288888888889,120.31234801079788L85.8311111111111,94.18769820576199L85.952,95.61450508689626L86.1031111111111,100.74669318896552L86.224,83.68403885578607L86.61688888888888,90.68507392807389L86.70755555555556,90.80689974276093L86.88888888888889,94.32851042537608L86.9191111111111,97.478689104592L86.94933333333333,88.5387090761258L87.97688888888888,102.23267616230723L88.15822222222222,105.38782869218872L88.672,114.63762025583948L88.73244444444445,120.06534428753525L88.79288888888888,104.39211211162507L88.97422222222222,82.59999367416238L89.06488888888889,76.17503370705873L89.12533333333333,75.70543806301305L89.21600000000001,22.918168609335805L89.66933333333333,56.16167225624524L90.09244444444444,85.40292150573885L90.15288888888888,101.82829859391171L90.69688888888888,112.87521707138609L90.81777777777778,117.23417739514653L91.05955555555556,125.27609349583645L91.18044444444443,124.10218884354441L91.48266666666666,93.23881489944397L91.57333333333334,85.40059998408691L91.664,110.07062736190231L91.75466666666667,93.17496667015394L92.48,93.16020757807568L92.84266666666666,113.07846300769953L92.8728888888889,113.82662420850461L92.96355555555556,113.43201770924694L92.99377777777778,100.87228599088718L93.05422222222222,89.29729384378138L93.11466666666666,49.048862003742634L93.23555555555556,63.87156896286464L93.35644444444443,80.47358715487617L93.50755555555556,61.704724498877965L93.568,82.58461189253248L94.02133333333333,87.08351223458715L95.04888888888888,94.82988978584244L95.16977777777778,92.77893438349237L95.23022222222222,93.06167283472884L95.38133333333334,99.98447217577039L95.65333333333334,90.41461470998472L95.89511111111112,94.5807426954508L96.01599999999999,91.22273087243015L96.31822222222222,84.13397587212359L96.37866666666666,110.47222135757296L96.43911111111112,83.89548058174697L96.46933333333334,71.01149565495638L96.59022222222222,92.01565325909264L96.68088888888889,53.64539716633209L96.92266666666667,75.48768722154783L97.04355555555556,59.717082580469885L97.46666666666667,85.16263504741872L97.648,94.49075050986494L97.79911111111112,82.21425603701113L97.82933333333334,49.83836952968502L97.88977777777777,61.88607566771206L97.98044444444444,80.35614455131216L98.04088888888889,87.69651154340391L98.10133333333334,99.0276282256225L98.13155555555555,93.96900209169436L98.34311111111111,105.48994636422053L98.43377777777778,102.21776381833178L98.5848888888889,104.2919174449101L99.15911111111112,97.1804949259348L99.46133333333333,113.59173199542174L99.64266666666667,128.57757283028081L99.824,112.51137828948904L99.9448888888889,101.28763670994525L99.97511111111112,107.54462207974352L100.30755555555555,104.61840117944097L100.33777777777777,117.5594229841315L100.79111111111112,124.86256656143141L101.09333333333333,92.04398656883541L101.36533333333333,114.23393480862116L101.8791111111111,116.91709562045723L102.4231111111111,114.76137411536209L102.45333333333333,109.81575907604187L102.51377777777778,106.82385907969648L102.816,118.87961335421667L102.9368888888889,122.87475395550683L103.5111111111111,126.31036921096911L103.84355555555555,121.23458180961566L104.08533333333332,111.35168992703548L104.26666666666668,114.0301285254766L104.29688888888889,110.96372687539599L104.35733333333333,121.86268665794644L104.41777777777777,115.7557398087883L104.56888888888888,117.75614994976969L105.32444444444445,119.16201817946634L105.35466666666666,114.0740075006647L105.65688888888889,107.88251731448464L105.71733333333333,110.24168757674666L105.86844444444445,113.39419782889146L106.29155555555556,110.01670566382224L106.47288888888889,106.17850291922731L106.68444444444445,123.47240310853319L106.74488888888888,136.487315719144L106.80533333333334,117.91230027111216L107.19822222222223,115.11978030342965L107.31911111111111,122.47105245332526L107.37955555555556,125.25427247267474L107.77244444444443,132.23639534905175L108.13511111111112,132.5601083985076L108.49777777777778,135.03085900083389L108.528,136.33683337752007L108.55822222222223,147.96872727350498L108.80000000000001,138.75090425179067L108.98133333333334,132.02335738859827L109.49511111111111,126.73069114178915L109.67644444444444,111.18107611352502L109.70666666666666,98.07308259427555L109.94844444444443,99.75630641983243L110.12977777777779,107.5116822711434L110.31111111111112,124.50452134730682L110.46222222222221,125.26886906969193L111.15733333333334,108.69477530822884L111.21777777777778,127.13008548152459L111.36888888888889,125.65824452410772L111.52,133.57232038940228L111.91288888888889,123.73909191178991L112.12444444444444,115.97638476168599L112.57777777777777,108.79996687167748L112.94044444444444,118.3838492222829L113.03111111111112,116.66476266995008L113.21244444444444,107.33397566753165L113.45422222222221,123.56988800963568L113.48444444444445,97.62146183916981L113.54488888888889,111.36167439008045L113.8168888888889,117.82177802263841L114.512,129.16743046588047L114.54222222222222,109.90599514571635L114.57244444444444,119.77663931054275L114.78399999999999,95.10464377881529L115.11644444444444,105.7987061277203L115.1768888888889,117.8305613240702L115.53955555555555,114.31650614642862L115.56977777777777,116.83842487277845L115.66044444444445,106.71868114981977L115.7208888888889,109.71895246607706L115.75111111111111,112.35532814632016L116.62755555555555,101.40236453719746L116.99022222222223,102.39457578961739L117.02044444444445,80.10850697971479L117.29244444444444,84.53608330958203L117.47377777777777,94.76708416437404L117.56444444444445,102.13458258941095L117.74577777777777,108.18903995006447L117.86666666666667,107.48205115041067L118.38044444444445,96.7185340774796L118.44088888888889,111.40987360791812L118.4711111111111,115.75442855035845L118.50133333333332,127.56079920132593L118.83377777777778,120.28980036122242L119.37777777777778,126.01182181392268L119.89155555555556,104.0720630060597L120.1031111111111,111.76904533417519L120.13333333333333,126.44239482775797L120.224,113.16760449279059L120.82844444444444,96.9399378067093L120.97955555555555,103.11258681127732L121.04,95.13528785072491L121.10044444444445,110.3509233242606L121.16088888888888,109.46294130703676L121.22133333333333,120.38624899280589L121.34222222222223,125.27399172003581L121.37244444444445,131.70584762037532L121.70488888888889,139.36874349592853L121.79555555555555,133.96710861559518L122.03733333333334,133.15412182795205L122.128,125.49528681066242L122.4,132.87944421749987L122.85333333333332,132.72012318123387L122.97422222222222,125.28476802506026L123.03466666666667,134.18850556270212L123.488,111.40685932873957L123.88088888888889,118.40009319890814L124.57600000000001,122.92003636595604L125.02933333333334,119.41419639524307L125.05955555555556,128.2846765010318L125.27111111111111,128.90739249520067L125.42222222222223,119.91766270852767L125.57333333333334,125.89746219770974L125.69422222222221,102.20053062438801L125.75466666666667,105.93917256695786L126.23822222222222,115.83464955833922L126.57066666666667,127.33172120437585L126.78222222222222,127.00183387696654L126.81244444444444,134.3314581979167L127.024,123.5451214507815L127.11466666666666,122.51958942557384L127.83999999999999,135.05156813776074L127.93066666666667,135.6060961851129L128.14222222222222,142.38893181920514L128.23288888888888,123.57417979230478L128.2631111111111,121.08871185841728L128.32355555555557,133.81204232185056L128.3537777777778,132.69949081477338L128.95822222222222,128.14478211961278L129.10933333333332,132.59891807652767L129.38133333333334,113.38514539967332L129.44177777777776,120.01306409119917L129.50222222222223,127.44249477842492L130.10666666666665,137.47099917787594L130.34844444444445,123.17474747011319L130.77155555555555,118.17491119432857L130.80177777777777,122.10688486209843L130.95288888888888,129.5309192142992L131.10399999999998,136.77725932099784L131.31555555555553,113.86311965302791L131.67822222222222,127.57288041439494L132.192,119.86483562936772L132.25244444444445,121.45509022870468L132.3128888888889,122.50813986641307L132.40355555555556,140.0186316306889L132.55466666666666,116.21514051427583L133.06844444444445,130.3025436715492L133.21955555555556,127.89108393374049L133.88444444444445,136.74580329356937L133.97511111111112,120.29771066383672L134.12622222222222,129.09056715346495L134.33777777777777,128.73447517602773L134.45866666666666,131.14870707677426L134.51911111111113,136.97677889500886L134.70044444444446,124.66019305607576L134.73066666666668,122.03535838054444L134.912,128.06466505688238L135.12355555555555,131.02435368498107L135.30488888888888,135.00876528825046L135.39555555555555,139.62781278715795L135.90933333333334,126.0637959846291L135.96977777777778,135.6892734617764L136.272,111.21751436297741L136.36266666666666,105.27146381389457L136.4231111111111,85.67792404358687L136.5742222222222,113.32394196532087L137.0577777777778,107.42859032289762L137.11822222222222,89.03349886430675L137.29955555555554,115.2945414293269L137.42044444444446,118.64864210536834L137.4808888888889,133.4240591302559L137.904,116.43461892966984L138.41777777777776,124.54081797748965L138.78044444444444,132.23365501084592L138.992,127.36010704775425L139.0222222222222,127.95610844439983L139.56622222222222,120.84740421382618L139.62666666666667,131.77731187041846L139.6871111111111,122.32697416056371L139.77777777777777,118.32704507705505L139.86844444444446,66.84598416582052L140.38222222222223,94.04559224458006L140.71466666666666,95.69557772302653L140.7448888888889,98.92899732552952L140.9262222222222,94.2335535776112L141.13777777777776,104.13147031443846L141.8631111111111,109.76041167654543L142.04444444444445,115.44070586966242L142.1048888888889,102.5720135908871L142.73955555555557,108.67854456382858L142.8302222222222,122.21756651056245L142.95111111111112,126.41301545106262L142.9813333333333,133.69688699093908L143.01155555555556,93.76722487222479L143.1928888888889,105.60076858220722L143.28355555555555,120.93263140008074L143.344,134.818089439866L143.616,132.1146665863292L143.82755555555556,118.66294344122646L144.22044444444447,125.67460044025358L144.34133333333332,131.5120290335526L144.4622222222222,130.71659458974062L144.8551111111111,129.24183954945073L144.91555555555556,133.0689415446827L145.00622222222222,131.3030115790313L145.3688888888889,129.93819569170492L145.48977777777776,128.56987526956635L145.64088888888887,135.1152150874513L145.7013333333333,120.98565267253129L146.00355555555555,132.96338173244465L146.06400000000002,131.00904135147036L146.12444444444446,94.0302161401298L146.5173333333333,112.21426357014269L147.00088888888888,112.69709614028507L147.15200000000002,127.96133658014861L147.36355555555556,133.82503851572264L148.11911111111112,128.1262070470513L148.14933333333332,129.2816693436608L148.17955555555557,124.39116456815631L148.39111111111112,135.77323440395358L148.69333333333333,137.3191019448024L148.93511111111113,122.56708702927553L149.14666666666668,128.75556966441022L149.26755555555556,111.56630010046281L149.60000000000002,130.3090427998679L149.78133333333332,133.8077814577975L149.96266666666668,124.88732822956958L150.62755555555557,115.92666160171052L150.96,129.79626857360236L151.11111111111111,136.0676541786877L151.26222222222222,124.94551262881427L151.3831111111111,132.55031480396005L151.41333333333333,135.44027015995084L151.7457777777778,125.9739332114098L151.776,136.59786871672583L152.10844444444444,133.21304440771374L152.1991111111111,137.27636869798715L152.41066666666666,144.521494221989L152.50133333333332,147.6095213384395L152.53155555555557,127.8100180492806L152.56177777777776,140.45997020399616L153.408,140.95087350229906L153.92177777777778,144.2476215683932L154.07288888888888,137.72996251297513L154.10311111111113,141.3803441214456L154.40533333333332,134.37858948890872L156.15822222222224,131.0401107332464L156.61155555555558,141.8658999837253L156.944,127.1524264885502L156.97422222222224,116.12574732741813L157.03466666666668,106.23212298928648L157.09511111111112,121.95573636485223L157.1857777777778,119.25802352781942L157.21599999999998,118.34945267548812L157.27644444444445,111.93294270956054L157.97155555555554,123.84894211025302L158.12266666666667,138.92910893007587L158.21333333333334,137.02141665451126L158.45511111111114,120.89026772399184L158.78755555555554,134.79785479472028L159.05955555555553,120.47915298049931L159.15022222222223,128.863217260273L159.18044444444445,138.89060436834794L159.45244444444444,145.3662099123421L159.6337777777778,156.9076542169959L160.11733333333333,160.27245674795572L160.2986666666667,149.73471994218372L160.41955555555555,150.67888026332855L160.69155555555554,122.44777261041912L160.75199999999998,117.64807459606716L161.024,123.62697964077162L161.1448888888889,127.36717707613091L161.32622222222224,119.51762628461029L161.47733333333335,131.5082099653446L161.93066666666667,101.62305514744475L162.14222222222224,123.00243307617805L162.2631111111111,132.02903221187634L162.5351111111111,134.8839566221948L162.98844444444444,137.64981820734747L163.2,133.55762155896159L163.38133333333334,111.71109630067016L163.50222222222223,119.86590384227215L163.53244444444445,137.66996905077804L164.10666666666668,139.75017583888356L164.1368888888889,142.6090686045809L164.19733333333335,141.78482337388877L164.37866666666665,126.45201599355629L164.46933333333334,136.6415305838352L165.28533333333334,144.98410215154342L165.46666666666664,138.3905721078816L165.58755555555555,146.37105718504972L165.67822222222225,121.2673386495123L165.92,131.93389198716767L165.98044444444446,120.79667173347644L166.49422222222225,134.2525858280083L166.52444444444444,140.71651749422844L167.09866666666665,137.2627756257354L167.1288888888889,152.44332581772542L167.21955555555556,151.10173814816048L167.4311111111111,150.10575163812243L167.49155555555555,159.58320908985448L167.73333333333335,143.8642803300222L167.7937777777778,122.15022636721478L167.824,132.95803322527206L168.27733333333333,133.45432949145675L168.57955555555554,119.99631312622368L168.6702222222222,130.38864997619916L169.00266666666664,140.26688259428033L169.09333333333333,145.38899861326988L169.1537777777778,149.12845805701036L169.21422222222222,152.9945881621454L169.5768888888889,144.85898300064375L170.09066666666666,151.98727407657196L170.544,155.89704953961854L170.72533333333334,148.6045576975456L170.9368888888889,149.1284972950389L171.17866666666666,145.9086844910212L171.29955555555554,155.26291232724864L171.51111111111112,152.81551260772702L171.54133333333334,139.51824074571772L171.57155555555556,123.1480266120588L171.8737777777778,132.39753207535304L172.50844444444445,98.71245285340322L172.65955555555556,120.43874015576262L172.81066666666666,128.85638072079107L173.2942222222222,106.34914915042248L173.44533333333334,123.00478485987857L173.62666666666667,131.32349353719093L173.74755555555555,125.80445112826001L173.77777777777777,133.9814364708245L174.01955555555554,131.6388085891303L174.1102222222222,131.51246108384194L174.14044444444446,130.58214945145917L174.2008888888889,136.5984033685406L174.29155555555556,138.5669487645827L174.56355555555555,139.71982408178036L174.65422222222222,132.2911228216421L174.68444444444447,133.17686463711192L174.7448888888889,133.526862373712L174.80533333333335,144.3742433271524L174.89600000000002,117.25676710922393L174.9262222222222,121.88218380777505L175.10755555555556,121.47260574986191L175.2888888888889,131.26032611423526L175.34933333333333,140.1360245575705L175.44,147.23075803187396L176.04444444444445,148.29392994682138L176.1048888888889,142.06931051925338L176.49777777777777,147.2996204352452L176.86044444444445,136.5228337559744L177.43466666666666,139.13045937500266L177.4951111111111,148.07561781983125L177.97866666666667,154.61174219068786L178.06933333333333,151.47205467438553L178.12977777777778,153.12347968979475L178.16,149.03882566175L178.73422222222223,152.25151264119825L179.45955555555557,159.92030079547064L179.5502222222222,152.0975794874638L179.9431111111111,143.48045367497264L180.18488888888888,139.50547768515042L180.42666666666668,135.24734732840048L180.45688888888887,145.62634682087824L180.54755555555556,152.9141976577904L180.608,150.85202932528142L180.63822222222223,148.19313685655627L181.06133333333332,143.54589297594362L181.30311111111112,144.14977019305923L181.96800000000002,129.22037704410832L182.14933333333332,113.10744213833024L182.24,125.41928500483314L182.45155555555556,127.68799984953162L182.84444444444446,134.15383090590535L182.90488888888888,140.40700239122398L182.93511111111113,149.94563443938614L183.14666666666668,127.36820263211901L183.69066666666666,135.20526442341708L184.17422222222223,120.79558507535195L184.38577777777778,128.35386801066852L184.53688888888888,132.3667342493534L184.5671111111111,141.86929708214487L184.74844444444443,139.71860075034687L185.14133333333334,138.24739870025934L185.20177777777778,127.38919567053621L185.3831111111111,110.40732382782507L186.1688888888889,121.61284654935551L186.32000000000002,110.4586283642926L186.71288888888887,104.43230623136373L186.83377777777778,121.45178611015666L187.37777777777777,132.74991118613968L187.61955555555556,138.25178881877545L188.31466666666668,151.51751475228343L188.40533333333332,141.90574873247687L188.43555555555557,136.90570829877905L188.55644444444442,149.29713022026638L188.58666666666667,143.5546791478502L188.70755555555556,144.58332221568952L189.25155555555557,131.02132161858196L189.37244444444443,132.61395988704274L190.06755555555557,100.80252902583614L190.46044444444445,112.03819222121098L190.944,132.41738247878263L191.27644444444445,144.3274111305376L191.76,142.41185219358462L191.85066666666668,94.7294364919811L192.18311111111112,115.21374630122395L192.21333333333334,139.9214983346829L192.304,125.83890279479864L192.8177777777778,134.52646932809378L192.93866666666668,105.36309099594337L193.54311111111113,118.94928870609579L193.60355555555554,122.11530499635273L194.02666666666667,128.47658869440806L194.17777777777778,145.39313708008032L194.60088888888887,150.44651212166457L194.6311111111111,153.1507640950126L194.69155555555554,148.12273136467337L194.84266666666667,146.1948989747543L195.6888888888889,136.93184600242589L195.9608888888889,132.31533819758917L196.17244444444444,138.8547671626876L196.29333333333335,133.497380705698L196.47466666666668,133.9678881904198L196.656,140.548343740063L196.8071111111111,143.07168356819662L196.89777777777778,148.67619875303848L196.95822222222222,136.94563766430414L197.41155555555554,126.09739919455915L197.68355555555556,134.71552176276657L197.92533333333333,138.9966985268241L198.22755555555554,136.67223714062078L198.4391111111111,143.982543092012L198.59022222222222,148.14633372913747L198.65066666666667,144.64399645706297L198.74133333333333,139.2937293409126L199.01333333333335,140.76815125356163L199.0737777777778,120.64620567310735L199.2551111111111,141.97402281645552L199.61777777777777,117.27191183702034L199.76888888888888,109.56279339803217L200.0711111111111,129.7603099081267L200.37333333333333,137.03447559844975L200.43377777777778,124.36709486382406L200.8871111111111,134.15484436287232L201.21955555555556,132.8536281990462L201.28,116.45035191307899L201.4008888888889,127.30719580779164L201.76355555555554,129.1899386079889L201.85422222222223,130.40944024854446L202.88177777777778,136.36242275283576L203.09333333333333,143.77887196704395L203.184,133.29159953215512L203.30488888888888,139.64955634571103L203.728,140.0460905678604L204.06044444444444,141.25691387596078L204.272,139.43773780277493L204.48355555555554,144.47080972371603L204.78577777777778,148.46261594129183L204.87644444444445,154.5865022591421L205.02755555555555,146.32426504885882L205.17866666666666,134.80370908479188L205.36,138.50589786129515L205.72266666666667,139.71013441349885L205.7528888888889,139.28796203192707L206.26666666666665,136.47562799351255L206.35733333333334,133.53670841836748L206.5688888888889,130.29762579431423L206.93155555555555,143.0694102610963L207.3848888888889,131.2460598499496L207.44533333333334,139.61032506616147L207.6568888888889,137.4030955770515L207.9591111111111,139.18250946634424L208.2008888888889,145.2904315088765L208.26133333333334,147.69134704778904L208.32177777777775,152.4895969489406L208.4728888888889,133.2919142536975L208.7448888888889,141.81692816911936L209.04711111111112,152.08691923847505L209.07733333333334,150.04365588530044L209.37955555555556,147.2244843237136L209.50044444444444,147.07806512243184L209.53066666666666,150.57657437127526L210.1048888888889,150.57099142092625L210.256,138.87108135302333L210.31644444444444,143.95981519439925L210.34666666666666,143.4090789600217L210.43733333333333,146.89660235224474L210.70933333333332,153.3916530096941L211.25333333333333,162.026431184078L211.85777777777776,124.88608422172524L212.0088888888889,136.98096960616724L212.2808888888889,140.7539722245321L212.4622222222222,140.25638350120357L212.49244444444446,141.01785323440873L212.52266666666665,147.9475471138434L212.61333333333332,152.3861093224486L212.704,155.38296487935781L213.1271111111111,120.88071007478133L213.3688888888889,130.48910946048608L213.88266666666667,142.3527861193088L213.9128888888889,142.54502396998126L214.03377777777777,134.02697614305464L214.18488888888888,128.1655769793585L214.39644444444446,142.38778714570628L214.66844444444445,153.8197049597609L214.7288888888889,156.0789875464606L215.0311111111111,90.03323135323845L215.21244444444446,116.9123139848306L215.27288888888887,130.04068731657063L215.45422222222223,131.0590915660686L215.51466666666667,144.20284288835856L215.5751111111111,135.91234566142418L215.93777777777777,154.23973946195994L215.9982222222222,150.940446343554L216.05866666666668,147.07511541040714L216.30044444444445,150.51248435424384L216.75377777777777,151.35999735911088L216.87466666666666,145.05102424028584L217.02577777777776,153.41064306618614L217.11644444444445,150.12906859572692L217.60000000000002,155.8515652620722L217.90222222222224,151.0458203590555L217.93244444444443,152.00152749041575L217.99288888888887,159.56992037938238L218.17422222222223,142.91285362151982L218.20444444444442,141.03036285822225L218.35555555555555,139.57614182718518L218.5671111111111,146.95433324321291L218.7182222222222,140.37054711768394L218.9297777777778,134.6437123854889L219.11111111111111,137.30995057548398L219.50400000000002,139.21918009151494L219.71555555555557,122.28233682513776L220.28977777777777,132.05834165965132L220.89422222222223,135.4248772879007L220.9848888888889,134.23815643733684L221.10577777777777,145.03747424365932L221.136,142.64514724541817L221.34755555555557,140.04084678454382L221.86133333333333,146.6114207214477L222.19377777777777,149.14712182065875L222.52622222222223,143.12071000820163L222.73777777777778,153.44784875341853L222.91911111111114,149.88116860338636L223.64444444444445,147.5309421263764L224.33955555555556,115.23390922119283L224.61155555555558,128.312356560733L225.06488888888887,142.4862864311374L225.09511111111112,147.73996838561857L225.30666666666667,154.9866144081739L225.42755555555553,157.91162372270236L225.82044444444443,151.3720534158375L225.85066666666668,136.3921101143393L226.1528888888889,145.18737910435055L226.27377777777778,149.65008492105193L226.51555555555555,154.668517943647L226.54577777777777,159.17921818792695L226.66666666666669,159.85290583925516L226.93866666666668,146.07910284033798L226.9688888888889,150.58751199281187L227.2711111111111,141.23016967726758L227.30133333333333,139.88029240069315L227.33155555555555,143.56516851823898L227.57333333333332,138.5729798579979L227.69422222222224,126.21843366566193L228.17777777777778,130.01346558604945L228.41955555555555,131.80753831686306L228.9031111111111,146.2359433722088L229.024,147.27649449162078L229.08444444444444,150.59406755138016L229.11466666666666,155.54298834833082L229.20533333333333,146.54929701756413L229.47733333333335,151.0393863166203L229.50755555555554,148.894070837445L229.77955555555553,157.08920895157786L229.87022222222222,146.9808322920882L230.17244444444444,155.09989589743432L230.32355555555554,142.7881000076433L231.1697777777778,107.8276634611649L231.41155555555554,128.44970953452366L231.68355555555556,131.83929633746357L231.744,135.69478954038337L231.86488888888888,137.48415177901236L232.04622222222224,138.4081582281228L232.1368888888889,145.7087652732019L232.34844444444445,148.75664752844054L232.4391111111111,155.76370078058034L232.59022222222222,158.6188883748369L232.6808888888889,153.6118747027177L232.7111111111111,151.5496914712038L232.92266666666666,149.98384307190457L233.04355555555554,141.7480330761439L233.16444444444446,143.61397537906822L233.46666666666664,126.93402759112544L233.4968888888889,105.45445302141002L233.85955555555554,123.18772426254922L233.98044444444446,126.51607408613104L234.192,139.83577997636027L234.3128888888889,144.7609060492333L234.64533333333333,142.60475610497608L235.008,143.92523649387792L235.49155555555555,137.10630731358924L236.1262222222222,103.91093993870152L236.2471111111111,125.72130581720738L236.70044444444446,145.4074028210031L236.85155555555556,134.97412181524984L236.9422222222222,132.1811746260097L237.12355555555555,145.64751489761892L237.24444444444444,144.02633482952115L237.36533333333335,157.61184972113745L237.6071111111111,157.3579281424664L237.78844444444445,162.22007130032165L237.81866666666664,161.59813348150055L237.8488888888889,160.62778900169528L238.33244444444443,155.96068276058125L238.544,149.71175225601317L238.60444444444445,167.02074492503922L238.78577777777778,164.03443004719534L239.02755555555555,149.98942780854432L239.11822222222222,135.1266382341171L239.2391111111111,150.50828362049455L239.29955555555554,158.83324350100975L239.54133333333334,155.8466426800622L239.7831111111111,141.96595977116087L239.8737777777778,144.07709311125893L240.2968888888889,151.1962061752145L240.41777777777776,142.31502201390992L240.65955555555556,137.26936499189404L240.75022222222222,134.85862123232013L240.93155555555555,140.45944904670247L241.44533333333334,136.26504270493638L241.47555555555556,137.12154406293593L241.536,148.3056942972886L242.08,135.43493222912235L242.2008888888889,137.5962138295519L242.29155555555556,150.3230709437169L242.7448888888889,159.21178427275132L242.83555555555554,154.1841357780804L242.95644444444446,159.3648019861593L243.168,153.25159451978462L243.22844444444445,157.86196015844973L243.5608888888889,145.63472319500076L243.7422222222222,138.97427486862028L244.1653333333333,145.6507030848069L244.52800000000002,156.7908557590742L244.73955555555557,151.69021727832973L244.9813333333333,156.5607196580936L245.2231111111111,147.46651612555118L245.25333333333333,147.2294984134997L245.40444444444447,151.35385067386932L245.52533333333332,140.08772220770337L245.91822222222223,138.81675744730978L246.0391111111111,137.59646792475772L246.4622222222222,124.46296672041993L246.8248888888889,135.99393600405153L246.8551111111111,138.64320376197463L247.06666666666666,149.6761431206633L247.30844444444446,142.5893791706697L247.48977777777776,128.92960938844809L247.67111111111112,138.80836831095908L247.88266666666667,147.86602435617928L247.9431111111111,128.46100360901443L248.21511111111113,139.08614271645803L248.27555555555557,150.95299634623137L248.30577777777776,154.11149283393218L248.88,148.74139492256978L248.97066666666666,143.88972023879185L249.24266666666668,155.67338573956735L249.63555555555556,155.5402509384238L249.96800000000002,146.72112575846216L250.05866666666668,147.0678071411517L250.36088888888887,136.32947753858963L250.48177777777778,146.72765188468082" style="fill: none;" fill="none"></path></g></g></g></g><g opacity="0.2"><g><g><g><path stroke="rgb(255, 112, 67)" stroke-width="2px" d="M35.60177777777778,-61.26786489146091L35.75288888888889,7.345841850553269L35.81333333333333,-31.18853098154064L36.47822222222222,-154.75455328396384L36.961777777777776,32.70374028171813L37.14311111111112,-66.50182112625662L37.29422222222222,-9.568801922457514L37.74755555555556,16.309233461107556L37.92888888888889,-36.80519161054063L38.080000000000005,-66.69438585213247L38.291555555555554,51.29648598602841L38.412444444444446,46.99318347658431L38.47288888888889,29.612871817180107L39.04711111111111,52.92674986805236L39.379555555555555,51.016486568110345L39.53066666666667,-12.405020398752985L39.59111111111111,47.97961352552688L39.83288888888889,3.320265267576521L40.19555555555556,17.23820101363322L40.467555555555556,5.240115123135748L40.70933333333333,14.16925279583253L41.19288888888889,80.77038912262236L41.31377777777777,12.624775324549026L41.616,-20.724407664367106L42.94577777777778,79.84486969879696L42.976,27.39445569685528L43.489777777777775,17.43796512910301L43.550222222222224,72.42231797320504L43.58044444444444,23.136604070663473L43.67111111111112,46.950744969504235L44.12444444444444,36.85115706069131L44.21511111111111,36.97879465988705L44.24533333333333,57.58640321663449L44.547555555555554,55.48654967546465L45.06133333333333,110.55022842543468L45.12177777777778,6.7312034368515405L45.75644444444444,62.631110233919976L45.847111111111104,65.79942897387915L46.08888888888889,89.421630356993L46.270222222222216,49.6070923805237L46.330666666666666,76.19129315444403L46.42133333333333,53.992259527955746L46.602666666666664,51.72719894136703L46.75377777777778,66.6439552647727L47.056,2.4510905402047576L47.23733333333333,108.84543191535134L47.53955555555556,45.188523854528164L47.72088888888889,-3.530484412397629L47.781333333333336,28.253475495747182L47.93244444444444,67.97491399730956L47.96266666666667,95.18752675397057L48.416,86.55968353578024L48.96,96.55364882094521L49.02044444444444,78.1317749449185L49.38311111111111,35.601513539041804L49.59466666666666,43.30980524846487L49.62488888888889,101.16586198125567L49.68533333333333,102.16663397209987L49.775999999999996,40.010268160275075L49.836444444444446,31.31550851038525L50.19911111111111,0.5473066908972914L50.410666666666664,35.16903862782888L50.501333333333335,-8.107685804367026L50.592,94.29190374272213L50.864,107.62701100962505L51.01511111111111,43.10471737384798L51.80088888888889,107.03781675440926L51.92177777777778,88.08085771969387L52.04266666666666,66.29686890329634L52.07288888888889,65.05451950005123L52.28444444444444,85.43011825425286L52.556444444444445,1.7550611325673033L52.67733333333333,-24.02220174244467L52.79822222222222,41.30562780584609L52.94933333333333,105.94205071244922L53.07022222222223,117.36073730673108L53.342222222222226,114.32486838953838L53.46311111111111,116.88059485810146L53.49333333333333,90.47450319358282L53.523555555555554,47.79996980939593L53.584,84.36133097750802L53.79555555555555,99.10568086590087L53.946666666666665,83.22892383166723L54.007111111111115,72.65015970809121L54.15822222222222,60.5043537105833L54.218666666666664,78.74476507731848L54.339555555555556,48.967388723577784L54.46044444444444,85.2483526127679L54.641777777777776,76.62193032673427L54.672000000000004,95.2813272220748L55.36711111111111,83.03465398720333L55.488,90.73112354108267L56.48533333333333,0.563524263245764L56.63644444444444,46.75706244366512L56.696888888888886,16.945034291063063L56.87822222222222,47.03852068526406L57.12,57.82752593074527L57.30133333333333,106.83928411347527L57.422222222222224,86.91254835469384L57.63377777777777,63.20029776436944L57.69422222222222,113.8550134897232L57.87555555555556,91.16935796397075L57.936,72.40752133301326L58.35911111111111,83.29987571069174L58.38933333333333,92.22323492595129L58.69155555555556,125.58004358410835L58.782222222222224,93.79507007769176L59.05422222222222,85.11279568501882L59.175111111111114,32.14874312707357L59.296,63.22695445162911L59.568,80.87114268541337L59.598222222222226,107.3174940943718L59.779555555555554,92.95590543746948L59.809777777777775,103.36434715986252L59.96088888888889,119.3666388137L60.32355555555555,108.08932549612865L60.504888888888885,56.170093825885246L60.595555555555556,88.20038653271538L60.867555555555555,62.01855585404806L60.958222222222226,84.92964700290136L61.2,72.94082559006554L61.562666666666665,110.8242409825325L61.77422222222223,90.28404144729888L62.16711111111111,80.08578400952477L62.34844444444444,82.5459669998714L62.43911111111112,92.2790870325906L62.49955555555555,96.792441206319L62.620444444444445,105.86024291174755L62.74133333333333,77.82545986345836L62.80177777777778,94.23841985634395L62.95288888888889,107.61079343727657L62.98311111111111,49.24844910417285L63.255111111111106,103.59880096571788L63.43644444444445,94.93880678926196L63.55733333333333,45.762315205165336L63.587555555555554,112.61044743231365L63.88977777777778,108.75595108100347L64.04088888888889,42.18323339734759L64.464,105.42721857343402L65.15911111111112,69.56374349764415L65.28,59.09531949247634L65.31022222222222,85.49968709264483L65.34044444444444,90.69237945761L65.88444444444444,112.10844157423291L66.24711111111111,83.28274874176299L66.27733333333333,127.90645054834229L66.45866666666667,81.73294751133238L66.67022222222222,87.18159712212426L67.456,102.15789997577667L67.51644444444445,128.38892332570893L67.81866666666666,74.1934057048389L68.1511111111111,77.9659047978265L68.24177777777777,120.86792942030091L68.33244444444445,88.54536991459985L68.9368888888889,92.01928379705974L69.11822222222223,114.47747650316784L69.32977777777778,110.22254252433777L69.5111111111111,107.42988035508566L69.81333333333333,53.82786715030672L69.99466666666667,111.55204243319378L70.08533333333332,16.467241116932502L70.41777777777777,-12.854735953467188L70.50844444444445,72.33480749811446L70.59911111111111,-1.094893021242914L70.62933333333334,73.12035563162395L71.17333333333333,47.93128288643703L72.08,113.97149203504834L72.17066666666666,147.59802203519004L72.26133333333333,106.36039208514352L72.29155555555556,127.19737698350635L72.95644444444444,17.312525238309615L73.31911111111111,37.80708443267007L73.37955555555556,103.49672119958062L73.50044444444444,117.26405708278928L73.62133333333334,116.8481976049287L73.74222222222222,96.14188162769591L74.49777777777778,58.413291003022884L74.528,116.78393357992172L74.86044444444444,75.29837938717434L75.10222222222221,89.72091656071801L75.22311111111111,105.78917735815048L75.28355555555555,114.53300653185163L75.58577777777778,106.77214033263073L75.79733333333334,126.17252492904663L76.25066666666666,75.2918809907777L76.37155555555556,121.54618770309858L77.09688888888888,90.43083321196694L77.1271111111111,86.41164135081429L77.61066666666666,119.92949845961162L77.6408888888889,145.07616111636162L77.91288888888889,97.9576624120985L78.09422222222221,23.200280777045677L78.21511111111111,-69.25554975441518L78.48711111111112,77.18660876580648L78.69866666666667,87.14414135047369L78.72888888888889,102.31109540803094L79.12177777777777,141.4815343107496L79.39377777777777,81.00950358595168L79.54488888888889,121.96397964869227L79.696,122.93605828285217L79.78666666666666,127.28496324164529L79.93777777777777,116.29697065693993L80.02844444444445,105.16819211414882L80.39111111111112,107.95769034113202L80.63288888888889,111.37404699836459L80.84444444444445,94.31465760299139L81.056,136.3357137611934L81.328,151.5982776071344L81.44888888888889,132.53851886732238L81.47911111111111,92.71186507599697L81.50933333333334,104.90100003140316L81.56977777777777,130.10240646771024L81.66044444444445,120.73869090420861L81.872,144.09783985359329L82.14399999999999,-27.363627910613975L82.44622222222222,70.84191933700018L82.56711111111112,76.97009659664971L82.62755555555555,102.74137261084148L82.71822222222222,97.30102124384472L82.86933333333333,69.21750969546181L82.96,86.65014954975673L82.99022222222223,63.533534773758504L83.02044444444445,122.52928329791341L83.59466666666667,128.00992282799314L83.86666666666667,90.56620068209514L84.048,106.93725264923916L84.25955555555555,121.65163034200668L84.28977777777777,100.76068791321346L84.56177777777778,65.38593771627971L84.77333333333333,119.7021303687777L85.136,120.06388075011117L85.408,107.56445210320611L85.5288888888889,137.94821599125862L85.8311111111111,55.00072349820819L85.952,97.75471540859768L86.1031111111111,108.44497534206936L86.224,58.09005735601699L86.61688888888888,101.18662653650557L86.70755555555556,90.98963846479144L86.88888888888889,99.61092644929886L86.9191111111111,102.20395712341582L86.94933333333333,75.12873903342657L87.97688888888888,122.77362679157939L88.15822222222222,110.12055748701096L88.672,128.51230760131563L88.73244444444445,128.20693033507894L88.79288888888888,80.88226384775979L88.97422222222222,49.91181601796832L89.06488888888889,66.53759375640325L89.12533333333333,75.00104459694454L89.21600000000001,-56.26273557118002L89.66933333333333,106.02692772660937L90.09244444444444,129.26479537997926L90.15288888888888,126.46636422617097L90.69688888888888,129.44559478759766L90.81777777777778,123.77261788078718L91.05955555555556,137.3389676468713L91.18044444444443,122.34133186510631L91.48266666666666,46.94375398329327L91.57333333333334,73.64327761105129L91.664,147.0756684286254L91.75466666666667,67.83147563253131L92.48,93.1380689399583L92.84266666666666,142.9558461521353L92.8728888888889,114.94886600971222L92.96355555555556,112.84010796036038L92.99377777777778,82.03268841334753L93.05422222222222,71.93480562312264L93.11466666666666,-11.323785756315475L93.23555555555556,86.10562940154757L93.35644444444443,105.37661444289346L93.50755555555556,33.55143051488061L93.568,113.90444298301425L94.02133333333333,93.83186274766922L95.04888888888888,106.4494561127254L95.16977777777778,89.70250127996718L95.23022222222222,93.48578051158361L95.38133333333334,110.36867118733272L95.65333333333334,76.05982851130624L95.89511111111112,100.82993467364993L96.01599999999999,86.18571313789913L96.31822222222222,73.50084337166378L96.37866666666666,149.97958958574705L96.43911111111112,44.03036941800799L96.46933333333334,51.68551826477053L96.59022222222222,123.5218896652971L96.68088888888889,-3.9099869728087984L96.92266666666667,108.25112230437145L97.04355555555556,36.0611756188529L97.46666666666667,123.33096374784198L97.648,108.48292370353427L97.79911111111112,63.79951432773046L97.82933333333334,1.2745397686958708L97.88977777777777,79.95763487475259L97.98044444444444,108.06124787671227L98.04088888888889,98.70706203154155L98.10133333333334,116.02430324895043L98.13155555555555,86.38106289080211L98.34311111111111,122.77136277300973L98.43377777777778,97.30948999949865L98.5848888888889,107.40314788477764L99.15911111111112,86.51336114747185L99.46133333333333,138.20858759965216L99.64266666666667,151.0563340825694L99.824,88.41208647830148L99.9448888888889,84.45202434062959L99.97511111111112,116.93010013444085L100.30755555555555,100.22906982898712L100.33777777777777,136.9709556911673L100.79111111111112,135.81728192738126L101.09333333333333,42.816116579941365L101.36533333333333,147.5188571682998L101.8791111111111,120.94183683821134L102.4231111111111,111.52779185771942L102.45333333333333,102.39733651706152L102.51377777777778,102.33600908517838L102.816,136.96324476599693L102.9368888888889,128.86746485744203L103.5111111111111,131.46379209416253L103.84355555555555,113.62090070758548L104.08533333333332,96.52735210316524L104.26666666666668,118.04778642313823L104.29688888888889,106.36412440027509L104.35733333333333,138.21112633177214L104.41777777777777,106.59531953505108L104.56888888888888,120.75676516124182L105.32444444444445,121.27082052401134L105.35466666666666,106.44199148246221L105.65688888888889,98.59528203521457L105.71733333333333,113.78044297013965L105.86844444444445,118.12296320710864L106.29155555555556,104.95046741621837L106.47288888888889,100.42119880233493L106.68444444444445,149.41325339249204L106.74488888888888,156.00968463506018L106.80533333333334,90.04977709906444L107.19822222222223,110.93100035190582L107.31911111111111,133.4979606781687L107.37955555555556,129.4291025016989L107.77244444444443,142.70957966361726L108.13511111111112,133.0456779726914L108.49777777777778,138.73698490432332L108.528,138.2957949425493L108.55822222222223,165.4165681174823L108.80000000000001,124.92416971921921L108.98133333333334,121.93203709380967L109.49511111111111,118.7916917715754L109.67644444444444,87.85665357112886L109.70666666666666,78.41109231540136L109.94844444444443,102.28114215816771L110.12977777777779,119.14474604810987L110.31111111111112,149.99377996155195L110.46222222222221,126.41539065326963L111.15733333333334,83.83363466603417L111.21777777777778,154.78305074146817L111.36888888888889,123.45048308798246L111.52,145.44343418734414L111.91288888888889,108.98924919537136L112.12444444444444,104.33232403653011L112.57777777777777,98.03534003666469L112.94044444444444,132.759672748191L113.03111111111112,114.08613284145083L113.21244444444444,93.33779516390392L113.45422222222221,147.92375652279173L113.48444444444445,58.698822583471035L113.54488888888889,131.97199321644646L113.8168888888889,127.51193347147533L114.512,146.18590913074357L114.54222222222222,81.01384216547014L114.57244444444444,134.5826055577823L114.78399999999999,58.09665048122408L115.11644444444444,121.83979965107781L115.1768888888889,135.87834411859512L115.53955555555555,109.04542337996621L115.56977777777777,120.62130296230316L115.66044444444445,91.53906556538173L115.7208888888889,114.21935944046292L115.75111111111111,116.30989166668483L116.62755555555555,84.97291912351336L116.99022222222223,103.88289266824722L117.02044444444445,46.679403764860986L117.29244444444444,91.1774478043829L117.47377777777777,110.1135854465621L117.56444444444445,113.18583022696633L117.74577777777777,117.27072599104473L117.86666666666667,106.42156795092993L118.38044444444445,80.57325846808297L118.44088888888889,133.4468829035759L118.4711111111111,122.27126096401896L118.50133333333332,145.27035517777716L118.83377777777778,109.38330210106716L119.37777777777778,134.59485399297307L119.89155555555556,71.16242479426522L120.1031111111111,123.31451882634845L120.13333333333333,148.45241906813214L120.224,93.25541899033956L120.82844444444444,72.59843777758736L120.97955555555555,112.3715603181294L121.04,83.16933940989632L121.10044444444445,133.17437653456415L121.16088888888888,108.13096828120098L121.22133333333333,136.77121052145958L121.34222222222223,132.60560581088066L121.37244444444445,141.3536314708846L121.70488888888889,150.86308730925833L121.79555555555555,125.86465629509517L122.03733333333334,131.93464164648736L122.128,114.00703428472791L122.4,143.95568032775606L122.85333333333332,132.48114162683487L122.97422222222222,114.13173529079982L123.03466666666667,147.54411186916488L123.488,77.23438997779574L123.88088888888889,128.889944004161L124.57600000000001,129.69995111652784L125.02933333333334,114.15543643917356L125.05955555555556,141.59039665971483L125.27111111111111,129.841466486454L125.42222222222223,106.43306802851815L125.57333333333334,134.86716143148286L125.69422222222221,66.65513326440539L125.75466666666667,111.54713548081264L126.23822222222222,130.67786504541124L126.57066666666667,144.57732867343086L126.78222222222222,126.50700288585254L126.81244444444444,145.325894679342L127.024,107.3656163300787L127.11466666666666,120.98129138776235L127.83999999999999,153.84953620604108L127.93066666666667,136.43788825614112L128.14222222222222,152.56318527034352L128.23288888888888,95.35205175195422L128.2631111111111,117.36050995758602L128.32355555555557,152.89703801700048L128.3537777777778,131.03066355415754L128.95822222222222,121.31271907687187L129.10933333333332,139.28012201189995L129.38133333333334,84.5644863843918L129.44177777777776,129.954942128488L129.50222222222223,138.5866408092635L130.10666666666665,152.51375577705247L130.34844444444445,101.73036990846907L130.77155555555555,110.67515678065166L130.80177777777777,128.0048453637532L130.95288888888888,140.6669707426003L131.10399999999998,147.64676948104585L131.31555555555553,79.49191015107293L131.67822222222222,148.13752155644553L132.192,108.3027684518269L132.25244444444445,123.84047212771007L132.3128888888889,124.0877143229757L132.40355555555556,166.2843692771026L132.55466666666666,80.5099038396563L133.06844444444445,151.43364840745926L133.21955555555556,124.27389432702746L133.88444444444445,150.02788233331273L133.97511111111112,95.62557171923775L134.12622222222222,142.2798518879073L134.33777777777777,128.20033720987183L134.45866666666666,134.77005492789405L134.51911111111113,145.71888662236077L134.70044444444446,106.18531429767609L134.73066666666668,118.09810636724744L134.912,137.10862507138933L135.12355555555555,135.46388662712914L135.30488888888888,140.98538269315446L135.39555555555555,146.5563840355192L135.90933333333334,105.71777078083583L135.96977777777778,150.12748967749732L136.272,74.50987571477891L136.36266666666666,96.35238799027034L136.4231111111111,56.2876143881253L136.5742222222222,154.7929688479219L137.0577777777778,98.58556285926275L137.11822222222222,61.4408616764205L137.29955555555554,154.68610527685712L137.42044444444446,123.67979311943054L137.4808888888889,155.58718466758728L137.904,90.95045862879073L138.41777777777776,136.70011654921942L138.78044444444444,143.7729105608804L138.992,120.04978510311672L139.0222222222222,128.85011053936822L139.56622222222222,110.1843478679657L139.62666666666667,148.1721733553069L139.6871111111111,108.15146759578161L139.77777777777777,112.32715145179205L139.86844444444446,-10.375607201031219L140.38222222222223,134.8450043627194L140.71466666666666,98.17055594069619L140.7448888888889,103.77912672928402L140.9262222222222,87.19038795573373L141.13777777777776,118.97834541967937L141.8631111111111,118.20382371970587L142.04444444444445,123.961147159338L142.1048888888889,83.26897517272405L142.73955555555557,117.83834102324077L142.8302222222222,142.52609943066324L142.95111111111112,132.70618886181288L142.9813333333333,144.62269430075372L143.01155555555556,33.8727316941534L143.1928888888889,123.35108414718084L143.28355555555555,143.930425626891L143.344,155.6462764995439L143.616,128.059532306024L143.82755555555556,98.48535872357235L144.22044444444447,136.19208593879426L144.34133333333332,140.26817192350114L144.4622222222222,129.52344292402267L144.8551111111111,127.02970698901586L144.91555555555556,138.80959453753064L145.00622222222222,128.6541166305542L145.3688888888889,127.89097186071534L145.48977777777776,126.51739463635855L145.64088888888887,144.93322481427873L145.7013333333333,99.7913090501513L146.00355555555555,150.92997532231468L146.06400000000002,128.07753078000886L146.12444444444446,38.56197832311904L146.5173333333333,139.49033471516202L147.00088888888888,113.42134499549866L147.15200000000002,150.85769723994392L147.36355555555556,142.62059141908372L148.11911111111112,119.57795984404427L148.14933333333332,131.01486278857504L148.17955555555557,117.0554074048996L148.39111111111112,152.84633915764945L148.69333333333333,139.63790325607573L148.93511111111113,100.43906465598516L149.14666666666668,138.0382936171123L149.26755555555556,85.78239575454168L149.60000000000002,158.4231568489756L149.78133333333332,139.0558894446918L149.96266666666668,111.50664838722774L150.62755555555557,102.48566165992193L150.96,150.6006790314402L151.11111111111111,145.4747325863157L151.26222222222222,108.26230030400414L151.3831111111111,143.95751806667874L151.41333333333333,139.77520319393705L151.7457777777778,111.7744277885982L151.776,152.53377197469985L152.10844444444444,128.13580794419562L152.1991111111111,143.37135513339723L152.41066666666666,155.3891825079918L152.50133333333332,152.2415620131152L152.53155555555557,98.11076311554228L152.56177777777776,159.4348984360695L153.408,141.68722844975335L153.92177777777778,149.19274366753442L154.07288888888888,127.953473929848L154.10311111111113,146.85591653415136L154.40533333333332,123.87595754010339L156.15822222222224,126.03239259975297L156.61155555555558,158.10458385944366L156.944,105.08221624578748L156.97422222222224,99.58572858572006L157.03466666666668,91.39168648208891L157.09511111111112,145.54115642820085L157.1857777777778,115.2114542722702L157.21599999999998,116.9865963969912L157.27644444444445,102.30817776066918L157.97155555555554,141.72294121129173L158.12266666666667,161.5493591598102L158.21333333333334,134.15987824116434L158.45511111111114,96.69354432821274L158.78755555555554,155.65923540081297L159.05955555555553,99.00110025916781L159.15022222222223,141.43931367993355L159.18044444444445,153.93168503046036L159.45244444444444,155.07961822833335L159.6337777777778,174.21982067397664L160.11733333333333,165.31966054439545L160.2986666666667,133.9281147335257L160.41955555555555,152.0951207450458L160.69155555555554,80.10111113105502L160.75199999999998,110.44852757453918L161.024,132.59533720782827L161.1448888888889,132.97747322916985L161.32622222222224,107.74330009732928L161.47733333333335,149.49408548644612L161.93066666666667,56.795322920594906L162.14222222222224,155.07149996927808L162.2631111111111,145.5689309154238L162.5351111111111,139.16634323767255L162.98844444444444,141.79861058507646L163.2,127.41932658638272L163.38133333333334,78.94130841323309L163.50222222222223,132.09811515467507L163.53244444444445,164.37606686353683L164.10666666666668,142.87048602104187L164.1368888888889,146.89740775312697L164.19733333333335,140.54845552785056L164.37866666666665,103.45280492305756L164.46933333333334,151.92580246925354L165.28533333333334,157.4979595031057L165.46666666666664,128.50027704238892L165.58755555555555,158.34178480080197L165.67822222222225,83.61176084620614L165.92,147.93372199365072L165.98044444444446,104.0908413529396L166.49422222222225,154.43645696980613L166.52444444444444,150.41241499355863L167.09866666666665,132.08216282299588L167.1288888888889,175.21415110571044L167.21955555555556,149.089356643813L167.4311111111111,148.6117718730654L167.49155555555555,173.79939526745252L167.73333333333335,120.28588719027383L167.7937777777778,89.57914542300362L167.824,149.169743512358L168.27733333333333,134.19877389073372L168.57955555555554,99.80928857837405L168.6702222222222,145.9771552511624L169.00266666666664,155.0842315214021L169.09333333333333,153.07217264175415L169.1537777777778,154.7376472226211L169.21422222222222,158.79378331984793L169.5768888888889,132.65557525839125L170.09066666666666,162.6797106904643L170.544,161.76171273418836L170.72533333333334,137.66581993443626L170.9368888888889,149.91440669127874L171.17866666666666,141.07896528499467L171.29955555555554,169.29425408158983L171.51111111111112,149.14441302844457L171.54133333333334,119.57233295270376L171.57155555555556,98.59270541157042L171.8737777777778,146.27179027029447L172.50844444444445,48.18483402047839L172.65955555555556,153.0281711093017L172.81066666666666,141.48284156833375L173.2942222222222,72.58830179486957L173.44533333333334,147.98823842406273L173.62666666666667,143.80155655315946L173.74755555555555,117.5258875148637L173.77777777777777,146.24691448467118L174.01955555555554,128.12486676658904L174.1102222222222,131.3229398259095L174.14044444444446,129.186682002885L174.2008888888889,145.6227842441627L174.29155555555556,141.51976685864585L174.56355555555555,141.44913705757688L174.65422222222222,121.14807093143463L174.68444444444447,134.5054773603167L174.7448888888889,134.05185897861207L174.80533333333335,160.64531475731306L174.89600000000002,76.5805527823312L174.9262222222222,128.82030885560172L175.10755555555556,120.8582386629922L175.2888888888889,145.9419066607952L175.34933333333333,153.4495722225734L175.44,157.87285824332918L176.04444444444445,149.88868781924248L176.1048888888889,132.73238137790136L176.49777777777777,155.145085309233L176.86044444444445,120.35765373706818L177.43466666666666,143.041897803545L177.4951111111111,161.49335548707418L177.97866666666667,164.41592874697278L178.06933333333333,146.76252339993204L178.12977777777778,155.60061721290862L178.16,142.91184461968285L178.73422222222223,157.07054311037064L179.45955555555557,171.42348302687918L179.5502222222222,140.36349752545357L179.9431111111111,130.55476495623589L180.18488888888888,133.5430137004171L180.42666666666668,128.86015179327558L180.45688888888887,161.19484605959485L180.54755555555556,163.8459739131587L180.608,147.75877682651793L180.63822222222223,144.20479815346854L181.06133333333332,136.57502715502466L181.30311111111112,145.0555860187326L181.96800000000002,106.826287320682L182.14933333333332,88.9380397796631L182.24,143.8870493045875L182.45155555555556,131.09107211657934L182.84444444444446,143.852577490466L182.90488888888888,149.78675961920194L182.93511111111113,164.2535825116294L183.14666666666668,93.50205492121835L183.69066666666666,146.9608571103641L184.17422222222223,99.18106605325427L184.38577777777778,139.69129241364342L184.53688888888888,138.38603360738074L184.5671111111111,156.12314133133208L184.74844444444443,136.49255625264985L185.14133333333334,136.04059562512808L185.20177777777778,111.1018911259515L185.3831111111111,84.93451606375832L186.1688888888889,138.4211306316512L186.32000000000002,93.72730108669826L186.71288888888887,95.39282303197045L186.83377777777778,146.9810059283461L187.37777777777777,149.69709880011422L187.61955555555556,146.5046052677291L188.31466666666668,171.4161036525454L188.40533333333332,127.48809970276696L188.43555555555557,129.40564764823233L188.55644444444442,167.88426310249739L188.58666666666667,134.941002539226L188.70755555555556,146.1262868174485L189.25155555555557,110.67832072292056L189.37244444444443,135.0029172897339L190.06755555555557,53.08538273402624L190.46044444444445,128.89168701427323L190.944,162.9861678651401L191.27644444444445,162.1924541081701L191.76,139.53851378815514L191.85066666666668,23.205812939575765L192.18311111111112,145.9402110150882L192.21333333333334,176.98312638487135L192.304,104.71500948497228L192.8177777777778,147.5578191280365L192.93866666666668,61.618023497717736L193.54311111111113,139.32858527132444L193.60355555555554,126.86432943173818L194.02666666666667,138.01851424149106L194.17777777777778,170.7679596585887L194.60088888888887,158.0265746840409L194.6311111111111,157.20714205503464L194.69155555555554,140.5806822691645L194.84266666666667,143.3031503898757L195.6888888888889,123.03726654393334L195.9608888888889,125.3905764903341L196.17244444444444,148.66391061033522L196.29333333333335,125.46130102021355L196.47466666666668,134.67364941750253L196.656,150.4190270645278L196.8071111111111,146.85669331039702L196.89777777777778,157.08297153030122L196.95822222222222,119.3497960312026L197.41155555555554,109.82504148994174L197.68355555555556,147.64270561507772L197.92533333333333,145.41846367291043L198.22755555555554,133.18554506131582L198.4391111111111,154.94800201909882L198.59022222222222,154.39201968482564L198.65066666666667,139.39049054895128L198.74133333333333,131.268328666687L199.01333333333335,142.97978412253516L199.0737777777778,90.46328730242595L199.2551111111111,173.9657485314778L199.61777777777777,80.21874536786761L199.76888888888888,97.99911573954992L200.0711111111111,160.05658467326845L200.37333333333333,147.9457241339343L200.43377777777778,105.3660237618855L200.8871111111111,148.83646861144476L201.21955555555556,130.90180395330702L201.28,91.84543748412814L201.4008888888889,143.59246164986067L201.76355555555554,132.01405280828476L201.85422222222223,132.23869270937783L202.88177777777778,145.2918965092727L203.09333333333333,154.90354578835624L203.184,117.56069087982178L203.30488888888888,149.18649156604494L203.728,140.64089190108436L204.06044444444444,143.07314883811134L204.272,136.70897369299615L204.48355555555554,152.02041760512762L204.78577777777778,154.4503252676555L204.87644444444445,163.7723317359175L205.02755555555555,133.93090923343385L205.17866666666666,117.52287513869152L205.36,144.05918102605003L205.72266666666667,141.5164892418044L205.7528888888889,138.6547034595694L206.26666666666665,132.25712693589074L206.35733333333334,129.12832905564989L206.5688888888889,125.4390018582344L206.93155555555555,162.22708696126938L207.3848888888889,113.5110342332295L207.44533333333334,152.15672289047922L207.6568888888889,134.09225134338652L207.9591111111111,141.85163030028343L208.2008888888889,154.45231457267488L208.26133333333334,151.29272035615784L208.32177777777775,159.6869718006679L208.4728888888889,104.49539021083288L208.7448888888889,154.60444904225213L209.04711111111112,167.4919058425086L209.07733333333334,146.9787608555385L209.37955555555556,142.99572698133332L209.50044444444444,146.85843632050924L209.53066666666666,155.82433824454034L210.1048888888889,150.56261699540275L210.256,121.32121625116893L210.31644444444444,151.59291595646314L210.34666666666666,142.5829746084554L210.43733333333333,152.1278874405793L210.70933333333332,163.13422899586814L211.25333333333333,174.97859844565392L211.85777777777776,69.17556377819606L212.0088888888889,155.12329768283027L212.2808888888889,146.41347615207945L212.4622222222222,139.51000041621072L212.49244444444446,142.16005783421653L212.52266666666665,158.34208793299538L212.61333333333332,159.04395263535636L212.704,159.87824821472168L213.1271111111111,69.12732786791665L213.3688888888889,144.90170853904317L213.88266666666667,160.14830110754286L213.9128888888889,142.83338074598993L214.03377777777777,121.24990440266473L214.18488888888888,119.37347823381424L214.39644444444446,163.72110239522797L214.66844444444445,170.9675816808428L214.7288888888889,159.46791142651014L215.0311111111111,-9.035402936594782L215.21244444444446,157.23093793221884L215.27288888888887,149.73324731418066L215.45422222222223,132.58669794031553L215.51466666666667,163.9184698717935L215.5751111111111,123.47659982102257L215.93777777777777,181.7308301627636L215.9982222222222,145.99150666594505L216.05866666666668,141.27711901068687L216.30044444444445,155.66853776999884L216.75377777777777,152.6312668664115L216.87466666666666,135.58756456204824L217.02577777777776,165.95007130503654L217.11644444444445,145.20670689003808L217.60000000000002,164.43531026159013L217.90222222222224,143.8372030045305L217.93244444444443,153.43508818745613L217.99288888888887,170.92250971283232L218.17422222222223,117.92725348472595L218.20444444444442,138.2066267132759L218.35555555555555,137.39481028062957L218.5671111111111,158.02162036725454L218.7182222222222,130.4948679293905L218.9297777777778,126.0534602871963L219.11111111111111,141.30930786047662L219.50400000000002,142.08302436556136L219.71555555555557,96.87707192557201L220.28977777777777,146.72234891142165L220.89422222222223,140.47468073027474L220.9848888888889,132.45807516149114L221.10577777777777,161.236450953143L221.136,139.0566567480564L221.34755555555557,136.13439609323228L221.86133333333333,156.46728162680353L222.19377777777777,152.95067346947533L222.52622222222223,134.0810922895159L222.73777777777778,168.9385568712439L222.91911111111114,144.53114837833814L223.64444444444445,144.00560241086143L224.33955555555556,66.7883598634175L224.61155555555558,147.9300275700433L225.06488888888887,163.74718123674393L225.09511111111112,155.6204913173403L225.30666666666667,165.8565834420068L225.42755555555553,162.29913769449507L225.82044444444443,141.56269795554024L225.85066666666668,113.92219516209194L226.1528888888889,158.38028258936745L226.27377777777778,156.344143646104L226.51555555555555,162.1961674775396L226.54577777777777,165.9452685543469L226.66666666666669,160.8634373162474L226.93866666666668,125.41839834196229L226.9688888888889,157.35012572152274L227.2711111111111,127.19415620395117L227.30133333333333,137.8554764858314L227.33155555555555,149.09248269455773L227.57333333333332,131.08469686763627L227.69422222222224,107.68661437715802L228.17777777777778,135.70601346663068L228.41955555555555,134.4986474130835L228.9031111111111,167.87855095522744L229.024,148.83732117073876L229.08444444444444,155.57042714101928L229.11466666666666,162.96636954375677L229.20533333333333,133.0587600214141L229.47733333333335,157.77452026520456L229.50755555555554,145.67609761868204L229.77955555555553,169.3819161227771L229.87022222222222,131.8182673028537L230.17244444444444,167.27849130545343L230.32355555555554,124.32040617295675L231.1697777777778,55.38700864144735L231.41155555555554,159.38277864456177L231.68355555555556,136.9236765418734L231.744,141.4780293447631L231.86488888888888,140.1681951369558L232.04622222222224,139.79416790178846L232.1368888888889,156.6596758408206L232.34844444444445,153.3284709112985L232.4391111111111,166.27428065879005L232.59022222222222,162.90166976622174L232.6808888888889,146.10135419453894L232.7111111111111,148.45641662393297L232.92266666666666,147.6350704729557L233.04355555555554,129.3943180825029L233.16444444444446,146.41288883345467L233.46666666666664,101.9141059092113L233.4968888888889,73.23509116683688L233.85955555555554,149.78763112425804L233.98044444444446,131.50859882150377L234.192,159.8153388117041L234.3128888888889,152.14859515854292L234.64533333333333,139.37053118859018L235.008,145.90595707723074L235.49155555555555,126.87791354315621L236.1262222222222,54.117888876370046L236.2471111111111,158.43685463496618L236.70044444444446,174.93654832669668L236.85155555555556,119.32420030661993L236.9422222222222,127.99175384214946L237.12355555555555,165.84702530503273L237.24444444444444,141.5945647273745L237.36533333333335,177.99012205856187L237.6071111111111,156.97704577445984L237.78844444444445,169.51328603710448L237.81866666666664,160.66522675326894L237.8488888888889,159.17227228198732L238.33244444444443,148.96002339891027L238.544,140.33835649916105L238.60444444444445,192.98423392857825L238.78577777777778,159.55495773042952L239.02755555555555,128.9219244505678L239.11822222222222,112.83245387247631L239.2391111111111,173.58075170006072L239.29955555555554,171.32068332178252L239.54133333333334,151.36674144864082L239.7831111111111,121.14493540780884L239.8737777777778,147.24379312140601L240.2968888888889,161.87487577114786L240.41777777777776,128.99324577195304L240.65955555555556,129.70087945887022L240.75022222222222,131.24250559295928L240.93155555555555,148.86069076827596L241.44533333333334,129.9734331922872L241.47555555555556,138.40629609993528L241.536,165.0819196488176L242.08,116.12878912687302L242.2008888888889,140.83813623019628L242.29155555555556,169.41335661496436L242.7448888888889,172.54485426630293L242.83555555555554,146.64266303607397L242.95644444444446,167.13580129827773L243.168,144.0817833202226L243.22844444444445,164.77750861644745L243.5608888888889,127.29386774982724L243.7422222222222,128.9836023790496L244.1653333333333,155.66534540908677L244.52800000000002,173.50108477047513L244.73955555555557,144.03925955721311L244.9813333333333,163.86647322773933L245.2231111111111,133.82521082673753L245.25333333333333,146.8739718454225L245.40444444444447,157.5403790644237L245.52533333333332,123.18852950845447L245.91822222222223,136.91031030671937L246.0391111111111,135.76603364092963L246.4622222222222,104.7627149139132L246.8248888888889,153.29038992949896L246.8551111111111,142.6171053988593L247.06666666666666,166.2255521586963L247.30844444444446,131.95923324567931L247.48977777777776,108.43995471511569L247.67111111111112,153.62650669472558L247.88266666666667,161.4525084240096L247.9431111111111,99.35347248826709L248.21511111111113,155.02385137762343L248.27555555555557,168.7532767908914L248.30577777777776,158.84923756548338L248.88,140.6862480555262L248.97066666666666,136.61220821312497L249.24266666666668,173.34888399073057L249.63555555555556,155.3405487367085L249.96800000000002,133.49243798851967L250.05866666666668,147.587829215186L250.36088888888887,120.22198313474655L250.48177777777778,162.3249134038176" style="fill: none;" fill="none"></path></g></g></g></g></g></g><g transform="translate(58, 178)" clip-path="url(#clip_1)"><clipPath id="clip_1"><rect width="271" height="21"></rect></clipPath><g><g><line x1="0" y1="0" x2="0" y2="5" style="visibility: inherit;" fill="rgb(0, 0, 0)" stroke="rgb(204, 204, 204)" stroke-width="1px"></line><line x1="30.22222222222222" y1="0" x2="30.22222222222222" y2="5" style="visibility: inherit;" fill="rgb(0, 0, 0)" stroke="rgb(204, 204, 204)" stroke-width="1px"></line><line x1="60.44444444444444" y1="0" x2="60.44444444444444" y2="5" style="visibility: inherit;" fill="rgb(0, 0, 0)" stroke="rgb(204, 204, 204)" stroke-width="1px"></line><line x1="90.66666666666666" y1="0" x2="90.66666666666666" y2="5" style="visibility: inherit;" fill="rgb(0, 0, 0)" stroke="rgb(204, 204, 204)" stroke-width="1px"></line><line x1="120.88888888888889" y1="0" x2="120.88888888888889" y2="5" style="visibility: inherit;" fill="rgb(0, 0, 0)" stroke="rgb(204, 204, 204)" stroke-width="1px"></line><line x1="151.11111111111111" y1="0" x2="151.11111111111111" y2="5" style="visibility: inherit;" fill="rgb(0, 0, 0)" stroke="rgb(204, 204, 204)" stroke-width="1px"></line><line x1="181.33333333333331" y1="0" x2="181.33333333333331" y2="5" style="visibility: inherit;" fill="rgb(0, 0, 0)" stroke="rgb(204, 204, 204)" stroke-width="1px"></line><line x1="211.55555555555557" y1="0" x2="211.55555555555557" y2="5" style="visibility: inherit;" fill="rgb(0, 0, 0)" stroke="rgb(204, 204, 204)" stroke-width="1px"></line><line x1="241.77777777777777" y1="0" x2="241.77777777777777" y2="5" style="visibility: inherit;" fill="rgb(0, 0, 0)" stroke="rgb(204, 204, 204)" stroke-width="1px"></line><line x1="272" y1="0" x2="272" y2="5" style="visibility: inherit;" fill="rgb(0, 0, 0)" stroke="rgb(204, 204, 204)" stroke-width="1px"></line></g><g transform="translate(0, 8)"><text x="0" y="0" dx="0em" dy="0.95em" style="text-anchor: middle; visibility: hidden; font-family: Roboto, sans-serif; font-size: 12px; font-weight: 200;" fill="rgb(50, 49, 63)" stroke="none" stroke-width="1px">-1k</text><text x="30.22222222222222" y="0" dx="0em" dy="0.95em" style="text-anchor: middle; visibility: inherit; font-family: Roboto, sans-serif; font-size: 12px; font-weight: 200;" fill="rgb(50, 49, 63)" stroke="none" stroke-width="1px">0</text><text x="60.44444444444444" y="0" dx="0em" dy="0.95em" style="text-anchor: middle; visibility: inherit; font-family: Roboto, sans-serif; font-size: 12px; font-weight: 200;" fill="rgb(50, 49, 63)" stroke="none" stroke-width="1px">1k</text><text x="90.66666666666666" y="0" dx="0em" dy="0.95em" style="text-anchor: middle; visibility: inherit; font-family: Roboto, sans-serif; font-size: 12px; font-weight: 200;" fill="rgb(50, 49, 63)" stroke="none" stroke-width="1px">2k</text><text x="120.88888888888889" y="0" dx="0em" dy="0.95em" style="text-anchor: middle; visibility: inherit; font-family: Roboto, sans-serif; font-size: 12px; font-weight: 200;" fill="rgb(50, 49, 63)" stroke="none" stroke-width="1px">3k</text><text x="151.11111111111111" y="0" dx="0em" dy="0.95em" style="text-anchor: middle; visibility: inherit; font-family: Roboto, sans-serif; font-size: 12px; font-weight: 200;" fill="rgb(50, 49, 63)" stroke="none" stroke-width="1px">4k</text><text x="181.33333333333331" y="0" dx="0em" dy="0.95em" style="text-anchor: middle; visibility: inherit; font-family: Roboto, sans-serif; font-size: 12px; font-weight: 200;" fill="rgb(50, 49, 63)" stroke="none" stroke-width="1px">5k</text><text x="211.55555555555557" y="0" dx="0em" dy="0.95em" style="text-anchor: middle; visibility: inherit; font-family: Roboto, sans-serif; font-size: 12px; font-weight: 200;" fill="rgb(50, 49, 63)" stroke="none" stroke-width="1px">6k</text><text x="241.77777777777777" y="0" dx="0em" dy="0.95em" style="text-anchor: middle; visibility: inherit; font-family: Roboto, sans-serif; font-size: 12px; font-weight: 200;" fill="rgb(50, 49, 63)" stroke="none" stroke-width="1px">7k</text><text x="272" y="0" dx="0em" dy="0.95em" style="text-anchor: middle; visibility: hidden; font-family: Roboto, sans-serif; font-size: 12px; font-weight: 200;" fill="rgb(50, 49, 63)" stroke="none" stroke-width="1px">8k</text></g><line x1="0" y1="0" x2="272" y2="0" fill="rgb(0, 0, 0)" stroke="rgb(204, 204, 204)" stroke-width="1px"></line></g></g></g></g></svg>