<svg viewBox="0 0 330.0000305175781 200.00001525878906" xmlns="http://www.w3.org/2000/svg"><g><g><g><g><g><line x1="70" y1="178" x2="65" y2="178" style="visibility: inherit;" fill="rgb(0, 0, 0)" stroke="rgb(204, 204, 204)" stroke-width="1px"></line><line x1="70" y1="158.2222222222222" x2="65" y2="158.2222222222222" style="visibility: inherit;" fill="rgb(0, 0, 0)" stroke="rgb(204, 204, 204)" stroke-width="1px"></line><line x1="70" y1="138.44444444444446" x2="65" y2="138.44444444444446" style="visibility: inherit;" fill="rgb(0, 0, 0)" stroke="rgb(204, 204, 204)" stroke-width="1px"></line><line x1="70" y1="118.66666666666666" x2="65" y2="118.66666666666666" style="visibility: inherit;" fill="rgb(0, 0, 0)" stroke="rgb(204, 204, 204)" stroke-width="1px"></line><line x1="70" y1="98.8888888888889" x2="65" y2="98.8888888888889" style="visibility: inherit;" fill="rgb(0, 0, 0)" stroke="rgb(204, 204, 204)" stroke-width="1px"></line><line x1="70" y1="79.1111111111111" x2="65" y2="79.1111111111111" style="visibility: inherit;" fill="rgb(0, 0, 0)" stroke="rgb(204, 204, 204)" stroke-width="1px"></line><line x1="70" y1="59.33333333333334" x2="65" y2="59.33333333333334" style="visibility: inherit;" fill="rgb(0, 0, 0)" stroke="rgb(204, 204, 204)" stroke-width="1px"></line><line x1="70" y1="39.55555555555557" x2="65" y2="39.55555555555557" style="visibility: inherit;" fill="rgb(0, 0, 0)" stroke="rgb(204, 204, 204)" stroke-width="1px"></line><line x1="70" y1="19.777777777777786" x2="65" y2="19.777777777777786" style="visibility: inherit;" fill="rgb(0, 0, 0)" stroke="rgb(204, 204, 204)" stroke-width="1px"></line><line x1="70" y1="0" x2="65" y2="0" style="visibility: inherit;" fill="rgb(0, 0, 0)" stroke="rgb(204, 204, 204)" stroke-width="1px"></line></g><g transform="translate(60, 0)"><text x="0" y="178" dx="0em" dy="0.3em" style="text-anchor: end; visibility: hidden; font-family: Roboto, sans-serif; font-size: 12px; font-weight: 200;" fill="rgb(50, 49, 63)" stroke="none" stroke-width="1px">-0.05</text><text x="0" y="158.2222222222222" dx="0em" dy="0.3em" style="text-anchor: end; visibility: inherit; font-family: Roboto, sans-serif; font-size: 12px; font-weight: 200;" fill="rgb(50, 49, 63)" stroke="none" stroke-width="1px">0</text><text x="0" y="138.44444444444446" dx="0em" dy="0.3em" style="text-anchor: end; visibility: hidden; font-family: Roboto, sans-serif; font-size: 12px; font-weight: 200;" fill="rgb(50, 49, 63)" stroke="none" stroke-width="1px">0.05</text><text x="0" y="118.66666666666666" dx="0em" dy="0.3em" style="text-anchor: end; visibility: inherit; font-family: Roboto, sans-serif; font-size: 12px; font-weight: 200;" fill="rgb(50, 49, 63)" stroke="none" stroke-width="1px">0.1</text><text x="0" y="98.8888888888889" dx="0em" dy="0.3em" style="text-anchor: end; visibility: hidden; font-family: Roboto, sans-serif; font-size: 12px; font-weight: 200;" fill="rgb(50, 49, 63)" stroke="none" stroke-width="1px">0.15</text><text x="0" y="79.1111111111111" dx="0em" dy="0.3em" style="text-anchor: end; visibility: inherit; font-family: Roboto, sans-serif; font-size: 12px; font-weight: 200;" fill="rgb(50, 49, 63)" stroke="none" stroke-width="1px">0.2</text><text x="0" y="59.33333333333334" dx="0em" dy="0.3em" style="text-anchor: end; visibility: hidden; font-family: Roboto, sans-serif; font-size: 12px; font-weight: 200;" fill="rgb(50, 49, 63)" stroke="none" stroke-width="1px">0.25</text><text x="0" y="39.55555555555557" dx="0em" dy="0.3em" style="text-anchor: end; visibility: inherit; font-family: Roboto, sans-serif; font-size: 12px; font-weight: 200;" fill="rgb(50, 49, 63)" stroke="none" stroke-width="1px">0.3</text><text x="0" y="19.777777777777786" dx="0em" dy="0.3em" style="text-anchor: end; visibility: hidden; font-family: Roboto, sans-serif; font-size: 12px; font-weight: 200;" fill="rgb(50, 49, 63)" stroke="none" stroke-width="1px">0.35</text><text x="0" y="0" dx="0em" dy="0.3em" style="text-anchor: end; visibility: hidden; font-family: Roboto, sans-serif; font-size: 12px; font-weight: 200;" fill="rgb(50, 49, 63)" stroke="none" stroke-width="1px">0.4</text></g><line x1="70" y1="0" x2="70" y2="178" fill="rgb(0, 0, 0)" stroke="rgb(204, 204, 204)" stroke-width="1px"></line></g></g><g transform="translate(70, 0)" clip-path="url(#clip_0)"><clipPath id="clip_0"><rect width="260" height="177"></rect></clipPath><g><g><g><line x1="0" y1="0" x2="0" y2="178" fill="rgb(0, 0, 0)" stroke="rgb(60, 60, 60)" stroke-width="1px" opacity="0.25"></line><line x1="28.888888888888886" y1="0" x2="28.888888888888886" y2="178" fill="rgb(0, 0, 0)" stroke="rgb(60, 60, 60)" stroke-width="1px" opacity="0.25"></line><line x1="57.77777777777777" y1="0" x2="57.77777777777777" y2="178" fill="rgb(0, 0, 0)" stroke="rgb(60, 60, 60)" stroke-width="1px" opacity="0.25"></line><line x1="86.66666666666666" y1="0" x2="86.66666666666666" y2="178" fill="rgb(0, 0, 0)" stroke="rgb(60, 60, 60)" stroke-width="1px" opacity="0.25"></line><line x1="115.55555555555554" y1="0" x2="115.55555555555554" y2="178" fill="rgb(0, 0, 0)" stroke="rgb(60, 60, 60)" stroke-width="1px" opacity="0.25"></line><line x1="144.44444444444446" y1="0" x2="144.44444444444446" y2="178" fill="rgb(0, 0, 0)" stroke="rgb(60, 60, 60)" stroke-width="1px" opacity="0.25"></line><line x1="173.33333333333331" y1="0" x2="173.33333333333331" y2="178" fill="rgb(0, 0, 0)" stroke="rgb(60, 60, 60)" stroke-width="1px" opacity="0.25"></line><line x1="202.22222222222223" y1="0" x2="202.22222222222223" y2="178" fill="rgb(0, 0, 0)" stroke="rgb(60, 60, 60)" stroke-width="1px" opacity="0.25"></line><line x1="231.1111111111111" y1="0" x2="231.1111111111111" y2="178" fill="rgb(0, 0, 0)" stroke="rgb(60, 60, 60)" stroke-width="1px" opacity="0.25"></line><line x1="260" y1="0" x2="260" y2="178" fill="rgb(0, 0, 0)" stroke="rgb(60, 60, 60)" stroke-width="1px" opacity="0.25"></line></g><g><line x1="0" y1="178" x2="260" y2="178" fill="rgb(0, 0, 0)" stroke="rgb(60, 60, 60)" stroke-width="1px" opacity="0.25"></line><line x1="0" y1="158.2222222222222" x2="260" y2="158.2222222222222" fill="rgb(0, 0, 0)" stroke="rgb(60, 60, 60)" stroke-width="1px" opacity="0.25"></line><line x1="0" y1="138.44444444444446" x2="260" y2="138.44444444444446" fill="rgb(0, 0, 0)" stroke="rgb(60, 60, 60)" stroke-width="1px" opacity="0.25"></line><line x1="0" y1="118.66666666666666" x2="260" y2="118.66666666666666" fill="rgb(0, 0, 0)" stroke="rgb(60, 60, 60)" stroke-width="1px" opacity="0.25"></line><line x1="0" y1="98.8888888888889" x2="260" y2="98.8888888888889" fill="rgb(0, 0, 0)" stroke="rgb(60, 60, 60)" stroke-width="1px" opacity="0.25"></line><line x1="0" y1="79.1111111111111" x2="260" y2="79.1111111111111" fill="rgb(0, 0, 0)" stroke="rgb(60, 60, 60)" stroke-width="1px" opacity="0.25"></line><line x1="0" y1="59.33333333333334" x2="260" y2="59.33333333333334" fill="rgb(0, 0, 0)" stroke="rgb(60, 60, 60)" stroke-width="1px" opacity="0.25"></line><line x1="0" y1="39.55555555555557" x2="260" y2="39.55555555555557" fill="rgb(0, 0, 0)" stroke="rgb(60, 60, 60)" stroke-width="1px" opacity="0.25"></line><line x1="0" y1="19.777777777777786" x2="260" y2="19.777777777777786" fill="rgb(0, 0, 0)" stroke="rgb(60, 60, 60)" stroke-width="1px" opacity="0.25"></line><line x1="0" y1="0" x2="260" y2="0" fill="rgb(0, 0, 0)" stroke="rgb(60, 60, 60)" stroke-width="1px" opacity="0.25"></line></g></g></g><g><g><line x1="0" y1="158.2222222222222" x2="260" y2="158.2222222222222" fill="rgb(0, 0, 0)" stroke="rgb(153, 153, 153)" stroke-width="1.5px"></line></g></g><g><g><line x1="28.888888888888886" y1="0" x2="28.888888888888886" y2="178" fill="rgb(0, 0, 0)" stroke="rgb(153, 153, 153)" stroke-width="1.5px"></line></g></g><g><g><g><g><g><path stroke="rgb(255, 112, 67)" stroke-width="2px" d="M36.602222222222224,-0.5611240213659325L36.717777777777776,11.366031559446162L36.775555555555556,16.3474827396225L37.324444444444445,23.21675130926158L37.64222222222222,27.41560699397553L37.78666666666667,13.445655170491264L37.84444444444444,19.933972102867404L38.07555555555555,12.577070383874569L38.422222222222224,11.880745360216007L38.68222222222222,9.196526588762161L38.913333333333334,8.799137777160734L39.37555555555555,24.831769574426165L39.49111111111111,18.077252302516484L39.78,6.937080202923866L41.05111111111111,24.287190807731378L41.08,21.287146324119156L41.57111111111111,17.380198649936453L41.628888888888895,28.026263732047276L41.657777777777774,22.057125112995067L41.74444444444445,25.02842092743341L42.17777777777778,23.938625464220497L42.26444444444445,23.87125778492384L42.29333333333333,28.583483146745124L42.58222222222222,30.864856401026202L43.07333333333333,45.3501733137897L43.13111111111111,28.72139958237698L43.73777777777778,32.4629438885431L43.82444444444444,35.99379495988617L44.05555555555556,43.316888664758146L44.22888888888889,37.968235840490095L44.28666666666667,41.260151891630024L44.373333333333335,37.55270054727722L44.54666666666667,35.26406743335016L44.69111111111111,38.552073836237625L44.98,23.479734232637174L45.153333333333336,40.57338650329354L45.44222222222222,35.33241668921776L45.61555555555555,20.330016091292823L45.67333333333333,19.11608893562898L45.81777777777778,27.886012796564827L45.84666666666667,39.69695021020275L46.28,44.730917678781424L46.8,50.18621693442745L46.85777777777778,48.99549740520741L47.20444444444444,37.744749080941816L47.406666666666666,33.04871049101164L47.43555555555555,44.2071062426932L47.49333333333333,51.34359375973877L47.58,41.24273199708133L47.63777777777778,32.61243130487725L47.98444444444444,19.606289073826677L48.18666666666666,20.22368612587559L48.27333333333333,11.453402771089474L48.36,29.73713029502538L48.62,44.207060653440394L48.76444444444444,36.92920487630699L49.51555555555556,48.22407822448347L49.63111111111111,50.23668095916179L49.74666666666666,46.173285712829575L49.775555555555556,43.1922903054477L49.977777777777774,46.40335471856391L50.23777777777777,28.35103348814789L50.35333333333333,12.312035123050267L50.46888888888889,17.261642204116484L50.61333333333333,36.237098828787026L50.72888888888889,50.143156466385356L50.988888888888894,57.80147517505658L51.10444444444445,63.65294092168433L51.13333333333333,59.942672620501924L51.16222222222222,47.06079193569429L51.22,48.57353021936608L51.422222222222224,53.11079252304826L51.56666666666667,51.91529294708025L51.62444444444445,49.14249825724486L51.76888888888889,44.14188163163708L51.82666666666667,45.863743362255896L51.94222222222222,39.47762856197701L52.05777777777778,44.356887645066536L52.23111111111111,45.572874527432305L52.260000000000005,50.293265977920434L52.92444444444444,50.1573045091359L53.04,52.10620271450118L53.99333333333333,32.12281281522414L54.13777777777778,30.5492114152799L54.19555555555555,22.245774916388008L54.36888888888889,24.46979038080884L54.6,28.360667033627166L54.77333333333333,42.83130696036491L54.888888888888886,46.57246472541667L55.09111111111111,42.94044467802684L55.14888888888889,53.29267542425961L55.32222222222222,54.1027872719881L55.379999999999995,50.022805811475756L55.784444444444446,50.094641016165355L55.81333333333333,52.92091601796677L56.102222222222224,62.214937342120265L56.18888888888889,59.83112164048468L56.44888888888889,57.04530858024826L56.56444444444445,42.135802761199635L56.68,40.79730068705764L56.94,43.97287549678526L56.96888888888889,52.41352884963908L57.142222222222216,53.62877656152634L57.17111111111111,57.032694616699935L57.315555555555555,62.87477718121889L57.66222222222222,63.761905625756434L57.83555555555556,51.81297296402604L57.92222222222222,52.580099876098984L58.18222222222222,46.2114025181107L58.26888888888889,47.897382013202716L58.5,46.4147690567579L58.846666666666664,54.67941124107345L59.04888888888889,54.72126876367008L59.42444444444445,52.0141214605675L59.59777777777778,51.32692718432051L59.684444444444445,53.19505794268935L59.742222222222225,55.63170930200074L59.85777777777778,58.82911912605452L59.97333333333333,54.41649422648721L60.03111111111111,55.568250210039196L60.175555555555555,59.701165747547876L60.20444444444444,47.32234968656583L60.46444444444444,53.60902588978645L60.63777777777778,55.67520638885575L60.75333333333333,44.44077097127324L60.782222222222224,54.02790329240784L61.071111111111115,58.75973463617908L61.21555555555556,46.065865954470844L61.62,53.084023023076185L62.284444444444446,48.50784754619638L62.4,43.305188469615764L62.428888888888885,46.56986688459876L62.45777777777778,49.855061180038376L62.97777777777778,57.28520088856671L63.324444444444445,54.81505932886555L63.35333333333333,64.07767350032091L63.52666666666667,58.101596903130364L63.72888888888889,55.78907786488033L64.48,58.215074184282265L64.53777777777778,65.96061278347788L64.82666666666667,57.98154172412658L65.14444444444443,53.49570955833391L65.2311111111111,61.54840010404941L65.31777777777778,58.22104640669507L65.89555555555556,57.7674436746716L66.06888888888889,62.31045171425155L66.27111111111111,64.16635201987208L66.44444444444444,64.4845002727702L66.73333333333333,51.793706166300204L66.90666666666667,58.0589957163054L66.99333333333333,38.55944149843761L67.31111111111112,19.81401615299594L67.39777777777778,28.972572043617767L67.48444444444443,16.43591871233264L67.51333333333334,28.082367691293914L68.03333333333333,28.330341999799657L68.9,44.63100075626611L68.98666666666666,62.78634774362919L69.07333333333334,63.199757989964795L69.10222222222222,68.8437589321201L69.73777777777777,44.8597390679716L70.08444444444444,36.47042912015511L70.14222222222223,47.19766534164397L70.25777777777778,56.664224934017405L70.37333333333333,62.06060308899626L70.4888888888889,60.70848617565322L71.21111111111111,50.65386398534324L71.24000000000001,58.768094321822545L71.55777777777777,53.367758673205564L71.78888888888888,53.61567248874052L71.90444444444445,57.587797831004394L71.96222222222222,62.33887059652472L72.25111111111111,63.239181932126804L72.45333333333333,68.83420280793229L72.88666666666667,60.348120428198115L73.00222222222223,65.65952597947L73.69555555555556,61.49338398113496L73.72444444444444,57.65741393275514L74.18666666666667,64.08048636632965L74.21555555555555,73.72175627169362L74.47555555555556,67.6885657674446L74.64888888888889,46.211810271590075L74.76444444444445,10.191451655880753L75.02444444444444,24.916991265846963L75.22666666666666,36.06609544556027L75.25555555555556,46.42115571009199L75.63111111111111,62.340229734555706L75.8911111111111,56.86106541573885L76.03555555555556,64.07933006377945L76.17999999999999,68.21966686727428L76.26666666666667,71.8124287697583L76.41111111111111,71.85230470999204L76.49777777777777,68.9867361464349L76.84444444444445,67.62428870667503L77.07555555555555,67.59182652753285L77.27777777777777,63.39510339120709L77.47999999999999,71.16204641565822L77.74,79.8300317504315L77.85555555555555,80.15182575785305L77.88444444444445,70.74581640748757L77.91333333333334,67.89919841031049L77.9711111111111,72.51931120664435L78.05777777777777,72.66512610077528L78.25999999999999,78.68175308839284L78.52,39.72783998941197L78.80888888888889,40.94618798802516L78.92444444444445,43.01102491855091L78.98222222222222,51.20660512298691L79.06888888888889,54.59027982675573L79.21333333333332,49.72739127497667L79.3,50.839576337726356L79.32888888888888,46.109317560058386L79.35777777777778,57.74246215367011L79.90666666666667,66.07963610483093L80.16666666666667,61.53230501223666L80.34,62.70392263801995L80.54222222222222,67.06274897512391L80.57111111111111,64.67462966965925L80.83111111111111,55.184899467326304L81.03333333333333,62.17104832615283L81.38,66.49153615274193L81.64,66.68754561950328L81.75555555555556,73.6904737114152L82.04444444444444,57.17233915086036L82.16,58.07605138526957L82.30444444444444,61.5115404499633L82.42,50.67089587421922L82.79555555555555,55.04915224561783L82.88222222222223,55.235052571990245L83.05555555555554,57.68107609991786L83.08444444444444,59.81499128169551L83.11333333333333,54.08572030705917L84.09555555555555,62.38842884022951L84.2688888888889,64.316299233086L84.76,69.80761749341909L84.81777777777778,73.33408733285363L84.87555555555555,63.87326791332302L85.0488888888889,50.43781945838878L85.13555555555556,46.27893615008008L85.19333333333333,45.87805022806958L85.28,13.35934660573755L85.71333333333334,33.631827044261556L86.11777777777777,51.591196446283504L86.17555555555555,61.71409970243603L86.69555555555556,69.39885925417376L86.81111111111112,71.83321606880233L87.04222222222222,76.60474101827691L87.15777777777777,76.01743837007902L87.44666666666666,57.27611922839032L87.53333333333333,51.950730872530876L87.62,66.8521920635576L87.70666666666666,56.955308647609236L88.4,57.006110147960214L88.74666666666667,70.1806713956558L88.77555555555556,70.2684119672356L88.86222222222223,69.83211991241907L88.89111111111112,61.813804513521994L88.94888888888889,54.37551331631158L89.00666666666666,29.491657114695407L89.12222222222222,38.837565198874344L89.23777777777778,48.95608522481541L89.38222222222223,37.8220488348811L89.44,50.79464971405191L89.87333333333333,53.32486061946373L90.85555555555555,58.09666969661075L90.97111111111111,58.013553738963225L91.02888888888889,57.61281673400564L91.17333333333333,61.27202301197625L91.43333333333334,55.21864448438779L91.66444444444444,57.87571647833205L91.78,56.058681744756804L92.06888888888889,51.497132487151525L92.12666666666667,67.72962145828417L92.18444444444445,51.46359460314703L92.21333333333334,43.25622347119472L92.32888888888888,56.071278293998496L92.41555555555556,32.81127307949086L92.64666666666666,46.204065603175835L92.76222222222223,36.58174554900538L93.16666666666667,51.9218055006967L93.34,57.626953959292536L93.48444444444445,50.13391122012915L93.51333333333334,30.953602949186344L93.57111111111111,38.21049981611555L93.65777777777778,49.34372969182218L93.71555555555555,53.88991606593593L93.77333333333334,60.784292384812694L93.80222222222221,57.57014672249324L94.00444444444445,64.88409422411384L94.0911111111111,62.69455542773984L94.23555555555556,63.84230799906707L94.78444444444445,59.50083882470879L95.07333333333332,69.49878166366922L95.24666666666667,78.65071665462105L95.42,68.80621856911067L95.53555555555556,62.00225650877935L95.56444444444445,66.1971469935448L95.88222222222221,64.0394325756367L95.91111111111111,71.88186165312942L96.34444444444445,76.74021325216039L96.63333333333333,56.64662410904839L96.89333333333333,70.16996719228484L97.38444444444444,71.7016615709234L97.90444444444444,70.50558072835285L97.93333333333332,67.2324574381714L97.99111111111111,65.31994584610358L98.28,72.71002205656148L98.39555555555556,75.32966599730358L98.94444444444444,77.44123952177458L99.26222222222222,74.22104475583343L99.49333333333333,68.56889332345551L99.66666666666667,70.37013534777878L99.69555555555554,68.53858988328885L99.75333333333333,74.98714832703074L99.81111111111112,71.11562230200121L99.95555555555555,72.5535388112697L100.67777777777778,73.12118076937527L100.70666666666666,70.02304444638503L100.99555555555555,66.41886726044848L101.05333333333333,68.2734132019739L101.19777777777779,71.21477124076782L101.60222222222222,68.39573454117463L101.77555555555556,65.76487250944056L101.97777777777779,75.91099489157774L102.03555555555555,83.73543593077423L102.09333333333333,72.46544385691288L102.4688888888889,70.84395895975047L102.58444444444444,75.56821125824911L102.64222222222223,77.20626551490157L103.01777777777777,81.2885213449466L103.36444444444444,81.79685069848307L103.71111111111111,83.14205148456021L103.74000000000001,83.69436172891838L103.7688888888889,90.6205103332749L104,85.43241201118998L104.17333333333333,81.1518221302081L104.66444444444444,77.68186683409242L104.83777777777777,68.59143120088541L104.86666666666666,60.46056846403099L105.09777777777778,61.29803675585797L105.27111111111111,66.01284605898081L105.44444444444444,76.36858753345977L105.58888888888889,76.93378541459187L106.25333333333333,66.69966367768305L106.31111111111112,77.9340034769532L106.45555555555555,77.18689391360687L106.6,82.0238632626759L106.97555555555556,76.08081553781591L107.17777777777778,71.53625826414496L107.6111111111111,67.21467065770402L107.95777777777778,73.31137729196466L108.04444444444445,72.20931913361181L108.21777777777777,66.16250565922729L108.44888888888889,76.17882670130216L108.47777777777777,59.91445295445982L108.53555555555556,68.71748390985579L108.79555555555555,72.49347344023482L109.46,79.33640672818983L109.48888888888888,67.86687623295883L109.51777777777778,74.03616120649927L109.72,58.81303677830563L110.03777777777778,65.32965126624451L110.09555555555556,72.67276315087524L110.44222222222221,70.33462809837529L110.4711111111111,71.68591894166339L110.55777777777777,65.54029125181174L110.61555555555556,67.40828025332159L110.64444444444445,69.39972791931339L111.48222222222222,62.662037929397016L111.82888888888888,62.89531100091076L111.85777777777778,49.28049259097751L112.11777777777777,51.92962024635897L112.2911111111111,58.65216158644452L112.37777777777778,63.15985654549124L112.55111111111111,66.54335053020512L112.66666666666667,66.193068701217L113.15777777777778,59.348822584662486L113.21555555555557,68.4134381028164L113.24444444444444,71.46661633060599L113.27333333333333,78.67018437402515L113.5911111111111,74.40068716483222L114.11111111111111,78.09929342276L114.60222222222222,65.14219713002794L114.80444444444444,69.59696061221307L114.83333333333333,78.63483322810325L114.92,70.15578641782916L115.49777777777778,59.795251226833436L115.64222222222222,63.52280751782648L115.7,59.158231920177364L115.75777777777779,68.25524001092192L115.81555555555555,67.49629317054107L115.87333333333333,74.16771786806359L115.9888888888889,77.14471137032002L116.01777777777778,81.18346798124963L116.33555555555554,85.74326972519523L116.42222222222222,82.63704230997065L116.65333333333334,82.10321786106819L116.74000000000001,77.2862120700616L117,81.76852742628682L117.43333333333334,81.55770914698168L117.5488888888889,77.28123909135707L117.60666666666665,82.7885969407694L118.04,68.80787373215641L118.41555555555556,73.32752904738068L119.08,76.1479200184383L119.51333333333334,74.05536593953997L119.54222222222222,79.22224609960587L119.74444444444444,79.53719156065601L119.8888888888889,73.91692843020702L120.03333333333333,77.98565310228317L120.14888888888888,63.007219919824635L120.20666666666666,65.35074628481443L120.66888888888889,71.66522910184501L120.98666666666666,78.50981194832693L121.18888888888888,78.26124620936244L121.21777777777777,82.91222492093335L121.42,76.11776882351134L121.50666666666666,75.35575476054764L122.19999999999999,83.19571063046969L122.28666666666666,83.43790463747439L122.48888888888888,87.60612273565711L122.57555555555555,76.03025738078091L122.60444444444444,74.70613338490303L122.66222222222223,82.54565772577112L122.69111111111111,81.8108988672335L123.26888888888888,78.85950407338508L123.41333333333334,81.55037126578974L123.67333333333333,69.97190321203259L123.7311111111111,74.25429891112492L123.78888888888889,78.68722768033041L124.36666666666666,84.88302265183161L124.59777777777778,76.25630969947197L125.00222222222223,73.00962369462555L125.0311111111111,75.33238531707813L125.17555555555556,79.68491866193334L125.32,84.12072391113908L125.52222222222221,70.37248123567068L125.86888888888889,78.54848980633874L126.36,73.88250698881424L126.41777777777777,74.70858749292537L126.47555555555556,75.24797810771746L126.56222222222222,85.90858126940208L126.70666666666666,71.32731090873936L127.19777777777777,79.93996511168886L127.34222222222222,78.82898798810673L127.97777777777777,84.07770952717802L128.06444444444446,74.28139179695118L128.20888888888888,79.49798884904135L128.4111111111111,79.46099235100333L128.52666666666667,80.80866466452349L128.58444444444444,84.45489053620697L128.7577777777778,76.85557544115133L128.78666666666666,75.24831543693709L128.96,78.90456270440943L129.16222222222223,81.02435960861096L129.33555555555557,83.96142338807611L129.42222222222222,86.41250228342552L129.91333333333333,77.7869627708291L129.9711111111111,83.53142766228552L130.26,68.68306659899893L130.34666666666666,65.31529769975918L130.40444444444444,53.36481788894257L130.54888888888888,70.08739298467272L131.01111111111112,66.68357460297473L131.06888888888886,55.106317687945854L131.2422222222222,71.09139393172369L131.35777777777778,73.30608487766013L131.41555555555556,82.36622170724421L131.82,72.08984029363363L132.3111111111111,77.04194071864879L132.6577777777778,81.6013017778808L132.86,78.64273644134023L132.88888888888889,79.22456590718797L133.40888888888887,74.91227455369695L133.46666666666667,81.5724225460745L133.52444444444444,75.92482743113118L133.6111111111111,73.17741010787744L133.6977777777778,41.155463207976L134.18888888888887,58.314974381058995L134.50666666666666,59.67844573800869L134.53555555555556,61.40327440984115L134.70888888888888,58.295440078830445L134.9111111111111,64.66974888705556L135.60444444444445,68.2418533472022L135.7777777777778,71.48969841248595L135.83555555555557,63.59566136613239L136.44222222222223,67.88155021649783L136.52888888888887,75.87096488306234L136.64444444444445,78.70956596961535L136.67333333333332,82.81263127001013L136.70222222222222,58.55164749267827L136.87555555555556,65.50156758996393L136.96222222222224,74.6334016038L137.02,83.14945109034363L137.28,81.78540245831215L137.48222222222222,73.8119352931856L137.85777777777778,77.88068082117843L137.97333333333333,81.66735141254416L138.08888888888887,81.458707501486L138.46444444444444,80.3420161677702L138.52222222222224,82.30385603414464L138.60888888888888,81.46604329556784L138.95555555555558,80.73248781621128L139.0711111111111,79.86177343576287L139.21555555555554,85.06673491136381L139.2733333333333,75.71370550077843L139.56222222222223,82.56540072542774L139.62,81.54130899193626L139.67777777777778,58.78675318131491L140.0533333333333,70.01246985020029L140.51555555555555,70.07904683351256L140.66,79.1497281453329L140.86222222222221,82.55752173365394L141.58444444444444,79.12873387450055L141.61333333333332,79.78926794861864L141.64222222222222,76.70739908365144L141.84444444444443,83.71635182044878L142.13333333333333,84.70044037108802L142.36444444444444,75.82477937780928L142.56666666666666,79.61186861448024L142.68222222222224,68.97377895982582L143,80.43211833969997L143.17333333333332,82.55698458554097L143.34666666666666,78.65417777287678L143.98222222222222,72.32088095949057L144.3,80.44176869859541L144.44444444444446,84.04932968843792L144.5888888888889,77.26920352595336L144.70444444444445,82.055325833927L144.73333333333332,83.5998716560823L145.0511111111111,77.88691081649993L145.08,84.2825193659613L145.39777777777778,82.1144137164311L145.48444444444445,84.69772289874294L145.68666666666667,89.08385497473296L145.77333333333334,91.14266152864266L145.80222222222224,79.04338694755907L145.8311111111111,86.95182795677057L146.64,87.1023677548973L147.13111111111112,89.20357899169706L147.27555555555554,85.03382721391336L147.30444444444444,87.370387981748L147.59333333333333,83.4955464067551L149.26888888888888,81.2722604669626L149.70222222222225,87.6849408969446L150.01999999999998,78.39065439056343L150.04888888888888,71.56232335498522L150.10666666666668,65.80146883658257L150.16444444444446,75.27766441542916L150.2511111111111,74.1450320304441L150.28,74.14519016735466L150.33777777777777,69.90425650221403L151.0022222222222,76.917607275301L151.14666666666668,85.98970958583115L151.23333333333332,84.53481798498699L151.46444444444447,74.61782692681406L151.7822222222222,83.18963202191452L152.04222222222222,74.47676414064404L152.1288888888889,79.89464624743098L152.15777777777777,86.06601478800769L152.41777777777776,89.8758941195477L152.5911111111111,96.98519617530121L153.05333333333334,98.89871274624383L153.2266666666667,92.32359439316528L153.3422222222222,92.894888247151L153.60222222222222,75.54682158668103L153.66,72.77574816356325L153.92,76.31974779704677L154.03555555555556,78.57883392721759L154.2088888888889,74.07505320612135L154.35333333333332,81.51837947629019L154.7866666666667,63.026220374610105L154.9888888888889,76.046104372856L155.10444444444443,81.58925332174388L155.36444444444444,83.35619478352281L155.79777777777778,84.99597535951054L156,82.5347281388495L156.17333333333335,69.45979988328935L156.2888888888889,74.67313855076557L156.31777777777776,85.33411350426576L156.86666666666667,86.43593594444957L156.89555555555555,88.09394530529347L156.95333333333335,87.48014996096236L157.12666666666667,78.29320992549437L157.21333333333334,84.48422576697776L157.99333333333334,89.53272706098619L158.16666666666666,85.88255380818936L158.2822222222222,90.75434003476782L158.3688888888889,76.03079207992575L158.6,82.13018924018024L158.65777777777777,75.67193574785028L159.1488888888889,83.4924279184537L159.17777777777778,87.90785675832015L159.72666666666666,85.1900646065973L159.75555555555556,94.26553303915743L159.8422222222222,93.46924611612582L160.04444444444442,92.81658015924017L160.10222222222222,98.49411148263076L160.33333333333334,88.76943708916343L160.39111111111112,75.49672295592794L160.42,82.12499278484657L160.85333333333335,82.4177759324775L161.14222222222222,74.05744702628846L161.2288888888889,80.40101950374203L161.54666666666665,86.49093466405247L161.63333333333335,89.93158310826459L161.69111111111113,92.11192124921914L161.74888888888887,94.69173977146514L162.09555555555556,89.48455225118643L162.58666666666664,93.94702116131637L163.02,96.40724328578756L163.19333333333336,92.11152033195974L163.39555555555557,92.22805469676837L163.62666666666667,90.06922988163421L163.7422222222222,95.76326946987238L163.94444444444443,94.37833020499133L163.97333333333336,86.45532862391543L164.00222222222223,76.2584449188035L164.29111111111112,81.81507254723108L164.89777777777778,61.66452945719201L165.04222222222222,74.73987521664989L165.18666666666667,80.14314268259884L165.64888888888888,67.16538396415321L165.79333333333335,76.70518053798868L165.96666666666667,81.45660838488799L166.0822222222222,77.93297499089543L166.1111111111111,82.90315867995018L166.34222222222223,81.39830683987218L166.42888888888888,81.47123148301436L166.45777777777778,80.87708128050484L166.51555555555558,84.40847474270373L166.60222222222222,85.5465333444541L166.86222222222221,86.60763942297291L166.9488888888889,82.50528221916089L166.9777777777778,82.70239988056711L167.03555555555556,82.83611102090347L167.09333333333333,89.38355830290227L167.18,72.7025036671458L167.20888888888888,75.70102103238825L167.38222222222223,75.89220479141984L167.55555555555557,81.88276447925425L167.61333333333334,87.04718830761718L167.70000000000002,91.20033340930718L168.2777777777778,91.70560793844726L168.33555555555557,88.18072029412508L168.7111111111111,91.5333008979072L169.0577777777778,84.56929127063215L169.60666666666665,86.1417605964162L169.66444444444446,91.51205945008569L170.12666666666667,95.41582476294187L170.2133333333333,93.52196883941049L170.2711111111111,94.55205147932581L170.3,92.01694120647875L170.8488888888889,93.98371675487446L171.54222222222222,98.74309999802693L171.6288888888889,94.14464194478649L172.00444444444446,88.7535191152616L172.23555555555555,86.66434795834695L172.46666666666667,83.82493240078466L172.49555555555554,90.13954622080698L172.58222222222224,94.51159642721348L172.64000000000001,93.67465710326445L172.6688888888889,92.07728295667948L173.07333333333332,89.23268845233378L173.30444444444444,89.37421596777274L173.94,80.14151540503669L174.11333333333332,70.68821830216508L174.20000000000002,77.8821289009327L174.40222222222224,79.16439313887405L174.7777777777778,83.05588663206473L174.83555555555554,87.23003225940715L174.86444444444444,92.88103786625085L175.06666666666666,79.01402704163297L175.58666666666667,83.77735764860785L176.04888888888888,75.04835156316035L176.2511111111111,79.59512685764516L176.39555555555555,81.91873891569387L176.42444444444445,87.71400331573679L176.59777777777776,86.30572354002328L176.97333333333333,85.68183907722882L177.0311111111111,79.06980232112875L177.20444444444445,68.31626925032631L177.95555555555555,75.29025485413054L178.10000000000002,68.32209890992841L178.47555555555556,65.03873261425402L178.5911111111111,75.4845130374177L179.11111111111111,82.4046289455314L179.34222222222223,85.63026823853636L180.00666666666666,93.7655333944802L180.09333333333333,88.16863687844938L180.12222222222223,84.80215272910516L180.23777777777778,92.55709764060981L180.26666666666668,89.10539427484304L180.38222222222223,90.12439775981312L180.90222222222224,81.51016116980728L181.01777777777778,82.69502445300165L181.68222222222224,62.93884304772331L182.05777777777777,69.697654316488L182.51999999999998,82.03286356309836L182.83777777777777,89.30478979164899L183.29999999999998,88.07548394278079L183.38666666666668,58.769450379926994L183.70444444444445,71.40179972527234L183.73333333333332,86.50517115467142L183.82,78.13067911814329L184.3111111111111,83.4768044715167L184.42666666666668,65.27916158229355L185.00444444444446,73.93273198664997L185.0622222222222,75.71107356584557L185.46666666666667,79.5034063495056L185.61111111111111,89.84694620855451L186.01555555555555,92.98245316345837L186.04444444444442,94.67078001392824L186.10222222222222,91.58343122789363L186.24666666666667,90.35465817550943L187.05555555555554,84.64878116985238L187.31555555555556,81.90547821949633L187.51777777777778,85.99207348179579L187.63333333333333,82.86043634346184L187.80666666666667,83.72214699386195L187.98,87.56476796824913L188.12444444444444,88.89902922208617L188.2111111111111,92.05841486338747L188.2688888888889,84.85750314802311L188.70222222222222,78.23045155134031L188.9622222222222,83.38217526179955L189.19333333333333,86.12896010711569L189.48222222222222,84.69459257186321L189.68444444444444,89.04154702752682L189.8288888888889,91.55208991538727L189.88666666666666,89.60397539876647L189.97333333333333,86.33176232780663L190.23333333333335,87.10547299163264L190.29111111111112,75.09732158633771L190.46444444444444,88.1227704027456L190.81111111111113,72.60459639531014L190.95555555555555,69.51622158760148L191.24444444444444,81.42175362525306L191.53333333333333,85.45647342348184L191.59111111111113,77.47521933588504L192.02444444444444,83.48418111672537L192.3422222222222,82.58368270373003L192.4,72.33017132479675L192.51555555555555,78.93578467646478L192.86222222222221,79.95323184921553L192.94888888888892,80.99838599241303L193.93111111111114,84.41638088099741L194.13333333333335,88.93518212030547L194.22,82.48595786049097L194.33555555555557,86.32054484128103L194.74,86.60778791517171L195.05777777777777,87.44221926615727L195.26,86.35658562446623L195.4622222222222,90.02382808154485L195.75111111111113,92.5150942372156L195.83777777777777,96.08553310037888L195.98222222222222,90.84740288668948L196.12666666666667,83.9407667348959L196.3,86.06745876915987L196.64666666666665,86.87331427364192L196.67555555555558,86.50113524268588L197.16666666666666,85.07094977129476L197.25333333333336,83.40009156628503L197.45555555555558,81.06470809372033L197.8022222222222,88.68347854741803L198.23555555555558,81.41485945248307L198.29333333333335,86.47939122966481L198.49555555555557,85.09957797743478L198.78444444444443,86.16626050919848L199.01555555555558,89.94627394785816L199.07333333333335,91.51736156317459L199.1311111111111,94.40662365592574L199.27555555555557,82.67987945936355L199.53555555555556,87.83949517499082L199.82444444444445,94.17202124702669L199.85333333333335,93.29839239078734L200.14222222222222,91.35588244731015L200.2577777777778,91.00265186443134L200.28666666666666,93.3119710741625L200.83555555555557,93.13567700467954L200.98000000000002,85.90494676321218L201.0377777777778,88.92498501870712L201.06666666666666,88.67370434244683L201.1533333333333,90.75762747709081L201.41333333333333,94.83875945333449L201.9333333333333,100.21732007934932L202.5111111111111,77.56465793667142L202.65555555555557,84.83753298730396L202.91555555555556,87.13831511543637L203.08888888888887,86.8615748370078L203.11777777777777,87.52596737649361L203.14666666666668,91.6092272542297L203.23333333333332,94.30793884781608L203.32,96.19718316295973L203.72444444444446,75.29012370367387L203.95555555555558,81.04782899905301L204.44666666666666,88.23792965028122L204.47555555555553,88.27916797884366L204.5911111111111,83.93025502098438L204.73555555555555,80.19608640458554L204.9377777777778,88.84866350894329L205.1977777777778,95.53544097612064L205.25555555555553,96.85971883749157L205.54444444444445,55.88254636283496L205.7177777777778,72.32568542679284L205.77555555555554,80.47276688991732L205.9488888888889,81.06161069632155L206.00666666666666,89.20960464864655L206.06444444444446,84.64502787928261L206.4111111111111,95.71473935118271L206.4688888888889,93.59617854875893L206.52666666666667,91.04396971563708L206.7577777777778,93.36420771049255L207.1911111111111,94.03123438696143L207.30666666666667,89.78445272913291L207.45111111111112,94.89098660643658L207.5377777777778,93.07295790543944L208,96.43121929769853L208.2888888888889,93.41474217987475L208.31777777777776,94.11515726072774L208.37555555555554,98.95949335681641L208.54888888888888,89.36427903313451L208.57777777777775,88.10492488096232L208.72222222222223,87.02547357291027L208.92444444444445,91.4286759351958L209.0688888888889,87.48481535446264L209.2711111111111,83.82255667301321L209.44444444444446,85.42454889129978L209.82000000000002,86.5106784717258L210.02222222222224,76.09797019656597L210.57111111111112,82.43131845928886L211.14888888888888,84.22830532897773L211.23555555555555,83.50677938870811L211.35111111111112,89.98497706023188L211.38,88.44126389311818L211.58222222222224,86.73401657010689L212.07333333333332,90.77606438622881L212.39111111111112,92.28655699043414L212.70888888888888,88.83079409886763L212.9111111111111,95.2128741069663L213.08444444444444,92.93310137534313L213.77777777777777,91.30302906268008L214.44222222222223,71.43254117045039L214.70222222222225,79.48267514100282L215.13555555555556,88.19124840850002L215.16444444444446,91.42269967952654L215.36666666666667,95.8652207365523L215.48222222222222,97.70128453836186L215.85777777777778,93.65993689271349L215.88666666666668,84.39043840630374L216.17555555555555,89.86744532570026L216.29111111111112,92.59642952168188L216.5222222222222,95.89630140023618L216.5511111111111,98.64797349400963L216.66666666666669,99.150253598325L216.92666666666668,90.66801775428276L216.95555555555555,93.42271046929464L217.24444444444447,87.49020408910921L217.27333333333334,86.62581188009958L217.3022222222222,89.12388718044825L217.53333333333333,86.29894400917466L217.6488888888889,78.76414246264217L218.11111111111111,80.95247828836446L218.3422222222222,82.14273111745837L218.80444444444444,90.97928299276438L218.92,91.64614874781216L218.97777777777776,93.81365283591839L219.0066666666667,96.57583649580322L219.09333333333333,90.9535446144619L219.35333333333332,93.49404853580599L219.38222222222223,92.08632866143111L219.64222222222222,97.13394865220805L219.7288888888889,90.88955595720755L220.01777777777778,95.90812715401948L220.16222222222223,88.38306171933564L220.97111111111113,66.78467964143077L221.20222222222222,79.39839688347092L221.4622222222222,81.85862242026911L221.51999999999998,84.25771746741009L221.63555555555556,85.58988523440654L221.8088888888889,86.01382437256567L221.89555555555555,90.3237058998269L222.09777777777776,92.35372338116235L222.18444444444444,96.52667996405273L222.3288888888889,98.43213697941329L222.41555555555556,95.61405004530552L222.44444444444443,94.30917139134448L222.64666666666665,93.03540042607968L222.76222222222222,88.35360389293622L222.87777777777777,89.16722075679073L223.16666666666666,79.13766233447096L223.19555555555556,65.94777950373366L223.54222222222222,76.79816538396388L223.65777777777777,78.7376494571409L223.85999999999999,86.65573716086527L223.97555555555556,89.59244027091495L224.29333333333335,88.24389875278266L224.64,89.00586859326133L225.10222222222222,85.1242106222213L225.70888888888888,64.69009523370468L225.82444444444442,77.90822501911549L226.2577777777778,89.90019924071395L226.4022222222222,83.47692343635208L226.48888888888888,82.00749750494005L226.66222222222223,90.17469123736446L226.77777777777777,89.45631182036055L226.89333333333335,97.74538474518147L227.12444444444444,97.48222912095837L227.29777777777778,100.33700764092184L227.32666666666665,100.05353672982017L227.35555555555555,99.4962310983915L227.8177777777778,96.54355215594246L228.02,92.81405369711297L228.07777777777778,103.43511734965868L228.25111111111113,101.536960871399L228.48222222222222,92.99966066429515L228.56888888888886,83.6451027791669L228.68444444444444,93.17605654139473L228.7422222222222,98.24639946464194L228.97333333333336,96.56105691074758L229.20444444444445,87.84705250853621L229.29111111111112,89.24011321898894L229.69555555555556,93.5892780385609L229.8111111111111,88.13862932695123L230.04222222222222,85.22464104013876L230.12888888888887,83.68181548095751L230.3022222222222,87.63934940112503L230.79333333333335,84.96001647983381L230.82222222222222,85.24098451910385L230.88,91.97041236016598L231.4,84.1153093178279L231.51555555555558,85.66229037174159L231.60222222222222,93.30060347024414L232.03555555555556,98.64007186421706L232.12222222222223,95.81082912270267L232.23777777777778,98.83563778390908L232.44,94.90959970839407L232.4977777777778,97.71195537129263L232.81555555555556,90.24964347979294L232.98888888888888,86.63156774011438L233.39333333333332,90.57196869671652L233.74,97.4377607398449L233.94222222222223,94.1857073667246L234.17333333333332,97.27498170576746L234.40444444444444,91.63436806703959L234.4333333333333,91.49315059486243L234.57777777777778,94.04089956729207L234.69333333333333,87.12362588725975L235.0688888888889,86.31188252736621L235.18444444444444,85.29336022570757L235.58888888888887,77.38398832818883L235.93555555555557,84.32153293865865L235.96444444444444,85.78895044353372L236.16666666666666,92.57713820155523L236.39777777777778,88.20399340427223L236.5711111111111,79.81670027569051L236.74444444444444,86.0884714830955L236.94666666666666,91.52586062736883L237.00444444444446,79.62862988040723L237.26444444444445,86.39440771840208L237.32222222222222,93.54891238485423L237.3511111111111,95.61537833801366L237.9,92.45023754048553L237.98666666666668,89.37530463091127L238.24666666666667,96.51155191154234L238.62222222222223,96.3531809074472L238.94,90.81613651120077L239.02666666666667,91.13140390769024L239.31555555555553,84.62874502215014L239.4311111111111,90.92455945310267" style="fill: none;" fill="none"></path></g></g></g></g><g opacity="0.2"><g><g><g><path stroke="rgb(255, 112, 67)" stroke-width="2px" d="M34.03111111111111,-32.975229263305664L34.175555555555555,5.773485395643464L34.23333333333333,-18.57383977042305L34.86888888888888,-92.94534296459621L35.33111111111111,20.636075364218826L35.504444444444445,-31.77004639307659L35.648888888888884,-5.03375156720478L36.08222222222222,10.11584059397381L36.25555555555556,-21.019016875161096L36.400000000000006,-40.35415395100914L36.602222222222224,33.413626114527396L36.717777777777776,29.256762557559547L36.775555555555556,23.819658915201835L37.324444444444445,33.52065367168852L37.64222222222222,33.71389034059313L37.78666666666667,-7.5092722045050815L37.84444444444444,29.666447401046753L38.07555555555555,1.5417178736792758L38.422222222222224,10.836257828606511L38.68222222222222,5.170198440551758L38.913333333333334,8.203054560555364L39.37555555555555,48.8807172510359L39.49111111111111,7.9454763995276645L39.78,-9.773177941640204L41.05111111111111,50.31235671043396L41.08,16.787079599168568L41.57111111111111,11.51977713902792L41.628888888888895,43.99536135461596L41.657777777777774,13.103417184617786L41.74444444444445,29.485364649030913L42.17777777777778,22.303932269414272L42.26444444444445,23.770206265979347L42.29333333333333,35.65182118945652L42.58222222222222,34.28691628244189L43.07333333333333,67.0781486829122L43.13111111111111,3.7782389852735907L43.73777777777778,38.075260347790206L43.82444444444444,41.29007156689963L44.05555555555556,54.30152922206455L44.22888888888889,29.945256604088687L44.28666666666667,46.198025968339714L44.373333333333335,31.991523530748157L44.54666666666667,31.83111776245966L44.69111111111111,43.48408344056872L44.98,0.8712248272366148L45.153333333333336,66.21386490927803L45.44222222222222,27.470961968104056L45.61555555555555,-2.173584805594559L45.67333333333333,17.29519820213318L45.81777777777778,41.04089858796862L45.84666666666667,57.41335633065966L46.28,52.28186888164946L46.8,58.36916581789654L46.85777777777778,47.209418111377296L47.20444444444444,20.868626594543457L47.406666666666666,26.00465260611641L47.43555555555555,60.94469987021553L47.49333333333333,62.04832503530714L47.58,26.09143935309517L47.63777777777778,19.666980266571045L47.98444444444444,0.09707572725084312L48.18666666666666,21.149781703948975L48.27333333333333,-1.7020222610897444L48.36,57.162721580929244L48.62,65.91195619106293L48.76444444444444,26.0124212106069L49.51555555555556,65.16638824674818L49.63111111111111,53.255585061179275L49.74666666666666,40.078192843331244L49.775555555555556,38.720797194374946L49.977777777777774,51.219951338238204L50.23777777777777,1.2725516425238803L50.35333333333333,-11.746462424596137L50.46888888888889,24.68605282571581L50.61333333333333,64.70028376579285L50.72888888888889,71.0022429227829L50.988888888888894,69.2889532380634L51.10444444444445,72.43013954162598L51.13333333333333,54.377270168728316L51.16222222222222,27.737970908482875L51.22,50.84263764487373L51.422222222222224,59.916685978571586L51.56666666666667,50.12204358312818L51.62444444444445,44.9833062224918L51.76888888888889,36.64095669322544L51.82666666666667,48.44653595818415L51.94222222222222,29.898456361558704L52.05777777777778,51.6757762697008L52.23111111111111,47.396854850980965L52.260000000000005,57.37385315365263L52.92444444444444,49.953362305959075L53.04,55.02955002254912L53.99333333333333,2.1477279663085938L54.13777777777778,28.188809315363578L54.19555555555555,9.790620168050136L54.36888888888889,27.805813577440052L54.6,34.19698201285469L54.77333333333333,64.5372668504715L54.888888888888886,52.18420137299433L55.09111111111111,37.492414606942084L55.14888888888889,68.82102154360878L55.32222222222222,55.3179550435808L55.379999999999995,43.902833620707206L55.784444444444446,50.202393823199806L55.81333333333333,57.16032852066889L56.102222222222224,76.15596932835051L56.18888888888889,56.25539808803135L56.44888888888889,52.86658898989361L56.56444444444445,19.771544032626686L56.68,38.78954757584467L56.94,48.73623771137663L56.96888888888889,65.07450887891981L57.142222222222216,55.451648129357245L57.17111111111111,62.13857169946036L57.315555555555555,71.63790102799734L57.66222222222222,65.0925982925627L57.83555555555556,33.88957397143047L57.92222222222222,53.73079024420845L58.18222222222222,36.65835648112827L58.26888888888889,50.42635125584074L58.5,44.19084962209067L58.846666666666664,67.07637451754677L59.04888888888889,54.78405504756504L59.42444444444445,47.95340050591364L59.59777777777778,50.29613576995003L59.684444444444445,55.9972540802426L59.742222222222225,59.286686340967826L59.85777777777778,63.62523386213514L59.97333333333333,47.79755687713623L60.03111111111111,57.295884185367164L60.175555555555555,65.90053905381097L60.20444444444444,28.754125595092773L60.46444444444444,63.039040194617385L60.63777777777778,58.77447713745966L60.75333333333333,27.5891178448995L60.782222222222224,68.40860177410974L61.071111111111115,65.85748165183598L61.21555555555556,27.02506293190851L61.62,63.61125862598419L62.284444444444446,41.64358433087668L62.4,35.50119985474482L62.428888888888885,51.46688450707331L62.45777777777778,54.78285262319776L62.97777777777778,68.43041045135924L63.324444444444445,51.10984698931377L63.35333333333333,77.97159475750395L63.52666666666667,49.13748200734457L63.72888888888889,52.3202993075053L64.48,61.854068663385185L64.53777777777778,77.57892068227133L64.82666666666667,46.01293513509962L65.14444444444443,46.766961309644905L65.2311111111111,73.62743592262268L65.31777777777778,53.23001586066353L65.89555555555556,57.08703957663643L66.06888888888889,69.12496377362146L66.27111111111111,66.95020247830286L66.44444444444444,64.96172265211743L66.73333333333333,32.75751500659519L66.90666666666667,67.45693004131317L66.99333333333333,9.310110171635952L67.31111111111112,-8.30412186516655L67.39777777777778,42.710405879550514L67.48444444444443,-2.36906128459507L67.51333333333334,45.55204115973579L68.03333333333333,28.702303462558326L68.9,69.08198889096579L68.98666666666666,90.01936822467381L69.07333333333334,63.819873359468254L69.10222222222222,77.30976034535303L69.73777777777777,8.883709271748867L70.08444444444444,23.886464198430385L70.14222222222223,63.288519673877296L70.25777777777778,70.86406432257759L70.37333333333333,70.15517032146454L70.4888888888889,58.68031080563864L71.21111111111111,35.57193069987827L71.24000000000001,70.93943982654149L71.55777777777777,45.2672552002801L71.78888888888888,53.98754321204292L71.90444444444445,63.5459858444002L71.96222222222222,69.46547974480524L72.25111111111111,64.58964893552992L72.45333333333333,77.22673412164053L72.88666666666667,47.6189968585968L73.00222222222223,73.62663430637785L73.69555555555556,55.244170983632415L73.72444444444444,51.90345886018542L74.18666666666667,73.71509501669142L74.21555555555555,88.18366112973955L74.47555555555556,58.63878001107111L74.64888888888889,13.996677027808303L74.76444444444445,-43.83908626768326L75.02444444444444,47.00530068079632L75.22666666666666,52.78975171513029L75.25555555555556,61.95374610688952L75.63111111111111,86.21884077125127L75.8911111111111,48.64231893751356L76.03555555555556,74.90672703584036L76.17999999999999,74.43017207251656L76.26666666666667,77.20157162348431L76.41111111111111,71.9121186203427L76.49777777777777,64.68838330109915L76.84444444444445,65.58061754703522L77.07555555555555,67.54313325881958L77.27777777777777,57.10001868671843L77.47999999999999,82.81246095233494L77.74,92.83200975259146L77.85555555555555,80.63451676898534L77.88444444444445,56.636802381939376L77.91333333333334,63.62927141454485L77.9711111111111,79.4494804011451L78.05777777777777,72.88384844197168L78.25999999999999,87.70669356981915L78.52,-18.703029659059297L78.80888888888889,42.773709985944976L78.92444444444445,46.108280314339545L78.98222222222222,63.499975429640884L79.06888888888889,59.665791882409L79.21333333333332,42.43305844730803L79.3,52.507853931850875L79.32888888888888,39.01392939355639L79.35777777777778,75.19217904408774L79.90666666666667,78.58539703157213L80.16666666666667,54.71130837334528L80.34,64.46134907669493L80.54222222222222,73.60098848077986L80.57111111111111,61.09245071146223L80.83111111111111,40.95030416382685L81.03333333333333,72.65027161439261L81.38,72.9722678926256L81.64,66.98155981964537L81.75555555555556,84.194865849283L82.04444444444444,32.395137310028076L82.16,59.43161973688337L82.30444444444444,66.66477404700386L82.42,34.40992901060318L82.79555555555555,61.61653680271574L82.88222222222223,55.51390306154888L83.05555555555554,61.35011139180926L83.08444444444444,63.01586405436199L83.11333333333333,45.49181384510466L84.09555555555555,74.84249163998498L84.2688888888889,67.20810482237074L84.76,78.04459488391876L84.81777777777778,78.62379209200543L84.87555555555555,49.6820387840271L85.0488888888889,30.284646775987415L85.13555555555556,40.040611187616996L85.19333333333333,45.27672134505379L85.28,-35.418708827760504L85.71333333333334,64.04054770204756L86.11777777777777,78.5302505493164L86.17555555555555,76.89845458666485L86.69555555555556,80.92599858178033L86.81111111111112,75.48475129074522L87.04222222222222,83.76202844248878L87.15777777777777,75.13648439778223L87.44666666666666,29.164140515857277L87.53333333333333,43.962648338741744L87.62,89.20438385009766L87.70666666666666,42.109983523686736L88.4,57.08231239848667L88.74666666666667,89.94251326719922L88.77555555555556,70.40002282460532L88.86222222222223,69.17768183019426L88.89111111111112,49.78633141517639L88.94888888888889,43.21807652049595L89.00666666666666,-7.834127187728882L89.12222222222222,52.85642732514277L89.23777777777778,64.13386526372697L89.38222222222223,21.120994249979667L89.44,70.25355103280809L89.87333333333333,57.120176977581465L90.85555555555555,65.25438331233131L90.97111111111111,57.888879802491935L91.02888888888889,57.01171122656929L91.17333333333333,66.76083242893219L91.43333333333334,46.13857669300505L91.66444444444444,61.861324469248466L91.78,53.33312964439392L92.06888888888889,44.65480860074362L92.12666666666667,92.07835491498312L92.18444444444445,27.06455432044136L92.21333333333334,30.945166773266276L92.32888888888888,75.29386052820418L92.41555555555556,-2.0787347422705844L92.64666666666666,66.29325438870325L92.76222222222223,22.14826546774971L93.16666666666667,74.93189542823369L93.34,66.18467664718628L93.48444444444445,38.894347111384086L93.51333333333334,2.183140542772083L93.57111111111111,49.095845116509345L93.65777777777778,66.04357450538213L93.71555555555555,60.709195627106574L93.77333333333334,71.12585686312782L93.80222222222221,52.74892822901409L94.00444444444445,75.85501547654471L94.0911111111111,59.410247233178886L94.23555555555556,65.56393685605791L94.78444444444445,52.98863506317139L95.07333333333332,84.49569592210982L95.24666666666667,92.37861914104884L95.42,54.03947144084507L95.53555555555556,51.796313418282416L95.56444444444445,72.48948272069296L95.88222222222221,60.802860948774544L95.91111111111111,83.6455052693685L96.34444444444445,84.02774065070683L96.63333333333333,26.50624039438036L96.89333333333333,90.45498181713953L97.38444444444444,73.99920313888127L97.90444444444444,68.71145946449705L97.93333333333332,62.32277250289917L97.99111111111111,62.451178458001884L98.28,83.79513637224835L98.39555555555556,79.25913190841675L98.94444444444444,80.608599808481L99.26222222222222,69.39075260692174L99.49333333333333,60.09066617488861L99.66666666666667,73.07199838426378L99.69555555555554,65.79127168655396L99.75333333333333,84.65998599264357L99.81111111111112,65.30833326445686L99.95555555555555,74.71041357517242L100.67777777777778,73.97264370653365L100.70666666666666,65.37583996189966L100.99555555555555,61.012601481543655L101.05333333333333,71.05523211426207L101.19777777777779,75.62680829895868L101.60222222222222,64.16717949178484L101.77555555555556,61.81857946183947L101.97777777777779,91.13017846478357L102.03555555555555,95.47209748956894L102.09333333333333,55.560455746120894L102.4688888888889,68.4117316140069L102.58444444444444,82.65458970599705L102.64222222222223,79.66334689988031L103.01777777777777,87.41190509001416L103.36444444444444,82.55934472878775L103.71111111111111,85.15985266367596L103.74000000000001,84.52282709545561L103.7688888888889,101.00973323980969L104,77.6502645280626L104.17333333333333,74.73093730873534L104.66444444444444,72.47693388991887L104.83777777777777,54.955777751074905L104.86666666666666,48.26427435874939L105.09777777777778,62.55423919359844L105.27111111111111,73.0850600136651L105.44444444444444,91.90219974517822L105.58888888888889,77.78158223628998L106.25333333333333,51.34848107231989L106.31111111111112,94.7855131758584L106.45555555555555,76.06622956858742L106.6,89.27931728627946L106.97555555555556,67.16624395052594L107.17777777777778,64.71942235363855L107.6111111111111,60.73228924804264L107.95777777777778,82.45643724335565L108.04444444444445,70.55623189608258L108.21777777777777,57.09228544765049L108.44888888888889,91.20330826441449L108.47777777777777,35.51789233419632L108.53555555555556,81.92203034294977L108.79555555555555,78.15745773580339L109.46,89.60080666012233L109.48888888888888,50.662580490112305L109.51777777777778,83.29008866680994L109.72,35.978350136015166L110.03777777777778,75.10457299815285L110.09555555555556,83.68743097782135L110.44222222222221,66.82742551962536L110.4711111111111,73.71285520659553L110.55777777777777,56.32184971703425L110.61555555555556,70.21026375558641L110.64444444444445,72.38689941830107L111.48222222222222,52.55550294452244L111.82888888888888,63.24522060818144L111.85777777777778,28.858264976077614L112.11777777777777,55.90331172943115L112.2911111111111,68.73597359657288L112.37777777777778,69.92139898406136L112.55111111111111,71.61859150727591L112.66666666666667,65.66764595773485L113.15777777777778,49.08245340983074L113.21555555555557,82.01036138004729L113.24444444444444,76.04638367229039L113.27333333333333,89.4755364391539L113.5911111111111,67.99644135104286L114.11111111111111,83.6472028096517L114.60222222222222,45.706552690929854L114.80444444444444,76.27910583549077L114.83333333333333,92.19164215193855L114.92,57.43721620241802L115.49777777777778,44.254448440339836L115.64222222222222,69.11414195431604L115.7,52.61136852370369L115.75777777777779,81.90075214703879L115.81555555555555,66.35787290996977L115.87333333333333,84.17485491434735L115.9888888888889,81.6102016237047L116.01777777777778,87.24160289764404L116.33555555555554,92.58297234111363L116.42222222222222,77.97770118713379L116.65333333333334,81.30248118771448L116.74000000000001,70.06070338355171L117,88.4920004606247L117.43333333333334,81.24148172802397L117.5488888888889,70.86653400792017L117.60666666666665,91.04963371488785L118.04,47.83678891923693L118.41555555555556,80.10701202021706L119.08,80.37850647502476L119.51333333333334,70.91653482119244L119.54222222222222,86.97256633970473L119.74444444444444,80.00960975223119L119.8888888888889,65.48653373453352L120.03333333333333,84.08874011039734L120.14888888888888,40.53957014613682L120.20666666666666,68.86603583229913L120.66888888888889,81.13695332739088L120.98666666666666,88.77668621804979L121.18888888888888,77.8883976009157L121.21777777777777,89.88869298828973L121.42,65.92608467737836L121.50666666666666,74.21273366610211L122.19999999999999,94.95564443535274L122.28666666666666,83.80119564798143L122.48888888888888,93.85844988293117L122.57555555555555,58.66645934846667L122.60444444444444,72.71994739108617L122.66222222222223,94.30494423707327L122.69111111111111,80.70876057942709L123.26888888888888,74.43241188261244L123.41333333333334,85.58667205439674L123.67333333333333,52.60420113139683L123.7311111111111,80.67789245976343L123.78888888888889,85.33662083413866L124.36666666666666,94.1767151090834L124.59777777777778,63.316240270932525L125.00222222222223,68.1395946873559L125.0311111111111,78.816527750757L125.17555555555556,86.21371867921617L125.32,90.77443178494772L125.52222222222221,49.75011722246807L125.86888888888889,90.81250266234082L126.36,66.88353276252747L126.41777777777777,75.9477082490921L126.47555555555556,76.05706402990553L126.56222222222222,101.89948601192897L126.70666666666666,49.45540536774531L127.19777777777777,92.85894641611313L127.34222222222222,77.16252230273354L127.97777777777777,91.95079183578491L128.06444444444446,59.586915201611006L128.20888888888888,87.32288442717659L128.4111111111111,79.40549760394627L128.52666666666667,82.83017313480377L128.58444444444444,89.92422934373221L128.7577777777778,65.45660279856789L128.78666666666666,72.83742543061575L128.96,84.38893360561796L129.16222222222223,84.20405496491327L129.33555555555557,88.36701905727386L129.42222222222222,90.08912062644958L129.91333333333333,64.84865350193449L129.9711111111111,92.14812499947017L130.26,46.41052500406902L130.34666666666666,60.263644350899604L130.40444444444444,35.43909817271763L130.54888888888888,95.17125562826794L131.01111111111112,61.577847030427726L131.06888888888886,37.740432315402565L131.2422222222222,95.0690082973904L131.35777777777778,76.62812129656476L131.41555555555556,95.95642695162033L131.82,56.67526817321777L132.3111111111111,84.47009135617151L132.6577777777778,88.4403433667289L132.86,74.20488843652937L132.88888888888889,80.0973101059596L133.40888888888887,68.44383752346039L133.46666666666667,91.56264453464085L133.52444444444444,67.45343475871617L133.6111111111111,69.05628412299687L133.6977777777778,-6.877457141876221L134.18888888888887,84.0542411406835L134.50666666666666,61.723652773433265L134.53555555555556,63.990517417589835L134.70888888888888,53.6336885823144L134.9111111111111,74.23121209939322L135.60444444444445,73.60001003742218L135.7777777777778,76.36146601041159L135.83555555555557,51.75460579660204L136.44222222222223,74.31038349204594L136.52888888888887,87.85508688290915L136.64444444444445,82.96746759944493L136.67333333333332,88.96722922060225L136.70222222222222,22.160171826680507L136.87555555555556,75.92644773589241L136.96222222222224,88.33115262455412L137.02,95.92352532015907L137.28,79.73932951026494L137.48222222222222,61.85173454549578L137.85777777777778,83.98379911316766L137.97333333333333,87.34735729959276L138.08888888888887,81.14574163489873L138.46444444444444,78.66697916719649L138.52222222222224,85.24661583370634L138.60888888888888,80.20932418770262L138.95555555555558,79.63215459717645L139.0711111111111,78.55570186509027L139.21555555555554,92.87417712476518L139.2733333333333,61.68416138490042L139.56222222222223,92.84294356240167L139.62,80.00517139169905L139.67777777777778,24.6549194653829L140.0533333333333,86.85104485352835L140.51555555555555,70.178912308481L140.66,92.7557501130634L140.86222222222221,87.6692121161355L141.58444444444444,73.98555208577051L141.61333333333332,80.78006905979582L141.64222222222222,72.08459578620064L141.84444444444443,94.22978092564477L142.13333333333333,86.17657319704693L142.36444444444444,62.51128788789114L142.56666666666666,85.29250246948668L142.68222222222224,53.01664447784424L143,97.61962740951115L143.17333333333332,85.74428395430249L143.34666666666666,72.79996755388048L143.98222222222222,62.82093573941126L144.3,92.62310030725267L144.44444444444446,89.46067117320167L144.5888888888889,67.09901428222656L144.70444444444445,89.2345092958874L144.73333333333332,85.9166903893153L145.0511111111111,69.31746955712637L145.08,93.87593219015335L145.39777777777778,78.86225524213579L145.48444444444445,88.5726866722107L145.68666666666667,95.663053088718L145.77333333333334,94.23087135950726L145.80222222222224,60.89447507593366L145.8311111111111,98.81448947058784L146.64,87.3281774520874L147.13111111111112,92.35539584689671L147.27555555555554,78.77919954723784L147.30444444444444,90.8752291335L147.59333333333333,77.68328404426575L149.26888888888888,77.93733155727386L149.70222222222225,97.30396154191759L150.01999999999998,64.44922463099164L150.04888888888888,61.31982680161795L150.10666666666668,57.160187058978615L150.16444444444446,89.49195778369904L150.2511111111111,72.44608345296648L150.28,74.1454273727205L150.33777777777777,63.542856004503044L151.0022222222222,87.43763343493146L151.14666666666668,99.59786305162643L151.23333333333332,82.35248058372075L151.46444444444447,59.742340339554694L151.7822222222222,96.0473396645652L152.04222222222222,61.40746231873831L152.1288888888889,88.02146940761143L152.15777777777777,95.32306759887273L152.41777777777776,95.59071311685776L152.5911111111111,107.64914925893149L153.05333333333334,101.76898760265773L153.2266666666667,82.46091686354744L153.3422222222222,93.75182902812958L153.60222222222222,49.52472159597608L153.66,68.61913802888658L153.92,81.63574724727208L154.03555555555556,81.96746312247383L154.2088888888889,67.31938212447697L154.35333333333332,92.68336888154349L154.7866666666667,35.287981722089995L154.9888888888889,95.57593037022485L155.10444444444443,89.90397674507564L155.36444444444444,86.00660697619122L155.79777777777778,87.45564622349211L156,78.84285730785795L156.17333333333335,49.84740749994915L156.2888888888889,82.49314655197992L156.31777777777776,101.32557593451607L156.86666666666667,88.08866960472533L156.89555555555555,90.58095934655931L156.95333333333335,86.55945694446564L157.12666666666667,64.51279987229242L157.21333333333334,93.77074952920279L157.99333333333334,97.1054790019989L158.16666666666666,80.40729392899408L158.2822222222222,98.06201937463548L158.3688888888889,53.9454701476627L158.6,91.279284980562L158.65777777777777,65.98455550935533L159.1488888888889,95.22316617435878L159.17777777777778,94.53100001811981L159.72666666666666,81.11337637901306L159.75555555555556,107.8787356879976L159.8422222222222,92.27481573157841L160.04444444444442,91.8375812239117L160.10222222222222,107.01040846771663L160.33333333333334,74.1824254989624L160.39111111111112,55.5876517560747L160.42,92.06739752822453L160.85333333333335,82.85695065392389L161.14222222222222,61.51695366700491L161.2288888888889,89.9163782199224L161.54666666666665,95.62580740451813L161.63333333333335,95.09255577458276L161.69111111111113,95.38242846065098L161.74888888888887,98.56146755483415L162.09555555555556,81.67377097076842L162.58666666666664,100.6407245265113L163.02,100.09757647249435L163.19333333333336,85.667935901218L163.39555555555557,92.40285624398126L163.62666666666667,86.83099265893301L163.7422222222222,104.30432885222966L163.94444444444443,92.30092130766975L163.97333333333336,74.57082625230154L164.00222222222223,60.96311936113569L164.29111111111112,90.15001398987239L164.89777777777778,31.438714822133388L165.04222222222222,94.35289385583665L165.18666666666667,88.24804388152229L165.64888888888888,47.698745886484794L165.79333333333335,91.01487539874184L165.96666666666667,88.58375015523698L166.0822222222222,72.6475248999066L166.1111111111111,90.35843421353235L166.34222222222223,79.14102907975516L166.42888888888888,81.58061844772764L166.45777777777778,79.98585597674054L166.51555555555558,89.7055649360021L166.60222222222222,87.25362124707964L166.86222222222221,88.19929854075116L166.9488888888889,76.35174641344283L166.9777777777778,82.99807637267644L167.03555555555556,83.03667773140802L167.09333333333333,99.20472922590044L167.18,47.68092171351116L167.20888888888888,80.19879708025191L167.38222222222223,76.17898042996725L167.55555555555557,90.86860401100581L167.61333333333334,94.79382405016159L167.70000000000002,97.43005106184219L168.2777777777778,92.46351973215741L168.33555555555557,82.89338882764181L168.7111111111111,96.5621718035804L169.0577777777778,74.12327682971954L169.60666666666665,88.50046458509233L169.66444444444446,99.56750773058998L170.12666666666667,101.27147273222607L170.2133333333333,90.68118495411342L170.2711111111111,96.09717543919882L170.3,88.21427579720816L170.8488888888889,96.93388007746803L171.54222222222222,105.88217486275568L171.6288888888889,87.24695486492583L172.00444444444446,80.66683487097424L172.23555555555555,83.53059122297499L172.46666666666667,79.56580906444127L172.49555555555554,99.61146695084041L172.58222222222224,101.0696717368232L172.64000000000001,92.41924811734094L172.6688888888889,89.681221736802L173.07333333333332,84.9657966958152L173.30444444444444,89.58650724093121L173.94,66.2924645609326L174.11333333333332,56.508272647857666L174.20000000000002,88.67299479908415L174.40222222222224,81.08778949578604L174.7777777777778,88.89312687185075L174.83555555555554,93.49125070042079L174.86444444444444,101.35754627651637L175.06666666666666,58.213510804706154L175.58666666666667,90.92235355907017L176.04888888888888,61.95484243498909L176.2511111111111,86.41528979937237L176.39555555555555,85.40415700276694L176.42444444444445,96.40689991580116L176.59777777777776,84.19330387645299L176.97333333333333,84.74601238303715L177.0311111111111,69.15174718697867L177.20444444444445,52.18596964412266L177.95555555555555,85.75123325983685L178.10000000000002,57.86986499362522L178.47555555555556,60.113683170742476L178.5911111111111,91.15318367216324L179.11111111111111,92.78480280770196L179.34222222222223,90.46872717804378L180.00666666666666,105.96843112839593L180.09333333333333,79.7732921044032L180.12222222222223,79.7524265050888L180.23777777777778,104.18951500786676L180.26666666666668,83.92783922619292L180.38222222222223,91.65290298726823L180.90222222222224,68.58880628479852L181.01777777777778,84.47231937779321L181.68222222222224,33.30457093980578L182.05777777777777,79.83587121963501L182.51999999999998,100.53567743301392L182.83777777777777,100.21267913447487L183.29999999999998,86.23152516947853L183.38666666666668,14.810400035646229L183.70444444444445,90.35032374329036L183.73333333333332,109.16022829877006L183.82,65.56894106335112L184.3111111111111,91.49599250157675L184.42666666666668,37.98269724845886L185.00444444444446,86.91308759318458L185.0622222222222,78.37858593463898L185.46666666666667,85.19190552499559L185.61111111111111,105.36225599712795L186.01555555555555,97.68571359581416L186.04444444444442,97.20327028963302L186.10222222222222,86.95240804884169L186.24666666666667,88.51149859693315L187.05555555555554,76.08996566136679L187.31555555555556,77.79052379396227L187.51777777777778,92.121966375245L187.63333333333333,78.1629806359609L187.80666666666667,85.0147129694621L187.98,93.32869942982992L188.12444444444444,90.9004211028417L188.2111111111111,96.79749332533943L188.2688888888889,74.05613557497662L188.70222222222222,68.28987415631613L188.9622222222222,91.10976082748836L189.19333333333333,90.24913737508987L189.48222222222222,82.5430412689845L189.68444444444444,95.56197871102228L189.8288888888889,95.31790424717798L189.88666666666666,86.68180362383526L189.97333333333333,81.42344272136688L190.23333333333335,88.26603898737166L190.29111111111112,57.085094478395256L190.46444444444444,107.66094362735748L190.81111111111113,49.327335384156974L190.95555555555555,64.88365937603845L191.24444444444444,99.2800516817305L191.53333333333333,91.50855312082504L191.59111111111113,65.50333820448982L192.02444444444444,92.49762378798592L192.3422222222222,81.232935084237L192.4,56.94990425639683L192.51555555555555,88.8442047039668L192.86222222222221,81.47940260834166L192.94888888888892,82.56611720720929L193.93111111111114,89.54337321387398L194.13333333333335,95.71338397926753L194.22,72.81212147076926L194.33555555555557,92.07242531246608L194.74,87.03865252600777L195.05777777777777,88.69386629263562L195.26,84.72813516192967L195.4622222222222,95.52469176716274L195.75111111111113,96.25199347072179L195.83777777777777,101.44119139512381L195.98222222222222,82.99020756615533L196.12666666666667,73.58081250720555L196.3,89.2574968205558L196.64666666666665,88.08209753036499L196.67555555555558,85.94286669625177L197.16666666666666,82.92567156420814L197.25333333333336,80.89380425877043L197.45555555555558,77.56163288487329L197.8022222222222,100.11163422796463L198.23555555555558,70.51193081008064L198.29333333333335,94.07618889543747L198.49555555555557,83.02985809908974L198.78444444444443,87.76628430684408L199.01555555555558,95.61629410584769L199.07333333333335,93.87399298614925L199.1311111111111,98.74051679505243L199.27555555555557,65.08976316452026L199.53555555555556,95.57891874843175L199.82444444444445,103.6708103550805L199.85333333333335,91.98794910642837L200.14222222222222,88.44211753209433L200.2577777777778,90.47280599011316L200.28666666666666,96.7759498887592L200.83555555555557,92.87123590045506L200.98000000000002,75.05885140101117L201.0377777777778,93.45504240194958L201.06666666666666,88.29678332805634L201.1533333333333,93.88351217905682L201.41333333333333,100.96045741770004L201.9333333333333,108.28516101837158L202.5111111111111,43.58566472265457L202.65555555555557,95.74684556325278L202.91555555555556,90.58948830763501L203.08888888888887,86.44646441936493L203.11777777777777,88.52255618572235L203.14666666666668,97.73411707083386L203.23333333333332,98.35600623819565L203.32,99.03104963567522L203.72444444444446,43.929534514745086L203.95555555555558,89.68438694212173L204.44666666666666,99.02308062712353L204.47555555555553,88.34102547168732L204.5911111111111,77.40688558419546L204.73555555555555,74.59483347998726L204.9377777777778,101.82752916547989L205.1977777777778,105.56560717688667L205.25555555555553,98.84613562954797L205.54444444444445,-5.583212349149894L205.7177777777778,96.99039402272966L205.77555555555554,92.69338908460405L205.9488888888889,81.94487640592787L206.00666666666666,101.43159557713403L206.06444444444446,77.79816272523668L206.4111111111111,112.31930655903285L206.4688888888889,90.41833734512329L206.52666666666667,87.21565646595427L206.7577777777778,96.84456470277574L207.1911111111111,95.03177440166473L207.30666666666667,83.41428024239012L207.45111111111112,102.55078742239212L207.5377777777778,90.34591485394373L208,101.4686113860872L208.2888888888889,88.89002650313908L208.31777777777776,95.16577988200719L208.37555555555554,106.22599750094945L208.54888888888888,74.97145754761168L208.57777777777775,86.21589365270403L208.72222222222223,85.40629661083221L208.92444444444445,98.03347947862413L209.0688888888889,81.56902448336285L209.2711111111111,78.32916865083907L209.44444444444446,87.82753721872967L209.82000000000002,88.13987284236485L210.02222222222224,60.4789077838262L210.57111111111112,91.93134085337323L211.14888888888888,86.92378563351103L211.23555555555555,82.4244904783037L211.35111111111112,99.70227356751761L211.38,86.12569414244759L211.58222222222224,84.17314558558995L212.07333333333332,96.83913611041176L212.39111111111112,94.5522958967421L212.70888888888888,83.64714976151785L212.9111111111111,104.78599411911433L213.08444444444444,89.51344227790833L213.77777777777777,88.85792059368559L214.44222222222223,41.626809332105864L214.70222222222225,91.55787609683144L215.13555555555556,101.25410830974579L215.16444444444446,96.26987658606636L215.36666666666667,102.529002322091L215.48222222222222,100.45538024107617L215.85777777777778,87.59791542424097L215.88666666666668,70.48619067668915L216.17555555555555,98.082955704795L216.29111111111112,96.68990581565434L216.5222222222222,100.84610921806758L216.5511111111111,102.77548163466984L216.66666666666669,99.90367375479805L216.92666666666668,77.94466398821938L216.95555555555555,97.55474954181248L217.24444444444447,78.59144451883104L217.27333333333334,85.32922356658513L217.3022222222222,92.87100013097128L217.53333333333333,82.06152925226424L217.6488888888889,67.46194014284346L218.11111111111111,84.23498202694788L218.3422222222222,83.92811036109924L218.80444444444444,104.23411080572342L218.92,92.64644738038382L218.97777777777776,97.06490896807777L219.0066666666667,100.71911198563045L219.09333333333333,82.52010679244995L219.35333333333332,97.30480441782211L219.38222222222223,89.97474884986877L219.64222222222222,104.70537863837349L219.7288888888889,81.52296691470677L220.01777777777778,103.43598394923741L220.16222222222223,77.09546356730992L220.97111111111113,34.38710652457344L221.20222222222222,98.31897274653119L221.4622222222222,85.54896072546643L221.51999999999998,87.85636003812155L221.63555555555556,87.58813688490126L221.8088888888889,86.64973307980432L221.89555555555555,96.78852819071876L222.09777777777776,95.39874960316553L222.18444444444444,102.78611483838823L222.3288888888889,101.29032250245413L222.41555555555556,91.38691964414384L222.44444444444443,92.35185341040295L222.64666666666665,91.1247439781825L222.76222222222222,81.33090909322104L222.87777777777777,90.38764605257248L223.16666666666666,64.09332470099133L223.19555555555556,46.162955257627694L223.54222222222222,93.07374420430925L223.65777777777777,81.64687556690642L223.85999999999999,98.53286871645187L223.97555555555556,93.99749493598938L224.29333333333335,86.22108647558424L224.64,90.14882335397934L225.10222222222222,79.3017236656613L225.70888888888888,34.03892215092978L225.82444444444442,97.7354196972317L226.2577777777778,107.88816057311165L226.4022222222222,73.84200972980925L226.48888888888888,79.803358607822L226.66222222222223,102.4254818360011L226.77777777777777,88.37874269485474L226.89333333333335,110.17899413241281L227.12444444444444,97.08749568462372L227.29777777777778,104.61917542086708L227.32666666666665,99.62833036316766L227.35555555555555,98.66027265124852L227.8177777777778,92.11453374226889L228.02,87.21980600886876L228.07777777777778,119.36671282847723L228.25111111111113,98.68972615400952L228.48222222222222,80.19371035363939L228.56888888888886,69.61326595147452L228.68444444444444,107.47248718473648L228.7422222222222,105.85191384951275L228.97333333333336,94.03304307990605L229.20444444444445,74.77604590521919L229.29111111111112,91.32970428466797L229.69555555555556,100.11302526791891L229.8111111111111,79.96265625953674L230.04222222222222,80.85365860992009L230.12888888888887,81.36757714218565L230.3022222222222,93.5756502813763L230.79333333333335,80.94101709789702L230.82222222222222,85.66243657800887L230.88,102.0645541217592L231.4,72.3326547543208L231.51555555555558,87.98276195261214L231.60222222222222,104.75807311799791L232.03555555555556,106.64927445517647L232.12222222222223,91.56696501043108L232.23777777777778,103.37285077571869L232.44,89.02054259512161L232.4977777777778,101.91548886564043L232.81555555555556,79.05617564254338L232.98888888888888,81.2044541305966L233.39333333333332,96.48257013161978L233.74,107.73644880453747L233.94222222222223,89.30762730704414L234.17333333333332,101.90889321433174L234.40444444444444,83.17344760894775L234.4333333333333,91.28132438659668L234.57777777777778,97.86252302593654L234.69333333333333,76.74771536721124L235.0688888888889,85.09426748752594L235.18444444444444,83.76557677321965L235.58888888888887,65.5199304819107L235.93555555555557,94.72784985436334L235.96444444444444,87.99007670084637L236.16666666666666,102.75941983858746L236.39777777777778,81.64427620834776L236.5711111111111,67.23576058281793L236.74444444444444,95.49612829420303L236.94666666666666,99.68194434377884L237.00444444444446,61.78278375996485L237.26444444444445,96.54307447539436L237.32222222222222,104.28066938453252L237.3511111111111,98.71507726775276L237.9,87.70252634419336L237.98666666666668,84.76290526654985L238.24666666666667,107.21592283248901L238.62222222222223,96.11562440130447L238.94,82.51056991683113L239.02666666666667,91.60430500242447L239.31555555555553,74.87475669384003L239.4311111111111,100.3682810995314" style="fill: none;" fill="none"></path></g></g></g></g></g></g><g transform="translate(70, 178)" clip-path="url(#clip_1)"><clipPath id="clip_1"><rect width="260" height="21"></rect></clipPath><g><g><line x1="0" y1="0" x2="0" y2="5" style="visibility: inherit;" fill="rgb(0, 0, 0)" stroke="rgb(204, 204, 204)" stroke-width="1px"></line><line x1="28.888888888888886" y1="0" x2="28.888888888888886" y2="5" style="visibility: inherit;" fill="rgb(0, 0, 0)" stroke="rgb(204, 204, 204)" stroke-width="1px"></line><line x1="57.77777777777777" y1="0" x2="57.77777777777777" y2="5" style="visibility: inherit;" fill="rgb(0, 0, 0)" stroke="rgb(204, 204, 204)" stroke-width="1px"></line><line x1="86.66666666666666" y1="0" x2="86.66666666666666" y2="5" style="visibility: inherit;" fill="rgb(0, 0, 0)" stroke="rgb(204, 204, 204)" stroke-width="1px"></line><line x1="115.55555555555554" y1="0" x2="115.55555555555554" y2="5" style="visibility: inherit;" fill="rgb(0, 0, 0)" stroke="rgb(204, 204, 204)" stroke-width="1px"></line><line x1="144.44444444444446" y1="0" x2="144.44444444444446" y2="5" style="visibility: inherit;" fill="rgb(0, 0, 0)" stroke="rgb(204, 204, 204)" stroke-width="1px"></line><line x1="173.33333333333331" y1="0" x2="173.33333333333331" y2="5" style="visibility: inherit;" fill="rgb(0, 0, 0)" stroke="rgb(204, 204, 204)" stroke-width="1px"></line><line x1="202.22222222222223" y1="0" x2="202.22222222222223" y2="5" style="visibility: inherit;" fill="rgb(0, 0, 0)" stroke="rgb(204, 204, 204)" stroke-width="1px"></line><line x1="231.1111111111111" y1="0" x2="231.1111111111111" y2="5" style="visibility: inherit;" fill="rgb(0, 0, 0)" stroke="rgb(204, 204, 204)" stroke-width="1px"></line><line x1="260" y1="0" x2="260" y2="5" style="visibility: inherit;" fill="rgb(0, 0, 0)" stroke="rgb(204, 204, 204)" stroke-width="1px"></line></g><g transform="translate(0, 8)"><text x="0" y="0" dx="0em" dy="0.95em" style="text-anchor: middle; visibility: hidden; font-family: Roboto, sans-serif; font-size: 12px; font-weight: 200;" fill="rgb(50, 49, 63)" stroke="none" stroke-width="1px">-1k</text><text x="28.888888888888886" y="0" dx="0em" dy="0.95em" style="text-anchor: middle; visibility: inherit; font-family: Roboto, sans-serif; font-size: 12px; font-weight: 200;" fill="rgb(50, 49, 63)" stroke="none" stroke-width="1px">0</text><text x="57.77777777777777" y="0" dx="0em" dy="0.95em" style="text-anchor: middle; visibility: inherit; font-family: Roboto, sans-serif; font-size: 12px; font-weight: 200;" fill="rgb(50, 49, 63)" stroke="none" stroke-width="1px">1k</text><text x="86.66666666666666" y="0" dx="0em" dy="0.95em" style="text-anchor: middle; visibility: inherit; font-family: Roboto, sans-serif; font-size: 12px; font-weight: 200;" fill="rgb(50, 49, 63)" stroke="none" stroke-width="1px">2k</text><text x="115.55555555555554" y="0" dx="0em" dy="0.95em" style="text-anchor: middle; visibility: inherit; font-family: Roboto, sans-serif; font-size: 12px; font-weight: 200;" fill="rgb(50, 49, 63)" stroke="none" stroke-width="1px">3k</text><text x="144.44444444444446" y="0" dx="0em" dy="0.95em" style="text-anchor: middle; visibility: inherit; font-family: Roboto, sans-serif; font-size: 12px; font-weight: 200;" fill="rgb(50, 49, 63)" stroke="none" stroke-width="1px">4k</text><text x="173.33333333333331" y="0" dx="0em" dy="0.95em" style="text-anchor: middle; visibility: inherit; font-family: Roboto, sans-serif; font-size: 12px; font-weight: 200;" fill="rgb(50, 49, 63)" stroke="none" stroke-width="1px">5k</text><text x="202.22222222222223" y="0" dx="0em" dy="0.95em" style="text-anchor: middle; visibility: inherit; font-family: Roboto, sans-serif; font-size: 12px; font-weight: 200;" fill="rgb(50, 49, 63)" stroke="none" stroke-width="1px">6k</text><text x="231.1111111111111" y="0" dx="0em" dy="0.95em" style="text-anchor: middle; visibility: inherit; font-family: Roboto, sans-serif; font-size: 12px; font-weight: 200;" fill="rgb(50, 49, 63)" stroke="none" stroke-width="1px">7k</text><text x="260" y="0" dx="0em" dy="0.95em" style="text-anchor: middle; visibility: hidden; font-family: Roboto, sans-serif; font-size: 12px; font-weight: 200;" fill="rgb(50, 49, 63)" stroke="none" stroke-width="1px">8k</text></g><line x1="0" y1="0" x2="260" y2="0" fill="rgb(0, 0, 0)" stroke="rgb(204, 204, 204)" stroke-width="1px"></line></g></g></g></g></svg>