<svg viewBox="0 0 330.0000305175781 200.00001525878906" xmlns="http://www.w3.org/2000/svg"><g><g><g><g><g><line x1="58" y1="178" x2="53" y2="178" style="visibility: inherit;" fill="rgb(0, 0, 0)" stroke="rgb(204, 204, 204)" stroke-width="1px"></line><line x1="58" y1="158.22222222222223" x2="53" y2="158.22222222222223" style="visibility: inherit;" fill="rgb(0, 0, 0)" stroke="rgb(204, 204, 204)" stroke-width="1px"></line><line x1="58" y1="138.44444444444446" x2="53" y2="138.44444444444446" style="visibility: inherit;" fill="rgb(0, 0, 0)" stroke="rgb(204, 204, 204)" stroke-width="1px"></line><line x1="58" y1="118.66666666666664" x2="53" y2="118.66666666666664" style="visibility: inherit;" fill="rgb(0, 0, 0)" stroke="rgb(204, 204, 204)" stroke-width="1px"></line><line x1="58" y1="98.88888888888891" x2="53" y2="98.88888888888891" style="visibility: inherit;" fill="rgb(0, 0, 0)" stroke="rgb(204, 204, 204)" stroke-width="1px"></line><line x1="58" y1="79.11111111111113" x2="53" y2="79.11111111111113" style="visibility: inherit;" fill="rgb(0, 0, 0)" stroke="rgb(204, 204, 204)" stroke-width="1px"></line><line x1="58" y1="59.33333333333332" x2="53" y2="59.33333333333332" style="visibility: inherit;" fill="rgb(0, 0, 0)" stroke="rgb(204, 204, 204)" stroke-width="1px"></line><line x1="58" y1="39.55555555555559" x2="53" y2="39.55555555555559" style="visibility: inherit;" fill="rgb(0, 0, 0)" stroke="rgb(204, 204, 204)" stroke-width="1px"></line><line x1="58" y1="19.777777777777786" x2="53" y2="19.777777777777786" style="visibility: inherit;" fill="rgb(0, 0, 0)" stroke="rgb(204, 204, 204)" stroke-width="1px"></line><line x1="58" y1="0" x2="53" y2="0" style="visibility: inherit;" fill="rgb(0, 0, 0)" stroke="rgb(204, 204, 204)" stroke-width="1px"></line></g><g transform="translate(48, 0)"><text x="0" y="178" dx="0em" dy="0.3em" style="text-anchor: end; visibility: hidden; font-family: Roboto, sans-serif; font-size: 12px; font-weight: 200;" fill="rgb(50, 49, 63)" stroke="none" stroke-width="1px">0.22</text><text x="0" y="158.22222222222223" dx="0em" dy="0.3em" style="text-anchor: end; visibility: inherit; font-family: Roboto, sans-serif; font-size: 12px; font-weight: 200;" fill="rgb(50, 49, 63)" stroke="none" stroke-width="1px">0.24</text><text x="0" y="138.44444444444446" dx="0em" dy="0.3em" style="text-anchor: end; visibility: hidden; font-family: Roboto, sans-serif; font-size: 12px; font-weight: 200;" fill="rgb(50, 49, 63)" stroke="none" stroke-width="1px">0.26</text><text x="0" y="118.66666666666664" dx="0em" dy="0.3em" style="text-anchor: end; visibility: inherit; font-family: Roboto, sans-serif; font-size: 12px; font-weight: 200;" fill="rgb(50, 49, 63)" stroke="none" stroke-width="1px">0.28</text><text x="0" y="98.88888888888891" dx="0em" dy="0.3em" style="text-anchor: end; visibility: hidden; font-family: Roboto, sans-serif; font-size: 12px; font-weight: 200;" fill="rgb(50, 49, 63)" stroke="none" stroke-width="1px">0.3</text><text x="0" y="79.11111111111113" dx="0em" dy="0.3em" style="text-anchor: end; visibility: inherit; font-family: Roboto, sans-serif; font-size: 12px; font-weight: 200;" fill="rgb(50, 49, 63)" stroke="none" stroke-width="1px">0.32</text><text x="0" y="59.33333333333332" dx="0em" dy="0.3em" style="text-anchor: end; visibility: hidden; font-family: Roboto, sans-serif; font-size: 12px; font-weight: 200;" fill="rgb(50, 49, 63)" stroke="none" stroke-width="1px">0.34</text><text x="0" y="39.55555555555559" dx="0em" dy="0.3em" style="text-anchor: end; visibility: inherit; font-family: Roboto, sans-serif; font-size: 12px; font-weight: 200;" fill="rgb(50, 49, 63)" stroke="none" stroke-width="1px">0.36</text><text x="0" y="19.777777777777786" dx="0em" dy="0.3em" style="text-anchor: end; visibility: hidden; font-family: Roboto, sans-serif; font-size: 12px; font-weight: 200;" fill="rgb(50, 49, 63)" stroke="none" stroke-width="1px">0.38</text><text x="0" y="0" dx="0em" dy="0.3em" style="text-anchor: end; visibility: hidden; font-family: Roboto, sans-serif; font-size: 12px; font-weight: 200;" fill="rgb(50, 49, 63)" stroke="none" stroke-width="1px">0.4</text></g><line x1="58" y1="0" x2="58" y2="178" fill="rgb(0, 0, 0)" stroke="rgb(204, 204, 204)" stroke-width="1px"></line></g></g><g transform="translate(58, 0)" clip-path="url(#clip_0)"><clipPath id="clip_0"><rect width="271" height="177"></rect></clipPath><g><g><g><line x1="0" y1="0" x2="0" y2="178" fill="rgb(0, 0, 0)" stroke="rgb(60, 60, 60)" stroke-width="1px" opacity="0.25"></line><line x1="30.22222222222222" y1="0" x2="30.22222222222222" y2="178" fill="rgb(0, 0, 0)" stroke="rgb(60, 60, 60)" stroke-width="1px" opacity="0.25"></line><line x1="60.44444444444444" y1="0" x2="60.44444444444444" y2="178" fill="rgb(0, 0, 0)" stroke="rgb(60, 60, 60)" stroke-width="1px" opacity="0.25"></line><line x1="90.66666666666666" y1="0" x2="90.66666666666666" y2="178" fill="rgb(0, 0, 0)" stroke="rgb(60, 60, 60)" stroke-width="1px" opacity="0.25"></line><line x1="120.88888888888889" y1="0" x2="120.88888888888889" y2="178" fill="rgb(0, 0, 0)" stroke="rgb(60, 60, 60)" stroke-width="1px" opacity="0.25"></line><line x1="151.11111111111111" y1="0" x2="151.11111111111111" y2="178" fill="rgb(0, 0, 0)" stroke="rgb(60, 60, 60)" stroke-width="1px" opacity="0.25"></line><line x1="181.33333333333331" y1="0" x2="181.33333333333331" y2="178" fill="rgb(0, 0, 0)" stroke="rgb(60, 60, 60)" stroke-width="1px" opacity="0.25"></line><line x1="211.55555555555557" y1="0" x2="211.55555555555557" y2="178" fill="rgb(0, 0, 0)" stroke="rgb(60, 60, 60)" stroke-width="1px" opacity="0.25"></line><line x1="241.77777777777777" y1="0" x2="241.77777777777777" y2="178" fill="rgb(0, 0, 0)" stroke="rgb(60, 60, 60)" stroke-width="1px" opacity="0.25"></line><line x1="272" y1="0" x2="272" y2="178" fill="rgb(0, 0, 0)" stroke="rgb(60, 60, 60)" stroke-width="1px" opacity="0.25"></line></g><g><line x1="0" y1="178" x2="272" y2="178" fill="rgb(0, 0, 0)" stroke="rgb(60, 60, 60)" stroke-width="1px" opacity="0.25"></line><line x1="0" y1="158.22222222222223" x2="272" y2="158.22222222222223" fill="rgb(0, 0, 0)" stroke="rgb(60, 60, 60)" stroke-width="1px" opacity="0.25"></line><line x1="0" y1="138.44444444444446" x2="272" y2="138.44444444444446" fill="rgb(0, 0, 0)" stroke="rgb(60, 60, 60)" stroke-width="1px" opacity="0.25"></line><line x1="0" y1="118.66666666666664" x2="272" y2="118.66666666666664" fill="rgb(0, 0, 0)" stroke="rgb(60, 60, 60)" stroke-width="1px" opacity="0.25"></line><line x1="0" y1="98.88888888888891" x2="272" y2="98.88888888888891" fill="rgb(0, 0, 0)" stroke="rgb(60, 60, 60)" stroke-width="1px" opacity="0.25"></line><line x1="0" y1="79.11111111111113" x2="272" y2="79.11111111111113" fill="rgb(0, 0, 0)" stroke="rgb(60, 60, 60)" stroke-width="1px" opacity="0.25"></line><line x1="0" y1="59.33333333333332" x2="272" y2="59.33333333333332" fill="rgb(0, 0, 0)" stroke="rgb(60, 60, 60)" stroke-width="1px" opacity="0.25"></line><line x1="0" y1="39.55555555555559" x2="272" y2="39.55555555555559" fill="rgb(0, 0, 0)" stroke="rgb(60, 60, 60)" stroke-width="1px" opacity="0.25"></line><line x1="0" y1="19.777777777777786" x2="272" y2="19.777777777777786" fill="rgb(0, 0, 0)" stroke="rgb(60, 60, 60)" stroke-width="1px" opacity="0.25"></line><line x1="0" y1="0" x2="272" y2="0" fill="rgb(0, 0, 0)" stroke="rgb(60, 60, 60)" stroke-width="1px" opacity="0.25"></line></g></g></g><g><g><line x1="0" y1="395.5555555555556" x2="272" y2="395.5555555555556" fill="rgb(0, 0, 0)" stroke="rgb(153, 153, 153)" stroke-width="1.5px"></line></g></g><g><g><line x1="30.22222222222222" y1="0" x2="30.22222222222222" y2="178" fill="rgb(0, 0, 0)" stroke="rgb(153, 153, 153)" stroke-width="1.5px"></line></g></g><g><g><g><g><g><path stroke="rgb(255, 112, 67)" stroke-width="2px" d="M34.906666666666666,-6.877367467800792L35.02755555555555,13.958743467301824L35.465777777777774,1.4160606170888732L35.768,17.289881839316934L36.584,3.0219631174716692L36.599111111111114,16.887949635908324L36.90133333333333,33.52980823322732L37.17333333333333,35.87360938428551L37.38488888888889,41.229644401786246L38.32177777777778,35.84194381983576L38.729777777777784,50.069376516320915L38.971555555555554,31.092511879992568L39.077333333333335,27.9216102244806L39.092444444444446,35.16416836049588L39.59111111111111,22.50488619877874L39.80266666666667,19.37571128357963L39.92355555555556,32.58744203574748L39.99911111111111,40.219473673139L40.029333333333334,45.88368017019593L40.21066666666667,32.80844782769253L40.361777777777775,35.793238289853676L41.01155555555556,25.477384906495743L41.132444444444445,49.76671360092876L41.25333333333334,34.76473836186824L41.64622222222222,45.30230083757416L41.782222222222224,59.36937074818671L41.842666666666666,59.92839290617069L41.87288888888889,69.48011784206666L42.08444444444445,58.11280797255514L42.114666666666665,48.374810054859935L42.220444444444446,55.11999160163529L42.34133333333334,46.37449589758351L42.432,55.27412196438298L42.855111111111114,42.47428863834891L43.958222222222226,51.88777052453178L44.45688888888889,46.95451343576527L44.50222222222222,56.288440625335404L44.75911111111111,43.66447599755865L44.89511111111111,48.77210238790982L44.91022222222222,58.52861778799141L45.00088888888889,47.26416536951639L45.016000000000005,38.8519835863247L45.09155555555555,32.854771054741896L45.36355555555556,30.165169857118748L45.40888888888889,46.56128594607597L45.54488888888889,51.40890626375839L46.285333333333334,60.86200315050598L46.330666666666666,61.10067141362748L46.42133333333333,60.08394545368254L46.512,48.85479338597399L46.587555555555554,47.31230589328887L46.73866666666667,47.85643532091258L46.82933333333333,30.557234332246832L46.90488888888889,37.3297904337479L47.69066666666667,41.43616340985095L47.76622222222222,58.72525485480604L47.781333333333336,56.39139470068818L48.053333333333335,44.99973373245786L48.24977777777778,45.648107720536885L48.44622222222222,56.13801549130724L49.02044444444444,40.38477849449478L49.27733333333333,50.04066801294478L49.57955555555556,54.58903234933692L49.775999999999996,55.96639628914588L50.108444444444444,52.79996413745368L50.153777777777776,66.46056069852311L50.36533333333333,48.15395307891405L50.425777777777775,53.8277980560565L51.15111111111111,54.961090855270875L51.25688888888889,52.81259898028324L51.589333333333336,35.38027299320297L51.77066666666666,49.2249152897996L51.92177777777778,50.39509985548138L52.37511111111111,66.10280654385149L52.54133333333333,46.434749413854654L52.662222222222226,45.83570054133343L52.75288888888889,53.22475278287233L53.236444444444444,38.8334526189048L53.29688888888889,30.606376900347804L53.67466666666667,30.015928902007097L53.916444444444444,54.269168682892634L53.931555555555555,9.186050863530646L54.15822222222222,25.04054417498897L54.218666666666664,43.629599036502796L54.47555555555556,47.13736946023515L55.004444444444445,35.346968976479836L55.12533333333333,16.996404758453238L55.42755555555556,16.906507908121686L55.639111111111106,15.16362331240332L55.77511111111111,-3.117009959379395L55.86577777777778,6.058660463767833L55.94133333333333,8.528954999082531L56.04711111111111,21.037799341671974L56.18311111111111,34.879823420361674L56.394666666666666,39.278042809515846L56.42488888888889,57.19470731862035L56.47022222222222,55.749777033612986L56.60622222222222,47.7313292074318L57.13511111111111,51.45160285918605L57.49777777777778,57.23957167373647L57.81511111111111,64.15637927370531L58.08711111111111,52.054720066690024L58.22311111111111,50.570218356737314L58.41955555555556,42.38719077445402L58.464888888888886,51.69600700261593L58.58577777777778,50.00964716692871L59.190222222222225,56.037566185382325L59.44711111111111,64.73542110678129L59.598222222222226,56.998577349059566L59.64355555555555,51.15041587710746L59.94577777777778,48.218258305154485L60.187555555555555,41.45975478184627L60.45955555555555,51.472947034062074L60.64088888888889,39.92716416354908L60.897777777777776,40.23926757555765L60.98844444444444,38.72324835262966L61.351111111111116,32.23364508087134L61.547555555555554,30.19752266897909L61.59288888888889,38.158976307211574L61.608000000000004,25.682803514022584L61.72888888888889,30.222416261949174L61.78933333333333,38.32254154556742L61.89511111111111,38.06209254772383L62.635555555555555,53.022997006176716L62.696000000000005,41.923143348401716L62.80177777777778,34.64003346573996L62.93777777777778,28.719499852859393L63.270222222222216,43.04549712071356L63.330666666666666,46.70467191481977L63.45155555555556,49.14174620436266L63.57244444444444,32.205176841642945L63.63288888888889,42.661948523444536L63.935111111111105,40.369504166556936L64.01066666666667,22.861958586919428L64.02577777777778,10.35868365193296L64.10133333333333,24.306908440340884L64.28266666666667,34.20955917078547L64.328,44.98925730092303L64.40355555555556,52.34671696062011L64.69066666666667,52.33473858324428L64.93244444444444,55.99783405316515L65.08355555555556,41.834008257835315L65.26488888888889,44.099073042554515L65.65777777777777,50.06319683596467L65.79377777777778,46.07862224595068L66.32266666666666,26.128119994366727L66.33777777777777,37.140910845497025L66.368,45.85384180767594L67.03288888888889,44.92286529515144L67.15377777777778,35.31663723612203L67.28977777777777,34.05852596655118L67.32,48.412710803251564L67.39555555555556,40.49643700636158L67.77333333333334,41.838413919243955L67.78844444444445,41.810555749939795L67.93955555555556,41.24415608540261L67.96977777777778,56.22627951744908L68.04533333333333,63.5136161926014L68.2568888888889,66.44677517244291L68.34755555555556,72.07253563196242L68.48355555555555,62.69674124328098L68.71022222222223,59.904176419357604L68.80088888888889,66.31156989126877L69.5111111111111,62.13002372695687L69.60177777777778,57.74273233958295L69.85866666666668,56.293625603870474L69.94933333333333,48.66499232827315L70.68977777777778,60.084182413557L70.79555555555555,56.90415289198354L70.8711111111111,50.217453185554994L71.06755555555556,60.93124166425928L71.62666666666667,59.65842285266966L71.83822222222223,64.22101176222365L72.36711111111111,66.57707829472874L73.62133333333334,62.766314011664576L73.75733333333334,46.39934821636563L73.89333333333333,52.20696035583798L73.98400000000001,65.960255312946L74.34666666666666,62.835093328173876L75.05688888888889,71.63885661624158L75.17777777777778,65.8663314567411L75.72177777777779,72.38032156810256L75.96355555555556,73.57565724271258L76.00888888888889,79.33700529122322L76.12977777777779,75.70968380666824L76.17511111111111,60.78247642508709L76.53777777777779,60.859282535926546L76.59822222222222,52.65711227413976L77.05155555555557,56.267954080775496L77.62577777777778,55.11041594381309L77.89777777777779,52.03103757932223L77.98844444444444,67.74257863449382L78.23022222222222,59.05158509412469L78.50222222222222,75.15856646590204L78.51733333333334,69.19939613861173L79.03111111111112,65.5166777694894L79.18222222222222,57.817060010446866L79.22755555555557,68.36201791705842L79.24266666666666,67.05671008605391L79.27288888888889,63.98297769864912L79.288,80.68179597282719L79.66577777777778,63.000601019077024L80.16444444444444,57.25388697587868L80.7688888888889,79.4632250641656L81.23733333333334,68.14656691533894L81.64533333333334,65.44815101295252L81.7208888888889,74.422860955282L82.05333333333334,80.19097737045789L82.34044444444444,85.01836714754194L82.56711111111112,87.21875055530809L82.80888888888889,70.7179197835209L83.24711111111112,71.68022915062335L83.29244444444444,78.74964539145977L83.67022222222222,67.36148769022357L84.0631111111111,63.43444016857407L84.32,68.89216640628123L84.62222222222222,77.73367331513477L84.89422222222223,64.95482228517426L84.92444444444445,66.6135386366838L84.95466666666667,68.93147061700785L85.04533333333333,67.71664693217575L85.46844444444444,72.58404791908124L85.68,87.977071434266L86.52622222222223,82.45059191320074L86.58666666666667,84.18599465966463L86.75288888888888,83.86774231018106L87.22133333333333,27.085159593948628L87.34222222222223,36.14670169135998L87.53866666666667,49.27588928145149L87.61422222222222,53.47582227363706L87.85600000000001,40.912535440505025L87.93155555555555,51.506462644485914L87.96177777777778,45.742723210555624L88.11288888888889,52.92831647231321L88.17333333333333,58.720752749514084L88.61155555555555,58.59016741534365L88.79288888888888,67.02177427012566L89.57866666666666,75.42200456472875L89.74488888888888,88.94643728846563L90.00177777777778,69.39053015194223L90.42488888888889,72.43710367317792L90.81777777777778,72.23798428371362L90.9991111111111,72.40525549620607L91.16533333333334,68.42270376532075L91.21066666666667,59.64642496919574L92.072,44.24012967490054L92.14755555555556,46.85707824553785L92.16266666666667,63.38596057503202L92.31377777777779,71.77076475122175L93.41688888888889,84.31491339649583L93.58311111111111,88.94927726852391L93.59822222222222,84.1919325987547L93.62844444444444,81.9443021403448L93.704,91.02173336135195L93.71911111111112,91.59614538489554L94.09688888888888,91.95475015246136L94.17244444444444,92.23261590721168L94.21777777777778,95.08994849741303L94.33866666666667,82.81660432946585L94.6408888888889,91.35533202885732L94.68622222222221,99.31724502165599L94.70133333333334,107.59156157021742L94.928,103.89016119970557L95.26044444444445,100.0930133627541L95.45688888888888,94.11182345615613L95.48711111111112,98.48807461725413L95.68355555555556,106.2096762054501L96.24266666666666,108.8275153805153L96.60533333333333,109.78511213146332L96.71111111111111,102.00719435343751L96.80177777777777,90.9140866557535L97.16444444444444,98.73430330248668L97.20977777777777,92.79384257278706L98.10133333333334,91.03540713054393L98.35822222222222,98.61469590012373L98.37333333333333,96.88461194442202L98.67555555555555,78.32346622815291L98.7208888888889,85.24226521255906L98.85688888888889,93.71556468355725L99.40088888888889,98.44283692567386L99.44622222222222,98.60116543555229L99.688,108.57074258039773L100.15644444444445,95.46143214953835L100.57955555555554,97.66238944363332L100.70044444444444,96.62314705695417L100.7608888888889,101.85142378927031L100.88177777777777,91.2929413241061L101.048,87.19728470972653L101.44088888888889,71.81130605948188L101.51644444444445,95.7593697058558L101.75822222222223,97.53350816651582L102,94.95258242710403L102.1208888888889,80.13670049602172L102.2568888888889,62.46870720548724L102.39288888888889,60.28896061411808L102.55911111111111,69.62615200577964L102.57422222222222,86.63007867222966L102.75555555555556,91.29655540451303L102.78577777777778,76.44427409714069L103.36,78.02576724589562L103.54133333333333,74.75744259033354L103.82844444444444,84.39351253050157L104.176,91.25681773228001L104.47822222222223,84.06249850234916L105.20355555555555,71.11003621629462L105.33955555555555,69.17333487530831L105.38488888888888,92.84044596535803L105.4151111111111,83.04871564232347L106.18577777777779,85.0644576854887L106.2311111111111,97.21091918658176L106.53333333333333,99.00752440598184L106.56355555555555,107.41346243988087L106.57866666666666,102.53825023156772L106.68444444444445,102.7365498737768L106.95644444444444,93.24830042631415L107.37955555555556,90.91042124284564L107.68177777777778,87.92697722877354L107.80266666666667,91.36120892662977L108.27111111111111,96.82373655762443L108.528,89.52504669052726L108.80000000000001,95.32756150417947L108.92088888888888,101.75110810722296L109.38933333333334,103.29801947774388L109.79733333333334,91.66898928623539L110.14488888888889,94.28191930907981L110.58311111111111,81.82520071514593L110.74933333333334,87.98789967340453L110.99111111111111,99.61920933139326L111.20266666666666,95.88837851809663L111.52,93.45165683663217L112.12444444444444,103.7095244623071L112.45688888888888,89.23957855881332L112.53244444444444,69.11444481374804L113.09155555555556,73.80149032371429L113.25777777777778,85.35162941036931L113.34844444444444,88.14175397738141L113.56,79.37465924372864L113.59022222222222,88.73140308933482L114.07377777777778,95.95439929637193L114.43644444444445,100.03792771356363L114.61777777777777,99.48814921770729L114.648,93.10949812912156L114.73866666666667,72.82760154886303L114.92,78.50550621426723L115.29777777777777,77.57769778509248L115.7208888888889,79.1622122368904L115.75111111111111,83.07119135177952L115.81155555555554,96.6628303508304L116.03822222222222,86.89613830661169L116.65777777777777,96.99600780310801L116.70311111111111,94.86852767647845L117.504,96.80215900688295L117.54933333333332,104.3978191150164L117.70044444444444,110.7014654384482L117.97244444444445,100.12634084461703L117.98755555555555,107.37307032780328L118.24444444444444,108.21357719602078L118.28977777777777,99.37991262311213L118.80355555555555,99.14689520167661L118.83377777777778,104.06021420989181L118.93955555555556,107.23778614964993L119.34755555555556,108.10347777346918L119.48355555555555,104.79332438817379L119.80088888888889,104.42918494370039L120.16355555555555,99.52389865136023L120.2391111111111,99.68820403757549L120.32977777777778,90.82140509068023L120.73777777777778,100.97138755454715L121.04,101.59284531832199L121.11555555555556,114.78768969763928L121.34222222222223,109.99537157131996L121.41777777777777,104.95226890777475L122.06755555555556,107.22078789500019L122.128,97.03611441655198L122.44533333333334,101.83203022601153L122.47555555555556,118.47404973261722L122.71733333333333,113.49945192136933L122.74755555555555,113.75169036215358L122.83822222222223,107.78022960612002L122.86844444444445,105.81634683218229L123.14044444444446,106.2457174892291L123.488,107.11909904424071L123.62400000000001,105.65519042087494L123.91111111111111,109.7061367865775L124.07733333333333,97.29961310709427L124.10755555555556,91.70684300128897L124.19822222222223,101.77883067421021L124.39466666666667,111.60862264913132L124.66666666666666,109.66895434653514L125.256,110.47982888788763L125.60355555555556,119.35024572500724L125.664,113.7854862595944L125.67911111111111,112.52746131332805L125.78488888888889,100.10294103411094L126.04177777777778,100.18396383794499L126.20800000000001,101.04916512731127L126.37422222222222,90.59915782204648L126.48,82.5074569455269L126.57066666666667,60.109501074707175L126.93333333333334,68.09042051888848L127.82488888888889,90.97845318523781L128.36888888888888,88.35527175232416L128.384,96.78686572583636L128.44444444444443,95.05936255802646L128.74666666666667,106.3053897995084L128.76177777777778,115.4404786679809L128.7768888888889,96.76106592736629L128.89777777777778,80.40889278153442L129.56266666666667,87.50821406039847L129.66844444444445,89.77649776772614L129.71377777777778,103.52445480407846L130.00088888888888,116.0476944013663L130.81688888888888,114.71808986185691L130.95288888888888,113.50651632869794L130.98311111111113,115.33606787530648L131.04355555555557,114.73176711140248L131.1342222222222,92.58197621507351L131.17955555555557,102.48756324186999L131.28533333333334,89.1801367033957L131.40622222222223,99.9526992934608L131.45155555555556,109.28352384752016L131.63288888888889,113.01952217742726L132.0408888888889,105.02396303582476L132.10133333333334,98.15007603401251L132.26755555555556,101.73492262503092L132.43377777777778,105.95247977817404L133.46133333333333,107.54195196403342L133.6728888888889,108.3951856869853L133.79377777777776,122.04811533030914L134.00533333333334,106.60005680563278L134.02044444444445,109.39428480901987L134.41333333333333,104.19347292313843L134.6248888888889,99.19634322005429L135.00266666666667,96.2985857176127L135.4408888888889,107.90901077208306L135.4862222222222,111.83480611890982L135.87911111111111,105.88102404478782L136.1511111111111,110.84107559113527L136.21155555555555,105.38127438935928L136.58933333333334,119.89345854548588L136.98222222222222,102.67118307898558L137.37511111111112,94.79887397855593L137.60177777777778,95.9619687967371L137.72266666666667,87.54717010097927L137.73777777777778,94.05378945703971L138.0702222222222,95.09238380347426L138.13066666666668,96.72059035525893L138.34222222222223,102.64584421186686L138.9466666666667,102.81618372044386L139.08266666666665,102.8403359379853L139.264,101.75464433788174L139.5511111111111,119.89127515503448L139.59644444444444,123.36446875250216L139.73244444444444,106.51427993856723L140.53333333333336,101.09969274676224L140.69955555555555,100.79695086233313L140.97155555555554,109.06510720317392L141.12266666666667,106.81681855982113L141.13777777777776,85.45992828752607L141.40977777777778,97.14708855159685L141.4248888888889,81.03157719881563L141.77244444444446,88.89432497037849L141.8328888888889,83.73728749813017L142.05955555555553,87.06349244313266L142.51288888888888,102.11216849444405L142.6488888888889,98.73447658037006L142.69422222222224,100.53225465134364L142.8,112.52994855750951L142.95111111111112,106.71627026437669L142.99644444444445,88.83562124752376L143.072,98.4024222512049L143.2231111111111,104.50536387742241L143.58577777777776,104.24828637853341L143.7217777777778,105.34236856496048L144.0088888888889,105.71324208959035L144.26577777777777,98.13838604838108L145.2026666666667,98.5473665090098L145.73155555555556,109.43292549203005L145.98844444444444,112.97966677516804L146.13955555555555,96.23825456508726L146.21511111111113,104.09724672124024L146.38133333333334,84.40750617144315L146.47199999999998,87.11107349741475L146.57777777777778,95.34947145457541L146.84977777777777,105.50338126307018L146.92533333333333,103.8866898177515L147.00088888888888,106.19237363885546L147.27288888888887,108.3070819278269L147.4391111111111,109.31709095039223L147.48444444444445,113.47745100510402L147.78666666666666,109.69411187613711L147.90755555555558,100.41239468203806L148.05866666666668,98.54463876056762L148.24,112.20411479930931L148.58755555555555,114.74358441044735L148.6631111111111,104.10164333349377L149.58488888888888,104.50276141212593L149.60000000000002,108.17188599614029L150.08355555555556,116.20337423362304L150.73333333333335,114.17290432592343L150.85422222222223,124.82362363739877L150.9751111111111,132.9036147104612L150.99022222222223,132.34265658830404L151.50400000000002,126.44986732944724L151.6702222222222,116.79753174868151L151.85155555555556,99.83688118350662L152.10844444444444,87.48940755302998L153.0151111111111,104.49642128704495L153.37777777777777,107.4329290937229L153.8311111111111,98.32718088466324L153.89155555555556,100.96470069100167L154.10311111111113,91.43862684626536L154.36,93.52543173931201L154.45066666666665,101.05708162540822L155.08533333333335,103.41740152901522L155.3271111111111,113.118297361662L155.49333333333334,118.61908428735006L155.62933333333334,121.86815869529921L155.75022222222222,114.02754666108484L156.05244444444446,115.09663182847189L156.08266666666665,120.30658821607456L156.128,130.47352296981774L156.15822222222224,130.8859218530271L156.24888888888887,122.43557736841657L156.5511111111111,131.1345207228332L156.59644444444444,103.43899324077121L156.672,98.12013943383413L156.808,107.15883863932812L157.86577777777777,98.06766435616699L158.168,109.85168176625926L158.18311111111112,118.15533165111333L158.21333333333334,131.13692082018832L158.4248888888889,131.72794986662643L158.48533333333333,136.9849575361122L158.62133333333335,128.51504285603485L158.63644444444444,125.34362848283686L158.71200000000002,115.26733558783033L158.78755555555554,122.52599645500835L159.0142222222222,119.96941015429573L159.4826666666667,130.54632375489706L159.664,126.66979002201509L159.76977777777776,125.35800863980958L159.84533333333334,114.97228079843347L160.0568888888889,109.6050925018194L160.1928888888889,117.17553619978314L160.58577777777776,101.79314732547424L160.69155555555554,110.1238723065869L160.70666666666665,106.7363875653859L160.84266666666667,109.42937733013528L161.41688888888888,100.0266022493521L161.5377777777778,107.9830836394808L161.5528888888889,116.17663200864817L161.61333333333332,126.36990686623699L162.0968888888889,130.84806369630232L162.8071111111111,118.44316452211112L162.86755555555555,102.12323281844043L163.13955555555555,94.21621545362227L163.21511111111113,101.62680605906235L163.48711111111112,110.87571407604344L163.53244444444445,115.88658496223103L163.84977777777777,111.32758304830386L164.016,111.17160614874891L164.37866666666665,116.42751171120163L164.48444444444445,111.44441439400342L164.74133333333333,104.6814544354625L164.77155555555555,103.801839313194L164.81688888888888,106.21145150738052L165.13422222222223,85.23788682294803L165.16444444444446,87.71309940355108L165.24,93.04794181388867L165.40622222222223,96.29202844104522L165.58755555555555,103.10548165944697L165.84444444444446,96.57042901752217L166.11644444444445,90.75542580375436L166.20711111111112,98.61349043687467L166.35822222222222,109.62619187895626L166.63022222222222,117.58947548745577L166.64533333333333,119.33442449391319L167.0533333333333,119.80941713014172L167.17422222222223,122.02827653714711L167.32533333333333,121.18425325079643L167.49155555555555,122.28614081257912L167.80888888888887,105.94590050897926L168.08088888888886,104.5800286705609L168.56444444444443,106.90178028462894L168.6702222222222,98.10628878107808L169.456,69.68148782735419L169.4862222222222,81.32125056715024L169.63733333333334,98.33262012559896L169.74311111111112,101.24432143597373L170.1511111111111,104.3017136476153L170.46844444444443,101.4508788505887L170.61955555555556,98.63826173197732L170.86133333333333,101.23345592211588L170.89155555555556,93.72609634354255L170.99733333333336,93.8849887929962L171.4808888888889,79.72730450592738L171.55644444444442,92.04821580970335L171.72266666666667,95.84477105996108L171.79822222222222,99.12954600211638L172.448,118.21182921463246L172.49333333333334,118.1440484751635L172.79555555555558,125.7809067703907L172.88622222222222,112.49409972587304L172.90133333333335,98.19488205554202L173.2942222222222,101.86728950499102L173.39999999999998,112.53191132375098L174.352,114.78195490522945L174.488,118.5585205811619L174.59377777777777,122.74253904505059L174.63911111111113,128.5401072085906L174.7448888888889,125.41136157399467L174.79022222222224,123.37011294032104L175.12266666666667,119.83608418582854L175.2888888888889,130.6561579736808L175.45511111111114,137.63135286102462L175.63644444444444,131.8060393779595L175.65155555555555,132.12132231952137L175.69688888888888,119.13301734729113L176.05955555555553,118.49994098970066L176.15022222222223,127.10285356472531L176.49777777777777,125.00298352869049L176.6488888888889,127.05800402593957L176.76977777777776,130.64598802453352L177.69155555555554,122.96517512105221L177.82755555555556,105.7791163047955L177.96355555555556,104.47020907989642L178.49244444444446,98.12908653293947L178.91555555555556,93.91659074019994L178.9608888888889,93.77347720790205L179.56533333333334,91.70883117659537L179.928,93.64498615721386L180.0791111111111,89.98472166335296L180.91022222222222,111.05269239378069L181.10666666666668,110.03442913577881L181.54488888888886,115.24753148858636L182.08888888888887,121.42968046634991L182.16444444444446,123.34442221570436L182.17955555555557,118.41219464344172L182.20977777777776,114.78796457888122L182.42133333333334,113.70390755651587L182.60266666666666,100.10660473801278L182.95022222222224,102.61641495670096L183.0408888888889,109.27914554490445L183.26755555555556,113.60038930278635L183.35822222222222,112.43999187609526L183.50933333333333,116.55863781779924L183.872,98.89636104642635L184.1288888888889,107.93656536476716L184.46133333333333,110.62446521178363L184.9297777777778,103.8853776574793L185.03555555555556,96.26815486673492L185.20177777777778,108.02250024909168L185.44355555555558,110.92722673886985L185.50400000000002,124.349811724203L185.6097777777778,125.0692106526689L185.68533333333332,117.85687326838158L186.32000000000002,130.84044437610194L186.864,131.33350972932425L187.28711111111113,124.20101875822853L187.31733333333332,123.66233711298968L187.33244444444443,112.34865112020573L187.36266666666666,110.83546343526972L187.45333333333335,112.66897228541342L187.58933333333334,114.23018376339894L187.67999999999998,112.62856923393728L187.75555555555556,112.69494246487545L188.19377777777777,112.01147278110354L188.40533333333332,112.34613961619903L188.57155555555556,100.6445417137841L188.72266666666667,102.07047269070877L188.7831111111111,115.07618764236413L188.79822222222222,118.68697503722613L189.22133333333332,119.4960400367129L189.35733333333334,123.30898806876031L189.4782222222222,113.77608837606823L189.7048888888889,105.50353089789608L189.72,111.93528962028063L189.90133333333335,103.76625813843694L190.36977777777778,109.55709143494038L190.50577777777775,114.50414866615019L190.70222222222222,118.11293332687893L190.7626666666667,101.14934176882566L190.8382222222222,106.30819215782755L190.97422222222224,115.00942877244584L191.09511111111112,113.62124561058461L191.2008888888889,112.80160953540457L191.21599999999998,109.61130468676471L191.4728888888889,112.62489260413241L191.9262222222222,110.33190591507615L192.07733333333334,102.32945890583011L192.63644444444444,104.63668819415352L192.77244444444446,108.33787354186512L192.78755555555554,122.18848038461347L192.87822222222223,118.89190101538692L193.12,125.5619780588358L193.22577777777778,119.51453865444584L193.6488888888889,126.45489008418939L193.664,131.97112104676165L193.8,132.08966071899593L193.87555555555554,136.92453051902373L194.04177777777778,141.51261882495723L194.17777777777778,138.95544791791608L194.38933333333333,129.12781232010255L194.55555555555557,135.1405841646581L194.96355555555556,140.02854629915225L195.0088888888889,141.7469221228039L195.1448888888889,137.5740553595164L195.52266666666665,132.75457206645174L195.58311111111112,128.34193315075976L195.7191111111111,133.9269840013347L195.93066666666667,125.22725856053998L196.02133333333333,117.79498603723681L196.05155555555555,125.16520312166223L196.56533333333334,117.40777655218977L196.656,112.03262045249306L196.74666666666667,119.43483627397792L196.7768888888889,128.8728284365805L196.792,119.25957661033904L196.9431111111111,109.89702502254056L197.0186666666667,116.24824939454311L197.23022222222224,113.15913113260427L197.3662222222222,119.88214059057334L197.608,123.88513119382492L197.9857777777778,113.95099462553232L198.27288888888887,107.37232509809023L198.4088888888889,114.28037479984468L198.6808888888889,112.24818560759843L199.08888888888887,112.9319797883601L199.43644444444445,125.52707077643302L199.46666666666664,130.171323070413L199.48177777777778,134.4441534840647L200.25244444444445,138.5821081523912L200.37333333333333,150.04921310427028L200.41866666666667,130.96731266680035L200.55466666666666,133.6126961255895L201.1288888888889,135.64885487492506L201.59733333333332,129.42232099706638L201.89955555555557,131.3230478153046L202.11111111111111,115.50551622754165L202.18666666666667,104.3210171108858L202.65511111111113,111.19812558762729L202.776,104.82340648177765L202.80622222222223,109.48829226336979L203.32000000000002,106.89772194874216L203.36533333333335,113.64498832243504L203.5768888888889,116.94358939976188L203.62222222222223,115.23382997211898L203.78844444444445,118.32295342370784L203.87911111111111,122.29683213549477L204.3022222222222,118.36289085153646L204.34755555555557,126.55938764071142L204.36266666666666,122.89739843004354L204.45333333333335,124.32949887523432L204.48355555555554,127.4468177962862L204.74044444444442,119.6219200139381L204.86133333333333,120.36114965681392L204.99733333333336,116.853780318126L205.224,112.06296585132178L205.4657777777778,114.93401445227562L206.0551111111111,128.24544462594676L206.23644444444446,128.07912284619252L206.26666666666665,135.67563555663145L206.41777777777776,141.03365050304456L206.58399999999997,141.66691329673708L206.68977777777775,142.19626630634866L206.79555555555558,139.44997115109842L206.82577777777777,144.93037789965356L207.08266666666665,135.7762764620398L207.36977777777778,136.44106534155563L207.91377777777777,121.15725991678976L208.06488888888887,123.42691282297153L208.32177777777775,105.5233552580309L208.41244444444445,113.07940823983544L208.54844444444444,127.7283583934854L209.0017777777778,110.99043010143276L209.34933333333333,124.69624989973873L209.36444444444444,127.87230615067904L209.63644444444444,140.84511861419398L210.05955555555553,136.8142381157752L210.13511111111112,141.1581326697699L210.33155555555555,147.3433676466007L210.54311111111113,128.17374038657832L210.664,125.7634946714849L210.73955555555557,125.23991323245299L210.76977777777776,130.42528798222182L210.78488888888887,127.90334328701549L211.0871111111111,129.11622576065466L211.16266666666667,134.13558463873366L211.37422222222222,140.65087595621554L211.52533333333332,142.50763023651857L211.60088888888887,141.56406357739698L211.70666666666665,130.99085288159648L211.99377777777778,117.57546876020788L212.1751111111111,110.89708458538055L212.704,123.68963181998781L212.84,121.18654358402762L213.56533333333334,134.29620968775143L213.64088888888887,133.74586397229677L213.86755555555555,129.22835514570042L214.03377777777777,131.10440329089616L214.09422222222221,125.38185996371753L214.336,114.64610509277995L214.53244444444445,120.58449516681468L214.8346666666667,119.02686358153075L214.97066666666666,131.0059451036541L215.09155555555557,120.9747713854313L215.39377777777776,123.49487160612213L215.63555555555556,121.60238502735668L215.93777777777777,125.78250470746423L215.9831111111111,120.44585384719889L216.2248888888889,95.82016228314228L216.46666666666664,103.78294578398855L216.63288888888889,102.5538460154337L217.53955555555555,113.31790530450489L217.67555555555555,122.03773567008051L217.69066666666666,125.17436227556317L218.144,123.71596798115719L218.4311111111111,120.91220735399179L218.47644444444444,126.07805246114353L218.80888888888887,125.68184075487757L219.47377777777777,141.15704170836204L219.7911111111111,134.57917881525808L219.88177777777778,130.10583457195446L219.912,125.58070412714825L220.22933333333333,114.44203016688822L220.56177777777776,115.76538063272739L221,107.20393991116956L221.69511111111112,119.02463056034412L221.9368888888889,126.26997682550159L222.11822222222222,131.90136202036504L223.00977777777777,125.17833131600254L223.25155555555557,130.95641361504096L223.72,136.60608760612786L223.8408888888889,140.8646082407092L224.15822222222224,140.53603585384093L224.536,135.62606084505464L224.61155555555558,131.04842133882158L224.808,134.02563696971382L225.00444444444443,129.64335251704694L225.09511111111112,116.77476072291702L225.72977777777777,89.27366586249508L225.7448888888889,95.47329565253055L225.82044444444443,109.78673870251954L226.04711111111112,107.5579363862524L226.92355555555557,117.89755127720466L227.18044444444445,130.65415578221737L227.58844444444446,119.91122607007232L227.60355555555554,115.42653986648156L227.72444444444443,114.85481247605144L227.90577777777779,122.24920001805579L227.95111111111112,122.81172732818575L228.0871111111111,118.84098078328775L228.31377777777777,110.74999959579151L228.37422222222222,87.62298117862768L228.40444444444447,91.46555414271329L228.6311111111111,98.59489440537014L228.9031111111111,108.27894038395662L229.1751111111111,110.57099175316048L229.40177777777777,115.01882942965133L229.5528888888889,111.62492016425036L229.59822222222223,115.69093721127032L229.77955555555553,115.2284137097595L229.79466666666667,113.69428362573771L229.8551111111111,108.80762058836244L230.2782222222222,108.66569526002026L230.67111111111112,116.61653072505985L231.1697777777778,103.65129616381603L231.39644444444446,117.2076079571889L231.94044444444447,116.26107523124628L232.016,113.52763646412622L232.74133333333333,115.21904316353702L232.80177777777777,111.07766751532495L233.10399999999998,120.51001108802865L233.82933333333335,131.71544048127703L233.84444444444446,135.5605834036632L234.2373333333333,133.6831616281541L234.28266666666664,138.9357820237454L234.91733333333335,135.3353524192372L235.1591111111111,140.79544729562465L235.68800000000002,137.01967432707332L235.91466666666665,147.9519143048181L236.03555555555556,145.8295657441966L236.11111111111111,153.08639083871293L236.1262222222222,146.2045964341173L236.62488888888888,138.02385657805394L236.88177777777778,123.91848127577286L236.92711111111112,121.72635892020479L236.97244444444445,133.34558800252367L237.1688888888889,125.3474371953334L237.5768888888889,130.83542863469472L237.8488888888889,126.7370741628742L237.95466666666667,139.93504135852535L238.06044444444444,134.73583157950594L238.3928888888889,130.90358635110692L238.71022222222223,122.58091832724367L238.90666666666667,122.75837886978809L239.43555555555557,131.25519560300418L239.7831111111111,135.39757046349047L239.82844444444444,138.09082617973272L240.0248888888889,139.20506214799806L240.08533333333335,132.14051791119638L240.176,138.2240740807802L240.82577777777777,131.57987554316756L240.8408888888889,135.38290902972574L241.128,130.27225947711415L241.17333333333335,126.68776630494456L241.2942222222222,109.65368556459822L241.30933333333334,117.46730387695676L241.32444444444445,117.10957173797317L241.41511111111112,114.4274515566796L241.71733333333336,120.51193891577012L241.74755555555555,131.58070554170925L242.01955555555554,127.25429920918761L242.7751111111111,127.8195465519052L242.98666666666665,109.53848168734834L243.07733333333334,113.4814727898155L243.5911111111111,114.44297725201596L244.21066666666667,115.4715553178844L244.6337777777778,127.31158893168048L245.04177777777778,141.01428415228307L245.11733333333333,138.93056450462632L245.208,137.9326178521492L245.55555555555557,145.2175452246613L245.93333333333334,133.42693970871716L246.11466666666666,123.13754119903163L246.12977777777778,127.9944363341549L246.22044444444447,129.80467711523087L246.35644444444443,119.04812041369686L246.61333333333332,129.58384149010215L246.79466666666667,128.19178076228638L246.88533333333334,134.07140068529068L247.18755555555555,135.0586857205379L247.24800000000002,121.2656170543812L247.61066666666667,124.13574283487952L247.64088888888887,125.65590531727089L247.7768888888889,125.70223368532378L248.53244444444445,134.11209560496428L248.8951111111111,125.3234720452397L248.91022222222222,123.89605184405328L249.24266666666668,119.56966234583561L249.77155555555555,126.98000342319416L249.78666666666666,130.2361616002388L250.14933333333332,131.2893231747005L250.17955555555557,140.068440929632L250.19466666666665,136.58150183228824L250.648,145.51490966718302L251.02577777777776,138.8263321308084L251.0711111111111,138.74487752046906L251.10133333333334,143.33130353619026L251.328,141.65046886958302L251.41866666666667,137.79371945541345L251.72088888888888,138.03941909229175L251.872,138.977869069443L251.8871111111111,140.60726548849166L252.008,124.60569283072654L252.06844444444445,121.73620376741914L252.1591111111111,125.66576339390826L252.4008888888889,126.77329611664517L253.05066666666667,134.22220053074724L253.23200000000003,140.10726819845152L253.39822222222222,138.21411353595323L253.54933333333335,141.5537974835935L253.56444444444443,137.1692332851458L253.62488888888888,122.67066056892682L253.68533333333332,117.22834228031415L253.7457777777778,109.69169239664951L254.00266666666664,107.90179924447268L254.09333333333333,123.86611054109892L254.1537777777778,129.23294662628322L254.184,134.72419213768092L254.56177777777776,139.12478084275875L254.8488888888889,136.07790257810743L254.95466666666667,140.73105515143126L254.96977777777778,137.9323806960766L255.21155555555555,141.86210846499907L255.25688888888888,125.66505179164595L255.74044444444442,126.01689788250133L255.75555555555556,133.7534373819378L255.77066666666667,133.7122600368389L256.1333333333333,138.1848683213231L256.3448888888889,134.61369286838726L256.8737777777778,139.5574873935991" style="fill: none;" fill="none"></path></g></g></g></g><g opacity="0.2"><g><g><g><path stroke="rgb(255, 112, 67)" stroke-width="2px" d="M33.75822222222222,-2.0863005850049965L34.07555555555555,25.454109642240752L34.15111111111111,-62.62147121959259L34.25688888888889,-8.330832189983788L34.34755555555555,7.94215440750124L34.87644444444444,-3.0095149411095425L34.906666666666666,-7.194364335801849L35.02755555555555,45.20973569817015L35.465777777777774,-17.396817207336387L35.768,41.09974311457741L36.584,-18.37944547335304L36.599111111111114,37.6866556538476L36.90133333333333,58.49239899052515L37.17333333333333,39.389294452137435L37.38488888888889,49.26367408699461L38.32177777777778,27.760406732559225L38.729777777777784,71.4105037185881L38.971555555555554,2.627232405874482L39.077333333333335,23.165259493721866L39.092444444444446,46.028003162807906L39.59111111111111,3.5159654749764644L39.80266666666667,14.681949284341622L39.92355555555556,52.40503721767004L39.99911111111111,51.66752080122631L40.029333333333334,54.3799897697237L40.21066666666667,13.195599516232836L40.361777777777775,40.27042395538756L41.01155555555556,10.003604888916035L41.132444444444445,86.20070656140646L41.25333333333334,12.26177553335827L41.64622222222222,61.108644538455565L41.782222222222224,80.46997560395135L41.842666666666666,60.76692614290451L41.87288888888889,83.80770524342856L42.08444444444445,41.061843170060065L42.114666666666665,33.76781317922806L42.220444444444446,65.2377639214198L42.34133333333334,33.25625234180029L42.432,68.62356106440228L42.855111111111114,23.274538649453067L43.958222222222226,66.00799335373773L44.45688888888889,39.55462780263691L44.50222222222222,70.28933140966629L44.75911111111111,24.728529055913317L44.89511111111111,56.433541973431915L44.91022222222222,73.16339088810815L45.00088888888889,30.36748674180775L45.016000000000005,26.23371091153889L45.09155555555555,23.858952257368315L45.36355555555556,26.130768060684225L45.40888888888889,71.15546007951102L45.54488888888889,58.68033674028187L46.285333333333334,75.04164848062729L46.330666666666666,61.45867380830978L46.42133333333333,58.55885651376514L46.512,32.011065284411124L46.587555555555554,44.99857465426128L46.73866666666667,48.6726294623481L46.82933333333333,4.608432849248277L46.90488888888889,47.488624585999396L47.69066666666667,47.595722874005645L47.76622222222222,84.65889202223885L47.781333333333336,52.89060446951126L48.053333333333335,27.9122422801124L48.24977777777778,46.620668702655394L48.44622222222222,71.87287714746266L49.02044444444444,16.754922999276065L49.27733333333333,64.52450229061975L49.57955555555556,61.41157885392508L49.775999999999996,58.03244219885933L50.108444444444444,48.050315909915525L50.153777777777776,86.95145554012724L50.36533333333333,20.69404164950054L50.425777777777775,62.33856552177008L51.15111111111111,56.66103005409243L51.25688888888889,49.589861167801764L51.589333333333336,9.231784012582589L51.77066666666666,69.9918787346946L51.92177777777778,52.150376704004096L52.37511111111111,89.6643665764067L52.54133333333333,16.932663718859366L52.662222222222226,44.937127232551596L52.75288888888889,64.3083311451806L53.236444444444444,17.246502372953643L53.29688888888889,18.26576332251232L53.67466666666667,29.130256904496097L53.916444444444444,90.64902835422093L53.931555555555555,-58.43862586551239L54.15822222222222,48.82228414217632L54.218666666666664,71.51318132877351L54.47555555555556,52.399025095833686L55.004444444444445,17.661368250846884L55.12533333333333,-10.52944156858654L55.42755555555556,16.77166263262432L55.639111111111106,12.549296418825799L55.77511111111111,-30.537959867053527L55.86577777777778,19.82216609848871L55.94133333333333,12.23439680205454L56.04711111111111,39.80106585555609L56.18311111111111,55.64285953839621L56.394666666666666,45.87537189324699L56.42488888888889,84.06970408227711L56.47022222222222,53.58238160610201L56.60622222222222,35.70365746816002L57.13511111111111,57.032013336817435L57.49777777777778,65.92152489556207L57.81511111111111,74.5315906736586L58.08711111111111,33.902231256167106L58.22311111111111,48.34346579180824L58.41955555555556,30.11264940102898L58.464888888888886,65.65923134485882L58.58577777777778,47.4801074133979L59.190222222222225,65.07944471306273L59.44711111111111,77.78220348887974L59.598222222222226,45.39331171247696L59.64355555555555,42.378173669179304L59.94577777777778,43.82002194722496L60.187555555555555,31.32199949688383L60.45955555555555,66.49273541238576L60.64088888888889,22.608489857779638L60.897777777777776,40.70742269357048L60.98844444444444,36.44921951823767L61.351111111111116,22.49924017323389L61.547555555555554,27.14333905114069L61.59288888888889,50.1011567645603L61.608000000000004,6.968544324239121L61.72888888888889,37.031835383839095L61.78933333333333,50.47272947099476L61.89511111111111,37.67141905095844L62.635555555555555,75.46435369385614L62.696000000000005,25.273362861739294L62.80177777777778,23.71536864174738L62.93777777777778,19.838699433538665L63.270222222222216,64.53449302249487L63.330666666666666,52.19343410597908L63.45155555555556,52.79735763867697L63.57244444444444,6.800322797563362L63.63288888888889,58.347106046146834L63.935111111111105,36.93083763122561L64.01066666666667,-3.3993597825368114L64.02577777777778,-8.39622875054676L64.10133333333333,45.2292456229528L64.28266666666667,49.06353526645239L64.328,61.15880449612936L64.40355555555556,63.382906450165656L64.69066666666667,52.31677101718056L64.93244444444444,61.49247725804648L65.08355555555556,20.588269564840544L65.26488888888889,47.49667021963333L65.65777777777777,59.009382526079825L65.79377777777778,40.10176036092972L66.32266666666666,-3.797633383009147L66.33777777777777,53.660097122192404L66.368,58.923238250944365L67.03288888888889,43.52640052636467L67.15377777777778,20.907295147577933L67.28977777777777,32.171359062194846L67.32,69.94398805830215L67.39555555555556,28.622026311026687L67.77333333333334,43.85137928856745L67.78844444444445,41.768768495983565L67.93955555555556,40.394556588596785L67.96977777777778,78.69946466551887L68.04533333333333,74.44462120532991L68.2568888888889,70.84651364220514L68.34755555555556,80.5111763212416L68.48355555555555,48.63304966025885L68.71022222222223,55.71532918347254L68.80088888888889,75.92266009913551L69.5111111111111,55.857704480489105L69.60177777777778,51.161795258522055L69.85866666666668,54.1199655003018L69.94933333333333,37.222042414877166L70.68977777777778,77.21296754148274L70.79555555555555,52.1341086096234L70.8711111111111,40.187403625912154L71.06755555555556,77.00192438231575L71.62666666666667,57.749194635285285L71.83822222222223,71.06489512655472L72.36711111111111,70.11117809348637L73.62133333333334,57.050167587068366L73.75733333333334,21.848899523417167L73.89333333333333,60.91837856504654L73.98400000000001,86.59019774860808L74.34666666666666,58.14735035101574L75.05688888888889,84.84450154834325L75.17777777777778,57.20754371749031L75.72177777777779,82.15130673514473L75.96355555555556,75.36866075462767L76.00888888888889,87.9790273639891L76.12977777777779,70.2687015798357L76.17511111111111,38.3916653527154L76.53777777777779,60.974491702185745L76.59822222222222,40.35385688145958L77.05155555555557,61.684216790729124L77.62577777777778,53.37410873836943L77.89777777777779,47.411970032586005L77.98844444444444,91.30989021725127L78.23022222222222,46.01509478357105L78.50222222222222,99.31903852356805L78.51733333333334,60.260640647676276L79.03111111111112,59.992600215805915L79.18222222222222,46.267633371882994L79.22755555555557,84.17945477697586L79.24266666666666,65.09874833954706L79.27288888888889,59.37237911754187L79.288,105.73002338409424L79.66577777777778,36.47880858845183L80.16444444444444,48.63381591108112L80.7688888888889,112.77723219659596L81.23733333333334,51.171579692098845L81.64533333333334,61.40052715937298L81.7208888888889,87.88492586877611L82.05333333333334,88.84315199322172L82.34044444444444,92.25945181316801L82.56711111111112,90.51932566695744L82.80888888888889,45.966673625840095L83.24711111111112,73.123693201277L83.29244444444444,89.35376975271438L83.67022222222222,50.279251138369254L84.0631111111111,57.54386888609993L84.32,77.078755762842L84.62222222222222,90.99593367841511L84.89422222222223,45.786545740233535L84.92444444444445,69.10161316394807L84.95466666666667,72.40836858749391L85.04533333333333,65.89441140492758L85.46844444444444,79.88514939943951L85.68,111.0666067070431L86.52622222222223,74.16087263160283L86.58666666666667,86.78909877936047L86.75288888888888,83.39036378595566L87.22133333333333,-58.08871448040004L87.34222222222223,49.73901483747696L87.53866666666667,68.96967066658868L87.61422222222222,59.775721761915435L87.85600000000001,22.067605190806944L87.93155555555555,67.39735345045727L87.96177777777778,37.097114059660186L88.11288888888889,63.706706364949554L88.17333333333333,67.40940716531544L88.61155555555555,58.39428941408794L88.79288888888888,79.66918455229866L89.57866666666666,88.02235000663335L89.74488888888888,109.23308637407094L90.00177777777778,40.056669447157134L90.42488888888889,77.00696395503151L90.81777777777778,71.93930519951715L90.9991111111111,72.65616231494481L91.16533333333334,62.448876168992804L91.21066666666667,46.482006775008315L92.072,21.130686733457793L92.14755555555556,50.78250110149386L92.16266666666667,88.17928406927322L92.31377777777779,84.34797101550633L93.41688888888889,103.131136364407L93.58311111111111,95.90082307656607L93.59822222222222,77.05591559410097L93.62844444444444,78.57285645273L93.704,104.63788019286262L93.71911111111112,92.45776342021095L94.09688888888888,92.49265730381012L94.17244444444444,92.64941453933716L94.21777777777778,99.37594738271504L94.33866666666667,64.40658807754518L94.6408888888889,104.16342357794446L94.68622222222221,111.2601145108541L94.70133333333334,120.00303639305963L94.928,98.33806064393788L95.26044444444445,94.39729160732695L95.45688888888888,85.14003859625923L95.48711111111112,105.05245135890114L95.68355555555556,117.79207858774399L96.24266666666666,112.75427414311304L96.60533333333333,111.22150725788539L96.71111111111111,90.34031768639883L96.80177777777777,74.27442510922751L97.16444444444444,110.46462827258641L97.20977777777777,83.8831514782376L98.10133333333334,88.3977539671792L98.35822222222222,109.98362905449336L98.37333333333333,94.28948601086935L98.67555555555555,50.481747653749274L98.7208888888889,95.6204636891683L98.85688888888889,106.42551389005452L99.40088888888889,105.53374528884888L99.44622222222222,98.83865820036995L99.688,123.52510829766592L100.15644444444445,75.79746650324928L100.57955555555554,100.96382538477582L100.70044444444444,95.0642834769355L100.7608888888889,109.69383888774449L100.88177777777777,75.45521762635975L101.048,81.05379978815716L101.44088888888889,48.732338084114936L101.51644444444445,131.68146517541675L101.75822222222223,100.1947158575058L102,91.08119381798639L102.1208888888889,57.91287759939831L102.2568888888889,35.96671726968555L102.39288888888889,57.01934072706436L102.55911111111111,83.63193909327191L102.57422222222222,112.13596867190468L102.75555555555556,98.29627050293817L102.78577777777778,54.16585213608214L103.36,80.39800696902806L103.54133333333333,69.8549556069904L103.82844444444444,98.84761744075352L104.176,101.55177553494772L104.47822222222223,73.27101965745291L105.20355555555555,51.68134278721281L105.33955555555555,66.26828286382889L105.38488888888888,128.34111260043252L105.4151111111111,68.36112015777165L106.18577777777779,88.08807075023653L106.2311111111111,115.43061143822139L106.53333333333333,101.702432235082L106.56355555555555,120.02236949072945L106.57866666666666,95.2254319190979L106.68444444444445,103.03399933709039L106.95644444444444,79.01592625512018L107.37955555555556,87.4036024676429L107.68177777777778,83.45181120766534L107.80266666666667,96.51255647341412L108.27111111111111,105.01752800411647L108.528,78.57701188988158L108.80000000000001,104.03133372465771L108.92088888888888,111.38642801178827L109.38933333333334,105.61838653352528L109.79733333333334,74.2254439989726L110.14488888888889,98.2013143433465L110.58311111111111,63.140122824245054L110.74933333333334,97.23194811079239L110.99111111111111,117.06617381837636L111.20266666666666,90.29213229815167L111.52,89.79657431443533L112.12444444444444,119.0963259008196L112.45688888888888,67.5346597035726L112.53244444444444,38.926744196150054L113.09155555555556,80.83205858866376L113.25777777777778,102.67683804035187L113.34844444444444,92.32694082789952L113.56,66.22401714324953L113.59022222222222,102.76651885774403L114.07377777777778,106.78889360692769L114.43644444444445,106.16322033935124L114.61777777777777,98.66348147392273L114.648,83.54152149624296L114.73866666666667,42.40475667847529L114.92,87.02236321237352L115.29777777777777,76.1859851413303L115.7208888888889,81.53898391458725L115.75111111111111,88.93466002411314L115.81155555555554,117.05028884940678L116.03822222222222,72.24610024028355L116.65777777777777,112.14581204785242L116.70311111111111,91.67730748653412L117.504,99.70260600248974L117.54933333333332,115.79130927721661L117.70044444444444,120.15693492359584L117.97244444444445,84.26365395387015L117.98755555555555,118.24316455258264L118.24444444444444,109.47433749834698L118.28977777777777,86.12941576374902L118.80355555555555,98.79736906952327L118.83377777777778,111.4301927222146L118.93955555555556,112.00414405928719L119.34755555555556,109.402015209198L119.48355555555555,99.82809431023067L119.80088888888889,103.88297577699026L120.16355555555555,92.16596921284994L120.2391111111111,99.93466211689844L120.32977777777778,77.52120667033726L120.73777777777778,116.19636125034755L121.04,102.52503196398419L121.11555555555556,134.57995626661514L121.34222222222223,102.80689438184103L121.41777777777777,97.38761491245695L122.06755555555556,110.6235663758384L122.128,81.75910419887968L122.44533333333334,109.0259039402008L122.47555555555556,143.43707899252576L122.71733333333333,106.03755520449745L122.74755555555555,114.13004802332985L122.83822222222223,98.82303847206964L122.86844444444445,102.87052267127568L123.14044444444446,106.88977347479927L123.488,108.42917137675816L123.62400000000001,103.45932748582631L123.91111111111111,115.78255633513135L124.07733333333333,78.68982758786946L124.10755555555556,83.31768784258102L124.19822222222223,116.88681218359207L124.39466666666667,126.35331061151295L124.66666666666666,106.75945189264088L125.256,111.69614069991643L125.60355555555556,132.65587098068661L125.664,105.43834706147513L125.67911111111111,110.64042389392853L125.78488888888889,81.46616061528525L126.04177777777778,100.3054980436961L126.20800000000001,102.34696706136069L126.37422222222222,74.92414686414932L126.48,70.3699056307475L126.57066666666667,26.512567268477575L126.93333333333334,80.06179968516034L127.82488888888889,125.3105021847619L128.36888888888888,84.42049960295361L128.384,109.43425668610467L128.44444444444443,92.46810780631172L128.74666666666667,123.17443066173131L128.76177777777778,129.14311197068957L128.7768888888889,68.74194681644441L128.89777777777778,55.88063306278654L129.56266666666667,98.1571959786945L129.66844444444445,93.17892332871756L129.71377777777778,124.146390358607L130.00088888888888,134.832553797298L130.81688888888888,112.72368305259282L130.95288888888888,111.6891560289595L130.98311111111113,118.08039519521927L131.04355555555557,113.82531596554651L131.1342222222222,59.35728987058005L131.17955555555557,117.34594378206467L131.28533333333334,69.21899689568414L131.40622222222223,116.11154317855835L131.45155555555556,123.27976067860922L131.63288888888889,118.62351967228784L132.0408888888889,93.03062432342107L132.10133333333334,87.8392455312941L132.26755555555556,107.11219251155853L132.43377777777778,112.2788155078888L133.46133333333333,109.92616024282246L133.6728888888889,109.67503627141318L133.79377777777776,142.5275097952949L134.00533333333334,83.42796901861828L134.02044444444445,113.5856268141005L134.41333333333333,96.3922550943163L134.6248888888889,91.70064866542816L135.00266666666667,91.95194946395027L135.4408888888889,125.3246483537886L135.4862222222222,117.72349913915L135.87911111111111,96.95035093360478L136.1511111111111,118.28115291065639L136.21155555555555,97.19157258669537L136.58933333333334,141.6617347796758L136.98222222222222,76.83776987923517L137.37511111111112,82.99041032791139L137.60177777777778,97.70661102400886L137.72266666666667,74.92497205734254L137.73777777777778,103.81371849113042L138.0702222222222,96.65027532312607L138.13066666666668,99.16290018293594L138.34222222222223,111.53372499677872L138.9466666666667,103.07169298330945L139.08266666666665,102.87656426429749L139.264,100.12610693772635L139.5511111111111,147.09622138076358L139.59644444444444,128.5742591487037L139.73244444444444,81.23899671766495L140.53333333333336,92.97781195905476L140.69955555555555,100.34283803568947L140.97155555555554,121.46734171443516L141.12266666666667,103.44438559479183L141.13777777777776,53.42459287908344L141.40977777777778,114.67782894770306L141.4248888888889,56.85831016964384L141.77244444444446,100.68844662772285L141.8328888888889,76.00173128975763L142.05955555555553,92.05279986063641L142.51288888888888,124.68518257141113L142.6488888888889,93.66793870925903L142.69422222222224,103.22892175780403L142.8,130.52648941675824L142.95111111111112,97.99575282467737L142.99644444444445,62.014647722244284L143.072,112.75262375672659L143.2231111111111,113.65977631674873L143.58577777777776,103.86267013019985L143.7217777777778,106.98349184460109L144.0088888888889,106.26955237653523L144.26577777777777,86.7761019865672L145.2026666666667,99.1608371999529L145.73155555555556,125.76126396656036L145.98844444444444,118.29977869987488L146.13955555555555,71.12613624996611L146.21511111111113,115.88573495546979L146.38133333333334,54.87289534674751L146.47199999999998,91.16642448637222L146.57777777777778,107.70706839031642L146.84977777777777,120.73424597581229L146.92533333333333,101.4616526497735L147.00088888888888,109.65089937051138L147.27288888888887,111.47914436128407L147.4391111111111,110.83210448424023L147.48444444444445,119.71799108717178L147.78666666666666,104.0191031826867L147.90755555555558,86.4898188908895L148.05866666666668,95.74300487836203L148.24,132.69332885742188L148.58755555555555,118.55278882715439L148.6631111111111,88.13873171806337L149.58488888888888,105.10443853007423L149.60000000000002,113.67557287216187L150.08355555555556,128.25060658984714L150.73333333333335,111.12719946437413L150.85422222222223,140.79970260461172L150.9751111111111,145.0236013200548L150.99022222222223,131.5012194050683L151.50400000000002,117.61068344116211L151.6702222222222,102.31902837753296L151.85155555555556,74.39590533574423L152.10844444444444,68.96819710731508L153.0151111111111,130.00694188806747L153.37777777777777,111.83769080373978L153.8311111111111,84.66855857107376L153.89155555555556,104.9209804005093L154.10311111111113,77.14951607916092L154.36,96.65563907888203L154.45066666666665,112.35455645455255L155.08533333333335,106.9578813844257L155.3271111111111,127.66964111063217L155.49333333333334,126.87026467588213L155.62933333333334,126.74177030722302L155.75022222222222,102.26662860976326L156.05244444444446,116.70025957955255L156.08266666666665,128.12152279747858L156.128,145.72392510043252L156.15822222222224,131.5045201778412L156.24888888888887,109.7600606415007L156.5511111111111,144.18293575445813L156.59644444444444,61.89570201767817L156.672,90.14185872342854L156.808,120.71688744756912L157.86577777777777,84.43090293142532L158.168,127.52770788139766L158.18311111111112,130.6108064783944L158.21333333333334,150.60930457380084L158.4248888888889,132.61449343628354L158.48533333333333,144.87046904034085L158.62133333333335,115.81017083591884L158.63644444444444,120.58650692303976L158.71200000000002,100.15289624532065L158.78755555555554,133.41398775577545L159.0142222222222,116.13453070322674L159.4826666666667,146.41169415579904L159.664,120.8549894226922L159.76977777777776,123.3903365665012L159.84533333333334,99.39368903636932L160.0568888888889,101.55431005689834L160.1928888888889,128.5312017467287L160.58577777777776,78.71956401401097L160.69155555555554,122.61995977825588L160.70666666666665,101.65516045358449L160.84266666666667,113.46886197725934L161.41688888888888,85.92243962817723L161.5377777777778,119.91780572467381L161.5528888888889,128.46695456239914L161.61333333333332,141.65981915262012L162.0968888888889,137.56529894140033L162.8071111111111,99.83581576082443L162.86755555555555,77.64333526293439L163.13955555555555,82.35568940639497L163.21511111111113,112.74269196722244L163.48711111111112,124.74907610151504L163.53244444444445,123.40289129151239L163.84977777777777,104.4890801774131L164.016,110.93764079941644L164.37866666666665,124.3113700548808L164.48444444444445,103.96976841820612L164.74133333333333,94.537014497651L164.77155555555555,102.48241662979126L164.81688888888888,109.82586979866028L165.13422222222223,53.77753979629942L165.16444444444446,91.42591827445561L165.24,101.05020542939505L165.40622222222223,101.15815838178L165.58755555555555,113.32566148704952L165.84444444444446,86.76785005463495L166.11644444444445,82.03292098310261L166.20711111111112,110.40058738655513L166.35822222222222,126.14524404207867L166.63022222222222,129.534400900205L166.64533333333333,121.9518480035994L167.0533333333333,120.52190608448451L167.17422222222223,125.35656564765507L167.32533333333333,119.9182183212704L167.49155555555555,123.93897215525311L167.80888888888887,81.43554005357956L168.08088888888886,102.53122091293335L168.56444444444443,110.38440770573085L168.6702222222222,84.91305152575177L169.456,27.04428639676838L169.4862222222222,98.7808946768443L169.63733333333334,123.8496744632721L169.74311111111112,105.61187340153589L170.1511111111111,108.88780196507773L170.46844444444443,97.17462665504881L170.61955555555556,94.41933605406021L170.86133333333333,105.12624720732373L170.89155555555556,82.46505697568259L170.99733333333336,94.12332746717667L171.4808888888889,58.49077807532417L171.55644444444442,110.52958276536732L171.72266666666667,101.53960393534767L171.79822222222222,104.05670841534933L172.448,146.83525403340658L172.49333333333334,118.04237736596002L172.79555555555558,137.2361942132314L172.88622222222222,92.56388915909662L172.90133333333335,76.74605555004545L173.2942222222222,107.37590067916447L173.39999999999998,128.5288440518909L174.352,118.15702027744716L174.488,124.22336909506058L174.59377777777777,129.01856674088373L174.63911111111113,137.23645945390066L174.7448888888889,120.71824312210083L174.79022222222224,120.30823998981053L175.12266666666667,114.53504105408987L175.2888888888889,146.8862686554591L175.45511111111114,148.09414519204034L175.63644444444444,123.06806915336186L175.65155555555555,132.5942467318641L175.69688888888888,99.6505598889457L176.05955555555553,117.5503264533149L176.15022222222223,140.0072224272622L176.49777777777777,121.85317847463821L176.6488888888889,130.1405347718133L176.76977777777776,136.0279640224245L177.69155555555554,111.44395576583015L177.82755555555556,80.00002808041044L177.96355555555556,102.5068482425478L178.49244444444446,88.61740271250409L178.91555555555556,87.59784705109068L178.9608888888889,93.5588069094552L179.56533333333334,88.6118621296353L179.928,96.54921862814163L180.0791111111111,84.49432492256166L180.91022222222222,142.65464848942227L181.10666666666668,108.5070342487759L181.54488888888886,123.0671850177977L182.08888888888887,130.70290393299527L182.16444444444446,126.2165348397361L182.17955555555557,111.01385328504776L182.20977777777776,109.3516194820404L182.42133333333334,112.07782202296788L182.60266666666666,79.71065051025816L182.95022222222224,106.38113028473323L183.0408888888889,119.27324142720967L183.26755555555556,120.08225493960911L183.35822222222222,110.69939573605856L183.50933333333333,122.73660673035516L183.872,72.402945889367L184.1288888888889,121.49687184227838L184.46133333333333,114.65631498230829L184.9297777777778,93.77674632602269L185.03555555555556,84.8423206806183L185.20177777777778,125.65401832262677L185.44355555555558,115.28431647353703L185.50400000000002,144.4836892022027L185.6097777777778,126.14830904536778L185.68533333333332,107.0383671919505L186.32000000000002,150.31580103768243L186.864,132.07310775915784L187.28711111111113,113.5022823015849L187.31733333333332,122.85431464513144L187.33244444444443,95.37812213102978L187.36266666666666,108.56568190786575L187.45333333333335,115.41923556062912L187.58933333333334,116.5720009803772L187.67999999999998,110.22614743974476L187.75555555555556,112.7945023112827L188.19377777777777,110.98626825544571L188.40533333333332,112.84813986884224L188.57155555555556,83.09214486016168L188.72266666666667,104.20936915609573L188.7831111111111,134.5847600698471L188.79822222222222,124.10315612951916L189.22133333333332,120.70963753594293L189.35733333333334,129.02841011683148L189.4782222222222,99.47673883703023L189.7048888888889,93.0946946806378L189.72,121.58292770385742L189.90133333333335,91.51271091567146L190.36977777777778,118.24334137969548L190.50577777777775,121.9247345129649L190.70222222222222,123.526110317972L190.7626666666667,75.70395443174576L190.8382222222222,114.04646774133047L190.97422222222224,128.06128369437326L191.09511111111112,111.53897086779278L191.2008888888889,111.57215542263454L191.21599999999998,104.82584741380482L191.4728888888889,117.14527448018393L191.9262222222222,106.89242588149177L192.07733333333334,90.325788391961L192.63644444444444,108.09753212663864L192.77244444444446,113.88965156343251L192.78755555555554,142.9643906487359L192.87822222222223,113.94703196154701L193.12,135.56709362400903L193.22577777777778,110.44337954786091L193.6488888888889,136.86541722880472L193.664,140.2454674906201L193.8,132.2674702273475L193.87555555555554,144.17683521906537L194.04177777777778,148.39475128385754L194.17777777777778,135.1196915573544L194.38933333333333,114.38635892338222L194.55555555555557,144.15974193149142L194.96355555555556,147.3604895008935L195.0088888888889,144.32448585828146L195.1448888888889,131.3147552145852L195.52266666666665,125.5253471268548L195.58311111111112,121.72297477722168L195.7191111111111,142.3045602771971L195.93066666666667,112.17767039934796L196.02133333333333,106.64657725228204L196.05155555555555,136.22052874830035L196.56533333333334,105.77163669798111L196.656,103.969886302948L196.74666666666667,130.53816000620526L196.7768888888889,143.02981668048434L196.792,104.83969887097678L196.9431111111111,95.85319764084288L197.0186666666667,125.77508595254689L197.23022222222224,108.52545373969609L197.3662222222222,129.96665477752686L197.608,129.88961709870233L197.9857777777778,99.04978977309334L198.27288888888887,97.50432080692717L198.4088888888889,124.64244935247635L198.6808888888889,109.19990181922913L199.08888888888887,113.9576710595025L199.43644444444445,144.4197072585424L199.46666666666664,137.13770151138306L199.48177777777778,140.8533991045422L200.25244444444445,144.78904015488095L200.37333333333333,167.2498705320888L200.41866666666667,102.34446201059555L200.55466666666666,137.58077131377328L201.1288888888889,138.7030929989285L201.59733333333332,120.08252018027837L201.89955555555557,134.1741380426619L202.11111111111111,91.77921884589726L202.18666666666667,87.54426843590208L202.65511111111113,121.51378830273947L202.776,95.26132782300314L202.80622222222223,116.48562093575796L203.32000000000002,103.01186647680073L203.36533333333335,123.76588788297444L203.5768888888889,121.89149101575217L203.62222222222223,112.66919083065456L203.78844444444445,122.9566386010912L203.87911111111111,128.25765020317502L204.3022222222222,112.461978925599L204.34755555555557,138.8541328244739L204.36266666666666,117.40441461404166L204.45333333333335,126.47764954302048L204.48355555555554,132.12279617786407L204.74044444444442,107.88457334041595L204.86133333333333,121.46999412112767L204.99733333333336,111.5927263100942L205.224,104.87674415111542L205.4657777777778,119.24058735370636L206.0551111111111,148.21258988645343L206.23644444444446,127.82964017656114L206.26666666666665,147.07040462228986L206.41777777777776,149.07067292266422L206.58399999999997,142.61680748727588L206.68977777777775,142.99029582076602L206.79555555555558,135.33052841822308L206.82577777777777,153.1509880224864L207.08266666666665,122.04512430561914L207.36977777777778,137.43824866082934L207.91377777777777,98.23155177964105L208.06488888888887,126.8313921822442L208.32177777777775,78.66801891061996L208.41244444444445,124.41348771254223L208.54844444444444,149.7017836239603L209.0017777777778,85.88353766335382L209.34933333333333,145.25497959719766L209.36444444444444,132.63639052708945L209.63644444444444,160.3043373094665L210.05955555555553,130.76791736814712L210.13511111111112,147.6739745007621L210.33155555555555,156.62122011184692L210.54311111111113,99.41929949654474L210.664,122.14812609884476L210.73955555555557,124.4545410739051L210.76977777777776,138.20335010687512L210.78488888888887,124.12042624420589L211.0871111111111,130.93554947111343L211.16266666666667,141.66462295585208L211.37422222222222,150.42381293243832L211.52533333333332,145.29276165697308L211.60088888888887,140.1487135887146L211.70666666666665,115.13103683789572L211.99377777777778,97.452392578125L212.1751111111111,100.8795083231396L212.704,142.87845267189874L212.84,117.43191123008728L213.56533333333334,153.9607088433372L213.64088888888887,132.92034539911484L213.86755555555555,122.45209190580582L214.03377777777777,133.91847550868988L214.09422222222221,116.79804497294957L214.336,98.54247278637355L214.53244444444445,129.4920802778668L214.8346666666667,116.69041620360481L214.97066666666666,148.9745673868391L215.09155555555557,105.928010808097L215.39377777777776,127.27502193715837L215.63555555555556,118.76365515920853L215.93777777777777,132.05268422762555L215.9831111111111,112.44087755680084L216.2248888888889,58.881624937057516L216.46666666666664,115.727121035258L216.63288888888889,100.7101963626014L217.53955555555555,129.46399423811172L217.67555555555555,135.117481218444L217.69066666666666,129.87930218378705L218.144,121.52837653954825L218.4311111111111,116.70656641324362L218.47644444444444,133.82682012187112L218.80888888888887,125.08752319547867L219.47377777777777,164.3698431385888L219.7911111111111,124.71238447560205L219.88177777777778,123.39581820699905L219.912,118.7930084599389L220.22933333333333,97.73401922649809L220.56177777777776,117.75040633148616L221,94.36177882883285L221.69511111111112,136.75566653410596L221.9368888888889,137.1379962232378L222.11822222222222,140.34843981266022L223.00977777777777,115.09378525945877L223.25155555555557,139.62353706359863L223.72,145.08059859275818L223.8408888888889,147.25238919258118L224.15822222222224,140.0431772735384L224.536,128.26109833187527L224.61155555555558,124.181962079472L224.808,138.4914604160521L225.00444444444443,123.06992583804661L225.09511111111112,97.47187303172218L225.72977777777777,48.02202357186213L225.7448888888889,104.77274033758377L225.82044444444443,131.25690327750314L226.04711111111112,104.2147329118517L226.92355555555557,133.40697361363306L227.18044444444445,149.78906253973645L227.58844444444446,103.7968315018548L227.60355555555554,108.69951056109535L227.72444444444443,113.99722139040631L227.90577777777779,133.34078133106232L227.95111111111112,123.65551829338074L228.0871111111111,112.8848609659407L228.31377777777777,98.61352781454724L228.37422222222222,52.93245355288189L228.40444444444447,97.22941358884177L228.6311111111111,109.28890479935541L228.9031111111111,122.80500935183632L229.1751111111111,114.00906880696616L229.40177777777777,121.69058594438766L229.5528888888889,106.5340562661489L229.59822222222223,121.78996278180017L229.77955555555553,114.53462845749324L229.79466666666667,111.39308849970502L229.8551111111111,101.47762603229945L230.2782222222222,108.45280726750693L230.67111111111112,128.5427839226193L231.1697777777778,84.20344432195029L231.39644444444446,137.54207564724817L231.94044444444447,114.8412761423323L232.016,109.42747831344604L232.74133333333333,117.75615321265327L232.80177777777777,104.8656040430069L233.10399999999998,134.65852644708423L233.82933333333335,148.52358457114963L233.84444444444446,141.32829778724246L234.2373333333333,130.86702896489038L234.28266666666664,146.8147126171324L234.91733333333335,129.9347080124749L235.1591111111111,148.98558961020578L235.68800000000002,131.3560148742464L235.91466666666665,164.3502742714352L236.03555555555556,142.64604290326437L236.11111111111111,163.9716284804874L236.1262222222222,135.8819048272239L236.62488888888888,125.75274679395889L236.88177777777778,102.76041832235127L236.92711111111112,118.43817538685268L236.97244444444445,150.774431626002L237.1688888888889,113.35021098454794L237.5768888888889,139.06741579373679L237.8488888888889,120.58954245514339L237.95466666666667,159.73199215200214L238.06044444444444,126.93701691097682L238.3928888888889,125.1552185085085L238.71022222222223,110.09691629144882L238.90666666666667,123.02456968360478L239.43555555555557,144.0004207028283L239.7831111111111,141.6111327542199L239.82844444444444,142.13070975409616L240.0248888888889,140.87641610039606L240.08533333333335,121.54370155599385L240.176,147.3494083351559L240.82577777777777,121.6135777367486L240.8408888888889,141.08745925956302L241.128,122.60628514819676L241.17333333333335,121.31102654669021L241.2942222222222,84.10256445407869L241.30933333333334,129.1877313454946L241.32444444444445,116.5729735294978L241.41511111111112,110.4042712847392L241.71733333333336,129.6386699544059L241.74755555555555,148.18385548061795L242.01955555555554,120.76468971040516L242.7751111111111,128.66741756598157L242.98666666666665,82.11688439051312L243.07733333333334,119.39595944351619L243.5911111111111,115.88523394531673L244.21066666666667,117.01442241668701L244.6337777777778,145.0716393523746L245.04177777777778,161.56832698318692L245.11733333333333,135.80498503314126L245.208,136.43569787343344L245.55555555555557,156.14493628342947L245.93333333333334,115.74103143480092L246.11466666666666,107.70344343450337L246.12977777777778,135.2797790368398L246.22044444444447,132.5200382868449L246.35644444444443,102.91328536139595L246.61333333333332,145.38742310471005L246.79466666666667,126.10368967056274L246.88533333333334,142.8908305697971L247.18755555555555,136.5396132734087L247.24800000000002,100.57601405514612L247.61066666666667,128.4409315056271L247.64088888888887,127.93614904085797L247.7768888888889,125.77172623740303L248.53244444444445,146.72688848442502L248.8951111111111,112.14053670565289L248.91022222222222,121.75492154227364L249.24266666666668,113.08007809850906L249.77155555555555,138.09551503923205L249.78666666666666,135.12039886580575L250.14933333333332,132.86906553639307L250.17955555555557,153.23711756202908L250.19466666666665,131.35109318627252L250.648,158.91502141952515L251.02577777777776,128.7934658262465L251.0711111111111,138.62269560496014L251.10133333333334,150.21094255977206L251.328,139.12921686967215L251.41866666666667,132.00859533415903L251.72088888888888,138.40796854760913L251.872,140.38554403516983L251.8871111111111,143.0513601170646L252.008,100.60333384407892L252.06844444444445,117.43197017245824L252.1591111111111,131.5601028336419L252.4008888888889,128.43459520075058L253.05066666666667,145.39555715190042L253.23200000000003,148.93486970000797L253.39822222222222,135.3743815422058L253.54933333333335,146.5633234050539L253.56444444444443,130.59238698747424L253.62488888888888,100.92280149459839L253.68533333333332,109.06486484739517L253.7457777777778,98.38671757115259L254.00266666666664,105.2169595162074L254.09333333333333,147.8125774860382L254.1537777777778,137.2832007540597L254.184,142.96106040477753L254.56177777777776,145.72566390037537L254.8488888888889,131.5075851811303L254.95466666666667,147.71078401141696L254.96977777777778,133.73436901304459L255.21155555555555,147.75670011838278L255.25688888888888,101.36946678161621L255.74044444444442,126.54466701878442L255.75555555555556,145.3582466310925L255.77066666666667,133.6504940191905L256.1333333333333,144.89378074804944L256.3448888888889,129.2569296889835L256.8737777777778,146.97317918141684" style="fill: none;" fill="none"></path></g></g></g></g></g></g><g transform="translate(58, 178)" clip-path="url(#clip_1)"><clipPath id="clip_1"><rect width="271" height="21"></rect></clipPath><g><g><line x1="0" y1="0" x2="0" y2="5" style="visibility: inherit;" fill="rgb(0, 0, 0)" stroke="rgb(204, 204, 204)" stroke-width="1px"></line><line x1="30.22222222222222" y1="0" x2="30.22222222222222" y2="5" style="visibility: inherit;" fill="rgb(0, 0, 0)" stroke="rgb(204, 204, 204)" stroke-width="1px"></line><line x1="60.44444444444444" y1="0" x2="60.44444444444444" y2="5" style="visibility: inherit;" fill="rgb(0, 0, 0)" stroke="rgb(204, 204, 204)" stroke-width="1px"></line><line x1="90.66666666666666" y1="0" x2="90.66666666666666" y2="5" style="visibility: inherit;" fill="rgb(0, 0, 0)" stroke="rgb(204, 204, 204)" stroke-width="1px"></line><line x1="120.88888888888889" y1="0" x2="120.88888888888889" y2="5" style="visibility: inherit;" fill="rgb(0, 0, 0)" stroke="rgb(204, 204, 204)" stroke-width="1px"></line><line x1="151.11111111111111" y1="0" x2="151.11111111111111" y2="5" style="visibility: inherit;" fill="rgb(0, 0, 0)" stroke="rgb(204, 204, 204)" stroke-width="1px"></line><line x1="181.33333333333331" y1="0" x2="181.33333333333331" y2="5" style="visibility: inherit;" fill="rgb(0, 0, 0)" stroke="rgb(204, 204, 204)" stroke-width="1px"></line><line x1="211.55555555555557" y1="0" x2="211.55555555555557" y2="5" style="visibility: inherit;" fill="rgb(0, 0, 0)" stroke="rgb(204, 204, 204)" stroke-width="1px"></line><line x1="241.77777777777777" y1="0" x2="241.77777777777777" y2="5" style="visibility: inherit;" fill="rgb(0, 0, 0)" stroke="rgb(204, 204, 204)" stroke-width="1px"></line><line x1="272" y1="0" x2="272" y2="5" style="visibility: inherit;" fill="rgb(0, 0, 0)" stroke="rgb(204, 204, 204)" stroke-width="1px"></line></g><g transform="translate(0, 8)"><text x="0" y="0" dx="0em" dy="0.95em" style="text-anchor: middle; visibility: hidden; font-family: Roboto, sans-serif; font-size: 12px; font-weight: 200;" fill="rgb(50, 49, 63)" stroke="none" stroke-width="1px">-2k</text><text x="30.22222222222222" y="0" dx="0em" dy="0.95em" style="text-anchor: middle; visibility: inherit; font-family: Roboto, sans-serif; font-size: 12px; font-weight: 200;" fill="rgb(50, 49, 63)" stroke="none" stroke-width="1px">0</text><text x="60.44444444444444" y="0" dx="0em" dy="0.95em" style="text-anchor: middle; visibility: inherit; font-family: Roboto, sans-serif; font-size: 12px; font-weight: 200;" fill="rgb(50, 49, 63)" stroke="none" stroke-width="1px">2k</text><text x="90.66666666666666" y="0" dx="0em" dy="0.95em" style="text-anchor: middle; visibility: inherit; font-family: Roboto, sans-serif; font-size: 12px; font-weight: 200;" fill="rgb(50, 49, 63)" stroke="none" stroke-width="1px">4k</text><text x="120.88888888888889" y="0" dx="0em" dy="0.95em" style="text-anchor: middle; visibility: inherit; font-family: Roboto, sans-serif; font-size: 12px; font-weight: 200;" fill="rgb(50, 49, 63)" stroke="none" stroke-width="1px">6k</text><text x="151.11111111111111" y="0" dx="0em" dy="0.95em" style="text-anchor: middle; visibility: inherit; font-family: Roboto, sans-serif; font-size: 12px; font-weight: 200;" fill="rgb(50, 49, 63)" stroke="none" stroke-width="1px">8k</text><text x="181.33333333333331" y="0" dx="0em" dy="0.95em" style="text-anchor: middle; visibility: inherit; font-family: Roboto, sans-serif; font-size: 12px; font-weight: 200;" fill="rgb(50, 49, 63)" stroke="none" stroke-width="1px">10k</text><text x="211.55555555555557" y="0" dx="0em" dy="0.95em" style="text-anchor: middle; visibility: inherit; font-family: Roboto, sans-serif; font-size: 12px; font-weight: 200;" fill="rgb(50, 49, 63)" stroke="none" stroke-width="1px">12k</text><text x="241.77777777777777" y="0" dx="0em" dy="0.95em" style="text-anchor: middle; visibility: inherit; font-family: Roboto, sans-serif; font-size: 12px; font-weight: 200;" fill="rgb(50, 49, 63)" stroke="none" stroke-width="1px">14k</text><text x="272" y="0" dx="0em" dy="0.95em" style="text-anchor: middle; visibility: hidden; font-family: Roboto, sans-serif; font-size: 12px; font-weight: 200;" fill="rgb(50, 49, 63)" stroke="none" stroke-width="1px">16k</text></g><line x1="0" y1="0" x2="272" y2="0" fill="rgb(0, 0, 0)" stroke="rgb(204, 204, 204)" stroke-width="1px"></line></g></g></g></g></svg>