<svg viewBox="0 0 330.0000305175781 200.00001525878906" xmlns="http://www.w3.org/2000/svg"><g><g><g><g><g><line x1="58" y1="178" x2="53" y2="178" style="visibility: inherit;" fill="rgb(0, 0, 0)" stroke="rgb(204, 204, 204)" stroke-width="1px"></line><line x1="58" y1="158.2222222222222" x2="53" y2="158.2222222222222" style="visibility: inherit;" fill="rgb(0, 0, 0)" stroke="rgb(204, 204, 204)" stroke-width="1px"></line><line x1="58" y1="138.44444444444443" x2="53" y2="138.44444444444443" style="visibility: inherit;" fill="rgb(0, 0, 0)" stroke="rgb(204, 204, 204)" stroke-width="1px"></line><line x1="58" y1="118.66666666666669" x2="53" y2="118.66666666666669" style="visibility: inherit;" fill="rgb(0, 0, 0)" stroke="rgb(204, 204, 204)" stroke-width="1px"></line><line x1="58" y1="98.88888888888887" x2="53" y2="98.88888888888887" style="visibility: inherit;" fill="rgb(0, 0, 0)" stroke="rgb(204, 204, 204)" stroke-width="1px"></line><line x1="58" y1="79.11111111111107" x2="53" y2="79.11111111111107" style="visibility: inherit;" fill="rgb(0, 0, 0)" stroke="rgb(204, 204, 204)" stroke-width="1px"></line><line x1="58" y1="59.33333333333334" x2="53" y2="59.33333333333334" style="visibility: inherit;" fill="rgb(0, 0, 0)" stroke="rgb(204, 204, 204)" stroke-width="1px"></line><line x1="58" y1="39.555555555555536" x2="53" y2="39.555555555555536" style="visibility: inherit;" fill="rgb(0, 0, 0)" stroke="rgb(204, 204, 204)" stroke-width="1px"></line><line x1="58" y1="19.777777777777747" x2="53" y2="19.777777777777747" style="visibility: inherit;" fill="rgb(0, 0, 0)" stroke="rgb(204, 204, 204)" stroke-width="1px"></line><line x1="58" y1="0" x2="53" y2="0" style="visibility: inherit;" fill="rgb(0, 0, 0)" stroke="rgb(204, 204, 204)" stroke-width="1px"></line></g><g transform="translate(48, 0)"><text x="0" y="178" dx="0em" dy="0.3em" style="text-anchor: end; visibility: hidden; font-family: Roboto, sans-serif; font-size: 12px; font-weight: 200;" fill="rgb(50, 49, 63)" stroke="none" stroke-width="1px">0.09</text><text x="0" y="158.2222222222222" dx="0em" dy="0.3em" style="text-anchor: end; visibility: inherit; font-family: Roboto, sans-serif; font-size: 12px; font-weight: 200;" fill="rgb(50, 49, 63)" stroke="none" stroke-width="1px">0.1</text><text x="0" y="138.44444444444443" dx="0em" dy="0.3em" style="text-anchor: end; visibility: hidden; font-family: Roboto, sans-serif; font-size: 12px; font-weight: 200;" fill="rgb(50, 49, 63)" stroke="none" stroke-width="1px">0.11</text><text x="0" y="118.66666666666669" dx="0em" dy="0.3em" style="text-anchor: end; visibility: inherit; font-family: Roboto, sans-serif; font-size: 12px; font-weight: 200;" fill="rgb(50, 49, 63)" stroke="none" stroke-width="1px">0.12</text><text x="0" y="98.88888888888887" dx="0em" dy="0.3em" style="text-anchor: end; visibility: hidden; font-family: Roboto, sans-serif; font-size: 12px; font-weight: 200;" fill="rgb(50, 49, 63)" stroke="none" stroke-width="1px">0.13</text><text x="0" y="79.11111111111107" dx="0em" dy="0.3em" style="text-anchor: end; visibility: inherit; font-family: Roboto, sans-serif; font-size: 12px; font-weight: 200;" fill="rgb(50, 49, 63)" stroke="none" stroke-width="1px">0.14</text><text x="0" y="59.33333333333334" dx="0em" dy="0.3em" style="text-anchor: end; visibility: hidden; font-family: Roboto, sans-serif; font-size: 12px; font-weight: 200;" fill="rgb(50, 49, 63)" stroke="none" stroke-width="1px">0.15</text><text x="0" y="39.555555555555536" dx="0em" dy="0.3em" style="text-anchor: end; visibility: inherit; font-family: Roboto, sans-serif; font-size: 12px; font-weight: 200;" fill="rgb(50, 49, 63)" stroke="none" stroke-width="1px">0.16</text><text x="0" y="19.777777777777747" dx="0em" dy="0.3em" style="text-anchor: end; visibility: hidden; font-family: Roboto, sans-serif; font-size: 12px; font-weight: 200;" fill="rgb(50, 49, 63)" stroke="none" stroke-width="1px">0.17</text><text x="0" y="0" dx="0em" dy="0.3em" style="text-anchor: end; visibility: hidden; font-family: Roboto, sans-serif; font-size: 12px; font-weight: 200;" fill="rgb(50, 49, 63)" stroke="none" stroke-width="1px">0.18</text></g><line x1="58" y1="0" x2="58" y2="178" fill="rgb(0, 0, 0)" stroke="rgb(204, 204, 204)" stroke-width="1px"></line></g></g><g transform="translate(58, 0)" clip-path="url(#clip_0)"><clipPath id="clip_0"><rect width="271" height="177"></rect></clipPath><g><g><g><line x1="0" y1="0" x2="0" y2="178" fill="rgb(0, 0, 0)" stroke="rgb(60, 60, 60)" stroke-width="1px" opacity="0.25"></line><line x1="30.22222222222222" y1="0" x2="30.22222222222222" y2="178" fill="rgb(0, 0, 0)" stroke="rgb(60, 60, 60)" stroke-width="1px" opacity="0.25"></line><line x1="60.44444444444444" y1="0" x2="60.44444444444444" y2="178" fill="rgb(0, 0, 0)" stroke="rgb(60, 60, 60)" stroke-width="1px" opacity="0.25"></line><line x1="90.66666666666666" y1="0" x2="90.66666666666666" y2="178" fill="rgb(0, 0, 0)" stroke="rgb(60, 60, 60)" stroke-width="1px" opacity="0.25"></line><line x1="120.88888888888889" y1="0" x2="120.88888888888889" y2="178" fill="rgb(0, 0, 0)" stroke="rgb(60, 60, 60)" stroke-width="1px" opacity="0.25"></line><line x1="151.11111111111111" y1="0" x2="151.11111111111111" y2="178" fill="rgb(0, 0, 0)" stroke="rgb(60, 60, 60)" stroke-width="1px" opacity="0.25"></line><line x1="181.33333333333331" y1="0" x2="181.33333333333331" y2="178" fill="rgb(0, 0, 0)" stroke="rgb(60, 60, 60)" stroke-width="1px" opacity="0.25"></line><line x1="211.55555555555557" y1="0" x2="211.55555555555557" y2="178" fill="rgb(0, 0, 0)" stroke="rgb(60, 60, 60)" stroke-width="1px" opacity="0.25"></line><line x1="241.77777777777777" y1="0" x2="241.77777777777777" y2="178" fill="rgb(0, 0, 0)" stroke="rgb(60, 60, 60)" stroke-width="1px" opacity="0.25"></line><line x1="272" y1="0" x2="272" y2="178" fill="rgb(0, 0, 0)" stroke="rgb(60, 60, 60)" stroke-width="1px" opacity="0.25"></line></g><g><line x1="0" y1="178" x2="272" y2="178" fill="rgb(0, 0, 0)" stroke="rgb(60, 60, 60)" stroke-width="1px" opacity="0.25"></line><line x1="0" y1="158.2222222222222" x2="272" y2="158.2222222222222" fill="rgb(0, 0, 0)" stroke="rgb(60, 60, 60)" stroke-width="1px" opacity="0.25"></line><line x1="0" y1="138.44444444444443" x2="272" y2="138.44444444444443" fill="rgb(0, 0, 0)" stroke="rgb(60, 60, 60)" stroke-width="1px" opacity="0.25"></line><line x1="0" y1="118.66666666666669" x2="272" y2="118.66666666666669" fill="rgb(0, 0, 0)" stroke="rgb(60, 60, 60)" stroke-width="1px" opacity="0.25"></line><line x1="0" y1="98.88888888888887" x2="272" y2="98.88888888888887" fill="rgb(0, 0, 0)" stroke="rgb(60, 60, 60)" stroke-width="1px" opacity="0.25"></line><line x1="0" y1="79.11111111111107" x2="272" y2="79.11111111111107" fill="rgb(0, 0, 0)" stroke="rgb(60, 60, 60)" stroke-width="1px" opacity="0.25"></line><line x1="0" y1="59.33333333333334" x2="272" y2="59.33333333333334" fill="rgb(0, 0, 0)" stroke="rgb(60, 60, 60)" stroke-width="1px" opacity="0.25"></line><line x1="0" y1="39.555555555555536" x2="272" y2="39.555555555555536" fill="rgb(0, 0, 0)" stroke="rgb(60, 60, 60)" stroke-width="1px" opacity="0.25"></line><line x1="0" y1="19.777777777777747" x2="272" y2="19.777777777777747" fill="rgb(0, 0, 0)" stroke="rgb(60, 60, 60)" stroke-width="1px" opacity="0.25"></line><line x1="0" y1="0" x2="272" y2="0" fill="rgb(0, 0, 0)" stroke="rgb(60, 60, 60)" stroke-width="1px" opacity="0.25"></line></g></g></g><g><g><line x1="0" y1="356" x2="272" y2="356" fill="rgb(0, 0, 0)" stroke="rgb(153, 153, 153)" stroke-width="1.5px"></line></g></g><g><g><line x1="30.22222222222222" y1="0" x2="30.22222222222222" y2="178" fill="rgb(0, 0, 0)" stroke="rgb(153, 153, 153)" stroke-width="1.5px"></line></g></g><g><g><g><g><g><path stroke="rgb(255, 112, 67)" stroke-width="2px" d="M34.906666666666666,-21.08911637304415L35.02755555555555,6.242202349932027L35.465777777777774,-9.656850963060782L35.768,5.065383704755705L36.584,-15.605486093770079L36.599111111111114,6.405988361765064L36.90133333333333,26.438273525908482L37.17333333333333,20.060120462498535L37.38488888888889,27.601356821030837L38.32177777777778,32.92707089023555L38.729777777777784,48.33080046048298L38.971555555555554,22.41816235483986L39.077333333333335,17.448833792274478L39.092444444444446,23.256170820599483L39.59111111111111,9.509429182142073L39.80266666666667,6.976602497599193L39.92355555555556,19.856292429109747L39.99911111111111,37.19740661409914L40.029333333333334,44.25364132572702L40.21066666666667,32.52640095621984L40.361777777777775,31.573086312142134L41.01155555555556,18.946380622637076L41.132444444444445,47.03409896916784L41.25333333333334,28.385362673504556L41.64622222222222,38.065681157421466L41.782222222222224,58.96644356067481L41.842666666666666,60.89404418497863L41.87288888888889,68.09479104611374L42.08444444444445,48.22599743361398L42.114666666666665,43.20993790806177L42.220444444444446,48.27581960903228L42.34133333333334,35.332110938930725L42.432,50.43257854510547L42.855111111111114,39.93640521836678L43.958222222222226,47.931165213774804L44.45688888888889,33.130555218996605L44.50222222222222,44.55462179972458L44.75911111111111,34.96786541245672L44.89511111111111,43.860562334143864L44.91022222222222,61.216215674560125L45.00088888888889,43.372175297491474L45.016000000000005,49.975805108559314L45.09155555555555,31.203203213433145L45.36355555555556,19.94625541037802L45.40888888888889,42.49945956349306L45.54488888888889,49.747865966240205L46.285333333333334,64.01746489614366L46.330666666666666,61.41655300596759L46.42133333333333,63.575941421491976L46.512,43.05152134372974L46.587555555555554,42.18495129377825L46.73866666666667,42.28516552546325L46.82933333333333,13.021275903972162L46.90488888888889,27.06299636865522L47.69066666666667,40.03909878131002L47.76622222222222,67.2636948199843L47.781333333333336,62.679097686515746L48.053333333333335,55.37544205909028L48.24977777777778,50.72477797145672L48.44622222222222,60.84878266604429L49.02044444444444,34.03354289979746L49.27733333333333,43.81256704970141L49.57955555555556,51.11650142735602L49.775999999999996,57.77089004980012L50.108444444444444,54.423300096325285L50.153777777777776,72.98236817653908L50.36533333333333,41.927909076759114L50.425777777777775,44.0097872114804L51.15111111111111,44.32046902755657L51.25688888888889,49.91414513138786L51.589333333333336,34.395600788812295L51.77066666666666,46.60237692840788L51.92177777777778,51.66852541991807L52.37511111111111,75.2883205612889L52.54133333333333,47.79456651080661L52.662222222222226,43.86679624108548L52.75288888888889,51.588513259949075L53.236444444444444,37.06069898630226L53.29688888888889,33.3392348979747L53.67466666666667,32.5351902475193L53.916444444444444,60.32550906652949L53.931555555555555,10.743123448976297L54.15822222222222,36.201061803353866L54.218666666666664,63.555097086183075L54.47555555555556,64.33490515328559L55.004444444444445,49.25083363135256L55.12533333333333,32.06960893519479L55.42755555555556,23.49685661503334L55.639111111111106,25.31945079470869L55.77511111111111,-3.5363186828647644L55.86577777777778,12.17290693328649L55.94133333333333,5.604076292947111L56.04711111111111,32.405810072787375L56.18311111111111,45.32189257892701L56.394666666666666,52.05508089567198L56.42488888888889,73.90901698307509L56.47022222222222,68.77528438218884L56.60622222222222,60.1356947019604L57.13511111111111,54.53337932927183L57.49777777777778,60.05597287000877L57.81511111111111,70.22381942685108L58.08711111111111,56.75463461011047L58.22311111111111,57.517013883699676L58.41955555555556,49.62828424142381L58.464888888888886,63.4412634737619L58.58577777777778,60.10708902217253L59.190222222222225,76.544441714178L59.44711111111111,85.0025984955241L59.598222222222226,73.20337630253162L59.64355555555555,61.02463238005513L59.94577777777778,54.93733985495702L60.187555555555555,51.36758975548819L60.45955555555555,60.90796436685288L60.64088888888889,47.86255695313989L60.897777777777776,45.564460553736794L60.98844444444444,49.132246887823044L61.351111111111116,45.21581203442553L61.547555555555554,49.929722741124095L61.59288888888889,54.50816246628058L61.608000000000004,42.87683612163437L61.72888888888889,52.40059565868655L61.78933333333333,61.63443002323317L61.89511111111111,73.2785432305469L62.635555555555555,79.59917455579708L62.696000000000005,61.66069181958359L62.80177777777778,48.29201930482898L62.93777777777778,46.84931487472678L63.270222222222216,64.11681752184128L63.330666666666666,66.54615156055283L63.45155555555556,58.438265738094586L63.57244444444444,27.886779064260764L63.63288888888889,42.8761861820291L63.935111111111105,56.252631905962595L64.01066666666667,35.404718374517635L64.02577777777778,22.07531562498963L64.10133333333333,32.97986754805893L64.28266666666667,46.27916268327464L64.328,57.10750707147362L64.40355555555556,61.595828433447785L64.69066666666667,63.87176861077699L64.93244444444444,74.77620058814114L65.08355555555556,51.36201274264843L65.26488888888889,55.18991952659087L65.65777777777777,62.95637415892053L65.79377777777778,66.51236242679457L66.32266666666666,38.34325809985347L66.33777777777777,49.63171529332104L66.368,59.35024598176858L67.03288888888889,49.19471983540076L67.15377777777778,39.20103421201451L67.28977777777777,35.4237555460872L67.32,64.69517586344266L67.39555555555556,52.481898331260716L67.77333333333334,53.97551818241971L67.78844444444445,54.35528419279564L67.93955555555556,61.17211104285158L67.96977777777778,69.23980338286222L68.04533333333333,74.8990929538659L68.2568888888889,80.44145394253647L68.34755555555556,87.19679783184742L68.48355555555555,77.13958958095625L68.71022222222223,72.33831545363323L68.80088888888889,78.83818215916823L69.5111111111111,79.66195878526399L69.60177777777778,77.67436192450756L69.85866666666668,72.30132793728546L69.94933333333333,62.78499685002453L70.68977777777778,77.3909712873947L70.79555555555555,74.03791421643537L70.8711111111111,67.17802280977351L71.06755555555556,77.21793532977823L71.62666666666667,68.68192658258337L71.83822222222223,77.45946288433058L72.36711111111111,86.59511514434381L73.62133333333334,85.18998637951908L73.75733333333334,64.49867870570381L73.89333333333333,65.6351224127415L73.98400000000001,84.47575387350076L74.34666666666666,86.9008064329109L75.05688888888889,92.14227230108668L75.17777777777778,85.97893723700575L75.72177777777779,91.29135034858335L75.96355555555556,89.11510140194649L76.00888888888889,92.67346509989588L76.12977777777779,95.78324867239822L76.17511111111111,70.86594122817851L76.53777777777779,78.22144827547112L76.59822222222222,69.7451523063726L77.05155555555557,72.98500819777989L77.62577777777778,65.74646659028522L77.89777777777779,73.70235105487238L77.98844444444444,83.83006524853758L78.23022222222222,73.52627880196815L78.50222222222222,91.7695545205735L78.51733333333334,81.120066729144L79.03111111111112,72.3448466289442L79.18222222222222,67.632393604223L79.22755555555557,88.25238556672049L79.24266666666666,78.58014620349158L79.27288888888889,68.46640594075L79.288,91.10646793672038L79.66577777777778,71.32590492623203L80.16444444444444,64.79383215408481L80.7688888888889,95.91168436865583L81.23733333333334,89.13215856892877L81.64533333333334,84.28062744027183L81.7208888888889,87.02775198868399L82.05333333333334,93.98404656772044L82.34044444444444,96.84787627479632L82.56711111111112,98.00411143818881L82.80888888888889,89.39422366769743L83.24711111111112,82.19370645666436L83.29244444444444,92.82698133088407L83.67022222222222,81.06011095475839L84.0631111111111,75.30960569215164L84.32,84.9444381534332L84.62222222222222,96.82333260677568L84.89422222222223,65.80562470033489L84.92444444444445,64.42822850748729L84.95466666666667,72.92384504546291L85.04533333333333,63.46365176931097L85.46844444444444,75.83879015555361L85.68,98.96246048569243L86.52622222222223,93.82134101843569L86.58666666666667,89.62809301383072L86.75288888888888,97.31272271520628L87.22133333333333,6.341585157461039L87.34222222222223,30.035833007979637L87.53866666666667,48.70174089683391L87.61422222222222,57.199037268770844L87.85600000000001,51.88188554943389L87.93155555555555,62.88152236071363L87.96177777777778,51.179627538352705L88.11288888888889,62.51275593742171L88.17333333333333,67.7067480804787L88.61155555555555,59.34984582331708L88.79288888888888,73.10950976941476L89.57866666666666,87.86282039814617L89.74488888888888,107.26593324224203L90.00177777777778,82.73368315837148L90.42488888888889,88.5769686357659L90.81777777777778,96.55357729665656L90.9991111111111,89.80861109988552L91.16533333333334,73.08840862808619L91.21066666666667,62.81680429185885L92.072,38.0202838671533L92.14755555555556,44.24455381519889L92.16266666666667,70.60074979052654L92.31377777777779,84.9047528517719L93.41688888888889,100.08387285412873L93.58311111111111,103.1661201301374L93.59822222222222,95.20965062676815L93.62844444444444,99.75212934539752L93.704,106.57888568926805L93.71911111111112,104.6802646010456L94.09688888888888,110.97256965374972L94.17244444444444,108.05461029107322L94.21777777777778,108.89003729492727L94.33866666666667,93.13242949183302L94.6408888888889,105.45039270336073L94.68622222222221,114.4359331012645L94.70133333333334,119.93456192631129L94.928,123.69449173501296L95.26044444444445,113.65622041743362L95.45688888888888,103.2711567342892L95.48711111111112,109.2771736273867L95.68355555555556,112.18710278807298L96.24266666666666,115.20474783185051L96.60533333333333,115.29530216616149L96.71111111111111,106.02760409001233L96.80177777777777,95.03642420513994L97.16444444444444,106.09318220674466L97.20977777777777,102.83198587929888L98.10133333333334,93.62284551164915L98.35822222222222,101.72949390074461L98.37333333333333,104.81494993908382L98.67555555555555,79.55774892336035L98.7208888888889,85.28605018502684L98.85688888888889,98.21885909372956L99.40088888888889,116.66217924992874L99.44622222222222,113.49668912925037L99.688,115.82687561481492L100.15644444444445,106.85477285843665L100.57955555555554,105.65374355803213L100.70044444444444,106.49539351967475L100.7608888888889,114.18427377314534L100.88177777777777,96.01298636882862L101.048,93.3629710516693L101.44088888888889,73.61310029673743L101.51644444444445,107.47809681484007L101.75822222222223,109.53696629385162L102,105.74396146987547L102.1208888888889,77.76540643565659L102.2568888888889,51.68554888522312L102.39288888888889,50.86518897824898L102.55911111111111,63.5592773383993L102.57422222222222,92.55007895519496L102.75555555555556,98.13055779550568L102.78577777777778,77.07395681416118L103.36,80.07352882893622L103.54133333333333,77.65949372744937L103.82844444444444,89.73183956057984L104.176,97.04624904049795L104.47822222222223,82.29546990108506L105.20355555555555,61.374642233721495L105.33955555555555,58.63116996725726L105.38488888888888,95.21113568621406L105.4151111111111,80.75430278162015L106.18577777777779,86.19822118919338L106.2311111111111,103.31170892991705L106.53333333333333,105.54857345587857L106.56355555555555,116.67532615231252L106.57866666666666,106.91470231433773L106.68444444444445,111.33070421773897L106.95644444444444,100.29389272069159L107.37955555555556,97.33050024868184L107.68177777777778,101.12098631809171L107.80266666666667,102.47016565928865L108.27111111111111,107.55657885364033L108.528,102.48186526101297L108.80000000000001,104.8870019731344L108.92088888888888,110.78027426638067L109.38933333333334,106.74615695141472L109.79733333333334,94.86734575865297L110.14488888888889,100.3786590480398L110.58311111111111,81.95057740908408L110.74933333333334,93.39753073845567L110.99111111111111,104.88396717280042L111.20266666666666,97.94161250493863L111.52,92.72340643983247L112.12444444444444,104.24294507055178L112.45688888888888,93.55414031342546L112.53244444444444,69.11949867775898L113.09155555555556,74.63324907682853L113.25777777777778,88.08438502772823L113.34844444444444,96.40387413449923L113.56,79.57545552911397L113.59022222222222,89.09014620009944L114.07377777777778,98.73542095198565L114.43644444444445,104.78446086298686L114.61777777777777,105.94836079839958L114.648,104.01620884065949L114.73866666666667,70.18021029229033L114.92,84.28626735604843L115.29777777777777,84.36028028353938L115.7208888888889,86.69208820622762L115.75111111111111,88.54001911458333L115.81155555555554,103.88803437272219L116.03822222222222,93.97883246360593L116.65777777777777,104.27772265418726L116.70311111111111,98.97154636628048L117.504,95.94437974229096L117.54933333333332,103.25680304488324L117.70044444444444,112.31936548569932L117.97244444444445,100.97473678706235L117.98755555555555,115.05860349566626L118.24444444444444,117.83412297916279L118.28977777777777,105.33084396466067L118.80355555555555,106.62415105203793L118.83377777777778,110.36247866610687L118.93955555555556,108.20726035127373L119.34755555555556,114.76228247669272L119.48355555555555,113.17063911178533L119.80088888888889,108.8602053766578L120.16355555555555,97.16974188490815L120.2391111111111,99.24760743143624L120.32977777777778,98.23961603208527L120.73777777777778,112.62955995670775L121.04,113.14410861760138L121.11555555555556,123.84639364074854L121.34222222222223,119.99643762265357L121.41777777777777,107.99538925633989L122.06755555555556,107.65061853601897L122.128,94.96731834972516L122.44533333333334,105.16915099639468L122.47555555555556,125.03853503026497L122.71733333333333,118.73731217412242L122.74755555555555,119.8743231896909L122.83822222222223,111.16494123034455L122.86844444444445,110.06527802085543L123.14044444444446,111.00629005340798L123.488,106.52788821695417L123.62400000000001,103.70829751130181L123.91111111111111,118.75940647809117L124.07733333333333,100.19898298038089L124.10755555555556,89.82692850952506L124.19822222222223,101.86756120517944L124.39466666666667,113.7836356650166L124.66666666666666,116.7295163393905L125.256,114.6975428878467L125.60355555555556,126.25486039302619L125.664,126.7459125681962L125.67911111111111,123.05590992423038L125.78488888888889,103.02889904927498L126.04177777777778,102.15323680636722L126.20800000000001,104.17350151934686L126.37422222222222,88.1221472059264L126.48,77.91358149787561L126.57066666666667,36.70131001649101L126.93333333333334,61.400025129318365L127.82488888888889,94.74788870546561L128.36888888888888,84.38501182609136L128.384,100.645076742914L128.44444444444443,101.72583607569798L128.74666666666667,111.62721831640877L128.76177777777778,124.48616678673127L128.7768888888889,104.12413117118872L128.89777777777778,80.01593482987998L129.56266666666667,93.62392441992777L129.66844444444445,97.46378634047733L129.71377777777778,107.77553149001467L130.00088888888888,123.20691731733088L130.81688888888888,118.77397831311356L130.95288888888888,118.30875137135371L130.98311111111113,121.20147511969994L131.04355555555557,118.06150843467904L131.1342222222222,93.713317701485L131.17955555555557,104.67309687292547L131.28533333333334,91.80968791895687L131.40622222222223,104.71722263222415L131.45155555555556,112.61167516915619L131.63288888888889,115.89081384836142L132.0408888888889,111.78328960397943L132.10133333333334,103.44951773970124L132.26755555555556,104.39487767457904L132.43377777777778,115.5213069956564L133.46133333333333,109.40390569613753L133.6728888888889,112.17795851483436L133.79377777777776,126.61708814560731L134.00533333333334,105.016269591076L134.02044444444445,110.91422500342829L134.41333333333333,104.22977408778422L134.6248888888889,100.38906975925353L135.00266666666667,93.58294715819324L135.4408888888889,107.83717648786842L135.4862222222222,113.72066206761387L135.87911111111111,100.44323024435421L136.1511111111111,111.24826590985208L136.21155555555555,103.53459288208438L136.58933333333334,122.3023607874968L136.98222222222222,102.29794857571869L137.37511111111112,99.65664648680763L137.60177777777778,103.91130949988624L137.72266666666667,99.52670813230138L137.73777777777778,105.12142001367087L138.0702222222222,97.38217487930474L138.13066666666668,95.13630914091597L138.34222222222223,104.63904869728339L138.9466666666667,110.12603610459797L139.08266666666665,118.22792601806222L139.264,110.86665793657347L139.5511111111111,128.92721069892278L139.59644444444444,136.2726509659557L139.73244444444444,112.55502056016931L140.53333333333336,108.5810514386559L140.69955555555555,114.96159503502699L140.97155555555554,122.98071787277027L141.12266666666667,117.78355890225868L141.13777777777776,84.52685630281998L141.40977777777778,98.45772515379198L141.4248888888889,77.38125750209574L141.77244444444446,85.5821853975926L141.8328888888889,71.08853976265765L142.05955555555553,73.35325210559738L142.51288888888888,95.14741130631192L142.6488888888889,97.26004819581854L142.69422222222224,100.70434851155647L142.8,120.45470684127923L142.95111111111112,109.70720075250479L142.99644444444445,90.69818394722364L143.072,100.62414758210473L143.2231111111111,108.7631044329841L143.58577777777776,113.53118726594415L143.7217777777778,113.64690802948245L144.0088888888889,105.36850342360412L144.26577777777777,100.68220317288603L145.2026666666667,95.71920331009184L145.73155555555556,107.12832842746812L145.98844444444444,112.1761967515382L146.13955555555555,90.86656950300862L146.21511111111113,105.12668278314894L146.38133333333334,75.09882127873371L146.47199999999998,77.72769539666862L146.57777777777778,98.35746933222758L146.84977777777777,111.55601779540946L146.92533333333333,109.09837193971549L147.00088888888888,114.81129376436013L147.27288888888887,112.72949125442413L147.4391111111111,107.57841889769607L147.48444444444445,111.86045228004254L147.78666666666666,107.87614121903191L147.90755555555558,96.63903558904785L148.05866666666668,91.05005042943272L148.24,111.50677194246731L148.58755555555555,114.2813222715866L148.6631111111111,101.84869951398176L149.58488888888888,99.73347778685817L149.60000000000002,104.39799071425294L150.08355555555556,113.88017391209262L150.73333333333335,110.23027734716742L150.85422222222223,125.46587923291L150.9751111111111,139.00159452233316L150.99022222222223,132.85167286188232L151.50400000000002,129.6619932390037L151.6702222222222,118.34015786933269L151.85155555555556,96.83096204770023L152.10844444444444,79.66887408306319L153.0151111111111,97.92238039459853L153.37777777777777,104.76673730226L153.8311111111111,91.51319639424796L153.89155555555556,89.91276068479671L154.10311111111113,80.16446288619946L154.36,85.94053477827084L154.45066666666665,101.0280279140011L155.08533333333335,103.82171045398061L155.3271111111111,116.04784991469522L155.49333333333334,125.03880630012276L155.62933333333334,129.03101145339232L155.75022222222222,122.85131000678408L156.05244444444446,124.6909741592447L156.08266666666665,125.73558861605564L156.128,139.15696006836504L156.15822222222224,137.09505989312999L156.24888888888887,120.43103324270172L156.5511111111111,133.10583172775858L156.59644444444444,92.5330617049257L156.672,93.22718757901109L156.808,108.75586811875084L157.86577777777777,97.5321258131484L158.168,106.53809872477832L158.18311111111112,115.96256008471795L158.21333333333334,137.19872339071944L158.4248888888889,132.93700323337916L158.48533333333333,140.95816394256977L158.62133333333335,129.61958387236257L158.63644444444444,120.44934557852754L158.71200000000002,109.13992908186282L158.78755555555554,116.64187453540106L159.0142222222222,114.64653746099434L159.4826666666667,130.83415175696243L159.664,132.434888523804L159.76977777777776,126.84812990412988L159.84533333333334,110.14528584763269L160.0568888888889,102.24445559353546L160.1928888888889,114.12222255331824L160.58577777777776,91.97967507942715L160.69155555555554,105.82519616189118L160.70666666666665,97.65143796173908L160.84266666666667,108.6640575165971L161.41688888888888,101.45372796932072L161.5377777777778,116.06596747763481L161.5528888888889,121.97438221080283L161.61333333333332,133.88325328570514L162.0968888888889,130.7858654197568L162.8071111111111,114.13650486620683L162.86755555555555,107.61559991026701L163.13955555555555,89.43322681576879L163.21511111111113,102.38672203800272L163.48711111111112,116.30894867501704L163.53244444444445,125.59666269838708L163.84977777777777,118.19407712113794L164.016,122.80942187854146L164.37866666666665,124.94653664121128L164.48444444444445,113.75906949228833L164.74133333333333,108.07986075406674L164.77155555555555,108.20600138010492L164.81688888888888,112.7678367622145L165.13422222222223,77.00071628720917L165.16444444444446,76.5091688887823L165.24,86.03903776214476L165.40622222222223,86.07272187090821L165.58755555555555,93.52818235354432L165.84444444444446,92.92551848449395L166.11644444444445,79.59437053364034L166.20711111111112,97.19025107532983L166.35822222222222,108.06071623616226L166.63022222222222,121.64264098543278L166.64533333333333,117.98734236932144L167.0533333333333,121.09337705942464L167.17422222222223,126.38398983952223L167.32533333333333,122.36225437183604L167.49155555555555,130.88198551571028L167.80888888888887,107.63677921382647L168.08088888888886,103.69179855081282L168.56444444444443,105.25169236702095L168.6702222222222,98.35863181298396L169.456,47.45440540784522L169.4862222222222,66.45735302147953L169.63733333333334,93.61745287524275L169.74311111111112,94.63127082051138L170.1511111111111,94.26250926994727L170.46844444444443,95.65956228778828L170.61955555555556,93.4567096235054L170.86133333333333,93.17320894675302L170.89155555555556,94.57207193592635L170.99733333333336,94.70437598995039L171.4808888888889,68.32380900842948L171.55644444444442,80.91758618524804L171.72266666666667,88.35107553266167L171.79822222222222,91.62569659972465L172.448,115.58565783382687L172.49333333333334,116.19205424979732L172.79555555555558,127.01793896102815L172.88622222222222,112.36837753885003L172.90133333333335,86.27629631035664L173.2942222222222,97.50015386969396L173.39999999999998,112.44264741558162L174.352,115.36847204259035L174.488,114.95157500678894L174.59377777777777,126.94604830024731L174.63911111111113,127.74941244436823L174.7448888888889,126.30100934003575L174.79022222222224,127.69195354690356L175.12266666666667,125.94697793748104L175.2888888888889,134.83459952131582L175.45511111111114,136.69705826699806L175.63644444444444,133.97609432799328L175.65155555555555,135.09567672568187L175.69688888888888,125.33172064822159L176.05955555555553,117.5553917223951L176.15022222222223,131.07320381278902L176.49777777777777,128.18901696051228L176.6488888888889,135.90205701205835L176.76977777777776,136.48332223900383L177.69155555555554,132.90682007635567L177.82755555555556,113.58606085769627L177.96355555555556,105.24486650780219L178.49244444444446,112.34800332373936L178.91555555555556,102.23166616643736L178.9608888888889,106.38677968115768L179.56533333333334,100.09350306310945L179.928,95.95178789209542L180.0791111111111,81.28868731710712L180.91022222222222,110.1423883383013L181.10666666666668,109.35821653141467L181.54488888888886,109.44949907899232L182.08888888888887,122.74663300087913L182.16444444444446,126.1594318104703L182.17955555555557,113.81578306606258L182.20977777777776,108.12182254146047L182.42133333333334,119.57334100865955L182.60266666666666,97.30537191561378L182.95022222222224,102.66070296750044L183.0408888888889,110.7871431307463L183.26755555555556,116.84453063122571L183.35822222222222,117.15296302385413L183.50933333333333,119.87925794609755L183.872,90.66259390645246L184.1288888888889,106.12859367979712L184.46133333333333,107.10848292567884L184.9297777777778,101.357777478779L185.03555555555556,92.26392869302708L185.20177777777778,111.89401708267906L185.44355555555558,114.71571790907448L185.50400000000002,128.9713616938081L185.6097777777778,127.74032028208957L185.68533333333332,117.54706800064582L186.32000000000002,138.29573489343474L186.864,137.81035001412906L187.28711111111113,130.51717801492933L187.31733333333332,127.83527266211887L187.33244444444443,114.98110392163079L187.36266666666666,107.62042968950597L187.45333333333335,107.0779653266651L187.58933333333334,110.61593514336643L187.67999999999998,108.92958988804385L187.75555555555556,109.19829984938362L188.19377777777777,110.14483271699301L188.40533333333332,113.05838766624555L188.57155555555556,94.67675788029709L188.72266666666667,94.41070409710017L188.7831111111111,118.24787850171542L188.79822222222222,114.72005109714931L189.22133333333332,118.04761390059998L189.35733333333334,124.03687831926896L189.4782222222222,119.01696432333324L189.7048888888889,109.2292956738407L189.72,113.33330376716862L189.90133333333335,98.5017930070239L190.36977777777778,110.87744571763345L190.50577777777775,116.06523169277948L190.70222222222222,127.31934773576893L190.7626666666667,106.5273754761442L190.8382222222222,104.52465999320094L190.97422222222224,110.51883323308792L191.09511111111112,115.91036224752844L191.2008888888889,118.51924684015353L191.21599999999998,113.38159222954307L191.4728888888889,111.64160647126316L191.9262222222222,108.90334603467949L192.07733333333334,102.08556789260062L192.63644444444444,106.66178133680332L192.77244444444446,106.72640367040712L192.78755555555554,125.45955752611631L192.87822222222223,118.8612780528097L193.12,124.57798937699171L193.22577777777778,116.78207028817384L193.6488888888889,129.18549924175028L193.664,137.9096946436304L193.8,137.3657493953125L193.87555555555554,145.40471340601937L194.04177777777778,148.50817111099275L194.17777777777778,145.62730049999595L194.38933333333333,130.68180611346057L194.55555555555557,135.23306014241442L194.96355555555556,146.11701012645491L195.0088888888889,148.5981040695965L195.1448888888889,142.06264666118184L195.52266666666665,133.36382781040777L195.58311111111112,125.22143696887558L195.7191111111111,134.53108187005878L195.93066666666667,123.49212003772365L196.02133333333333,116.99748486493972L196.05155555555555,128.24969471026427L196.56533333333334,118.74120174564301L196.656,115.24460587531752L196.74666666666667,115.5413177401979L196.7768888888889,127.63852375560624L196.792,118.64805071640185L196.9431111111111,106.81768437080487L197.0186666666667,120.12846090705936L197.23022222222224,114.99980133162981L197.3662222222222,124.86705166001016L197.608,127.4116838594874L197.9857777777778,122.11998613135948L198.27288888888887,113.35558034255266L198.4088888888889,116.42998529239988L198.6808888888889,110.33647014755704L199.08888888888887,108.56990022296922L199.43644444444445,125.1593730062359L199.46666666666664,131.48737587194324L199.48177777777778,140.43116098969915L200.25244444444445,147.0514427906723L200.37333333333333,158.36375837311522L200.41866666666667,126.80063593325906L200.55466666666666,130.8205919712391L201.1288888888889,138.28787592282865L201.59733333333332,130.7047352135703L201.89955555555557,130.07645176559504L202.11111111111111,104.31315578115537L202.18666666666667,85.7724568246689L202.65511111111113,96.38900170452052L202.776,90.6844778481721L202.80622222222223,94.44263006721862L203.32000000000002,91.66952496454077L203.36533333333335,99.55753835516813L203.5768888888889,103.98384016639572L203.62222222222223,108.75603549545292L203.78844444444445,121.31099918934208L203.87911111111111,126.89613245001934L204.3022222222222,115.98038245217239L204.34755555555557,131.29041802670304L204.36266666666666,123.8446705619969L204.45333333333335,122.92243476261233L204.48355555555554,128.97114573316162L204.74044444444442,126.38552998275722L204.86133333333333,130.51955301823915L204.99733333333336,116.02270142857517L205.224,112.1346887519747L205.4657777777778,125.36066303476431L206.0551111111111,135.6017666554601L206.23644444444446,130.5009022889227L206.26666666666665,138.46297247833155L206.41777777777776,147.2483429701032L206.58399999999997,144.06363378708969L206.68977777777775,137.13762591461915L206.79555555555558,134.22582310280876L206.82577777777777,147.37864779934293L207.08266666666665,142.11108107271792L207.36977777777778,138.68732209081585L207.91377777777777,130.27520070584362L208.06488888888887,128.3527458820116L208.32177777777775,99.42652961691446L208.41244444444445,110.05229352959132L208.54844444444444,126.37654036113503L209.0017777777778,111.85157819884351L209.34933333333333,124.3734310565233L209.36444444444444,133.13381638845178L209.63644444444444,150.34955485428927L210.05955555555553,144.47213878226944L210.13511111111112,140.86976547104385L210.33155555555555,150.28953893155546L210.54311111111113,128.00498256718862L210.664,118.838702375837L210.73955555555557,121.91176614339685L210.76977777777776,131.2281118939849L210.78488888888887,129.36223990119024L211.0871111111111,129.19547887217252L211.16266666666667,128.07017865455234L211.37422222222222,138.7676166031657L211.52533333333332,140.14137867030226L211.60088888888887,139.86235261124406L211.70666666666665,121.31767237018103L211.99377777777778,103.97285668748948L212.1751111111111,102.2236113377975L212.704,122.37621848621036L212.84,115.25929517185858L213.56533333333334,135.37202628170488L213.64088888888887,138.35748256672446L213.86755555555555,134.77812790132973L214.03377777777777,134.91967764517779L214.09422222222221,128.82941569168705L214.336,113.23659916951527L214.53244444444445,121.03246725804834L214.8346666666667,118.97755513645879L214.97066666666666,130.2226193789105L215.09155555555557,113.67541484032171L215.39377777777776,116.76956610146291L215.63555555555556,122.35206347198493L215.93777777777777,127.61489019752932L215.9831111111111,111.60798711886174L216.2248888888889,85.19524934940304L216.46666666666664,93.97978854409513L216.63288888888889,94.23515287113513L217.53955555555555,113.5527583888179L217.67555555555555,125.92286402635477L217.69066666666666,129.40769491452266L218.144,121.79185180976961L218.4311111111111,114.47208902440781L218.47644444444444,121.02678450400352L218.80888888888887,122.91678299380177L219.47377777777777,142.39659504417278L219.7911111111111,131.82941087279937L219.88177777777778,130.9647110632711L219.912,124.91407893356269L220.22933333333333,106.98772269905228L220.56177777777776,111.34710824607849L221,99.48197239046054L221.69511111111112,107.50490894360198L221.9368888888889,121.49079931443646L222.11822222222222,128.9417488641152L223.00977777777777,120.79469028446069L223.25155555555557,132.2593440122054L223.72,141.31330424653035L223.8408888888889,144.4276242938034L224.15822222222224,146.3116710118289L224.536,135.2124058417911L224.61155555555558,125.90004513337817L224.808,129.17372415004272L225.00444444444443,117.00712291521685L225.09511111111112,96.10408815351178L225.72977777777777,60.12962163121397L225.7448888888889,73.63636477899423L225.82044444444443,94.35783857306298L226.04711111111112,92.41325217075091L226.92355555555557,102.70770879207879L227.18044444444445,122.74795259407456L227.58844444444446,114.71757016204572L227.60355555555554,111.4653334025575L227.72444444444443,106.65422539337672L227.90577777777779,114.11937932161341L227.95111111111112,114.62590323281995L228.0871111111111,107.23115410641456L228.31377777777777,97.19716066262502L228.37422222222222,69.2386616887466L228.40444444444447,80.35587027467851L228.6311111111111,91.58910118816831L228.9031111111111,105.63211148679709L229.1751111111111,107.86052227503994L229.40177777777777,112.51905387003056L229.5528888888889,112.12509584706989L229.59822222222223,113.87405333687043L229.77955555555553,109.30711580377326L229.79466666666667,110.15837678217463L229.8551111111111,105.58924996596716L230.2782222222222,96.56781790632625L230.67111111111112,110.03539661421219L231.1697777777778,92.52807627431854L231.39644444444446,109.22340149933149L231.94044444444447,100.52764933194483L232.016,98.2856914361132L232.74133333333333,105.23445096438665L232.80177777777777,102.96774204401828L233.10399999999998,113.62071416010984L233.82933333333335,129.49617755881602L233.84444444444446,129.26678791857086L234.2373333333333,130.2136701828552L234.28266666666664,137.174689094072L234.91733333333335,134.3073806125991L235.1591111111111,137.55614389467007L235.68800000000002,134.86919536947536L235.91466666666665,147.83306788658695L236.03555555555556,144.23985196305668L236.11111111111111,152.5821952517696L236.1262222222222,138.11001222705053L236.62488888888888,131.37597966748933L236.88177777777778,109.19665257998713L236.92711111111112,103.13022090581767L236.97244444444445,121.20754290838333L237.1688888888889,115.12691907019989L237.5768888888889,124.35279047713291L237.8488888888889,121.31077194348342L237.95466666666667,137.5398212361457L238.06044444444444,130.56616325373847L238.3928888888889,129.22262530112172L238.71022222222223,117.73059254305569L238.90666666666667,114.00285338345705L239.43555555555557,125.50706170059034L239.7831111111111,134.45215793087158L239.82844444444444,136.16040925231684L240.0248888888889,136.57410408154064L240.08533333333335,135.14751476834508L240.176,140.04102991760615L240.82577777777777,127.12868483640591L240.8408888888889,136.85014025502772L241.128,134.4870591436494L241.17333333333335,128.59105205583586L241.2942222222222,100.52891829307354L241.30933333333334,107.40859222694195L241.32444444444445,111.6778288063444L241.41511111111112,110.55795404376809L241.71733333333336,115.2855452786287L241.74755555555555,132.36159250215428L242.01955555555554,120.59374831893815L242.7751111111111,119.08012602131167L242.98666666666665,88.67559288382881L243.07733333333334,97.86006672247461L243.5911111111111,100.9626840376708L244.21066666666667,96.85346298095037L244.6337777777778,116.16166066466971L245.04177777777778,133.94879025754193L245.11733333333333,131.10119114904387L245.208,124.35409635391434L245.55555555555557,138.15689606585727L245.93333333333334,124.15897857087694L246.11466666666666,113.35474276174477L246.12977777777778,120.29978617606187L246.22044444444447,125.46395799663239L246.35644444444443,108.75276719617791L246.61333333333332,122.03364035274683L246.79466666666667,118.00791634657311L246.88533333333334,124.85850557873313L247.18755555555555,121.7586098132577L247.24800000000002,107.91279427053144L247.61066666666667,115.10794422532084L247.64088888888887,116.04414106047463L247.7768888888889,122.911567053349L248.53244444444445,134.3899992181434L248.8951111111111,116.53087622100887L248.91022222222222,117.93750811389619L249.24266666666668,110.80076684881833L249.77155555555555,121.72272984780622L249.78666666666666,125.12424139008243L250.14933333333332,123.71338876514163L250.17955555555557,138.66939167701983L250.19466666666665,134.646524813913L250.648,145.10128584201362L251.02577777777776,138.18577517155612L251.0711111111111,134.35680287265396L251.10133333333334,144.5860113108506L251.328,139.6512296745456L251.41866666666667,132.83051953145855L251.72088888888888,125.10849297368588L251.872,124.45476531910668L251.8871111111111,128.63508335441347L252.008,110.85212131421432L252.06844444444445,114.9552945009377L252.1591111111111,115.06571610108719L252.4008888888889,109.89936008057418L253.05066666666667,125.2147640665457L253.23200000000003,128.38601396163816L253.39822222222222,134.47338341813924L253.54933333333335,140.9619646259644L253.56444444444443,135.5752913057571L253.62488888888888,117.69299597672547L253.68533333333332,112.1677232293204L253.7457777777778,96.6167127964976L254.00266666666664,94.79528207582065L254.09333333333333,114.12462897235582L254.1537777777778,128.2026381758914L254.184,137.2013564825892L254.56177777777776,136.46476917059923L254.8488888888889,132.95669358924053L254.95466666666667,141.3738394933245L254.96977777777778,138.03283765591326L255.21155555555555,138.76659890551983L255.25688888888888,119.10322205282355L255.74044444444442,120.49751826161405L255.75555555555556,132.6879527094022L255.77066666666667,134.29635610115858L256.1333333333333,137.1989989077985L256.3448888888889,144.04839489038426L256.8737777777778,143.36339478663655" style="fill: none;" fill="none"></path></g></g></g></g><g opacity="0.2"><g><g><g><path stroke="rgb(255, 112, 67)" stroke-width="2px" d="M33.68266666666667,-14.463145772616082L33.75822222222222,5.126940634515533L34.07555555555555,9.490915894508342L34.15111111111111,-67.40424027707844L34.906666666666666,-28.525380863083765L35.02755555555555,47.2350167830785L35.465777777777774,-33.50397769610088L35.768,27.147928304142418L36.584,-46.61111060778301L36.599111111111114,39.422765466901986L36.90133333333333,56.48646397060818L37.17333333333333,10.492936200565758L37.38488888888889,38.91317919890085L38.32177777777778,40.91562836700014L38.729777777777784,71.4363711675008L38.971555555555554,-16.450770934422838L39.077333333333335,9.994843694898796L39.092444444444446,31.967174437310945L39.59111111111111,-11.110680540402758L39.80266666666667,3.177362773153495L39.92355555555556,39.17582640382978L39.99911111111111,63.20907714631821L40.029333333333334,54.83799321121639L40.21066666666667,14.93554058339859L40.361777777777775,30.143114354875337L41.01155555555556,0.0063221587075039665L41.132444444444445,89.16567639509836L41.25333333333334,0.41225826740262916L41.64622222222222,52.586158871650674L41.782222222222224,90.31758715046776L41.842666666666666,63.78544512059952L41.87288888888889,78.89591133594512L42.08444444444445,18.422807017962132L42.114666666666665,35.68584862020279L42.220444444444446,55.874642160203706L42.34133333333334,15.916547934214268L42.432,73.08327995406256L42.855111111111114,24.192145228385904L43.958222222222226,59.92330520682863L44.45688888888889,10.92964022689394L44.50222222222222,61.69072167078653L44.75911111111111,20.58773083157009L44.89511111111111,57.199607716666314L44.91022222222222,87.24969568517471L45.00088888888889,16.60611473189459L45.016000000000005,59.8812498251597L45.09155555555555,3.044300370746173L45.36355555555556,3.060833705796127L45.40888888888889,76.32926579316455L45.54488888888889,60.62047557036081L46.285333333333334,85.42186329099867L46.330666666666666,57.51518517070345L46.42133333333333,66.8150240447786L46.512,12.264891227086371L46.587555555555554,40.88509621885086L46.73866666666667,42.435486872990914L46.82933333333333,-30.87455852826439L46.90488888888889,48.12557706567976L47.69066666666667,59.50325240029228L47.76622222222222,108.10058887799579L47.781333333333336,55.802201986312845L48.053333333333335,44.41995861795212L48.24977777777778,43.7487818400065L48.44622222222222,76.03478970792557L49.02044444444444,-6.189316749572754L49.27733333333333,58.48110327455732L49.57955555555556,62.07240299383798L49.775999999999996,67.75247298346625L50.108444444444444,49.401915166113106L50.153777777777776,100.82097029685974L50.36533333333333,-4.653779572910729L50.425777777777775,47.13260441356233L51.15111111111111,44.786491751670816L51.25688888888889,58.3046592871348L51.589333333333336,11.11778427494896L51.77066666666666,64.91254113780127L51.92177777777778,59.26774815718332L52.37511111111111,110.7180132733451L52.54133333333333,6.55393543508316L52.662222222222226,37.975140836503755L52.75288888888889,63.171088788244454L53.236444444444444,15.268977575831927L53.29688888888889,27.75703876548342L53.67466666666667,31.329123271836167L53.916444444444444,102.01098729504479L53.931555555555555,-63.63045497735344L54.15822222222222,74.38796933492023L54.218666666666664,104.58615001042682L54.47555555555556,65.5046172539393L55.004444444444445,26.624726348453084L55.12533333333333,6.297771890958137L55.42755555555556,10.63772813479105L55.639111111111106,28.053342064221688L55.77511111111111,-46.81997289922504L55.86577777777778,35.736745357513406L55.94133333333333,-4.249169667561875L56.04711111111111,72.60841074254776L56.18311111111111,64.69601633813645L56.394666666666666,62.154863370789414L56.42488888888889,106.6899211141798L56.47022222222222,61.07468548085953L56.60622222222222,47.176310181617716L57.13511111111111,46.12990627023908L57.49777777777778,68.33986318111418L57.81511111111111,85.47558926211462L58.08711111111111,36.55085738499958L58.22311111111111,58.66058279408348L58.41955555555556,37.79518977801004L58.464888888888886,84.160732322269L58.58577777777778,55.10582734478844L59.190222222222225,101.20047075218623L59.44711111111111,97.68983366754318L59.598222222222226,55.50454301304287L59.64355555555555,42.756516496340424L59.94577777777778,45.80640106730989L60.187555555555555,46.012964606285074L60.45955555555555,75.21852628389993L60.64088888888889,28.294445832570382L60.897777777777776,42.117315954632225L60.98844444444444,54.48392638895246L61.351111111111116,39.34115975432924L61.547555555555554,57.00058880117203L61.59288888888889,61.37582205401525L61.608000000000004,25.42984660466511L61.72888888888889,66.68623496426476L61.78933333333333,75.48518157005309L61.89511111111111,90.74471304151744L62.635555555555555,89.08012154367233L62.696000000000005,34.752967715263345L62.80177777777778,28.23901053269703L62.93777777777778,44.685258229573556L63.270222222222216,90.018071492513L63.330666666666666,70.19015261862013L63.45155555555556,46.276437004407235L63.57244444444444,-17.94045094648998L63.63288888888889,65.36029685868156L63.935111111111105,76.31730049186281L64.01066666666667,4.132848077350177L64.02577777777778,2.08121150069765L64.10133333333333,49.33669543266294L64.28266666666667,66.2281053860982L64.328,73.35002365377213L64.40355555555556,68.32831047640906L64.69066666666667,67.28567887677086L64.93244444444444,91.13284855418736L65.08355555555556,16.240730974409292L65.26488888888889,60.931779702504464L65.65777777777777,74.60605610741509L65.79377777777778,71.84634482860564L66.32266666666666,-3.910398390558053L66.33777777777777,66.56440108352236L66.368,73.92804201443988L67.03288888888889,33.96143061584896L67.15377777777778,24.21050577693514L67.28977777777777,29.757837547196274L67.32,108.60230633947582L67.39555555555556,34.1619820329878L67.77333333333334,56.21594795915815L67.78844444444445,54.924933208359604L67.93955555555556,71.3973513179355L67.96977777777778,81.3413418928782L68.04533333333333,83.38802731037138L68.2568888888889,88.75499542554218L68.34755555555556,97.32981366581386L68.48355555555555,62.0537772046195L68.71022222222223,65.13640426264868L68.80088888888889,88.5879822174708L69.5111111111111,80.89762372440761L69.60177777777778,74.69296663337282L69.85866666666668,64.24177695645226L69.94933333333333,48.51050021913315L70.68977777777778,99.29993294345007L70.79555555555555,69.00832860999635L70.8711111111111,56.88818569978077L71.06755555555556,92.27780410978527L71.62666666666667,55.87791346179113L71.83822222222223,90.62576733695136L72.36711111111111,100.29859353436363L73.62133333333334,83.08229323228198L73.75733333333334,33.46171719498104L73.89333333333333,67.33978797329796L73.98400000000001,112.73670106463963L74.34666666666666,90.53838527202606L75.05688888888889,100.00447110335031L75.17777777777778,76.73393464088439L75.72177777777779,99.25997001594966L75.96355555555556,85.85072798199123L76.00888888888889,98.01101064682007L76.12977777777779,100.44792403115166L76.17511111111111,33.48998006184895L76.53777777777779,89.2547088464101L76.59822222222222,57.0307083527247L77.05155555555557,77.8447920348909L77.62577777777778,54.888654179043236L77.89777777777779,85.63617775175307L77.98844444444444,99.02163653903538L78.23022222222222,58.07059913211397L78.50222222222222,119.13446809848148L78.51733333333334,65.1458350419998L79.03111111111112,59.182016478644464L79.18222222222222,60.563714067141206L79.22755555555557,119.18237351046668L79.24266666666666,64.07178715864816L79.27288888888889,53.29579554663763L79.288,125.06656093067592L79.66577777777778,41.65506041049955L80.16444444444444,54.99572299586401L80.7688888888889,142.58846269051233L81.23733333333334,78.96286986933814L81.64533333333334,77.00333074728647L81.7208888888889,91.14843881130219L82.05333333333334,104.41848843627507L82.34044444444444,101.14362083541022L82.56711111111112,99.73846418327754L82.80888888888889,76.47939201196033L83.24711111111112,71.39293064011467L83.29244444444444,108.7768936422136L83.67022222222222,63.40980539056989L84.0631111111111,66.6838477982415L84.32,99.39668684535557L84.62222222222222,114.64167428678935L84.89422222222223,19.279062840673635L84.92444444444445,62.36213421821592L84.95466666666667,85.6672698524263L85.04533333333333,49.273361855083024L85.46844444444444,94.40149773491753L85.68,133.64796598090064L86.52622222222223,86.10966181755064L86.58666666666667,83.33822100692323L86.75288888888888,108.83966726726955L87.22133333333333,-130.11512117915683L87.34222222222223,65.57720478375751L87.53866666666667,76.70060273011524L87.61422222222222,69.94498182667625L87.85600000000001,43.906157970428445L87.93155555555555,79.38097757763332L87.96177777777778,33.62678530481125L88.11288888888889,79.51244853602515L88.17333333333333,75.49773629506427L88.61155555555555,46.81449243757459L88.79288888888888,93.74900568856133L89.57866666666666,109.99278634124333L89.74488888888888,136.37060250838596L90.00177777777778,45.93530803256563L90.42488888888889,97.34189685185748L90.81777777777778,108.51849028799266L90.9991111111111,79.69116180472902L91.16533333333334,48.00810492038725L91.21066666666667,47.40939778751797L92.072,0.8255032300948899L92.14755555555556,53.58095873726738L92.16266666666667,110.13504375351799L92.31377777777779,106.36075744363994L93.41688888888889,122.85255285766388L93.58311111111111,107.78949104415045L93.59822222222222,83.27494637171426L93.62844444444444,106.56584742334152L93.704,116.8190202050739L93.71911111111112,101.83233296871185L94.09688888888888,120.41102723280588L94.17244444444444,103.67767124705846L94.21777777777778,110.14317780070836L94.33866666666667,69.4960177871916L94.6408888888889,123.92733752065236L94.68622222222221,127.91424369812012L94.70133333333334,128.1825051638815L94.928,129.33438644806543L95.26044444444445,98.5988134410646L95.45688888888888,87.69356120957268L95.48711111111112,118.28619896703297L95.68355555555556,116.55199652910233L96.24266666666666,119.73121539751688L96.60533333333333,115.43113366762796L96.71111111111111,92.12605697578853L96.80177777777777,78.54965437783135L97.16444444444444,122.67831920915181L97.20977777777777,97.94019138813019L98.10133333333334,79.80913496017455L98.35822222222222,113.8894664843877L98.37333333333333,109.44313399659262L98.67555555555555,41.67194739977518L98.7208888888889,93.8785020775265L98.85688888888889,117.61807245678371L99.40088888888889,144.32715948422748L99.44622222222222,108.74845394823284L99.688,119.32215534316168L100.15644444444445,93.39661872386932L100.57955555555554,103.85219960742528L100.70044444444444,107.75786846213872L100.7608888888889,125.71759415335124L100.88177777777777,68.75605526235367L101.048,89.38794807593027L101.44088888888889,43.98829416433969L101.51644444444445,158.27559159199396L101.75822222222223,112.62527051236893L102,100.05445423391129L102.1208888888889,35.797573884328195L102.2568888888889,12.56576255957285L102.39288888888889,49.63464911778767L102.55911111111111,82.6004098786248L102.57422222222222,136.03628138038846L102.75555555555556,106.50127605597177L102.78577777777778,45.48905534214443L103.36,84.57288685109879L103.54133333333333,74.03844107521904L103.82844444444444,107.84035831027562L104.176,108.01786326037512L104.47822222222223,60.16930119196573L105.20355555555555,29.993400732676182L105.33955555555555,54.51596156756082L105.38488888888888,150.08108426464926L105.4151111111111,59.06905342472923L106.18577777777779,94.36409880055321L106.2311111111111,128.98194054100247L106.53333333333333,108.9038702448209L106.56355555555555,133.3654551969634L106.57866666666666,92.27376655737558L106.68444444444445,117.95470707284079L106.95644444444444,83.73867547512053L107.37955555555556,92.8854115406672L107.68177777777778,106.80671542220647L107.80266666666667,104.49393467108408L108.27111111111111,115.18619864516789L108.528,94.86979487207199L108.80000000000001,108.49470704131657L108.92088888888888,119.62018270625008L109.38933333333334,100.69498097896576L109.79733333333334,77.04912896951038L110.14488888888889,108.6456289821201L110.58311111111111,54.30845495065052L110.74933333333334,110.56796073251301L110.99111111111111,122.11362182431752L111.20266666666666,87.52808050314584L111.52,84.89609734217325L112.12444444444444,121.5222530166308L112.45688888888888,77.52093317773605L112.53244444444444,32.46753622425926L113.09155555555556,82.90387467543283L113.25777777777778,108.26108895407782L113.34844444444444,108.88310779465569L113.56,54.33282762103609L113.59022222222222,103.36218220657771L114.07377777777778,113.20333307981491L114.43644444444445,113.85802072948879L114.61777777777777,107.6942107015186L114.648,101.11798090404933L114.73866666666667,19.42621246973673L114.92,105.44535295168558L115.29777777777777,84.47129967477585L115.7208888888889,90.18980009025996L115.75111111111111,91.31191547711688L115.81155555555554,126.9100572599305L116.03822222222222,79.11502959993149L116.65777777777777,119.72605794005925L116.70311111111111,91.01228193442026L117.504,91.40362980630661L117.54933333333332,114.22543799877167L117.70044444444444,125.91320914692348L117.97244444444445,83.9577937391069L117.98755555555555,136.18440355857211L118.24444444444444,121.99740220440758L118.28977777777777,86.57592544290755L118.80355555555555,108.56411168310375L118.83377777777778,115.96997008721033L118.93955555555556,104.97443287902409L119.34755555555556,124.59481566482121L119.48355555555555,110.78317406442429L119.80088888888889,102.39455477396646L120.16355555555555,79.63404664728377L120.2391111111111,102.36440575122833L120.32977777777778,96.72762893305884L120.73777777777778,134.21447584364148L121.04,113.9159316089418L121.11555555555556,139.89982117546927L121.34222222222223,114.22150359551111L121.41777777777777,89.99381670686931L122.06755555555556,107.13346245553757L122.128,75.94236807028452L122.44533333333334,120.47189996639887L122.47555555555556,154.84261108107037L122.71733333333333,109.28547788990868L122.74755555555555,121.57983971304363L122.83822222222223,98.10086829132503L122.86844444444445,108.4157832066218L123.14044444444446,112.41780810223685L123.488,99.81028546227348L123.62400000000001,99.47891145282323L123.91111111111111,141.3360699282752L124.07733333333333,72.35834773381549L124.10755555555556,74.26884680324129L124.19822222222223,119.92851024866104L124.39466666666667,131.65774735477234L124.66666666666666,121.1483373509513L125.256,111.649582710531L125.60355555555556,143.5908366507954L125.664,127.48249083095128L125.67911111111111,117.52090595828162L125.78488888888889,72.98838273684183L126.04177777777778,100.83974344200557L126.20800000000001,107.20389858881632L126.37422222222222,64.04511573579575L126.48,62.600732935799485L126.57066666666667,-25.1170972055859L126.93333333333334,98.44809779855937L127.82488888888889,144.76968406968646L128.36888888888888,68.84069650703005L128.384,125.03517411814795L128.44444444444443,103.34697507487402L128.74666666666667,126.47929167747498L128.76177777777778,143.77458949221503L128.7768888888889,73.58107774787477L128.89777777777778,43.85364031791685L129.56266666666667,114.03590880499945L129.66844444444445,103.22357922130162L129.71377777777778,123.24314921432072L130.00088888888888,146.35399605830509L130.81688888888888,112.12456980678768L130.95288888888888,117.61091095871394L130.98311111111113,125.54056074221927L131.04355555555557,113.3515584071477L131.1342222222222,57.19103160169388L131.17955555555557,121.11276563008624L131.28533333333334,72.51457448800403L131.40622222222223,124.07852470212514L131.45155555555556,124.45335397455425L131.63288888888889,120.80952186716927L132.0408888888889,105.6220032374064L132.10133333333334,90.94885994328392L132.26755555555556,105.81291757689581L132.43377777777778,132.21095097727246L133.46133333333333,100.22780374685922L133.6728888888889,116.33903774287964L133.79377777777776,148.27578259176678L134.00533333333334,72.61504175927902L134.02044444444445,119.76115812195671L134.41333333333333,94.20309771431816L134.6248888888889,94.62801326645744L135.00266666666667,83.3737632566028L135.4408888888889,129.21852048238117L135.4862222222222,122.54589043723212L135.87911111111111,80.52708250946468L136.1511111111111,127.45581940809885L136.21155555555555,91.9640833404329L136.58933333333334,150.45401264561545L136.98222222222222,72.29133025805154L137.37511111111112,95.69469335344101L137.60177777777778,110.29330401950413L137.72266666666667,92.94980608092413L137.73777777777778,113.51348783572513L138.0702222222222,85.77330717775557L138.13066666666668,91.76751053333282L138.34222222222223,118.89315803183449L138.9466666666667,118.3565172155698L139.08266666666665,130.3807608882586L139.264,99.82475581434036L139.5511111111111,156.01803984244663L139.59644444444444,147.2908113665051L139.73244444444444,76.97857495148975L140.53333333333336,102.6200977563858L140.69955555555555,124.53241042958365L140.97155555555554,135.0094021293852L141.12266666666667,109.98782044649124L141.13777777777776,34.641802403661934L141.40977777777778,119.35402843024994L141.4248888888889,45.76655602455137L141.77244444444446,97.88357724083794L141.8328888888889,49.34807131025526L142.05955555555553,76.75032062000697L142.51288888888888,127.83865010738373L142.6488888888889,100.42900353007848L142.69422222222224,105.87079898516336L142.8,150.0802443358633L142.95111111111112,93.58594161934322L142.99644444444445,62.18465873930189L143.072,115.51309303442636L143.2231111111111,120.97153970930309L143.58577777777776,120.68331151538426L143.7217777777778,113.82048917478984L144.0088888888889,92.9508965147866L144.26577777777777,93.65275279680887L145.2026666666667,88.2747035159005L145.73155555555556,124.24201610353256L145.98844444444444,119.74799923764334L146.13955555555555,58.90212863021425L146.21511111111113,126.51685270335938L146.38133333333334,30.057029022110825L146.47199999999998,81.67100657357109L146.57777777777778,129.302130235566L146.84977777777777,131.35384049018222L146.92533333333333,105.41190315617455L147.00088888888888,123.3806765013271L147.27288888888887,109.60678748952017L147.4391111111111,99.85181036260391L147.48444444444445,118.28350235356224L147.78666666666666,101.89967462751598L147.90755555555558,79.78337714407179L148.05866666666668,82.66657269001006L148.24,142.19185421201917L148.58755555555555,118.44314776526556L148.6631111111111,83.19976537757448L149.58488888888888,96.5606451961729L149.60000000000002,111.39476010534496L150.08355555555556,128.1034487088521L150.73333333333335,104.75543249977959L150.85422222222223,148.31928206152386L150.9751111111111,159.30516745646793L150.99022222222223,123.62679037120606L151.50400000000002,124.87747380468578L151.6702222222222,101.35740481482611L151.85155555555556,64.56716831525165L152.10844444444444,53.92574213610754L153.0151111111111,125.30263986190158L153.37777777777777,115.03327266375223L153.8311111111111,71.63288503222994L153.89155555555556,87.51210712061987L154.10311111111113,65.54201618830362L154.36,94.60464261637793L154.45066666666665,123.65926761759651L155.08533333333335,108.01223426394994L155.3271111111111,134.38705910576712L155.49333333333334,138.5252408782641L155.62933333333334,135.01931918329663L155.75022222222222,113.58175783687169L156.05244444444446,127.45047038793564L156.08266666666665,127.30251030127206L156.128,159.28901724682913L156.15822222222224,134.0022096302774L156.24888888888887,95.43499326705933L156.5511111111111,152.11802945534387L156.59644444444444,31.673906670676327L156.672,94.26837639013925L156.808,132.0488889283604L157.86577777777777,80.6965123547448L158.168,120.04705809222327L158.18311111111112,130.0992521246274L158.21333333333334,169.0529683497217L158.4248888888889,126.5444229973687L158.48533333333333,152.9899050063557L158.62133333333335,112.6117137670517L158.63644444444444,106.69398813777501L158.71200000000002,92.17580433686572L158.78755555555554,127.8947927157084L159.0142222222222,111.65353184938431L159.4826666666667,155.11557320091458L159.664,134.83599367406632L159.76977777777776,118.46799197461868L159.84533333333334,85.09101976288689L160.0568888888889,90.39321021238962L160.1928888888889,131.9388729929924L160.58577777777776,58.76585386859045L160.69155555555554,126.59347778558731L160.70666666666665,85.39080066151088L160.84266666666667,125.18298684888417L161.41688888888888,90.63823364840613L161.5377777777778,137.98432674010593L161.5528888888889,130.83700431055493L161.61333333333332,151.74655989805856L162.0968888888889,126.13978362083435L162.8071111111111,89.16246403588188L162.86755555555555,97.83424247635735L163.13955555555555,62.15966717402139L163.21511111111113,121.81696487135356L163.48711111111112,137.1922886305385L163.53244444444445,139.52823373344208L163.84977777777777,107.09019875526428L164.016,129.73243901464673L164.37866666666665,128.152208785216L164.48444444444445,96.97786876890392L164.74133333333333,99.56104764673442L164.77155555555555,108.39521231916214L164.81688888888888,119.61058983537883L165.13422222222223,23.35003557470108L165.16444444444446,75.77184779114192L165.24,100.33384107218848L165.40622222222223,86.12324803405336L165.58755555555555,104.71137307749854L165.84444444444446,92.02152268091837L166.11644444444445,59.59764860735998L166.20711111111112,123.584071887864L166.35822222222222,124.36641397741104L166.63022222222222,142.01552810933853L166.64533333333333,112.50439444515438L167.0533333333333,125.75242909457947L167.17422222222223,134.31990900966855L167.32533333333333,116.32965117030675L167.49155555555555,143.6615822315216L167.80888888888887,72.76896976100073L168.08088888888886,97.7743275562922L168.56444444444443,107.59153309133316L168.6702222222222,88.0190409819285L169.456,-28.901934199863014L169.4862222222222,94.96177444193096L169.63733333333334,134.3576026558876L169.74311111111112,96.15199773841435L170.1511111111111,93.7093669441011L170.46844444444443,97.75514181454975L170.61955555555556,90.1524306270811L170.86133333333333,92.74795793162451L170.89155555555556,96.6703664196862L170.99733333333336,94.90283207098642L171.4808888888889,28.75295853614805L171.55644444444442,99.80825195047588L171.72266666666667,99.50130955378214L171.79822222222222,96.53762820031906L172.448,151.52559968498016L172.49333333333334,117.101648873753L172.79555555555558,143.25676602787442L172.88622222222222,90.39403540558284L172.90133333333335,47.138174467616594L173.2942222222222,114.33594020869995L173.39999999999998,134.85638773441315L174.352,119.75720898310342L174.488,114.32622945308685L174.59377777777777,144.93775824043485L174.63911111111113,128.9544586605496L174.7448888888889,124.12840468353694L174.79022222222224,129.77836985720526L175.12266666666667,123.3295145233472L175.2888888888889,148.16603189706802L175.45511111111114,139.49074638552136L175.63644444444444,129.89464841948615L175.65155555555555,136.77505032221475L175.69688888888888,110.68578653203116L176.05955555555553,105.89089833365546L176.15022222222223,151.34992194837994L176.49777777777777,123.86273668209711L176.6488888888889,147.4716170893775L176.76977777777776,137.355220079422L177.69155555555554,127.54206683238345L177.82755555555556,84.60492202970717L177.96355555555556,92.733074982961L178.49244444444446,123.00270854764516L178.91555555555556,87.05716043048433L178.9608888888889,112.61944995323816L179.56533333333334,90.65358813603717L179.928,89.73921513557434L180.0791111111111,59.294036454624596L180.91022222222222,153.4229398700926L181.10666666666668,108.18195882108475L181.54488888888886,109.58642290035883L182.08888888888887,142.69233388370938L182.16444444444446,131.278630024857L182.17955555555557,95.30030994945103L182.20977777777776,99.58088175455728L182.42133333333334,136.75061870945822L182.60266666666666,63.90341827604505L182.95022222222224,110.69369954533046L183.0408888888889,122.976803375615L183.26755555555556,125.93061188194484L183.35822222222222,117.61561161279678L183.50933333333333,123.96870032946268L183.872,46.83759784698484L184.1288888888889,129.32759333981406L184.46133333333333,108.5783167945014L184.9297777777778,92.7317193084293L185.03555555555556,78.6231555143992L185.20177777777778,141.33914966715705L185.44355555555558,118.94826914866763L185.50400000000002,150.3548273709085L185.6097777777778,125.89375816451178L185.68533333333332,102.25718957848018L186.32000000000002,169.41873523261813L186.864,137.0822726951705L187.28711111111113,119.57742001612979L187.31733333333332,123.8124146329032L187.33244444444443,95.69985081089867L187.36266666666666,96.57941834131876L187.45333333333335,106.26426878240372L187.58933333333334,115.92288986841837L187.67999999999998,106.40007200505997L187.75555555555556,109.60136479139328L188.19377777777777,111.56463201840717L188.40533333333332,117.42872009012432L188.57155555555556,67.10431320137447L188.72266666666667,94.01162342230478L188.7831111111111,154.00364010863834L188.79822222222222,109.42830999030006L189.22133333333332,123.03895810577602L189.35733333333334,133.0207749472724L189.4782222222222,111.48709332942963L189.7048888888889,94.5477926996019L189.72,119.48931590716043L189.90133333333335,76.25452686680687L190.36977777777778,129.4409247835477L190.50577777777775,123.8469106554985L190.70222222222222,144.2005218002531L190.7626666666667,75.33941708670721L190.8382222222222,101.5205867687861L190.97422222222224,119.5100930929184L191.09511111111112,123.99765576918918L191.2008888888889,122.43257372909123L191.21599999999998,105.67511031362743L191.4728888888889,109.03162783384323L191.9262222222222,104.79595537980396L192.07733333333334,91.85890067948235L192.63644444444444,113.52610150310726L192.77244444444446,106.82333717081279L192.78755555555554,153.55928830968008L192.87822222222223,108.96385884284973L193.12,133.1530563632647L193.22577777777778,105.08819165494705L193.6488888888889,147.7906426721149L193.664,150.99598774645062L193.8,136.5498315228356L193.87555555555554,157.4631594220797L194.04177777777778,153.1633576684528L194.17777777777778,141.30599458350073L194.38933333333333,108.26356453365749L194.55555555555557,142.05994118584525L194.96355555555556,162.44293510251575L195.0088888888889,152.31974498430887L195.1448888888889,132.25946054855982L195.52266666666665,120.31559953424663L195.58311111111112,113.0078507065773L195.7191111111111,148.49554922183353L195.93066666666667,106.933677289221L196.02133333333333,107.25553210576373L196.05155555555555,145.12800947825113L196.56533333333334,104.47846229871112L196.656,109.99971206982929L196.74666666666667,115.98638553751839L196.7768888888889,145.78433277871872L196.792,105.1623411575953L196.9431111111111,89.07213485240936L197.0186666666667,140.09462571144104L197.23022222222224,107.3068119684855L197.3662222222222,139.6679271525807L197.608,131.22863215870328L197.9857777777778,114.18243953916759L198.27288888888887,100.20897165934244L198.4088888888889,121.04159271717072L198.6808888888889,101.19619743029276L199.08888888888887,105.92004533608753L199.43644444444445,150.0435821811358L199.46666666666664,140.97938017050424L199.48177777777778,153.84683866633307L200.25244444444445,156.98186549213196L200.37333333333333,175.33223174677954L200.41866666666667,79.4559522734748L200.55466666666666,136.85052602820926L201.1288888888889,149.48880185021292L201.59733333333332,119.33002414968277L201.89955555555557,129.13402659363217L202.11111111111111,65.66821180449591L202.18666666666667,57.961408389939194L202.65511111111113,112.3138190242979L202.776,82.12769206364948L202.80622222222223,100.07985839578838L203.32000000000002,87.50986731052397L203.36533333333335,111.38955844110912L203.5768888888889,110.62329288323718L203.62222222222223,115.91432848903865L203.78844444444445,140.14344473017584L203.87911111111111,135.2738323410352L204.3022222222222,99.60675745540196L204.34755555555557,154.25547138849893L204.36266666666666,112.67604936493767L204.45333333333335,121.53908106353546L204.48355555555554,138.0442121889856L204.74044444444442,122.50710635715062L204.86133333333333,136.72058757146198L204.99733333333336,94.27742404407924L205.224,106.30266973707408L205.4657777777778,145.19962445894876L206.0551111111111,150.96342208650375L206.23644444444446,122.84960573911667L206.26666666666665,150.4060777624448L206.41777777777776,160.42639870776068L206.58399999999997,139.28657001256943L206.68977777777775,126.74861410591335L206.79555555555558,129.85811888509326L206.82577777777777,167.10788484414417L207.08266666666665,134.20973098278046L207.36977777777778,133.5516836179627L207.91377777777777,117.65701862838532L208.06488888888887,125.46906364626354L208.32177777777775,56.03720521926878L208.41244444444445,125.9909393986066L208.54844444444444,150.86291060845056L209.0017777777778,90.06413495540619L209.34933333333333,143.156210343043L209.36444444444444,146.27439438634448L209.63644444444444,176.17316255304547L210.05955555555553,135.65601467423969L210.13511111111112,135.46620550420548L210.33155555555555,164.4191991223229L210.54311111111113,94.57814802063835L210.664,105.08928208880955L210.73955555555557,126.52136179473663L210.76977777777776,145.20263051986694L210.78488888888887,126.56343191199834L211.0871111111111,128.9453373286459L211.16266666666667,126.38222832812203L211.37422222222222,154.81377352608573L211.52533333333332,142.2020217710071L211.60088888888887,139.44381352265674L211.70666666666665,93.50065200858647L211.99377777777778,77.95563316345213L212.1751111111111,99.59974331325954L212.704,152.60512920882965L212.84,104.58391020033092L213.56533333333334,165.54112294647427L213.64088888888887,142.83566699425378L213.86755555555555,129.40909590323764L214.03377777777777,135.13200226094986L214.09422222222221,119.69402276145087L214.336,89.84737438625758L214.53244444444445,132.72626939084793L214.8346666666667,115.89518695407445L214.97066666666666,147.09021574258804L215.09155555555557,88.85460803243849L215.39377777777776,121.41079299317465L215.63555555555556,130.725809527768L215.93777777777777,135.50913028584586L215.9831111111111,87.59763250086043L216.2248888888889,45.576142695215L216.46666666666664,107.1565973361333L216.63288888888889,94.61819936169518L217.53955555555555,142.5291666653421L217.67555555555555,144.47802248266007L217.69066666666666,134.63494124677445L218.144,110.36808715264002L218.4311111111111,103.49244484636516L218.47644444444444,130.85882772339713L218.80888888888887,125.75178072849909L219.47377777777777,171.61631311972934L219.7911111111111,115.97863461573917L219.88177777777778,129.66766134897867L219.912,115.83813073900009L220.22933333333333,80.09818834728664L220.56177777777776,117.88618656661774L221,81.68426860703362L221.69511111111112,119.53931377331415L221.9368888888889,142.4696348706881L222.11822222222222,140.1181731886334L223.00977777777777,108.57410241497887L223.25155555555557,149.45632460382248L223.72,154.8942445980178L223.8408888888889,149.099104364713L224.15822222222224,149.1377410888672L224.536,118.56350808673436L224.61155555555558,111.93150407075882L224.808,134.0842426750395L225.00444444444443,98.75722106297809L225.09511111111112,64.74953601095412L225.72977777777777,6.167921847767296L225.7448888888889,93.8964795006646L225.82044444444443,125.44004926416606L226.04711111111112,89.49637256728278L226.92355555555557,118.14939372407065L227.18044444444445,152.80831829706827L227.58844444444446,102.67199651400247L227.60355555555554,106.58697826332515L227.72444444444443,99.43756337960559L227.90577777777779,125.31711021396846L227.95111111111112,115.3856890996297L228.0871111111111,96.13903041680652L228.31377777777777,82.1461704969406L228.37422222222222,27.300913227929L228.40444444444447,97.03168315357631L228.6311111111111,108.43894755840302L228.9031111111111,126.69662693474025L229.1751111111111,111.20313845740424L229.40177777777777,119.50685126251643L229.5528888888889,111.53415881262885L229.59822222222223,116.49748957157135L229.77955555555553,102.4567095041275L229.79466666666667,111.43526824977661L229.8551111111111,98.73555974165598L230.2782222222222,83.03566981686485L230.67111111111112,130.23676467604108L231.1697777777778,66.26709576447803L231.39644444444446,134.2663893368509L231.94044444444447,87.48402108086479L232.016,94.92275459236568L232.74133333333333,115.65759025679694L232.80177777777777,99.56767866346568L233.10399999999998,129.60017233424716L233.82933333333335,153.30937265687518L233.84444444444446,128.9227034582032L234.2373333333333,131.63399357928168L234.28266666666664,147.61621746089722L234.91733333333335,130.00641789038974L235.1591111111111,142.42928881777655L235.68800000000002,130.83877258168326L235.91466666666665,167.27887666225433L236.03555555555556,138.85002807776132L236.11111111111111,165.09571018483902L236.1262222222222,116.40173768997192L236.62488888888888,121.27493082814748L236.88177777777778,75.92766194873384L236.92711111111112,94.03057339456345L236.97244444444445,148.32352591223187L237.1688888888889,106.00598331292468L237.5768888888889,138.19159758753247L237.8488888888889,116.74774414300919L237.95466666666667,161.8833951751391L238.06044444444444,120.10567628012762L238.3928888888889,127.20731837219661L238.71022222222223,100.49254340595668L238.90666666666667,108.41124464405907L239.43555555555557,142.76337417629028L239.7831111111111,147.86980227629343L239.82844444444444,138.72278623448477L240.0248888888889,137.19464632537628L240.08533333333335,133.00763079855176L240.176,147.3813026414977L240.82577777777777,107.76016721460552L240.8408888888889,151.43232338296042L241.128,130.942437476582L241.17333333333335,119.74704142411548L241.2942222222222,58.435717648930016L241.30933333333334,117.72810312774445L241.32444444444445,118.08168367544809L241.41511111111112,108.8781418999036L241.71733333333336,122.37693213091956L241.74755555555555,157.9756633374426L242.01955555555554,102.941982044114L242.7751111111111,116.8096925748719L242.98666666666665,43.068793177604654L243.07733333333334,111.6367774804433L243.5911111111111,105.61661001046497L244.21066666666667,90.6896313958698L244.6337777777778,145.1239571902487L245.04177777777778,160.62948464685016L245.11733333333333,126.82979248629675L245.208,114.23345416122014L245.55555555555557,158.86109563377167L245.93333333333334,103.16210232840643L246.11466666666666,97.14838904804652L246.12977777777778,130.71735129753748L246.22044444444447,133.2102157274882L246.35644444444443,83.6859809954961L246.61333333333332,141.95495008760028L246.79466666666667,111.96933033731247L246.88533333333334,135.13438942697312L247.18755555555555,117.10876616504456L247.24800000000002,87.14407095644209L247.61066666666667,125.90066915750504L247.64088888888887,117.4484363132053L247.7768888888889,133.21270604266059L248.53244444444445,151.607647465335L248.8951111111111,89.74219172530705L248.91022222222222,120.04745595322714L249.24266666666668,100.09565495120154L249.77155555555555,138.10567434628803L249.78666666666666,130.2265087034967L250.14933333333332,121.59710982773036L250.17955555555557,161.1033960448371L250.19466666666665,128.61222451925278L250.648,160.78342738416458L251.02577777777776,127.81250916586981L251.0711111111111,128.61334442430072L251.10133333333334,159.92982396814557L251.328,132.2490572200881L251.41866666666667,122.59945431682796L251.72088888888888,113.52545313702689L251.872,123.4741738372379L251.8871111111111,134.90556040737363L252.008,84.17767825391556L252.06844444444445,121.1100542810228L252.1591111111111,115.2313485013114L252.4008888888889,102.14982604980469L253.05066666666667,148.18787004550296L253.23200000000003,133.14288880427677L253.39822222222222,143.60443760289084L253.54933333333335,150.69483643770218L253.56444444444443,127.49528132544623L253.62488888888888,90.86955298317802L253.68533333333332,103.87981410821277L253.7457777777778,73.29019714726341L254.00266666666664,92.06313599480522L254.09333333333333,143.11864931715857L254.1537777777778,149.3196519811948L254.184,150.69943394263584L254.56177777777776,135.35988820261426L254.8488888888889,127.69458021720249L254.95466666666667,153.9995583494504L254.96977777777778,133.02133489979636L255.21155555555555,139.8672407799297L255.25688888888888,89.6081567737791L255.74044444444442,122.58896257479984L255.75555555555556,150.97360438108444L255.77066666666667,136.70896118879318L256.1333333333333,141.55296311775842L256.3448888888889,154.32248886426288L256.8737777777778,142.33589463101492" style="fill: none;" fill="none"></path></g></g></g></g></g></g><g transform="translate(58, 178)" clip-path="url(#clip_1)"><clipPath id="clip_1"><rect width="271" height="21"></rect></clipPath><g><g><line x1="0" y1="0" x2="0" y2="5" style="visibility: inherit;" fill="rgb(0, 0, 0)" stroke="rgb(204, 204, 204)" stroke-width="1px"></line><line x1="30.22222222222222" y1="0" x2="30.22222222222222" y2="5" style="visibility: inherit;" fill="rgb(0, 0, 0)" stroke="rgb(204, 204, 204)" stroke-width="1px"></line><line x1="60.44444444444444" y1="0" x2="60.44444444444444" y2="5" style="visibility: inherit;" fill="rgb(0, 0, 0)" stroke="rgb(204, 204, 204)" stroke-width="1px"></line><line x1="90.66666666666666" y1="0" x2="90.66666666666666" y2="5" style="visibility: inherit;" fill="rgb(0, 0, 0)" stroke="rgb(204, 204, 204)" stroke-width="1px"></line><line x1="120.88888888888889" y1="0" x2="120.88888888888889" y2="5" style="visibility: inherit;" fill="rgb(0, 0, 0)" stroke="rgb(204, 204, 204)" stroke-width="1px"></line><line x1="151.11111111111111" y1="0" x2="151.11111111111111" y2="5" style="visibility: inherit;" fill="rgb(0, 0, 0)" stroke="rgb(204, 204, 204)" stroke-width="1px"></line><line x1="181.33333333333331" y1="0" x2="181.33333333333331" y2="5" style="visibility: inherit;" fill="rgb(0, 0, 0)" stroke="rgb(204, 204, 204)" stroke-width="1px"></line><line x1="211.55555555555557" y1="0" x2="211.55555555555557" y2="5" style="visibility: inherit;" fill="rgb(0, 0, 0)" stroke="rgb(204, 204, 204)" stroke-width="1px"></line><line x1="241.77777777777777" y1="0" x2="241.77777777777777" y2="5" style="visibility: inherit;" fill="rgb(0, 0, 0)" stroke="rgb(204, 204, 204)" stroke-width="1px"></line><line x1="272" y1="0" x2="272" y2="5" style="visibility: inherit;" fill="rgb(0, 0, 0)" stroke="rgb(204, 204, 204)" stroke-width="1px"></line></g><g transform="translate(0, 8)"><text x="0" y="0" dx="0em" dy="0.95em" style="text-anchor: middle; visibility: hidden; font-family: Roboto, sans-serif; font-size: 12px; font-weight: 200;" fill="rgb(50, 49, 63)" stroke="none" stroke-width="1px">-2k</text><text x="30.22222222222222" y="0" dx="0em" dy="0.95em" style="text-anchor: middle; visibility: inherit; font-family: Roboto, sans-serif; font-size: 12px; font-weight: 200;" fill="rgb(50, 49, 63)" stroke="none" stroke-width="1px">0</text><text x="60.44444444444444" y="0" dx="0em" dy="0.95em" style="text-anchor: middle; visibility: inherit; font-family: Roboto, sans-serif; font-size: 12px; font-weight: 200;" fill="rgb(50, 49, 63)" stroke="none" stroke-width="1px">2k</text><text x="90.66666666666666" y="0" dx="0em" dy="0.95em" style="text-anchor: middle; visibility: inherit; font-family: Roboto, sans-serif; font-size: 12px; font-weight: 200;" fill="rgb(50, 49, 63)" stroke="none" stroke-width="1px">4k</text><text x="120.88888888888889" y="0" dx="0em" dy="0.95em" style="text-anchor: middle; visibility: inherit; font-family: Roboto, sans-serif; font-size: 12px; font-weight: 200;" fill="rgb(50, 49, 63)" stroke="none" stroke-width="1px">6k</text><text x="151.11111111111111" y="0" dx="0em" dy="0.95em" style="text-anchor: middle; visibility: inherit; font-family: Roboto, sans-serif; font-size: 12px; font-weight: 200;" fill="rgb(50, 49, 63)" stroke="none" stroke-width="1px">8k</text><text x="181.33333333333331" y="0" dx="0em" dy="0.95em" style="text-anchor: middle; visibility: inherit; font-family: Roboto, sans-serif; font-size: 12px; font-weight: 200;" fill="rgb(50, 49, 63)" stroke="none" stroke-width="1px">10k</text><text x="211.55555555555557" y="0" dx="0em" dy="0.95em" style="text-anchor: middle; visibility: inherit; font-family: Roboto, sans-serif; font-size: 12px; font-weight: 200;" fill="rgb(50, 49, 63)" stroke="none" stroke-width="1px">12k</text><text x="241.77777777777777" y="0" dx="0em" dy="0.95em" style="text-anchor: middle; visibility: inherit; font-family: Roboto, sans-serif; font-size: 12px; font-weight: 200;" fill="rgb(50, 49, 63)" stroke="none" stroke-width="1px">14k</text><text x="272" y="0" dx="0em" dy="0.95em" style="text-anchor: middle; visibility: hidden; font-family: Roboto, sans-serif; font-size: 12px; font-weight: 200;" fill="rgb(50, 49, 63)" stroke="none" stroke-width="1px">16k</text></g><line x1="0" y1="0" x2="272" y2="0" fill="rgb(0, 0, 0)" stroke="rgb(204, 204, 204)" stroke-width="1px"></line></g></g></g></g></svg>