<svg viewBox="0 0 330.0000305175781 200.00001525878906" xmlns="http://www.w3.org/2000/svg"><g><g><g><g><g><line x1="70" y1="178" x2="65" y2="178" style="visibility: inherit;" fill="rgb(0, 0, 0)" stroke="rgb(204, 204, 204)" stroke-width="1px"></line><line x1="70" y1="164.3076923076923" x2="65" y2="164.3076923076923" style="visibility: inherit;" fill="rgb(0, 0, 0)" stroke="rgb(204, 204, 204)" stroke-width="1px"></line><line x1="70" y1="150.6153846153846" x2="65" y2="150.6153846153846" style="visibility: inherit;" fill="rgb(0, 0, 0)" stroke="rgb(204, 204, 204)" stroke-width="1px"></line><line x1="70" y1="136.92307692307693" x2="65" y2="136.92307692307693" style="visibility: inherit;" fill="rgb(0, 0, 0)" stroke="rgb(204, 204, 204)" stroke-width="1px"></line><line x1="70" y1="123.23076923076923" x2="65" y2="123.23076923076923" style="visibility: inherit;" fill="rgb(0, 0, 0)" stroke="rgb(204, 204, 204)" stroke-width="1px"></line><line x1="70" y1="109.5384615384615" x2="65" y2="109.5384615384615" style="visibility: inherit;" fill="rgb(0, 0, 0)" stroke="rgb(204, 204, 204)" stroke-width="1px"></line><line x1="70" y1="95.84615384615387" x2="65" y2="95.84615384615387" style="visibility: inherit;" fill="rgb(0, 0, 0)" stroke="rgb(204, 204, 204)" stroke-width="1px"></line><line x1="70" y1="82.15384615384613" x2="65" y2="82.15384615384613" style="visibility: inherit;" fill="rgb(0, 0, 0)" stroke="rgb(204, 204, 204)" stroke-width="1px"></line><line x1="70" y1="68.46153846153844" x2="65" y2="68.46153846153844" style="visibility: inherit;" fill="rgb(0, 0, 0)" stroke="rgb(204, 204, 204)" stroke-width="1px"></line><line x1="70" y1="54.769230769230774" x2="65" y2="54.769230769230774" style="visibility: inherit;" fill="rgb(0, 0, 0)" stroke="rgb(204, 204, 204)" stroke-width="1px"></line><line x1="70" y1="41.076923076923066" x2="65" y2="41.076923076923066" style="visibility: inherit;" fill="rgb(0, 0, 0)" stroke="rgb(204, 204, 204)" stroke-width="1px"></line><line x1="70" y1="27.384615384615365" x2="65" y2="27.384615384615365" style="visibility: inherit;" fill="rgb(0, 0, 0)" stroke="rgb(204, 204, 204)" stroke-width="1px"></line><line x1="70" y1="13.692307692307702" x2="65" y2="13.692307692307702" style="visibility: inherit;" fill="rgb(0, 0, 0)" stroke="rgb(204, 204, 204)" stroke-width="1px"></line><line x1="70" y1="0" x2="65" y2="0" style="visibility: inherit;" fill="rgb(0, 0, 0)" stroke="rgb(204, 204, 204)" stroke-width="1px"></line></g><g transform="translate(60, 0)"><text x="0" y="178" dx="0em" dy="0.3em" style="text-anchor: end; visibility: hidden; font-family: Roboto, sans-serif; font-size: 12px; font-weight: 200;" fill="rgb(50, 49, 63)" stroke="none" stroke-width="1px">0.045</text><text x="0" y="164.3076923076923" dx="0em" dy="0.3em" style="text-anchor: end; visibility: inherit; font-family: Roboto, sans-serif; font-size: 12px; font-weight: 200;" fill="rgb(50, 49, 63)" stroke="none" stroke-width="1px">0.05</text><text x="0" y="150.6153846153846" dx="0em" dy="0.3em" style="text-anchor: end; visibility: hidden; font-family: Roboto, sans-serif; font-size: 12px; font-weight: 200;" fill="rgb(50, 49, 63)" stroke="none" stroke-width="1px">0.055</text><text x="0" y="136.92307692307693" dx="0em" dy="0.3em" style="text-anchor: end; visibility: inherit; font-family: Roboto, sans-serif; font-size: 12px; font-weight: 200;" fill="rgb(50, 49, 63)" stroke="none" stroke-width="1px">0.06</text><text x="0" y="123.23076923076923" dx="0em" dy="0.3em" style="text-anchor: end; visibility: hidden; font-family: Roboto, sans-serif; font-size: 12px; font-weight: 200;" fill="rgb(50, 49, 63)" stroke="none" stroke-width="1px">0.065</text><text x="0" y="109.5384615384615" dx="0em" dy="0.3em" style="text-anchor: end; visibility: inherit; font-family: Roboto, sans-serif; font-size: 12px; font-weight: 200;" fill="rgb(50, 49, 63)" stroke="none" stroke-width="1px">0.07</text><text x="0" y="95.84615384615387" dx="0em" dy="0.3em" style="text-anchor: end; visibility: hidden; font-family: Roboto, sans-serif; font-size: 12px; font-weight: 200;" fill="rgb(50, 49, 63)" stroke="none" stroke-width="1px">0.075</text><text x="0" y="82.15384615384613" dx="0em" dy="0.3em" style="text-anchor: end; visibility: inherit; font-family: Roboto, sans-serif; font-size: 12px; font-weight: 200;" fill="rgb(50, 49, 63)" stroke="none" stroke-width="1px">0.08</text><text x="0" y="68.46153846153844" dx="0em" dy="0.3em" style="text-anchor: end; visibility: hidden; font-family: Roboto, sans-serif; font-size: 12px; font-weight: 200;" fill="rgb(50, 49, 63)" stroke="none" stroke-width="1px">0.085</text><text x="0" y="54.769230769230774" dx="0em" dy="0.3em" style="text-anchor: end; visibility: inherit; font-family: Roboto, sans-serif; font-size: 12px; font-weight: 200;" fill="rgb(50, 49, 63)" stroke="none" stroke-width="1px">0.09</text><text x="0" y="41.076923076923066" dx="0em" dy="0.3em" style="text-anchor: end; visibility: hidden; font-family: Roboto, sans-serif; font-size: 12px; font-weight: 200;" fill="rgb(50, 49, 63)" stroke="none" stroke-width="1px">0.095</text><text x="0" y="27.384615384615365" dx="0em" dy="0.3em" style="text-anchor: end; visibility: inherit; font-family: Roboto, sans-serif; font-size: 12px; font-weight: 200;" fill="rgb(50, 49, 63)" stroke="none" stroke-width="1px">0.1</text><text x="0" y="13.692307692307702" dx="0em" dy="0.3em" style="text-anchor: end; visibility: hidden; font-family: Roboto, sans-serif; font-size: 12px; font-weight: 200;" fill="rgb(50, 49, 63)" stroke="none" stroke-width="1px">0.105</text><text x="0" y="0" dx="0em" dy="0.3em" style="text-anchor: end; visibility: hidden; font-family: Roboto, sans-serif; font-size: 12px; font-weight: 200;" fill="rgb(50, 49, 63)" stroke="none" stroke-width="1px">0.11</text></g><line x1="70" y1="0" x2="70" y2="178" fill="rgb(0, 0, 0)" stroke="rgb(204, 204, 204)" stroke-width="1px"></line></g></g><g transform="translate(70, 0)" clip-path="url(#clip_0)"><clipPath id="clip_0"><rect width="260" height="177"></rect></clipPath><g><g><g><line x1="0" y1="0" x2="0" y2="178" fill="rgb(0, 0, 0)" stroke="rgb(60, 60, 60)" stroke-width="1px" opacity="0.25"></line><line x1="28.888888888888886" y1="0" x2="28.888888888888886" y2="178" fill="rgb(0, 0, 0)" stroke="rgb(60, 60, 60)" stroke-width="1px" opacity="0.25"></line><line x1="57.77777777777777" y1="0" x2="57.77777777777777" y2="178" fill="rgb(0, 0, 0)" stroke="rgb(60, 60, 60)" stroke-width="1px" opacity="0.25"></line><line x1="86.66666666666666" y1="0" x2="86.66666666666666" y2="178" fill="rgb(0, 0, 0)" stroke="rgb(60, 60, 60)" stroke-width="1px" opacity="0.25"></line><line x1="115.55555555555554" y1="0" x2="115.55555555555554" y2="178" fill="rgb(0, 0, 0)" stroke="rgb(60, 60, 60)" stroke-width="1px" opacity="0.25"></line><line x1="144.44444444444446" y1="0" x2="144.44444444444446" y2="178" fill="rgb(0, 0, 0)" stroke="rgb(60, 60, 60)" stroke-width="1px" opacity="0.25"></line><line x1="173.33333333333331" y1="0" x2="173.33333333333331" y2="178" fill="rgb(0, 0, 0)" stroke="rgb(60, 60, 60)" stroke-width="1px" opacity="0.25"></line><line x1="202.22222222222223" y1="0" x2="202.22222222222223" y2="178" fill="rgb(0, 0, 0)" stroke="rgb(60, 60, 60)" stroke-width="1px" opacity="0.25"></line><line x1="231.1111111111111" y1="0" x2="231.1111111111111" y2="178" fill="rgb(0, 0, 0)" stroke="rgb(60, 60, 60)" stroke-width="1px" opacity="0.25"></line><line x1="260" y1="0" x2="260" y2="178" fill="rgb(0, 0, 0)" stroke="rgb(60, 60, 60)" stroke-width="1px" opacity="0.25"></line></g><g><line x1="0" y1="178" x2="260" y2="178" fill="rgb(0, 0, 0)" stroke="rgb(60, 60, 60)" stroke-width="1px" opacity="0.25"></line><line x1="0" y1="164.3076923076923" x2="260" y2="164.3076923076923" fill="rgb(0, 0, 0)" stroke="rgb(60, 60, 60)" stroke-width="1px" opacity="0.25"></line><line x1="0" y1="150.6153846153846" x2="260" y2="150.6153846153846" fill="rgb(0, 0, 0)" stroke="rgb(60, 60, 60)" stroke-width="1px" opacity="0.25"></line><line x1="0" y1="136.92307692307693" x2="260" y2="136.92307692307693" fill="rgb(0, 0, 0)" stroke="rgb(60, 60, 60)" stroke-width="1px" opacity="0.25"></line><line x1="0" y1="123.23076923076923" x2="260" y2="123.23076923076923" fill="rgb(0, 0, 0)" stroke="rgb(60, 60, 60)" stroke-width="1px" opacity="0.25"></line><line x1="0" y1="109.5384615384615" x2="260" y2="109.5384615384615" fill="rgb(0, 0, 0)" stroke="rgb(60, 60, 60)" stroke-width="1px" opacity="0.25"></line><line x1="0" y1="95.84615384615387" x2="260" y2="95.84615384615387" fill="rgb(0, 0, 0)" stroke="rgb(60, 60, 60)" stroke-width="1px" opacity="0.25"></line><line x1="0" y1="82.15384615384613" x2="260" y2="82.15384615384613" fill="rgb(0, 0, 0)" stroke="rgb(60, 60, 60)" stroke-width="1px" opacity="0.25"></line><line x1="0" y1="68.46153846153844" x2="260" y2="68.46153846153844" fill="rgb(0, 0, 0)" stroke="rgb(60, 60, 60)" stroke-width="1px" opacity="0.25"></line><line x1="0" y1="54.769230769230774" x2="260" y2="54.769230769230774" fill="rgb(0, 0, 0)" stroke="rgb(60, 60, 60)" stroke-width="1px" opacity="0.25"></line><line x1="0" y1="41.076923076923066" x2="260" y2="41.076923076923066" fill="rgb(0, 0, 0)" stroke="rgb(60, 60, 60)" stroke-width="1px" opacity="0.25"></line><line x1="0" y1="27.384615384615365" x2="260" y2="27.384615384615365" fill="rgb(0, 0, 0)" stroke="rgb(60, 60, 60)" stroke-width="1px" opacity="0.25"></line><line x1="0" y1="13.692307692307702" x2="260" y2="13.692307692307702" fill="rgb(0, 0, 0)" stroke="rgb(60, 60, 60)" stroke-width="1px" opacity="0.25"></line><line x1="0" y1="0" x2="260" y2="0" fill="rgb(0, 0, 0)" stroke="rgb(60, 60, 60)" stroke-width="1px" opacity="0.25"></line></g></g></g><g><g><line x1="0" y1="301.2307692307692" x2="260" y2="301.2307692307692" fill="rgb(0, 0, 0)" stroke="rgb(153, 153, 153)" stroke-width="1.5px"></line></g></g><g><g><line x1="28.888888888888886" y1="0" x2="28.888888888888886" y2="178" fill="rgb(0, 0, 0)" stroke="rgb(153, 153, 153)" stroke-width="1.5px"></line></g></g><g><g><g><g><g><path stroke="rgb(255, 112, 67)" stroke-width="2px" d="M33.90111111111111,-19.59496142574017L34.190000000000005,4.125420912409246L34.97,-6.423285711811325L34.98444444444445,1.7036933917060502L35.27333333333333,20.28534712981655L35.53333333333333,35.78752319760996L35.73555555555556,40.28579807709742L36.63111111111111,18.38697431338961L37.02111111111111,36.800311243639946L37.25222222222222,20.40169759563386L37.35333333333333,18.70907986141287L37.367777777777775,30.853961572851023L37.84444444444444,15.139510705750753L38.04666666666667,10.256666372621659L38.162222222222226,29.23761082137192L38.23444444444444,26.538379863856175L38.263333333333335,32.575319362857336L38.43666666666667,12.808903435712052L38.581111111111106,22.649241959815594L39.202222222222225,12.254626242924559L39.31777777777778,41.1027663502777L39.43333333333334,25.7306619603306L39.80888888888889,41.940372254512205L39.93888888888889,52.30335548126055L39.99666666666666,51.428642563413284L40.025555555555556,68.06782416558273L40.22777777777778,64.26543709874652L40.25666666666666,44.35471440576657L40.357777777777784,56.12054362318929L40.473333333333336,49.929196766387626L40.56,53.76991193792006L40.964444444444446,33.105086693713986L42.01888888888889,48.92502393012565L42.495555555555555,56.41003662711732L42.53888888888889,66.84725037482447L42.784444444444446,45.57513245731254L42.91444444444445,47.743026136557575L42.928888888888885,50.9425672471349L43.01555555555556,44.62940924872586L43.03,12.306857961700217L43.102222222222224,21.82300950003251L43.36222222222222,30.189816157572157L43.40555555555556,44.531061202158895L43.535555555555554,48.13645415986113L44.24333333333333,55.10627524637213L44.28666666666667,59.72789612163922L44.373333333333335,54.191425283022845L44.46,51.71587270729751L44.532222222222224,48.8156250133098L44.67666666666667,50.43498206863837L44.763333333333335,43.32956089308192L44.83555555555556,42.91540732864884L45.586666666666666,37.30396921153093L45.65888888888889,48.124535934419754L45.67333333333333,48.40246663514411L45.93333333333333,27.38843549320666L46.12111111111111,36.047968534957604L46.30888888888889,51.46383573130032L46.85777777777778,45.44316507655769L47.10333333333333,59.07191218257825L47.39222222222222,61.99131506276656L47.58,56.987578911369994L47.89777777777778,53.40889171436281L47.941111111111105,65.9156224396472L48.14333333333334,58.532306042388676L48.20111111111111,71.5748698240052L48.894444444444446,75.3011421140886L48.995555555555555,62.464788086135286L49.31333333333334,36.74249195547969L49.486666666666665,59.00776243640688L49.63111111111111,55.85246120858111L50.06444444444445,67.26845332227441L50.22333333333333,51.53068367845726L50.33888888888889,55.968563950378105L50.425555555555555,66.30431293488186L50.88777777777778,47.698912460771126L50.94555555555556,30.879239437633753L51.306666666666665,31.250853575628646L51.53777777777778,60.55237698214338L51.55222222222222,4.7401205592623725L51.76888888888889,13.755845606384467L51.82666666666667,27.60814413569305L52.07222222222222,36.49380602783659L52.577777777777776,25.38096721470681L52.693333333333335,-1.0898574382047266L52.98222222222222,11.266793507476294L53.184444444444445,4.606820359405004L53.31444444444444,-5.328881464119615L53.40111111111111,-1.0259456883167237L53.47333333333333,15.432742401022923L53.574444444444445,13.423067669353578L53.70444444444444,34.35921928807687L53.906666666666666,37.79439505422105L53.93555555555555,57.53549682098712L53.97888888888889,60.916303641509586L54.108888888888885,50.898250242831665L54.614444444444445,69.7213471004555L54.96111111111111,78.64472895080982L55.26444444444444,84.09508531084279L55.52444444444444,69.62072283775898L55.654444444444444,64.84512440230606L55.842222222222226,53.40444473040106L55.885555555555555,60.263621799283776L56.00111111111111,60.39825733522893L56.57888888888889,54.83470089264288L56.824444444444445,67.58294026455441L56.96888888888889,62.77926701271306L57.01222222222222,63.68563020116044L57.30111111111111,64.5769215521984L57.53222222222222,51.55993847696159L57.79222222222222,66.76696665306561L57.965555555555554,53.5583435929077L58.21111111111111,58.399366392866234L58.297777777777775,49.846799187673085L58.644444444444446,37.93014138508616L58.83222222222222,26.464068920976416L58.87555555555556,42.652496220990535L58.89,24.520350466793257L59.00555555555556,24.28910479445327L59.06333333333333,34.27219432844011L59.16444444444445,17.797232487244198L59.87222222222222,51.550792862807654L59.93,46.27593040318922L60.03111111111111,44.95113027190763L60.16111111111111,30.71391020428343L60.47888888888889,46.6814319302236L60.53666666666667,53.56029328256728L60.65222222222222,71.57431389696251L60.76777777777778,66.93071077396735L60.82555555555556,75.07300311588023L61.114444444444445,50.024761130908864L61.18666666666667,30.366484846357977L61.20111111111111,14.179688557931922L61.27333333333333,37.77568525921101L61.446666666666665,46.94359213254099L61.489999999999995,61.884790317753726L61.562222222222225,76.11393258090278L61.836666666666666,73.036814676111L62.06777777777778,68.2042033187704L62.21222222222222,61.514379985782L62.385555555555555,62.59235600047306L62.761111111111106,68.61876102427743L62.89111111111111,52.92521389714636L63.39666666666667,36.944215831890865L63.41111111111111,51.97289731092437L63.44,62.748725286737525L64.07555555555555,74.31727300107484L64.19111111111111,61.7074710929669L64.32111111111111,63.63951554140495L64.35,63.00161017689961L64.42222222222223,58.14703169340363L64.78333333333333,60.01564348723711L64.79777777777778,59.54062486099319L64.94222222222221,48.54789683511281L64.97111111111111,78.85811606039245L65.04333333333332,91.12497359553907L65.24555555555557,91.45839759685407L65.33222222222221,97.63827432151551L65.46222222222222,85.61147095626451L65.67888888888889,84.52031014894345L65.76555555555557,93.21920752752455L66.44444444444444,80.62680256686403L66.53111111111112,71.30673382107267L66.77666666666667,74.67550173104271L66.86333333333333,66.73760376302376L67.57111111111111,77.52709247931317L67.67222222222222,72.8796688324847L67.74444444444444,63.593258955324096L67.93222222222222,79.3369040451223L68.46666666666665,87.4843258798263L68.66888888888889,88.02891213720507L69.17444444444445,82.79575427281443L70.37333333333333,74.2044619334655L70.50333333333333,57.47223328337266L70.63333333333334,71.86546280943773L70.72,83.75526695917408L71.06666666666666,71.4622699330012L71.74555555555555,87.63916576287784L71.86111111111111,79.49759323824429L72.38111111111111,89.1411951397826L72.61222222222223,94.46920811302208L72.65555555555555,104.82819135059194L72.77111111111111,89.88888325136467L72.81444444444445,82.64897916314254L73.16111111111111,72.19856808770814L73.21888888888888,60.9110860716648L73.65222222222222,66.17956837960166L74.20111111111112,72.60239164477359L74.46111111111112,52.688024296116346L74.54777777777778,81.91660589157482L74.77888888888889,71.77190016064561L75.03888888888889,90.68122681223232L75.05333333333334,88.6474550298349L75.54444444444445,89.93539750259399L75.68888888888888,74.61726025428068L75.73222222222223,74.91204529905045L75.74666666666667,84.46655323539716L75.77555555555556,89.81220249013217L75.78999999999999,104.60972787407245L76.1511111111111,83.10155384498087L76.62777777777778,75.75683652889003L77.20555555555556,93.15058561375807L77.65333333333334,70.1196978013075L78.04333333333334,68.41533489486176L78.11555555555556,88.8233144562922L78.43333333333334,94.41988970526945L78.70777777777778,102.97994705253178L78.92444444444445,106.77250074550435L79.15555555555557,72.3068056829453L79.57444444444445,84.6950326546332L79.61777777777777,89.41667055531605L79.97888888888889,74.38637976681977L80.35444444444444,71.76447179082048L80.6,73.66025873519787L80.88888888888889,81.59724482869716L81.14888888888889,88.8930316799801L81.17777777777778,95.22175289502957L81.20666666666668,89.76204546096045L81.29333333333332,99.45360880513721L81.69777777777779,95.89170154354045L81.9,106.49348708183669L82.7088888888889,97.74386276762503L82.76666666666668,107.94244743012034L82.92555555555555,96.01872820124917L83.37333333333333,65.04866755194696L83.4888888888889,58.162202199804796L83.67666666666668,69.81651723965334L83.7488888888889,70.57049882026647L83.98,44.039521939459995L84.05222222222223,58.784438394113074L84.08111111111111,59.44920329560902L84.22555555555554,63.972301644559494L84.28333333333333,72.99537924400589L84.70222222222222,84.09320276568994L84.87555555555555,88.35515770759886L85.62666666666667,90.81822328329415L85.78555555555555,101.02449647613867L86.03111111111112,80.68631691216073L86.43555555555555,81.12112322964222L86.81111111111112,69.63311036629555L86.98444444444445,79.52495255224524L87.14333333333333,91.74634333756521L87.18666666666667,81.73671453548872L88.01,73.12599639965676L88.08222222222223,71.51092588688621L88.09666666666666,80.6345358817458L88.24111111111111,83.81967490302983L89.29555555555555,96.1151998382518L89.45444444444445,103.67910548926416L89.46888888888888,100.90711406902776L89.49777777777777,87.99786990444107L89.57,103.37000643119589L89.58444444444444,107.38920928779466L89.94555555555556,99.15505598447045L90.01777777777778,103.58809580252591L90.06111111111112,110.08449131342L90.17666666666666,97.64815530740248L90.46555555555555,103.69186177818561L90.50888888888889,112.9135783354097L90.52333333333334,127.96346796620577L90.74,112.16637726650464L91.05777777777777,115.22740404988059L91.24555555555555,112.66455883218761L91.27444444444444,116.22296556676392L91.46222222222222,133.2211826521546L91.99666666666667,135.43375715851357L92.34333333333333,137.09002074466963L92.44444444444444,127.78051734120508L92.5311111111111,111.86956733280016L92.87777777777778,117.63357017204245L92.9211111111111,105.30651213707651L93.77333333333334,112.13105378231985L94.01888888888888,121.28237177493965L94.03333333333335,111.84888215629707L94.32222222222222,95.18648300583082L94.36555555555556,106.26563838179018L94.49555555555555,111.6607222959245L95.01555555555557,98.60915543695128L95.05888888888889,103.00518175766004L95.28999999999999,126.81385890083436L95.73777777777778,102.10058268431516L96.14222222222222,109.1640638015857L96.25777777777778,104.68889855205317L96.31555555555556,108.24142749546624L96.43111111111111,103.91728893825758L96.59,96.01679271497244L96.96555555555557,80.434305192183L97.03777777777778,99.6309602084048L97.2688888888889,101.59554743807931L97.5,99.76144325574477L97.61555555555556,97.544962267657L97.74555555555557,84.83643667273975L97.87555555555556,80.06077326116763L98.03444444444443,88.42706072427283L98.0488888888889,95.42445130956487L98.22222222222221,100.61154781193005L98.25111111111111,88.60501411480907L98.8,89.06943015960623L98.97333333333333,83.52029341422637L99.24777777777778,93.73432638898286L99.58,102.54313779726044L99.86888888888889,103.05781412633908L100.56222222222222,96.4412676621696L100.69222222222223,95.11099044029469L100.73555555555555,110.13784551165617L100.76444444444444,103.1138392091015L101.50111111111111,100.60368425939106L101.54444444444444,110.1632606244166L101.83333333333333,111.46281136333498L101.86222222222223,118.97077944479273L101.87666666666667,118.75631261322341L101.97777777777779,112.97541914256477L102.23777777777777,101.81901692259167L102.64222222222223,100.02967959633337L102.93111111111111,87.33417777917994L103.04666666666667,95.58300223585675L103.49444444444444,104.00473797792532L103.74000000000001,91.01786376979092L104,103.73128319213015L104.11555555555556,113.24473897382842L104.56333333333333,122.67786872430395L104.95333333333333,106.66901211581265L105.28555555555556,106.02995902407228L105.70444444444445,96.88606041000659L105.86333333333333,98.16525987902185L106.09444444444445,114.57967757332587L106.29666666666667,113.81970525380625L106.6,114.15754229827868L107.17777777777778,126.41120541419156L107.49555555555555,101.37221275486966L107.56777777777778,79.66999997878965L108.10222222222222,85.27847505367887L108.2611111111111,99.0617157504385L108.34777777777778,95.5742105232318L108.55,94.89966768221817L108.57888888888888,107.8236528637583L109.0411111111111,114.62365907721095L109.38777777777777,117.52005284281917L109.5611111111111,114.42868896277159L109.59,99.46427302514971L109.67666666666666,90.16315609877886L109.85,86.82220263786161L110.21111111111111,85.18603760902312L110.61555555555556,87.10859333999109L110.64444444444445,95.8240484851383L110.70222222222222,112.462142962452L110.91888888888889,99.06489566642828L111.5111111111111,112.31658336191188L111.55444444444446,113.46066347484152L112.32,121.82768152146004L112.36333333333333,131.95621952728584L112.50777777777778,136.2117061400001L112.76777777777778,121.98775861990731L112.78222222222222,122.1596498353296L113.02777777777779,120.27996774003681L113.07111111111111,112.8827096706698L113.56222222222222,109.99767763944268L113.5911111111111,118.14456779677744L113.69222222222221,129.69170763398503L114.08222222222221,122.82337162584926L114.21222222222222,115.74844589691037L114.51555555555557,120.45882341732829L114.86222222222221,122.6775508619791L114.93444444444444,120.00866423142321L115.02111111111111,96.66458340571512L115.41111111111111,104.48801327720076L115.7,105.06957583274853L115.77222222222223,126.49691594949289L115.9888888888889,118.24643466887198L116.06111111111112,120.66581300874175L116.68222222222222,126.83463921901584L116.74000000000001,115.80248907155303L117.04333333333334,114.4619861374931L117.07222222222222,132.71350851929316L117.30333333333333,127.18285235560379L117.33222222222223,125.99032589580177L117.41888888888889,121.24826895191678L117.44777777777779,117.15056018413367L117.70777777777778,116.67690631836945L118.04,124.7836923444151L118.17,124.2438933866319L118.44444444444444,114.36167067482957L118.60333333333334,105.54939132678211L118.63222222222223,104.32670231356991L118.7188888888889,115.49278100088559L118.90666666666667,126.12703278469084L119.16666666666666,116.49967288810083L119.73,121.01802264263762L120.06222222222222,129.0828297110415L120.12,112.64508681497306L120.13444444444444,114.05223963123895L120.23555555555555,107.17254348489429L120.48111111111112,108.39161859411746L120.64,107.88477331306555L120.79888888888888,101.16930133231705L120.9,93.09510609904936L120.98666666666666,88.64680139018942L121.33333333333333,78.11761128229364L122.18555555555555,96.74475797286037L122.70555555555555,104.61804065865519L122.72,105.92065047434161L122.77777777777777,99.90262898561839L123.06666666666666,117.32444629753886L123.08111111111111,124.8105300747011L123.09555555555555,101.27292566608696L123.21111111111112,89.40654095981994L123.84666666666666,90.60255192090376L123.94777777777777,91.79669396455512L123.99111111111111,115.73497938049778L124.26555555555555,128.96794376654267L125.04555555555555,130.90729291460923L125.17555555555556,127.74962998439999L125.20444444444445,128.52487951293895L125.26222222222223,131.00473614430382L125.34888888888888,103.19881363036421L125.39222222222223,115.32421218761499L125.49333333333334,96.18976025412316L125.60888888888888,108.02402956494362L125.65222222222222,122.83217487230331L125.82555555555555,128.41142472460984L126.21555555555555,111.60344635654253L126.27333333333334,103.89312645183794L126.43222222222222,112.40152187027763L126.5911111111111,108.73587447561528L127.57333333333332,121.24220814156999L127.77555555555556,119.40430950202855L127.8911111111111,136.90074388248098L128.09333333333333,123.70973182495321L128.10777777777778,123.08499914411696L128.48333333333332,118.22924079805698L128.68555555555557,110.02241447982011L129.04666666666668,111.41533127400447L129.46555555555557,123.65190063378041L129.5088888888889,126.2556155791607L129.88444444444443,127.8215252707529L130.14444444444445,126.10979880714262L130.20222222222222,121.3285138513996L130.56333333333333,134.96692247749567L130.9388888888889,115.20240302374529L131.31444444444446,98.50943123623838L131.53111111111113,97.02912554522037L131.64666666666665,80.61240674621136L131.6611111111111,91.38666562133636L131.9788888888889,105.25925409730438L132.03666666666666,113.0084101508077L132.23888888888888,116.19080459315141L132.81666666666666,108.70290308828598L132.94666666666666,97.2815535844568L133.12,104.17156482364418L133.39444444444445,128.93975723896295L133.4377777777778,128.06775100528296L133.56777777777776,113.90399496440168L134.33333333333334,104.68729822126396L134.4922222222222,95.18242431225033L134.7522222222222,106.94798928363576L134.89666666666668,107.7877202163407L134.9111111111111,94.60742539301974L135.1711111111111,107.7088558140906L135.18555555555554,92.28860198271119L135.51777777777778,102.8047388281061L135.57555555555555,108.65107405054216L135.79222222222222,114.63797770384613L136.22555555555556,125.6695738644635L136.35555555555555,112.96001960748004L136.3988888888889,112.86439620204905L136.5,118.47055518614596L136.64444444444445,116.9409193239925L136.68777777777777,93.53615628641447L136.76000000000002,106.15699623846126L136.90444444444444,111.69662226929134L137.2511111111111,104.38689129628598L137.38111111111112,107.22914659335622L137.65555555555557,119.57225429443548L137.9011111111111,104.88239186569561L138.79666666666668,112.22012133430454L139.30222222222224,126.25025671601442L139.54777777777778,128.74986374765263L139.6922222222222,111.56612011151364L139.76444444444445,113.32749094625575L139.92333333333335,100.21771952866747L140.01,104.03129292161192L140.11111111111111,98.42811898460846L140.3711111111111,108.68395622552414L140.44333333333333,107.89182559882344L140.51555555555555,106.56430038812141L140.77555555555554,115.35168963809701L140.93444444444444,125.21863838334204L140.9777777777778,130.7483162365928L141.26666666666668,125.66346993296638L141.38222222222223,115.40867454145547L141.52666666666667,117.82857976800868L141.70000000000002,127.09241149783443L142.0322222222222,129.96100692450267L142.10444444444445,117.47217280795502L142.98555555555555,120.8208254505553L143,124.09706763249933L143.46222222222224,132.63021271856468L144.08333333333334,131.24972018948606L144.19888888888892,139.07256738844669L144.31444444444443,142.23360494400035L144.32888888888888,148.89880176100576L144.82000000000002,136.5653339020448L144.9788888888889,125.16141671995238L145.1522222222222,107.70149874310262L145.39777777777778,97.16450179680832L146.26444444444445,118.93698705610879L146.61111111111111,117.62214062668004L147.04444444444445,110.91408934902343L147.10222222222222,120.53162676153066L147.30444444444444,107.82401108317526L147.55,106.19418276752343L147.63666666666666,106.65587338955079L148.24333333333334,109.50839098369222L148.47444444444443,119.51854756840231L148.63333333333333,122.31848576059072L148.76333333333335,125.75905910962896L148.87888888888887,112.50319999816006L149.1677777777778,112.59932261921158L149.19666666666666,125.36778609240214L149.23999999999998,134.78229270884353L149.26888888888888,138.66692587440585L149.35555555555555,138.17927066416462L149.64444444444445,144.3074849179625L149.6877777777778,123.50813917245368L149.76,107.5992555155372L149.89000000000001,110.96837924967453L150.9011111111111,101.69872958644225L151.19,121.89268202662099L151.20444444444445,131.84349400631976L151.23333333333332,138.36624083189832L151.43555555555554,145.7134742775755L151.49333333333334,148.98161815913622L151.62333333333333,140.96364859391053L151.63777777777779,144.70574810478982L151.71,132.30778457149205L151.7822222222222,141.90906679745655L151.99888888888887,137.48613282969816L152.4466666666667,144.10987080432176L152.62,130.99384114415074L152.7211111111111,134.97881636826722L152.79333333333332,129.25295550984183L152.99555555555554,125.14260144220245L153.12555555555556,129.52835121036674L153.5011111111111,117.48111719427399L153.60222222222222,121.30304583815088L153.61666666666667,123.19389413860924L153.74666666666667,115.34207372843179L154.29555555555555,98.89581205327987L154.41111111111113,100.38500760538572L154.42555555555558,114.69848677427105L154.48333333333332,126.29287731089818L154.94555555555556,142.8966126591894L155.62444444444444,131.6007486910184L155.6822222222222,95.53827733946434L155.9422222222222,99.0744191907845L156.01444444444445,101.82621819669939L156.27444444444444,108.22800282406537L156.31777777777776,109.2837609295572L156.6211111111111,106.81727872068531L156.78,99.91934680896216L157.12666666666667,111.69598268336694L157.2277777777778,113.51937220338047L157.47333333333333,102.83712010198366L157.5022222222222,100.3510129506661L157.54555555555555,100.81120169675604L157.8488888888889,92.9737089683053L157.87777777777777,101.06716588975227L157.95000000000002,103.24523966584577L158.1088888888889,112.99635116777128L158.2822222222222,122.27258907041961L158.5277777777778,105.57274055740749L158.7877777777778,108.23352265513846L158.87444444444444,105.7688797850058L159.01888888888888,121.23472081607304L159.2788888888889,124.44264616178292L159.29333333333335,134.30385514263403L159.68333333333334,131.04920700794605L159.79888888888888,129.60915690517422L159.94333333333333,132.54662140522L160.10222222222222,123.53043749702744L160.40555555555554,110.48803923498943L160.66555555555556,112.29941404674037L161.12777777777777,116.66932264776256L161.2288888888889,101.859520445212L161.98,93.27505045896652L162.00888888888886,98.9855902942128L162.15333333333334,108.42401426836796L162.25444444444446,115.05500938684408L162.64444444444445,124.30885570988227L162.94777777777776,115.07333921225583L163.09222222222223,110.84827593327131L163.32333333333332,118.83736338601082L163.35222222222222,96.37484382987591L163.45333333333335,96.86545254276692L163.91555555555556,94.32075509810653L163.98777777777778,111.04221719319759L164.14666666666665,111.20681943141349L164.2188888888889,115.69838248095057L164.84,134.59192299623436L164.88333333333333,133.0497273175207L165.17222222222225,138.68223245871863L165.2588888888889,121.84069689930698L165.27333333333334,118.17910799736053L165.64888888888888,112.89555306875043L165.75,121.76637938727016L166.66,123.5283619662514L166.79,134.15728746425683L166.8911111111111,128.75426000147164L166.93444444444447,143.41913899057568L167.03555555555556,136.49569719917727L167.07888888888888,128.72617328741595L167.39666666666668,120.9610043688553L167.55555555555557,138.2085624374389L167.71444444444447,154.49017195466257L167.88777777777779,141.60663780584713L167.90222222222224,140.6012701003332L167.94555555555556,117.92121572453942L168.29222222222222,126.49802285206738L168.3788888888889,131.30792886249904L168.7111111111111,128.99036061627356L168.85555555555555,123.65924106112577L168.9711111111111,132.50884924619425L169.85222222222222,117.71896596585667L169.98222222222222,97.8335492105917L170.11222222222221,106.47140293025635L170.61777777777777,80.27305087545633L171.02222222222224,83.33403389192019L171.06555555555556,77.61575331640844L171.64333333333335,80.68926966125407L171.98999999999998,91.87589851303754L172.13444444444443,102.12892037111527L172.92888888888888,120.15526036263157L173.11666666666667,118.0350688062853L173.53555555555553,131.85242209487558L174.05555555555554,130.12409005783806L174.12777777777777,130.36118867255016L174.14222222222222,133.57264147966546L174.17111111111112,131.24907224545237L174.37333333333333,112.06730381488875L174.54666666666668,105.71670858214497L174.8788888888889,106.36002792301207L174.96555555555557,114.35583145708836L175.18222222222224,118.51314502073387L175.26888888888888,115.26619076108463L175.41333333333333,123.160213945408L175.76000000000002,115.06733250504692L176.00555555555556,118.99416290728749L176.32333333333335,125.37853240192418L176.7711111111111,115.5038667522331L176.8722222222222,107.57571682944652L177.0311111111111,113.30719377306417L177.26222222222222,117.55749603335448L177.32000000000002,135.01211780168325L177.42111111111112,138.62099282381638L177.49333333333334,132.67274042537125L178.10000000000002,139.37744152152268L178.62,140.72246991434852L179.02444444444444,130.3161030461738L179.05333333333334,132.05728798304403L179.0677777777778,118.22414788994753L179.09666666666666,124.02513927593431L179.18333333333334,129.71715574396106L179.31333333333333,129.01554071358623L179.39999999999998,126.77333132527112L179.47222222222223,126.46329307250053L179.89111111111112,123.32048955880418L180.09333333333333,120.60421241576695L180.25222222222223,114.16615511652046L180.39666666666665,118.8512848330419L180.45444444444445,122.06658128164113L180.4688888888889,137.07404611954536L180.87333333333333,134.50163898277412L181.00333333333336,136.60802056711714L181.11888888888888,117.06607761666565L181.33555555555554,107.63013469205914L181.35,119.704041350505L181.52333333333334,117.51727999779243L181.9711111111111,115.89679317470903L182.1011111111111,122.00017135067843L182.2888888888889,116.10655221270268L182.34666666666666,97.75291069289709L182.4188888888889,114.79181588394304L182.54888888888888,130.71234902654115L182.66444444444446,119.52193859718501L182.76555555555558,113.70985338758017L182.78,112.03006643960916L183.02555555555557,122.81643483722696L183.45888888888888,120.35314649889027L183.60333333333335,107.81236059901298L184.13777777777779,107.87012412029198L184.26777777777778,117.94314997214995L184.2822222222222,130.29858348124117L184.3688888888889,130.18911628979333L184.6,140.4289214710788L184.7011111111111,134.2148704625329L185.10555555555555,135.72960314962995L185.12,138.587594424568L185.25,139.28655823255826L185.32222222222222,141.23354730533094L185.4811111111111,149.2541803909471L185.61111111111111,145.8226925332303L185.81333333333333,138.95703087855495L185.97222222222223,149.00166925188142L186.36222222222221,146.79568386864256L186.40555555555557,147.6569575632034L186.53555555555556,144.74358863893582L186.89666666666668,142.87094497608436L186.95444444444445,141.55046858927597L187.08444444444444,143.83900209804355L187.2866666666667,134.76971131243138L187.37333333333333,123.02223171904079L187.4022222222222,127.75420425648281L187.89333333333335,119.53021986763856L187.98,109.5812870764986L188.0666666666667,129.70539854377657L188.09555555555556,139.11658794482486L188.11,124.96150234314071L188.25444444444446,115.37650819495985L188.32666666666668,114.46526434347433L188.5288888888889,112.8728087343758L188.6588888888889,117.63602213297355L188.89000000000001,124.92079653879443L189.25111111111113,104.71156760592906L189.52555555555554,98.75769910583837L189.65555555555557,113.82628004817288L189.91555555555556,117.12313184274414L190.30555555555554,121.65919128873318L190.63777777777779,133.49639792334062L190.66666666666666,137.56367494151374L190.6811111111111,136.99703216887892L191.4177777777778,139.11920218668809L191.53333333333333,155.0883307828498L191.57666666666668,145.87782073232717L191.70666666666665,147.59314809889582L192.25555555555556,142.9800674706527L192.70333333333332,136.23196864342586L192.99222222222224,142.19819711667145L193.19444444444446,133.82722612311468L193.26666666666665,128.4037710213525L193.71444444444444,132.86894410935832L193.83,123.22259970588928L193.85888888888888,131.03330267809207L194.35000000000002,127.99050118256116L194.39333333333335,136.00144189067552L194.59555555555556,139.52071173515793L194.63888888888889,128.5425568405708L194.79777777777778,120.02034556219654L194.88444444444443,123.45852487433221L195.28888888888886,127.7970300981299L195.33222222222224,129.35454227234604L195.34666666666666,129.55328828287762L195.43333333333334,134.7876817925638L195.4622222222222,135.0318653064061L195.70777777777778,116.84463838981733L195.82333333333332,113.0609349503943L195.95333333333335,123.34435381170773L196.17,115.31690047053033L196.4011111111111,104.66124082541373L196.96444444444444,126.8687219198698L197.13777777777779,133.0836507104452L197.16666666666666,142.83865971700047L197.3111111111111,145.20409717347255L197.47,150.9785787914434L197.5711111111111,161.6604174050235L197.67222222222225,157.70634727176824L197.70111111111112,154.40179235130933L197.94666666666666,135.92109793290498L198.2211111111111,142.09423798975806L198.7411111111111,110.87773113367511L198.88555555555556,119.74347441009753L199.1311111111111,110.53675804503006L199.2177777777778,117.02391933733415L199.34777777777776,135.22387726093461L199.7811111111111,109.38298060472502L200.11333333333334,130.1408329494568L200.12777777777777,126.8826626261429L200.38777777777779,138.7249108239533L200.79222222222222,135.05579201761932L200.86444444444444,151.617874142295L201.0522222222222,155.20717152806228L201.25444444444446,132.4868350116461L201.37,138.18646668445442L201.44222222222223,132.27060657816108L201.4711111111111,133.6026818069131L201.48555555555555,129.12560856828344L201.77444444444447,132.61395521272158L201.84666666666666,147.99590838827362L202.04888888888888,151.04860037629865L202.19333333333333,154.07082788524525L202.26555555555555,151.64143177404193L202.36666666666667,147.83444324224936L202.64111111111112,134.43243447274733L202.81444444444443,118.14729621194877L203.32,125.71365735915072L203.45,128.70534995419612L204.14333333333335,136.83564705752264L204.21555555555554,130.93473424560202L204.4322222222222,123.25143743230873L204.5911111111111,128.16273019715533L204.64888888888888,120.71973911709831L204.88,112.69927063228266L205.06777777777776,118.64410644601882L205.35666666666668,117.67447842992468L205.48666666666668,135.75278260335674L205.60222222222222,131.29022874205364L205.89111111111112,134.33607590886157L206.12222222222223,121.45629106530717L206.4111111111111,125.8084473451281L206.45444444444445,133.2530708456221L206.68555555555557,101.70776426734544L206.91666666666666,111.83963801459454L207.07555555555555,108.29038722787807L207.94222222222223,111.60963093737854L208.07222222222222,118.71189150695673L208.08666666666667,122.61507501019915L208.52,128.86280086938254L208.79444444444442,130.91943759136393L208.83777777777777,135.9399015643821L209.15555555555554,131.96482665998263L209.79111111111112,147.85133816811341L210.09444444444443,144.13243741171527L210.18111111111114,132.83675824628455L210.21,128.61378977818688L210.51333333333332,122.40395256904648L210.8311111111111,119.80103026966064L211.25,113.67903895048799L211.91444444444443,136.18154398903962L212.14555555555557,137.23902801549175L212.31888888888886,142.59201119605606L213.17111111111112,135.1505932521044L213.40222222222224,135.03932937954866L213.85,137.6032647392727L213.96555555555557,144.70685262918704L214.26888888888888,140.91285459661623L214.63,142.53231888827628L214.70222222222225,142.63105777576348L214.89000000000001,146.12471482559909L215.07777777777778,150.51248642218266L215.16444444444446,143.5473423120416L215.7711111111111,116.8499840879508L215.78555555555556,115.10118254786676L215.85777777777778,125.91512924797595L216.07444444444445,122.31386462852332L216.91222222222223,135.85768759437005L217.15777777777777,142.87718510922963L217.54777777777778,124.02806819212589L217.5622222222222,115.98439622545153L217.67777777777778,121.00812157122486L217.85111111111112,131.14111029444587L217.89444444444445,131.99601735857811L218.02444444444447,131.18722245529977L218.2411111111111,122.57850522933734L218.29888888888888,97.34137087638484L218.32777777777778,92.76202651559345L218.54444444444442,98.17276585518736L218.80444444444444,107.1622575583148L219.06444444444443,111.56812287664023L219.2811111111111,118.17454985877318L219.42555555555558,109.7748773929274L219.4688888888889,118.88184007167057L219.64222222222222,124.02630881807899L219.65666666666667,118.64820952435737L219.71444444444444,111.45304756983667L220.11888888888888,123.71463888109606L220.49444444444444,127.36370865925986L220.97111111111113,115.71317396783961L221.1877777777778,129.9868181086108L221.70777777777778,138.97579364581668L221.78,134.204038431025L222.47333333333333,129.0363621751663L222.53111111111113,120.56057672740202L222.82,131.6873619178329L223.51333333333335,139.81491158674368L223.5277777777778,150.210189735666L223.90333333333334,143.10413095332459L223.94666666666666,147.60882172800234L224.55333333333334,140.86091119675578L224.78444444444443,150.84482858097263L225.29000000000002,143.29253724341402L225.50666666666666,154.99274882381812L225.6222222222222,153.63503296062282L225.69444444444446,161.890859012193L225.70888888888888,162.69299539680776L226.18555555555554,149.26299581611224L226.43111111111114,140.98141858664516L226.47444444444446,143.38224545347495L226.51777777777778,150.6050412113673L226.70555555555555,137.01914474467904L227.09555555555556,139.6346968184554L227.35555555555555,132.7861706358578L227.45666666666668,147.08413303655394L227.55777777777777,142.4773642622077L227.87555555555556,133.95338151103886L228.17888888888888,126.8680578177737L228.36666666666665,132.36926109319634L228.87222222222223,139.37296723559922L229.20444444444445,137.77366745566428L229.24777777777777,142.40347156581342L229.43555555555557,144.45372950551226L229.49333333333334,126.52299217706694L229.58,136.32432116189145L230.20111111111112,135.20422982919263L230.21555555555557,131.90475808873754L230.48999999999998,120.76674728156728L230.53333333333336,118.92068193293572L230.64888888888888,110.7342262915375L230.66333333333333,122.94172021274763L230.67777777777778,116.11632056732589L230.76444444444445,110.38008980755392L231.05333333333334,120.898069789986L231.0822222222222,128.04093408138667L231.34222222222223,132.43260610202847L232.06444444444443,135.95399466354053L232.26666666666665,127.22534395987219L232.35333333333335,125.28334854866337L232.84444444444443,123.36663063156078L233.43666666666667,131.86464761277213L233.8411111111111,138.04077562622945L234.2311111111111,151.25358799976814L234.30333333333334,149.31227813430715L234.39,155.7603564525958L234.72222222222223,156.57720148127402L235.08333333333334,142.99558912712547L235.2566666666667,129.32916692540132L235.2711111111111,133.0834779718225L235.35777777777778,130.88296348738288L235.48777777777778,124.12495175578916L235.73333333333332,134.82447523269443L235.90666666666667,136.46439331454224L235.9933333333333,143.19328975396357L236.28222222222223,150.11107191504013L236.34,131.01142152905123L236.68666666666667,128.90227894869017L236.71555555555554,131.7666681525915L236.84555555555556,122.34582606339234L237.56777777777776,129.32137194412906L237.91444444444443,129.32027132914317L237.92888888888888,123.19929269408999L238.24666666666667,121.71271301275291L238.7522222222222,127.67015661851961L238.76666666666668,132.3136161303214L239.11333333333332,137.64035875689063L239.14222222222222,141.52995971541404L239.15666666666667,137.6241090133146L239.59,148.3798926218043L239.95111111111112,139.9708181586081L239.99444444444444,145.3572359541782L240.02333333333334,144.07073223396662L240.24,146.3436867885676L240.32666666666668,145.13065458081104L240.61555555555555,156.52284033190526L240.76000000000002,160.03533093571073L240.77444444444444,158.7616188589024L240.89,139.05553526521982L240.9477777777778,125.40185507120367L241.03444444444443,136.13276098863977L241.26555555555555,146.5560028713745L241.88666666666666,146.21823993693602L242.06,158.22211691958194L242.21888888888887,144.54901900836703L242.36333333333334,144.74568727123525L242.37777777777777,140.01093471811424L242.43555555555554,124.55143789417959L242.49333333333334,117.07193328948038L242.5511111111111,117.6848494026046L242.79666666666665,115.26055336717802L242.88333333333335,132.68413352664274L242.94111111111113,128.02755334012673L242.97,130.7576420666752L243.3311111111111,143.91223296892508L243.60555555555555,140.1147090443438L243.70666666666668,141.13734741408118L243.72111111111113,137.87346278529L243.95222222222222,147.45575352710404L243.99555555555554,129.62905194146128L244.45777777777778,128.33452323729028L244.47222222222223,132.6758695655167L244.48666666666668,130.21407050155815L244.83333333333334,138.47969706857288L245.03555555555556,118.95537605288081L245.54111111111112,133.36991109262607" style="fill: none;" fill="none"></path></g></g></g></g><g opacity="0.2"><g><g><g><path stroke="rgb(255, 112, 67)" stroke-width="2px" d="M32.26888888888889,-50.56221505311817L32.572222222222216,19.882972680605377L32.644444444444446,-117.4804363984328L33.36666666666667,-17.34347363618702L33.48222222222222,22.958621868720424L33.90111111111111,-38.513474024259104L34.190000000000005,39.70469353749201L34.97,-22.24599853845741L34.98444444444445,13.894001593956576L35.27333333333333,48.15760761957901L35.53333333333333,59.04067711646741L35.73555555555556,47.033191213241L36.63111111111111,-14.461205299083991L37.02111111111111,64.42028837020581L37.25222222222222,-4.196207770934457L37.35333333333333,16.170154195565456L37.367777777777775,49.07128011263333L37.84444444444444,-8.432162468249993L38.04666666666667,2.9324004558416465L38.162222222222226,57.70902613493112L38.23444444444444,22.48953354358673L38.263333333333335,41.630728455690246L38.43666666666667,-16.840720149186946L38.581111111111106,37.40974965462317L39.202222222222225,-3.337297274516176L39.31777777777778,84.37497641490054L39.43333333333334,2.6725054062329745L39.80888888888889,66.25493767628302L39.93888888888889,67.84783031390262L39.99666666666666,50.11657318702112L40.025555555555556,93.026596564513L40.22777777777778,58.56185649908505L40.25666666666666,14.488630368159365L40.357777777777784,73.76928744866296L40.473333333333336,40.642176481393676L40.56,59.53098469514114L40.964444444444446,2.1078488276554914L42.01888888888889,72.65492978462805L42.495555555555555,67.6375556725722L42.53888888888889,82.50307099635785L42.784444444444446,13.666955581078158L42.91444444444445,50.994866655423095L42.928888888888885,55.741878912999084L43.01555555555556,35.15967225111447L43.03,-36.17696896883155L43.102222222222224,36.097236807529754L43.36222222222222,42.74002614388098L43.40555555555556,66.04292876903827L43.535555555555554,53.54454359641443L44.24333333333333,65.56100687613855L44.28666666666667,66.6603274345398L44.373333333333335,45.88671902509836L44.46,48.0025438437095L44.532222222222224,44.465253472328186L44.67666666666667,52.864017651631286L44.763333333333335,32.67142912974725L44.83555555555556,42.29417698199933L45.586666666666666,28.88681203585404L45.65888888888889,64.35538601875305L45.67333333333333,48.81936268623059L45.93333333333333,-4.132611219699578L46.12111111111111,49.037268097584075L46.30888888888889,74.58763652581436L46.85777777777778,36.412159094443695L47.10333333333333,79.51503284160907L47.39222222222222,66.37041938304901L47.58,49.481974684275116L47.89777777777778,48.04086091885199L47.941111111111105,84.67571852757379L48.14333333333334,47.457331446500916L48.20111111111111,91.13871549643002L48.894444444444446,80.89055054921371L48.995555555555555,43.21025704420529L49.31333333333334,-1.840952240503733L49.486666666666665,92.4056681577976L49.63111111111111,51.11950936684241L50.06444444444445,84.39244149281427L50.22333333333333,27.924029212731572L50.33888888888889,62.62538435825934L50.425555555555555,81.80793641163751L50.88777777777778,19.790811749605037L50.94555555555556,5.6497299029276995L51.306666666666665,31.80827478262094L51.53777777777778,104.5046620919154L51.55222222222222,-78.97826407505914L51.76888888888889,27.279433177067688L51.82666666666667,48.386591929655815L52.07222222222222,49.82229886605189L52.577777777777776,8.711708995012142L52.693333333333335,-40.79609441757202L52.98222222222222,29.801769925997803L53.184444444444445,-5.383139362702018L53.31444444444444,-20.232434199406555L53.40111111111111,5.428457975387573L53.47333333333333,40.12077453503241L53.574444444444445,10.408555571849522L53.70444444444444,65.76344671616187L53.906666666666666,42.947158703437225L53.93555555555555,87.14714947113623L53.97888888888889,65.98751387229333L54.108888888888885,35.871170144814705L54.614444444444445,97.9559923868913L54.96111111111111,92.02980172634125L55.26444444444444,92.27061985089227L55.52444444444444,47.90917912813333L55.654444444444444,57.68172674912674L55.842222222222226,36.24342522254358L55.885555555555555,70.55238740260785L56.00111111111111,60.60021063914667L56.57888888888889,46.489366228763885L56.824444444444445,86.70529932242172L56.96888888888889,55.57375713495108L57.01222222222222,65.04517498383154L57.30111111111111,65.91385857875531L57.53222222222222,32.03446386410639L57.79222222222222,89.57750891722165L57.965555555555554,33.74540900267087L58.21111111111111,65.66090059280396L58.297777777777775,37.01794837988339L58.644444444444446,20.05515468120575L58.83222222222222,9.264960224811855L58.87555555555556,66.93513717101169L58.89,-2.677868164502636L59.00555555555556,23.942236285943242L59.06333333333333,49.24682862942035L59.16444444444445,-6.915210274549625L59.87222222222222,102.18113342615274L59.93,38.363636713761544L60.03111111111111,42.9639300749852L60.16111111111111,9.35808010284717L60.47888888888889,70.63271451913394L60.53666666666667,63.8785853110827L60.65222222222222,98.59534481855539L60.76777777777778,59.96530608947461L60.82555555555556,87.28644162874954L61.114444444444445,12.452398153451778L61.18666666666667,0.8790704195316112L61.20111111111111,-10.100505874707151L61.27333333333333,73.16968031112964L61.446666666666665,60.69545244253598L61.489999999999995,84.29658759557284L61.562222222222225,97.45764597562643L61.836666666666666,68.42113781892337L62.06777777777778,60.95528628275945L62.21222222222222,51.47964498629938L62.385555555555555,64.20932002250964L62.761111111111106,77.65836855998407L62.89111111111111,29.38489320644965L63.39666666666667,12.972718734007625L63.41111111111111,74.5159195294747L63.44,78.91246725045718L64.07555555555555,91.67009457258078L64.19111111111111,42.792768230805024L64.32111111111111,66.53758221406204L64.35,62.04475213014163L64.42222222222223,50.86516396815961L64.78333333333333,62.81856117798731L64.79777777777778,58.82809692162735L64.94222222222221,32.058804796292236L64.97111111111111,124.32344489831189L65.04333333333332,109.5252598982591L65.24555555555557,91.95853359882648L65.33222222222221,106.90808940850769L65.46222222222222,67.571265908388L65.67888888888889,82.88356893796188L65.76555555555557,106.26755359539618L66.44444444444444,61.73819512587326L66.53111111111112,57.32663070238553L66.77666666666667,79.72865359599774L66.86333333333333,54.83075681099524L67.57111111111111,93.71132555374732L67.67222222222222,65.90853336224188L67.74444444444444,49.66364413958328L67.93222222222222,102.95237167981955L68.46666666666665,99.7054586318823L68.66888888888889,88.84579152327316L69.17444444444445,74.94601747622858L70.37333333333333,61.31752342444199L70.50333333333333,32.3738903082334L70.63333333333334,93.4553070985354L70.72,101.58997318377862L71.06666666666666,53.02277439374191L71.74555555555555,111.90450950769278L71.86111111111111,67.28523445129395L72.38111111111111,103.60659799209009L72.61222222222223,102.46122757288126L72.65555555555555,120.36666620694672L72.77111111111111,67.4799211025238L72.81444444444445,71.78912303080926L73.16111111111111,56.52295147455655L73.21888888888888,43.97986304759979L73.65222222222222,74.08229184150696L74.20111111111112,82.23662654253152L74.46111111111112,22.81647327313056L74.54777777777778,125.75947828476245L74.77888888888889,56.55484156425183L75.03888888888889,119.0452167896124L75.05333333333334,85.59679735623874L75.54444444444445,91.86731121173273L75.68888888888888,51.6400543818107L75.73222222222223,75.35422286620508L75.74666666666667,98.79831513991724L75.77555555555556,97.83067637223462L75.78999999999999,126.80601594998285L76.1511111111111,50.839292801343476L76.62777777777778,64.73976055475381L77.20555555555556,119.24120924106012L77.65333333333334,35.57336608263162L78.04333333333334,65.85879053519324L78.11555555555556,119.43528379843787L78.43333333333334,102.81475257873535L78.70777777777778,115.8200330734253L78.92444444444445,112.46133128496317L79.15555555555557,20.60826308910663L79.57444444444445,103.27737311216501L79.61777777777777,96.49912740634039L79.97888888888889,51.84094358407535L80.35444444444444,67.83160982682153L80.6,76.50393915176392L80.88888888888889,93.50272396894601L81.14888888888889,99.83671195690448L81.17777777777778,104.71483471760382L81.20666666666668,81.57248430985672L81.29333333333332,113.99095382140234L81.69777777777779,90.54884065114533L81.9,122.39616538928107L82.7088888888889,84.6194262963075L82.76666666666668,123.24032442386334L82.92555555555555,78.13314935794244L83.37333333333333,18.593576577993534L83.4888888888889,47.832504171591545L83.67666666666668,87.29798979942615L83.7488888888889,71.70147119118616L83.98,4.243056618250335L84.05222222222223,80.90181307609265L84.08111111111111,60.44635064785297L84.22555555555554,70.75694916798517L84.28333333333333,86.52999564317557L84.70222222222222,100.739938048216L84.87555555555555,94.74809012046228L85.62666666666667,94.5128216468371L85.78555555555555,116.33390626540552L86.03111111111112,50.179047566193795L86.43555555555555,81.77333270586453L86.81111111111112,52.40109107127557L86.98444444444445,94.36271583116971L87.14333333333333,110.07842951554517L87.18666666666667,66.72227133237399L88.01,60.20991919590876L88.08222222222223,69.08832011773035L88.09666666666666,94.31995087403516L88.24111111111111,88.5973834349559L89.29555555555555,114.55848724108478L89.45444444444445,115.02496396578275L89.46888888888888,96.74912693867316L89.49777777777777,68.63400365756107L89.57,126.42821122132813L89.58444444444444,113.41801357269287L89.94555555555556,86.8038260294841L90.01777777777778,110.23765552960907L90.06111111111112,119.82908457976123L90.17666666666666,78.99365129837622L90.46555555555555,112.75742148436032L90.50888888888889,126.74615317124585L90.52333333333334,150.53830241239987L90.74,88.47074121695297L91.05777777777777,119.81894422494446L91.24555555555555,108.8202910056481L91.27444444444444,121.56057566862842L91.46222222222222,158.71850828024057L91.99666666666667,138.75261891805206L92.34333333333333,139.57441612390372L92.44444444444444,113.81626223600827L92.5311111111111,88.00314232019278L92.87777777777778,126.27957443090585L92.9211111111111,86.8159250846276L93.77333333333334,122.36786625018487L94.01888888888888,135.00934876386935L94.03333333333335,97.6986477283331L94.32222222222222,70.19288428013141L94.36555555555556,122.88437144572919L94.49555555555555,119.75334816712598L95.01555555555557,79.03180514849149L95.05888888888889,109.59922123872315L95.28999999999999,162.5268746155959L95.73777777777778,65.03066835953638L96.14222222222222,119.75928547749152L96.25777777777778,97.97615067775433L96.31555555555556,113.57022091058585L96.43111111111111,97.43108110244458L96.59,84.1660483800448L96.96555555555557,57.0605739079989L97.03777777777778,128.4259427327376L97.2688888888889,104.542428282591L97.5,97.01028698224286L97.61555555555556,94.22024078552539L97.74555555555557,65.77364828036383L97.87555555555556,72.89727814380939L98.03444444444443,100.97649191893063L98.0488888888889,105.92053718750293L98.22222222222221,108.39219256547781L98.25111111111111,70.5952135691276L98.8,89.76605422680194L98.97333333333333,75.19658829615665L99.24777777777778,109.05537585111765L99.58,115.75635490967676L99.86888888888889,103.82982861995697L100.56222222222222,86.51644796591538L100.69222222222223,93.1155746074823L100.73555555555555,132.6781281186984L100.76444444444444,92.57782975526956L101.50111111111111,96.83845183482538L101.54444444444444,124.5026251719548L101.83333333333333,113.41213747171255L101.86222222222223,130.23273156697934L101.87666666666667,118.43461236586938L101.97777777777779,104.30407893657684L102.23777777777777,85.08441359263199L102.64222222222223,97.34567360694592L102.93111111111111,68.29092505344977L103.04666666666667,107.95623892087201L103.49444444444444,116.63734159102808L103.74000000000001,71.53755245758936L104,122.80141232563898L104.11555555555556,127.5149226463758L104.56333333333333,136.82756335001724L104.95333333333333,82.65572720307571L105.28555555555556,105.0713793864617L105.70444444444445,83.17021248890802L105.86333333333333,100.08405908254477L106.09444444444445,139.2013041147819L106.29666666666667,112.67974677452673L106.6,114.6642978649873L107.17777777777778,144.79170008806082L107.49555555555555,63.81372376588675L107.56777777777778,47.11668081466968L108.10222222222222,93.6911876660127L108.2611111111111,119.736576795578L108.34777777777778,90.34295268242175L108.55,93.88785342069772L108.57888888888888,127.20963063606848L109.0411111111111,124.82366839738992L109.38777777777777,121.86464349123148L109.5611111111111,109.7916431427002L109.59,77.01764911871689L109.67666666666666,76.21148070922266L109.85,81.81077244648566L110.21111111111111,82.73179006576538L110.61555555555556,89.99242693644305L110.64444444444445,108.89723120285913L110.70222222222222,137.41928467842249L110.91888888888889,78.96902472239273L111.5111111111111,132.19411490513727L111.55444444444446,115.17678364423605L112.32,134.37820859138782L112.36333333333333,147.14902653602454L112.50777777777778,142.59493605907147L112.76777777777778,100.65183733976804L112.78222222222222,122.4174866584631L113.02777777777779,117.46044459709753L113.07111111111111,101.78682256661926L113.56222222222222,105.67012959260205L113.5911111111111,130.3649030327797L113.69222222222221,147.01241738979633L114.08222222222221,112.52086761364569L114.21222222222222,105.13605730350201L114.51555555555557,127.5243896979552L114.86222222222221,126.00564202895532L114.93444444444444,116.00533428558936L115.02111111111111,61.648462167152985L115.41111111111111,116.22315808442923L115.7,105.94191966607019L115.77222222222223,158.63792612460944L115.9888888888889,105.87071274794064L116.06111111111112,124.29488051854645L116.68222222222222,136.08787853442703L116.74000000000001,99.25426385035883L117.04333333333334,112.45123173640326L117.07222222222222,160.0907920919932L117.30333333333333,118.88686811006986L117.33222222222223,124.2015362060987L117.41888888888889,114.13518353608939L117.44777777777779,111.00399703245898L117.70777777777778,115.96642551972315L118.04,136.94387138348358L118.17,123.43419494995703L118.44444444444444,99.5383366071261L118.60333333333334,92.33097230471097L118.63222222222223,102.49266879375165L118.7188888888889,132.2418990318592L118.90666666666667,142.07841046039874L119.16666666666666,102.05863304321582L119.73,127.79554727444281L120.06222222222222,141.18004031364734L120.12,87.98847247087039L120.13444444444444,116.16296885563776L120.23555555555555,96.85299926537732L120.48111111111112,110.22023125795218L120.64,107.1245053914877L120.79888888888888,91.09609336119433L120.9,80.98381324914786L120.98666666666666,81.9743443268996L121.33333333333333,62.32382612044995L122.18555555555555,124.68547800871042L122.70555555555555,116.42796468734741L122.72,107.87456519787128L122.77777777777777,90.87559675253354L123.06666666666666,143.4571722654196L123.08111111111111,136.03965574044446L123.09555555555555,65.96651905316574L123.21111111111112,71.60696390041937L123.84666666666666,92.39656836252948L123.94777777777777,93.58790703003223L123.99111111111111,151.64240750441184L124.26555555555555,148.8173903456101L125.04555555555555,133.81631663670908L125.17555555555556,123.01313558908609L125.20444444444445,129.68775380574738L125.26222222222223,134.72452109135114L125.34888888888888,61.489929859454804L125.39222222222223,133.51231002349118L125.49333333333334,67.48808235388535L125.60888888888888,125.77543353117429L125.65222222222222,145.0443928333429L125.82555555555555,136.78029950306967L126.21555555555555,86.39147880444159L126.27333333333334,92.32764659478113L126.43222222222222,125.16411499793713L126.5911111111111,103.2374033836218L127.57333333333332,140.00170864050205L127.77555555555556,116.64746154271637L127.8911111111111,163.1453954531596L128.09333333333333,103.92321373866156L128.10777777777778,122.14790012286261L128.48333333333332,110.94560327896704L128.68555555555557,97.71217500246487L129.04666666666668,113.50470646528098L129.46555555555557,142.0067546734443L129.5088888888889,130.1611879972311L129.88444444444443,130.17038980814127L130.14444444444445,123.5422091117272L130.20222222222222,114.15658641778504L130.56333333333333,155.42453541663977L130.9388888888889,85.55562384311969L131.31444444444446,73.469973554978L131.53111111111113,94.80866700869342L131.64666666666665,55.98732854769781L131.6611111111111,107.54805393402393L131.9788888888889,126.06813681125641L132.03666666666666,124.63214423106268L132.23888888888888,120.96439625666693L132.81666666666666,97.47105083098779L132.94666666666666,80.14952932871304L133.12,114.50658168242529L133.39444444444445,166.0920458619411L133.4377777777778,126.75974165476285L133.56777777777776,92.65836090307971L134.33333333333334,90.8622531065574L134.4922222222222,80.92511344872989L134.7522222222222,124.59633674071387L134.89666666666668,109.04731661539813L134.9111111111111,74.83698315803821L135.1711111111111,127.3610014456969L135.18555555555554,69.15822123564206L135.51777777777778,118.57894409619843L135.57555555555555,117.42057688419635L135.79222222222222,123.6183331838021L136.22555555555556,142.21696810538953L136.35555555555555,93.89568822200482L136.3988888888889,112.72096109390259L136.5,126.87979366229132L136.64444444444445,114.6464655307623L136.68777777777777,58.429011730047364L136.76000000000002,125.0882561665315L136.90444444444444,120.0060613155365L137.2511111111111,93.4222948367779L137.38111111111112,111.49252953896155L137.65555555555557,138.08691584605435L137.9011111111111,82.84759822258582L138.79666666666668,123.22671553721796L139.30222222222224,147.2954597885792L139.54777777777778,132.49927429510996L139.6922222222222,85.7905046573052L139.76444444444445,115.96954719836896L139.92333333333335,80.55306240228506L140.01,109.75165301102857L140.11111111111111,90.02335807910333L140.3711111111111,124.06771208689764L140.44333333333333,106.7036296587724L140.51555555555555,104.57301257206842L140.77555555555554,128.53277351306036L140.93444444444444,140.01906150120953L140.9777777777778,139.04283301646893L141.26666666666668,118.03620047752673L141.38222222222223,100.02648145418902L141.52666666666667,121.45843760783856L141.70000000000002,140.98815909257303L142.0322222222222,134.26390006450507L142.10444444444445,98.73892163313351L142.98555555555555,125.84380441445569L143,129.01143090541547L143.46222222222224,145.4299303476627L144.08333333333334,129.17898139586816L144.19888888888892,150.8068381868876L144.31444444444443,146.97516127733084L144.32888888888888,158.89659698651386L144.82000000000002,118.06513211360345L144.9788888888889,108.05554094681372L145.1522222222222,81.51162177782791L145.39777777777778,81.35900637736688L146.26444444444445,151.59571494505954L146.61111111111111,115.6498709825369L147.04444444444445,100.85201243253854L147.10222222222222,134.95793288029157L147.30444444444444,88.76258756564212L147.55,103.74944029404566L147.63666666666666,107.34840932259192L148.24333333333334,113.78716737490436L148.47444444444443,134.53378244546744L148.63333333333333,126.51839304887329L148.76333333333335,130.91991913318634L148.87888888888887,92.61941133095667L149.1677777777778,112.74350655078888L149.19666666666666,144.520481302188L149.23999999999998,148.9040526335056L149.26888888888888,144.49387562274933L149.35555555555555,137.4477878488027L149.64444444444445,153.4998062986594L149.6877777777778,92.30912055419043L149.76,83.7359300301625L149.89000000000001,116.02206485088055L150.9011111111111,87.79425509159381L151.19,152.18361068688904L151.20444444444445,146.76971197586792L151.23333333333332,148.15036107026611L151.43555555555554,156.73432444609128L151.49333333333334,153.8838339814773L151.62333333333333,128.93669424607202L151.63777777777779,150.3188973711087L151.71,113.71083927154541L151.7822222222222,156.3109901364033L151.99888888888887,130.85173187806055L152.4466666666667,154.04547776625705L152.62,111.31979665389429L152.7211111111111,140.95627920444196L152.79333333333332,120.66416422220377L152.99555555555554,118.97707034074341L153.12555555555556,136.10697586261307L153.5011111111111,99.41026617013489L153.60222222222222,127.03593880396622L153.61666666666667,126.03016658929678L153.74666666666667,103.56434311316565L154.29555555555555,74.226419540552L154.41111111111113,102.61880093354443L154.42555555555558,136.16870552759903L154.48333333333332,143.68446311583887L154.94555555555556,167.80221568162625L155.62444444444444,114.6569527387619L155.6822222222222,41.44457031213321L155.9422222222222,104.37863196776465L156.01444444444445,105.95391670557169L156.27444444444444,117.83067976511441L156.31777777777776,110.86739808779498L156.6211111111111,103.11755540737738L156.78,89.5724489413775L157.12666666666667,129.360936494974L157.2277777777778,116.25445648340079L157.47333333333333,86.81374194988837L157.5022222222222,96.62185222368976L157.54555555555555,101.50148481589099L157.8488888888889,81.21746987562912L157.87777777777777,113.20735127192279L157.95000000000002,106.51235032998596L158.1088888888889,127.62301842065958L158.2822222222222,136.1869459243921L158.5277777777778,80.52296778788934L158.7877777777778,112.22469580173492L158.87444444444444,102.07191547980676L159.01888888888888,144.43348236267383L159.2788888888889,129.25453418034772L159.29333333333335,149.09566861391068L159.68333333333334,126.16723480591406L159.79888888888888,127.44908175101648L159.94333333333333,136.9528181552887L160.10222222222222,110.00616163473865L160.40555555555554,90.92444184193243L160.66555555555556,115.01647626436673L161.12777777777777,123.22418554929587L161.2288888888889,79.64481714138617L161.98,80.39834547959842L162.00888888888886,107.55140004708215L162.15333333333334,122.58165022960077L162.25444444444446,125.00150206455817L162.64444444444445,138.18962519443951L162.94777777777776,101.22006446581622L163.09222222222223,104.51068101479456L163.32333333333332,130.8209945651201L163.35222222222222,62.68106449567355L163.45333333333335,97.6013656121034L163.91555555555556,90.50370893111597L163.98777777777778,136.1244103358342L164.14666666666665,111.45372278873737L164.2188888888889,122.43572705525617L164.84,162.93223376916004L164.88333333333333,130.7364337994502L165.17222222222225,147.1309901705155L165.2588888888889,96.57839356018945L165.27333333333334,112.68672464444086L165.64888888888888,104.97022067583524L165.75,135.0726188650498L166.66,126.17133583472327L166.79,150.10067571126496L166.8911111111111,120.64971880729382L166.93444444444447,165.41645747423172L167.03555555555556,126.11053451207968L167.07888888888888,117.07188741977399L167.39666666666668,109.31325099101434L167.55555555555557,164.0798995403143L167.71444444444447,178.9125862304981L167.88777777777779,122.281336582624L167.90222222222224,139.09321854206232L167.94555555555556,83.90113416084876L168.29222222222222,139.3632335433593L168.3788888888889,138.52278787814652L168.7111111111111,125.51400824693533L168.85555555555555,115.66256172840411L168.9711111111111,145.78326152379697L169.85222222222222,95.53414104535028L169.98222222222222,68.00542407769424L170.11222222222221,119.4281835097533L170.61777777777777,40.97552279325632L171.02222222222224,87.925508416616L171.06555555555556,69.03833245314084L171.64333333333335,85.29954417852255L171.98999999999998,108.6558417907128L172.13444444444443,117.50845315823187L172.92888888888888,147.19477034990604L173.11666666666667,114.85478147176596L173.53555555555553,152.57845202776102L174.05555555555554,127.53159200228177L174.12777777777777,130.7168365946183L174.14222222222222,138.3898206903384L174.17111111111112,127.76371839413275L174.37333333333333,83.2946511690433L174.54666666666668,96.1908157330293L174.8788888888889,107.32500693431268L174.96555555555557,126.34953675820276L175.18222222222224,124.74911536620215L175.26888888888888,110.39575937161078L175.41333333333333,135.001248721893L175.76000000000002,102.92801034450531L176.00555555555556,124.88440851064829L176.32333333333335,134.9550866438792L176.7711111111111,100.69186827769647L176.8722222222222,95.68349194526672L177.0311111111111,121.90440918849066L177.26222222222222,123.93294942378998L177.32000000000002,161.1940504541764L177.42111111111112,144.03430535701605L177.49333333333334,123.75036182770361L178.10000000000002,149.43449316574976L178.62,142.74001250358728L179.02444444444444,114.70655274391174L179.05333333333334,134.6690653883494L179.0677777777778,97.47443775030283L179.09666666666666,132.72662635491446L179.18333333333334,138.2551804460012L179.31333333333333,127.96311816802393L179.39999999999998,123.41001724279843L179.47222222222223,125.9982356933447L179.89111111111112,118.60628428825964L180.09333333333333,116.52979670121118L180.25222222222223,104.50906916765067L180.39666666666665,125.878979407824L180.45444444444445,126.88952595453995L180.4688888888889,159.58524337640176L180.87333333333333,130.64302827761725L181.00333333333336,139.76759294363168L181.11888888888888,87.7531631909884L181.33555555555554,93.47622030514935L181.35,137.8149013381738L181.52333333333334,114.23713796872357L181.9711111111111,113.46606294008402L182.1011111111111,131.15523861463254L182.2888888888889,107.26612350573907L182.34666666666666,70.22244841318863L182.4188888888889,140.35017367051196L182.54888888888888,154.59314874043832L182.66444444444446,102.73632295315082L182.76555555555558,104.99172557317291L182.78,109.51038601765265L183.02555555555557,138.99598743365362L183.45888888888888,116.65821399138525L183.60333333333335,89.00118174919714L184.13777777777779,107.95676940221051L184.26777777777778,133.05268874993692L184.2822222222222,148.83173374487802L184.3688888888889,130.02491550262158L184.6,155.78862924300708L184.7011111111111,124.89379394971405L185.10555555555555,138.00170218027554L185.12,142.8745813369751L185.25,140.3350039445437L185.32222222222222,144.15403091449002L185.4811111111111,161.2851300193713L185.61111111111111,140.6754607466551L185.81333333333333,128.65853839654187L185.97222222222223,164.06862681187116L186.36222222222221,143.4867057937842L186.40555555555557,148.9488681050447L186.53555555555556,140.37353525253442L186.89666666666668,140.0619794818071L186.95444444444445,139.56975400906342L187.08444444444444,147.2718023611949L187.2866666666667,121.16577513401324L187.37333333333333,105.40101232895483L187.4022222222222,134.85216306264584L187.89333333333335,107.19424328437219L187.98,94.6578878897887L188.0666666666667,159.89156574469345L188.09555555555556,153.23337204639728L188.11,103.72887394061456L188.25444444444446,100.99901697268854L188.32666666666668,113.09839856624603L188.5288888888889,110.48412532072803L188.6588888888889,124.78084223087018L188.89000000000001,135.8479581475258L189.25111111111113,74.39772420663101L189.52555555555554,89.82689635570233L189.65555555555557,136.42915146167462L189.91555555555556,122.06840953460107L190.30555555555554,128.46328045771673L190.63777777777779,151.25220787525177L190.66666666666666,143.66459046877347L190.6811111111111,136.14706800992673L191.4177777777778,142.3024572134018L191.53333333333333,179.04202367709235L191.57666666666668,132.06205565654312L191.70666666666665,150.16613914874884L192.25555555555556,136.06044652828803L192.70333333333332,126.10982040258554L192.99222222222224,151.14753982653986L193.19444444444446,121.27076963277963L193.26666666666665,120.26858836870929L193.71444444444444,139.56670374136704L193.83,108.7530831006857L193.85888888888888,142.74935713639627L194.35000000000002,123.42629893926474L194.39333333333335,148.0178529528471L194.59555555555556,144.79961650188153L194.63888888888889,112.0753244986901L194.79777777777778,107.23702864463513L194.88444444444443,128.61579384253577L195.28888888888886,134.30478793382645L195.33222222222224,131.6908105336703L195.34666666666666,129.85140729867493L195.43333333333334,142.6392720570931L195.4622222222222,135.39814057716956L195.70777777777778,89.56379801493426L195.82333333333332,107.38537979125977L195.95333333333335,138.7694821036779L196.17,103.27572045876428L196.4011111111111,88.6777513577388L196.96444444444444,160.17994356155396L197.13777777777779,142.4060438963083L197.16666666666666,157.47117322683334L197.3111111111111,148.7522533581807L197.47,159.64030121839963L197.5711111111111,177.68317532539368L197.67222222222225,151.77524207188532L197.70111111111112,149.44495997062097L197.94666666666666,108.20005630529843L198.2211111111111,151.35394807503772L198.7411111111111,64.05297084955069L198.88555555555556,133.04208932473108L199.1311111111111,96.7266834974289L199.2177777777778,126.75466127579028L199.34777777777776,162.5238141463353L199.7811111111111,70.62163562041061L200.11333333333334,161.2776114665545L200.12777777777777,121.99540714117197L200.38777777777779,156.48828312066885L200.79222222222222,129.55211380811838L200.86444444444444,176.46099732930844L201.0522222222222,160.59111760671323L201.25444444444446,98.40633023702179L201.37,146.7359141936669L201.44222222222223,123.39681641872113L201.4711111111111,135.60079465004114L201.48555555555555,122.40999871033887L201.77444444444447,137.84647517937879L201.84666666666666,171.06883815160165L202.04888888888888,155.6276383583362L202.19333333333333,158.6041691486652L202.26555555555555,147.997337607237L202.36666666666667,142.1239604445604L202.64111111111112,114.32942131849435L202.81444444444443,93.71958882075091L203.32,137.0631990799537L203.45,133.1928888467642L204.14333333333335,149.03109271251236L204.21555555555554,122.08336502772113L204.4322222222222,111.7264922123689L204.5911111111111,135.5296693444252L204.64888888888888,109.55525249701282L204.88,100.6685679050592L205.06777777777776,127.56136016662305L205.35666666666668,116.22003640578345L205.48666666666668,162.87023886350485L205.60222222222222,124.59639795009906L205.89111111111112,138.90484665907346L206.12222222222223,102.13661379997546L206.4111111111111,132.3366817648594L206.45444444444445,144.42000609636307L206.68555555555557,54.38980439993051L206.91666666666666,127.03744863546811L207.07555555555555,102.96651104780344L207.94222222222223,116.58849650162915L208.07222222222222,129.365282361324L208.08666666666667,128.46985026506277L208.52,138.23438965815762L208.79444444444442,134.00439267433606L208.83777777777777,143.47059752390933L209.15555555555554,126.00221430338345L209.79111111111112,171.68110543030957L210.09444444444443,138.55408627711807L210.18111111111114,115.89323949813843L210.21,122.2793370760404L210.51333333333332,113.08919675533588L210.8311111111111,115.89664682058188L211.25,104.496051971729L211.91444444444443,169.93530154686707L212.14555555555557,138.82525405516992L212.31888888888886,150.6214859669025L213.17111111111112,123.98846633617694L213.40222222222224,134.8724335707151L213.85,141.44916777885877L213.96555555555557,155.3622344640585L214.26888888888888,135.22185754776L214.63,144.96151532576633L214.70222222222225,142.77916610699432L214.89000000000001,151.36520040035248L215.07777777777778,157.09414381705798L215.16444444444446,133.09962614683005L215.7711111111111,76.8039467518146L215.78555555555556,112.47798023774072L215.85777777777778,142.1360492981397L216.07444444444445,116.91196769934436L216.91222222222223,156.1734220431401L217.15777777777777,153.406431381519L217.54777777777778,95.75439281647022L217.5622222222222,103.91888827543994L217.67777777777778,128.54370958988483L217.85111111111112,146.34059337927744L217.89444444444445,133.27837795477646L218.02444444444447,129.9740301003823L218.2411111111111,109.66542939039377L218.29888888888888,59.485669346956115L218.32777777777778,85.89300997440631L218.54444444444442,106.28887486457825L218.80444444444444,120.64649511300598L219.06444444444443,118.17692085412833L219.2811111111111,128.08419033197256L219.42555555555558,97.17536869415869L219.4688888888889,132.54228408978537L219.64222222222222,131.74301193769162L219.65666666666667,110.58106058377484L219.71444444444444,100.66030463805566L220.11888888888888,142.1070258479852L220.49444444444444,132.83731332650552L220.97111111111113,98.23737193070923L221.1877777777778,151.39728431976758L221.70777777777778,152.45925695162552L221.78,127.0464056088374L222.47333333333333,121.2848477913783L222.53111111111113,107.84689855575562L222.82,148.37753970347916L223.51333333333335,152.0062360901099L223.5277777777778,165.8031069590495L223.90333333333334,132.44504277981244L223.94666666666666,154.36585789001904L224.55333333333334,130.73904539988592L224.78444444444443,165.82070465729785L225.29000000000002,131.96410023707608L225.50666666666666,172.54306619442426L225.6222222222222,151.59845916582987L225.69444444444446,174.27459808954825L225.70888888888888,163.89619997372995L226.18555555555554,129.11799644506894L226.43111111111114,128.55905274244455L226.47444444444446,146.9834857537196L226.51777777777778,161.43923484820584L226.70555555555555,116.64030004464661L227.09555555555556,143.55802492912L227.35555555555555,122.51338136196136L227.45666666666668,168.53107663759818L227.55777777777777,135.56721110068833L227.87555555555556,121.16740738428555L228.17888888888888,116.24007227787604L228.36666666666665,140.62106600633035L228.87222222222223,149.8785264492035L229.20444444444445,135.3747177857619L229.24777777777777,149.34817773103714L229.43555555555557,147.52911641506049L229.49333333333334,99.62688618439893L229.58,151.02631463912817L230.20111111111112,133.52409283014444L230.21555555555557,126.95555047805493L230.48999999999998,104.05973107081195L230.53333333333336,116.1515839099884L230.64888888888888,98.45454282944019L230.66333333333333,141.2529610945628L230.67777777777778,105.8782210991933L230.76444444444445,101.775743667896L231.05333333333334,136.675039763634L231.0822222222222,138.7552305184878L231.34222222222223,139.02011413299118L232.06444444444443,141.2360775058086L232.26666666666665,114.13236790436963L232.35333333333335,122.37035543185016L232.84444444444443,120.49155375590692L233.43666666666667,144.61167308458914L233.8411111111111,147.3049676464154L234.2311111111111,171.0728065600762L234.30333333333334,146.4003133361156L234.39,165.43247393002878L234.72222222222223,157.8024690242914L235.08333333333334,122.62317059590265L235.2566666666667,108.82953362281506L235.2711111111111,138.71494454145432L235.35777777777778,127.58219176072339L235.48777777777778,113.98793415839856L235.73333333333332,150.87376044805234L235.90666666666667,138.92427043731396L235.9933333333333,153.2866344130956L236.28222222222223,160.48774515665494L236.34,102.36194595006796L236.68666666666667,125.73856507814847L236.71555555555554,136.06325195844357L236.84555555555556,108.2145629295936L237.56777777777776,139.78469076523413L237.91444444444443,129.31862040666434L237.92888888888888,114.01782474151025L238.24666666666667,119.48284349074731L238.7522222222222,136.60632202716974L238.76666666666668,139.27880539802405L239.11333333333332,145.63047269674448L239.14222222222222,147.36436115319913L239.15666666666667,131.76533296016547L239.59,164.51356803453885L239.95111111111112,127.35720646381378L239.99444444444444,153.43686264753342L240.02333333333334,142.14097665364926L240.24,149.75311862046902L240.32666666666668,143.31110626917618L240.61555555555555,173.61111895854657L240.76000000000002,165.30406684141892L240.77444444444444,156.8510507436899L240.89,109.49640987469598L240.9477777777778,104.92133478017954L241.03444444444443,152.22911986479392L241.26555555555555,162.19086569547653L241.88666666666666,145.71159553527832L242.06,176.22793239355087L242.21888888888887,124.03937214154462L242.36333333333334,145.0406896655376L242.37777777777777,132.9088058884327L242.43555555555554,101.36219265827765L242.49333333333334,105.85267638243161L242.5511111111111,118.60422357229086L242.79666666666665,111.62410931403821L242.88333333333335,158.81950376583978L242.94111111111113,121.0426830603526L242.97,134.85277515649796L243.3311111111111,163.64411932229996L243.60555555555555,134.41842315747186L243.70666666666668,142.6713049686872L243.72111111111113,132.9776358421032L243.95222222222222,161.82918963982507L243.99555555555554,102.88899956299707L244.45777777777778,126.39273018103378L244.47222222222223,139.18788905785632L244.48666666666668,126.52137190562027L244.83333333333334,150.87813691909497L245.03555555555556,89.66889452934265L245.54111111111112,154.99171365224396" style="fill: none;" fill="none"></path></g></g></g></g></g></g><g transform="translate(70, 178)" clip-path="url(#clip_1)"><clipPath id="clip_1"><rect width="260" height="21"></rect></clipPath><g><g><line x1="0" y1="0" x2="0" y2="5" style="visibility: inherit;" fill="rgb(0, 0, 0)" stroke="rgb(204, 204, 204)" stroke-width="1px"></line><line x1="28.888888888888886" y1="0" x2="28.888888888888886" y2="5" style="visibility: inherit;" fill="rgb(0, 0, 0)" stroke="rgb(204, 204, 204)" stroke-width="1px"></line><line x1="57.77777777777777" y1="0" x2="57.77777777777777" y2="5" style="visibility: inherit;" fill="rgb(0, 0, 0)" stroke="rgb(204, 204, 204)" stroke-width="1px"></line><line x1="86.66666666666666" y1="0" x2="86.66666666666666" y2="5" style="visibility: inherit;" fill="rgb(0, 0, 0)" stroke="rgb(204, 204, 204)" stroke-width="1px"></line><line x1="115.55555555555554" y1="0" x2="115.55555555555554" y2="5" style="visibility: inherit;" fill="rgb(0, 0, 0)" stroke="rgb(204, 204, 204)" stroke-width="1px"></line><line x1="144.44444444444446" y1="0" x2="144.44444444444446" y2="5" style="visibility: inherit;" fill="rgb(0, 0, 0)" stroke="rgb(204, 204, 204)" stroke-width="1px"></line><line x1="173.33333333333331" y1="0" x2="173.33333333333331" y2="5" style="visibility: inherit;" fill="rgb(0, 0, 0)" stroke="rgb(204, 204, 204)" stroke-width="1px"></line><line x1="202.22222222222223" y1="0" x2="202.22222222222223" y2="5" style="visibility: inherit;" fill="rgb(0, 0, 0)" stroke="rgb(204, 204, 204)" stroke-width="1px"></line><line x1="231.1111111111111" y1="0" x2="231.1111111111111" y2="5" style="visibility: inherit;" fill="rgb(0, 0, 0)" stroke="rgb(204, 204, 204)" stroke-width="1px"></line><line x1="260" y1="0" x2="260" y2="5" style="visibility: inherit;" fill="rgb(0, 0, 0)" stroke="rgb(204, 204, 204)" stroke-width="1px"></line></g><g transform="translate(0, 8)"><text x="0" y="0" dx="0em" dy="0.95em" style="text-anchor: middle; visibility: hidden; font-family: Roboto, sans-serif; font-size: 12px; font-weight: 200;" fill="rgb(50, 49, 63)" stroke="none" stroke-width="1px">-2k</text><text x="28.888888888888886" y="0" dx="0em" dy="0.95em" style="text-anchor: middle; visibility: inherit; font-family: Roboto, sans-serif; font-size: 12px; font-weight: 200;" fill="rgb(50, 49, 63)" stroke="none" stroke-width="1px">0</text><text x="57.77777777777777" y="0" dx="0em" dy="0.95em" style="text-anchor: middle; visibility: inherit; font-family: Roboto, sans-serif; font-size: 12px; font-weight: 200;" fill="rgb(50, 49, 63)" stroke="none" stroke-width="1px">2k</text><text x="86.66666666666666" y="0" dx="0em" dy="0.95em" style="text-anchor: middle; visibility: inherit; font-family: Roboto, sans-serif; font-size: 12px; font-weight: 200;" fill="rgb(50, 49, 63)" stroke="none" stroke-width="1px">4k</text><text x="115.55555555555554" y="0" dx="0em" dy="0.95em" style="text-anchor: middle; visibility: inherit; font-family: Roboto, sans-serif; font-size: 12px; font-weight: 200;" fill="rgb(50, 49, 63)" stroke="none" stroke-width="1px">6k</text><text x="144.44444444444446" y="0" dx="0em" dy="0.95em" style="text-anchor: middle; visibility: inherit; font-family: Roboto, sans-serif; font-size: 12px; font-weight: 200;" fill="rgb(50, 49, 63)" stroke="none" stroke-width="1px">8k</text><text x="173.33333333333331" y="0" dx="0em" dy="0.95em" style="text-anchor: middle; visibility: inherit; font-family: Roboto, sans-serif; font-size: 12px; font-weight: 200;" fill="rgb(50, 49, 63)" stroke="none" stroke-width="1px">10k</text><text x="202.22222222222223" y="0" dx="0em" dy="0.95em" style="text-anchor: middle; visibility: inherit; font-family: Roboto, sans-serif; font-size: 12px; font-weight: 200;" fill="rgb(50, 49, 63)" stroke="none" stroke-width="1px">12k</text><text x="231.1111111111111" y="0" dx="0em" dy="0.95em" style="text-anchor: middle; visibility: inherit; font-family: Roboto, sans-serif; font-size: 12px; font-weight: 200;" fill="rgb(50, 49, 63)" stroke="none" stroke-width="1px">14k</text><text x="260" y="0" dx="0em" dy="0.95em" style="text-anchor: middle; visibility: hidden; font-family: Roboto, sans-serif; font-size: 12px; font-weight: 200;" fill="rgb(50, 49, 63)" stroke="none" stroke-width="1px">16k</text></g><line x1="0" y1="0" x2="260" y2="0" fill="rgb(0, 0, 0)" stroke="rgb(204, 204, 204)" stroke-width="1px"></line></g></g></g></g></svg>