<svg viewBox="0 0 330.0000305175781 200.00001525878906" xmlns="http://www.w3.org/2000/svg"><g><g><g><g><g><line x1="70" y1="178" x2="65" y2="178" style="visibility: inherit;" fill="rgb(0, 0, 0)" stroke="rgb(204, 204, 204)" stroke-width="1px"></line><line x1="70" y1="155.75000000000003" x2="65" y2="155.75000000000003" style="visibility: inherit;" fill="rgb(0, 0, 0)" stroke="rgb(204, 204, 204)" stroke-width="1px"></line><line x1="70" y1="133.50000000000003" x2="65" y2="133.50000000000003" style="visibility: inherit;" fill="rgb(0, 0, 0)" stroke="rgb(204, 204, 204)" stroke-width="1px"></line><line x1="70" y1="111.25" x2="65" y2="111.25" style="visibility: inherit;" fill="rgb(0, 0, 0)" stroke="rgb(204, 204, 204)" stroke-width="1px"></line><line x1="70" y1="89.00000000000004" x2="65" y2="89.00000000000004" style="visibility: inherit;" fill="rgb(0, 0, 0)" stroke="rgb(204, 204, 204)" stroke-width="1px"></line><line x1="70" y1="66.75" x2="65" y2="66.75" style="visibility: inherit;" fill="rgb(0, 0, 0)" stroke="rgb(204, 204, 204)" stroke-width="1px"></line><line x1="70" y1="44.49999999999998" x2="65" y2="44.49999999999998" style="visibility: inherit;" fill="rgb(0, 0, 0)" stroke="rgb(204, 204, 204)" stroke-width="1px"></line><line x1="70" y1="22.25000000000002" x2="65" y2="22.25000000000002" style="visibility: inherit;" fill="rgb(0, 0, 0)" stroke="rgb(204, 204, 204)" stroke-width="1px"></line><line x1="70" y1="0" x2="65" y2="0" style="visibility: inherit;" fill="rgb(0, 0, 0)" stroke="rgb(204, 204, 204)" stroke-width="1px"></line></g><g transform="translate(60, 0)"><text x="0" y="178" dx="0em" dy="0.3em" style="text-anchor: end; visibility: hidden; font-family: Roboto, sans-serif; font-size: 12px; font-weight: 200;" fill="rgb(50, 49, 63)" stroke="none" stroke-width="1px">0.085</text><text x="0" y="155.75000000000003" dx="0em" dy="0.3em" style="text-anchor: end; visibility: inherit; font-family: Roboto, sans-serif; font-size: 12px; font-weight: 200;" fill="rgb(50, 49, 63)" stroke="none" stroke-width="1px">0.09</text><text x="0" y="133.50000000000003" dx="0em" dy="0.3em" style="text-anchor: end; visibility: hidden; font-family: Roboto, sans-serif; font-size: 12px; font-weight: 200;" fill="rgb(50, 49, 63)" stroke="none" stroke-width="1px">0.095</text><text x="0" y="111.25" dx="0em" dy="0.3em" style="text-anchor: end; visibility: inherit; font-family: Roboto, sans-serif; font-size: 12px; font-weight: 200;" fill="rgb(50, 49, 63)" stroke="none" stroke-width="1px">0.1</text><text x="0" y="89.00000000000004" dx="0em" dy="0.3em" style="text-anchor: end; visibility: hidden; font-family: Roboto, sans-serif; font-size: 12px; font-weight: 200;" fill="rgb(50, 49, 63)" stroke="none" stroke-width="1px">0.105</text><text x="0" y="66.75" dx="0em" dy="0.3em" style="text-anchor: end; visibility: inherit; font-family: Roboto, sans-serif; font-size: 12px; font-weight: 200;" fill="rgb(50, 49, 63)" stroke="none" stroke-width="1px">0.11</text><text x="0" y="44.49999999999998" dx="0em" dy="0.3em" style="text-anchor: end; visibility: hidden; font-family: Roboto, sans-serif; font-size: 12px; font-weight: 200;" fill="rgb(50, 49, 63)" stroke="none" stroke-width="1px">0.115</text><text x="0" y="22.25000000000002" dx="0em" dy="0.3em" style="text-anchor: end; visibility: inherit; font-family: Roboto, sans-serif; font-size: 12px; font-weight: 200;" fill="rgb(50, 49, 63)" stroke="none" stroke-width="1px">0.12</text><text x="0" y="0" dx="0em" dy="0.3em" style="text-anchor: end; visibility: hidden; font-family: Roboto, sans-serif; font-size: 12px; font-weight: 200;" fill="rgb(50, 49, 63)" stroke="none" stroke-width="1px">0.125</text></g><line x1="70" y1="0" x2="70" y2="178" fill="rgb(0, 0, 0)" stroke="rgb(204, 204, 204)" stroke-width="1px"></line></g></g><g transform="translate(70, 0)" clip-path="url(#clip_0)"><clipPath id="clip_0"><rect width="260" height="177"></rect></clipPath><g><g><g><line x1="0" y1="0" x2="0" y2="178" fill="rgb(0, 0, 0)" stroke="rgb(60, 60, 60)" stroke-width="1px" opacity="0.25"></line><line x1="28.888888888888886" y1="0" x2="28.888888888888886" y2="178" fill="rgb(0, 0, 0)" stroke="rgb(60, 60, 60)" stroke-width="1px" opacity="0.25"></line><line x1="57.77777777777777" y1="0" x2="57.77777777777777" y2="178" fill="rgb(0, 0, 0)" stroke="rgb(60, 60, 60)" stroke-width="1px" opacity="0.25"></line><line x1="86.66666666666666" y1="0" x2="86.66666666666666" y2="178" fill="rgb(0, 0, 0)" stroke="rgb(60, 60, 60)" stroke-width="1px" opacity="0.25"></line><line x1="115.55555555555554" y1="0" x2="115.55555555555554" y2="178" fill="rgb(0, 0, 0)" stroke="rgb(60, 60, 60)" stroke-width="1px" opacity="0.25"></line><line x1="144.44444444444446" y1="0" x2="144.44444444444446" y2="178" fill="rgb(0, 0, 0)" stroke="rgb(60, 60, 60)" stroke-width="1px" opacity="0.25"></line><line x1="173.33333333333331" y1="0" x2="173.33333333333331" y2="178" fill="rgb(0, 0, 0)" stroke="rgb(60, 60, 60)" stroke-width="1px" opacity="0.25"></line><line x1="202.22222222222223" y1="0" x2="202.22222222222223" y2="178" fill="rgb(0, 0, 0)" stroke="rgb(60, 60, 60)" stroke-width="1px" opacity="0.25"></line><line x1="231.1111111111111" y1="0" x2="231.1111111111111" y2="178" fill="rgb(0, 0, 0)" stroke="rgb(60, 60, 60)" stroke-width="1px" opacity="0.25"></line><line x1="260" y1="0" x2="260" y2="178" fill="rgb(0, 0, 0)" stroke="rgb(60, 60, 60)" stroke-width="1px" opacity="0.25"></line></g><g><line x1="0" y1="178" x2="260" y2="178" fill="rgb(0, 0, 0)" stroke="rgb(60, 60, 60)" stroke-width="1px" opacity="0.25"></line><line x1="0" y1="155.75000000000003" x2="260" y2="155.75000000000003" fill="rgb(0, 0, 0)" stroke="rgb(60, 60, 60)" stroke-width="1px" opacity="0.25"></line><line x1="0" y1="133.50000000000003" x2="260" y2="133.50000000000003" fill="rgb(0, 0, 0)" stroke="rgb(60, 60, 60)" stroke-width="1px" opacity="0.25"></line><line x1="0" y1="111.25" x2="260" y2="111.25" fill="rgb(0, 0, 0)" stroke="rgb(60, 60, 60)" stroke-width="1px" opacity="0.25"></line><line x1="0" y1="89.00000000000004" x2="260" y2="89.00000000000004" fill="rgb(0, 0, 0)" stroke="rgb(60, 60, 60)" stroke-width="1px" opacity="0.25"></line><line x1="0" y1="66.75" x2="260" y2="66.75" fill="rgb(0, 0, 0)" stroke="rgb(60, 60, 60)" stroke-width="1px" opacity="0.25"></line><line x1="0" y1="44.49999999999998" x2="260" y2="44.49999999999998" fill="rgb(0, 0, 0)" stroke="rgb(60, 60, 60)" stroke-width="1px" opacity="0.25"></line><line x1="0" y1="22.25000000000002" x2="260" y2="22.25000000000002" fill="rgb(0, 0, 0)" stroke="rgb(60, 60, 60)" stroke-width="1px" opacity="0.25"></line><line x1="0" y1="0" x2="260" y2="0" fill="rgb(0, 0, 0)" stroke="rgb(60, 60, 60)" stroke-width="1px" opacity="0.25"></line></g></g></g><g><g><line x1="0" y1="556.2500000000001" x2="260" y2="556.2500000000001" fill="rgb(0, 0, 0)" stroke="rgb(153, 153, 153)" stroke-width="1.5px"></line></g></g><g><g><line x1="28.888888888888886" y1="0" x2="28.888888888888886" y2="178" fill="rgb(0, 0, 0)" stroke="rgb(153, 153, 153)" stroke-width="1.5px"></line></g></g><g><g><g><g><g><path stroke="rgb(255, 112, 67)" stroke-width="2px" d="M29.148888888888887,152.93816775083545L29.495555555555555,140.9800615627319L29.538888888888888,136.98011851128265L29.69777777777778,134.54293502932964L29.91444444444444,132.94536067479237L29.95777777777778,132.03588001566078L30.246666666666666,131.32459086107053L31.127777777777776,130.40139534104998L31.171111111111113,129.8426992523892L31.301111111111112,129.45696223248612L32.196666666666665,128.89195743567666L32.26888888888889,128.53027911297593L32.572222222222216,128.16935014011375L32.644444444444446,127.90885766440229L32.745555555555555,127.6992350174851L32.83222222222222,127.53839675190453L33.337777777777774,127.23408485463588L33.36666666666667,127.03664917300895L33.48222222222222,126.8649105000763L33.90111111111111,126.69198052243851L34.190000000000005,126.45352115349961L34.97,125.89897561397648L34.98444444444445,125.5637862039694L35.27333333333333,125.18433884312036L35.53333333333333,124.89124978024591L35.73555555555556,124.71592735805243L36.63111111111111,124.07400579054196L37.02111111111111,123.5173883345837L37.25222222222222,123.07269332159487L37.35333333333333,122.73509693042907L37.367777777777775,122.52470128067925L37.84444444444444,122.02410319831614L38.04666666666667,121.57628381728503L38.162222222222226,121.20571325837429L38.23444444444444,120.91861241931214L38.263333333333335,120.72094186265724L38.43666666666667,120.38908603057203L38.581111111111106,119.97510106567763L39.202222222222225,118.85508946052543L39.31777777777778,118.08149532257237L39.43333333333334,117.51193219841765L39.80888888888889,116.80945375182944L39.93888888888889,116.24471019858937L39.99666666666666,115.84460673417563L40.025555555555556,115.58705203343285L40.22777777777778,115.31781588557986L40.25666666666666,115.13785323239858L40.357777777777784,114.97351199827716L40.473333333333336,114.80308008457271L40.56,114.63417921820171L40.964444444444446,114.23163139437779L42.01888888888889,112.8966745651632L42.495555555555555,111.83523413043247L42.53888888888889,111.17327810228423L42.784444444444446,110.50286680996713L42.91444444444445,109.95577210509929L42.928888888888885,109.61063271358103L43.01555555555556,109.32855227943945L43.03,109.13972925756387L43.102222222222224,108.92687735923538L43.36222222222222,108.55574159603366L43.40555555555556,108.28901692498351L43.535555555555554,107.93562167446979L44.24333333333333,107.04199557638869L44.28666666666667,106.45793071470682L44.373333333333335,106.02085093308702L44.46,105.69237246900333L44.532222222222224,105.41388302916009L44.67666666666667,105.00548666640357L44.763333333333335,104.54917139365816L44.83555555555556,104.10480595561582L45.586666666666666,102.50586954911188L45.65888888888889,101.46795668101089L45.67333333333333,100.8293210440623L45.93333333333333,100.14787652932085L46.12111111111111,99.45781492497017L46.30888888888889,98.83255355540209L46.85777777777778,98.06087519516521L47.10333333333333,97.36287820810071L47.39222222222222,96.65264683052298L47.58,96.00947482636214L47.89777777777778,95.10798354894307L47.941111111111105,94.49934631556503L48.14333333333334,93.99001893383401L48.20111111111111,93.64396004070123L48.894444444444446,91.98951642626093L48.995555555555555,90.59461278267838L49.31333333333334,88.86463178722938L49.486666666666665,87.51917620616486L49.63111111111111,86.51355588506063L50.06444444444445,85.5026811901951L50.22333333333333,84.43124252821355L50.33888888888889,83.361447949799L50.425555555555555,82.44272625422008L50.88777777777778,80.60319278225616L50.94555555555556,79.28661706200435L51.306666666666665,77.83485637397287L51.53777777777778,76.83124593669602L51.55222222222222,76.21247560843487L51.76888888888889,75.62681937852298L51.82666666666667,75.22099825524563L52.07222222222222,74.8122208582358L52.577777777777776,73.7529175440667L52.693333333333335,72.8482223725437L52.98222222222222,71.65283365107292L53.184444444444445,70.53143994841999L53.31444444444444,69.33956752320542L53.40111111111111,68.29208424747242L53.47333333333333,67.44291404521623L53.574444444444445,66.694522915102L53.70444444444444,65.90121911037976L53.906666666666666,64.96134415906086L53.93555555555555,64.3356976845349L53.97888888888889,63.890604551940285L54.108888888888885,63.5259798921997L54.614444444444445,62.28486146079627L54.96111111111111,61.404387179298006L55.26444444444444,60.795562281181084L55.52444444444444,60.16460228798965L55.654444444444444,59.52935289644115L55.842222222222226,59.04648346485445L55.885555555555555,58.710795597921305L56.00111111111111,58.40530243914751L56.57888888888889,57.58767022133722L56.824444444444445,56.98124702835592L56.96888888888889,56.519691712048726L57.01222222222222,56.13235209368887L57.30111111111111,55.18565520038139L57.53222222222222,53.95692255729399L57.79222222222222,52.83899630089978L57.965555555555554,51.69913589942685L58.21111111111111,50.40764611952441L58.297777777777775,49.456022393661335L58.644444444444446,48.42931164023731L58.83222222222222,47.292843209013L58.87555555555556,46.51172235387841L58.89,46.004192082752446L59.00555555555556,45.37975388686043L59.06333333333333,44.83167661976923L59.16444444444445,44.2322184667117L59.87222222222222,42.48536139876402L59.93,41.46926170677398L60.03111111111111,40.92753002697503L60.16111111111111,40.66670578512116L60.47888888888889,40.33455560679769L60.53666666666667,40.15672346994607L60.65222222222222,40.093497133525204L60.76777777777778,40.165636209411616L60.82555555555556,40.26371837721057L61.114444444444445,40.55408299604526L61.18666666666667,40.6226564087836L61.20111111111111,40.65263382425113L61.27333333333333,40.540930848301684L61.446666666666665,40.281583053458476L61.489999999999995,40.14699469959065L61.562222222222225,40.03449237916065L61.836666666666666,39.86004594906085L62.06777777777778,39.66197358932443L62.21222222222222,39.47762899021116L62.385555555555555,39.30591078054793L62.761111111111106,38.877058216642645L62.89111111111111,38.447552435822075L63.39666666666667,38.019882746474L63.41111111111111,37.756795798501976L63.44,37.58755154297452L64.07555555555555,37.44922937086642L64.19111111111111,37.197914338895146L64.32111111111111,36.89569942163733L64.35,36.66542030577252L64.42222222222223,36.41071934821839L64.78333333333333,36.05248313738484L64.79777777777778,35.84461007472027L64.94222222222221,35.82110207650752L64.97111111111111,35.834250756345334L65.04333333333332,35.96022511019836L65.24555555555557,36.147356685963466L65.33222222222221,36.22145423708397L65.46222222222222,36.20261308203958L65.67888888888889,36.21208999544875L65.76555555555557,36.28496160501536L66.44444444444444,36.077156844105154L66.53111111111112,35.951572169283544L66.77666666666667,36.04561731780736L66.86333333333333,36.027578089029646L67.57111111111111,37.01758716904581L67.67222222222222,37.803945150395975L67.74444444444444,38.23894453431412L67.93222222222222,38.277765318067374L68.46666666666665,38.51651278395145L68.66888888888889,38.41376380478555L69.17444444444445,36.96474657270446L70.37333333333333,36.93872198947147L70.50333333333333,37.03271794609949L70.63333333333334,37.22097991879421L70.72,37.39843037113932L71.06666666666666,37.854912229689276L71.74555555555555,39.39109495181582L71.86111111111111,40.51229209243506L72.38111111111111,42.2014789315418L72.61222222222223,43.81905013515685L72.65555555555555,44.90543671962103L72.77111111111111,45.86188431690027L72.81444444444445,46.51825598543818L73.16111111111111,47.29590875903331L73.21888888888888,47.79993914365509L73.65222222222222,48.19775118112408L74.20111111111112,48.83842389988803L74.46111111111112,49.441346056508436L74.54777777777778,49.8595027787968L74.77888888888889,50.41869930407311L75.03888888888889,51.12507672298498L75.05333333333334,51.57502938025327L75.54444444444445,52.65411763616286L75.68888888888888,53.500872428583385L75.73222222222223,54.07920081935364L75.74666666666667,54.44176748110078L75.77555555555556,54.679187266309384L75.78999999999999,54.837712721991124L76.1511111111111,54.72940166411849L76.62777777777778,55.50152784358296L77.20555555555556,57.16354549390574L77.65333333333334,58.91768664397296L78.04333333333334,60.46033609078823L78.11555555555556,61.502538819113425L78.43333333333334,62.712994634508526L78.70777777777778,64.08251653277841L78.92444444444445,65.21979975798112L79.15555555555557,66.34508182465069L79.57444444444445,66.74574023401158L79.61777777777777,66.96063238927971L79.97888888888889,66.61358003943712L80.35444444444444,66.14108935075727L80.6,65.94183537410336L80.88888888888889,66.10350440768383L81.14888888888889,66.53287891046995L81.17777777777778,66.8120544165182L81.20666666666668,66.99962517677592L81.29333333333332,67.0695699814489L81.69777777777779,66.91692978522363L81.9,66.9293597959351L82.7088888888889,67.84589041011763L82.76666666666668,68.51728900514381L82.92555555555555,69.17079385663475L83.37333333333333,68.6605877968395L83.4888888888889,67.31599389271288L83.67666666666668,65.46076770875666L83.7488888888889,64.01634640248905L83.98,62.55796820969752L84.05222222222223,61.52098534137822L84.08111111111111,60.83314855474719L84.22555555555554,60.31873994814446L84.28333333333333,60.03577008096628L84.70222222222222,60.21718006878047L84.87555555555555,60.2744500133333L85.62666666666667,60.87804498034338L85.78555555555555,61.495827655539664L86.03111111111112,61.74133018883812L86.43555555555555,61.5969598068759L86.81111111111112,61.42158804976733L86.98444444444445,61.27624734427803L87.14333333333333,61.11545189730096L87.18666666666667,60.998962220619724L88.01,61.45519980613627L88.08222222222223,61.85135092630527L88.09666666666666,62.104014434185885L88.24111111111111,62.47576229439219L89.29555555555555,64.79121507803224L89.45444444444445,66.41942880511058L89.46888888888888,67.41789458370077L89.49777777777777,68.06052656874577L89.57,68.56907133403732L89.58444444444444,68.89462172474452L89.94555555555556,69.73113149098154L90.01777777777778,70.34323158676384L90.06111111111112,70.76486598142954L90.17666666666666,71.19843572788817L90.46555555555555,72.08628288157814L90.50888888888889,72.71214369683281L90.52333333333334,73.11860051005374L90.74,73.67272660880857L91.05777777777777,74.19748849123461L91.24555555555555,74.81315506368722L91.27444444444444,75.21036549132965L91.46222222222222,75.7881467564219L91.99666666666667,77.18328535695757L92.34333333333333,78.59728023493219L92.44444444444444,79.57690498282867L92.5311111111111,80.24335021406625L92.87777777777778,81.19010382670291L92.9211111111111,81.82721140252434L93.77333333333334,83.54492293159295L94.01888888888888,84.54090941763006L94.03333333333335,85.14267884979303L94.32222222222222,85.52261238270793L94.36555555555556,85.76493528469678L94.49555555555555,86.02894465317891L95.01555555555557,87.01301795357806L95.05888888888889,87.70430643626655L95.28999999999999,88.63538375060921L95.73777777777778,89.98979193306664L96.14222222222222,91.11823238335076L96.25777777777778,91.82007013202922L96.31555555555556,92.27447374726067L96.43111111111111,92.67339699902965L96.59,93.04379310273427L96.96555555555557,93.56564662494245L97.03777777777778,93.94110355757465L97.2688888888889,94.09982883323903L97.5,94.00032429927393L97.61555555555556,93.88241451402784L97.74555555555557,93.70750863206557L97.87555555555556,93.50494327457051L98.03444444444443,93.36534117049752L98.0488888888889,93.28297242156737L98.22222222222221,93.29701000232745L98.25111111111111,93.34972774254834L98.8,92.9627290384028L98.97333333333333,92.70416489339193L99.24777777777778,92.30585376081659L99.58,92.41900059376833L99.86888888888889,92.39744953986813L100.56222222222222,91.93514816568378L100.69222222222223,91.55450914863403L100.73555555555555,91.33292916157039L100.76444444444444,91.21202309571612L101.50111111111111,92.11304533268753L101.54444444444444,92.73247493973818L101.83333333333333,93.67249041003856L101.86222222222223,94.26355424048235L101.87666666666667,94.63498227311207L101.97777777777779,94.98528723426477L102.23777777777777,95.2501760989893L102.64222222222223,94.30503187003542L102.93111111111111,92.98113413109067L103.04666666666667,91.9951856282573L103.49444444444444,91.4468109695447L103.74000000000001,91.12449676324917L104,91.16494441348317L104.11555555555556,91.35165965150595L104.56333333333333,92.06066596860168L104.95333333333333,92.47173350068616L105.28555555555556,92.86798301942761L105.70444444444445,93.13476332192191L105.86333333333333,93.03256152966367L106.09444444444445,92.85556899844856L106.29666666666667,92.92205841743497L106.6,93.14877433421343L107.17777777777778,93.47797866369564L107.49555555555555,93.10145414295964L107.56777777777778,92.7824266935776L108.10222222222222,92.35438902291001L108.2611111111111,91.66718691058364L108.34777777777778,91.1710628537381L108.55,90.67919246363908L108.57888888888888,90.37499899869123L109.0411111111111,90.12659713748077L109.38777777777777,90.18549144341334L109.5611111111111,90.11620384498708L109.59,90.07681952145266L109.67666666666666,90.05361331240273L109.85,89.29461528501469L110.21111111111111,87.61170917535759L110.61555555555556,86.37128569951615L110.64444444444445,85.64124851388317L110.70222222222222,85.23367583133324L110.91888888888889,85.34977995978323L111.5111111111111,86.0926895655783L111.55444444444446,86.59879084334328L112.32,88.51487616244289L112.36333333333333,89.78354084219532L112.50777777777778,90.84401069716213L112.76777777777778,91.89527489921807L112.78222222222222,92.53754486549713L113.02777777777779,93.1293569201757L113.07111111111111,93.53076843586737L113.56222222222222,94.2604406366776L113.5911111111111,94.72045786321347L113.69222222222221,95.10469965422261L114.08222222222221,95.41256238391463L114.21222222222222,95.5948132835058L114.51555555555557,96.00029176844518L114.86222222222221,96.62462360485411L114.93444444444444,97.0257335115911L115.02111111111111,97.32720587905898L115.41111111111111,97.911732550005L115.7,98.60553735824811L115.77222222222223,99.08275928695431L115.9888888888889,99.58674893736503L116.06111111111112,99.963622307537L116.68222222222222,100.92337549672008L116.74000000000001,101.5570233520596L117.04333333333334,102.36281724314269L117.07222222222222,102.88704780662282L117.30333333333333,103.66644694163935L117.33222222222223,104.18107380720694L117.41888888888889,104.6114892974658L117.44777777777779,104.90703142971773L117.70777777777778,105.49158070856913L118.04,106.32467695697895L118.17,106.9583220995948L118.44444444444444,107.38119967088019L118.60333333333334,107.63277776423045L118.63222222222223,107.78930793632834L118.7188888888889,107.87696635979277L118.90666666666667,108.01917297397776L119.16666666666666,108.30691535922718L119.73,109.18548556955359L120.06222222222222,109.99309317941488L120.12,110.55815828844919L120.13444444444444,110.91291286352285L120.23555555555555,111.24284283997423L120.48111111111112,111.59666950513005L120.64,111.76813170319247L120.79888888888888,111.77130505445865L120.9,111.44844838978814L120.98666666666666,110.61374052764157L121.33333333333333,108.06572201491107L122.18555555555555,105.76007403517191L122.70555555555555,104.47812654128325L122.72,103.71844039887574L122.77777777777777,103.29225609618656L123.06666666666666,103.31077784251109L123.08111111111111,103.32114821643196L123.09555555555555,103.3269725797806L123.21111111111112,103.26853350151976L123.84666666666666,102.65395897835138L123.94777777777777,102.28108977204352L123.99111111111111,102.0457772310126L124.26555555555555,102.17615636560612L125.04555555555555,103.01558478101073L125.17555555555556,103.74147372498501L125.20444444444445,104.20609073075286L125.26222222222223,104.52190179367449L125.34888888888888,104.81587999307861L125.39222222222223,105.02774285223337L125.49333333333334,105.18042976824195L125.60888888888888,105.38430503110737L125.65222222222222,105.54729158342276L125.82555555555555,105.91495263374088L126.21555555555555,106.48983122584957L126.27333333333334,106.83758319424237L126.43222222222222,107.0161958694854L126.5911111111111,106.91743061902515L127.57333333333332,107.51140618897912L127.77555555555556,108.09589850650688L127.8911111111111,108.61434535829105L128.09333333333333,109.13531167297292L128.10777777777778,109.45409809344248L128.48333333333332,108.98111447568677L128.68555555555557,108.47171059176885L129.04666666666668,108.48207599476316L129.46555555555557,108.77259344789589L129.5088888888889,108.96974114139795L129.88444444444443,109.50737525558424L130.14444444444445,110.2978402646539L130.20222222222222,110.85407863689406L130.56333333333333,111.76901701469986L130.9388888888889,111.39600347506861L131.31444444444446,109.03964710848251L131.53111111111113,107.10606767306757L131.64666666666665,105.78198801618832L131.6611111111111,104.96549872244607L131.9788888888889,104.50951616576438L132.03666666666666,104.29725027448609L132.23888888888888,104.40835536340873L132.81666666666666,104.99701205384733L132.94666666666666,105.4361573069811L133.12,105.9171550696802L133.39444444444445,106.64743248973562L133.4377777777778,107.16653713199065L133.56777777777776,107.72149085171561L134.33333333333334,107.27437701325141L134.4922222222222,107.00124154389218L134.7522222222222,107.04590573847481L134.89666666666668,107.25764331185935L134.9111111111111,107.39716542937826L135.1711111111111,107.3551148365645L135.18555555555554,107.31529624406745L135.51777777777778,107.15682197299154L135.57555555555555,107.06053056530091L135.79222222222222,107.20415296084846L136.22555555555556,107.96001930193407L136.35555555555555,108.6600007364529L136.3988888888889,109.15571580823527L136.5,109.59699812827267L136.64444444444445,110.10300390897852L136.68777777777777,110.44313101755777L136.76000000000002,110.65145113341333L136.90444444444444,110.8001689807911L137.2511111111111,110.79343561508294L137.38111111111112,110.83778875576282L137.65555555555557,111.07555873696106L137.9011111111111,111.40390245618877L138.79666666666668,112.48725017012632L139.30222222222224,113.00274199307844L139.54777777777778,113.54351261890459L139.6922222222222,114.07743555090745L139.76444444444445,114.49539787639334L139.92333333333335,114.75763366859643L140.01,114.81166390324526L140.11111111111111,114.57263474312363L140.3711111111111,113.90275430468877L140.44333333333333,113.44452870957943L140.51555555555555,113.12328233166272L140.77555555555554,113.04399120118461L140.93444444444444,113.14516349021348L140.9777777777778,113.24646194805952L141.26666666666668,113.44899889844808L141.38222222222223,113.62884749184938L141.52666666666667,113.86680414802369L141.70000000000002,114.25310886220062L142.0322222222222,114.77653706858113L142.10444444444445,115.15552490824199L142.98555555555555,116.27825075312697L143,116.97024091437012L143.46222222222224,117.91069110843274L144.08333333333334,119.22914654381715L144.19888888888892,120.16516056875976L144.31444444444443,120.93303339016792L144.32888888888888,121.41512221892089L144.82000000000002,122.11626775145179L144.9788888888889,122.68628556775835L145.1522222222222,123.1314218297469L145.39777777777778,123.30507256119655L146.26444444444445,123.38597486930615L146.61111111111111,123.33706683228921L147.04444444444445,123.08228070324965L147.10222222222222,122.92356046906895L147.30444444444444,122.63974221272338L147.55,121.68269438578531L147.63666666666666,120.87802459617762L148.24333333333334,120.57833161843003L148.47444444444443,120.45702792341814L148.63333333333333,120.43100763639987L148.76333333333335,120.47844317126976L148.87888888888887,120.64082450609627L149.1677777777778,121.1562593396975L149.19666666666666,121.50191125967943L149.23999999999998,121.75648872672824L149.26888888888888,121.93900847208091L149.35555555555555,122.19895156485792L149.64444444444445,122.86753479995109L149.6877777777778,123.32536667202578L149.76,123.68068569668931L149.89000000000001,123.94046663504125L150.9011111111111,123.34679159081746L151.19,123.29624991152744L151.20444444444445,123.28754201849735L151.23333333333332,123.32386723351738L151.43555555555554,123.63313019986313L151.49333333333334,123.93132242986775L151.62333333333333,124.35768078821431L151.63777777777779,124.63845495019874L151.71,124.8880300440462L151.7822222222222,125.07050579894016L151.99888888888887,125.24266762202042L152.4466666666667,125.65307362476027L152.62,125.92052321791077L152.7211111111111,126.1121454904045L152.79333333333332,126.26230302867687L152.99555555555554,126.56616826902274L153.12555555555556,126.78133747011691L153.5011111111111,126.95808947700425L153.60222222222222,127.08329105745656L153.61666666666667,127.15790804845633L153.74666666666667,127.25719846262068L154.29555555555555,127.89312742336708L154.41111111111113,128.39982534756737L154.42555555555558,128.7174244243531L154.48333333333332,128.95136398188043L154.94555555555556,129.0910911387907L155.62444444444444,129.08588614026942L155.6822222222222,128.91971970176837L155.9422222222222,128.50227477893912L156.01444444444445,128.232896165524L156.27444444444444,128.12504654316547L156.31777777777776,128.06101313345695L156.6211111111111,128.20937556691806L156.78,128.33210511605648L157.12666666666667,128.0381060159249L157.2277777777778,127.82299468016879L157.47333333333333,127.5265477543846L157.5022222222222,127.32437029157728L157.54555555555555,127.1556785683313L157.8488888888889,125.98657807591435L157.87777777777777,125.07917166282466L157.95000000000002,124.10437482911192L158.1088888888889,122.78142478059438L158.2822222222222,121.59332144850917L158.5277777777778,120.67881023046031L158.7877777777778,120.18260789010915L158.87444444444444,119.95819900687934L159.01888888888888,119.9248093024278L159.2788888888889,119.98741121026187L159.29333333333335,120.03962690193836L159.68333333333334,120.47733154630295L159.79888888888888,120.89840910873191L159.94333333333333,121.37580732727871L160.10222222222222,121.81620520487323L160.40555555555554,121.78073523721034L160.66555555555556,121.5670609371718L161.12777777777777,121.40408330540996L161.2288888888889,121.3997012280294L161.98,121.97233920710494L162.00888888888886,122.31500691424142L162.15333333333334,122.41851640492881L162.25444444444446,122.46472092121961L162.64444444444445,122.01518283277824L162.94777777777776,121.05075488084603L163.09222222222223,120.21615412589342L163.32333333333332,119.5501487359788L163.35222222222222,119.12117009791051L163.45333333333335,118.74126824994276L163.91555555555556,118.52307473575709L163.98777777777778,118.4587870833614L164.14666666666665,118.55046092255941L164.2188888888889,118.66529025902763L164.84,119.92365964216248L164.88333333333333,120.76033561207208L165.17222222222225,121.61512454615448L165.2588888888889,122.15348753491884L165.27333333333334,122.46421142315774L165.64888888888888,122.32217171130131L165.75,122.27726446591348L166.66,122.95612553955635L166.79,123.61665418864202L166.8911111111111,124.23713952971052L166.93444444444447,124.68820721311896L167.03555555555556,125.11832377555092L167.07888888888888,125.42856655265163L167.39666666666668,126.07002435174748L167.55555555555557,126.73592152027585L167.71444444444447,127.47620124714554L167.88777777777779,128.32019286809557L167.90222222222224,128.8536158648622L167.94555555555556,129.2302322356398L168.29222222222222,129.94081002286052L168.3788888888889,130.42273787743434L168.7111111111111,131.22880886844746L168.85555555555555,131.78516719253034L168.9711111111111,132.2426373869847L169.85222222222222,129.75962445799536L169.98222222222222,128.20784321823132L170.11222222222221,127.04893273948683L170.61777777777777,125.1041702797357L171.02222222222224,123.93560200156834L171.06555555555556,123.23480584753788L171.64333333333335,123.10928904135966L171.98999999999998,122.96260269355743L172.13444444444443,122.82221911473256L172.92888888888888,123.41445877029413L173.11666666666667,124.0419792763824L173.53555555555553,124.84235943153111L174.05555555555554,125.55202070352196L174.12777777777777,126.1042444317148L174.14222222222222,126.46382679990566L174.17111111111112,126.74202713639521L174.37333333333333,127.26822908682215L174.54666666666668,126.50298843361492L174.8788888888889,124.70225673662158L174.96555555555557,123.40689320413193L175.18222222222224,122.46773239402725L175.26888888888888,121.82825771825769L175.41333333333333,121.40018488679682L175.76000000000002,120.80835548469042L176.00555555555556,120.30965654509433L176.32333333333335,119.82588272367218L176.7711111111111,118.48539800092158L176.8722222222222,117.55226651218284L177.0311111111111,116.96547895304414L177.26222222222222,116.78117114086183L177.32000000000002,116.74385918843289L177.42111111111112,116.88658433358398L177.49333333333334,117.0318455231221L178.10000000000002,117.87828017664147L178.62,119.0034886264336L179.02444444444444,120.22725075861999L179.05333333333334,121.00804451335183L179.0677777777778,121.49719627635906L179.09666666666666,121.82275493107574L179.18333333333334,122.04460092879735L179.31333333333333,122.24977441726564L179.39999999999998,122.48035402952691L179.47222222222223,122.67823506509696L179.89111111111112,122.5799437708582L180.09333333333333,121.94441535156527L180.25222222222223,121.1077065949533L180.39666666666665,120.50965095668394L180.45444444444445,120.17687746947621L180.4688888888889,119.97591369787229L180.87333333333333,120.30983858370406L181.00333333333336,120.5694217566468L181.11888888888888,120.7218428900133L181.33555555555554,120.85099953116715L181.35,120.93979276836959L181.52333333333334,121.10355471146734L181.9711111111111,121.95038735611814L182.1011111111111,122.62159669246421L182.2888888888889,123.11651995090331L182.34666666666666,123.3869498390417L182.4188888888889,123.4196774910963L182.54888888888888,123.21746678656794L182.66444444444446,123.02414078418295L182.76555555555558,122.91038646640703L182.78,122.84342029298745L183.02555555555557,122.79171588185669L183.45888888888888,122.63722370364212L183.60333333333335,122.34497457920283L184.13777777777779,122.33713784920442L184.26777777777778,122.47839775149383L184.2822222222222,122.5789355126879L184.3688888888889,122.76836406516202L184.6,123.28142059640385L184.7011111111111,123.70659698722547L185.10555555555555,124.56902438210122L185.12,125.11838927153754L185.25,125.73991882374288L185.32222222222222,126.2453110073233L185.4811111111111,126.87536260808852L185.61111111111111,127.4262243886313L185.81333333333333,127.9859624433232L185.97222222222223,128.48055181668477L186.36222222222221,129.57224498847893L186.40555555555557,130.32289341485364L186.53555555555556,130.98398965833107L186.89666666666668,131.91168574832398L186.95444444444445,132.52095367516586L187.08444444444444,132.98812813166083L187.2866666666667,133.41459367634837L187.37333333333333,133.67197161294214L187.4022222222222,133.8310268245768L187.89333333333335,133.68066142336318L187.98,133.52681094608184L188.0666666666667,133.46747007490086L188.09555555555556,133.42653421474031L188.11,133.39749013133368L188.25444444444446,133.45995417086795L188.32666666666668,133.5719784846814L188.5288888888889,133.79817833011813L188.6588888888889,134.11017718616407L188.89000000000001,134.56045545758772L189.25111111111113,134.60319180859307L189.52555555555554,134.39412215097656L189.65555555555557,134.07651349153463L189.91555555555556,133.28467422274562L190.30555555555554,132.96542607872377L190.63777777777779,133.0815563686412L190.66666666666666,133.13339710758459L190.6811111111111,133.1583744914909L191.4177777777778,133.43503410408377L191.53333333333333,133.634476720032L191.57666666666668,133.75000453516057L191.70666666666665,133.82193384482983L192.25555555555556,133.67951579639038L192.70333333333332,133.68785406797366L192.99222222222224,133.95964935808922L193.19444444444446,134.35100591414894L193.26666666666665,134.55046326657367L193.71444444444444,134.35427582705154L193.83,134.17848891880595L193.85888888888888,134.02222318569713L194.35000000000002,133.54871867966585L194.39333333333335,133.1456157497879L194.59555555555556,132.31135221912356L194.63888888888889,131.71951152440244L194.79777777777778,131.22047425840103L194.88444444444443,130.94935307820916L195.28888888888886,130.75696015310453L195.33222222222224,130.66266407938107L195.34666666666666,130.61365905625402L195.43333333333334,130.62726481689674L195.4622222222222,130.64879640301268L195.70777777777778,130.8086188993466L195.82333333333332,130.98210855493622L195.95333333333335,131.10632085305258L196.17,131.34033744634274L196.4011111111111,131.81707257092648L196.96444444444444,132.5888488832751L197.13777777777779,133.2181012120032L197.16666666666666,133.6358630946984L197.3111111111111,134.13603212187945L197.47,134.76777720898548L197.5711111111111,135.37538214594224L197.67222222222225,135.9939926211244L197.70111111111112,136.43184041048326L197.94666666666666,137.12156003752492L198.2211111111111,137.78518221401654L198.7411111111111,138.662181238076L198.88555555555556,138.7943125902062L199.1311111111111,138.2732058846024L199.2177777777778,137.82585264939476L199.34777777777776,137.44161010800843L199.7811111111111,136.79354924570944L200.11333333333334,136.5640427983488L200.12777777777777,136.43995903829844L200.38777777777779,136.838552253843L200.79222222222222,137.8861086949114L200.86444444444444,138.6255794694665L201.0522222222222,139.43205812160033L201.25444444444446,140.22951283206856L201.37,140.7456365713496L201.44222222222223,141.0884128504407L201.4711111111111,141.29617401918247L201.48555555555555,141.42088376856134L201.77444444444447,141.58549358472993L201.84666666666666,141.70887380853756L202.04888888888888,141.99782645711576L202.19333333333333,142.35112405424877L202.26555555555555,142.680644015107L202.36666666666667,143.01307172753417L202.64111111111112,143.44791618691687L202.81444444444443,143.79437624041321L203.32,143.72214486374898L203.45,143.6098302017119L204.14333333333335,144.1379332310239L204.21555555555554,144.53308083214048L204.4322222222222,144.74318115471414L204.5911111111111,144.88604434465537L204.64888888888888,144.93255968770487L204.88,144.73878074217498L205.06777777777776,144.26045986133016L205.35666666666668,143.4503331608605L205.48666666666668,142.6775585011859L205.60222222222222,142.02014865852712L205.89111111111112,141.44927792177987L206.12222222222223,141.30209197060105L206.4111111111111,141.19903301868342L206.45444444444445,141.10214609309136L206.68555555555557,140.97628473284308L206.91666666666666,140.57932274962937L207.07555555555555,140.24132223382878L207.94222222222223,139.82121024403148L208.07222222222222,139.68656509443025L208.08666666666667,139.61780666902007L208.52,140.03812342640367L208.79444444444442,140.54864463065036L208.83777777777777,140.88861639412622L209.15555555555554,141.31266963548885L209.79111111111112,141.305905831262L210.09444444444443,141.52488842749867L210.18111111111114,141.69591820326016L210.21,141.8090793853198L210.51333333333332,142.11036135942902L210.8311111111111,142.48655986899837L211.25,140.60487554737753L211.91444444444443,139.1798033193876L212.14555555555557,138.59720193601424L212.31888888888886,138.47519107614025L213.17111111111112,138.64475934478085L213.40222222222224,139.03140857084065L213.85,139.91716330804508L213.96555555555557,140.5299654636269L214.26888888888888,140.97752398452076L214.63,141.2243491482789L214.70222222222225,141.41732296777099L214.89000000000001,141.7718238617917L215.07777777777778,142.29627501880762L215.16444444444446,142.7377838010528L215.7711111111111,143.30863092034687L215.78555555555556,143.65859245472927L215.85777777777778,143.87310499080286L216.07444444444445,144.07085465865296L216.91222222222223,145.42788662002658L217.15777777777777,146.33536441615925L217.54777777777778,146.69036315972633L217.5622222222222,146.8977658277454L217.67777777777778,146.98643972430838L217.85111111111112,146.99849197241195L217.89444444444445,147.00096225126106L218.02444444444447,147.0851066731424L218.2411111111111,147.24133151906793L218.29888888888888,147.0866818019036L218.32777777777778,146.80599548150806L218.54444444444442,144.8207912011725L218.80444444444444,142.19427896522174L219.06444444444443,140.33508132685833L219.2811111111111,139.1332136439658L219.42555555555558,138.39649688287838L219.4688888888889,137.95959923317588L219.64222222222222,137.79410108119583L219.65666666666667,137.71460240596733L219.71444444444444,137.69728651949288L220.11888888888888,137.4317487258227L220.49444444444444,136.97873831859297L220.97111111111113,136.95876482767503L221.1877777777778,137.20302974368715L221.70777777777778,137.90200543514243L221.78,138.4000479704818L222.47333333333333,138.77416205565225L222.53111111111113,139.01117639041L222.82,139.4065041619304L223.51333333333335,140.9038592444517L223.5277777777778,141.8307724038755L223.90333333333334,142.79922365784617L223.94666666666666,143.4536334552763L224.55333333333334,144.66848562231053L224.78444444444443,145.70532807749743L225.29000000000002,147.0324299874439L225.50666666666666,148.04597628966178L225.6222222222222,148.78641937884817L225.69444444444446,149.25614833660802L225.70888888888888,149.5470569421523L226.18555555555554,149.70905622182323L226.43111111111114,149.59590667687675L226.47444444444446,149.47946464540252L226.51777777777778,149.35498637271934L226.70555555555555,149.1218048471988L227.09555555555556,148.80930382840518L227.35555555555555,148.34007784028464L227.45666666666668,147.9813837367273L227.55777777777777,147.7616714452491L227.87555555555556,147.39099484770213L228.17888888888888,147.3097234492822L228.36666666666665,147.55621326120635L228.87222222222223,148.5264460572716L229.20444444444445,149.63950472051602L229.24777777777777,150.39213736042205L229.43555555555557,151.14374392738836L229.49333333333334,151.700565418666L229.58,152.13899073068225L230.20111111111112,153.11302353181793L230.21555555555557,153.7150154068372L230.48999999999998,154.133277061838L230.53333333333336,154.26893393591524L230.64888888888888,154.05836439368414L230.66333333333333,153.9032440557318L230.67777777777778,153.77892650212272L230.76444444444445,153.55048311975855L231.05333333333334,153.20188765661274L231.0822222222222,152.9831154044649L231.34222222222223,152.8554328022111L232.06444444444443,153.08244423494986L232.26666666666665,153.41193197027596L232.35333333333335,153.64606867942663L232.84444444444443,154.10659009643467L233.43666666666667,154.17163875358148L233.8411111111111,153.9721370140126L234.2311111111111,154.14239706989596L234.30333333333334,154.32740102646633L234.39,154.53949988149333L234.72222222222223,154.9379943028851L235.08333333333334,155.4456869194367L235.2566666666667,155.66086333569638L235.2711111111111,155.78981004105063L235.35777777777778,155.8923361417416L235.48777777777778,156.0697752366521L235.73333333333332,156.21182072937836L235.90666666666667,156.34057401883814L235.9933333333333,156.45058321516643L236.28222222222223,156.6267166588362L236.34,156.74791330418924L236.68666666666667,156.90175515009125L236.71555555555554,156.98138175364235L236.84555555555556,157.04703493688046L237.56777777777776,157.72968851788963L237.91444444444443,158.36574314990125L237.92888888888888,158.72402148818068L238.24666666666667,157.72865553125794L238.7522222222222,156.81989752903613L238.76666666666668,156.27358176502602L239.11333333333332,155.53124766464842L239.14222222222222,155.06566238949188L239.15666666666667,154.7729165706008L239.59,153.97187136727388L239.95111111111112,153.09793211887967L239.99444444444444,152.59366055053883L240.02333333333334,152.30742317272674L240.24,152.15338556071194L240.32666666666668,152.11578823983714L240.61555555555555,152.08366792118574L240.76000000000002,152.06978011558073L240.77444444444444,152.0661421920635L240.89,152.09309612547028L240.9477777777778,152.13551404973666L241.03444444444443,152.13238512218476L241.26555555555555,151.80278965676115L241.88666666666666,151.4120697906273L242.06,151.25324472371685L242.21888888888887,151.2562346135613L242.36333333333334,151.36594171375253L242.37777777777777,151.449391216339L242.43555555555554,151.56262798327288L242.49333333333334,151.65823464523606L242.5511111111111,151.73708313662323L242.79666666666665,151.72029682373113L242.88333333333335,151.75532921180195L242.94111111111113,151.79751485005056L242.97,151.82459008345032L243.3311111111111,151.9083522358479L243.60555555555555,152.26154089563738L243.70666666666668,152.60038501378094L243.72111111111113,152.82741726253147L243.95222222222222,153.28904712685173L243.99555555555554,153.61325114660403L244.45777777777778,154.1630103867825L244.47222222222223,154.49428496847014L244.48666666666668,154.69050340705783L244.83333333333334,154.8546383252959L245.03555555555556,155.10019522733813L245.54111111111112,155.4649073590477" style="fill: none;" fill="none"></path></g></g></g></g><g opacity="0.2"><g><g><g><path stroke="rgb(255, 112, 67)" stroke-width="2px" d="M29.148888888888887,152.93816775083545L29.495555555555555,133.80519784986976L29.538888888888888,133.14017318189147L29.69777777777778,131.67680725455287L29.91444444444444,130.85956759750846L29.95777777777778,130.77774085104468L30.246666666666666,130.3074359893799L31.127777777777776,129.05536741018298L31.171111111111113,129.01873104274276L31.301111111111112,128.88418771326545L32.196666666666665,128.04957479238513L32.26888888888889,127.98972986638547L32.572222222222216,127.62913517653944L32.644444444444446,127.51862928271295L32.745555555555555,127.38504745066167L32.83222222222222,127.29725278913976L33.337777777777774,126.77774578332902L33.36666666666667,126.74054577946664L33.48222222222222,126.60732865333559L33.90111111111111,126.43260136246683L34.190000000000005,126.09584517776968L34.97,125.06717555224897L34.98444444444445,125.0610087066889L35.27333333333333,124.61517229676248L35.53333333333333,124.4516182690859L35.73555555555556,124.45294447243215L36.63111111111111,123.11112508177759L37.02111111111111,122.68246300518514L37.25222222222222,122.4056512117386L37.35333333333333,122.22870253026487L37.367777777777775,122.20910787582399L37.84444444444444,121.27320617437364L38.04666666666667,120.90455479919912L38.162222222222226,120.64985744655134L38.23444444444444,120.48796117305757L38.263333333333335,120.42443603277208L38.43666666666667,119.8913022875786L38.581111111111106,119.35412362217905L39.202222222222225,117.17507205903532L39.31777777777778,116.92110411822797L39.43333333333334,116.65758751332761L39.80888888888889,115.7557360827923L39.93888888888889,115.39759486913682L39.99666666666666,115.24445153772832L40.025555555555556,115.20071998238565L40.22777777777778,114.91396166384222L40.25666666666666,114.8679092526436L40.357777777777784,114.72700014710428L40.473333333333336,114.5474322140217L40.56,114.38082791864873L40.964444444444446,113.6278096586466L42.01888888888889,110.89423932135107L42.495555555555555,110.24307347834112L42.53888888888889,110.18034406006338L42.784444444444446,109.4972498714924L42.91444444444445,109.13513004779817L42.928888888888885,109.09292362630369L43.01555555555556,108.90543162822725L43.03,108.85649472475053L43.102222222222224,108.6075995117426L43.36222222222222,107.99903795123102L43.40555555555556,107.88892991840841L43.535555555555554,107.4055287986994L44.24333333333333,105.70155642926694L44.28666666666667,105.581833422184L44.373333333333335,105.36523126065732L44.46,105.19965477287771L44.532222222222224,104.99614886939527L44.67666666666667,104.39289212226869L44.763333333333335,103.86469848454L44.83555555555556,103.43825779855253L45.586666666666666,100.10746493935586L45.65888888888889,99.91108737885953L45.67333333333333,99.87136758863927L45.93333333333333,99.12570975720884L46.12111111111111,98.42272251844408L46.30888888888889,97.89466150105001L46.85777777777778,96.90335765480995L47.10333333333333,96.31588272750378L47.39222222222222,95.58729976415634L47.58,95.04471682012081L47.89777777777778,93.75574663281441L47.941111111111105,93.58639046549797L48.14333333333334,93.22602786123753L48.20111111111111,93.12487170100212L48.894444444444446,89.50785100460052L48.995555555555555,88.50225731730463L49.31333333333334,86.26966029405595L49.486666666666665,85.50099283456804L49.63111111111111,85.00512540340425L50.06444444444445,83.98636914789678L50.22333333333333,82.82408453524114L50.33888888888889,81.75675608217718L50.425555555555555,81.06464371085168L50.88777777777778,77.84389257431032L50.94555555555556,77.31175348162652L51.306666666666665,75.65721534192564L51.53777777777778,75.3258302807808L51.55222222222222,75.2843201160431L51.76888888888889,74.74833503365518L51.82666666666667,74.61226657032968L52.07222222222222,74.19905476272108L52.577777777777776,72.16396257281305L52.693333333333335,71.49117961525918L52.98222222222222,69.85975056886674L53.184444444444445,68.84934939444067L53.31444444444444,67.55175888538362L53.40111111111111,66.72085933387281L53.47333333333333,66.1691587418318L53.574444444444445,65.57193621993066L53.70444444444444,64.71126340329647L53.906666666666666,63.55153173208237L53.93555555555555,63.397227972745895L53.97888888888889,63.222964853048325L54.108888888888885,62.979042902588844L54.614444444444445,60.42318381369114L54.96111111111111,60.083675757050514L55.26444444444444,59.88232493400574L55.52444444444444,59.218162298202515L55.654444444444444,58.57647880911827L55.842222222222226,58.322179317474365L55.885555555555555,58.20726379752159L56.00111111111111,57.94706270098686L56.57888888888889,56.36122189462185L56.824444444444445,56.07161223888397L56.96888888888889,55.82735873758793L57.01222222222222,55.55134266614914L57.30111111111111,53.76560986042023L57.53222222222222,52.11382359266281L57.79222222222222,51.1621069163084L57.965555555555554,49.98934529721737L58.21111111111111,48.47041144967079L58.297777777777775,48.02858680486679L58.644444444444446,46.88924551010132L58.83222222222222,45.588140562176704L58.87555555555556,45.34004107117653L58.89,45.24289667606354L59.00555555555556,44.44309659302235L59.06333333333333,44.00956071913242L59.16444444444445,43.3330312371254L59.87222222222222,39.865075796842575L59.93,39.94511216878891L60.03111111111111,40.114932507276535L60.16111111111111,40.27546942234039L60.47888888888889,39.83633033931255L60.53666666666667,39.889975264668465L60.65222222222222,39.99865762889385L60.76777777777778,40.273844823241234L60.82555555555556,40.41084162890911L61.114444444444445,40.98962992429733L61.18666666666667,40.72551652789116L61.20111111111111,40.697599947452545L61.27333333333333,40.37337638437748L61.446666666666665,39.89256136119366L61.489999999999995,39.94511216878891L61.562222222222225,39.8657388985157L61.836666666666666,39.59837630391121L62.06777777777778,39.36486504971981L62.21222222222222,39.20111209154129L62.385555555555555,39.04833346605301L62.761111111111106,38.23377937078476L62.89111111111111,37.80329376459122L63.39666666666667,37.378378212451935L63.41111111111111,37.362165376544L63.44,37.33368515968323L64.07555555555555,37.24174611270428L64.19111111111111,36.82094179093838L64.32111111111111,36.44237704575062L64.35,36.320001631975174L64.42222222222223,36.02866791188717L64.78333333333333,35.51512882113457L64.79777777777778,35.53280048072338L64.94222222222221,35.78584007918835L64.97111111111111,35.853973776102066L65.04333333333332,36.14918664097786L65.24555555555557,36.42805404961109L65.33222222222221,36.33260056376457L65.46222222222222,36.174351349473L65.67888888888889,36.22630536556244L65.76555555555557,36.39426901936531L66.44444444444444,35.765449702739716L66.53111111111112,35.763195157051086L66.77666666666667,36.18668504059315L66.86333333333333,36.00051924586296L67.57111111111111,38.50260078907013L67.67222222222222,38.983482122421265L67.74444444444444,38.891443610191345L67.93222222222222,38.335996493697166L68.46666666666665,38.874633982777596L68.66888888888889,38.25964033603668L69.17444444444445,34.79122072458267L70.37333333333333,36.899685114622116L70.50333333333333,37.17371188104153L70.63333333333334,37.50337287783623L70.72,37.66460604965687L71.06666666666666,38.53963501751423L71.74555555555555,41.69536903500557L71.86111111111111,42.1940878033638L72.38111111111111,44.73525919020176L72.61222222222223,46.245406940579414L72.65555555555555,46.53501659631729L72.77111111111111,47.2965557128191L72.81444444444445,47.50281348824501L73.16111111111111,48.462387919425964L73.21888888888888,48.55598472058773L73.65222222222222,48.794469237327576L74.20111111111112,49.79943297803402L74.46111111111112,50.345729291439056L74.54777777777778,50.48673786222935L74.77888888888889,51.25749409198761L75.03888888888889,52.18464285135269L75.05333333333334,52.249958366155624L75.54444444444445,54.27275002002716L75.68888888888888,54.7710046172142L75.73222222222223,54.946693405508995L75.74666666666667,54.985617473721504L75.77555555555556,55.035316944122314L75.78999999999999,55.07550090551376L76.1511111111111,54.56693507730961L76.62777777777778,56.65971711277962L77.20555555555556,59.656571969389915L77.65333333333334,61.54889836907387L78.04333333333334,62.774310261011124L78.11555555555556,63.06584291160107L78.43333333333334,64.52867835760117L78.70777777777778,66.13679938018323L78.92444444444445,66.92572459578516L79.15555555555557,68.03300492465497L79.57444444444445,67.34672784805299L79.61777777777777,67.2829706221819L79.97888888888889,66.09300151467325L80.35444444444444,65.4323533177376L80.6,65.64295440912248L80.88888888888889,66.34600795805456L81.14888888888889,67.17694066464902L81.17777777777778,67.23081767559053L81.20666666666668,67.28098131716253L81.29333333333332,67.17448718845846L81.69777777777779,66.68796949088575L81.9,66.9480048120022L82.7088888888889,69.22068633139135L82.76666666666668,69.52438689768316L82.92555555555555,70.15105113387109L83.37333333333333,67.89527870714666L83.4888888888889,65.29910303652288L83.67666666666668,62.67792843282223L83.7488888888889,61.84971444308758L83.98,60.37040092051029L84.05222222222223,59.96551103889942L84.08111111111111,59.80139337480068L84.22555555555554,59.54712703824043L84.28333333333333,59.61131528019905L84.70222222222222,60.48929505050182L84.87555555555555,60.36035493016243L85.62666666666667,61.78343743085861L85.78555555555555,62.42250166833401L86.03111111111112,62.109583988785744L86.43555555555555,61.380404233932495L86.81111111111112,61.15853041410446L86.98444444444445,61.05823628604412L87.14333333333333,60.87425872683525L87.18666666666667,60.82422770559788L88.01,62.13955618441105L88.08222222222223,62.4455776065588L88.09666666666666,62.483009696006775L88.24111111111111,63.03338408470154L89.29555555555555,68.26439425349237L89.45444444444445,68.86174939572813L89.46888888888888,68.91559325158597L89.49777777777777,69.0244745463133L89.57,69.33188848197462L89.58444444444444,69.38294731080533L89.94555555555556,70.985896140337L90.01777777777778,71.2613817304373L90.06111111111112,71.39731757342817L90.17666666666666,71.84879034757616L90.46555555555555,73.41805361211301L90.50888888888889,73.65093491971494L90.52333333333334,73.72828572988512L90.74,74.50391575694086L91.05777777777777,74.98463131487371L91.24555555555555,75.73665492236616L91.27444444444444,75.80618113279344L91.46222222222222,76.65481865406038L91.99666666666667,79.27599325776102L92.34333333333333,80.7182725518942L92.44444444444444,81.0463421046734L92.5311111111111,81.24301806092264L92.87777777777778,82.61023424565794L92.9211111111111,82.78287276625635L93.77333333333334,86.1214902251959L94.01888888888888,86.03488914668561L94.03333333333335,86.04533299803735L94.32222222222222,86.09251268208028L94.36555555555556,86.12841963768007L94.49555555555555,86.42495870590211L95.01555555555557,88.48912790417673L95.05888888888889,88.74123916029932L95.28999999999999,90.03199972212315L95.73777777777778,92.02140420675278L96.14222222222222,92.81089305877686L96.25777777777778,92.87282675504684L96.31555555555556,92.95607917010784L96.43111111111111,93.27178187668324L96.59,93.59938725829124L96.96555555555557,94.34842690825462L97.03777777777778,94.50428895652294L97.2688888888889,94.33791674673557L97.5,93.8510674983263L97.61555555555556,93.70554983615875L97.74555555555557,93.44514980912209L97.87555555555556,93.20109523832798L98.03444444444443,93.15593801438808L98.0488888888889,93.159419298172L98.22222222222221,93.31806637346745L98.25111111111111,93.42880435287952L98.8,92.38223098218441L98.97333333333333,92.31631867587566L99.24777777777778,91.70838706195354L99.58,92.58872084319592L99.86888888888889,92.36512295901775L100.56222222222222,91.24169610440731L100.69222222222223,90.98355062305927L100.73555555555555,91.00055918097496L100.76444444444444,91.03066399693489L101.50111111111111,93.46457868814468L101.54444444444444,93.66161935031414L101.83333333333333,95.082513615489L101.86222222222223,95.15014998614788L101.87666666666667,95.19212432205677L101.97777777777779,95.51074467599392L102.23777777777777,95.6475093960762L102.64222222222223,92.88731552660465L102.93111111111111,90.9952875226736L103.04666666666667,90.51626287400723L103.49444444444444,90.62424898147583L103.74000000000001,90.64102545380592L104,91.225615888834L104.11555555555556,91.63173250854015L104.56333333333333,93.12417544424534L104.95333333333333,93.08833479881287L105.28555555555556,93.46235729753971L105.70444444444445,93.53493377566338L105.86333333333333,92.87925884127617L106.09444444444445,92.59008020162582L106.29666666666667,93.02179254591465L106.6,93.4888482093811L107.17777777777778,93.97178515791893L107.49555555555555,92.5366673618555L107.56777777777778,92.30388551950455L108.10222222222222,91.71233251690865L108.2611111111111,90.63638374209404L108.34777777777778,90.42687676846981L108.55,89.94138687849045L108.57888888888888,89.91870880126953L109.0411111111111,89.75399434566498L109.38777777777777,90.27383290231228L109.5611111111111,90.01227244734764L109.59,90.01774303615093L109.67666666666666,90.01880399882793L109.85,88.15611824393274L110.21111111111111,85.0873500108719L110.61555555555556,84.51065048575403L110.64444444444445,84.54619273543359L110.70222222222222,84.62231680750848L110.91888888888889,85.5239361524582L111.5111111111111,87.20705397427083L111.55444444444446,87.3579427599907L112.32,91.3890041410923L112.36333333333333,91.68653786182404L112.50777777777778,92.43471547961235L112.76777777777778,93.47217120230198L112.78222222222222,93.50094981491566L113.02777777777779,94.01707500219345L113.07111111111111,94.13288570940495L113.56222222222222,95.35494893789291L113.5911111111111,95.41048370301723L113.69222222222221,95.68106234073639L114.08222222222221,95.87435647845268L114.21222222222222,95.86818963289261L114.51555555555557,96.60850949585438L114.86222222222221,97.56112135946752L114.93444444444444,97.62739837169649L115.02111111111111,97.77941443026067L115.41111111111111,98.78852255642416L115.7,99.64624457061292L115.77222222222223,99.79859218001367L115.9888888888889,100.34273341298105L116.06111111111112,100.52893236279489L116.68222222222222,102.3630052804947L116.74000000000001,102.50749513506891L117.04333333333334,103.57150807976724L117.07222222222222,103.67339365184309L117.30333333333333,104.8355456441641L117.33222222222223,104.95301410555841L117.41888888888889,105.2571125328541L117.44777777777779,105.35034462809564L117.70777777777778,106.36840462684633L118.04,107.57432132959367L118.17,107.90878981351854L118.44444444444444,108.0155160278082L118.60333333333334,108.01014490425588L118.63222222222223,108.02410319447519L118.7188888888889,108.00845399498941L118.90666666666667,108.2324828952551L119.16666666666666,108.73852893710138L119.73,110.50334088504316L120.06222222222222,111.20450459420682L120.12,111.40575595200063L120.13444444444444,111.44504472613336L120.23555555555555,111.73773780465127L120.48111111111112,112.1274095028639L120.64,112.02532500028612L120.79888888888888,111.77606508135797L120.9,110.96416339278223L120.98666666666666,109.36167873442174L121.33333333333333,104.24369424581529L122.18555555555555,102.30160206556322L122.70555555555555,102.55520530045034L122.72,102.5789111852646L122.77777777777777,102.6529796421528L123.06666666666666,103.338560461998L123.08111111111111,103.33670377731325L123.09555555555555,103.33570912480356L123.21111111111112,103.18087488412858L123.84666666666666,101.73209719359876L123.94777777777777,101.72178596258165L123.99111111111111,101.69280841946603L124.26555555555555,102.37172506749631L125.04555555555555,104.2747274041176L125.17555555555556,104.8303071409464L125.20444444444445,104.90301623940469L125.26222222222223,104.99561838805677L125.34888888888888,105.25684729218484L125.39222222222223,105.34553714096548L125.49333333333334,105.40946014225484L125.60888888888888,105.69011792540552L125.65222222222222,105.79177141189577L125.82555555555555,106.46644420921804L126.21555555555555,107.35214911401273L126.27333333333334,107.35921114683153L126.43222222222222,107.28411488234998L126.5911111111111,106.76928274333478L127.57333333333332,108.40236954391004L127.77555555555556,108.97263698279859L127.8911111111111,109.39201563596727L128.09333333333333,109.9167611449957L128.10777777777778,109.93227772414686L128.48333333333332,108.2716390490532L128.68555555555557,107.70760476589204L129.04666666666668,108.49762409925462L129.46555555555557,109.20836962759496L129.5088888888889,109.26546268165113L129.88444444444443,110.31382642686368L130.14444444444445,111.48353777825834L130.20222222222222,111.68843619525434L130.56333333333333,113.14142458140851L130.9388888888889,110.83648316562177L131.31444444444446,105.5051125586033L131.53111111111113,104.20569851994516L131.64666666666665,103.7958685308695L131.6611111111111,103.74076478183271L131.9788888888889,103.8255423307419L132.03666666666666,103.97885143756868L132.23888888888888,104.57501299679281L132.81666666666666,105.87999708950521L132.94666666666666,106.09487518668176L133.12,106.63865171372892L133.39444444444445,107.7428486198187L133.4377777777778,107.94519409537317L133.56777777777776,108.55392143130304L134.33333333333334,106.60370625555517L134.4922222222222,106.5915383398533L134.7522222222222,107.11290203034879L134.89666666666668,107.57524967193605L134.9111111111111,107.60644860565664L135.1711111111111,107.29203894734384L135.18555555555554,107.2555683553219L135.51777777777778,106.91911056637765L135.57555555555555,106.91609345376493L135.79222222222222,107.41958655416967L136.22555555555556,109.09381881356241L136.35555555555555,109.70997288823129L136.3988888888889,109.89928841590883L136.5,110.25892160832883L136.64444444444445,110.86201258003713L136.68777777777777,110.95332168042661L136.76000000000002,110.96393130719663L136.90444444444444,111.02324575185777L137.2511111111111,110.7833355665207L137.38111111111112,110.90431846678258L137.65555555555557,111.43221370875837L137.9011111111111,111.89641803503038L138.79666666666668,114.11227174103261L139.30222222222224,113.77597972750665L139.54777777777778,114.3546685576439L139.6922222222222,114.87831994891168L139.76444444444445,115.12234136462213L139.92333333333335,115.15098735690118L140.01,114.89270925521852L140.11111111111111,114.21409100294115L140.3711111111111,112.89793364703657L140.44333333333333,112.75719031691553L140.51555555555555,112.64141276478769L140.77555555555554,112.92505450546743L140.93444444444444,113.29692192375661L140.9777777777778,113.39840963482858L141.26666666666668,113.75280432403089L141.38222222222223,113.89862038195135L141.52666666666667,114.22373913228513L141.70000000000002,114.83256593346597L142.0322222222222,115.56167937815191L142.10444444444445,115.7240066677332L142.98555555555555,117.96233952045442L143,118.00822615623476L143.46222222222224,119.32136639952661L144.08333333333334,121.2068296968937L144.19888888888892,121.56918160617353L144.31444444444443,122.08484262228014L144.32888888888888,122.13825546205045L144.82000000000002,123.16798605024816L144.9788888888889,123.54131229221822L145.1522222222222,123.7991262227297L145.39777777777778,123.56554865837099L146.26444444444445,123.5073283314705L146.61111111111111,123.26370477676393L147.04444444444445,122.7001015096903L147.10222222222222,122.68548011779787L147.30444444444444,122.21401482820512L147.55,120.24712264537813L147.63666666666666,119.67101991176607L148.24333333333334,120.12879215180875L148.47444444444443,120.2750723809004L148.63333333333333,120.39197720587255L148.76333333333335,120.54959647357465L148.87888888888887,120.88439650833608L149.1677777777778,121.92941159009935L149.19666666666666,122.02038913965227L149.23999999999998,122.13835492730142L149.26888888888888,122.21278809010984L149.35555555555555,122.58886620402338L149.64444444444445,123.87040965259077L149.6877777777778,124.01211448013784L149.76,124.21366423368455L149.89000000000001,124.33013804256917L150.9011111111111,122.45627902448179L151.19,123.22043739259244L151.20444444444445,123.27448017895223L151.23333333333332,123.37835505604745L151.43555555555554,124.09702464938165L151.49333333333334,124.3786107748747L151.62333333333333,124.99721832573415L151.63777777777779,125.05961619317533L151.71,125.26239268481733L151.7822222222222,125.3442194312811L151.99888888888887,125.50091035664083L152.4466666666667,126.26868262887002L152.62,126.32169760763647L152.7211111111111,126.39957889914514L152.79333333333332,126.48753933608533L152.99555555555554,127.02196612954141L153.12555555555556,127.1040912717581L153.5011111111111,127.22321748733522L153.60222222222222,127.27109342813493L153.61666666666667,127.26983353495599L153.74666666666667,127.40613408386709L154.29555555555555,128.84702086448672L154.41111111111113,129.15987223386767L154.42555555555558,129.19382303953174L154.48333333333332,129.30227331817153L154.94555555555556,129.30068187415603L155.62444444444444,129.07807864248755L155.6822222222222,128.67047004401687L155.9422222222222,127.8761073946953L156.01444444444445,127.8288282454014L156.27444444444444,127.96327210962774L156.31777777777776,127.96496301889421L156.6211111111111,128.4319192171097L156.78,128.51619943976405L157.12666666666667,127.59710736572744L157.2277777777778,127.50032767653467L157.47333333333333,127.08187736570837L157.5022222222222,127.02110409736635L157.54555555555555,126.90264098346235L157.8488888888889,124.23292733728887L157.87777777777777,123.71806204319002L157.95000000000002,122.64217957854272L158.1088888888889,120.79699970781805L158.2822222222222,119.8111664503813L158.5277777777778,119.30704340338708L158.7877777777778,119.43830437958242L158.87444444444444,119.6215856820345L159.01888888888888,119.87472474575044L159.2788888888889,120.08131407201292L159.29333333333335,120.11795043945314L159.68333333333334,121.13388851284982L159.79888888888888,121.53002545237543L159.94333333333333,122.09190465509893L160.10222222222222,122.47680202126504L160.40555555555554,121.72753028571607L160.66555555555556,121.24654948711397L161.12777777777777,121.15961685776712L161.2288888888889,121.39312811195852L161.98,122.83129617571832L162.00888888888886,122.82900847494604L162.15333333333334,122.57378064095975L162.25444444444446,122.53402769565584L162.64444444444445,121.34087570011617L162.94777777777776,119.60411295294763L163.09222222222223,118.96425299346448L163.32333333333332,118.55114065110685L163.35222222222222,118.47770214080812L163.45333333333335,118.17141547799112L163.91555555555556,118.1957844644785L163.98777777777778,118.36235560476781L164.14666666666665,118.68797168135644L164.2188888888889,118.83753426373006L164.84,121.8112137168646L164.88333333333333,122.01534956693651L165.17222222222225,122.89730794727804L165.2588888888889,122.96103201806547L165.27333333333334,122.93029725551607L165.64888888888888,122.10911214351655L165.75,122.20990359783174L166.66,123.97441715002061L166.79,124.60744716227056L166.8911111111111,125.16786754131319L166.93444444444447,125.36480873823167L167.03555555555556,125.76349861919881L167.07888888888888,125.89393071830274L167.39666666666668,127.03221105039121L167.55555555555557,127.73476727306844L167.71444444444447,128.58662083745006L167.88777777777779,129.58618029952052L167.90222222222224,129.65375036001208L167.94555555555556,129.79515679180625L168.29222222222222,131.0066767036915L168.3788888888889,131.1456296592951L168.7111111111111,132.43791535496715L168.85555555555555,132.6197046786547L168.9711111111111,132.92884267866614L169.85222222222222,126.03510506451131L169.98222222222222,125.88017135858537L170.11222222222221,125.31056702136995L170.61777777777777,122.18702659010889L171.02222222222224,122.18274958431722L171.06555555555556,122.18361161649229L171.64333333333335,122.9210138320923L171.98999999999998,122.74257317185403L172.13444444444443,122.61164374649526L172.92888888888888,124.30281825363637L173.11666666666667,124.98326003551485L173.53555555555553,126.0429296642542L174.05555555555554,126.61651261150838L174.12777777777777,126.932580024004L174.14222222222222,127.00320035219194L174.17111111111112,127.15932764112951L174.37333333333333,128.05753201246264L174.54666666666668,125.35512745380403L174.8788888888889,122.0011591911316L174.96555555555557,121.46384790539743L175.18222222222224,121.05899117887022L175.26888888888888,120.86904570460321L175.41333333333333,120.75807563960554L175.76000000000002,119.92061138153078L176.00555555555556,119.56160813570024L176.32333333333335,119.10022199153902L176.7711111111111,116.47467091679574L176.8722222222222,116.15256927907468L177.0311111111111,116.08529761433603L177.26222222222222,116.50470942258836L177.32000000000002,116.68789125978948L177.42111111111112,117.10067205131055L177.49333333333334,117.24973730742933L178.10000000000002,119.14793215692045L178.62,120.69130130112173L179.02444444444444,122.06289395689966L179.05333333333334,122.17923514544965L179.0677777777778,122.23092392086984L179.09666666666666,122.3110929131508L179.18333333333334,122.37736992537977L179.31333333333333,122.55753464996816L179.39999999999998,122.8262234479189L179.47222222222223,122.97505661845209L179.89111111111112,122.43250682950021L180.09333333333333,120.99112272262575L180.25222222222223,119.85264346003534L180.39666666666665,119.61256749927999L180.45444444444445,119.67771723866464L180.4688888888889,119.67446804046632L180.87333333333333,120.81072591245176L181.00333333333336,120.95879651606084L181.11888888888888,120.95047459006311L181.33555555555554,121.044734492898L181.35,121.07298262417318L181.52333333333334,121.3491976261139L181.9711111111111,123.22063632309438L182.1011111111111,123.62841069698335L182.2888888888889,123.85890483856203L182.34666666666666,123.7925946712494L182.4188888888889,123.46876896917821L182.54888888888888,122.91415072977544L182.66444444444446,122.73415178060533L182.76555555555558,122.73975498974325L182.78,122.74297103285791L183.02555555555557,122.71415926516057L183.45888888888888,122.40548543632032L183.60333333333335,121.9066008925438L184.13777777777779,122.32538275420667L184.26777777777778,122.69028760492803L184.2822222222222,122.72974215447904L184.3688888888889,123.05250689387323L184.6,124.05100539326669L184.7011111111111,124.34436157345773L185.10555555555555,125.86266547441484L185.12,125.94243660569192L185.25,126.67221315205099L185.32222222222222,127.00339928269388L185.4811111111111,127.82044000923635L185.61111111111111,128.2525170594454L185.81333333333333,128.8255695253611L185.97222222222223,129.22243587672713L186.36222222222221,131.20978474617007L186.40555555555557,131.44886605441573L186.53555555555556,131.9756340235472L186.89666666666668,133.3032298833132L186.95444444444445,133.43485556542876L187.08444444444444,133.68888981640342L187.2866666666667,134.05429199337962L187.37333333333333,134.05803851783278L187.4022222222222,134.06960964202884L187.89333333333335,133.45511332154277L187.98,133.2960352301598L188.0666666666667,133.37845876812938L188.09555555555556,133.36513042449954L188.11,133.3539240062237L188.25444444444446,133.55365023016932L188.32666666666668,133.74001495540145L188.5288888888889,134.1374780982733L188.6588888888889,134.578175470233L188.89000000000001,135.23587286472323L189.25111111111113,134.66729633510116L189.52555555555554,134.08051766455176L189.65555555555557,133.60010050237182L189.91555555555556,132.096915319562L190.30555555555554,132.48655386269095L190.63777777777779,133.25575180351737L190.66666666666666,133.21115821599963L190.6811111111111,133.19584056735042L191.4177777777778,133.8500235229731L191.53333333333333,133.9336406439543L191.57666666666668,133.92329625785354L191.70666666666665,133.92982780933383L192.25555555555556,133.46588872373107L192.70333333333332,133.7003614753485L192.99222222222224,134.3673422932625L193.19444444444446,134.9380407482386L193.26666666666665,134.84964929521087L193.71444444444444,134.0599946677685L193.83,133.91480855643752L193.85888888888888,133.78782458603385L194.35000000000002,132.83846192061904L194.39333333333335,132.54096135497096L194.59555555555556,131.0599569231272L194.63888888888889,130.8317504823208L194.79777777777778,130.47191835939887L194.88444444444443,130.54267130792144L195.28888888888886,130.46837076544764L195.33222222222224,130.5212199687958L195.34666666666666,130.54015152156356L195.43333333333334,130.64767345786098L195.4622222222222,130.68109378218654L195.70777777777778,131.0483526438475L195.82333333333332,131.24234303832057L195.95333333333335,131.2926393002272L196.17,131.691362336278L196.4011111111111,132.53217525780204L196.96444444444444,133.7465133517981L197.13777777777779,134.16197970509532L197.16666666666666,134.26250591874125L197.3111111111111,134.8862856626511L197.47,135.71539483964446L197.5711111111111,136.28678955137732L197.67222222222225,136.92190833389762L197.70111111111112,137.08861209452155L197.94666666666666,138.15613947808745L198.2211111111111,138.78061547875407L198.7411111111111,139.97767977416518L198.88555555555556,138.99250961840156L199.1311111111111,137.4915458261967L199.2177777777778,137.1548227965832L199.34777777777776,136.86524629592898L199.7811111111111,135.821457952261L200.11333333333334,136.21978312730792L200.12777777777777,136.25383339822295L200.38777777777779,137.4364420771599L200.79222222222222,139.457443356514L200.86444444444444,139.73478563129905L201.0522222222222,140.6417760998011L201.25444444444446,141.4256948977709L201.37,141.51982218027118L201.44222222222223,141.60257726907733L201.4711111111111,141.60781577229503L201.48555555555555,141.60794839262965L201.77444444444447,141.83240830898288L201.84666666666666,141.893944144249L202.04888888888888,142.43125542998317L202.19333333333333,142.88107044994834L202.26555555555555,143.17492395639422L202.36666666666667,143.51171329617503L202.64111111111112,144.1001828759909L202.81444444444443,144.31406632065776L203.32,143.6137977987528L203.45,143.44135820865634L204.14333333333335,144.93008777499202L204.21555555555554,145.12580223381522L204.4322222222222,145.05833163857463L204.5911111111111,145.10033912956717L204.64888888888888,145.00233270227912L204.88,144.44811232388022L205.06777777777776,143.54297854006293L205.35666666666668,142.2351431101561L205.48666666666668,141.51839651167396L205.60222222222222,141.0340338945389L205.89111111111112,140.592971816659L206.12222222222223,141.0813130438328L206.4111111111111,141.044444590807L206.45444444444445,140.95681570470336L206.68555555555557,140.78749269247058L206.91666666666666,139.9838797748089L207.07555555555555,139.73432146012786L207.94222222222223,139.19104225933555L208.07222222222222,139.48459737002852L208.08666666666667,139.5146690309048L208.52,140.66859856247905L208.79444444444442,141.31442643702033L208.83777777777777,141.39857403934005L209.15555555555554,141.94874949753287L209.79111111111112,141.29576012492183L210.09444444444443,141.85336232185367L210.18111111111114,141.95246286690238L210.21,141.97882115840915L210.51333333333332,142.5622843205929L210.8311111111111,143.0508576333523L211.25,137.7823490649462L211.91444444444443,137.04219497740272L212.14555555555557,137.7232998609543L212.31888888888886,138.2921747863293L213.17111111111112,138.89911174774173L213.40222222222224,139.61138240993026L213.85,141.24579541385177L213.96555555555557,141.44916869699958L214.26888888888888,141.64886176586154L214.63,141.59458689391616L214.70222222222225,141.70678369700912L214.89000000000001,142.3035752028227L215.07777777777778,143.08295175433162L215.16444444444446,143.40004697442058L215.7711111111111,144.16490159928802L215.78555555555556,144.18353475630286L215.85777777777778,144.19487379491332L216.07444444444445,144.36747916042808L216.91222222222223,147.4634345620871L217.15777777777777,147.69658111035827L217.54777777777778,147.2228612750769L217.5622222222222,147.20886982977393L217.67777777777778,147.11945056915286L217.85111111111112,147.01657034456733L217.89444444444445,147.0046676695347L218.02444444444447,147.2113233059645L218.2411111111111,147.47566878795627L218.29888888888888,146.85470722615722L218.32777777777778,146.3849660009146L218.54444444444442,141.84298478066924L218.80444444444444,138.25451061129573L219.06444444444443,137.54628486931327L219.2811111111111,137.33041211962703L219.42555555555558,137.2914217412472L219.4688888888889,137.3042527586222L219.64222222222222,137.54585385322574L219.65666666666667,137.5953543931246L219.71444444444444,137.67131268978122L220.11888888888888,137.03344203531745L220.49444444444444,136.29922270774844L220.97111111111113,136.92880459129813L221.1877777777778,137.56942711770537L221.70777777777778,138.95046897232535L221.78,139.14711177349093L222.47333333333333,139.3353331834078L222.53111111111113,139.36669789254668L222.82,139.99949581921103L223.51333333333335,143.1498918682337L223.5277777777778,143.22114214301112L223.90333333333334,144.25190053880218L223.94666666666666,144.43524815142158L224.55333333333334,146.4907638728619L224.78444444444443,147.26059176027778L225.29000000000002,149.02308285236361L225.50666666666666,149.56629574298861L225.6222222222222,149.89708401262763L225.69444444444446,149.96074177324775L225.70888888888888,149.98341985046866L226.18555555555554,149.9520551413298L226.43111111111114,149.42618235945704L226.47444444444446,149.3048015981913L226.51777777777778,149.1682689636946L226.70555555555555,148.77203255891803L227.09555555555556,148.3405523002148L227.35555555555555,147.63623885810378L227.45666666666668,147.44334258139136L227.55777777777777,147.43210300803187L227.87555555555556,146.8349799513817L228.17888888888888,147.18781635165217L228.36666666666665,147.92594797909263L228.87222222222223,149.9817952513695L229.20444444444445,151.3090927153826L229.24777777777777,151.52108632028106L229.43555555555557,152.27115377783778L229.49333333333334,152.53579765558246L229.58,152.79662869870666L230.20111111111112,154.5740727335215L230.21555555555557,154.6180032193661L230.48999999999998,154.7606695443392L230.53333333333336,154.47241924703124L230.64888888888888,153.74251008033755L230.66333333333333,153.67056354880336L230.67777777777778,153.5924501717091L230.76444444444445,153.20781804621222L231.05333333333334,152.67899446189406L231.0822222222222,152.65495702624324L231.34222222222223,152.66390889883044L232.06444444444443,153.42296138405803L232.26666666666665,153.9061635732651L232.35333333333335,153.99727374315265L232.84444444444443,154.79737222194674L233.43666666666667,154.2692117393017L233.8411111111111,153.6728844046593L234.2311111111111,154.39778715372088L234.30333333333334,154.60490696132186L234.39,154.85764816403392L234.72222222222223,155.5357359349728L235.08333333333334,156.20722584426406L235.2566666666667,155.9836279600859L235.2711111111111,155.98323009908202L235.35777777777778,156.04612529277804L235.48777777777778,156.33593387901786L235.73333333333332,156.42488896846774L235.90666666666667,156.53370395302775L235.9933333333333,156.61559700965884L236.28222222222223,156.89091682434085L236.34,156.92970827221873L236.68666666666667,157.1325179189444L236.71555555555554,157.10082165896895L236.84555555555556,157.14551471173766L237.56777777777776,158.75366888940337L237.91444444444443,159.31982509791854L237.92888888888888,159.26143899559978L238.24666666666667,156.23560659587386L238.7522222222222,155.45676052570346L238.76666666666668,155.45410811901095L239.11333333333332,154.41774651408198L239.14222222222222,154.36728447675708L239.15666666666667,154.3337978422642L239.59,152.77030356228354L239.95111111111112,151.78702324628833L239.99444444444444,151.83725319802764L240.02333333333334,151.87806710600856L240.24,151.92232914268973L240.32666666666668,152.05939225852492L240.61555555555555,152.03548744320872L240.76000000000002,152.04894840717319L240.77444444444444,152.06068530678752L240.89,152.13352702558043L240.9477777777778,152.19914093613627L241.03444444444443,152.12769173085692L241.26555555555555,151.30839645862582L241.88666666666666,150.8259899914265L242.06,151.01500712335113L242.21888888888887,151.26071944832805L242.36333333333334,151.53050236403945L242.37777777777777,151.5745654702187L242.43555555555554,151.7324831336737L242.49333333333334,151.80164463818076L242.5511111111111,151.85535587370399L242.79666666666665,151.69511735439303L242.88333333333335,151.80787779390815L242.94111111111113,151.86079330742362L242.97,151.8652029335499L243.3311111111111,152.0339954644442L243.60555555555555,152.79132388532165L243.70666666666668,153.1086511909962L243.72111111111113,153.16796563565734L243.95222222222222,153.98149192333224L243.99555555555554,154.09955717623237L244.45777777777778,154.9876492470503L244.47222222222223,154.99119684100154L244.48666666666668,154.98483106493953L244.83333333333334,155.10084070265296L245.03555555555556,155.46853058040145L245.54111111111112,156.01197555661204" style="fill: none;" fill="none"></path></g></g></g></g></g></g><g transform="translate(70, 178)" clip-path="url(#clip_1)"><clipPath id="clip_1"><rect width="260" height="21"></rect></clipPath><g><g><line x1="0" y1="0" x2="0" y2="5" style="visibility: inherit;" fill="rgb(0, 0, 0)" stroke="rgb(204, 204, 204)" stroke-width="1px"></line><line x1="28.888888888888886" y1="0" x2="28.888888888888886" y2="5" style="visibility: inherit;" fill="rgb(0, 0, 0)" stroke="rgb(204, 204, 204)" stroke-width="1px"></line><line x1="57.77777777777777" y1="0" x2="57.77777777777777" y2="5" style="visibility: inherit;" fill="rgb(0, 0, 0)" stroke="rgb(204, 204, 204)" stroke-width="1px"></line><line x1="86.66666666666666" y1="0" x2="86.66666666666666" y2="5" style="visibility: inherit;" fill="rgb(0, 0, 0)" stroke="rgb(204, 204, 204)" stroke-width="1px"></line><line x1="115.55555555555554" y1="0" x2="115.55555555555554" y2="5" style="visibility: inherit;" fill="rgb(0, 0, 0)" stroke="rgb(204, 204, 204)" stroke-width="1px"></line><line x1="144.44444444444446" y1="0" x2="144.44444444444446" y2="5" style="visibility: inherit;" fill="rgb(0, 0, 0)" stroke="rgb(204, 204, 204)" stroke-width="1px"></line><line x1="173.33333333333331" y1="0" x2="173.33333333333331" y2="5" style="visibility: inherit;" fill="rgb(0, 0, 0)" stroke="rgb(204, 204, 204)" stroke-width="1px"></line><line x1="202.22222222222223" y1="0" x2="202.22222222222223" y2="5" style="visibility: inherit;" fill="rgb(0, 0, 0)" stroke="rgb(204, 204, 204)" stroke-width="1px"></line><line x1="231.1111111111111" y1="0" x2="231.1111111111111" y2="5" style="visibility: inherit;" fill="rgb(0, 0, 0)" stroke="rgb(204, 204, 204)" stroke-width="1px"></line><line x1="260" y1="0" x2="260" y2="5" style="visibility: inherit;" fill="rgb(0, 0, 0)" stroke="rgb(204, 204, 204)" stroke-width="1px"></line></g><g transform="translate(0, 8)"><text x="0" y="0" dx="0em" dy="0.95em" style="text-anchor: middle; visibility: hidden; font-family: Roboto, sans-serif; font-size: 12px; font-weight: 200;" fill="rgb(50, 49, 63)" stroke="none" stroke-width="1px">-2k</text><text x="28.888888888888886" y="0" dx="0em" dy="0.95em" style="text-anchor: middle; visibility: inherit; font-family: Roboto, sans-serif; font-size: 12px; font-weight: 200;" fill="rgb(50, 49, 63)" stroke="none" stroke-width="1px">0</text><text x="57.77777777777777" y="0" dx="0em" dy="0.95em" style="text-anchor: middle; visibility: inherit; font-family: Roboto, sans-serif; font-size: 12px; font-weight: 200;" fill="rgb(50, 49, 63)" stroke="none" stroke-width="1px">2k</text><text x="86.66666666666666" y="0" dx="0em" dy="0.95em" style="text-anchor: middle; visibility: inherit; font-family: Roboto, sans-serif; font-size: 12px; font-weight: 200;" fill="rgb(50, 49, 63)" stroke="none" stroke-width="1px">4k</text><text x="115.55555555555554" y="0" dx="0em" dy="0.95em" style="text-anchor: middle; visibility: inherit; font-family: Roboto, sans-serif; font-size: 12px; font-weight: 200;" fill="rgb(50, 49, 63)" stroke="none" stroke-width="1px">6k</text><text x="144.44444444444446" y="0" dx="0em" dy="0.95em" style="text-anchor: middle; visibility: inherit; font-family: Roboto, sans-serif; font-size: 12px; font-weight: 200;" fill="rgb(50, 49, 63)" stroke="none" stroke-width="1px">8k</text><text x="173.33333333333331" y="0" dx="0em" dy="0.95em" style="text-anchor: middle; visibility: inherit; font-family: Roboto, sans-serif; font-size: 12px; font-weight: 200;" fill="rgb(50, 49, 63)" stroke="none" stroke-width="1px">10k</text><text x="202.22222222222223" y="0" dx="0em" dy="0.95em" style="text-anchor: middle; visibility: inherit; font-family: Roboto, sans-serif; font-size: 12px; font-weight: 200;" fill="rgb(50, 49, 63)" stroke="none" stroke-width="1px">12k</text><text x="231.1111111111111" y="0" dx="0em" dy="0.95em" style="text-anchor: middle; visibility: inherit; font-family: Roboto, sans-serif; font-size: 12px; font-weight: 200;" fill="rgb(50, 49, 63)" stroke="none" stroke-width="1px">14k</text><text x="260" y="0" dx="0em" dy="0.95em" style="text-anchor: middle; visibility: hidden; font-family: Roboto, sans-serif; font-size: 12px; font-weight: 200;" fill="rgb(50, 49, 63)" stroke="none" stroke-width="1px">16k</text></g><line x1="0" y1="0" x2="260" y2="0" fill="rgb(0, 0, 0)" stroke="rgb(204, 204, 204)" stroke-width="1px"></line></g></g></g></g></svg>