<svg viewBox="0 0 330.0000305175781 200.00001525878906" xmlns="http://www.w3.org/2000/svg"><g><g><g><g><g><line x1="70" y1="178" x2="65" y2="178" style="visibility: inherit;" fill="rgb(0, 0, 0)" stroke="rgb(204, 204, 204)" stroke-width="1px"></line><line x1="70" y1="163.16666666666666" x2="65" y2="163.16666666666666" style="visibility: inherit;" fill="rgb(0, 0, 0)" stroke="rgb(204, 204, 204)" stroke-width="1px"></line><line x1="70" y1="148.33333333333331" x2="65" y2="148.33333333333331" style="visibility: inherit;" fill="rgb(0, 0, 0)" stroke="rgb(204, 204, 204)" stroke-width="1px"></line><line x1="70" y1="133.5" x2="65" y2="133.5" style="visibility: inherit;" fill="rgb(0, 0, 0)" stroke="rgb(204, 204, 204)" stroke-width="1px"></line><line x1="70" y1="118.66666666666666" x2="65" y2="118.66666666666666" style="visibility: inherit;" fill="rgb(0, 0, 0)" stroke="rgb(204, 204, 204)" stroke-width="1px"></line><line x1="70" y1="103.83333333333331" x2="65" y2="103.83333333333331" style="visibility: inherit;" fill="rgb(0, 0, 0)" stroke="rgb(204, 204, 204)" stroke-width="1px"></line><line x1="70" y1="88.99999999999999" x2="65" y2="88.99999999999999" style="visibility: inherit;" fill="rgb(0, 0, 0)" stroke="rgb(204, 204, 204)" stroke-width="1px"></line><line x1="70" y1="74.16666666666669" x2="65" y2="74.16666666666669" style="visibility: inherit;" fill="rgb(0, 0, 0)" stroke="rgb(204, 204, 204)" stroke-width="1px"></line><line x1="70" y1="59.33333333333332" x2="65" y2="59.33333333333332" style="visibility: inherit;" fill="rgb(0, 0, 0)" stroke="rgb(204, 204, 204)" stroke-width="1px"></line><line x1="70" y1="44.5" x2="65" y2="44.5" style="visibility: inherit;" fill="rgb(0, 0, 0)" stroke="rgb(204, 204, 204)" stroke-width="1px"></line><line x1="70" y1="29.66666666666668" x2="65" y2="29.66666666666668" style="visibility: inherit;" fill="rgb(0, 0, 0)" stroke="rgb(204, 204, 204)" stroke-width="1px"></line><line x1="70" y1="14.83333333333332" x2="65" y2="14.83333333333332" style="visibility: inherit;" fill="rgb(0, 0, 0)" stroke="rgb(204, 204, 204)" stroke-width="1px"></line><line x1="70" y1="0" x2="65" y2="0" style="visibility: inherit;" fill="rgb(0, 0, 0)" stroke="rgb(204, 204, 204)" stroke-width="1px"></line></g><g transform="translate(60, 0)"><text x="0" y="178" dx="0em" dy="0.3em" style="text-anchor: end; visibility: hidden; font-family: Roboto, sans-serif; font-size: 12px; font-weight: 200;" fill="rgb(50, 49, 63)" stroke="none" stroke-width="1px">-0.01</text><text x="0" y="163.16666666666666" dx="0em" dy="0.3em" style="text-anchor: end; visibility: inherit; font-family: Roboto, sans-serif; font-size: 12px; font-weight: 200;" fill="rgb(50, 49, 63)" stroke="none" stroke-width="1px">0</text><text x="0" y="148.33333333333331" dx="0em" dy="0.3em" style="text-anchor: end; visibility: hidden; font-family: Roboto, sans-serif; font-size: 12px; font-weight: 200;" fill="rgb(50, 49, 63)" stroke="none" stroke-width="1px">0.01</text><text x="0" y="133.5" dx="0em" dy="0.3em" style="text-anchor: end; visibility: inherit; font-family: Roboto, sans-serif; font-size: 12px; font-weight: 200;" fill="rgb(50, 49, 63)" stroke="none" stroke-width="1px">0.02</text><text x="0" y="118.66666666666666" dx="0em" dy="0.3em" style="text-anchor: end; visibility: hidden; font-family: Roboto, sans-serif; font-size: 12px; font-weight: 200;" fill="rgb(50, 49, 63)" stroke="none" stroke-width="1px">0.03</text><text x="0" y="103.83333333333331" dx="0em" dy="0.3em" style="text-anchor: end; visibility: inherit; font-family: Roboto, sans-serif; font-size: 12px; font-weight: 200;" fill="rgb(50, 49, 63)" stroke="none" stroke-width="1px">0.04</text><text x="0" y="88.99999999999999" dx="0em" dy="0.3em" style="text-anchor: end; visibility: hidden; font-family: Roboto, sans-serif; font-size: 12px; font-weight: 200;" fill="rgb(50, 49, 63)" stroke="none" stroke-width="1px">0.05</text><text x="0" y="74.16666666666669" dx="0em" dy="0.3em" style="text-anchor: end; visibility: inherit; font-family: Roboto, sans-serif; font-size: 12px; font-weight: 200;" fill="rgb(50, 49, 63)" stroke="none" stroke-width="1px">0.06</text><text x="0" y="59.33333333333332" dx="0em" dy="0.3em" style="text-anchor: end; visibility: hidden; font-family: Roboto, sans-serif; font-size: 12px; font-weight: 200;" fill="rgb(50, 49, 63)" stroke="none" stroke-width="1px">0.07</text><text x="0" y="44.5" dx="0em" dy="0.3em" style="text-anchor: end; visibility: inherit; font-family: Roboto, sans-serif; font-size: 12px; font-weight: 200;" fill="rgb(50, 49, 63)" stroke="none" stroke-width="1px">0.08</text><text x="0" y="29.66666666666668" dx="0em" dy="0.3em" style="text-anchor: end; visibility: hidden; font-family: Roboto, sans-serif; font-size: 12px; font-weight: 200;" fill="rgb(50, 49, 63)" stroke="none" stroke-width="1px">0.09</text><text x="0" y="14.83333333333332" dx="0em" dy="0.3em" style="text-anchor: end; visibility: inherit; font-family: Roboto, sans-serif; font-size: 12px; font-weight: 200;" fill="rgb(50, 49, 63)" stroke="none" stroke-width="1px">0.1</text><text x="0" y="0" dx="0em" dy="0.3em" style="text-anchor: end; visibility: hidden; font-family: Roboto, sans-serif; font-size: 12px; font-weight: 200;" fill="rgb(50, 49, 63)" stroke="none" stroke-width="1px">0.11</text></g><line x1="70" y1="0" x2="70" y2="178" fill="rgb(0, 0, 0)" stroke="rgb(204, 204, 204)" stroke-width="1px"></line></g></g><g transform="translate(70, 0)" clip-path="url(#clip_0)"><clipPath id="clip_0"><rect width="260" height="177"></rect></clipPath><g><g><g><line x1="0" y1="0" x2="0" y2="178" fill="rgb(0, 0, 0)" stroke="rgb(60, 60, 60)" stroke-width="1px" opacity="0.25"></line><line x1="32.5" y1="0" x2="32.5" y2="178" fill="rgb(0, 0, 0)" stroke="rgb(60, 60, 60)" stroke-width="1px" opacity="0.25"></line><line x1="65" y1="0" x2="65" y2="178" fill="rgb(0, 0, 0)" stroke="rgb(60, 60, 60)" stroke-width="1px" opacity="0.25"></line><line x1="97.5" y1="0" x2="97.5" y2="178" fill="rgb(0, 0, 0)" stroke="rgb(60, 60, 60)" stroke-width="1px" opacity="0.25"></line><line x1="130" y1="0" x2="130" y2="178" fill="rgb(0, 0, 0)" stroke="rgb(60, 60, 60)" stroke-width="1px" opacity="0.25"></line><line x1="162.5" y1="0" x2="162.5" y2="178" fill="rgb(0, 0, 0)" stroke="rgb(60, 60, 60)" stroke-width="1px" opacity="0.25"></line><line x1="195" y1="0" x2="195" y2="178" fill="rgb(0, 0, 0)" stroke="rgb(60, 60, 60)" stroke-width="1px" opacity="0.25"></line><line x1="227.5" y1="0" x2="227.5" y2="178" fill="rgb(0, 0, 0)" stroke="rgb(60, 60, 60)" stroke-width="1px" opacity="0.25"></line><line x1="260" y1="0" x2="260" y2="178" fill="rgb(0, 0, 0)" stroke="rgb(60, 60, 60)" stroke-width="1px" opacity="0.25"></line></g><g><line x1="0" y1="178" x2="260" y2="178" fill="rgb(0, 0, 0)" stroke="rgb(60, 60, 60)" stroke-width="1px" opacity="0.25"></line><line x1="0" y1="163.16666666666666" x2="260" y2="163.16666666666666" fill="rgb(0, 0, 0)" stroke="rgb(60, 60, 60)" stroke-width="1px" opacity="0.25"></line><line x1="0" y1="148.33333333333331" x2="260" y2="148.33333333333331" fill="rgb(0, 0, 0)" stroke="rgb(60, 60, 60)" stroke-width="1px" opacity="0.25"></line><line x1="0" y1="133.5" x2="260" y2="133.5" fill="rgb(0, 0, 0)" stroke="rgb(60, 60, 60)" stroke-width="1px" opacity="0.25"></line><line x1="0" y1="118.66666666666666" x2="260" y2="118.66666666666666" fill="rgb(0, 0, 0)" stroke="rgb(60, 60, 60)" stroke-width="1px" opacity="0.25"></line><line x1="0" y1="103.83333333333331" x2="260" y2="103.83333333333331" fill="rgb(0, 0, 0)" stroke="rgb(60, 60, 60)" stroke-width="1px" opacity="0.25"></line><line x1="0" y1="88.99999999999999" x2="260" y2="88.99999999999999" fill="rgb(0, 0, 0)" stroke="rgb(60, 60, 60)" stroke-width="1px" opacity="0.25"></line><line x1="0" y1="74.16666666666669" x2="260" y2="74.16666666666669" fill="rgb(0, 0, 0)" stroke="rgb(60, 60, 60)" stroke-width="1px" opacity="0.25"></line><line x1="0" y1="59.33333333333332" x2="260" y2="59.33333333333332" fill="rgb(0, 0, 0)" stroke="rgb(60, 60, 60)" stroke-width="1px" opacity="0.25"></line><line x1="0" y1="44.5" x2="260" y2="44.5" fill="rgb(0, 0, 0)" stroke="rgb(60, 60, 60)" stroke-width="1px" opacity="0.25"></line><line x1="0" y1="29.66666666666668" x2="260" y2="29.66666666666668" fill="rgb(0, 0, 0)" stroke="rgb(60, 60, 60)" stroke-width="1px" opacity="0.25"></line><line x1="0" y1="14.83333333333332" x2="260" y2="14.83333333333332" fill="rgb(0, 0, 0)" stroke="rgb(60, 60, 60)" stroke-width="1px" opacity="0.25"></line><line x1="0" y1="0" x2="260" y2="0" fill="rgb(0, 0, 0)" stroke="rgb(60, 60, 60)" stroke-width="1px" opacity="0.25"></line></g></g></g><g><g><line x1="0" y1="163.16666666666666" x2="260" y2="163.16666666666666" fill="rgb(0, 0, 0)" stroke="rgb(153, 153, 153)" stroke-width="1.5px"></line></g></g><g><g><line x1="32.5" y1="0" x2="32.5" y2="178" fill="rgb(0, 0, 0)" stroke="rgb(153, 153, 153)" stroke-width="1.5px"></line></g></g><g><g><g><g><g><path stroke="rgb(255, 112, 67)" stroke-width="2px" d="M39.975,-2.261589635877352L40.02375,1.090387674175369L40.04,4.936668426179038L40.2025,5.2433191588716275L41.21,6.088625550188789L41.64875,10.13110664996847L41.908750000000005,11.435114932327703L42.0225,17.450716031839473L42.03875,24.682740466402365L42.575,24.913405761213898L42.802499999999995,27.243500718763134L42.9325,32.89559241237699L42.965,36.24934666741623L43.013749999999995,33.82915410170631L43.04625,33.088425151216576L43.24125,30.85760242041102L43.403749999999995,30.67769305746276L44.1025,33.3310031026362L44.2325,34.86898323203973L44.3625,37.559731278405316L44.72,40.78938993208004L44.785,42.65060532868329L44.93125,45.85804413473934L44.99625,50.332089320047665L45.028749999999995,50.16188833145512L45.25625,50.9532738377296L45.28875,43.2673985426668L45.37,45.49214439936915L45.4025,43.730359290815684L45.5325,42.72379368591011L45.629999999999995,45.98051071316923L45.64625,41.84345848636571L46.085,43.85796503924159L47.23875,45.81375857868004L47.271249999999995,42.691455287380876L47.807500000000005,39.03227402225885L47.856249999999996,43.18664498462723L48.1325,46.87602488972639L48.27875,49.551160192719095L48.295,52.89905799004678L48.392500000000005,55.36955473887L48.408750000000005,58.878218196655794L48.49,58.63260049296463L48.7825,48.26218450940652L48.83125,50.067467505970505L48.9775,48.91479136848103L49.77375,52.79839534126477L49.8225,52.09522548274916L49.92,53.65499214453428L50.0175,56.090322555259654L50.09875,57.019910628023034L50.26125,53.88285916891975L50.35875,52.353293162735724L50.440000000000005,52.446324540224325L51.285000000000004,53.218617818043136L51.36625,56.12728515851219L51.3825,60.028429722226704L51.675000000000004,59.38034570838905L51.886250000000004,58.136244006296046L52.0975,59.35800313805852L52.715,54.88622443342445L52.99125,51.41045865721999L53.316250000000004,46.497653511596575L53.41375,50.02377445225444L53.5275,51.72559516788313L53.885,50.95242472100117L53.933749999999996,50.00801454821026L54.112500000000004,49.87199026849794L54.16125,49.64822185282282L54.21,47.319045668684346L54.22625,40.84356042582316L55.006249999999994,42.388130816175156L55.10375,41.9773118433832L55.12,47.593281020178395L55.4775,27.482352068965884L55.6725,29.754669866960125L55.835,34.13196079603246L56.322500000000005,34.953260684082956L56.50125,37.69578214726551L56.63125,39.45833530559779L56.728750000000005,36.234872479429534L57.24875,39.1916515524636L57.31375,42.66463831733375L57.72,38.171381824515805L57.980000000000004,42.045380960215525L57.996249999999996,43.20735879231992L58.24,39.347893989807105L58.305,43.51806488799788L58.58125,47.101664402400395L59.15,46.67325041249525L59.28,45.627866751068936L59.605000000000004,41.924498786437695L59.832499999999996,47.27945465172422L59.97875,47.1013907127435L60.07625,52.34051025170283L60.10875,54.538833071027874L60.1575,53.67141740011362L60.27125,52.000191663227824L60.4175,53.3838434731658L60.645,53.00166826926954L60.6775,52.87990210900113L60.72625,52.63483519754677L60.85625,56.44413297671661L60.8725,57.83859550489752L61.34375,57.679093523838596L61.441250000000004,51.437878064309274L61.831250000000004,51.7411348960901L62.1725,54.74540557652199L62.464999999999996,50.88975757853235L62.611250000000005,52.216024027379596L62.822500000000005,53.83046492185928L62.87125,55.341689637784974L63.00125,49.38066495896183L63.65125,53.40468908050003L63.9275,53.360020971429364L64.09,57.4161388933333L64.13875,54.722898777048826L64.46375,53.454473196675245L64.72375,56.361247464019115L65.01625,56.29990697133893L65.08125,50.18621225606118L65.21124999999999,54.73365143302844L65.4875,54.6826499984636L65.585,54.48052414138125L65.975,55.438171150162134L66.18625,54.69744148286376L66.235,55.03597852704565L66.25125,56.85626929841197L66.38125,56.508162195586536L66.44625,59.302606436336795L66.56,59.14389662924367L66.80375,57.27547594428141L67.35624999999999,59.860826459068974L67.42125,61.33725042313924L67.535,64.51840824597342L67.68125,64.20550310699986L68.03875000000001,65.40207865945368L68.10374999999999,66.63049493981828L68.23375,69.69974965332584L68.36375,69.5825658589433L68.42875000000001,71.80941144113358L68.75375,70.69812400273776L68.835,70.19914861954291L68.85125000000001,72.48250505023924L68.88374999999999,66.30448073818474L68.9325,70.67497854154858L69.1275,69.74946664167909L69.17625,67.57647800694144L69.2575,67.78231736572052L69.56625,70.20553266821811L69.82625,71.35664389567107L69.98875000000001,71.91312478262967L70.18375,74.55995022465504L70.60625,75.18925069741603L70.7525,72.74797371575147L71.32125,74.53255770337813L71.33749999999999,73.79317993431455L71.37,74.08297603534321L72.085,72.07259910867113L72.215,70.60253363799923L72.36125,67.92784252093585L72.39375,68.20537939514976L72.475,66.56702311187644L72.88125000000001,67.59907817814009L72.8975,67.84409032092331L73.06,65.9670371418115L73.0925,69.32041947441789L73.17375,72.43653520514997L73.40125,74.59190426693777L73.49875,75.84321364024554L73.645,76.25917205491038L73.88875,74.16716773854428L73.95375,78.22103356666855L73.98625,77.84522722098319L74.3925,76.76615558577721L74.75,74.87528677573773L74.8475,73.57065633224275L75.12375,78.35817525939154L75.22125,81.65284266888024L75.64375,82.24761952496542L76.0175,81.63487750624763L76.13125,76.02774404695799L76.2125,72.47092658461449L76.42375,73.26721807628964L76.5375,75.39854318630557L76.78125,74.373124676802L77.025,75.47008610719686L77.2525,79.54251039631502L77.82124999999999,84.99656374365301L77.8375,86.81770482188284L77.85375,88.94866095211387L79.17,90.41203876605616L79.31625,88.67084393526441L79.46249999999999,82.66641817992121L79.56,81.38739820960787L79.95,83.17349407094862L80.71374999999999,80.08073499147794L80.84375,71.49858351703696L81.42875000000001,76.01158901394561L81.68875,81.8082085887501L81.7375,81.41741399250816L81.8675,82.39229674769621L81.91625,80.5491093939842L82.30625,84.94122921160263L82.37125,86.06264096013345L82.85875,86.42020968359157L83.2325,89.4202129358313L83.47625,78.62946979159781L83.76875,80.27411060817491L83.86625,79.23230998671905L84.12625,79.50011046167809L84.41875,83.07271836522303L84.435,82.25918238624652L84.98750000000001,85.51644733565097L85.15,82.02517469536939L85.19875,84.2574728005391L85.215,87.12821243243214L85.2475,88.11525968222689L85.26375,86.29103395746874L85.67,85.4090171229393L86.20625,87.097710964033L86.58,85.39034225170366L86.85625,80.54163249095187L87.36,82.5663627831612L87.79875,84.51769610233089L87.88000000000001,82.33062384414238L88.2375,81.21620225159798L88.54625,80.06693374786099L88.57875,80.0442852120199L88.79,76.89089974278912L89.05000000000001,70.80460838339775L89.52125000000001,73.3055949206281L89.57,76.73984134054875L89.97625,76.25215757758377L90.39874999999999,75.69924838228815L90.675,78.76700126102332L91,83.07066555394861L91.2925,85.6649867250717L91.325,89.53830481581977L91.3575,87.9507222641176L91.455,85.23812483964176L91.91,86.21114961550721L92.1375,83.37765024524255L93.0475,74.01988573798268L93.11250000000001,76.56229213536747L93.2425,80.21783322215096L93.29124999999999,80.19396406295911L93.795,79.87849845582946L93.925,83.00700284749593L94.13625,81.68845713723957L94.2175,84.17986830503138L94.4775,85.48634275086104L94.55875,85.36430792394916L94.59125,81.56054879869234L94.75375000000001,80.50393791725907L94.81875,80.88300651518118L95.28999999999999,84.92015910942752L95.485,87.97525601878259L96.33,89.96112583170398L96.44375,93.92032939685974L96.50875,94.49021057455977L96.6875,97.14998868805503L96.78500000000001,93.99985340567508L96.8825,92.50277633591358L97.24,96.3611872284263L97.64625000000001,96.67109581205098L97.6625,96.84863247509367L97.8575,94.47434424615899L98.03625000000001,97.02390452455786L98.085,96.66698179749824L99.01125,97.8296308733261L99.0925,99.69928505574792L99.10875,99.03847801511105L99.27125,100.1327583957926L100.45750000000001,102.12977244777427L100.63624999999999,103.39753099322967L100.6525,105.71410205040465L100.685,98.54319225119224L100.76625,88.75515233705433L100.7825,91.79548805462316L101.18875,93.82467791667878L101.27000000000001,91.96258940779337L101.31875000000001,90.5487078518654L101.44875,88.39985872774187L101.77374999999999,89.2098346583245L101.8225,88.74166747048277L101.83875,89.67886313178441L102.0825,92.47635038349004L102.3425,88.0370137580998L102.44,86.6895481824766L102.65125,90.09319630147533L102.68375,88.63180617087446L102.895,90.36462180474427L103.07375,87.98880382670087L103.49625,85.55652073536127L103.6425,86.06693518174121L103.88624999999999,88.09047440649256L104,90.34876196449069L104.0975,94.87026407324831L104.16250000000001,92.74715258308456L104.4875,93.75171300808968L104.53625,93.68778786049629L105.21875,96.90586918629916L105.495,97.50672034083742L105.77125000000001,94.02980252249087L105.7875,93.02898310625294L106.1125,95.00296047556765L106.16125000000001,97.23102282862392L106.30749999999999,96.61873924501216L106.48625,96.30428201224136L106.8925,95.8675121445373L106.94125000000001,96.41076524317504L107.16875,97.39711046327369L107.20125,94.7668076231906L107.23375,97.93977413610583L107.705,98.14967467668025L108.16,96.46121557433537L108.28999999999999,95.4135075292609L108.355,98.85327586851615L108.485,100.47841644575085L108.66375000000001,101.2657744816035L109.08625,100.53389176929801L109.1675,103.26094529116477L109.4275,102.05652222534908L109.6875,99.58356946806911L109.8175,99.87677829082531L109.96375,98.49781746893278L110.11,100.23528277110294L110.28875,98.94051279706868L110.305,94.80206366504035L110.40249999999999,96.73695928516311L110.5,95.16868398359506L110.5325,94.37727772041143L110.58125,94.13186163290919L111.14999999999999,93.44562516288084L111.345,96.31946865601849L111.65375,96.94854725793164L112.0275,99.77138671880608L112.35249999999999,100.91450408493559L112.74249999999999,103.61168236539335L113.0025,106.79178200468436L113.1325,107.57469151764624L113.27875,108.82510879016976L113.3275,109.31633008956268L113.36,111.49285595424888L114.18875,113.6881423853549L114.2375,111.34840132956123L114.5625,111.21389363927615L114.595,114.25433571382786L114.61125,113.60678828751031L114.725,110.82904341514394L115.0175,113.25835093931293L115.4725,112.05456901682754L115.7975,112.901075183938L115.83,114.41023968893396L115.92750000000001,112.23112545102137L116.35000000000001,109.4415771320002L116.43125,111.13478190666271L116.70750000000001,113.65181872230517L117,114.2923861529288L117.13000000000001,115.25851245135281L117.63374999999999,115.75159960135016L118.0725,114.0969878184773L118.44624999999999,112.02758954223788L118.91749999999999,113.54043437633531L119.09625,108.27330962701893L119.35625,101.85002156293224L119.58375,101.06922799374905L119.925,100.01441673957927L120.575,103.10580551521242L120.9325,103.71524363688266L121.01375,105.36242945083451L121.615,106.95899272019291L121.79375,105.01372194959882L121.89125,105.31970579581207L122.11874999999999,106.52463574785563L122.15125,103.5957258084984L122.67125,108.3885705666606L123.06125,106.85474695311765L123.25625,107.22706909147006L123.28875,107.58432097907256L123.38625,107.5383970693534L123.58125000000001,107.97366214197942L123.9875,107.18511509460072L124.44250000000001,107.57371805315887L124.47500000000001,107.28733291362828L124.53999999999999,107.08147896723544L124.78375,107.9813354122831L125.45,109.03201130912943L125.49875,107.52736361322422L125.79124999999999,108.69960579770661L126.08375000000001,109.8340710803675L126.36,112.9907122445555L126.40875,110.74404377745651L126.57124999999999,110.20233872787512L126.86375000000001,109.63790262446523L126.88,107.76423123737322L127.15625,108.8878073431217L127.205,108.3828745311446L127.75750000000001,109.52936413271748L127.78999999999999,109.92559916446774L127.90375,109.70401476848276L128.3425,112.05888740172324L128.48875,111.64295159931287L128.83,113.61672479028279L129.22,115.41845004089967L129.30125,116.62373212608662L129.39875,116.38703847696054L129.8375,114.71368029780885L130.1625,113.15707598836157L130.24375,114.36150831619737L130.48749999999998,110.8477404989387L130.56875,110.95416552472382L130.975,111.72653803796511L131.26749999999998,112.56119237853932L131.3325,113.0437913997716L131.41375,114.35619953161694L131.67374999999998,114.51150628921981L131.70625,114.48924297812418L131.96625,115.98763174402767L131.99875,116.87036154932528L132.09625,111.27366458217375L132.12875,110.41432483997013L132.16125,112.67135781800211L132.35625,114.8916595945002L132.42125,112.45169582166446L132.79500000000002,114.49161915111894L132.94125,114.40324732751169L133.25,111.67238353397913L133.42875,111.96709087973656L133.46124999999998,112.57795929151018L133.55875,111.70795010863259L133.76999999999998,112.24546379041833L134.0625,112.28876275169794L134.69625,112.26124648017834L135.07,105.23571298059659L135.13500000000002,105.5835002972002L135.15125,105.4434512949967L135.265,108.75656965347979L135.54125,111.06791987655626L135.72,114.02771250822155L135.89875,115.09605559074589L136.0125,113.74246671823002L136.10999999999999,113.52994756822392L136.5,113.93516957518602L137.39375,111.79238963804075L137.45874999999998,111.87212924001899L137.67,110.585594651644L138.04375,109.60025368262343L138.06,108.54334852189929L138.125,109.77921173355978L138.45,112.35079194847543L138.46625,114.50350657609023L138.48250000000002,115.18632573367383L138.61249999999998,116.82618973971013L138.9375,118.33398132350091L139.3275,118.15463386568862L139.44125,118.97372777061258L139.48999999999998,118.75517859401242L139.79874999999998,118.62026496537271L140.67625,119.12873071508572L140.82250000000002,120.18983319669238L140.855,119.97265286636694L140.92000000000002,119.647316580545L141.0175,121.07101836177507L141.06625,119.66282173554617L141.18,113.75565329198507L141.31,110.00795878970642L141.35875,110.55347669351715L141.55375,110.55828484203175L141.9925,112.68339036380429L142.0575,114.80217320685745L142.23625,114.2442130800947L142.415,115.37008182666482L143.52,113.44401246647637L143.7475,113.14261370258076L143.8775,112.90409435501583L144.10500000000002,114.23533742357094L144.12125,116.45369502560216L144.54375,116.02941666956075L144.77125,117.96215016840691L145.17749999999998,117.11116218744631L145.64874999999998,115.18062774996979L145.6975,116.38466771227539L146.12,114.41325916329203L146.4125,116.49167905282239L146.4775,114.80752360749378L146.88375,113.99040497352996L146.9975,114.65344841054866L147.30625,113.75664188533634L147.72875,113.10061035988382L147.9725,114.6478703729201L148.10250000000002,114.02205164389804L148.11875,115.06809955379661L148.47625,117.65434302619018L148.54125,118.61150574791257L148.76874999999998,115.49853240869484L148.96375,115.44837856074014L149.09375,116.84915981989955L149.41875000000002,116.94894598768819L149.565,115.14129749498767L149.71124999999998,116.4340654381196L149.74375,118.89362555394789L149.76,119.27251325557827L150.06875,119.34358034975011L150.1175,121.62088736359787L150.26375,121.20717440960863L150.865,120.7435203351205L151.125,120.57614197923371L151.30375,119.10157420917616L151.59625,119.97168100218812L151.75875000000002,119.22538339204345L151.775,120.20194979604165L151.98624999999998,120.91038634229672L152.0675,118.21268584841563L152.08375,121.27922056441672L152.45749999999998,121.20069150520017L152.52249999999998,121.40419021103168L152.76624999999999,119.93105197591628L153.25375,121.56230543818317L153.4,121.33207130123792L153.44875,122.16423266451216L153.5625,118.19120711598386L153.72500000000002,120.17018184698851L153.77374999999998,120.23362435436256L153.855,116.96169829922326L154.01749999999998,117.16497621922855L154.4075,117.36693332781641L154.55374999999998,117.20022761271622L154.86249999999998,118.17046765674255L155.13875000000002,116.64941170980723L155.935,115.41203785964025L156.14625,116.95907364935036L156.195,115.23485783597151L156.69875000000002,115.86890670966889L156.715,115.58124211311944L156.99124999999998,117.32489776703268L157.15375,118.64971884621474L157.235,121.408449989917L157.41375,120.71185416417907L157.51125,115.79532977510326L157.625,117.80993487499109L157.9175,118.78440145446116L157.99875,120.07498904815742L158.07999999999998,122.53863958630748L158.3725,122.69840705844172L158.55124999999998,123.75045063167481L158.6,125.14555127558809L158.92499999999998,123.77160664448073L159.055,123.70053779178895L159.2175,123.55552380169068L159.4125,123.1528905852007L159.78625,125.43728038138701L159.86749999999998,124.9658405834923L160.85875,125.7483666019182L160.875,126.80260214931137L160.94,127.22661033524801L161.395,126.04852465295153L162.09375,125.98370930890759L162.22375,126.65235624319781L162.35375,127.07159267187936L162.37,126.35303213535487L162.92249999999999,125.43742113614942L163.10125000000002,127.03429618073632L163.29625,123.93802404784972L163.345,122.78915737316444L163.57250000000002,119.36473064716549L164.54749999999999,119.45963659384648L164.9375,120.9000944127532L165.42499999999998,119.90883441188961L165.48999999999998,121.34482192734505L165.7175,121.0442755258646L165.99375,120.39410114044048L166.09125,120.8465502192943L166.77375,122.09284545777558L167.03375,122.89111289462434L167.21249999999998,123.08293454024086L167.35875,123.82806975809831L167.48875,123.68326316986273L167.81375,123.26660026776204L167.84625,124.63246630542645L167.895,124.52500626007073L167.92749999999998,125.2382827935459L168.025,122.10241103187775L168.22,120.50712646682081L168.35,120.51636339600005L168.39875,123.55856792765464L168.48000000000002,123.22603981568263L168.59375,124.32140299304287L168.62625,123.05037795167729L169.455,125.33612267339385L169.63375,124.39692282128077L169.76375,124.04495965444015L170.08875,124.86956070353757L170.105,126.13849779867782L170.13750000000002,124.19961912645189L170.365,123.92050850929776L170.43,125.22813361659907L170.57625,125.69485438364485L170.5925,126.43644107528492L170.67375,125.69782250792451L170.73874999999998,125.13472508593004L170.755,124.5861760916386L170.99875,126.8189213663083L171.5025,127.28199135134793L171.69750000000002,124.83432281944313L171.81125,124.94284161244671L171.89249999999998,125.46247935427584L172.12,127.11936884200844L172.26625,127.96954167180901L172.51,128.53094486235855L172.68875,128.8889881107246L172.8025,128.99864437403596L172.81875,127.37064919894024L172.965,125.08786299300766L173.5825,125.30440348660271L173.7125,121.95460368044958L173.72875000000002,122.65274928498276L173.79375000000002,118.10776111100324L174.31375,120.45859043122863L175.0775,119.21114495063209L175.1425,119.95508462188587L175.435,119.08390916782767L175.51625,122.35442532765576L175.80875,124.38256110667875L175.8575,124.61748298670075L176.19875,125.07831903260151L176.3775,125.32302899636407L176.7675,125.66187613114536L176.88125,125.074757372482L177.1575,126.31082038768038L177.19,128.31158454207446L177.23875,130.13587469435313L177.58,129.36697554545026L177.61249999999998,131.41209266960152L177.69375,131.9921657000142L177.8725,131.63254712906897L178.0675,131.6511964846271L178.34375,131.4794964643822L178.63625000000002,127.36458866419943L178.73375000000001,127.06850992116131L178.815,125.00833935638781L178.89625,127.10570624945528L179.18875,128.62465316627342L179.205,127.48358561673787L179.64374999999998,128.98534992873545L179.77375,129.48816559573896L179.93625,130.56163694411316L180.11499999999998,129.1919330185137L180.45625,130.51518124818142L180.74875,127.66233769313895L181.26874999999998,128.72155977033836L181.285,129.1812113889201L181.38250000000002,127.84691900996657L182.22750000000002,126.75445752009216L182.26,122.84017971801775L182.4225,123.59131948037162L182.53625,122.60840247392548L182.975,123.02386867565814L183.31625,123.29118223010613L183.47875000000002,125.17426506310404L183.73875,121.96338221397728L183.77124999999998,123.4612681498881L183.88500000000002,124.55112054560882L184.405,125.10621094632022L184.48624999999998,125.20413753263738L184.66500000000002,123.82597545246608L184.74625,122.51796115973885L185.44500000000002,122.70671674470468L185.49374999999998,122.48647665045488L185.81875,121.89990595311568L185.91625000000002,123.31649405146717L185.9325,125.33547646536502L186.355,125.34077208077575L186.46875,127.26018743771661L187.47625000000002,127.91368175797177L187.4925,129.49204300569755L187.63875000000002,128.93915378828385L187.7525,130.3120293107041L187.80125,131.73357019234624L187.915,131.4620407775594L187.96375,131.33379357655824L188.32125000000002,133.29025423858297L188.5,131.2351929257349L188.67875,132.17285853267035L188.84125,133.6464115747689L188.87375,134.01635177130413L188.89000000000001,128.68786185235203L188.93875,129.3346605099775L189.32874999999999,128.870955236036L189.42625,128.55184739808297L189.49124999999998,129.6079774620091L189.79999999999998,129.1595834562937L189.9625,128.84122664074437L190.0925,131.064402772673L190.28750000000002,132.50843437084976L190.9375,132.0462922876078L191.08375,130.50134236142023L191.1,129.52228012653674L191.23000000000002,128.8390765421116L191.37625,128.54616703048558L191.945,127.86344610921729L192.4,128.74773139290483L192.44875,129.4902316720955L193.09875,127.89353244577896L193.48875,128.95096619966176L193.65125,127.57537802992555L194.545,127.92257307526431L194.75625,127.21991482974357L194.935,127.95274597298243L195.2275,126.70802900917357L195.8125,126.20293349367205L195.89374999999998,126.2524993111207L195.91,127.74591055108236L195.9425,129.31317488808247L196.17,126.9364777635826L196.36499999999998,128.06727239334722L196.5275,128.96978414353953L196.73874999999998,129.28424185954037L196.82,129.37294815988093L196.83625,130.62727890756904L197.08,129.40683083745301L197.1775,130.70513521624073L197.34,131.03208215801138L197.73,131.80907546285684L198.00625,132.2655114886513L198.36375,133.1214161595072L198.8675,132.99765656278322L198.98125,132.14413809823205L199.03,128.66680715250465L199.16,128.85260355823476L199.42000000000002,130.2277907072794L199.48499999999999,129.90897992455587L199.56625,130.15400861758255L199.59875,130.88279358498687L199.63125,131.2427820926626L199.68,131.9377030893313L200.24875,129.8618790142469L200.3625,131.87344841349466L200.6225,133.86436322667458L200.9475,135.1443666970177L201.4025,136.022836650215L201.435,132.53414829479868L201.45125000000002,133.26195852586622L201.48375,132.61141513837967L201.58124999999998,132.62653982401625L201.7275,134.13371520418337L201.825,133.3237103303082L201.90625,131.49585446609322L202.3775,128.7997962182158L202.605,129.48618618606073L202.78375,130.78406866267508L202.94625000000002,130.18086995370854L203.01125000000002,128.16163557910824L203.0275,128.10018416473778L203.48250000000002,126.52755703907768L203.62875,126.49204531826977L203.75875,126.38629260501827L204.0025,128.17092275577195L204.01874999999998,128.13551456058192L204.21375,129.80778560605398L204.7175,128.40427883500928L204.86374999999998,130.05249412178068L205.075,131.86715537861895L205.12375,127.77231925105373L205.14000000000001,129.1349655402232L205.22125,129.42654182712494L205.3675,126.66942782779765L205.4975,126.15336630589971L205.61125,125.27186833495884L205.6275,125.68747967166196L205.90375,128.3677306310757L206.39125,129.54308523867593L206.55375,128.84568130220632L207.155,127.91088508934868L207.30124999999998,128.9461023022382L207.3175,128.77777677053547L207.415,127.64404178271097L207.67499999999998,127.54295527325037L207.78875000000002,128.12462802824743L208.24375,130.10262699655075L208.26000000000002,132.76205233132583L208.40625,132.15682110469706L208.4875,133.20550501554507L208.66625,132.16850418436897L208.8125,131.37000482285552L209.04000000000002,131.88944358308194L209.21875,133.7040163923544L209.6575,134.9230757636272L209.70624999999998,135.23358104568706L209.8525,136.6416240717996L210.25875,135.34954369713125L210.32375,135.96390347850155L210.47,136.50036315792204L210.6975,137.68024910309475L210.795,135.46737877862358L210.82750000000001,133.33425753964022L211.38,133.6177940989557L211.4775,134.3691034575945L211.575,133.83406740969232L211.60750000000002,128.79661424399646L211.62375,130.33047706941375L211.78625,127.95761827606607L211.8675,124.11896928504886L212.095,124.63748323490427L212.24125,125.49387550938312L212.50125,124.63117898396517L212.9075,125.69655789946694L213.21625,125.52769008975388L213.3625,127.3236580867921L213.655,127.26423901209424L213.94750000000002,128.53750465195895L214.09375,128.8258014239954L214.4675,130.27876408392223L214.5,130.46048010694116L214.51625,131.11688479273437L215.345,129.78635694772032L215.475,128.11679936047418L215.52375,129.25102382177036L215.67000000000002,130.96620698300777L215.94625,131.8862430779884L216.2875,132.32595134311666L216.53125,130.38529424325006L216.79125,129.99441809216972L217.11625,129.39744743626667L217.23000000000002,128.6045777142467L217.34375,130.23223953906492L217.425,129.32380311680254L217.92874999999998,130.13723544372294L218.05875,131.53619870701291L218.09125,133.13338118710092L218.64375,133.67078712608588L218.6925,133.0429912862535L218.92,133.81956993351332L218.95250000000001,135.9275525535229L218.96875,132.55766734282918L219.1475,134.41683018519902L219.245,131.10400983972332L219.7,130.6845422226159L219.74875,130.8489580634158L219.765,129.58263204851542L219.86249999999998,129.6383139552962L219.895,129.7524614659262L220.17125,128.75826546632558L220.30125,129.57770497550544L220.44750000000002,127.02308252707104L220.69125,128.24572382995964L220.95125,130.64802619343905L221.58499999999998,130.60183111936666L221.78,130.9314435680681L221.8125,128.56398101935548L221.975,128.86082469235646L222.15375,129.08981172136671L222.2675,128.67743616864567L222.38125,128.70189302510457L222.41375,126.95986724805627L222.69,128.95090478809541L222.99875,129.36761087786834L223.58375,129.45110901110382L223.74625,130.93060168359884L224.02249999999998,129.97226354093144L224.12,131.78559259641628L224.26625,132.19042778560635L224.75375,129.62076591595215L225.1275,126.7974018201707L225.14375,125.9907930930138L225.43625,126.03011043389263L225.89124999999999,125.40288810201149L225.9725,126.20883515095606L226.18375,129.29639084855646L226.2,128.218746023853L226.41125,130.15245625492824L226.54125000000002,130.08923282019998L226.6225,131.36466254909521L226.655,132.70245844692207L226.67125,132.40711870802636L226.99625,133.28575459482147L227.07750000000001,133.57405275877005L227.305,133.0413019331606L227.4675,132.49124260880853L227.54875,131.33729520017383L227.6625,129.88956321184364L227.90625,129.15768968663193L227.97125,129.24146878710803L228.16625000000002,131.09963678474006L228.735,132.457165129066L228.88125000000002,134.17903423811987L228.9625,133.09503338652743L229.66125,134.85003543925637L229.7425,135.79447569671143L229.88875000000002,136.86675452280127L229.98625,136.11200347845033L230.165,134.77424740777758L230.23,134.42132810205433L230.48999999999998,131.17197875584355L230.70125,131.7679890858846L231.02625,131.22342191596283L231.1725,132.7962660800766L231.3025,131.92630610741335L231.6275,128.90213694388112L231.8875,129.64142260507245L232.21249999999998,130.5777387924487L232.26125,130.79976268167252L232.52124999999998,130.32895050271807L232.74875,129.7075539061627L232.78125,131.54659508814723L232.96,129.77550100297015L233.935,129.655760436597L234.08124999999998,131.47887388669776L234.0975,130.29784599292273L234.585,129.62677419124242L234.89375,132.11131606018793L234.9425,132.31249811874952L235.3,129.7029927957993L236.015,129.2103023778694L236.35625,127.36638623065427L236.45375,128.2214789022059L236.48625,129.912511016356L236.8275,131.5750829550841L237.185,131.53653297284214L237.65625,132.6254006411316L238.17625,132.2696697327856L238.40375,131.84101770614856L238.66375,131.82407704346625L238.85875,132.46687210182768L239.8175,131.71837117967388L240.0775,133.37119695938023L240.58124999999998,134.2867186801558L240.71125,132.99207202849115L241.05249999999998,133.28482571921342L241.45875,135.16051660798797L241.54000000000002,135.91771542575736L241.75125,134.34291811589995L241.9625,133.8911376337125L242.06,134.43701002234445L242.7425,132.738487823539L242.75875,134.39075898147846L242.84,133.84404021442435L242.92125,134.79846203932118L243.08374999999998,136.09248086236968L243.57125000000002,135.69581662496677L243.7825,135.51453495254293L244.02625,134.2002526914791L244.3025,134.9731371929143L244.74125,133.89759779293385L244.7575,134.22710945518952L244.88750000000002,135.6304537827117L245.0825,136.25482023327635L245.13125000000002,134.65286443978226L245.2775,135.6179922741126L245.52125,136.23722431783366L245.58625,135.278233066594L245.61875,136.30516900213397L245.8625,137.0303087120394L246.155,137.2658812124656L246.44750000000002,138.1188241541722L246.69125,138.87174255062436L246.85375000000002,139.16038192355003L246.9025,137.64620123916893L247.0975,135.88925672846662L247.11375,137.5853696962805L247.17875,136.6199649811338L247.63375000000002,137.48207792257222L248.05625,136.6206815210825L248.5925,136.52965782543632L248.67375,136.18186560722242L248.83625,137.51738208234903L249.42125000000001,137.8711911044323L249.5025,135.69013952629L250.2825,136.37759833658347L250.3475,134.7347541059022L250.6725,135.31000930208398L251.45250000000001,136.97146116513352L251.46875,136.97263302988318L251.81,138.54874572151385" style="fill: none;" fill="none"></path></g></g></g></g><g opacity="0.2"><g><g><g><path stroke="rgb(255, 112, 67)" stroke-width="2px" d="M34.027499999999996,-76.60742810368542L35.01875,11.160554627577458L35.067499999999995,-150.2091277241707L35.21375,53.78088418642679L36.221250000000005,37.49899729092917L36.3025,26.904555549224224L36.64375,38.086505373319L36.724999999999994,3.594542433818188L36.83875,1.0798288037379649L36.93625,-48.95493895808857L37.504999999999995,0.9812697917222977L37.5375,-110.07295385996503L37.667500000000004,-7.996773208181077L38.13875,49.79020569721857L38.46375,54.00201754271984L39.341249999999995,17.533315360546112L39.3575,18.418942903478946L39.682500000000005,18.169229865074158L39.731249999999996,26.53006887932619L39.975,-11.31571865081791L40.02375,29.30901747445265L40.04,37.54025326669216L40.2025,7.85873931149641L41.21,13.338047901789341L41.64875,44.971147442857415L41.908750000000005,22.72343425949415L42.0225,69.73211543262005L42.03875,87.75952906906605L42.575,26.931654304265976L42.802499999999995,47.689422234892845L42.9325,82.6184244354566L42.965,65.8211417645216L43.013749999999995,12.444894154866542L43.04625,26.531350875894223L43.24125,11.076959609985352L43.403749999999995,29.080048466722165L44.1025,56.92489235599837L44.2325,48.56165512402853L44.3625,61.541616186499596L44.72,69.60262272755307L44.785,59.26996247470379L44.93125,74.52091414729756L44.99625,90.34229350835085L45.028749999999995,48.63885121047497L45.25625,58.03903578718504L45.28875,-25.58462779720627L45.37,65.43127113580704L45.4025,27.933866173028946L45.5325,33.695335576931626L45.629999999999995,75.20176484187445L45.64625,4.711968218286839L46.085,61.94383155802885L47.23875,63.37684953212738L47.271249999999995,14.646833777427673L47.807500000000005,6.158822913964596L47.856249999999996,80.51551352192959L48.1325,80.03211240222058L48.27875,73.595837580661L48.295,82.99461306631565L48.392500000000005,77.58043211201829L48.408750000000005,90.42603219797212L48.49,56.42394114534059L48.7825,-44.99936065077786L48.83125,66.30370295544466L48.9775,38.547206312417984L49.77375,87.73112068821985L49.8225,45.76990866661072L49.92,67.68647992610931L50.0175,77.99928580969572L50.09875,65.38310785094896L50.26125,25.65879748761654L50.35875,38.59132467706999L50.440000000000005,53.2833811044693L51.285000000000004,60.1675700545311L51.36625,82.29957199593386L51.3825,95.13182716071606L51.675000000000004,53.54862177371979L51.886250000000004,46.941111996769905L52.0975,70.35225916902226L52.715,14.645408108830452L52.99125,20.132198696335163L53.316250000000004,2.2870275030533405L53.41375,81.75587835659584L53.5275,67.04068520665169L53.885,43.994420781731606L53.933749999999996,41.50890572865805L54.112500000000004,48.64784728984037L54.16125,47.634417951107025L54.21,26.357507720589638L54.22625,-17.43318523963295L55.006249999999994,56.2887015591065L55.10375,38.280075803399086L55.12,98.13534618914127L55.4775,-153.51066674788797L55.6725,50.20498684545359L55.835,73.52663739522299L56.322500000000005,42.34480064610639L56.50125,62.37799737850824L56.63125,55.321037287513406L56.728750000000005,7.224162062009182L57.24875,65.8022875736157L57.31375,73.92112210641307L57.72,-2.2674642354249954L57.980000000000004,76.91101439545554L57.996249999999996,53.66506242752075L58.24,4.6130002935727505L58.305,81.04932142049074L58.58125,79.3538422783216L59.15,42.81754793226719L59.28,36.21946525077024L59.605000000000004,8.594351152578984L59.832499999999996,95.47384395201999L59.97875,45.498821650942176L60.07625,99.49241691827774L60.10875,74.32367455462617L60.1575,45.86469905078411L60.27125,36.95919937392077L60.4175,65.83668044706187L60.645,49.56209872166315L60.6775,51.784008756279945L60.72625,50.42923677961031L60.85625,90.72776003678638L60.8725,70.38874081273875L61.34375,56.24357749025026L61.441250000000004,-4.7329978247483435L61.831250000000004,54.470443616310746L62.1725,81.78381704042357L62.464999999999996,16.18895408014456L62.611250000000005,64.15241324901581L62.822500000000005,68.36042331159115L62.87125,68.94270394245785L63.00125,-4.268528257807082L63.65125,89.620888620615L63.9275,52.958008165160805L64.09,93.92118585854769L64.13875,30.48374629517397L64.46375,42.03864660362402L64.72375,82.52220838268599L65.01625,55.7478426794211L65.08125,-4.837027425567323L65.21124999999999,95.66059548656145L65.4875,54.22363717357317L65.585,52.661391735076904L65.975,64.05699291825294L66.18625,48.03087538977465L66.235,58.082811549305916L66.25125,73.23888442416987L66.38125,53.37519858280817L66.44625,84.45260234425467L66.56,57.71550848086676L66.80375,40.45969100296497L67.35624999999999,83.12897956868014L67.42125,74.62506531675658L67.535,93.14882713307935L67.68125,61.38935699065527L68.03875000000001,76.17125816891593L68.10374999999999,77.68624103566012L68.23375,97.32304111371437L68.36375,68.52791174252829L68.42875000000001,91.85102111597854L68.75375,60.696537310878426L68.835,65.70837027331194L68.85125000000001,93.03271250426769L68.88374999999999,10.702262957890834L68.9325,110.00945811718702L69.1275,61.41985966761908L69.17625,48.01958055794239L69.2575,69.63487157225609L69.56625,92.0144701525569L69.82625,81.71664484093588L69.98875000000001,76.92145272095999L70.18375,98.38137901326019L70.60625,80.85295491168898L70.7525,50.77648102243742L71.32125,90.59381349881488L71.33749999999999,67.13878004749617L71.37,76.69114093234143L72.085,53.9792068451643L72.215,57.371944452325494L72.36125,43.855622549851745L72.39375,70.70321125537157L72.475,51.82181660334268L72.88125000000001,76.88757375131053L72.8975,70.04919960101446L73.06,49.073558563987405L73.0925,99.50086041291553L73.17375,100.48157673577467L73.40125,93.99022579441467L73.49875,87.10499798506498L73.645,80.00279778242111L73.88875,55.33912891149521L73.95375,114.705825984478L73.98625,74.46297011276087L74.3925,67.05451087653637L74.75,57.85746749738851L74.8475,61.828982348243386L75.12375,121.44584557910758L75.22125,111.30484933902818L75.64375,87.60061122725406L76.0175,76.12019934008521L76.13125,25.563542932271957L76.2125,40.45956943432489L76.42375,80.43384149918955L76.5375,94.58046917120615L76.78125,65.14435809353986L77.025,85.34273897856474L77.2525,116.19432899107534L77.82124999999999,134.08304386089245L77.8375,103.2079745233059L77.85375,108.12726612140733L79.17,103.58243908981481L79.31625,73.00009045998257L79.46249999999999,28.6265863875548L79.56,69.87621847788495L79.95,99.24835682163635L80.71374999999999,52.24590327839056L80.84375,-5.740779747565574L81.42875000000001,116.62863848358393L81.68875,133.97778475905457L81.7375,77.90026262650889L81.8675,91.16624154398838L81.91625,63.96042321125665L82.30625,124.47030756870905L82.37125,96.15534669657546L82.85875,89.63832819461823L83.2325,116.42024220526218L83.47625,-18.487218504150736L83.76875,95.07587795704603L83.86625,69.85610439380011L84.12625,81.91031473626694L84.41875,115.22618949661651L84.435,74.93735857556266L84.98750000000001,114.8318318799138L85.15,50.60372093319893L85.19875,104.34815574685732L85.215,112.96486911922693L85.2475,96.99868493030468L85.26375,69.87300243477029L85.67,77.47086561222872L86.20625,102.29595553378263L86.58,70.02402384082478L86.85625,36.90324464440346L87.36,100.78893541296321L87.79875,102.07969597478706L87.88000000000001,62.64697352051735L88.2375,71.18640791873139L88.54625,69.72351721425852L88.57875,79.84044838945073L88.79,48.51043051977953L89.05000000000001,16.02798614899317L89.52125000000001,95.81447375565767L89.57,107.64805911978084L89.97625,71.86300371090573L90.39874999999999,70.72306562463444L90.675,106.37677716960508L91,121.80364419023195L91.2925,109.01387726515532L91.325,124.3981676325202L91.3575,73.66247929881018L91.455,60.82474801937738L91.91,94.96837259829044L92.1375,57.87615591287613L93.0475,-10.199994827310258L93.11250000000001,99.44394971181947L93.2425,113.11770300318796L93.29124999999999,79.97914163023233L93.795,77.03930799166363L93.925,111.16354237248498L94.13625,69.82154574493569L94.2175,106.60256881515184L94.4775,97.24461276332536L94.55875,84.26599448174238L94.59125,47.326716671387345L94.75375000000001,70.99443998436135L94.81875,84.2946238964796L95.28999999999999,121.25453245763975L95.485,115.4711282029748L96.33,107.83395414799452L96.44375,129.553161483258L96.50875,99.61914117385942L96.6875,121.08799170951048L96.78500000000001,65.64863586425781L96.8825,79.02908270806074L97.24,131.08688526103893L97.64625000000001,99.46027306467295L97.6625,98.44646244247753L97.8575,73.10575018574795L98.03625000000001,119.9699470301469L98.085,93.45467725396156L99.01125,108.29347255577642L99.0925,116.5261726975441L99.10875,93.09121464937925L99.27125,109.98128182192642L100.45750000000001,120.1028989156087L100.63624999999999,114.80735790232816L100.6525,126.56324156497914L100.685,34.00500405828157L100.76625,0.6627931098143194L100.7825,119.15850951274234L101.18875,112.087386675179L101.27000000000001,75.20379282782477L101.31875000000001,77.82377384851378L101.44875,69.06021661063036L101.77374999999999,96.49961803356805L101.8225,84.5281627799074L101.83875,98.1136240834991L102.0825,117.65373564884067L102.3425,48.0829841295878L102.44,74.56235800186795L102.65125,120.72602937246361L102.68375,75.47929499546689L102.895,105.9599625095725L103.07375,66.60644202431044L103.49625,63.665972913304955L103.6425,90.66066519916058L103.88624999999999,106.30232742925483L104,110.67334998647371L104.0975,135.56378305206695L104.16250000000001,73.63914917161068L104.4875,102.79275683313608L104.53625,93.11246153215566L105.21875,125.86860111852485L105.495,102.91438073168197L105.77125000000001,62.73754215737185L105.7875,84.02160836011171L106.1125,112.76875679939985L106.16125000000001,117.2835840061307L106.30749999999999,91.10818699250618L106.48625,93.47416691730419L106.8925,91.93658333520094L106.94125000000001,101.30004313091436L107.16875,106.27421744416156L107.20125,71.0940820624431L107.23375,126.49647275234261L107.705,100.03877954185009L108.16,81.26508365323147L108.28999999999999,85.98413512359062L108.355,129.81119092181325L108.485,115.10468164086342L108.66375000000001,108.35199680427709L109.08625,93.94694735854864L109.1675,127.80442698796588L109.4275,91.21671463300783L109.6875,77.32699465254944L109.8175,102.51565769563118L109.96375,86.08717007189989L110.11,115.87247049063444L110.28875,87.28758303076029L110.305,57.55602147678533L110.40249999999999,114.15101986626783L110.5,81.05420626948279L110.5325,87.25462135175863L110.58125,91.92311684538919L111.14999999999999,87.26949693262577L111.345,122.18406009425718L111.65375,102.61025467514992L112.0275,125.176941866676L112.35249999999999,111.2025603801012L112.74249999999999,127.88628688951331L113.0025,135.41267875830331L113.1325,114.62087713430324L113.27875,120.07886424288154L113.3275,113.73732178409892L113.36,131.08158873642483L114.18875,133.445720265309L114.2375,90.290731827418L114.5625,110.0033244267106L114.595,141.61831438479322L114.61125,107.77886145065227L114.725,85.82933956384659L115.0175,135.12211865683395L115.4725,101.22053171445924L115.7975,120.51963068793216L115.83,127.99272023389736L115.92750000000001,92.61909730980793L116.35000000000001,84.33564226080975L116.43125,126.37362487862507L116.70750000000001,136.30515006308752L117,120.05749302854139L117.13000000000001,123.95364913716912L117.63374999999999,120.18938395132619L118.0725,99.20548177262145L118.44624999999999,93.4030050560832L118.91749999999999,127.15603788321215L119.09625,60.86918688317141L119.35625,44.04042898615202L119.58375,94.04208587110043L119.925,90.52111545205116L120.575,130.9283044959108L120.9325,109.20018673191467L121.01375,120.18710177640119L121.615,121.32806214441854L121.79375,87.50628501425186L121.89125,108.07356041173139L122.11874999999999,117.36900531624752L122.15125,77.23553635428351L122.67125,151.52417339012027L123.06125,93.05033443123102L123.25625,110.57796833664179L123.28875,110.79958796749511L123.38625,107.12508188188076L123.58125000000001,111.89104779561359L123.9875,100.08819166819254L124.44250000000001,111.07114468018213L124.47500000000001,104.70986665785313L124.53999999999999,105.22879344969988L124.78375,116.08004341771203L125.45,118.48809438074628L125.49875,93.9855343500773L125.79124999999999,119.24978545804817L126.08375000000001,120.04425862431526L126.36,141.40048272224763L126.40875,90.52402757356563L126.57124999999999,105.32699328164259L126.86375000000001,104.55797769377628L126.88,90.90118875354528L127.15625,118.99999229485789L127.205,103.83847922335067L127.75750000000001,119.84777054687339L127.78999999999999,113.49171445022026L127.90375,107.70975520461798L128.3425,133.25274110088745L128.48875,107.89952937761942L128.83,131.38068350901204L129.22,131.63397729645172L129.30125,127.4712708927691L129.39875,114.256795634826L129.8375,99.6534566854437L130.1625,99.14763720333576L130.24375,125.20139926671982L130.48749999999998,79.22383014361066L130.56875,111.91199075678983L130.975,118.67789065713683L131.26749999999998,120.07308144370714L131.3325,117.3871825908621L131.41375,126.16787271822491L131.67374999999998,115.90926710764566L131.70625,114.28887317826349L131.96625,129.47313063715893L131.99875,124.81492979700366L132.09625,60.90339187781015L132.12875,102.68026716013748L132.16125,132.9846546202898L132.35625,134.87437558298308L132.42125,90.49202186614275L132.79500000000002,132.85092911620933L132.94125,113.60790091504651L133.25,87.09460939218599L133.42875,114.6194569915533L133.46124999999998,118.07577499747276L133.55875,103.87786746273437L133.76999999999998,117.08308692649007L134.0625,112.6784534032146L134.69625,112.01360003650188L135.07,42.005911484360695L135.13500000000002,108.71358614663282L135.15125,104.18301027516523L135.265,138.5746348798275L135.54125,131.87007188424468L135.72,140.6658461932093L135.89875,124.71114333346486L136.0125,101.56016686558723L136.10999999999999,111.61727521816888L136.5,117.58216763784486L137.39375,92.50737020373344L137.45874999999998,112.58978565782309L137.67,99.00678335626918L138.04375,100.73218496143818L138.06,99.03120207538205L138.125,120.90198063850403L138.45,135.49501388271648L138.46625,133.8779382246236L138.48250000000002,121.33169815192619L138.61249999999998,131.58496579403678L138.9375,131.90410557761788L139.3275,116.54050674537817L139.44125,126.3455729149282L139.48999999999998,116.78823600461084L139.79874999999998,117.40604230761528L140.67625,123.7049224625031L140.82250000000002,129.73975553115207L140.855,118.01802989343801L140.92000000000002,116.71929000814754L141.0175,133.88433439284563L141.06625,106.98905209948617L141.18,60.59113729993501L141.31,76.27870826919875L141.35875,115.46313782781363L141.55375,110.60155817866325L141.9925,131.80934005975723L142.0575,133.8712187943359L142.23625,109.22257193922997L142.415,125.50290054579574L143.52,96.10938822478056L143.7475,110.43002482752004L143.8775,110.75742022693157L144.10500000000002,126.21652504056692L144.12125,136.41891344388324L144.54375,112.21091146518785L144.77125,135.3567516580224L145.17749999999998,109.45227035880089L145.64874999999998,97.8058178126812L145.6975,127.2210273730258L146.12,96.67058222244182L146.4125,135.19745805859566L146.4775,99.65012459953624L146.88375,106.6363372678558L146.9975,120.62083934371668L147.30625,105.68538315842548L147.72875,107.19632663081089L147.9725,128.5732104902466L148.10250000000002,108.38968308269978L148.11875,124.48253074288368L148.47625,140.93053427773216L148.54125,127.22597024341422L148.76874999999998,87.4817723557353L148.96375,114.99699392914772L149.09375,129.4561911523342L149.41875000000002,117.84702149778605L149.565,98.87246106068292L149.71124999999998,128.06897692630687L149.74375,141.0296665964027L149.76,122.68250257025161L150.06875,119.98318419729668L150.1175,142.1166504882276L150.26375,117.48375782370567L150.865,116.57063366472721L151.125,119.06973677625257L151.30375,105.83046427865821L151.59625,127.80264213929573L151.75875000000002,112.50870490074158L151.775,128.99104743202525L151.98624999999998,127.28631525859237L152.0675,93.93338140348592L152.08375,148.87803300842643L152.45749999999998,120.49392997225124L152.52249999999998,123.23567856351534L152.76624999999999,106.67280785987774L153.25375,136.24358659858504L153.4,119.25996406873065L153.44875,129.6536849339803L153.5625,82.43397717922926L153.72500000000002,137.9809544260303L153.77374999999998,120.80460692072907L153.855,87.51436380296946L154.01749999999998,118.9944774992764L154.4075,119.18454730510712L154.55374999999998,115.69987617681423L154.86249999999998,126.90262805297971L155.13875000000002,102.95990818738937L155.935,104.27567320813733L156.14625,130.88239575674135L156.195,99.71691551556188L156.69875000000002,121.5753465729455L156.715,112.9922607441743L156.99124999999998,133.01779865225154L157.15375,130.57310855885345L157.235,146.2370302832375L157.41375,114.44249173253775L157.51125,71.54661027342081L157.625,135.9413807739814L157.9175,127.55460066969195L157.99875,131.69027739142376L158.07999999999998,144.71149442965785L158.3725,124.13631430764991L158.55124999999998,133.2188427907725L158.6,137.7014570708076L158.92499999999998,111.40610496451455L159.055,123.06091811756292L159.2175,122.2503978908062L159.4125,119.52919163679081L159.78625,145.99678854706386L159.86749999999998,120.7228824024399L160.85875,132.79110076775152L160.875,136.29072207584977L160.94,131.04268400867778L161.395,115.44575351228315L162.09375,125.40037121251225L162.22375,132.6701786518097L162.35375,130.84472053001323L162.37,119.88598730663458L162.92249999999999,117.19692214330036L163.10125000000002,141.40617158201832L163.29625,96.07157485187054L163.345,112.44935730099678L163.57250000000002,88.54489011317492L164.54749999999999,120.31379011397559L164.9375,133.8642147829135L165.42499999999998,110.98749440411726L165.48999999999998,134.26870956644416L165.7175,118.33935791254044L165.99375,114.54253167162338L166.09125,124.91859192897874L166.77375,133.30950260410705L167.03375,130.0755198262632L167.21249999999998,124.80932935078937L167.35875,130.53428671881557L167.48875,122.38000387574235L167.81375,119.51663414885599L167.84625,136.92526064440608L167.895,123.55786585186917L167.92749999999998,131.6577715948224L168.025,93.87956517686445L168.22,106.14956538130838L168.35,120.59949575861293L168.39875,150.93840871254602L168.48000000000002,120.23328680793443L168.59375,134.17967158928514L168.62625,111.61115257938701L169.455,145.90782516884306L169.63375,115.94412415226299L169.76375,120.87729115287462L170.08875,132.29097014541426L170.105,137.55893165494004L170.13750000000002,106.74971107641855L170.365,121.40851295491058L170.43,136.99675958231091L170.57625,129.8953412870566L170.5925,133.11072130004564L170.67375,119.05025540168086L170.73874999999998,120.06684828797975L170.755,119.64923514301577L170.99875,146.91362883833546L171.5025,131.44962121670443L171.69750000000002,102.8053060323L171.81125,125.91951074947912L171.89249999999998,130.13921903073788L172.12,142.03137423160175L172.26625,135.62109714001417L172.51,133.58357357730466L172.68875,132.11137734601894L172.8025,129.98555074383813L172.81875,112.71869262307882L172.965,104.5427871396144L173.5825,127.25326792895794L173.7125,91.80640542507172L173.72875000000002,128.93605972578126L173.79375000000002,77.20286754518747L174.31375,141.61605431325734L175.0775,107.98413562526304L175.1425,126.65054166316986L175.435,111.2433300813039L175.51625,151.78907076610872L175.80875,142.63578311788538L175.8575,126.73177990689874L176.19875,129.22584344570834L176.3775,127.52541867022711L176.7675,128.71150034417707L176.88125,119.7906885445118L177.1575,137.4353875244657L177.19,146.31846193162102L177.23875,146.5544860648612L177.58,122.44688320532441L177.61249999999998,149.81814678696293L177.69375,137.21282297372818L177.8725,128.39597999056178L178.0675,131.81904068465033L178.34375,129.93419628217816L178.63625000000002,90.3304184625546L178.73375000000001,124.40380123381811L178.815,106.46680427342653L178.89625,145.98200828706223L179.18875,142.2951754176368L179.205,117.2139776709179L179.64374999999998,142.50122873671353L179.77375,134.01350659877062L179.93625,140.22287907948095L180.11499999999998,116.86459768811861L180.45625,142.42441531519094L180.74875,101.98674569775659L181.26874999999998,138.2545584651331L181.285,133.31807595615584L181.38250000000002,115.83828759938478L182.22750000000002,116.92230411122242L182.26,87.61167949934799L182.4225,130.35157734155655L182.53625,113.76214941591024L182.975,126.7630644912521L183.31625,125.69700422013798L183.47875000000002,142.12201056008536L183.73875,93.06543657183647L183.77124999999998,136.94224157308537L183.88500000000002,134.3597921070953L184.405,130.10202455272275L184.48624999999998,126.0854768094917L184.66500000000002,111.42251673092443L184.74625,110.74583252519369L185.44500000000002,124.40551700939733L185.49374999999998,120.50431580220658L185.81875,116.62076967706281L185.91625000000002,136.0657869366308L185.9325,143.50631819044548L186.355,125.38843261947233L186.46875,144.53492565018433L187.47625000000002,133.79513064026833L187.4925,143.6972942352295L187.63875000000002,123.96315083156028L187.7525,142.66790901248652L187.80125,144.5274381271253L187.915,129.018276044478L187.96375,130.1795687675476L188.32125000000002,150.8984001968056L188.5,112.73964111010233L188.67875,140.61184899508953L188.84125,146.90838895365596L188.87375,137.3458135401209L188.89000000000001,80.73145258178315L188.93875,135.155848428607L189.32874999999999,124.69760777056217L189.42625,125.67987685650587L189.49124999999998,139.11314803734422L189.79999999999998,125.12403740485507L189.9625,125.97601530080038L190.0925,151.07298796003062L190.28750000000002,145.50471875444055L190.9375,127.88701353843012L191.08375,116.59679302573204L191.1,120.71072001258531L191.23000000000002,122.69024428228536L191.37625,125.90998142585158L191.945,121.71895781780282L192.4,136.70629894609252L192.44875,136.1727341848115L193.09875,113.52323940893012L193.48875,138.4678699846069L193.65125,115.19508450229961L194.545,131.04732848331332L194.75625,120.89599062005678L194.935,134.54822626213232L195.2275,115.5055763348937L195.8125,121.65707385415831L195.89374999999998,126.69859166815877L195.91,141.18661171073714L195.9425,143.4185539210836L196.17,105.54620364308357L196.36499999999998,138.2444240612288L196.5275,137.09238989527026L196.73874999999998,132.114361303548L196.82,130.17130486294627L196.83625,141.91625563676158L197.08,118.4227982064088L197.1775,142.38987462533015L197.34,133.9746046339472L197.73,138.8020152064661L198.00625,136.37343572080135L198.36375,140.82455819721022L198.8675,131.88382019226748L198.98125,124.46247191727161L199.03,97.37082864095765L199.16,130.5247712098062L199.42000000000002,142.60447504868108L199.48499999999999,127.03968288004398L199.56625,132.35926685482264L199.59875,137.44185829162598L199.63125,134.4826786617438L199.68,138.19199205935L200.24875,111.1794623384873L200.3625,149.9775730067243L200.6225,151.78259654529393L200.9475,146.6643979301055L201.4025,143.92906622899073L201.435,101.13595309605199L201.45125000000002,139.8122506054739L201.48375,126.75652465100089L201.58124999999998,132.76266199474532L201.7275,147.69829362568754L201.825,126.03366646543145L201.90625,115.04515168815851L202.3775,104.53527198731899L202.605,135.66369589666525L202.78375,142.46501095220447L202.94625000000002,124.75208157300949L203.01125000000002,109.98852620770532L203.0275,127.54712143540382L203.48250000000002,112.37391290813684L203.62875,126.17243983099857L203.75875,125.4345181857546L204.0025,144.23259411255518L204.01874999999998,127.81684080387154L204.21375,144.85822501530248L204.7175,115.77271789560714L204.86374999999998,144.8864317027231L205.075,148.1991066901634L205.12375,90.91879410296679L205.14000000000001,141.39878214274842L205.22125,132.05072840924063L205.3675,101.85540183385211L205.4975,121.5088126088182L205.61125,117.33838659649092L205.6275,129.42798170198995L205.90375,152.48998926579952L206.39125,140.121276707078L206.55375,122.56904587397972L207.155,119.49771917363006L207.30124999999998,138.26305721824366L207.3175,127.26284698521096L207.415,117.4404268922905L207.67499999999998,126.63317668810487L207.78875000000002,133.35968282322088L208.24375,147.90461771128076L208.26000000000002,156.69688034430146L208.40625,126.7097400650382L208.4875,142.64366021317738L208.66625,122.83549670378366L208.8125,124.18351056923467L209.04000000000002,136.56439242511988L209.21875,150.03517167580623L209.6575,145.8946101050824L209.70624999999998,138.02812858422595L209.8525,149.31401130681235L210.25875,123.7208203251163L210.32375,141.49314151083428L210.47,141.32850027270615L210.6975,148.2992226096491L210.795,115.55154585838318L210.82750000000001,114.1361663887898L211.38,136.1696231327951L211.4775,141.13088768534362L211.575,129.01874297857285L211.60750000000002,83.45953575273356L211.62375,144.13524249816933L211.78625,106.60188913593689L211.8675,89.57112836589414L212.095,129.30410878360271L212.24125,133.20140597969294L212.50125,116.86691025520363L212.9075,135.28496813898283L213.21625,124.00787980233628L213.3625,143.4873700601359L213.655,126.72946733981371L213.94750000000002,139.99689541074136L214.09375,131.42047237232327L214.4675,143.3554280232638L214.5,132.09592431411147L214.51625,137.02452696487308L215.345,117.81160634259382L215.475,113.09078107525903L215.52375,139.45904397343594L215.67000000000002,146.40285543414453L215.94625,140.16656793281436L216.2875,136.28332572927076L216.53125,112.91938034445047L216.79125,126.47653273244697L217.11625,124.02471153313914L217.23000000000002,121.46875021606684L217.34375,144.88119596242905L217.425,121.14787531644106L217.92874999999998,137.45812638600665L218.05875,144.1268680766225L218.09125,147.50802350789309L218.64375,138.5074405769507L218.6925,127.3928287277619L218.92,140.80877775885165L218.95250000000001,154.89939613360912L218.96875,102.2287004465858L219.1475,151.14929576652744L219.245,101.28862673044205L219.7,126.9093336686492L219.74875,132.32870063061515L219.765,118.1856979144116L219.86249999999998,130.13945111632347L219.895,130.77978906159598L220.17125,119.81050146992007L220.30125,136.95266055812436L220.44750000000002,104.03148049116135L220.69125,139.24949555595714L220.95125,152.2687474647537L221.58499999999998,130.18607545271516L221.78,133.8979556063811L221.8125,107.25681808094183L221.975,131.53241774936515L222.15375,131.15069498245913L222.2675,124.96605619415641L222.38125,128.92200473323464L222.41375,111.2816352546215L222.69,146.87024264844754L222.99875,133.11796568582454L223.58375,130.20259221022326L223.74625,144.24603573605418L224.02249999999998,121.34722025692463L224.12,148.10555409577984L224.26625,135.83394448831677L224.75375,106.4938090890646L225.1275,101.38712495813766L225.14375,118.73131454860169L225.43625,126.3839665018022L225.89124999999999,119.75788711508113L225.9725,133.4623585914572L226.18375,157.08439212696007L226.2,118.51994260152179L226.41125,147.55584833460549L226.54125000000002,129.52022190764546L226.6225,142.8435301091522L226.655,144.74262152736384L226.67125,129.74906105796495L226.99625,141.19347757597762L227.07750000000001,136.1687362343073L227.305,128.24654450267553L227.4675,127.54070868963996L227.54875,120.95176852246124L227.6625,116.85997531687218L227.90625,122.57082795972624L227.97125,129.9954806913932L228.16625000000002,147.82314876342812L228.735,144.67492022799948L228.88125000000002,149.6758562196046L228.9625,123.33902572219569L229.66125,150.6450539138168L229.7425,144.29443801380694L229.88875000000002,146.5172639576097L229.98625,129.31924407929182L230.165,122.73444277172285L230.23,131.245054350545L230.48999999999998,101.92783463994661L230.70125,137.13208205625415L231.02625,126.32231738666692L231.1725,146.9518635571003L231.3025,124.09666635344425L231.6275,101.6846144720912L231.8875,136.29499355579415L232.21249999999998,139.00458447883526L232.26125,132.79797768468657L232.52124999999998,126.09164089212814L232.74875,124.11498453716436L232.78125,148.097965726008L232.96,113.83565423637629L233.935,128.57809533923864L234.08124999999998,147.88689493760467L234.0975,119.66859494894743L234.585,123.58712797611952L234.89375,154.47219288069755L234.9425,134.12313664580384L235.3,106.21744488924742L236.015,124.77608861650029L236.35625,110.771140905718L236.45375,135.91731294617057L236.48625,145.13180004370707L236.8275,146.53823040363687L237.185,131.18958313266435L237.65625,142.42520965573686L238.17625,129.0680915576716L238.40375,127.98314946641523L238.66375,131.67161107932526L238.85875,138.25202762708068L239.8175,124.98186288028955L240.0775,148.24662897673744L240.58124999999998,142.52641416713595L240.71125,121.34025216350952L241.05249999999998,135.91960893571377L241.45875,152.04173460695893L241.54000000000002,142.73250478568175L241.75125,120.16974232718349L241.9625,129.82511329402524L242.06,139.34986152003208L242.7425,117.45178803429008L242.75875,149.2611994029333L242.84,128.9235713109374L242.92125,143.38825846339265L243.08374999999998,147.73865026980639L243.57125000000002,132.12583848834038L243.7825,133.88299990072846L244.02625,122.37171234190464L244.3025,141.9290977058311L244.74125,124.21774319310981L244.7575,137.19271441549063L244.88750000000002,148.2605527304113L245.0825,141.87411828835803L245.13125000000002,120.23526229833561L245.2775,144.3041427830855L245.52125,141.8103127113233L245.58625,126.647311805437L245.61875,145.5475924219936L245.8625,143.55656610118845L246.155,139.3860337163011L246.44750000000002,145.79531062953174L246.69125,145.648008118694L246.85375000000002,141.758136279881L246.9025,124.0185750797391L247.0975,120.0767561321457L247.11375,152.85038640660542L247.17875,127.93132254481316L247.63375000000002,145.2410943955183L248.05625,128.86811390767494L248.5925,135.71044456462064L248.67375,133.05173564329743L248.83625,149.53703035848835L249.42125000000001,141.0554723031819L249.5025,116.06067532300949L250.2825,142.56472762922445L250.3475,119.94915602977076L250.6725,140.48730606772006L251.45250000000001,151.9245279325793L251.46875,136.98317981263L251.81,152.73375994618982" style="fill: none;" fill="none"></path></g></g></g></g></g></g><g transform="translate(70, 178)" clip-path="url(#clip_1)"><clipPath id="clip_1"><rect width="260" height="21"></rect></clipPath><g><g><line x1="0" y1="0" x2="0" y2="5" style="visibility: inherit;" fill="rgb(0, 0, 0)" stroke="rgb(204, 204, 204)" stroke-width="1px"></line><line x1="32.5" y1="0" x2="32.5" y2="5" style="visibility: inherit;" fill="rgb(0, 0, 0)" stroke="rgb(204, 204, 204)" stroke-width="1px"></line><line x1="65" y1="0" x2="65" y2="5" style="visibility: inherit;" fill="rgb(0, 0, 0)" stroke="rgb(204, 204, 204)" stroke-width="1px"></line><line x1="97.5" y1="0" x2="97.5" y2="5" style="visibility: inherit;" fill="rgb(0, 0, 0)" stroke="rgb(204, 204, 204)" stroke-width="1px"></line><line x1="130" y1="0" x2="130" y2="5" style="visibility: inherit;" fill="rgb(0, 0, 0)" stroke="rgb(204, 204, 204)" stroke-width="1px"></line><line x1="162.5" y1="0" x2="162.5" y2="5" style="visibility: inherit;" fill="rgb(0, 0, 0)" stroke="rgb(204, 204, 204)" stroke-width="1px"></line><line x1="195" y1="0" x2="195" y2="5" style="visibility: inherit;" fill="rgb(0, 0, 0)" stroke="rgb(204, 204, 204)" stroke-width="1px"></line><line x1="227.5" y1="0" x2="227.5" y2="5" style="visibility: inherit;" fill="rgb(0, 0, 0)" stroke="rgb(204, 204, 204)" stroke-width="1px"></line><line x1="260" y1="0" x2="260" y2="5" style="visibility: inherit;" fill="rgb(0, 0, 0)" stroke="rgb(204, 204, 204)" stroke-width="1px"></line></g><g transform="translate(0, 8)"><text x="0" y="0" dx="0em" dy="0.95em" style="text-anchor: middle; visibility: hidden; font-family: Roboto, sans-serif; font-size: 12px; font-weight: 200;" fill="rgb(50, 49, 63)" stroke="none" stroke-width="1px">-2k</text><text x="32.5" y="0" dx="0em" dy="0.95em" style="text-anchor: middle; visibility: inherit; font-family: Roboto, sans-serif; font-size: 12px; font-weight: 200;" fill="rgb(50, 49, 63)" stroke="none" stroke-width="1px">0</text><text x="65" y="0" dx="0em" dy="0.95em" style="text-anchor: middle; visibility: inherit; font-family: Roboto, sans-serif; font-size: 12px; font-weight: 200;" fill="rgb(50, 49, 63)" stroke="none" stroke-width="1px">2k</text><text x="97.5" y="0" dx="0em" dy="0.95em" style="text-anchor: middle; visibility: inherit; font-family: Roboto, sans-serif; font-size: 12px; font-weight: 200;" fill="rgb(50, 49, 63)" stroke="none" stroke-width="1px">4k</text><text x="130" y="0" dx="0em" dy="0.95em" style="text-anchor: middle; visibility: inherit; font-family: Roboto, sans-serif; font-size: 12px; font-weight: 200;" fill="rgb(50, 49, 63)" stroke="none" stroke-width="1px">6k</text><text x="162.5" y="0" dx="0em" dy="0.95em" style="text-anchor: middle; visibility: inherit; font-family: Roboto, sans-serif; font-size: 12px; font-weight: 200;" fill="rgb(50, 49, 63)" stroke="none" stroke-width="1px">8k</text><text x="195" y="0" dx="0em" dy="0.95em" style="text-anchor: middle; visibility: inherit; font-family: Roboto, sans-serif; font-size: 12px; font-weight: 200;" fill="rgb(50, 49, 63)" stroke="none" stroke-width="1px">10k</text><text x="227.5" y="0" dx="0em" dy="0.95em" style="text-anchor: middle; visibility: inherit; font-family: Roboto, sans-serif; font-size: 12px; font-weight: 200;" fill="rgb(50, 49, 63)" stroke="none" stroke-width="1px">12k</text><text x="260" y="0" dx="0em" dy="0.95em" style="text-anchor: middle; visibility: hidden; font-family: Roboto, sans-serif; font-size: 12px; font-weight: 200;" fill="rgb(50, 49, 63)" stroke="none" stroke-width="1px">14k</text></g><line x1="0" y1="0" x2="260" y2="0" fill="rgb(0, 0, 0)" stroke="rgb(204, 204, 204)" stroke-width="1px"></line></g></g></g></g></svg>