<svg viewBox="0 0 330.0000305175781 200.00001525878906" xmlns="http://www.w3.org/2000/svg"><g><g><g><g><g><line x1="70" y1="178" x2="65" y2="178" style="visibility: inherit;" fill="rgb(0, 0, 0)" stroke="rgb(204, 204, 204)" stroke-width="1px"></line><line x1="70" y1="158.2222222222222" x2="65" y2="158.2222222222222" style="visibility: inherit;" fill="rgb(0, 0, 0)" stroke="rgb(204, 204, 204)" stroke-width="1px"></line><line x1="70" y1="138.44444444444446" x2="65" y2="138.44444444444446" style="visibility: inherit;" fill="rgb(0, 0, 0)" stroke="rgb(204, 204, 204)" stroke-width="1px"></line><line x1="70" y1="118.66666666666669" x2="65" y2="118.66666666666669" style="visibility: inherit;" fill="rgb(0, 0, 0)" stroke="rgb(204, 204, 204)" stroke-width="1px"></line><line x1="70" y1="98.8888888888889" x2="65" y2="98.8888888888889" style="visibility: inherit;" fill="rgb(0, 0, 0)" stroke="rgb(204, 204, 204)" stroke-width="1px"></line><line x1="70" y1="79.1111111111111" x2="65" y2="79.1111111111111" style="visibility: inherit;" fill="rgb(0, 0, 0)" stroke="rgb(204, 204, 204)" stroke-width="1px"></line><line x1="70" y1="59.33333333333332" x2="65" y2="59.33333333333332" style="visibility: inherit;" fill="rgb(0, 0, 0)" stroke="rgb(204, 204, 204)" stroke-width="1px"></line><line x1="70" y1="39.55555555555557" x2="65" y2="39.55555555555557" style="visibility: inherit;" fill="rgb(0, 0, 0)" stroke="rgb(204, 204, 204)" stroke-width="1px"></line><line x1="70" y1="19.777777777777768" x2="65" y2="19.777777777777768" style="visibility: inherit;" fill="rgb(0, 0, 0)" stroke="rgb(204, 204, 204)" stroke-width="1px"></line><line x1="70" y1="0" x2="65" y2="0" style="visibility: inherit;" fill="rgb(0, 0, 0)" stroke="rgb(204, 204, 204)" stroke-width="1px"></line></g><g transform="translate(60, 0)"><text x="0" y="178" dx="0em" dy="0.3em" style="text-anchor: end; visibility: hidden; font-family: Roboto, sans-serif; font-size: 12px; font-weight: 200;" fill="rgb(50, 49, 63)" stroke="none" stroke-width="1px">-0.02</text><text x="0" y="158.2222222222222" dx="0em" dy="0.3em" style="text-anchor: end; visibility: inherit; font-family: Roboto, sans-serif; font-size: 12px; font-weight: 200;" fill="rgb(50, 49, 63)" stroke="none" stroke-width="1px">0</text><text x="0" y="138.44444444444446" dx="0em" dy="0.3em" style="text-anchor: end; visibility: hidden; font-family: Roboto, sans-serif; font-size: 12px; font-weight: 200;" fill="rgb(50, 49, 63)" stroke="none" stroke-width="1px">0.02</text><text x="0" y="118.66666666666669" dx="0em" dy="0.3em" style="text-anchor: end; visibility: inherit; font-family: Roboto, sans-serif; font-size: 12px; font-weight: 200;" fill="rgb(50, 49, 63)" stroke="none" stroke-width="1px">0.04</text><text x="0" y="98.8888888888889" dx="0em" dy="0.3em" style="text-anchor: end; visibility: hidden; font-family: Roboto, sans-serif; font-size: 12px; font-weight: 200;" fill="rgb(50, 49, 63)" stroke="none" stroke-width="1px">0.06</text><text x="0" y="79.1111111111111" dx="0em" dy="0.3em" style="text-anchor: end; visibility: inherit; font-family: Roboto, sans-serif; font-size: 12px; font-weight: 200;" fill="rgb(50, 49, 63)" stroke="none" stroke-width="1px">0.08</text><text x="0" y="59.33333333333332" dx="0em" dy="0.3em" style="text-anchor: end; visibility: hidden; font-family: Roboto, sans-serif; font-size: 12px; font-weight: 200;" fill="rgb(50, 49, 63)" stroke="none" stroke-width="1px">0.1</text><text x="0" y="39.55555555555557" dx="0em" dy="0.3em" style="text-anchor: end; visibility: inherit; font-family: Roboto, sans-serif; font-size: 12px; font-weight: 200;" fill="rgb(50, 49, 63)" stroke="none" stroke-width="1px">0.12</text><text x="0" y="19.777777777777768" dx="0em" dy="0.3em" style="text-anchor: end; visibility: hidden; font-family: Roboto, sans-serif; font-size: 12px; font-weight: 200;" fill="rgb(50, 49, 63)" stroke="none" stroke-width="1px">0.14</text><text x="0" y="0" dx="0em" dy="0.3em" style="text-anchor: end; visibility: hidden; font-family: Roboto, sans-serif; font-size: 12px; font-weight: 200;" fill="rgb(50, 49, 63)" stroke="none" stroke-width="1px">0.16</text></g><line x1="70" y1="0" x2="70" y2="178" fill="rgb(0, 0, 0)" stroke="rgb(204, 204, 204)" stroke-width="1px"></line></g></g><g transform="translate(70, 0)" clip-path="url(#clip_0)"><clipPath id="clip_0"><rect width="260" height="177"></rect></clipPath><g><g><g><line x1="0" y1="0" x2="0" y2="178" fill="rgb(0, 0, 0)" stroke="rgb(60, 60, 60)" stroke-width="1px" opacity="0.25"></line><line x1="32.5" y1="0" x2="32.5" y2="178" fill="rgb(0, 0, 0)" stroke="rgb(60, 60, 60)" stroke-width="1px" opacity="0.25"></line><line x1="65" y1="0" x2="65" y2="178" fill="rgb(0, 0, 0)" stroke="rgb(60, 60, 60)" stroke-width="1px" opacity="0.25"></line><line x1="97.5" y1="0" x2="97.5" y2="178" fill="rgb(0, 0, 0)" stroke="rgb(60, 60, 60)" stroke-width="1px" opacity="0.25"></line><line x1="130" y1="0" x2="130" y2="178" fill="rgb(0, 0, 0)" stroke="rgb(60, 60, 60)" stroke-width="1px" opacity="0.25"></line><line x1="162.5" y1="0" x2="162.5" y2="178" fill="rgb(0, 0, 0)" stroke="rgb(60, 60, 60)" stroke-width="1px" opacity="0.25"></line><line x1="195" y1="0" x2="195" y2="178" fill="rgb(0, 0, 0)" stroke="rgb(60, 60, 60)" stroke-width="1px" opacity="0.25"></line><line x1="227.5" y1="0" x2="227.5" y2="178" fill="rgb(0, 0, 0)" stroke="rgb(60, 60, 60)" stroke-width="1px" opacity="0.25"></line><line x1="260" y1="0" x2="260" y2="178" fill="rgb(0, 0, 0)" stroke="rgb(60, 60, 60)" stroke-width="1px" opacity="0.25"></line></g><g><line x1="0" y1="178" x2="260" y2="178" fill="rgb(0, 0, 0)" stroke="rgb(60, 60, 60)" stroke-width="1px" opacity="0.25"></line><line x1="0" y1="158.2222222222222" x2="260" y2="158.2222222222222" fill="rgb(0, 0, 0)" stroke="rgb(60, 60, 60)" stroke-width="1px" opacity="0.25"></line><line x1="0" y1="138.44444444444446" x2="260" y2="138.44444444444446" fill="rgb(0, 0, 0)" stroke="rgb(60, 60, 60)" stroke-width="1px" opacity="0.25"></line><line x1="0" y1="118.66666666666669" x2="260" y2="118.66666666666669" fill="rgb(0, 0, 0)" stroke="rgb(60, 60, 60)" stroke-width="1px" opacity="0.25"></line><line x1="0" y1="98.8888888888889" x2="260" y2="98.8888888888889" fill="rgb(0, 0, 0)" stroke="rgb(60, 60, 60)" stroke-width="1px" opacity="0.25"></line><line x1="0" y1="79.1111111111111" x2="260" y2="79.1111111111111" fill="rgb(0, 0, 0)" stroke="rgb(60, 60, 60)" stroke-width="1px" opacity="0.25"></line><line x1="0" y1="59.33333333333332" x2="260" y2="59.33333333333332" fill="rgb(0, 0, 0)" stroke="rgb(60, 60, 60)" stroke-width="1px" opacity="0.25"></line><line x1="0" y1="39.55555555555557" x2="260" y2="39.55555555555557" fill="rgb(0, 0, 0)" stroke="rgb(60, 60, 60)" stroke-width="1px" opacity="0.25"></line><line x1="0" y1="19.777777777777768" x2="260" y2="19.777777777777768" fill="rgb(0, 0, 0)" stroke="rgb(60, 60, 60)" stroke-width="1px" opacity="0.25"></line><line x1="0" y1="0" x2="260" y2="0" fill="rgb(0, 0, 0)" stroke="rgb(60, 60, 60)" stroke-width="1px" opacity="0.25"></line></g></g></g><g><g><line x1="0" y1="158.2222222222222" x2="260" y2="158.2222222222222" fill="rgb(0, 0, 0)" stroke="rgb(153, 153, 153)" stroke-width="1.5px"></line></g></g><g><g><line x1="32.5" y1="0" x2="32.5" y2="178" fill="rgb(0, 0, 0)" stroke="rgb(153, 153, 153)" stroke-width="1.5px"></line></g></g><g><g><g><g><g><path stroke="rgb(255, 112, 67)" stroke-width="2px" d="M41.21,-2.836888354972375L41.64875,2.9738693951679798L41.908750000000005,5.996886733730453L42.0225,14.013346902692993L42.03875,18.09754032669999L42.575,13.291285421162161L42.802499999999995,11.537873987595002L42.9325,17.45041156959742L42.965,22.46875253270503L43.013749999999995,12.604765777180962L43.04625,17.889947054002654L43.24125,21.664113293107896L43.403749999999995,22.588070059288928L44.1025,28.840098778642407L44.2325,33.24219209194932L44.3625,34.00078258365972L44.72,32.30992657311238L44.785,29.459192309550055L44.93125,29.57978373341834L44.99625,35.20588255107358L45.028749999999995,37.90161618743452L45.25625,42.87955301514792L45.28875,41.14128223665L45.37,40.493092984538514L45.4025,40.41395633708389L45.5325,33.127614016061855L45.629999999999995,34.06821965411844L45.64625,33.59133082055549L46.085,37.46479869254338L47.23875,37.15940897312073L47.271249999999995,33.2647455020215L47.807500000000005,35.22433771005019L47.856249999999996,39.21940591147087L48.1325,39.59648088053895L48.27875,42.83309419782902L48.295,45.67096155209664L48.392500000000005,48.35287206634874L48.408750000000005,50.372934060787436L48.49,54.52987019758167L48.7825,51.83453412615392L48.83125,54.35107010643023L48.9775,52.790963790142676L49.77375,56.071836226700185L49.8225,53.10731065915123L49.92,54.00609793652788L50.0175,51.500678707472986L50.09875,54.15848102634069L50.26125,47.8055408616862L50.35875,45.234872865054676L50.440000000000005,47.36691786575679L51.285000000000004,50.82548347433678L51.36625,53.74314417922237L51.3825,55.92921851765092L51.675000000000004,52.12162232788027L51.886250000000004,50.115614307745844L52.0975,46.99238638485022L52.715,43.88600266302707L52.99125,42.251203686392586L53.316250000000004,42.37524438031348L53.41375,48.47725359830214L53.5275,51.96676545180277L53.885,50.172881753368216L53.933749999999996,47.55449001394562L54.112500000000004,44.67433925186643L54.16125,44.38608367397323L54.21,41.8121491403624L54.22625,31.14064101581818L55.006249999999994,32.10281472095371L55.10375,34.89286267415056L55.12,39.14108927416064L55.4775,36.58840946206683L55.6725,28.579555692620993L55.835,32.33349896958709L56.322500000000005,34.35691680504106L56.50125,39.49810346233125L56.63125,37.48558712096413L56.728750000000005,39.668542355372345L57.24875,43.1077209797242L57.31375,47.53978180482756L57.72,46.143761535568814L57.980000000000004,50.40149788973188L57.996249999999996,48.24454075717043L58.24,45.80447919785302L58.305,42.79615023629419L58.58125,46.34766118022935L59.15,44.92377328616901L59.28,42.58049582691672L59.605000000000004,41.47021774032267L59.832499999999996,43.95141212872836L59.97875,46.046587553670015L60.07625,47.77696130362938L60.10875,52.35061859012672L60.1575,44.98433935435792L60.27125,42.52068345207408L60.4175,45.52649656945677L60.645,44.986877147028466L60.6775,47.11367916242773L60.72625,49.183900551995265L60.85625,51.08878182418836L60.8725,50.958144063658885L61.34375,53.66305377145075L61.441250000000004,55.45406077722313L61.831250000000004,52.119692336731084L62.1725,53.46643668698626L62.464999999999996,51.90206742774728L62.611250000000005,50.75183521501601L62.822500000000005,52.43300042131494L62.87125,55.90001093156881L63.00125,57.23658156500178L63.65125,59.29749074571619L63.9275,62.074032313535085L64.09,57.89062203590494L64.13875,55.47856236015495L64.46375,53.97326413752254L64.72375,50.96473308228163L65.01625,52.90775383429726L65.08125,52.588061155321064L65.21124999999999,56.243486595417785L65.4875,56.529057786817006L65.585,54.49260763846231L65.975,57.396865260839505L66.18625,57.53754263963576L66.235,57.80680609279641L66.25125,60.56164305297201L66.38125,62.02398608578552L66.44625,62.106256986764485L66.56,62.26838722904837L66.80375,64.09757562705173L67.35624999999999,67.63292689598119L67.42125,65.61566237303376L67.535,65.97629002388533L67.68125,65.78497062388335L68.03875000000001,67.03961519287544L68.10374999999999,68.78823469237535L68.23375,71.17462040911096L68.36375,73.67617797289611L68.42875000000001,75.49953583757163L68.75375,75.39747134040643L68.835,73.34789618716609L68.85125000000001,73.85193462588018L68.88374999999999,69.32745194662849L68.9325,69.57275988071682L69.1275,71.09579873020793L69.17625,70.69580906483831L69.2575,70.02092832485327L69.56625,65.2515020796856L69.82625,67.24920836264657L69.98875000000001,69.71255475975906L70.18375,72.69917042535455L70.60625,72.31193007544391L70.7525,68.06969029194163L71.32125,72.57552279074629L71.33749999999999,75.32958861412725L71.37,72.11931032769712L72.085,69.87989656750963L72.215,70.7612604790213L72.36125,68.8688208548763L72.39375,70.15393267859257L72.475,71.6675590494367L72.88125000000001,73.06600603052294L72.8975,72.53643307906013L73.06,71.39652492268716L73.0925,74.23721607095113L73.17375,74.33105490893224L73.40125,71.19011480021496L73.49875,71.20571960180098L73.645,68.73871080496389L73.88875,70.19823994655229L73.95375,74.98232971591813L73.98625,76.5148102649816L74.3925,71.25687022910019L74.75,71.43011018825263L74.8475,73.20084376509273L75.12375,77.1532421030175L75.22125,76.27751287172904L75.64375,77.23231783862556L76.0175,76.7007231858043L76.13125,73.9552693664374L76.2125,72.97358413832787L76.42375,73.17839115897776L76.5375,70.9417760015916L76.78125,70.11644850857517L77.025,70.22849865477248L77.2525,72.1636075303005L77.82124999999999,75.1110319656462L77.8375,77.41226012403393L77.85375,79.9812118878527L79.17,83.17896859105704L79.31625,82.63517810958811L79.46249999999999,84.35704534933521L79.56,86.53922576443196L79.95,86.76431083312305L80.71374999999999,88.28107681252771L80.84375,86.3109961267444L81.42875000000001,90.69147664436042L81.68875,93.55923109597755L81.7375,94.17804030857107L81.8675,93.767454631313L81.91625,93.69752569906905L82.30625,95.59473478341806L82.37125,97.20880777433608L82.85875,97.38201473553369L83.2325,98.87892503767972L83.47625,92.6645329004508L83.76875,94.69519286610532L83.86625,94.10279064805319L84.12625,91.94341895233711L84.41875,92.74492548366881L84.435,89.92747645488176L84.98750000000001,92.87943452685899L85.15,89.81411489027364L85.19875,92.82153079886604L85.215,94.76661921457865L85.2475,92.38278711759004L85.26375,91.58449853655472L85.67,90.61456413510604L86.20625,91.4044732929861L86.58,94.30708918391814L86.85625,90.76325433792968L87.36,92.59620025381925L87.79875,94.8863009613134L87.88000000000001,96.49273704104549L88.2375,97.75622739048806L88.54625,93.66359779953011L88.57875,95.5323693199051L88.79,94.42874486069805L89.05000000000001,93.20258017320033L89.52125000000001,93.72646323453878L89.57,94.1276806324761L89.97625,92.46884813080364L90.39874999999999,91.90381536304668L90.675,93.92279147020287L91,95.78308135556216L91.2925,96.41295232814274L91.325,98.88478769061723L91.3575,97.43331583153413L91.455,94.98772133121807L91.91,97.13672461731954L92.1375,92.96986411307708L93.0475,90.75955615306798L93.11250000000001,90.88495074754044L93.2425,94.22330593225732L93.29124999999999,97.32427778914652L93.795,97.1959718601661L93.925,98.73883902543973L94.13625,98.48447861435777L94.2175,99.32636729674051L94.4775,100.74497060196488L94.55875,99.1060872014546L94.59125,98.22487021809457L94.75375000000001,98.89411084247712L94.81875,101.61664269288859L95.28999999999999,104.15536733297967L95.485,103.3778421025701L96.33,105.03180441082581L96.44375,105.57731944559974L96.50875,106.45044136476258L96.6875,106.10028940543761L96.78500000000001,106.44030114738187L96.8825,107.50858024347403L97.24,108.2099305354528L97.64625000000001,107.05383444213281L97.6625,102.80024496262324L97.8575,104.44945160108031L98.03625000000001,104.33112361250485L98.085,106.00710981997867L99.01125,104.92344143942046L99.0925,106.36919004727947L99.10875,103.31257269424121L99.27125,103.56249990739154L100.45750000000001,105.01483743813262L100.63624999999999,106.54785000930858L100.6525,106.29419307297039L100.685,106.77845615261475L100.76625,106.26720727634739L100.7825,108.85457111451773L101.18875,107.08009819039079L101.27000000000001,103.9932812928842L101.31875000000001,106.24603106380019L101.44875,103.07892391602655L101.77374999999999,104.88183536961755L101.8225,104.00996443846067L101.83875,104.18252680794812L102.0825,99.06745442536246L102.3425,98.30159095103303L102.44,99.95373209457217L102.65125,101.63932770053438L102.68375,101.69918897784983L102.895,102.7133090280842L103.07375,101.21177734550662L103.49625,102.0881662639162L103.6425,102.53727819223832L103.88624999999999,104.61548794289098L104,106.3917689606385L104.0975,108.22488247136471L104.16250000000001,106.28259103167895L104.4875,107.21183894858056L104.53625,107.8294958241128L105.21875,110.35551273654985L105.495,109.85158314769114L105.77125000000001,109.60993218439998L105.7875,109.0986705412437L106.1125,110.37690951502714L106.16125000000001,111.22059991312115L106.30749999999999,110.78338782572295L106.48625,109.77023506454486L106.8925,111.9253021284541L106.94125000000001,111.16523153425659L107.16875,113.2207526689496L107.20125,112.83576181462942L107.23375,114.81936088184568L107.705,110.94464468938156L108.16,111.32297931727938L108.28999999999999,111.23492781757102L108.355,111.21575258518168L108.485,111.66639820446986L108.66375000000001,110.31646694646322L109.08625,110.18501852865458L109.1675,109.79315898839529L109.4275,108.81950394731268L109.6875,107.99452337585578L109.8175,109.08522927529036L109.96375,110.51820252825596L110.11,109.59771563583745L110.28875,105.53830642577728L110.305,106.80710300904892L110.40249999999999,108.47240497942245L110.5,109.97170944443604L110.5325,110.03639985956883L110.58125,109.24331104378888L111.14999999999999,111.03215455421696L111.345,113.15716467616957L111.65375,112.17027129831779L112.0275,112.74254500941349L112.35249999999999,112.52737605076685L112.74249999999999,112.34082580690408L113.0025,114.53413839051795L113.1325,115.63445010634304L113.27875,117.10805090872945L113.3275,117.69798077011424L113.36,119.1335316311441L114.18875,120.9013925594598L114.2375,119.74853001557379L114.5625,121.11350610268113L114.595,121.80260497070813L114.61125,122.82705370275892L114.725,120.90878919184054L115.0175,120.34872966072156L115.4725,121.05422197775783L115.7975,120.38674588448869L115.83,120.24932911828851L115.92750000000001,121.19428713431417L116.35000000000001,118.71003626928804L116.43125,119.14910480295423L116.70750000000001,121.0757839744123L117,122.17441415265357L117.13000000000001,121.39644287057361L117.63374999999999,122.68668922045042L118.0725,123.50035024565847L118.44624999999999,121.7900795790303L118.91749999999999,120.89117042463424L119.09625,117.39068217360902L119.35625,114.83615969607105L119.58375,114.39463544643571L119.925,114.17778973676414L120.575,116.33609818881968L120.9325,114.98759058766495L121.01375,115.82493264050255L121.615,116.77151633696963L121.79375,115.41388263461477L121.89125,116.8708183619718L122.11874999999999,118.68094266583586L122.15125,120.22982328915322L122.67125,122.06179413684889L123.06125,120.92538835926005L123.25625,121.47483022700581L123.28875,121.10598168643068L123.38625,118.20798656295976L123.58125000000001,118.6194189302403L123.9875,119.34337296976486L124.44250000000001,120.3381696088889L124.47500000000001,118.48354205615661L124.53999999999999,116.57690802429724L124.78375,116.8285081524963L125.45,118.5168260845426L125.49875,119.60861514392116L125.79124999999999,118.87823290322576L126.08375000000001,120.36002522872474L126.36,121.215567986832L126.40875,120.8098602567441L126.57124999999999,122.10690958038576L126.86375000000001,122.42455475093968L126.88,123.14978262771344L127.15625,123.44507186270678L127.205,123.01555828145376L127.75750000000001,123.24656843379579L127.78999999999999,123.44325052279795L127.90375,122.50544276605753L128.3425,123.80610947172148L128.48875,123.01037359261784L128.83,124.42413642453L129.22,125.12102568830545L129.30125,124.90689551648444L129.39875,123.9850936515654L129.8375,122.30397648366021L130.1625,123.05236011463623L130.24375,124.55230744692749L130.48749999999998,121.38307405092739L130.56875,121.70688654651823L130.975,123.20786663471186L131.26749999999998,122.74579540048047L131.3325,122.5855875610173L131.41375,123.44854198261842L131.67374999999998,124.32630131123732L131.70625,123.06550979412704L131.96625,123.26271192233496L131.99875,124.33506409700374L132.09625,117.22222692375144L132.12875,118.32984955942581L132.16125,119.60868673442823L132.35625,120.97009687450647L132.42125,122.20736593052156L132.79500000000002,123.0732097664472L132.94125,123.72500689419742L133.25,123.92883431696268L133.42875,123.12074674952396L133.46124999999998,122.58197853475343L133.55875,123.82919933556099L133.76999999999998,122.66941666662083L134.0625,123.53534103089022L134.69625,123.62289729570121L135.07,117.19352005093589L135.13500000000002,118.7730771302584L135.15125,119.7160587133927L135.265,121.74218138702378L135.54125,122.32756069028939L135.72,123.27380613529458L135.89875,124.19747395355898L136.0125,125.38826966784521L136.10999999999999,122.4733809761065L136.5,123.42440659299548L137.39375,123.18541045548733L137.45874999999998,123.87783230284181L137.67,123.18863392070328L138.04375,123.44668217029029L138.06,123.01881045805021L138.125,120.04321829215628L138.45,121.90763423397159L138.46625,122.55190656697036L138.48250000000002,123.69596609245161L138.61249999999998,125.18942134158523L138.9375,126.51128713598555L139.3275,123.53119312537677L139.44125,125.08558571742644L139.48999999999998,125.83918860893453L139.79874999999998,125.48031569659946L140.67625,125.65864746563514L140.82250000000002,125.25543706281576L140.855,125.82878426807358L140.92000000000002,126.08083605397917L141.0175,124.96976949207908L141.06625,121.63997164987492L141.18,121.8472100386421L141.31,120.51243599326682L141.35875,119.72619016201108L141.55375,119.80329227521413L141.9925,121.59834015543548L142.0575,121.37691091786914L142.23625,122.36076505369924L142.415,123.28255885399001L143.52,123.59931294173951L143.7475,124.56206642666652L143.8775,124.7458139752806L144.10500000000002,124.02700515613768L144.12125,125.7291272370176L144.54375,126.59558418866737L144.77125,127.72537350882159L145.17749999999998,128.05699320193293L145.64874999999998,126.94211233573368L145.6975,128.30012905267037L146.12,128.93738398370255L146.4125,129.78978340899346L146.4775,129.1446011646045L146.88375,129.93557492818508L146.9975,128.9204772382988L147.30625,128.53618296712756L147.72875,128.16967245248065L147.9725,128.61251892217064L148.10250000000002,129.6468163961628L148.11875,128.2482871488743L148.47625,129.97149183407376L148.54125,129.46088348080173L148.76874999999998,130.1999336808871L148.96375,128.75171617570413L149.09375,130.47572133251464L149.41875000000002,129.63399909116418L149.565,130.2048837573313L149.71124999999998,130.61881979202744L149.74375,131.20460724836553L149.76,130.2901109846635L150.06875,131.1870274136116L150.1175,131.91610566748693L150.26375,131.6785531867825L150.865,131.0143791397103L151.125,132.45938640522155L151.30375,132.98496709426382L151.59625,133.6117077339271L151.75875000000002,132.647597008949L151.775,133.00232142278378L151.98624999999998,131.5779853057061L152.0675,131.84991053148192L152.08375,132.2317875804703L152.45749999999998,132.07396981366614L152.52249999999998,132.52240910172455L152.76624999999999,132.54571436207485L153.25375,133.28459207051225L153.4,133.03178832398424L153.44875,132.96156648359278L153.5625,130.74326778589443L153.72500000000002,130.73743460136865L153.77374999999998,131.59122521664426L153.855,130.43966639873537L154.01749999999998,130.58206943765387L154.4075,131.51322840578615L154.55374999999998,132.61985988883046L154.86249999999998,133.4070265322534L155.13875000000002,132.48178094658394L155.935,131.3204219412124L156.14625,132.14029349229577L156.195,131.7557650266355L156.69875000000002,132.9586840484645L156.715,133.1464167792958L156.99124999999998,133.71376182802112L157.15375,134.17001903289722L157.235,133.99681693913953L157.41375,133.605592350584L157.51125,133.9072557908425L157.625,133.9397529929793L157.9175,131.92730821300788L157.99875,132.23518248042782L158.07999999999998,133.09217825832155L158.3725,133.48136617157496L158.55124999999998,133.00698805399014L158.6,133.75075780435614L158.92499999999998,133.6924185968186L159.055,134.59909595864394L159.2175,135.29929635063448L159.4125,135.70248539643563L159.78625,136.90806124606763L159.86749999999998,136.0728348728597L160.85875,135.38094824954092L160.875,136.40281003743868L160.94,137.21614347864275L161.395,135.86392420900043L162.09375,135.65517001319222L162.22375,135.91404659529323L162.35375,136.15070578694494L162.37,135.63049427742232L162.92249999999999,134.26327564368998L163.10125000000002,135.2363326879788L163.29625,134.0277816813062L163.345,132.42380770624843L163.57250000000002,131.69020966943484L164.54749999999999,133.09753451787677L164.9375,132.51684249181469L165.42499999999998,132.78753940610451L165.48999999999998,134.0412554088254L165.7175,132.65409009079642L165.99375,132.97163474107904L166.09125,131.32000798126668L166.77375,132.24111061205352L167.03375,133.20410146069753L167.21249999999998,133.73576699836724L167.35875,133.5880334989492L167.48875,133.5829595065419L167.81375,131.578909651704L167.84625,131.90913978108824L167.895,131.79254732397024L167.92749999999998,133.10915425718798L168.025,132.9489410080434L168.22,133.31533976665426L168.35,134.36448420835032L168.39875,135.44166130227094L168.48000000000002,135.14475766167396L168.59375,134.73230669923112L168.62625,134.55219899904134L169.455,135.35419885346224L169.63375,134.4024652985338L169.76375,134.40109240714145L170.08875,135.1447889083765L170.105,135.89913552470287L170.13750000000002,135.9425245732455L170.365,134.40524278856148L170.43,134.7472580364924L170.57625,135.65797632609042L170.5925,135.00826002573115L170.67375,134.12653992944584L170.73874999999998,133.88974398021497L170.755,134.12947725700144L170.99875,135.8684509144686L171.5025,136.24891034225453L171.69750000000002,135.9970826841611L171.81125,135.93544640675148L171.89249999999998,135.30269070249264L172.12,136.46399287551628L172.26625,136.81767688065423L172.51,137.5826259986744L172.68875,137.87020696956915L172.8025,138.2166491513428L172.81875,137.42482544955072L172.965,138.15296774940833L173.5825,137.58845287622773L173.7125,135.92476112914338L173.72875000000002,135.80313765385114L173.79375000000002,135.79948471295032L174.31375,135.50225256740856L175.0775,135.59868698971627L175.1425,135.83991416526945L175.435,134.74937346670166L175.51625,135.55728871421334L175.80875,134.86184374797696L175.8575,131.68871501032694L176.19875,132.7481360057139L176.3775,132.8442325427859L176.7675,133.0079180913259L176.88125,132.04081959794436L177.1575,133.11921300115773L177.19,134.12556506836083L177.23875,135.1410266372078L177.58,135.7838962010637L177.61249999999998,136.6371215227298L177.69375,137.40322822766973L177.8725,136.84200030575585L178.0675,137.01153205534834L178.34375,137.864850875049L178.63625000000002,137.39975678160283L178.73375000000001,137.19688828151467L178.815,135.52811048188082L178.89625,136.9632360493883L179.18875,134.73052132048574L179.205,133.49026716394422L179.64374999999998,132.80358537199308L179.77375,133.60295048037491L179.93625,134.32230337381088L180.11499999999998,135.3552603554254L180.45625,136.33538201844917L180.74875,136.7657758800348L181.26874999999998,137.0360630705798L181.285,136.77776322499182L181.38250000000002,137.0201903889087L182.22750000000002,135.97142294018366L182.26,135.47715993007364L182.4225,136.07652526640865L182.53625,135.91500531540555L182.975,136.6669249927728L183.31625,136.91420650808237L183.47875000000002,136.67633522512583L183.73875,134.42521599265464L183.77124999999998,134.9262832654775L183.88500000000002,134.63346218893275L184.405,135.02370868305113L184.48624999999998,135.54570094358695L184.66500000000002,136.54442015895177L184.74625,136.5929412325856L185.44500000000002,136.71489450882603L185.49374999999998,137.6452784457951L185.81875,136.85108267587765L185.91625000000002,137.68732671529162L185.9325,137.0365388134893L186.355,135.98039811410496L186.46875,137.23659639886375L187.47625000000002,137.26015028090828L187.4925,136.6941361409929L187.63875000000002,136.4863552883356L187.7525,137.24444112768572L187.80125,138.39444304247752L187.915,138.32915979118198L187.96375,138.72039265980598L188.32125000000002,138.68660911772236L188.5,138.87472595491235L188.67875,139.9453692798042L188.84125,140.17694269115407L188.87375,140.1476907806616L188.89000000000001,139.25874006791105L188.93875,138.97155138996447L189.32874999999999,139.16980298789824L189.42625,138.76427648959128L189.49124999999998,139.39400902781531L189.79999999999998,136.9217948029864L189.9625,137.09918915441153L190.0925,137.75009659050536L190.28750000000002,138.88783629038372L190.9375,139.20455693198835L191.08375,139.28403201809425L191.1,139.08428414852892L191.23000000000002,139.05060028489095L191.37625,138.8711773708638L191.945,138.84018465840074L192.4,139.75406109214916L192.44875,140.62973312333872L193.09875,140.13719245302434L193.48875,137.83395115276488L193.65125,138.22316346573774L194.545,138.66525434304097L194.75625,138.53781298835017L194.935,137.96359975588035L195.2275,138.6585408720527L195.8125,137.71374708968784L195.89374999999998,137.08167915504058L195.91,137.84955519067537L195.9425,138.66515311874016L196.17,138.17752966250998L196.36499999999998,138.54485043596316L196.5275,138.3066237016517L196.73874999999998,138.97363989568566L196.82,139.5983401264429L196.83625,140.56758536450022L197.08,140.72230343442914L197.1775,141.2121806398903L197.34,141.67434574198762L197.73,142.07861665292418L198.00625,141.94570614311547L198.36375,142.09382254987565L198.8675,139.94799851426131L198.98125,140.16258778830817L199.03,138.2442277909425L199.16,139.08534150197238L199.42000000000002,140.08838734932294L199.48499999999999,140.29092575551863L199.56625,140.6177432772777L199.59875,140.1722558090457L199.63125,139.39686596735635L199.68,139.8949426463649L200.24875,139.97125278641101L200.3625,140.53258762908197L200.6225,141.34653152102723L200.9475,141.67250861376903L201.4025,141.80441730608052L201.435,141.11977520320704L201.45125000000002,140.65968499765296L201.48375,140.75619707422408L201.58124999999998,140.8532656566162L201.7275,141.82708375474462L201.825,142.16344983992724L201.90625,142.36563588072167L202.3775,140.73824604104337L202.605,141.3042481858317L202.78375,141.70277896380978L202.94625000000002,142.24574818342163L203.01125000000002,142.38455569727196L203.0275,142.01794747703283L203.48250000000002,141.9459376041132L203.62875,138.09436762418687L203.75875,138.39647730922738L204.0025,139.61851917105767L204.01874999999998,140.03510798045895L204.21375,140.42074396172507L204.7175,140.71331500527836L204.86374999999998,140.97011700975384L205.075,141.50460561889813L205.12375,140.7730285745584L205.14000000000001,141.48283425490564L205.22125,141.26444738873298L205.3675,140.5129860737252L205.4975,139.70394077542704L205.61125,139.07284106872766L205.6275,138.6019820973879L205.90375,138.00166170241553L206.39125,138.4001158864754L206.55375,138.86295788042034L207.155,139.80035800177575L207.30124999999998,140.47757820957915L207.3175,140.96140223619787L207.415,141.20137134134472L207.67499999999998,139.8477929273817L207.78875000000002,139.1865934168083L208.24375,139.36360494755746L208.26000000000002,138.89435627601284L208.40625,139.2711666900671L208.4875,139.8668840840092L208.66625,140.13800098554964L208.8125,139.08160358420025L209.04000000000002,139.5819277076348L209.21875,140.0148706528129L209.6575,139.78595964329014L209.70624999999998,139.57619560480032L209.8525,140.60976922601054L210.25875,140.8160370498627L210.32375,141.0552931771103L210.47,141.34406008369038L210.6975,141.39746108328313L210.795,140.8949517950334L210.82750000000001,140.47847495447522L211.38,139.9096810065922L211.4775,139.74768446962653L211.575,139.35154239102425L211.60750000000002,139.47104121260642L211.62375,140.28802513359176L211.78625,139.80313064274225L211.8675,138.7204248981045L212.095,138.82861851532226L212.24125,138.66654761019086L212.50125,138.05118847053376L212.9075,138.83992205981593L213.21625,138.32965375291073L213.3625,138.66762092155966L213.655,138.96359764700279L213.94750000000002,139.32331691755482L214.09375,139.8684301634176L214.4675,140.9117617736928L214.5,141.07719308677036L214.51625,141.55598577100483L215.345,141.90792322496176L215.475,142.7713915461407L215.52375,142.60320500627444L215.67000000000002,143.00945230306775L215.94625,142.70569868957102L216.2875,143.01326602358873L216.53125,142.24491823880203L216.79125,142.63023418268227L217.11625,142.50862773190866L217.23000000000002,142.53560487264068L217.34375,142.88390782670317L217.425,143.27130720426496L217.92874999999998,143.16962556344473L218.05875,142.30572554780693L218.09125,142.89246553574785L218.64375,142.76483273726677L218.6925,143.13207184266489L218.92,143.74830327336787L218.95250000000001,144.35429908564672L218.96875,142.80704682253685L219.1475,143.22117215988965L219.245,142.36251639240123L219.7,142.03935223765L219.74875,142.8359206035532L219.765,142.62641877167601L219.86249999999998,142.92602922061113L219.895,143.38777181156104L220.17125,143.29097815023061L220.30125,142.8087840100915L220.44750000000002,142.8019443847615L220.69125,141.89512995346627L220.95125,142.60662343109962L221.58499999999998,140.6155729948294L221.78,140.84614185852448L221.8125,139.98917266769251L221.975,140.88853578924707L222.15375,140.47700444751595L222.2675,139.39484774656677L222.38125,138.8456832006954L222.41375,136.73275216654054L222.69,137.88823453538882L222.99875,139.03771030082908L223.58375,139.0494898095609L223.74625,139.6619661001424L224.02249999999998,139.98176896223632L224.12,140.823981744226L224.26625,141.56245061378533L224.75375,141.92206129912307L225.1275,140.2657105023867L225.14375,139.03756186546735L225.43625,139.68244461977153L225.89124999999999,140.4348974052797L225.9725,140.5371397663842L226.18375,141.1783015817872L226.2,141.75641232271238L226.41125,141.33104316883933L226.54125000000002,140.84870386714027L226.6225,140.9507808507468L226.655,141.32399100596413L226.67125,141.21017941863573L226.99625,142.00898530167618L227.07750000000001,142.26658965724923L227.305,142.3454690991133L227.4675,141.96604887741742L227.54875,140.59585776656678L227.6625,140.8019726304395L227.90625,141.65860075080872L227.97125,142.03059021557735L228.16625000000002,142.82200866303836L228.735,142.75817347691253L228.88125000000002,143.5521234976199L228.9625,142.7548973714728L229.66125,143.28612003631494L229.7425,143.95672870480908L229.88875000000002,144.80475854758342L229.98625,145.22716684870946L230.165,144.22429275307115L230.23,144.9694208444324L230.48999999999998,144.00315716734033L230.70125,143.60192069684584L231.02625,143.97818890658624L231.1725,144.03178977853239L231.3025,144.2598073733935L231.6275,144.1085316447199L231.8875,144.04972849694414L232.21249999999998,143.3568339902504L232.26125,144.20430581304856L232.52124999999998,144.4244261429219L232.74875,143.42482196251132L232.78125,144.06040528467418L232.96,143.357258404255L233.935,143.58267668126098L234.08124999999998,143.34913479054237L234.0975,143.01612518666028L234.585,142.01342819923218L234.89375,142.1994346005021L234.9425,142.80474856219212L235.3,140.97015977252886L236.015,141.62216819365253L236.35625,141.70464403283748L236.45375,142.4701240087162L236.48625,143.17192872452898L236.8275,143.7200282215262L237.185,142.7331979330314L237.65625,142.7160413520541L238.17625,143.60751413444814L238.40375,144.19715194123776L238.66375,144.31773138228567L238.85875,144.46792660904586L239.8175,143.17618017745409L240.0775,143.80639263636195L240.58124999999998,144.48893301019675L240.71125,144.789985358392L241.05249999999998,145.1240352531264L241.45875,145.84312047663985L241.54000000000002,145.44882503906845L241.75125,144.45167960144377L241.9625,144.32715486032004L242.06,144.63376047694527L242.7425,145.08218002693977L242.75875,145.4781779093237L242.84,145.74081738707974L242.92125,145.8779308330761L243.08374999999998,145.12365616479568L243.57125000000002,143.6543648765201L243.7825,144.4749770824712L244.02625,144.15264077259184L244.3025,144.7689929234065L244.74125,144.86349961527878L244.7575,144.86722621775493L244.88750000000002,145.44032968883607L245.0825,145.7446144233502L245.13125000000002,145.64516028320506L245.2775,145.72596434065179L245.52125,145.90668146761882L245.58625,145.96760782201122L245.61875,145.80492254927717L245.8625,146.19474811439514L246.155,146.31576017519322L246.44750000000002,144.9988076465736L246.69125,145.21383101531228L246.85375000000002,143.87633464519703L246.9025,144.33306007498905L247.0975,143.585983417908L247.11375,144.31410574395872L247.17875,144.68595308812766L247.63375000000002,145.21599961893835L248.05625,145.34115941022208L248.5925,145.9006153587866L248.67375,146.4469636462354L248.83625,146.5158095699467L249.42125000000001,145.81448018329598L249.5025,145.27723345391814L250.2825,144.78092716561005L250.3475,144.91496528300434L250.6725,145.43371349214522L251.45250000000001,145.14857367989197L251.46875,145.51794981225592L251.81,145.84687499768538" style="fill: none;" fill="none"></path></g></g></g></g><g opacity="0.2"><g><g><g><path stroke="rgb(255, 112, 67)" stroke-width="2px" d="M34.027499999999996,-121.6747622754839L35.01875,21.58324095275667L35.067499999999995,-54.73131812943352L35.21375,60.20063200924131L36.221250000000005,46.63464010755222L36.3025,-24.179232723183098L36.64375,1.91144568390316L36.724999999999994,-11.351987659931183L36.83875,16.3298400508033L36.93625,-16.72563099861145L37.504999999999995,20.596486720773907L37.5375,-165.27555396821765L37.667500000000004,-28.971365365717123L38.13875,79.99997856881883L38.46375,-15.094533503055573L39.341249999999995,-39.12405614058178L39.3575,31.14438609282177L39.682500000000005,-57.7790365682708L39.975,-3.793763226932945L40.02375,59.51404180129368L40.04,11.65327866209879L40.2025,14.834958374500275L41.21,42.83098576135105L41.64875,53.05376638306513L41.908750000000005,32.1660342084037L42.0225,83.684149361319L42.03875,53.71935100356739L42.575,-28.76192838615841L42.802499999999995,-3.8478133810890958L42.9325,69.46444972687296L42.965,66.71807415948973L43.013749999999995,-74.55113242732155L43.04625,64.67538208762804L43.24125,55.12953986061943L43.403749999999995,30.79306009080675L44.1025,84.4346846739451L44.2325,72.43412846657965L44.3625,40.76188750730621L44.72,17.225042045116425L44.785,4.004120886325836L44.93125,30.65743369526333L44.99625,85.51859803663359L45.028749999999995,62.024286862876664L45.25625,87.450087957912L45.28875,25.569410350587635L45.37,34.68374284770754L45.4025,39.704402430189994L45.5325,-32.22772506210541L45.629999999999995,42.50790789061123L45.64625,29.311086793740596L46.085,72.24007544583743L47.23875,34.41699914799797L47.271249999999995,-1.717238234149094L47.807500000000005,52.82897491587534L47.856249999999996,75.11686837673187L48.1325,42.985215842723846L48.27875,71.92445378502208L48.295,71.18165465858246L48.392500000000005,72.4644543164306L48.408750000000005,68.53612948788536L48.49,91.91013928254443L48.7825,27.595274375544662L48.83125,76.98412584927347L48.9775,38.75880470871925L49.77375,85.58303678366873L49.8225,26.44012178977331L49.92,62.09148853354982L50.0175,28.961175408628254L50.09875,78.06985168986849L50.26125,-9.351881451076927L50.35875,22.105794542365608L50.440000000000005,66.55014734466869L51.285000000000004,81.94501786761812L51.36625,79.99635361300574L51.3825,75.60001899136437L51.675000000000004,17.859320898850765L51.886250000000004,32.06441756089529L52.0975,18.887364261680183L52.715,15.932155874040394L52.99125,27.539721190929413L53.316250000000004,43.491493970155716L53.41375,103.39017172820037L53.5275,83.36971391571892L53.885,34.02915834718281L53.933749999999996,23.99058000246685L54.112500000000004,18.75458183553484L54.16125,41.79192754295138L54.21,18.647896144125195L54.22625,-64.89861187669968L55.006249999999994,40.7620274954372L55.10375,60.0023793445693L55.12,77.37387490934795L55.4775,13.614969180689926L55.6725,-43.49821369515526L55.835,66.11818081140518L56.322500000000005,52.56728552447426L56.50125,85.76788742674721L56.63125,19.373255696561603L56.728750000000005,59.314831323093834L57.24875,74.05989167756503L57.31375,87.4278224772877L57.72,33.57972276873058L57.980000000000004,88.72073075175285L57.996249999999996,28.832106351852417L58.24,23.84410821066963L58.305,15.721392691135406L58.58125,78.3110438717736L59.15,32.10886010858747L59.28,21.49111402697033L59.605000000000004,31.47776414288416L59.832499999999996,66.28206270602013L59.97875,64.90309120217958L60.07625,63.350269175238076L60.10875,93.51340124342177L60.1575,-21.31198108858532L60.27125,20.34783832894432L60.4175,72.57875094148848L60.645,40.130312634838965L60.6775,66.25486080182922L60.72625,67.81586108273929L60.85625,68.23268679446643L60.8725,49.782405853271484L61.34375,78.00721068514717L61.441250000000004,71.57310567961798L61.831250000000004,22.110406782892017L62.1725,65.58712478478748L62.464999999999996,37.82275565134155L62.611250000000005,40.399752948019234L62.822500000000005,67.56347721815109L62.87125,87.10308685236505L63.00125,69.26571078764067L63.65125,77.8456643819809L63.9275,87.06289552317725L64.09,20.23994431893032L64.13875,33.77003294891781L64.46375,40.425584442085686L64.72375,23.887961334652367L65.01625,70.39493609799278L65.08125,49.71082771155569L65.21124999999999,89.14230869213739L65.4875,59.09919802678955L65.585,36.164559400743904L65.975,83.53517988655302L66.18625,58.80363887548447L66.235,60.23017687267727L66.25125,85.35517294539345L66.38125,75.18507206771109L66.44625,62.846695029073274L66.56,63.727559291654146L66.80375,80.56027001142502L67.35624999999999,99.45108623305956L67.42125,47.46028273635441L67.535,69.22193870941797L67.68125,64.0630961060524L68.03875000000001,78.33141582873132L68.10374999999999,84.52580957942537L68.23375,92.65209111240173L68.36375,96.19019534190494L68.42875000000001,91.90975615713332L68.75375,74.47889088922075L68.835,54.90172022912237L68.85125000000001,78.38828048110008L68.88374999999999,28.607108586364326L68.9325,71.78053125076822L69.1275,84.80314817031223L69.17625,67.09590212504068L69.2575,63.947001738680726L69.56625,22.326666341887588L69.82625,85.22856473260454L69.98875000000001,91.88267213768428L70.18375,99.57871120174724L70.60625,68.82676695121658L70.7525,29.88953248659771L71.32125,113.12801504466269L71.33749999999999,100.11618089510334L71.37,43.22680588563284L72.085,49.72517281108433L72.215,78.69353565242555L72.36125,51.836864295932976L72.39375,81.71993905637L72.475,85.29019634922344L72.88125000000001,85.65202882885933L72.8975,67.77027652661005L73.06,61.1373515360885L73.0925,99.80343635876972L73.17375,75.17560444937811L73.40125,42.92165386345652L73.49875,71.3461628158887L73.645,46.53563165995809L73.88875,83.33400220672289L73.95375,118.03913759854103L73.98625,90.30713519454002L74.3925,23.935409943262748L74.75,72.98926981952454L74.8475,89.13744594653446L75.12375,112.72482712401283L75.22125,68.39594979418648L75.64375,85.82556253671646L76.0175,71.91637131240631L76.13125,49.24618500139979L76.2125,64.13841708832315L76.42375,75.0216543442673L76.5375,50.81223959061834L76.78125,62.68850107325447L77.025,71.23694997032482L77.2525,89.57958740658229L77.82124999999999,101.63785187900066L77.8375,98.12331354618073L77.85375,103.10177775886322L79.17,111.95877891613377L79.31625,77.74106377694342L79.46249999999999,99.85385050541824L79.56,106.17884949843088L79.95,88.79007645116911L80.71374999999999,101.9319706261158L80.84375,68.58026995592645L81.42875000000001,130.11580130043956L81.68875,119.36902115907932L81.7375,99.74732322163051L81.8675,90.07218353615866L81.91625,93.06816530889934L82.30625,112.6696165419287L82.37125,111.73546469211578L82.85875,98.94087738626534L83.2325,112.35111775663162L83.47625,36.7350036667453L83.76875,112.97113255659738L83.86625,88.77117068568865L84.12625,72.50907369123564L84.41875,99.95848426553938L84.435,64.57043519616127L84.98750000000001,119.44705717431175L85.15,62.226238161325455L85.19875,119.88827397591537L85.215,112.27241495582793L85.2475,70.92829824487367L85.26375,84.39990130729144L85.67,81.88515452212756L86.20625,98.51365571386283L86.58,120.43063220216168L86.85625,58.86874072419271L87.36,109.09271349675124L87.79875,115.49720732867718L87.88000000000001,110.95066175858179L88.2375,109.12764053543407L88.54625,56.829931481017L88.57875,112.3513130032354L88.79,84.49612472785843L89.05000000000001,82.16709798574448L89.52125000000001,98.44141078657573L89.57,97.73863721390563L89.97625,77.53935561577478L90.39874999999999,86.81852045324113L90.675,112.09357643458578L91,112.52569032377666L91.2925,102.08179108136231L91.325,121.13130595286685L91.3575,84.37006909979713L91.455,72.97737082839012L91.91,116.47775419221983L92.1375,55.46811957491768L93.0475,70.86678451299667L93.11250000000001,92.01350209779208L93.2425,124.26850259469616L93.29124999999999,125.23302450113827L93.795,96.04121849934259L93.925,112.62464351289803L94.13625,96.1952349146207L94.2175,106.90336543818313L94.4775,113.5124003489812L94.55875,84.35613659686511L94.59125,90.2939173678557L94.75375000000001,104.91727646191913L94.81875,126.1194293465879L95.28999999999999,127.0038890937964L95.485,96.38011502888466L96.33,119.91746518512565L96.44375,110.48695475856462L96.50875,114.30853863722747L96.6875,102.94892177151308L96.78500000000001,109.50040682488019L96.8825,117.12309210830266L97.24,114.52208316326141L97.64625000000001,96.64896960225369L97.6625,64.51793964703876L97.8575,119.29231134719318L98.03625000000001,103.26617171532577L98.085,121.09098568724262L99.01125,95.17042601439688L99.0925,119.38092751801014L99.10875,75.80301651689742L99.27125,105.81184482574463L100.45750000000001,118.08587521480189L100.63624999999999,120.34496314989197L100.6525,104.01128064592677L100.685,111.13682386941379L100.76625,101.66596738994122L100.7825,132.14084565805067L101.18875,91.1098418732484L101.27000000000001,76.21192921532524L101.31875000000001,126.52077900204394L101.44875,74.57495958606401L101.77374999999999,121.1080384519365L101.8225,96.16312605804866L101.83875,105.73558813333511L102.0825,53.031802982091904L102.3425,91.40881968206828L102.44,114.82300238642428L102.65125,116.80968815419409L102.68375,102.23794047368897L102.895,111.84038948019344L103.07375,87.69799220230844L103.49625,109.97566652960246L103.6425,106.57928554713726L103.88624999999999,123.3193756987651L104,122.37829812036621L104.0975,124.72290406790043L104.16250000000001,88.80196807450717L104.4875,115.57507020069492L104.53625,113.38840770390297L105.21875,133.0896649484833L105.495,105.31621684796279L105.77125000000001,107.43507351477939L105.7875,104.4973157528374L106.1125,121.88106027907794L106.16125000000001,118.81381349596712L106.30749999999999,106.8484790391392L106.48625,100.65186021394199L106.8925,131.32090570363732L106.94125000000001,104.32459618647891L107.16875,131.72044288118678L107.20125,109.37084412574768L107.23375,132.67175248679186L107.705,76.07219895720482L108.16,114.72799096835983L108.28999999999999,110.44246432019604L108.355,111.04317549367744L108.485,115.72220877806345L108.66375000000001,98.16708562440341L109.08625,109.00198276837665L109.1675,106.26642312606174L109.4275,100.0566085775693L109.6875,100.56969823274348L109.8175,118.90158237020174L109.96375,123.41496180494624L110.11,101.31333360407088L110.28875,69.0036235352357L110.305,118.22627225849364L110.40249999999999,123.46012271278435L110.5,123.46544962955845L110.5325,110.61861359576383L110.58125,102.10551170176929L111.14999999999999,127.13174614806968L111.345,132.28225577374297L111.65375,103.28823089765177L112.0275,117.89300840927494L112.35249999999999,110.59085542294714L112.74249999999999,110.66187361213896L113.0025,134.2739516430431L113.1325,125.53725554876858L113.27875,130.3704581302073L113.3275,123.0073495225774L113.36,132.05348938041263L114.18875,136.81214091430107L114.2375,109.37276712059975L114.5625,133.39829088664717L114.595,128.00449478295113L114.61125,132.04709229121605L114.725,103.64440859357515L115.0175,115.30819388065073L115.4725,127.40365283108419L115.7975,114.3794610450665L115.83,119.01257822248671L115.92750000000001,129.6989092785451L116.35000000000001,96.35177848405307L116.43125,123.10072160594994L116.70750000000001,138.41589651753503L117,132.0620857568251L117.13000000000001,114.39470133185387L117.63374999999999,134.29890636934172L118.0725,130.82329947253066L118.44624999999999,106.39764357937706L118.91749999999999,112.80098803506957L119.09625,85.88628791438208L119.35625,91.84545739822919L119.58375,110.42091719971762L119.925,112.2261783497201L120.575,135.7608742573195L120.9325,102.85102217727238L121.01375,123.36101111604107L121.615,125.290769605173L121.79375,103.19517931342125L121.89125,129.98323990818525L122.11874999999999,134.97206140061218L122.15125,134.16974889900948L122.67125,138.54953176611L123.06125,110.69773636096055L123.25625,126.41980703671771L123.28875,117.7863448212544L123.38625,92.1260304517216L123.58125000000001,122.32231023576523L123.9875,125.85895932548577L124.44250000000001,129.29133936100536L124.47500000000001,101.79189408156607L124.53999999999999,99.4172017375628L124.78375,119.09290930628777L125.45,133.71168747295934L125.49875,129.434716678328L125.79124999999999,112.30479273696739L126.08375000000001,133.69615615821547L126.36,128.91545280979742L126.40875,117.15849068595303L126.57124999999999,133.78035349316067L126.86375000000001,125.28336128592491L126.88,129.67683351867728L127.15625,126.10267497764694L127.205,119.14993605017662L127.75750000000001,125.32565980487401L127.78999999999999,125.21338932381737L127.90375,114.06517295539379L128.3425,135.5121098226971L128.48875,115.84875068068504L128.83,137.1480019117395L129.22,131.39302906228434L129.30125,122.9797239700953L129.39875,115.68887686729431L129.8375,107.1739219725132L130.1625,129.78781279342044L130.24375,138.05183343754874L130.48749999999998,92.8599734869268L130.56875,124.62119900683561L130.975,136.71668742845455L131.26749999999998,118.58715429239804L131.3325,121.14371700584888L131.41375,131.21513177702823L131.67374999999998,132.2261352688074L131.70625,111.71838614013458L131.96625,125.0375310762061L131.99875,133.9862336690227L132.09625,53.206692364480766L132.12875,128.2984532804953L132.16125,131.11822130944992L132.35625,133.22278813521066L132.42125,133.3427874346574L132.79500000000002,130.86580428977805L132.94125,129.59118104394938L133.25,125.76328112185001L133.42875,115.84795864257548L133.46124999999998,117.73306460181871L133.55875,135.05418654282886L133.76999999999998,112.23137264615958L134.0625,131.32866030931473L134.69625,124.41090367900001L135.07,59.32912484804788L135.13500000000002,132.98909084416098L135.15125,128.2028929616014L135.265,139.97728544970352L135.54125,127.59597441967989L135.72,131.7900151403414L135.89875,132.51048431793848L136.0125,136.10543109642134L136.10999999999999,96.23938275045818L136.5,131.98363714499604L137.39375,121.03444521791404L137.45874999999998,130.1096289290322L137.67,116.98584848145643L138.04375,125.76911641657352L138.06,119.1679650478893L138.125,93.26288879911104L138.45,138.68737771030928L138.46625,128.35035756395925L138.48250000000002,133.99250182178284L138.61249999999998,138.6305185837878L138.9375,138.4080792855885L139.3275,96.7103470298979L139.44125,139.07511904587346L139.48999999999998,132.62161463250715L139.79874999999998,122.25045948558385L140.67625,127.26363338695633L140.82250000000002,121.62654343744117L140.855,130.98890911539394L140.92000000000002,128.3493021271295L141.0175,114.97017043497826L141.06625,91.67179107003743L141.18,123.712355537547L141.31,108.49946958488887L141.35875,112.64997768070961L141.55375,120.49721129404175L141.9925,137.7537710774276L142.0575,119.38404777977202L142.23625,131.21545227617025L142.415,131.57870305660697L143.52,126.45009973148504L143.7475,133.22684779100948L143.8775,126.39954191280735L144.10500000000002,117.5577257838514L144.12125,141.04822596493693L144.54375,134.39369675351512L144.77125,137.89347739020982L145.17749999999998,131.04157043993473L145.64874999999998,116.9081845399406L145.6975,140.5222795051005L146.12,134.67267836299206L146.4125,137.46137823661167L146.4775,123.33796096510356L146.88375,137.05433880041042L146.9975,119.78459802932208L147.30625,125.07753452658653L147.72875,124.87107782065868L147.9725,132.59813714938034L148.10250000000002,138.9554936620924L148.11875,115.66152392327785L148.47625,145.4803340008689L148.54125,124.86540830135345L148.76874999999998,136.8513854816556L148.96375,115.71775862905714L149.09375,145.99176774380933L149.41875000000002,122.05849891901016L149.565,135.34284575283527L149.71124999999998,134.34424410429264L149.74375,136.47669435540834L149.76,122.0596446113454L150.06875,139.25927527414427L150.1175,138.47780995236502L150.26375,129.5405808604426L150.865,125.03681271606023L151.125,145.464451794823L151.30375,137.71519329564438L151.59625,139.25237349089647L151.75875000000002,123.970600484146L151.775,136.19484114729696L151.98624999999998,118.75896025200683L152.0675,134.29723756346436L152.08375,135.66868102136584L152.45749999999998,130.65360991242858L152.52249999999998,136.5583626942502L152.76624999999999,132.75546170522767L153.25375,139.93449144644867L153.4,130.75655460523237L153.44875,132.32956992006964L153.5625,110.77857950660918L153.72500000000002,130.6849359406365L153.77374999999998,139.27534075412484L153.855,120.07563703755537L154.01749999999998,131.86369678792025L154.4075,139.89365911897684L154.55374999999998,142.57954323622914L154.86249999999998,140.49152632306019L155.13875000000002,124.1545706755585L155.935,120.86819089286858L156.14625,139.51913745204607L156.195,128.29500883569318L156.69875000000002,143.7849552449253L156.715,134.83601135677762L156.99124999999998,138.81986726654898L157.15375,138.276333876782L157.235,132.43799809532035L157.41375,130.0845710535844L157.51125,136.62222675316863L157.625,134.2322278122107L157.9175,113.81530519326526L157.99875,135.00605088720718L158.07999999999998,140.80514025936523L158.3725,136.9840573908554L158.55124999999998,128.73758499572673L158.6,140.4446855576502L158.92499999999998,133.16736572898097L159.055,142.75919221507178L159.2175,141.60109987854958L159.4125,139.33118680864573L159.78625,147.7582438927558L159.86749999999998,128.55579751398827L160.85875,129.1539686396718L160.875,145.59956612851886L160.94,144.53614444947905L161.395,123.69395078221956L162.09375,133.77638225091826L162.22375,138.2439358342025L162.35375,138.28063851181003L162.37,130.94859069171878L162.92249999999999,121.95830794009898L163.10125000000002,143.99384608657823L163.29625,123.15082262125279L163.345,117.9880419307285L163.57250000000002,125.08782733811272L164.54749999999999,145.7634581538538L164.9375,127.29061425725618L165.42499999999998,135.22381163471275L165.48999999999998,145.32469943331347L165.7175,120.16960222853554L165.99375,135.82953659362263L166.09125,116.45536714295545L166.77375,140.53103428913485L167.03375,141.87101909849378L167.21249999999998,138.5207568373945L167.35875,132.25843200418683L167.48875,133.53729357487626L167.81375,113.54246095816293L167.84625,134.88121094554663L167.895,130.74321520990796L167.92749999999998,144.95861665614777L168.025,131.50702176574202L168.22,136.61292859415212L168.35,143.80678418361478L168.39875,145.13625514755645L168.48000000000002,132.47262489630114L168.59375,131.02024803724552L168.62625,132.93122969733346L169.455,142.57219754325018L169.63375,125.83686330417791L169.76375,134.38873638461033L170.08875,141.83805741949212L170.105,142.68825507164001L170.13750000000002,136.33302601012917L170.365,120.56970672640536L170.43,137.82539526787068L170.57625,143.85444093247253L170.5925,129.16081332249772L170.67375,126.19105906287828L170.73874999999998,131.758580437137L170.755,136.28707674807973L170.99875,151.51921383167306L171.5025,139.67304519232775L171.69750000000002,133.73063376131984L171.81125,135.38071991006532L171.89249999999998,129.60788936416307L172.12,146.91571243272887L172.26625,140.00083292689587L172.51,144.46716806085573L172.68875,140.4584357076221L172.8025,141.33462878730563L172.81875,130.29841213342215L172.965,144.70624844812684L173.5825,132.50781901760232L173.7125,120.95153540538418L173.72875000000002,134.7085263762209L173.79375000000002,135.76660824484296L174.31375,132.82716325753265L175.0775,136.4665967904859L175.1425,138.0109587452478L175.435,124.93450717959139L175.51625,142.82852594181895L175.80875,128.60283905184932L175.8575,103.1305563714769L176.19875,142.28292496419616L176.3775,133.70910137643415L176.7675,134.4810880281859L176.88125,123.33693315751022L177.1575,142.8247536300785L177.19,143.1827336731884L177.23875,144.2801807568305L177.58,141.56972227576705L177.61249999999998,144.3161494177249L177.69375,144.2981885721286L177.8725,131.79094900853104L178.0675,138.5373178016808L178.34375,145.54472025235492L178.63625000000002,133.21390994058717L178.73375000000001,135.37107178072134L178.815,120.50911028517616L178.89625,149.87936615695554L179.18875,114.63608876036272L179.205,122.32797975507046L179.64374999999998,126.62344924443299L179.77375,140.79723645581137L179.93625,140.79647941473456L180.11499999999998,144.65187318995595L180.45625,145.15647698566318L180.74875,140.63932063430548L181.26874999999998,139.4686477854848L181.285,134.45306461469994L181.38250000000002,139.20203486416074L182.22750000000002,126.53251590165827L182.26,131.0287928390834L182.4225,141.47081329342393L182.53625,134.46132575637765L182.975,143.4342020890779L183.31625,139.13974014586873L183.47875000000002,134.53549367851681L183.73875,114.16514290041393L183.77124999999998,139.43588872088324L183.88500000000002,131.9980725000302L184.405,138.53592713011633L184.48624999999998,140.24363128840923L184.66500000000002,145.53289309723507L184.74625,137.0296308952901L185.44500000000002,137.81247399499017L185.49374999999998,146.01873387851649L185.81875,129.70332074662048L185.91625000000002,145.2135230700175L185.9325,131.1794476972686L186.355,126.47513181964555L186.46875,148.542380961693L187.47625000000002,137.47213521930905L187.4925,131.60000888175435L187.63875000000002,134.61632761442L187.7525,144.0672136818369L187.80125,148.74446027560364L187.915,137.7416105295221L187.96375,142.2414884774221L188.32125000000002,138.38255723896953L188.5,140.56777748962242L188.67875,149.58115920383068L188.84125,142.26110339330302L188.87375,139.88442358622947L188.89000000000001,131.25818365315595L188.93875,136.3868532884452L189.32874999999999,140.9540673693021L189.42625,135.1145380048288L189.49124999999998,145.06160187183153L189.79999999999998,114.67186677952606L189.9625,138.69573831723795L190.0925,143.6082635153499L190.28750000000002,149.12749358928866L190.9375,142.05504270642996L191.08375,139.99930779304768L191.1,137.28655332244105L191.23000000000002,138.74744551214906L191.37625,137.25637114461924L191.945,138.5612502462334L192.4,147.97894899588493L192.44875,148.5107814040449L193.09875,135.70432642019458L193.48875,117.1047794504298L193.65125,141.72607428249387L194.545,142.6440722387698L194.75625,137.39084079613286L194.935,132.7956806636519L195.2275,144.91301091760397L195.8125,129.21060304840404L195.89374999999998,131.39306774321528L195.91,144.76043951138854L195.9425,146.00553447132307L196.17,133.78891855643855L196.36499999999998,141.8507373970416L196.5275,136.16258309284845L196.73874999999998,144.97678564199143L196.82,145.22064220325814L196.83625,149.290792507016L197.08,142.11476606378952L197.1775,145.6210754890409L197.34,145.83383166086344L197.73,145.71705485135317L198.00625,140.74951155483723L198.36375,143.4268702107171L198.8675,120.63558219373226L198.98125,142.0938912547297L199.03,120.9789878146516L199.16,146.65536490124134L199.42000000000002,149.11579997547798L199.48499999999999,142.11377141127983L199.56625,143.5591009731094L199.59875,136.1628685949577L199.63125,132.41835739215213L199.68,144.37763275744186L200.24875,140.65804404682584L200.3625,145.58460121312075L200.6225,148.67202654853463L200.9475,144.6063024484449L201.4025,142.99159553688435L201.435,134.95799627734553L201.45125000000002,136.51887314766645L201.48375,141.62480576336384L201.58124999999998,141.72688289814525L201.7275,150.59144663790036L201.825,145.19074460657106L201.90625,144.1853102478716L202.3775,126.09173748393852L202.605,146.39826748892665L202.78375,145.28955596561232L202.94625000000002,147.13247115992837L203.01125000000002,143.63382332192526L203.0275,138.71847349488073L203.48250000000002,141.2978487478362L203.62875,103.43023780484992L203.75875,141.11546447459193L204.0025,150.6168959275302L204.01874999999998,143.7844072650704L204.21375,143.89146779312026L204.7175,143.34645439725784L204.86374999999998,143.2813350500332L205.075,146.31500310119657L205.12375,134.18883517550097L205.14000000000001,147.87108537803093L205.22125,139.29896559317905L205.3675,133.74983423865504L205.4975,132.42253309074374L205.61125,133.39294370843302L205.6275,134.36425135533014L205.90375,132.59877814766432L206.39125,141.986203543014L206.55375,143.02853582592473L207.155,148.23695909397472L207.30124999999998,146.5725600798097L207.3175,145.3158184757663L207.415,143.36109328766662L207.67499999999998,127.66558720171452L207.78875000000002,133.2357978216476L208.24375,140.95670872430006L208.26000000000002,134.67111823211113L208.40625,142.6624604165554L208.4875,145.22834062948823L208.66625,142.5780530994137L208.8125,129.57402697205544L209.04000000000002,144.0848448185457L209.21875,143.91135715941587L209.6575,137.7257605575853L209.70624999999998,137.68831925839186L209.8525,149.91193181690244L210.25875,142.67244746453233L210.32375,143.20859832233853L210.47,143.94296224291125L210.6975,141.87807007961803L210.795,136.3723682007856L210.82750000000001,136.73018338945175L211.38,134.7905354756448L211.4775,138.28971563693548L211.575,135.78626368360386L211.60750000000002,140.546530606846L211.62375,147.64088042245973L211.78625,135.4390802250968L211.8675,128.97607319636475L212.095,139.80236107028193L212.24125,137.20790946400828L212.50125,132.51295621361996L212.9075,145.9385243633555L213.21625,133.7372389907638L213.3625,141.70932543940015L213.655,141.62738817599086L213.94750000000002,142.56079035252333L214.09375,144.77444937618242L214.4675,150.30174626616966L214.5,142.56607490446834L214.51625,145.86511992911497L215.345,145.07536031057435L215.475,150.54260643675096L215.52375,141.08952614747815L215.67000000000002,146.6656779742075L215.94625,139.9719161681003L216.2875,145.78137202974824L216.53125,135.32978817572194L216.79125,146.09807767760424L217.11625,141.41416967494618L217.23000000000002,142.77839913922878L217.34375,146.01863441326552L217.425,146.7579016023212L217.92874999999998,142.25449079606267L218.05875,134.5306254070666L218.09125,148.1731254272163L218.64375,141.6161375509368L218.6925,146.43722379124827L218.92,149.2943861496945L218.95250000000001,149.80826139615644L218.96875,128.88177645454803L219.1475,146.94830019606482L219.245,134.63461448500553L219.7,139.13087484488884L219.74875,150.00503589668207L219.765,140.74090228478113L219.86249999999998,145.6225232610272L219.895,147.54345513011017L220.17125,142.4198351982567L220.30125,138.46903674883973L220.44750000000002,142.7403877567914L220.69125,133.73380007180901L220.95125,149.0100647297998L221.58499999999998,122.69611906839741L221.78,142.9212616317802L221.8125,132.27644995020498L221.975,148.98280388323795L222.15375,136.77322237193584L222.2675,129.6554374380244L222.38125,133.90320228785276L222.41375,117.71637285914684L222.69,148.28757585502333L222.99875,149.38299218979148L223.58375,139.1555053881473L223.74625,145.1742527153757L224.02249999999998,142.85999472108153L224.12,148.4038967821333L224.26625,148.20867043981949L224.75375,145.1585574671626L225.1275,125.35855333175923L225.14375,127.98422413319349L225.43625,145.48638940850893L225.89124999999999,147.2069724748532L225.9725,141.45732101632487L226.18375,146.9487579204142L226.2,146.9594089910388L226.41125,137.502720783982L226.54125000000002,136.5076501518488L226.6225,141.86947370320559L226.655,144.68288240292006L226.67125,140.18587513267994L226.99625,149.19823824904032L227.07750000000001,144.58502885740666L227.305,143.05538407588998L227.4675,138.55126688215466L227.54875,128.264137768911L227.6625,142.65700640529394L227.90625,149.36825383413168L227.97125,145.37849539849492L228.16625000000002,149.94477469018764L228.735,142.18365680178005L228.88125000000002,150.69767368398607L228.9625,135.57986223614878L229.66125,148.06712401989432L229.7425,149.99220672125617L229.88875000000002,152.43702713255254L229.98625,149.02884155884385L230.165,135.19842589232655L230.23,151.6755736666835L230.48999999999998,135.30678407351175L230.70125,139.9907924623953L231.02625,147.36460279424983L231.1725,144.51419762604766L231.3025,146.31196572714381L231.6275,142.7470500866572L231.8875,143.52050016696253L232.21249999999998,137.12078343000675L232.26125,151.83155221823188L232.52124999999998,146.4055091117819L232.74875,134.428384338816L232.78125,149.7806551841398L232.96,137.0289364804824L233.935,145.61144117431508L234.08124999999998,141.24725777407485L234.0975,140.01903875172138L234.585,132.98915531237918L234.89375,143.87349221193128L234.9425,148.25257421740227L235.3,124.45886066555977L236.015,147.49024398376542L236.35625,142.4469265855021L236.45375,149.35944379162459L236.48625,149.48817116684384L236.8275,148.6529236945013L237.185,133.85172533657814L237.65625,142.5616321232584L238.17625,151.63076917599471L238.40375,149.50389220234422L238.66375,145.4029463517169L238.85875,145.81968364988762L239.8175,131.55046229312816L240.0775,149.47830476653246L240.58124999999998,150.6317963747101L240.71125,147.49945649214916L241.05249999999998,148.1304843057361L241.45875,152.31488748826087L241.54000000000002,141.90016610092587L241.75125,135.47737066282164L241.9625,143.20643219020633L242.06,147.39321102657252L242.7425,149.11795597689022L242.75875,149.04215885077912L242.84,148.10457268688413L242.92125,147.11195184704331L243.08374999999998,138.33518415027194L243.57125000000002,130.43074328203994L243.7825,151.8604869360311L244.02625,141.2516139836775L244.3025,150.31616228073835L244.74125,145.71405984212953L244.7575,144.90076564004022L244.88750000000002,150.59826092856625L245.0825,148.4831770339774L245.13125000000002,144.75007302189866L245.2775,146.4532008576724L245.52125,147.53313561032215L245.58625,146.5159450115429L245.61875,144.34075509467058L245.8625,149.70317820045682L246.155,147.4048687223759L246.44750000000002,133.14623488899733L246.69125,147.14904133396018L246.85375000000002,131.83886731415987L246.9025,148.4435889431172L247.0975,136.86229350417852L247.11375,150.86720667841533L247.17875,148.03257918564807L247.63375000000002,149.9864183962345L248.05625,146.46759753177562L248.5925,150.93571889586747L248.67375,151.3640982332743L248.83625,147.13542288334835L249.42125000000001,139.5025157034397L249.5025,140.44201288951766L250.2825,140.31417057083712L250.3475,146.12130833955274L250.6725,150.1024473744134L251.45250000000001,142.58231536961264L251.46875,148.84233500353164L251.81,148.80720166655053" style="fill: none;" fill="none"></path></g></g></g></g></g></g><g transform="translate(70, 178)" clip-path="url(#clip_1)"><clipPath id="clip_1"><rect width="260" height="21"></rect></clipPath><g><g><line x1="0" y1="0" x2="0" y2="5" style="visibility: inherit;" fill="rgb(0, 0, 0)" stroke="rgb(204, 204, 204)" stroke-width="1px"></line><line x1="32.5" y1="0" x2="32.5" y2="5" style="visibility: inherit;" fill="rgb(0, 0, 0)" stroke="rgb(204, 204, 204)" stroke-width="1px"></line><line x1="65" y1="0" x2="65" y2="5" style="visibility: inherit;" fill="rgb(0, 0, 0)" stroke="rgb(204, 204, 204)" stroke-width="1px"></line><line x1="97.5" y1="0" x2="97.5" y2="5" style="visibility: inherit;" fill="rgb(0, 0, 0)" stroke="rgb(204, 204, 204)" stroke-width="1px"></line><line x1="130" y1="0" x2="130" y2="5" style="visibility: inherit;" fill="rgb(0, 0, 0)" stroke="rgb(204, 204, 204)" stroke-width="1px"></line><line x1="162.5" y1="0" x2="162.5" y2="5" style="visibility: inherit;" fill="rgb(0, 0, 0)" stroke="rgb(204, 204, 204)" stroke-width="1px"></line><line x1="195" y1="0" x2="195" y2="5" style="visibility: inherit;" fill="rgb(0, 0, 0)" stroke="rgb(204, 204, 204)" stroke-width="1px"></line><line x1="227.5" y1="0" x2="227.5" y2="5" style="visibility: inherit;" fill="rgb(0, 0, 0)" stroke="rgb(204, 204, 204)" stroke-width="1px"></line><line x1="260" y1="0" x2="260" y2="5" style="visibility: inherit;" fill="rgb(0, 0, 0)" stroke="rgb(204, 204, 204)" stroke-width="1px"></line></g><g transform="translate(0, 8)"><text x="0" y="0" dx="0em" dy="0.95em" style="text-anchor: middle; visibility: hidden; font-family: Roboto, sans-serif; font-size: 12px; font-weight: 200;" fill="rgb(50, 49, 63)" stroke="none" stroke-width="1px">-2k</text><text x="32.5" y="0" dx="0em" dy="0.95em" style="text-anchor: middle; visibility: inherit; font-family: Roboto, sans-serif; font-size: 12px; font-weight: 200;" fill="rgb(50, 49, 63)" stroke="none" stroke-width="1px">0</text><text x="65" y="0" dx="0em" dy="0.95em" style="text-anchor: middle; visibility: inherit; font-family: Roboto, sans-serif; font-size: 12px; font-weight: 200;" fill="rgb(50, 49, 63)" stroke="none" stroke-width="1px">2k</text><text x="97.5" y="0" dx="0em" dy="0.95em" style="text-anchor: middle; visibility: inherit; font-family: Roboto, sans-serif; font-size: 12px; font-weight: 200;" fill="rgb(50, 49, 63)" stroke="none" stroke-width="1px">4k</text><text x="130" y="0" dx="0em" dy="0.95em" style="text-anchor: middle; visibility: inherit; font-family: Roboto, sans-serif; font-size: 12px; font-weight: 200;" fill="rgb(50, 49, 63)" stroke="none" stroke-width="1px">6k</text><text x="162.5" y="0" dx="0em" dy="0.95em" style="text-anchor: middle; visibility: inherit; font-family: Roboto, sans-serif; font-size: 12px; font-weight: 200;" fill="rgb(50, 49, 63)" stroke="none" stroke-width="1px">8k</text><text x="195" y="0" dx="0em" dy="0.95em" style="text-anchor: middle; visibility: inherit; font-family: Roboto, sans-serif; font-size: 12px; font-weight: 200;" fill="rgb(50, 49, 63)" stroke="none" stroke-width="1px">10k</text><text x="227.5" y="0" dx="0em" dy="0.95em" style="text-anchor: middle; visibility: inherit; font-family: Roboto, sans-serif; font-size: 12px; font-weight: 200;" fill="rgb(50, 49, 63)" stroke="none" stroke-width="1px">12k</text><text x="260" y="0" dx="0em" dy="0.95em" style="text-anchor: middle; visibility: hidden; font-family: Roboto, sans-serif; font-size: 12px; font-weight: 200;" fill="rgb(50, 49, 63)" stroke="none" stroke-width="1px">14k</text></g><line x1="0" y1="0" x2="260" y2="0" fill="rgb(0, 0, 0)" stroke="rgb(204, 204, 204)" stroke-width="1px"></line></g></g></g></g></svg>