<svg viewBox="0 0 330.0000305175781 200.00001525878906" xmlns="http://www.w3.org/2000/svg"><g><g><g><g><g><line x1="70" y1="178" x2="65" y2="178" style="visibility: inherit;" fill="rgb(0, 0, 0)" stroke="rgb(204, 204, 204)" stroke-width="1px"></line><line x1="70" y1="158.2222222222222" x2="65" y2="158.2222222222222" style="visibility: inherit;" fill="rgb(0, 0, 0)" stroke="rgb(204, 204, 204)" stroke-width="1px"></line><line x1="70" y1="138.44444444444446" x2="65" y2="138.44444444444446" style="visibility: inherit;" fill="rgb(0, 0, 0)" stroke="rgb(204, 204, 204)" stroke-width="1px"></line><line x1="70" y1="118.66666666666666" x2="65" y2="118.66666666666666" style="visibility: inherit;" fill="rgb(0, 0, 0)" stroke="rgb(204, 204, 204)" stroke-width="1px"></line><line x1="70" y1="98.8888888888889" x2="65" y2="98.8888888888889" style="visibility: inherit;" fill="rgb(0, 0, 0)" stroke="rgb(204, 204, 204)" stroke-width="1px"></line><line x1="70" y1="79.1111111111111" x2="65" y2="79.1111111111111" style="visibility: inherit;" fill="rgb(0, 0, 0)" stroke="rgb(204, 204, 204)" stroke-width="1px"></line><line x1="70" y1="59.33333333333334" x2="65" y2="59.33333333333334" style="visibility: inherit;" fill="rgb(0, 0, 0)" stroke="rgb(204, 204, 204)" stroke-width="1px"></line><line x1="70" y1="39.55555555555557" x2="65" y2="39.55555555555557" style="visibility: inherit;" fill="rgb(0, 0, 0)" stroke="rgb(204, 204, 204)" stroke-width="1px"></line><line x1="70" y1="19.777777777777786" x2="65" y2="19.777777777777786" style="visibility: inherit;" fill="rgb(0, 0, 0)" stroke="rgb(204, 204, 204)" stroke-width="1px"></line><line x1="70" y1="0" x2="65" y2="0" style="visibility: inherit;" fill="rgb(0, 0, 0)" stroke="rgb(204, 204, 204)" stroke-width="1px"></line></g><g transform="translate(60, 0)"><text x="0" y="178" dx="0em" dy="0.3em" style="text-anchor: end; visibility: hidden; font-family: Roboto, sans-serif; font-size: 12px; font-weight: 200;" fill="rgb(50, 49, 63)" stroke="none" stroke-width="1px">-0.05</text><text x="0" y="158.2222222222222" dx="0em" dy="0.3em" style="text-anchor: end; visibility: inherit; font-family: Roboto, sans-serif; font-size: 12px; font-weight: 200;" fill="rgb(50, 49, 63)" stroke="none" stroke-width="1px">0</text><text x="0" y="138.44444444444446" dx="0em" dy="0.3em" style="text-anchor: end; visibility: hidden; font-family: Roboto, sans-serif; font-size: 12px; font-weight: 200;" fill="rgb(50, 49, 63)" stroke="none" stroke-width="1px">0.05</text><text x="0" y="118.66666666666666" dx="0em" dy="0.3em" style="text-anchor: end; visibility: inherit; font-family: Roboto, sans-serif; font-size: 12px; font-weight: 200;" fill="rgb(50, 49, 63)" stroke="none" stroke-width="1px">0.1</text><text x="0" y="98.8888888888889" dx="0em" dy="0.3em" style="text-anchor: end; visibility: hidden; font-family: Roboto, sans-serif; font-size: 12px; font-weight: 200;" fill="rgb(50, 49, 63)" stroke="none" stroke-width="1px">0.15</text><text x="0" y="79.1111111111111" dx="0em" dy="0.3em" style="text-anchor: end; visibility: inherit; font-family: Roboto, sans-serif; font-size: 12px; font-weight: 200;" fill="rgb(50, 49, 63)" stroke="none" stroke-width="1px">0.2</text><text x="0" y="59.33333333333334" dx="0em" dy="0.3em" style="text-anchor: end; visibility: hidden; font-family: Roboto, sans-serif; font-size: 12px; font-weight: 200;" fill="rgb(50, 49, 63)" stroke="none" stroke-width="1px">0.25</text><text x="0" y="39.55555555555557" dx="0em" dy="0.3em" style="text-anchor: end; visibility: inherit; font-family: Roboto, sans-serif; font-size: 12px; font-weight: 200;" fill="rgb(50, 49, 63)" stroke="none" stroke-width="1px">0.3</text><text x="0" y="19.777777777777786" dx="0em" dy="0.3em" style="text-anchor: end; visibility: hidden; font-family: Roboto, sans-serif; font-size: 12px; font-weight: 200;" fill="rgb(50, 49, 63)" stroke="none" stroke-width="1px">0.35</text><text x="0" y="0" dx="0em" dy="0.3em" style="text-anchor: end; visibility: hidden; font-family: Roboto, sans-serif; font-size: 12px; font-weight: 200;" fill="rgb(50, 49, 63)" stroke="none" stroke-width="1px">0.4</text></g><line x1="70" y1="0" x2="70" y2="178" fill="rgb(0, 0, 0)" stroke="rgb(204, 204, 204)" stroke-width="1px"></line></g></g><g transform="translate(70, 0)" clip-path="url(#clip_0)"><clipPath id="clip_0"><rect width="260" height="177"></rect></clipPath><g><g><g><line x1="0" y1="0" x2="0" y2="178" fill="rgb(0, 0, 0)" stroke="rgb(60, 60, 60)" stroke-width="1px" opacity="0.25"></line><line x1="32.5" y1="0" x2="32.5" y2="178" fill="rgb(0, 0, 0)" stroke="rgb(60, 60, 60)" stroke-width="1px" opacity="0.25"></line><line x1="65" y1="0" x2="65" y2="178" fill="rgb(0, 0, 0)" stroke="rgb(60, 60, 60)" stroke-width="1px" opacity="0.25"></line><line x1="97.5" y1="0" x2="97.5" y2="178" fill="rgb(0, 0, 0)" stroke="rgb(60, 60, 60)" stroke-width="1px" opacity="0.25"></line><line x1="130" y1="0" x2="130" y2="178" fill="rgb(0, 0, 0)" stroke="rgb(60, 60, 60)" stroke-width="1px" opacity="0.25"></line><line x1="162.5" y1="0" x2="162.5" y2="178" fill="rgb(0, 0, 0)" stroke="rgb(60, 60, 60)" stroke-width="1px" opacity="0.25"></line><line x1="195" y1="0" x2="195" y2="178" fill="rgb(0, 0, 0)" stroke="rgb(60, 60, 60)" stroke-width="1px" opacity="0.25"></line><line x1="227.5" y1="0" x2="227.5" y2="178" fill="rgb(0, 0, 0)" stroke="rgb(60, 60, 60)" stroke-width="1px" opacity="0.25"></line><line x1="260" y1="0" x2="260" y2="178" fill="rgb(0, 0, 0)" stroke="rgb(60, 60, 60)" stroke-width="1px" opacity="0.25"></line></g><g><line x1="0" y1="178" x2="260" y2="178" fill="rgb(0, 0, 0)" stroke="rgb(60, 60, 60)" stroke-width="1px" opacity="0.25"></line><line x1="0" y1="158.2222222222222" x2="260" y2="158.2222222222222" fill="rgb(0, 0, 0)" stroke="rgb(60, 60, 60)" stroke-width="1px" opacity="0.25"></line><line x1="0" y1="138.44444444444446" x2="260" y2="138.44444444444446" fill="rgb(0, 0, 0)" stroke="rgb(60, 60, 60)" stroke-width="1px" opacity="0.25"></line><line x1="0" y1="118.66666666666666" x2="260" y2="118.66666666666666" fill="rgb(0, 0, 0)" stroke="rgb(60, 60, 60)" stroke-width="1px" opacity="0.25"></line><line x1="0" y1="98.8888888888889" x2="260" y2="98.8888888888889" fill="rgb(0, 0, 0)" stroke="rgb(60, 60, 60)" stroke-width="1px" opacity="0.25"></line><line x1="0" y1="79.1111111111111" x2="260" y2="79.1111111111111" fill="rgb(0, 0, 0)" stroke="rgb(60, 60, 60)" stroke-width="1px" opacity="0.25"></line><line x1="0" y1="59.33333333333334" x2="260" y2="59.33333333333334" fill="rgb(0, 0, 0)" stroke="rgb(60, 60, 60)" stroke-width="1px" opacity="0.25"></line><line x1="0" y1="39.55555555555557" x2="260" y2="39.55555555555557" fill="rgb(0, 0, 0)" stroke="rgb(60, 60, 60)" stroke-width="1px" opacity="0.25"></line><line x1="0" y1="19.777777777777786" x2="260" y2="19.777777777777786" fill="rgb(0, 0, 0)" stroke="rgb(60, 60, 60)" stroke-width="1px" opacity="0.25"></line><line x1="0" y1="0" x2="260" y2="0" fill="rgb(0, 0, 0)" stroke="rgb(60, 60, 60)" stroke-width="1px" opacity="0.25"></line></g></g></g><g><g><line x1="0" y1="158.2222222222222" x2="260" y2="158.2222222222222" fill="rgb(0, 0, 0)" stroke="rgb(153, 153, 153)" stroke-width="1.5px"></line></g></g><g><g><line x1="32.5" y1="0" x2="32.5" y2="178" fill="rgb(0, 0, 0)" stroke="rgb(153, 153, 153)" stroke-width="1.5px"></line></g></g><g><g><g><g><g><path stroke="rgb(255, 112, 67)" stroke-width="2px" d="M41.21,-2.9583549038835044L41.64875,3.9461819768294566L41.908750000000005,5.333469418897191L42.0225,11.414891233076965L42.03875,15.702076307745493L42.575,12.457460780484634L42.802499999999995,11.205756895690293L42.9325,19.679169710252648L42.965,19.536679240855058L43.013749999999995,16.155937218812173L43.04625,19.732719589538494L43.24125,22.908860882730696L43.403749999999995,23.365935205982282L44.1025,25.29313779585928L44.2325,27.28079739811892L44.3625,26.64484449017068L44.72,29.316084480138436L44.785,32.62823556050181L44.93125,33.366290899875494L44.99625,38.412134227541024L45.028749999999995,34.330464511906925L45.25625,36.92053254499917L45.28875,32.691372137615105L45.37,35.395973049555174L45.4025,30.84276315627984L45.5325,24.36719722041498L45.629999999999995,26.645029133465666L45.64625,24.944410473811537L46.085,28.868993633870815L47.23875,32.697714184540644L47.271249999999995,28.785553659588793L47.807500000000005,29.468411449579687L47.856249999999996,31.271944289407443L48.1325,34.26209227975151L48.27875,39.718465303766195L48.295,38.94014261094096L48.392500000000005,43.326116797066895L48.408750000000005,43.864926623930735L48.49,46.08055854187255L48.7825,41.50592552651948L48.83125,44.028830379123065L48.9775,45.276030303436755L49.77375,48.96505335447856L49.8225,50.028732727422096L49.92,52.28602349660937L50.0175,50.67738444547099L50.09875,53.59742195029723L50.26125,48.661167591533456L50.35875,47.5009054394649L50.440000000000005,50.064141586119376L51.285000000000004,48.58462270702698L51.36625,49.656719731268716L51.3825,53.406392494197L51.675000000000004,49.446092499940505L51.886250000000004,47.713583281216906L52.0975,49.009593035963526L52.715,45.742051760015904L52.99125,40.50586912231247L53.316250000000004,40.00433060940318L53.41375,44.33466280205364L53.5275,45.02092042469521L53.885,46.883922066963216L53.933749999999996,44.68527885328132L54.112500000000004,42.60708089979462L54.16125,44.13165662665345L54.21,41.96439700085983L54.22625,34.52311995730886L55.006249999999994,38.10165366934182L55.10375,38.17427080111653L55.12,41.65445967984025L55.4775,37.112185061127576L55.6725,35.08053837579368L55.835,37.907313368683255L56.322500000000005,37.689316341582604L56.50125,42.11815835182793L56.63125,38.92686641346893L56.728750000000005,39.46160083955854L57.24875,42.055453712087335L57.31375,44.784295876419264L57.72,45.23419556750772L57.980000000000004,50.04746225358284L57.996249999999996,50.976012305051306L58.24,46.02142798398453L58.305,43.43722205061784L58.58125,42.84642868762433L59.15,40.985090783243365L59.28,38.880546723686756L59.605000000000004,39.96797423526511L59.832499999999996,43.540743976307894L59.97875,43.9381272810845L60.07625,47.87736956688322L60.10875,50.650678186915066L60.1575,48.171117821261944L60.27125,49.75755587134535L60.4175,52.04541708663429L60.645,51.951377748990176L60.6775,51.18365099693013L60.72625,49.45521081616374L60.85625,51.59619168247187L60.8725,50.912446416574056L61.34375,51.6250371639447L61.441250000000004,51.232046910643376L61.831250000000004,51.117438021415346L62.1725,53.33539241298437L62.464999999999996,47.67524671939704L62.611250000000005,42.97308695357315L62.822500000000005,45.28948417603766L62.87125,48.19370761725702L63.00125,47.6872710775929L63.65125,47.41612119030023L63.9275,48.90276585667236L64.09,49.70361218123515L64.13875,49.24058783239625L64.46375,49.68048863584721L64.72375,50.186743018405046L65.01625,48.476165036145545L65.08125,44.25926143606852L65.21124999999999,49.12836750531289L65.4875,50.16179150356105L65.585,50.907935120359106L65.975,52.20425239260732L66.18625,54.968230378252485L66.235,56.13003964437874L66.25125,57.059048109169254L66.38125,54.40981519895078L66.44625,55.99472292833019L66.56,55.3929339075241L66.80375,51.63095174387937L67.35624999999999,56.182670986720794L67.42125,57.853227941506645L67.535,57.89331971679315L67.68125,57.61935246237833L68.03875000000001,57.80887887240905L68.10374999999999,58.218659061795876L68.23375,60.47507067774114L68.36375,62.135516211786886L68.42875000000001,64.315369821112L68.75375,63.67027941151829L68.835,63.16864545894734L68.85125000000001,65.11615125407427L68.88374999999999,60.062260803869705L68.9325,62.90225055984314L69.1275,64.31792216806515L69.17625,63.267680160489455L69.2575,63.01187355344128L69.56625,62.178030569327696L69.82625,62.12088388724467L69.98875000000001,63.02423930759099L70.18375,66.11043421521174L70.60625,65.53980590748701L70.7525,62.30217512486909L71.32125,64.54395714614053L71.33749999999999,61.91549161985433L71.37,62.77525814264566L72.085,61.31328960664023L72.215,62.75131375719053L72.36125,62.915532433327975L72.39375,63.96397574537255L72.475,59.04872779493159L72.88125000000001,61.63424868900209L72.8975,60.698806765770605L73.06,61.097510378410746L73.0925,61.65648716590884L73.17375,61.55760198530748L73.40125,62.63771723182812L73.49875,61.885872717707116L73.645,57.96310421244477L73.88875,58.82542243062026L73.95375,63.73848110546808L73.98625,62.81469782815604L74.3925,60.52190520366804L74.75,61.514441786846916L74.8475,62.89787178593186L75.12375,68.89174874688415L75.22125,71.50161414855368L75.64375,73.89237156440028L76.0175,73.00102955834048L76.13125,70.1903180238297L76.2125,71.20160108713107L76.42375,70.9749066324113L76.5375,69.89257251215875L76.78125,68.29232876557057L77.025,68.26127943215963L77.2525,70.20088678040165L77.82124999999999,73.74479145359822L77.8375,74.98068788761613L77.85375,78.29231136553975L79.17,81.95232439510187L79.31625,82.3033394140868L79.46249999999999,82.80161650092005L79.56,83.6060194466493L79.95,85.91421156721418L80.71374999999999,82.84307918498168L80.84375,79.33900202948783L81.42875000000001,79.44934595302408L81.68875,82.14316839067638L81.7375,83.50844364980111L81.8675,78.46576437390348L81.91625,77.69323179586044L82.30625,80.9918477448624L82.37125,83.13562728717923L82.85875,82.65801400851747L83.2325,84.4036459865634L83.47625,76.76569311882471L83.76875,79.14478341503514L83.86625,80.64519804110013L84.12625,78.8087352134912L84.41875,82.28588717283309L84.435,79.23765950389107L84.98750000000001,82.92641745633178L85.15,80.72285482845061L85.19875,82.96685915066803L85.215,82.5171342994063L85.2475,81.50145604690071L85.26375,79.22421369914119L85.67,81.06512783800883L86.20625,81.73829669971101L86.58,83.02230658760595L86.85625,79.49127789967166L87.36,79.66655645009234L87.79875,81.53171732869481L87.88000000000001,82.65470944142108L88.2375,84.30982164210755L88.54625,83.39615943795874L88.57875,85.92376705100533L88.79,84.09771023274423L89.05000000000001,81.6259095391206L89.52125000000001,82.45576686480271L89.57,83.89441559450815L89.97625,82.95888497130562L90.39874999999999,82.31346194538898L90.675,84.3077692826686L91,87.34856441843372L91.2925,88.5016293854036L91.325,92.0444940266506L91.3575,91.0929594792001L91.455,88.24573732892799L91.91,88.56934115620588L92.1375,80.17480381063415L93.0475,74.87663183502043L93.11250000000001,77.26407304176975L93.2425,82.21617184969345L93.29124999999999,85.14186264279891L93.795,86.26972911771574L93.925,87.96765041829654L94.13625,87.95485095348648L94.2175,89.20675703038825L94.4775,88.70370592277948L94.55875,88.98593533676406L94.59125,88.92530507555323L94.75375000000001,86.63633334940947L94.81875,88.53607564908606L95.28999999999999,91.73300394450439L95.485,92.80243799154636L96.33,94.48848337092228L96.44375,96.49275224151634L96.50875,95.4670167856896L96.6875,98.07164183233886L96.78500000000001,96.62595138427841L96.8825,96.42862902611L97.24,97.78413174029748L97.64625000000001,96.89663448594246L97.6625,96.72715924576926L97.8575,97.3088742867749L98.03625000000001,96.26403147426676L98.085,98.20414063602051L99.01125,98.20138337025136L99.0925,100.2879267324493L99.10875,96.73202114077438L99.27125,98.26163480376032L100.45750000000001,100.47496256224328L100.63624999999999,102.68817474669369L100.6525,101.87667931586705L100.685,96.47241442590793L100.76625,94.31879693141434L100.7825,97.19396027674713L101.18875,94.80407790086724L101.27000000000001,91.57103071379512L101.31875000000001,93.57213200189405L101.44875,92.14208039196292L101.77374999999999,93.9977108991487L101.8225,94.1094911920404L101.83875,94.78022945304426L102.0825,93.85669823562179L102.3425,93.06451641255849L102.44,93.49441292611239L102.65125,96.0571614972889L102.68375,96.63867199006269L102.895,98.03013349398307L103.07375,96.42468693463569L103.49625,97.05903198269712L103.6425,96.41316628078225L103.88624999999999,95.2784542407358L104,95.84604096835069L104.0975,99.5194543545381L104.16250000000001,98.81379369799716L104.4875,100.39751275162544L104.53625,100.08226044644165L105.21875,102.79393161504457L105.495,103.6664819543768L105.77125000000001,102.59784754144034L105.7875,102.3455205032315L106.1125,105.12191778906623L106.16125000000001,105.997137799259L106.30749999999999,106.22553990247152L106.48625,105.28554561700497L106.8925,106.31009957462018L106.94125000000001,102.19223256981226L107.16875,104.60299052862591L107.20125,102.25435624382335L107.23375,103.80458610066403L107.705,103.04081025449202L108.16,102.85659888772489L108.28999999999999,101.82132970342525L108.355,103.68149598649347L108.485,104.72729521119017L108.66375000000001,102.74465521518796L109.08625,102.76836768696674L109.1675,104.15732811476428L109.4275,103.53894468605924L109.6875,102.39755394473043L109.8175,104.11117586930192L109.96375,104.16994070704418L110.11,104.50733563362962L110.28875,101.43830742326179L110.305,99.63484433192133L110.40249999999999,101.35107162073228L110.5,102.07700142424117L110.5325,98.78519686571157L110.58125,98.55493478172612L111.14999999999999,100.91742183010675L111.345,102.65596142394814L111.65375,102.83875849662682L112.0275,103.33379167056694L112.35249999999999,104.66143919921204L112.74249999999999,105.84725280708729L113.0025,108.65451453489722L113.1325,108.64352089954475L113.27875,110.70975022296527L113.3275,111.27622347443346L113.36,113.55730846523055L114.18875,115.1889933291302L114.2375,114.00868523672919L114.5625,114.60333841674988L114.595,115.41765907542688L114.61125,116.03605240738827L114.725,113.69365674330918L115.0175,114.62941081788853L115.4725,115.51318482147364L115.7975,115.2177084415625L115.83,115.8691469725493L115.92750000000001,116.02109030884549L116.35000000000001,113.02110728292173L116.43125,114.02337245081853L116.70750000000001,116.48274885126114L117,116.88276854280639L117.13000000000001,117.36353943756825L117.63374999999999,118.03895704226805L118.0725,118.09406779523759L118.44624999999999,116.97450575912458L118.91749999999999,117.11172345130989L119.09625,114.26745567220198L119.35625,112.22799564482078L119.58375,110.34680481923795L119.925,107.99018226222056L120.575,110.26420680225166L120.9325,110.4489781994248L121.01375,111.17744416111994L121.615,112.53497609863209L121.79375,112.12177893882897L121.89125,112.65131071040348L122.11874999999999,114.7493470703203L122.15125,112.73854637694106L122.67125,115.07311454445029L123.06125,113.54727311459098L123.25625,114.07200938901195L123.28875,112.85209698210292L123.38625,110.350583494277L123.58125000000001,109.77357665682577L123.9875,110.61570252563823L124.44250000000001,111.69900068270803L124.47500000000001,111.71735084750463L124.53999999999999,110.5278903507033L124.78375,111.68765560751706L125.45,113.17701683410998L125.49875,112.29628061889372L125.79124999999999,113.176363021217L126.08375000000001,114.40818735136652L126.36,115.64199219435444L126.40875,114.75516551263787L126.57124999999999,115.96846055760871L126.86375000000001,115.41607776811458L126.88,115.79074839265144L127.15625,117.03417646712623L127.205,114.81391353717022L127.75750000000001,116.50523679368543L127.78999999999999,116.71805389876064L127.90375,116.32477428786697L128.3425,117.92325684672065L128.48875,117.79483984497772L128.83,119.85090867144031L129.22,118.05012444174235L129.30125,118.68180349632453L129.39875,118.96909882540089L129.8375,118.01215770035775L130.1625,118.79676352180519L130.24375,117.40738841043974L130.48749999999998,114.74445819059038L130.56875,115.25865225870533L130.975,116.45026849300869L131.26749999999998,115.75845268897305L131.3325,116.43224559935146L131.41375,118.19802854168074L131.67374999999998,119.66411082880589L131.70625,118.46723457485308L131.96625,118.59352066661468L131.99875,119.86893905888986L132.09625,115.83814567912181L132.12875,116.39372495342994L132.16125,117.00320817738839L132.35625,116.6059523212154L132.42125,116.0000627711596L132.79500000000002,117.46136029769947L132.94125,116.9856183574164L133.25,116.08199079708999L133.42875,116.17586912203896L133.46124999999998,116.80159380972546L133.55875,117.77930511149577L133.76999999999998,116.77792533968751L134.0625,117.94121140766188L134.69625,118.99298062929088L135.07,113.9247306072816L135.13500000000002,114.06768659641622L135.15125,113.87417093417298L135.265,116.5569557883785L135.54125,117.57225765300471L135.72,119.62336584854205L135.89875,121.20283451711407L136.0125,121.39599318237845L136.10999999999999,119.70884820857215L136.5,120.94662636056256L137.39375,118.01080395958067L137.45874999999998,119.14899249305111L137.67,119.14156978084118L138.04375,119.61611961203936L138.06,118.28721189158139L138.125,117.52947862503872L138.45,119.03957396681594L138.46625,120.42748819333252L138.48250000000002,122.00535912402216L138.61249999999998,123.61061926132079L138.9375,125.16834414171913L139.3275,122.67279709197712L139.44125,123.39229327376553L139.48999999999998,123.77491185740247L139.79874999999998,123.79134712260351L140.67625,124.23704796841325L140.82250000000002,122.61820805764388L140.855,123.61019890202321L140.92000000000002,123.75680117034825L141.0175,122.52884781693275L141.06625,120.46386162077091L141.18,116.80924262541433L141.31,115.68827416112795L141.35875,116.12648667212689L141.55375,116.16565289217296L141.9925,118.00161373124774L142.0575,118.62090232924251L142.23625,119.67514094968702L142.415,120.69802269141601L143.52,120.69563560936837L143.7475,120.34858005770633L143.8775,119.20826068231526L144.10500000000002,118.40831165417853L144.12125,119.22390030504273L144.54375,119.64962730420538L144.77125,121.34857572699536L145.17749999999998,122.2985806341945L145.64874999999998,121.92134262207955L145.6975,123.36986335855816L146.12,123.11470833488191L146.4125,124.69119892147941L146.4775,124.42695342499336L146.88375,124.77863428624292L146.9975,124.56595479251915L147.30625,124.18434505848529L147.72875,123.76026490267381L147.9725,123.53482010605573L148.10250000000002,124.04702248485593L148.11875,122.93661427842778L148.47625,124.95036586502343L148.54125,124.39031687254277L148.76874999999998,124.03521985597521L148.96375,122.38611633885304L149.09375,124.4294255860404L149.41875000000002,124.41084702402158L149.565,124.38273511559588L149.71124999999998,124.4554187219117L149.74375,125.64796535022026L149.76,124.45242635404672L150.06875,125.34517568412134L150.1175,126.29167654404813L150.26375,126.22264929010599L150.865,126.5887068998951L151.125,127.74302466441438L151.30375,128.1540805361965L151.59625,128.54103687366535L151.75875000000002,127.2253123018273L151.775,127.48052993852056L151.98624999999998,127.05515798357798L152.0675,127.01697105551668L152.08375,127.49454678310039L152.45749999999998,127.51616072679667L152.52249999999998,127.95053455984522L152.76624999999999,127.49103368302521L153.25375,128.01162192373445L153.4,128.073628165663L153.44875,128.82091547135514L153.5625,126.27323379293681L153.72500000000002,127.31269323916608L153.77374999999998,127.78226670903202L153.855,126.57070559747365L154.01749999999998,126.25565005844115L154.4075,127.38939900121505L154.55374999999998,127.60250555769542L154.86249999999998,128.1424619605112L155.13875000000002,127.77120024545039L155.935,127.24923776379633L156.14625,127.7828707931333L156.195,126.32639146521063L156.69875000000002,127.34398117933276L156.715,127.1478729355293L156.99124999999998,127.60721280612832L157.15375,128.24593430189083L157.235,128.86205936953436L157.41375,128.4669958936159L157.51125,127.63414319107457L157.625,128.02956609038418L157.9175,127.63494321601704L157.99875,127.18985484316022L158.07999999999998,128.31028893669443L158.3725,128.56707435686056L158.55124999999998,128.62337319309313L158.6,129.6066351171598L158.92499999999998,129.06369662807768L159.055,129.74307935576056L159.2175,130.55495041734352L159.4125,129.99419066886506L159.78625,131.25059589567147L159.86749999999998,130.4107721408883L160.85875,128.90917980120693L160.875,130.32496178019215L160.94,131.2025059502789L161.395,129.1077173693963L162.09375,128.2638993007861L162.22375,128.7886616940595L162.35375,129.23553130823052L162.37,128.87741042393353L162.92249999999999,127.68846399084842L163.10125000000002,129.150275850758L163.29625,128.00778420171991L163.345,126.44371430603996L163.57250000000002,125.69666688384778L164.54749999999999,126.20593543053951L164.9375,126.32786295097229L165.42499999999998,125.66190315040987L165.48999999999998,126.7177448445996L165.7175,126.27871241407226L165.99375,125.94471766431764L166.09125,124.08844224702986L166.77375,124.52983567929105L167.03375,125.83960313698569L167.21249999999998,125.18302655674512L167.35875,125.90147114540218L167.48875,125.66307308942645L167.81375,125.2168884145238L167.84625,126.5392176873468L167.895,126.62517489032129L167.92749999999998,127.45675499438472L168.025,126.62329558808906L168.22,126.64807094916411L168.35,127.31935050758622L168.39875,128.82386657203847L168.48000000000002,128.87451185728165L168.59375,128.59537673477212L168.62625,128.42601753111174L169.455,130.06786411919802L169.63375,129.02351771056732L169.76375,129.13935369353234L170.08875,130.22184254815843L170.105,131.533378466781L170.13750000000002,129.96692812807134L170.365,128.8116377492424L170.43,129.04734952943608L170.57625,130.27002112660847L170.5925,128.18647627566892L170.67375,127.04331479153211L170.73874999999998,127.41846464852217L170.755,127.60856470235605L170.99875,129.77948275166992L171.5025,130.12021191115926L171.69750000000002,129.29367513864747L171.81125,129.36413217784855L171.89249999999998,128.26564674127468L172.12,129.9980723198275L172.26625,131.17805991196812L172.51,131.40028823940384L172.68875,132.35551968060187L172.8025,132.28931553454558L172.81875,131.615931002586L172.965,131.8662179610398L173.5825,131.85058494254685L173.7125,128.693307493729L173.72875000000002,128.6447140393744L173.79375000000002,127.6000745193443L174.31375,128.15145421491596L175.0775,127.4613401481166L175.1425,127.84109044039802L175.435,127.50586925051047L175.51625,129.36719604887523L175.80875,129.65120757257435L175.8575,128.824639255192L176.19875,129.82657191516375L176.3775,129.9027249703004L176.7675,130.26779957780656L176.88125,130.36459810156765L177.1575,131.38566615572134L177.19,131.20207012777365L177.23875,132.0715500786207L177.58,132.26903641689535L177.61249999999998,133.39690716354562L177.69375,133.9109702202313L177.8725,133.11546507709915L178.0675,133.24764047573336L178.34375,134.1580148967699L178.63625000000002,133.25447639319663L178.73375000000001,132.659089400146L178.815,131.62241662184027L178.89625,132.9392213799125L179.18875,131.07057089472573L179.205,130.2060856783882L179.64374999999998,130.22108557701566L179.77375,131.21127707619547L179.93625,132.44163359376958L180.11499999999998,132.6069075738972L180.45625,133.6890829302894L180.74875,133.4545307313294L181.26874999999998,134.19358270890862L181.285,133.91373740012065L181.38250000000002,133.3037928773677L182.22750000000002,132.54675767060888L182.26,131.1871475350171L182.4225,130.65880560817106L182.53625,130.40106989424368L182.975,131.0363939023632L183.31625,131.20360581228695L183.47875000000002,131.6503453082635L183.73875,130.5188859705244L183.77124999999998,131.65356732842358L183.88500000000002,131.0353326892852L184.405,131.66952410470108L184.48624999999998,132.33245778564873L184.66500000000002,131.80765789650383L184.74625,131.68522256260698L185.44500000000002,131.75288317747606L185.49374999999998,132.27204729715575L185.81875,131.6296267731948L185.91625000000002,132.0870156581104L185.9325,132.68368752520053L186.355,132.52005249409567L186.46875,133.75096131596786L187.47625000000002,133.80879002720553L187.4925,133.15420761094555L187.63875000000002,132.7778494809812L187.7525,133.8957197287948L187.80125,134.8266076641623L187.915,134.70720686822563L187.96375,134.7152079202581L188.32125000000002,135.72139084127846L188.5,134.71775136466067L188.67875,135.67448943821307L188.84125,136.03835874369685L188.87375,136.33287288229184L188.89000000000001,134.312792638929L188.93875,134.62926695644077L189.32874999999999,134.52857684436074L189.42625,134.2928527409007L189.49124999999998,134.5253665675143L189.79999999999998,132.12232125598302L189.9625,132.32048649375605L190.0925,133.52624346653425L190.28750000000002,134.7109919633053L190.9375,134.8902138724285L191.08375,134.4407948867071L191.1,134.18040036234882L191.23000000000002,133.56008946663405L191.37625,133.82836294892402L191.945,134.00972853485752L192.4,134.9700140252273L192.44875,135.83553469099314L193.09875,135.63964981760523L193.48875,135.06186835600283L193.65125,134.9843333360554L194.545,135.59722206367067L194.75625,135.01508368554093L194.935,134.73659841966767L195.2275,135.01716005282526L195.8125,134.15247889686856L195.89374999999998,134.18592499722683L195.91,135.2796598433787L195.9425,135.83860051665715L196.17,134.2165076411162L196.36499999999998,134.66012342129366L196.5275,134.9952086851212L196.73874999999998,135.26237088779854L196.82,135.88763024349566L196.83625,136.86908835118612L197.08,136.14582818896614L197.1775,136.28222147824968L197.34,136.52144703715055L197.73,137.1694683833663L198.00625,137.68192978369228L198.36375,137.89688514438265L198.8675,137.04451132506424L198.98125,136.75794146876797L199.03,134.8430058901092L199.16,135.4856940971602L199.42000000000002,136.61083094015157L199.48499999999999,136.68656098671417L199.56625,137.2112533630089L199.59875,136.82365186575788L199.63125,136.96152243091692L199.68,137.53123870359488L200.24875,136.7408787811461L200.3625,137.7834092647695L200.6225,138.7505990381483L200.9475,139.35837761202447L201.4025,139.8230849058273L201.435,138.7193582795486L201.45125000000002,138.65965500820172L201.48375,138.69883528100428L201.58124999999998,138.97322392568603L201.7275,139.5005624171269L201.825,138.2653169567606L201.90625,137.98950215892984L202.3775,135.82533189566888L202.605,136.05931519423024L202.78375,136.74120365571994L202.94625000000002,136.55661167064792L203.01125000000002,136.25993361562695L203.0275,136.51355499235638L203.48250000000002,135.2479164506369L203.62875,131.81685293331768L203.75875,132.02551251405004L204.0025,133.36363443677462L204.01874999999998,134.09476615969027L204.21375,135.28869257819636L204.7175,135.3798775183504L204.86374999999998,136.31009344292457L205.075,137.45779242760105L205.12375,135.85918299934812L205.14000000000001,136.62875287986523L205.22125,135.95455437432778L205.3675,135.2264136722811L205.4975,133.91876445339938L205.61125,133.8445793368499L205.6275,133.80095763275418L205.90375,133.6911352396917L206.39125,134.40156013490298L206.55375,134.97629204309038L207.155,135.6683873894259L207.30124999999998,136.20568991000786L207.3175,136.60976660283873L207.415,136.61392812857252L207.67499999999998,134.9935272273385L207.78875000000002,135.34355563785635L208.24375,135.65617989513015L208.26000000000002,136.08767162937053L208.40625,136.0873540904156L208.4875,137.08837290367438L208.66625,137.30748530611254L208.8125,136.76013262748424L209.04000000000002,137.02238132005004L209.21875,137.06069577999142L209.6575,137.7069121907867L209.70624999999998,137.04296993278584L209.8525,138.1484545812687L210.25875,138.00276157933268L210.32375,138.76429149849562L210.47,139.18959125554244L210.6975,139.71104845710707L210.795,138.4632447465655L210.82750000000001,136.63583944446086L211.38,136.45860010834812L211.4775,137.0586440954644L211.575,136.09244764393915L211.60750000000002,135.0023114326104L211.62375,136.27558717511636L211.78625,135.84151701176452L211.8675,133.82707936935813L212.095,133.9209407432464L212.24125,134.25132590902135L212.50125,133.8819491711099L212.9075,134.79204770480476L213.21625,134.20049750307595L213.3625,134.88149380103872L213.655,134.68994734824875L213.94750000000002,135.2482985946244L214.09375,135.8796083649101L214.4675,137.00192251219602L214.5,137.2857110136697L214.51625,137.17275516032058L215.345,136.26064760673367L215.475,136.5373147822369L215.52375,136.57446648616798L215.67000000000002,137.59835006490636L215.94625,135.04826039531918L216.2875,135.8033178632112L216.53125,135.47197653580238L216.79125,136.14795823847928L217.11625,136.40026943445315L217.23000000000002,136.54873998632794L217.34375,136.91380173402055L217.425,136.40202918642083L217.92874999999998,136.98882391082566L218.05875,137.29641689152774L218.09125,138.41896646945474L218.64375,138.80867793781144L218.6925,138.466295615769L218.92,139.13361976743698L218.95250000000001,139.7721239737093L218.96875,138.2173351900721L219.1475,139.07142321810954L219.245,138.20258037671033L219.7,138.33431992976656L219.74875,139.0069589920565L219.765,137.6796802623688L219.86249999999998,138.0317296232704L219.895,138.56895279467085L220.17125,138.52926303964833L220.30125,138.8141824217616L220.44750000000002,138.12679824538833L220.69125,137.65833145887015L220.95125,138.4702260506748L221.58499999999998,137.01064682516844L221.78,136.7144678049159L221.8125,135.55600929640246L221.975,136.34151136687328L222.15375,136.05161659084925L222.2675,135.30175956964678L222.38125,135.1877629279312L222.41375,133.56724635368866L222.69,134.8265368729398L222.99875,135.2185592900325L223.58375,134.87478290586483L223.74625,135.97558760540286L224.02249999999998,136.28231229159837L224.12,137.28744148326828L224.26625,137.66187385520956L224.75375,137.00508901630633L225.1275,134.67315716385158L225.14375,133.9342251832821L225.43625,134.6476946175745L225.89124999999999,134.99800418687389L225.9725,135.6816872058836L226.18375,136.2267215449288L226.2,136.70213004802403L226.41125,137.14401110214587L226.54125000000002,137.0196803531614L226.6225,137.56430844658715L226.655,138.19760363739093L226.67125,138.0959158347437L226.99625,138.935897434329L227.07750000000001,138.80903349530448L227.305,138.47227423247935L227.4675,138.3735838821019L227.54875,136.69893104382058L227.6625,135.59444660901622L227.90625,136.09191946417394L227.97125,136.6791623626213L228.16625000000002,138.04090999891238L228.735,138.81655902925687L228.88125000000002,139.74259481897488L228.9625,139.46096940236106L229.66125,140.50478044225574L229.7425,141.2317234256177L229.88875000000002,141.94719599341133L229.98625,141.49742328712642L230.165,140.91395613713766L230.23,141.47109875212774L230.48999999999998,140.39095350587633L230.70125,140.02384706572533L231.02625,140.00609899307875L231.1725,140.34429348877103L231.3025,139.9388405919134L231.6275,137.8228242539088L231.8875,137.46927822647308L232.21249999999998,137.69409737271766L232.26125,138.55024077085417L232.52124999999998,138.6485814527901L232.74875,137.54291592590764L232.78125,138.65941191842967L232.96,138.1226124950687L233.935,138.21982058944926L234.08124999999998,138.64808068695692L234.0975,138.4189222308072L234.585,138.01780523759112L234.89375,138.8981298123312L234.9425,139.35262334906997L235.3,138.09607047744143L236.015,138.4695898239824L236.35625,137.9815849245103L236.45375,138.67308822596672L236.48625,139.51205691554952L236.8275,140.41505308902524L237.185,139.90554325475264L237.65625,140.39795383835408L238.17625,140.08603652108494L238.40375,140.56266588048706L238.66375,140.74274431138153L238.85875,141.028462141971L239.8175,139.72114769670517L240.0775,140.61786966702513L240.58124999999998,141.29256950381455L240.71125,140.8302551127813L241.05249999999998,141.09435179653505L241.45875,142.0854474177672L241.54000000000002,142.06299843956782L241.75125,141.26191684020338L241.9625,141.02468358647326L242.06,141.08915766796486L242.7425,140.61133423694884L242.75875,141.53509323968515L242.84,141.63576194898906L242.92125,142.1486089553862L243.08374999999998,142.2843757050355L243.57125000000002,141.61759178930598L243.7825,142.0693718170259L244.02625,140.58660133920975L244.3025,141.20384085097496L244.74125,141.08270123495055L244.7575,141.5205664751005L244.88750000000002,142.29292693936472L245.0825,142.34216667695125L245.13125000000002,141.93028558295586L245.2775,142.41777296316084L245.52125,142.8566997051866L245.58625,142.6138360050554L245.61875,142.76261066554434L245.8625,142.63715155498124L246.155,142.97474314853557L246.44750000000002,142.13880783991524L246.69125,142.5158165513693L246.85375000000002,142.1062373287774L246.9025,142.1264528079729L247.0975,141.4554231335233L247.11375,142.27750128996632L247.17875,141.92129359420508L247.63375000000002,142.59016878620187L248.05625,142.62259212891783L248.5925,142.99911684544028L248.67375,142.54252937610968L248.83625,142.99405205638962L249.42125000000001,141.14809566556661L249.5025,140.59237355030896L250.2825,140.499687836239L250.3475,140.44539839238158L250.6725,141.1607905688141L251.45250000000001,141.65727035959847L251.46875,142.02824216105137L251.81,142.8626232728279" style="fill: none;" fill="none"></path></g></g></g></g><g opacity="0.2"><g><g><g><path stroke="rgb(255, 112, 67)" stroke-width="2px" d="M34.027499999999996,-75.14557213253444L35.01875,50.36230447557238L35.067499999999995,-65.47829241222804L35.21375,61.28816885418364L36.221250000000005,51.19075128767225L36.3025,-49.881410174899635L36.64375,-21.77226501040989L36.724999999999994,28.140229013231068L36.83875,-8.329490661621094L36.93625,-19.87316539552479L37.504999999999995,51.559836626052856L37.5375,-142.21897241804336L37.667500000000004,15.862674607170964L38.13875,29.18448742230734L38.46375,-15.098338233100051L39.682500000000005,-18.214020172754896L39.731249999999996,29.421930869420375L39.975,-37.43525701098972L40.02375,36.047630998823394L40.04,22.639809476004714L40.2025,-1.4543817838032909L41.21,51.583425362904876L41.64875,63.452792061699775L41.908750000000005,17.34270575311449L42.0225,64.26833638879988L42.03875,53.094354099697554L42.575,-15.931901242997894L42.802499999999995,0.2224107848273471L42.9325,94.22185317675275L42.965,18.280266682306937L43.013749999999995,-13.71551484531826L43.04625,51.39508091078865L43.24125,51.071616967519134L43.403749999999995,27.4248808224996L44.1025,42.43029994434782L44.2325,44.97697581185236L44.3625,20.97677405675253L44.72,53.14741402202183L44.785,62.20343777868482L44.93125,39.9618288146125L44.99625,83.53577815161812L45.028749999999995,-2.1942028469509505L45.25625,60.11100718710157L45.28875,-5.19452277819313L45.37,59.63576663864985L45.4025,-9.982164012061233L45.5325,-33.71582836574978L45.629999999999995,47.08312818739149L45.64625,9.680763377083684L46.085,64.10317397117615L47.23875,67.0797519154019L47.271249999999995,-6.353589137395209L47.807500000000005,35.603087637159575L47.856249999999996,47.47748801443311L48.1325,61.134252640936104L48.27875,88.7614908748203L48.295,31.94349728690254L48.392500000000005,82.75799820158217L48.408750000000005,48.70958397123548L48.49,66.00410669379765L48.7825,0.36607691976760925L48.83125,66.71916606691148L48.9775,56.49379640155369L49.77375,82.14753795994653L49.8225,59.59698845280543L49.92,72.59236073493958L50.0175,36.20558476448059L50.09875,79.86803607145947L50.26125,4.24967185656231L50.35875,37.06167554855347L50.440000000000005,73.1270446644889L51.285000000000004,35.27218516667685L51.36625,59.30348491668701L51.3825,87.14681177669102L51.675000000000004,13.809700038697986L51.886250000000004,32.123483710818824L52.0975,60.672008885277656L52.715,16.33797409799364L52.99125,-6.614303032557143L53.316250000000004,35.49095567067465L53.41375,83.30398727787866L53.5275,51.19671625561186L53.885,63.649659580654586L53.933749999999996,24.898846573299846L54.112500000000004,23.904453410042667L54.16125,57.852076186074164L54.21,22.460035244623832L54.22625,-32.44536092546253L55.006249999999994,70.30715322494507L55.10375,38.82780117458769L55.12,72.9751324918535L55.4775,-3.767080015606346L55.6725,16.796203878190784L55.835,63.34768013159435L56.322500000000005,35.72738530900744L56.50125,81.9769646326701L56.63125,10.205739498138428L56.728750000000005,44.27413519223532L57.24875,65.39980003568861L57.31375,69.34356334474352L57.72,49.28324649069044L57.980000000000004,93.36641665299734L57.996249999999996,59.33288537131416L58.24,1.4305407736036688L58.305,20.179543124304885L58.58125,37.529324319627555L59.15,24.23315143585205L59.28,19.939753770828247L59.605000000000004,49.75477366977268L59.832499999999996,75.69552920924293L59.97875,47.514562765757255L60.07625,83.3304229312473L60.10875,75.61037516593933L60.1575,25.855139387978458L60.27125,64.03546097543504L60.4175,72.63611955112883L60.645,51.10502550337049L60.6775,44.27412340376114L60.72625,33.89927588568794L60.85625,70.86498971780142L60.8725,44.758747577667236L61.34375,58.03834586673313L61.441250000000004,47.69513861338299L61.831250000000004,50.08595906363594L62.1725,73.29696373144787L62.464999999999996,-3.266022708680877L62.611250000000005,0.6536803245544434L62.822500000000005,66.137045317226L62.87125,74.33170294761658L63.00125,43.12934467527603L63.65125,44.975773387485084L63.9275,62.282562017440796L64.09,56.91122627258301L64.13875,45.07337016529509L64.46375,53.63959460788303L64.72375,54.74303115738764L65.01625,33.08096716139053L65.08125,6.3071378337012485L65.21124999999999,92.95031298531427L65.4875,59.46260574128893L65.585,57.62322653664484L65.975,63.871106068293265L66.18625,79.84402884377374L66.235,66.58632175127667L66.25125,65.42012336519029L66.38125,30.56672138637968L66.44625,70.25889121161568L66.56,49.97683315806919L66.80375,17.773114734225807L67.35624999999999,97.14814149008858L67.42125,72.88823964860704L67.535,58.25414567523533L67.68125,55.15364729033577L68.03875000000001,59.5146164894104L68.10374999999999,61.9066806236903L68.23375,80.78277451462218L68.36375,77.07952555020651L68.42875000000001,83.93405175209045L68.75375,57.86446587244671L68.835,58.653939988878044L68.85125000000001,82.6437030500836L68.88374999999999,14.57724759313797L68.9325,88.46215793821547L69.1275,77.05896645122105L69.17625,53.81550221972996L69.2575,60.709614117940276L69.56625,54.67344379425049L69.82625,61.606563753551924L69.98875000000001,71.15443801879883L70.18375,93.88618816269769L70.60625,60.40415117475721L70.7525,33.16349826918709L71.32125,84.71999522050223L71.33749999999999,38.25930200682747L71.37,70.5131568113963L72.085,48.15557283825346L72.215,75.6935310628679L72.36125,64.39350051350065L72.39375,73.39996552467346L72.475,14.811496363745803L72.88125000000001,84.9039366775089L72.8975,52.279829475614754L73.06,64.68584288491144L73.0925,66.68727824423048L73.17375,60.66763536135357L73.40125,72.35875443617505L73.49875,55.119272099600906L73.645,22.658187707265224L73.88875,66.5862863858541L73.95375,107.95600913630592L73.98625,54.500648339589446L74.3925,39.88677159945171L74.75,70.44727102915448L74.8475,75.34874176979065L75.12375,122.83664136462743L75.22125,94.99040275149876L75.64375,95.4091882970598L76.0175,64.97895150714452L76.13125,44.893914222717285L76.2125,80.30314865377214L76.42375,68.9346565405528L76.5375,60.15156543254852L76.78125,53.890135049819946L77.025,67.98183543152281L77.2525,87.65735291110146L77.82124999999999,105.63993350664776L77.8375,86.10375579198202L77.85375,108.09692266252306L79.17,114.89244165685442L79.31625,85.46247458457947L79.46249999999999,87.28611028194427L79.56,90.84564595752293L79.95,106.6879406505161L80.71374999999999,55.202887747022835L80.84375,47.80230763223437L81.42875000000001,80.44244126478833L81.68875,106.38757032818263L81.7375,95.79592098130121L81.8675,33.081650892893485L81.91625,70.74043859375848L82.30625,110.67939128478369L82.37125,102.42964316738977L82.85875,78.35949450069005L83.2325,100.11433378855389L83.47625,8.024117310841884L83.76875,100.55659608046216L83.86625,94.14892967542013L84.12625,62.280569765302864L84.41875,113.58025480641258L84.435,51.80361048380535L84.98750000000001,116.12523902787102L85.15,60.890791177749634L85.19875,103.1628980504142L85.215,78.46961063808867L85.2475,72.36035177442763L85.26375,58.7290325694614L85.67,97.63335508770412L86.20625,87.79681645499336L86.58,94.57839557859634L86.85625,47.7120197084215L87.36,81.24406340387132L87.79875,98.31816523604924L87.88000000000001,92.76163845592076L88.2375,99.20583144823712L88.54625,75.1731996006436L88.57875,108.67223556836447L88.79,67.66319886843365L89.05000000000001,59.37970329655543L89.52125000000001,89.92448279592728L89.57,96.84225416183472L89.97625,74.53910936249628L90.39874999999999,76.5046547121472L90.675,102.2565353181627L91,114.71572064028847L91.2925,98.87921408812207L91.325,123.93027579784393L91.3575,82.52914855215285L91.455,62.62073797649809L91.91,91.48177560170492L92.1375,4.623967700534401L93.0475,27.193084054523048L93.11250000000001,98.75104390250313L93.2425,126.78506112098694L93.29124999999999,111.47307978073758L93.795,96.42052739196355L93.925,103.24894212351906L94.13625,87.83965577019586L94.2175,100.47391172250113L94.4775,84.17624595430162L94.55875,91.52600006262463L94.59125,88.379632724656L94.75375000000001,66.03558781411913L94.81875,105.63375634617275L95.28999999999999,120.50535860326555L95.485,102.42734441492294L96.33,109.66289178530377L96.44375,114.53117207686108L96.50875,86.23539768324959L96.6875,121.51326725218033L96.78500000000001,83.61473735173544L96.8825,94.65272780259451L97.24,109.98365616798401L97.64625000000001,88.90915919674768L97.6625,95.20188208421072L97.8575,102.54430965582532L98.03625000000001,86.86044616169401L98.085,115.66512309180366L99.01125,98.17656797832912L99.0925,119.06681699222987L99.10875,64.72887081570097L99.27125,112.0281577706337L100.45750000000001,120.39491238858965L100.63624999999999,122.60708440674675L100.6525,94.57322043842738L100.685,47.834030416276725L100.76625,74.93623948097229L100.7825,123.0704303847419L101.18875,73.29513651794859L101.27000000000001,62.47360603014629L101.31875000000001,111.5820435947842L101.44875,79.27161590258282L101.77374999999999,110.69838546382057L101.8225,95.11551382806566L101.83875,100.8168738020791L102.0825,85.54491727881963L102.3425,85.93488000498878L102.44,97.3634815480974L102.65125,119.12189863787758L102.68375,101.8722664250268L102.895,110.55328702926636L103.07375,81.97566790050932L103.49625,102.76813741525015L103.6425,90.60037496354845L103.88624999999999,85.06604588031769L104,100.9543215168847L104.0975,132.5801748302248L104.16250000000001,92.46284778912863L104.4875,114.65098423428005L104.53625,97.24498969978755L105.21875,127.19897213247087L105.495,111.51943500836691L105.77125000000001,92.9801378250122L105.7875,100.07457715935176L106.1125,130.10949336157907L106.16125000000001,113.87411789099377L106.30749999999999,108.28115883138445L106.48625,96.82559704780579L106.8925,115.5310851931572L106.94125000000001,65.13142952654097L107.16875,126.29981215794882L107.20125,81.1166476806005L107.23375,117.75665481223L107.705,96.166827638944L108.16,101.19869658682083L108.28999999999999,92.5039070447286L108.355,120.42299253410762L108.485,114.13948823346031L108.66375000000001,84.90089525116815L109.08625,102.98177993297577L109.1675,116.65797196494209L109.4275,97.97349382771387L109.6875,92.12503727277121L109.8175,119.53377319044536L109.96375,104.69882424672446L110.11,107.54388997289871L110.28875,73.81705352995131L110.305,83.40367650985718L110.40249999999999,116.7971172200309L110.5,108.61036965582107L110.5325,69.15895583894518L110.58125,96.48257602585687L111.14999999999999,122.17980526553261L111.345,118.30281776852077L111.65375,104.4839321507348L112.0275,107.78909023602804L112.35249999999999,116.61026695701813L112.74249999999999,116.5195752779643L113.0025,133.91987008518643L113.1325,108.54457818137276L113.27875,129.3058141337501L113.3275,116.37448273764717L113.36,134.08707338240413L114.18875,129.87415710422727L114.2375,103.38591240512001L114.5625,119.95521703693603L114.595,122.74654500352013L114.61125,121.60159239504074L114.725,92.61209576659734L115.0175,123.05119748910269L115.4725,123.46715085373985L115.7975,112.55842102236217L115.83,121.73209375143051L115.92750000000001,117.3885803355111L116.35000000000001,86.02126004960802L116.43125,123.0437589618895L116.70750000000001,138.6171364552445L117,120.48294576671388L117.13000000000001,121.69047749042511L117.63374999999999,124.11771548456615L118.0725,118.59006457196342L118.44624999999999,106.89844743410748L118.91749999999999,118.34668268097771L119.09625,88.66904566023085L119.35625,93.87285539839004L119.58375,93.41608738899231L119.925,86.78057924906415L120.575,130.73042766253155L120.9325,112.111920773983L121.01375,117.73363781637615L121.615,124.75276353624132L121.79375,108.40300450060104L121.89125,117.4170966545741L122.11874999999999,133.6316743095716L122.15125,94.64134013652802L122.67125,136.0842280520333L123.06125,99.81470024585724L123.25625,118.79463585880067L123.28875,101.87288531992172L123.38625,87.83696210384369L123.58125000000001,104.58051511976456L123.9875,118.19483534495038L124.44250000000001,121.44868409633636L124.47500000000001,111.88250233067406L124.53999999999999,99.82274587949118L124.78375,122.12554291884106L125.45,126.58126787344617L125.49875,104.3696546819475L125.79124999999999,121.09710464212631L126.08375000000001,125.49460632271236L126.36,126.74623578124577L126.40875,106.7737253771888L126.57124999999999,126.8881159623464L126.86375000000001,110.44463266266717L126.88,119.16278401348328L127.15625,128.22502913739947L127.205,94.83154716756609L127.75750000000001,131.72714610232245L127.78999999999999,118.63340784443749L127.90375,112.78525778982376L128.3425,132.3095998764038L128.48875,116.63908682929146L128.83,138.35552810960345L129.22,101.84306637446088L129.30125,124.36691498756409L129.39875,121.55475678708818L129.8375,109.3996875749694L130.1625,125.85821591483223L130.24375,104.90301240815057L130.48749999999998,90.77808621194627L130.56875,119.88639887173971L130.975,127.17481460173926L131.26749999999998,109.53211045265198L131.3325,122.49638179275726L131.41375,134.09007502264447L131.67374999999998,132.8588514129321L131.70625,107.69534828927782L131.96625,119.73009549246895L131.99875,131.3477045893669L132.09625,79.56100526120927L132.12875,121.39393842220306L132.16125,122.48855719301437L132.35625,113.03064961565865L132.42125,110.54705682065752L132.79500000000002,130.61303803655835L132.94125,112.70394089486864L133.25,107.94934275415208L133.42875,117.02077404658002L133.46124999999998,122.43311599890393L133.55875,126.5787068274286L133.76999999999998,107.76550739341313L134.0625,128.41078601943124L134.69625,128.45890362395178L135.07,68.31048040919835L135.13500000000002,115.35429049862755L135.15125,112.13252997398376L135.265,140.7020194762283L135.54125,126.70997443464067L135.72,138.08333960837788L135.89875,135.41805253426233L136.0125,123.13442116975784L136.10999999999999,104.52454344431561L136.5,132.08662972847623L137.39375,91.58840235074362L137.45874999999998,129.39268929428525L137.67,119.07476537095177L138.04375,123.88706809282303L138.06,106.32704240745967L138.125,110.70987922615474L138.45,132.63043204281064L138.46625,132.91871623198193L138.48250000000002,136.20619750022888L138.61249999999998,138.05796049700845L138.9375,139.18786806530423L139.3275,100.21287364429897L139.44125,129.86775890986127L139.48999999999998,127.21847911013496L139.79874999999998,123.939264509413L140.67625,128.24835558070075L140.82250000000002,108.04864886071947L140.855,132.53811650143732L140.92000000000002,125.07622158527374L141.0175,111.47726763619316L141.06625,101.87898585531448L141.18,83.91767166720497L141.31,105.59955798255073L141.35875,120.07039927111732L141.55375,116.51814887258743L141.9925,134.52526128292084L142.0575,124.19449971119565L142.23625,129.1632885336876L142.415,129.90395836697687L143.52,120.67415187093948L143.7475,117.22508009274802L143.8775,108.94538630379571L144.10500000000002,111.20877040094798L144.12125,126.5641981628206L144.54375,123.481170296669L144.77125,136.63911153210532L145.17749999999998,130.84862479898663L145.64874999999998,118.52620051304501L145.6975,136.4065499868658L146.12,120.81831312179565L146.4125,138.87961420085696L146.4775,122.04874395661885L146.88375,127.94376203748917L146.9975,122.65183934900497L147.30625,120.74985745218065L147.72875,119.94354350037044L147.9725,121.50581693649292L148.10250000000002,128.6568438940578L148.11875,112.9429404205746L148.47625,143.07413014438418L148.54125,119.3498759402169L148.76874999999998,120.83934670686722L148.96375,107.54418468475342L149.09375,142.8192088107268L149.41875000000002,124.24363996585211L149.565,124.12972793976468L149.71124999999998,125.10957117875418L149.74375,136.38088500499725L149.76,113.69257538848454L150.06875,133.3799196547932L150.1175,134.81018428338896L150.26375,125.60140400462681L150.865,129.8832253879971L151.125,138.13188454508781L151.30375,131.85358338223566L151.59625,132.02364391088486L151.75875000000002,115.3837911552853L151.775,129.77748866875964L151.98624999999998,123.2268103890949L152.0675,126.67328870296478L152.08375,131.79272833135394L152.45749999999998,127.7106862200631L152.52249999999998,131.85989905728232L152.76624999999999,123.35552579164505L153.25375,132.69691609011758L153.4,128.63168434302014L153.44875,135.54650122258397L153.5625,103.34409868717194L153.72500000000002,136.66782825522952L153.77374999999998,132.0084279378255L153.855,115.66665559344823L154.01749999999998,123.42015020714867L154.4075,137.59313948618043L154.55374999999998,129.52046456601886L154.86249999999998,133.00206958585315L155.13875000000002,124.42984480990303L155.935,122.55157542890971L156.14625,132.58556805716623L156.195,113.2180775139067L156.69875000000002,136.50228860643176L156.715,125.38289874129826L156.99124999999998,131.74127164151935L157.15375,133.99442776375346L157.235,134.40718497832617L157.41375,124.91142461034988L157.51125,120.13846886820262L157.625,131.5883721841706L157.9175,124.08333734671277L157.99875,123.1840594874488L158.07999999999998,138.39419577850234L158.3725,130.87814313835568L158.55124999999998,129.13006271918613L158.6,138.4559924337599L158.92499999999998,124.17725022633871L159.055,135.8575239049064L159.2175,137.86178997159004L159.4125,124.94735293255913L159.78625,142.55824293692908L159.86749999999998,122.85235834783977L160.85875,115.39484874407452L160.875,143.06699959105916L160.94,139.1004034810596L161.395,110.2546201414532L162.09375,120.66953668329452L162.22375,133.51152323351968L162.35375,133.25735783576965L162.37,125.65432246526083L162.92249999999999,116.98794609308243L163.10125000000002,142.3065825899442L163.29625,117.72535936037701L163.345,112.36708524492052L163.57250000000002,118.9732400841183L164.54749999999999,130.7893523507648L164.9375,127.42521063486737L165.42499999999998,119.66826494534811L165.48999999999998,136.22032009230722L165.7175,122.32742053932613L165.99375,122.93876491652595L166.09125,107.38196349143982L166.77375,128.50237656964194L167.03375,137.62751025623746L167.21249999999998,119.27383733457988L167.35875,132.3674724433157L167.48875,123.51749058564505L167.81375,121.20122634039986L167.84625,138.44018114275403L167.895,127.39878971709145L167.92749999999998,134.9409759309557L168.025,119.12216093142828L168.22,126.87104919883942L168.35,133.3608665333854L168.39875,142.36451115210852L168.48000000000002,129.33031942447025L168.59375,126.08316063218648L168.62625,126.90178469816846L169.455,144.84448341197438L169.63375,119.62440003289116L169.76375,130.18187754021753L170.08875,139.96424223979315L170.105,143.3372017343839L170.13750000000002,115.8688750796848L170.365,118.41402433978188L170.43,131.16875555117923L170.57625,141.2740655011601L170.5925,109.43457261721295L170.67375,116.75486143430075L170.73874999999998,130.79481336143283L170.755,129.31946518686084L170.99875,149.31774519549478L171.5025,133.18677434656354L171.69750000000002,121.8548441860411L171.81125,129.9982455306583L171.89249999999998,118.37927781211006L172.12,145.5899025268025L172.26625,141.79794824123383L172.51,133.4003431863255L172.68875,140.95260265138415L172.8025,131.69347822003894L172.81875,125.55547021494972L172.965,134.1188005871243L173.5825,131.7098877761099L173.7125,100.27781045436859L173.72875000000002,128.20737295018304L173.79375000000002,118.19831883907318L174.31375,133.11387147506076L175.0775,121.25031354692247L175.1425,131.2588430709309L175.435,124.48887854152257L175.51625,146.119137234158L175.80875,132.2073112858666L175.8575,121.38552439875072L176.19875,138.8439658549097L176.3775,130.58810246653027L176.7675,133.55347104536165L176.88125,131.23578481541742L177.1575,140.57527864310475L177.19,129.54970587624442L177.23875,139.89686963624425L177.58,134.04641346136728L177.61249999999998,143.54774388339786L177.69375,138.53753773040242L177.8725,125.95591878890991L178.0675,134.43721906344095L178.34375,142.35138468609918L178.63625000000002,125.12262986103696L178.73375000000001,127.30060646269058L178.815,122.29236161708832L178.89625,144.79046420256296L179.18875,114.25271652804481L179.205,122.42571873135036L179.64374999999998,130.35608466466266L179.77375,140.12300056881375L179.93625,143.51484225193659L180.11499999999998,134.0943733950456L180.45625,143.4286611378193L180.74875,131.3435609406895L181.26874999999998,140.8450505071216L181.285,131.3951296210289L181.38250000000002,127.81429217259091L182.22750000000002,125.73344080977971L182.26,118.95065631469092L182.4225,125.90372826655707L182.53625,128.0814484688971L182.975,136.75430997543864L183.31625,132.70851300160092L183.47875000000002,135.67100077205234L183.73875,120.33575193087262L183.77124999999998,141.86569954951605L183.88500000000002,125.47122093704012L184.405,137.377246843444L184.48624999999998,138.29886091417737L184.66500000000002,127.08445889419978L184.74625,130.58330455753537L185.44500000000002,132.3618287112978L185.49374999999998,136.9445243742731L185.81875,125.84784205754599L185.91625000000002,136.2035156223509L185.9325,138.05373432901172L186.355,131.04733721415204L186.46875,144.82914071281752L187.47625000000002,134.32924842834473L187.4925,127.26296586460536L187.63875000000002,129.39062631130219L187.7525,143.95655195911726L187.80125,143.20459908246994L187.915,133.6325997047954L187.96375,134.78721738855043L188.32125000000002,144.77703713046182L188.5,125.68499607510036L188.67875,144.28513210018477L188.84125,139.3131824930509L188.87375,138.98350012964673L188.89000000000001,116.1320704486635L188.93875,137.47753581404686L189.32874999999999,133.62236583564015L189.42625,132.17133580976062L189.49124999999998,136.61799100703664L189.79999999999998,110.49491345220143L189.9625,134.1039736337132L190.0925,144.37805622153812L190.28750000000002,145.37372843424478L190.9375,136.50321105453702L191.08375,130.39602401521472L191.1,131.83684964312445L191.23000000000002,127.97729140520096L191.37625,136.24282428953381L191.945,135.64201880825888L192.4,143.6125834385554L192.44875,143.62522068288592L193.09875,133.8766859571139L193.48875,129.8618352015813L193.65125,134.28651815652847L194.545,141.11322061220804L194.75625,129.77583828237323L194.935,132.23023102680844L195.2275,137.5422147512436L195.8125,126.37034849325818L195.89374999999998,134.48693990045123L195.91,145.12327345874576L195.9425,140.86906657616296L196.17,119.61767176124786L196.36499999999998,138.6526654428906L196.5275,138.01097605956923L196.73874999999998,137.66683071189456L196.82,141.51496444476973L196.83625,145.70221132040024L197.08,129.63648672898609L197.1775,137.50976108180154L197.34,138.67447706725864L197.73,143.00166049930783L198.00625,142.29408238662612L198.36375,139.8314833905962L198.8675,129.37314695119858L198.98125,134.1788127621015L199.03,117.60858568218019L199.16,141.2698879606194L199.42000000000002,146.73706252707373L199.48499999999999,137.3681314057774L199.56625,141.93348474966157L199.59875,133.3352383904987L199.63125,138.20235751734842L199.68,142.6586851576964L200.24875,129.62763947910733L200.3625,147.16618361737994L200.6225,147.45530699855752L200.9475,144.82838477691016L201.4025,144.00545055005284L201.435,128.78581864304013L201.45125000000002,138.1223255660799L201.48375,139.05145773622723L201.58124999999998,141.44272172782155L201.7275,144.2466088400947L201.825,127.14810781346428L201.90625,135.50716897845268L202.3775,116.34779952632057L202.605,138.16516488128238L202.78375,142.87819980912738L202.94625000000002,134.89528380499948L203.01125000000002,133.58983112043805L203.0275,138.79614738292165L203.48250000000002,123.8571695751614L203.62875,100.93728127744463L203.75875,133.90344874064127L204.0025,145.40673174129594L204.01874999999998,140.67495166593127L204.21375,146.03403034475116L204.7175,136.20054197973676L204.86374999999998,144.68203676409192L205.075,147.7870832896895L205.12375,121.47169814507168L205.14000000000001,143.55488180451923L205.22125,129.88676782449085L205.3675,128.67314735386105L205.4975,122.1499214834637L205.61125,133.17691328790454L205.6275,133.40836229589252L205.90375,132.7027337021298L206.39125,140.79538419180446L206.55375,140.14887921677698L207.155,141.89724550644556L207.30124999999998,141.04141259524556L207.3175,140.2464568383164L207.415,136.6513818601767L207.67499999999998,120.40991911623215L207.78875000000002,138.4938113325172L208.24375,138.46979821059438L208.26000000000002,139.971097237534L208.40625,136.0844962398211L208.4875,146.0975422230032L208.66625,139.2794969280561L208.8125,131.83395851982962L209.04000000000002,139.38261955314212L209.21875,137.4055259194639L209.6575,143.52285988794435L209.70624999999998,131.06748961077798L209.8525,148.0978164176146L210.25875,136.69152456190852L210.32375,145.61806077096196L210.47,143.0172890689638L210.6975,144.40416327118874L210.795,127.23301135169136L210.82750000000001,120.18919172551897L211.38,134.86344608333377L211.4775,142.45903997951083L211.575,127.39667958021164L211.60750000000002,125.19108553065193L211.62375,147.73506885766983L211.78625,131.93488554159802L211.8675,115.69714058770073L212.095,134.76569310824075L212.24125,137.22479240099588L212.50125,130.5575585299068L212.9075,142.98293450805875L213.21625,128.8765456875165L213.3625,141.01046048270334L213.655,132.96602927313913L213.94750000000002,140.27345981200537L214.09375,141.56139629748134L214.4675,147.10274983776938L214.5,139.83980752693284L214.51625,136.1561524801784L215.345,128.0516796244515L215.475,139.0273193617662L215.52375,136.90883182154764L215.67000000000002,146.8133022735516L215.94625,112.09745336903465L216.2875,142.5988350742393L216.53125,132.4899045891232L216.79125,142.2317935625712L217.11625,138.67107019821802L217.23000000000002,137.8849749532011L217.34375,140.19935746325385L217.425,131.79607625802356L217.92874999999998,142.2699764304691L218.05875,140.06475371784634L218.09125,148.52191267079778L218.64375,142.31608115302194L218.6925,135.38485471738707L218.92,145.13953713244862L218.95250000000001,145.51866183016034L218.96875,124.22423613733714L219.1475,146.75821547044646L219.245,130.3829948041174L219.7,139.51997590727277L219.74875,145.0607105526659L219.765,125.7341716951794L219.86249999999998,141.20017387138475L219.895,143.40396133727498L220.17125,138.1720552444458L220.30125,141.37845686078072L220.44750000000002,131.9403406580289L220.69125,133.44213038020663L220.95125,145.7772773769167L221.58499999999998,123.87443379561108L221.78,134.04885662264294L221.8125,125.12988271978166L221.975,143.4110300011105L222.15375,133.44256360663306L222.2675,128.55304637882446L222.38125,134.16179315249124L222.41375,118.98259718550575L222.69,146.16015154620013L222.99875,138.74676104386648L223.58375,131.7807954483562L223.74625,145.88282990124492L224.02249999999998,139.04283446735806L224.12,146.3336042082972L224.26625,141.0317652026812L224.75375,131.0940254661772L225.1275,113.685770491759L225.14375,127.28383735815686L225.43625,141.06891952620614L225.89124999999999,138.15079031056828L225.9725,141.83483437697092L226.18375,141.13203059633574L226.2,140.98080657588113L226.41125,141.1209405892425L226.54125000000002,135.90070361230107L226.6225,142.465961287419L226.655,143.89726035462488L226.67125,137.18072561091847L226.99625,146.49573183059692L227.07750000000001,137.66725804408392L227.305,135.44144086705316L227.4675,137.48537072870465L227.54875,121.62705549928879L227.6625,125.65408669577705L227.90625,140.56917516059346L227.97125,141.96434844864737L228.16625000000002,150.2966387255324L228.735,145.79740030235715L228.88125000000002,148.07691692643695L228.9625,136.92634065283667L229.66125,149.8990798013078L229.7425,147.77421027587522L229.88875000000002,148.3864491035541L229.98625,137.44946893056235L230.165,135.66275178723865L230.23,146.48538228703868L230.48999999999998,130.66964628961352L230.70125,136.7198891043663L231.02625,139.84636633925967L231.1725,143.3880439500014L231.3025,136.2897645201948L231.6275,118.77867721186745L231.8875,134.28736397955151L232.21249999999998,139.71746968891887L232.26125,146.25553135408293L232.52124999999998,139.53364759021335L232.74875,127.59192618396547L232.78125,148.70787585112782L232.96,133.29141768481998L233.935,139.09469343887437L234.08124999999998,142.50242156452603L234.0975,136.35649612545967L234.585,134.4077522986465L234.89375,146.8210509849919L234.9425,143.44306517971884L235.3,126.78709463278454L236.015,141.83126394285094L236.35625,133.58954082926115L236.45375,144.89661793907484L236.48625,147.06277512179483L236.8275,148.54201865030657L237.185,135.31995474629932L237.65625,144.8296490907669L238.17625,137.27878066566257L238.40375,144.85233011510638L238.66375,142.36345018943152L238.85875,143.59992261727652L239.8175,127.95531768931282L240.0775,148.68836739990445L240.58124999999998,147.3648680349191L240.71125,136.66942559348215L241.05249999999998,143.4712219503191L241.45875,151.00530800885625L241.54000000000002,141.86095763577353L241.75125,134.05218244592348L241.9625,138.88958430290222L242.06,141.66942440138925L242.7425,136.31092335780463L242.75875,149.8489242643118L242.84,142.54178033272424L242.92125,146.76423201296063L243.08374999999998,143.50627645187907L243.57125000000002,135.6165365477403L243.7825,146.13539206650523L244.02625,127.24166703886455L244.3025,146.7589964568615L244.74125,139.99244469073085L244.7575,145.46135363645024L244.88750000000002,149.24417111774287L245.0825,142.78532431523004L245.13125000000002,138.2233557369974L245.2775,146.80515938500562L245.52125,146.8070403834184L245.58625,140.4280627038744L245.61875,144.10158260994487L245.8625,141.5080195599132L246.155,146.01306749052472L246.44750000000002,134.61539006233215L246.69125,145.9088949544562L246.85375000000002,138.42002432545027L246.9025,142.30839212073218L247.0975,135.4161560634772L247.11375,149.67620469795335L247.17875,138.7154243323538L247.63375000000002,148.61004551417298L248.05625,142.91440221336154L248.5925,146.3878392941422L248.67375,138.43324215213457L248.83625,147.05775617890887L249.42125000000001,124.53448814815944L249.5025,135.59087451299033L250.2825,139.66551640960904L250.3475,139.95679339766502L250.6725,147.59932015670668L251.45250000000001,146.12558847665787L251.46875,145.36698837412726L251.81,150.37205327881705" style="fill: none;" fill="none"></path></g></g></g></g></g></g><g transform="translate(70, 178)" clip-path="url(#clip_1)"><clipPath id="clip_1"><rect width="260" height="21"></rect></clipPath><g><g><line x1="0" y1="0" x2="0" y2="5" style="visibility: inherit;" fill="rgb(0, 0, 0)" stroke="rgb(204, 204, 204)" stroke-width="1px"></line><line x1="32.5" y1="0" x2="32.5" y2="5" style="visibility: inherit;" fill="rgb(0, 0, 0)" stroke="rgb(204, 204, 204)" stroke-width="1px"></line><line x1="65" y1="0" x2="65" y2="5" style="visibility: inherit;" fill="rgb(0, 0, 0)" stroke="rgb(204, 204, 204)" stroke-width="1px"></line><line x1="97.5" y1="0" x2="97.5" y2="5" style="visibility: inherit;" fill="rgb(0, 0, 0)" stroke="rgb(204, 204, 204)" stroke-width="1px"></line><line x1="130" y1="0" x2="130" y2="5" style="visibility: inherit;" fill="rgb(0, 0, 0)" stroke="rgb(204, 204, 204)" stroke-width="1px"></line><line x1="162.5" y1="0" x2="162.5" y2="5" style="visibility: inherit;" fill="rgb(0, 0, 0)" stroke="rgb(204, 204, 204)" stroke-width="1px"></line><line x1="195" y1="0" x2="195" y2="5" style="visibility: inherit;" fill="rgb(0, 0, 0)" stroke="rgb(204, 204, 204)" stroke-width="1px"></line><line x1="227.5" y1="0" x2="227.5" y2="5" style="visibility: inherit;" fill="rgb(0, 0, 0)" stroke="rgb(204, 204, 204)" stroke-width="1px"></line><line x1="260" y1="0" x2="260" y2="5" style="visibility: inherit;" fill="rgb(0, 0, 0)" stroke="rgb(204, 204, 204)" stroke-width="1px"></line></g><g transform="translate(0, 8)"><text x="0" y="0" dx="0em" dy="0.95em" style="text-anchor: middle; visibility: hidden; font-family: Roboto, sans-serif; font-size: 12px; font-weight: 200;" fill="rgb(50, 49, 63)" stroke="none" stroke-width="1px">-2k</text><text x="32.5" y="0" dx="0em" dy="0.95em" style="text-anchor: middle; visibility: inherit; font-family: Roboto, sans-serif; font-size: 12px; font-weight: 200;" fill="rgb(50, 49, 63)" stroke="none" stroke-width="1px">0</text><text x="65" y="0" dx="0em" dy="0.95em" style="text-anchor: middle; visibility: inherit; font-family: Roboto, sans-serif; font-size: 12px; font-weight: 200;" fill="rgb(50, 49, 63)" stroke="none" stroke-width="1px">2k</text><text x="97.5" y="0" dx="0em" dy="0.95em" style="text-anchor: middle; visibility: inherit; font-family: Roboto, sans-serif; font-size: 12px; font-weight: 200;" fill="rgb(50, 49, 63)" stroke="none" stroke-width="1px">4k</text><text x="130" y="0" dx="0em" dy="0.95em" style="text-anchor: middle; visibility: inherit; font-family: Roboto, sans-serif; font-size: 12px; font-weight: 200;" fill="rgb(50, 49, 63)" stroke="none" stroke-width="1px">6k</text><text x="162.5" y="0" dx="0em" dy="0.95em" style="text-anchor: middle; visibility: inherit; font-family: Roboto, sans-serif; font-size: 12px; font-weight: 200;" fill="rgb(50, 49, 63)" stroke="none" stroke-width="1px">8k</text><text x="195" y="0" dx="0em" dy="0.95em" style="text-anchor: middle; visibility: inherit; font-family: Roboto, sans-serif; font-size: 12px; font-weight: 200;" fill="rgb(50, 49, 63)" stroke="none" stroke-width="1px">10k</text><text x="227.5" y="0" dx="0em" dy="0.95em" style="text-anchor: middle; visibility: inherit; font-family: Roboto, sans-serif; font-size: 12px; font-weight: 200;" fill="rgb(50, 49, 63)" stroke="none" stroke-width="1px">12k</text><text x="260" y="0" dx="0em" dy="0.95em" style="text-anchor: middle; visibility: hidden; font-family: Roboto, sans-serif; font-size: 12px; font-weight: 200;" fill="rgb(50, 49, 63)" stroke="none" stroke-width="1px">14k</text></g><line x1="0" y1="0" x2="260" y2="0" fill="rgb(0, 0, 0)" stroke="rgb(204, 204, 204)" stroke-width="1px"></line></g></g></g></g></svg>