<svg viewBox="0 0 330.0000305175781 200.00001525878906" xmlns="http://www.w3.org/2000/svg"><g><g><g><g><g><line x1="58" y1="178" x2="53" y2="178" style="visibility: inherit;" fill="rgb(0, 0, 0)" stroke="rgb(204, 204, 204)" stroke-width="1px"></line><line x1="58" y1="163.16666666666669" x2="53" y2="163.16666666666669" style="visibility: inherit;" fill="rgb(0, 0, 0)" stroke="rgb(204, 204, 204)" stroke-width="1px"></line><line x1="58" y1="148.33333333333334" x2="53" y2="148.33333333333334" style="visibility: inherit;" fill="rgb(0, 0, 0)" stroke="rgb(204, 204, 204)" stroke-width="1px"></line><line x1="58" y1="133.5" x2="53" y2="133.5" style="visibility: inherit;" fill="rgb(0, 0, 0)" stroke="rgb(204, 204, 204)" stroke-width="1px"></line><line x1="58" y1="118.66666666666669" x2="53" y2="118.66666666666669" style="visibility: inherit;" fill="rgb(0, 0, 0)" stroke="rgb(204, 204, 204)" stroke-width="1px"></line><line x1="58" y1="103.83333333333331" x2="53" y2="103.83333333333331" style="visibility: inherit;" fill="rgb(0, 0, 0)" stroke="rgb(204, 204, 204)" stroke-width="1px"></line><line x1="58" y1="89" x2="53" y2="89" style="visibility: inherit;" fill="rgb(0, 0, 0)" stroke="rgb(204, 204, 204)" stroke-width="1px"></line><line x1="58" y1="74.16666666666666" x2="53" y2="74.16666666666666" style="visibility: inherit;" fill="rgb(0, 0, 0)" stroke="rgb(204, 204, 204)" stroke-width="1px"></line><line x1="58" y1="59.33333333333332" x2="53" y2="59.33333333333332" style="visibility: inherit;" fill="rgb(0, 0, 0)" stroke="rgb(204, 204, 204)" stroke-width="1px"></line><line x1="58" y1="44.5" x2="53" y2="44.5" style="visibility: inherit;" fill="rgb(0, 0, 0)" stroke="rgb(204, 204, 204)" stroke-width="1px"></line><line x1="58" y1="29.66666666666666" x2="53" y2="29.66666666666666" style="visibility: inherit;" fill="rgb(0, 0, 0)" stroke="rgb(204, 204, 204)" stroke-width="1px"></line><line x1="58" y1="14.83333333333332" x2="53" y2="14.83333333333332" style="visibility: inherit;" fill="rgb(0, 0, 0)" stroke="rgb(204, 204, 204)" stroke-width="1px"></line><line x1="58" y1="0" x2="53" y2="0" style="visibility: inherit;" fill="rgb(0, 0, 0)" stroke="rgb(204, 204, 204)" stroke-width="1px"></line></g><g transform="translate(48, 0)"><text x="0" y="178" dx="0em" dy="0.3em" style="text-anchor: end; visibility: hidden; font-family: Roboto, sans-serif; font-size: 12px; font-weight: 200;" fill="rgb(50, 49, 63)" stroke="none" stroke-width="1px">-1.2</text><text x="0" y="163.16666666666669" dx="0em" dy="0.3em" style="text-anchor: end; visibility: inherit; font-family: Roboto, sans-serif; font-size: 12px; font-weight: 200;" fill="rgb(50, 49, 63)" stroke="none" stroke-width="1px">-1</text><text x="0" y="148.33333333333334" dx="0em" dy="0.3em" style="text-anchor: end; visibility: hidden; font-family: Roboto, sans-serif; font-size: 12px; font-weight: 200;" fill="rgb(50, 49, 63)" stroke="none" stroke-width="1px">-0.8</text><text x="0" y="133.5" dx="0em" dy="0.3em" style="text-anchor: end; visibility: inherit; font-family: Roboto, sans-serif; font-size: 12px; font-weight: 200;" fill="rgb(50, 49, 63)" stroke="none" stroke-width="1px">-0.6</text><text x="0" y="118.66666666666669" dx="0em" dy="0.3em" style="text-anchor: end; visibility: hidden; font-family: Roboto, sans-serif; font-size: 12px; font-weight: 200;" fill="rgb(50, 49, 63)" stroke="none" stroke-width="1px">-0.4</text><text x="0" y="103.83333333333331" dx="0em" dy="0.3em" style="text-anchor: end; visibility: inherit; font-family: Roboto, sans-serif; font-size: 12px; font-weight: 200;" fill="rgb(50, 49, 63)" stroke="none" stroke-width="1px">-0.2</text><text x="0" y="89" dx="0em" dy="0.3em" style="text-anchor: end; visibility: hidden; font-family: Roboto, sans-serif; font-size: 12px; font-weight: 200;" fill="rgb(50, 49, 63)" stroke="none" stroke-width="1px">0</text><text x="0" y="74.16666666666666" dx="0em" dy="0.3em" style="text-anchor: end; visibility: inherit; font-family: Roboto, sans-serif; font-size: 12px; font-weight: 200;" fill="rgb(50, 49, 63)" stroke="none" stroke-width="1px">0.2</text><text x="0" y="59.33333333333332" dx="0em" dy="0.3em" style="text-anchor: end; visibility: hidden; font-family: Roboto, sans-serif; font-size: 12px; font-weight: 200;" fill="rgb(50, 49, 63)" stroke="none" stroke-width="1px">0.4</text><text x="0" y="44.5" dx="0em" dy="0.3em" style="text-anchor: end; visibility: inherit; font-family: Roboto, sans-serif; font-size: 12px; font-weight: 200;" fill="rgb(50, 49, 63)" stroke="none" stroke-width="1px">0.6</text><text x="0" y="29.66666666666666" dx="0em" dy="0.3em" style="text-anchor: end; visibility: hidden; font-family: Roboto, sans-serif; font-size: 12px; font-weight: 200;" fill="rgb(50, 49, 63)" stroke="none" stroke-width="1px">0.8</text><text x="0" y="14.83333333333332" dx="0em" dy="0.3em" style="text-anchor: end; visibility: inherit; font-family: Roboto, sans-serif; font-size: 12px; font-weight: 200;" fill="rgb(50, 49, 63)" stroke="none" stroke-width="1px">1</text><text x="0" y="0" dx="0em" dy="0.3em" style="text-anchor: end; visibility: hidden; font-family: Roboto, sans-serif; font-size: 12px; font-weight: 200;" fill="rgb(50, 49, 63)" stroke="none" stroke-width="1px">1.2</text></g><line x1="58" y1="0" x2="58" y2="178" fill="rgb(0, 0, 0)" stroke="rgb(204, 204, 204)" stroke-width="1px"></line></g></g><g transform="translate(58, 0)" clip-path="url(#clip_0)"><clipPath id="clip_0"><rect width="271" height="177"></rect></clipPath><g><g><g><line x1="0" y1="0" x2="0" y2="178" fill="rgb(0, 0, 0)" stroke="rgb(60, 60, 60)" stroke-width="1px" opacity="0.25"></line><line x1="34" y1="0" x2="34" y2="178" fill="rgb(0, 0, 0)" stroke="rgb(60, 60, 60)" stroke-width="1px" opacity="0.25"></line><line x1="68" y1="0" x2="68" y2="178" fill="rgb(0, 0, 0)" stroke="rgb(60, 60, 60)" stroke-width="1px" opacity="0.25"></line><line x1="102" y1="0" x2="102" y2="178" fill="rgb(0, 0, 0)" stroke="rgb(60, 60, 60)" stroke-width="1px" opacity="0.25"></line><line x1="136" y1="0" x2="136" y2="178" fill="rgb(0, 0, 0)" stroke="rgb(60, 60, 60)" stroke-width="1px" opacity="0.25"></line><line x1="170" y1="0" x2="170" y2="178" fill="rgb(0, 0, 0)" stroke="rgb(60, 60, 60)" stroke-width="1px" opacity="0.25"></line><line x1="204" y1="0" x2="204" y2="178" fill="rgb(0, 0, 0)" stroke="rgb(60, 60, 60)" stroke-width="1px" opacity="0.25"></line><line x1="238" y1="0" x2="238" y2="178" fill="rgb(0, 0, 0)" stroke="rgb(60, 60, 60)" stroke-width="1px" opacity="0.25"></line><line x1="272" y1="0" x2="272" y2="178" fill="rgb(0, 0, 0)" stroke="rgb(60, 60, 60)" stroke-width="1px" opacity="0.25"></line></g><g><line x1="0" y1="178" x2="272" y2="178" fill="rgb(0, 0, 0)" stroke="rgb(60, 60, 60)" stroke-width="1px" opacity="0.25"></line><line x1="0" y1="163.16666666666669" x2="272" y2="163.16666666666669" fill="rgb(0, 0, 0)" stroke="rgb(60, 60, 60)" stroke-width="1px" opacity="0.25"></line><line x1="0" y1="148.33333333333334" x2="272" y2="148.33333333333334" fill="rgb(0, 0, 0)" stroke="rgb(60, 60, 60)" stroke-width="1px" opacity="0.25"></line><line x1="0" y1="133.5" x2="272" y2="133.5" fill="rgb(0, 0, 0)" stroke="rgb(60, 60, 60)" stroke-width="1px" opacity="0.25"></line><line x1="0" y1="118.66666666666669" x2="272" y2="118.66666666666669" fill="rgb(0, 0, 0)" stroke="rgb(60, 60, 60)" stroke-width="1px" opacity="0.25"></line><line x1="0" y1="103.83333333333331" x2="272" y2="103.83333333333331" fill="rgb(0, 0, 0)" stroke="rgb(60, 60, 60)" stroke-width="1px" opacity="0.25"></line><line x1="0" y1="89" x2="272" y2="89" fill="rgb(0, 0, 0)" stroke="rgb(60, 60, 60)" stroke-width="1px" opacity="0.25"></line><line x1="0" y1="74.16666666666666" x2="272" y2="74.16666666666666" fill="rgb(0, 0, 0)" stroke="rgb(60, 60, 60)" stroke-width="1px" opacity="0.25"></line><line x1="0" y1="59.33333333333332" x2="272" y2="59.33333333333332" fill="rgb(0, 0, 0)" stroke="rgb(60, 60, 60)" stroke-width="1px" opacity="0.25"></line><line x1="0" y1="44.5" x2="272" y2="44.5" fill="rgb(0, 0, 0)" stroke="rgb(60, 60, 60)" stroke-width="1px" opacity="0.25"></line><line x1="0" y1="29.66666666666666" x2="272" y2="29.66666666666666" fill="rgb(0, 0, 0)" stroke="rgb(60, 60, 60)" stroke-width="1px" opacity="0.25"></line><line x1="0" y1="14.83333333333332" x2="272" y2="14.83333333333332" fill="rgb(0, 0, 0)" stroke="rgb(60, 60, 60)" stroke-width="1px" opacity="0.25"></line><line x1="0" y1="0" x2="272" y2="0" fill="rgb(0, 0, 0)" stroke="rgb(60, 60, 60)" stroke-width="1px" opacity="0.25"></line></g></g></g><g><g><line x1="0" y1="89" x2="272" y2="89" fill="rgb(0, 0, 0)" stroke="rgb(153, 153, 153)" stroke-width="1.5px"></line></g></g><g><g><line x1="34" y1="0" x2="34" y2="178" fill="rgb(0, 0, 0)" stroke="rgb(153, 153, 153)" stroke-width="1.5px"></line></g></g><g><g><g><g><g><path stroke="rgb(255, 112, 67)" stroke-width="2px" d="M34.306,89L34.714,89L34.765,89L34.952,89L35.207,89L35.257999999999996,89L35.598,89L36.635,89L36.686,89L36.839,89L37.893,89L37.978,89L38.335,89L38.419999999999995,89L38.539,89L38.641000000000005,89L39.236,89L39.27,89L39.406,89L39.899,89L40.239,89L41.157,89L41.174,89L41.514,89L41.565,89L41.82,89L41.871,89L41.888,89L42.05800000000001,89L43.112,89L43.571000000000005,89L43.843,89L43.961999999999996,89L43.979000000000006,89L44.54,89L44.778,89L44.914,89L44.948,89L44.998999999999995,89L45.033,89L45.237,89L45.407,89L46.138,89L46.274,89L46.41,89L46.784,89L46.852,89L47.005,89L47.073,89L47.107,89L47.345,89L47.379,89L47.464,89L47.498,89L47.634,89L47.736,89L47.753,89L48.211999999999996,89L49.419,89L49.452999999999996,89L50.014,89L50.065,89L50.354000000000006,89L50.507000000000005,89L50.524,89L50.626000000000005,89L50.643,89L50.728,89L51.034,89L51.085,89L51.238,89L52.071000000000005,89L52.122,89L52.224000000000004,89L52.326,89L52.411,89L52.581,89L52.68300000000001,89L52.768,89L53.652,89L53.737,89L53.754,89L54.06,89L54.281,89L54.502,89L55.148,89L55.437000000000005,89L55.777,89L55.879,89L55.998,89L56.372,89L56.423,89L56.61,89L56.661,89L56.711999999999996,89L56.729000000000006,89L57.544999999999995,89L57.647,89L57.664,89L58.038000000000004,89L58.242000000000004,89L58.412,89L58.922000000000004,89L59.108999999999995,89L59.245,89L59.347,89L59.891000000000005,89L59.959,89L60.384,89L60.656,89L60.673,89L60.928000000000004,89L60.996,89L61.285,89L61.88,89L62.016000000000005,89L62.356,89L62.594,89L62.747,89L62.849000000000004,89L62.882999999999996,89L62.934,89L63.053000000000004,89L63.206,89L63.444,89L63.478,89L63.529,89L63.665,89L63.682,89L64.175,89L64.277,89L64.685,89L65.042,89L65.348,89L65.501,89L65.72200000000001,89L65.77300000000001,89L65.90899999999999,89L66.589,89L66.878,89L67.048,89L67.099,89L67.43900000000001,89L67.711,89L68.01700000000001,89L68.085,89L68.221,89L68.51,89L68.612,89L69.02,89L69.24100000000001,89L69.29199999999999,89L69.309,89L69.445,89L69.513,89L69.632,89L69.887,89L70.46499999999999,89L70.533,89L70.652,89L70.805,89L71.179,89L71.247,89L71.383,89L71.51899999999999,89L71.587,89L71.92699999999999,89L72.012,89L72.029,89L72.063,89L72.114,89L72.318,89L72.369,89L72.454,89L72.777,89L73.04899999999999,89L73.21900000000001,89L73.423,89L73.865,89L74.018,89L74.613,89L74.63,89L74.664,89L75.412,89L75.548,89L75.70100000000001,89L75.735,89L75.82,89L76.245,89L76.262,89L76.432,89L76.46600000000001,89L76.551,89L76.789,89L76.89099999999999,89L77.044,89L77.29899999999999,89L77.367,89L77.401,89L77.82600000000001,89L78.19999999999999,89L78.30199999999999,89L78.59100000000001,89L78.693,89L79.135,89L79.526,89L79.645,89L79.73,89L79.95100000000001,89L80.07,89L80.32499999999999,89L80.58,89L80.818,89L81.413,89L81.43,89L81.447,89L82.824,89L82.977,89L83.13,89L83.232,89L83.64,89L84.439,89L84.57499999999999,89L85.187,89L85.459,89L85.51,89L85.646,89L85.697,89L86.105,89L86.173,89L86.683,89L87.074,89L87.329,89L87.635,89L87.737,89L88.00899999999999,89L88.315,89L88.332,89L88.91000000000001,89L89.08,89L89.131,89L89.148,89L89.182,89L89.199,89L89.62400000000001,89L90.185,89L90.57600000000001,89L90.865,89L91.39200000000001,89L91.851,89L91.936,89L92.31,89L92.633,89L92.66699999999999,89L92.888,89L93.16000000000001,89L93.653,89L93.704,89L94.129,89L94.571,89L94.86,89L95.19999999999999,89L95.506,89L95.54,89L95.574,89L95.676,89L96.152,89L96.39,89L97.342,89L97.41000000000001,89L97.546,89L97.597,89L98.12400000000001,89L98.26,89L98.48100000000001,89L98.566,89L98.838,89L98.923,89L98.957,89L99.12700000000001,89L99.195,89L99.688,89L99.89200000000001,89L100.776,89L100.895,89L100.963,89L101.15,89L101.25200000000001,89L101.354,89L101.728,89L102.153,89L102.17,89L102.37400000000001,89L102.561,89L102.612,89L103.581,89L103.666,89L103.683,89L103.853,89L105.09400000000001,89L105.28099999999999,89L105.298,89L105.332,89L105.41699999999999,89L105.434,89L105.85900000000001,89L105.944,89L105.995,89L106.131,89L106.471,89L106.522,89L106.539,89L106.794,89L107.066,89L107.168,89L107.38900000000001,89L107.423,89L107.64399999999999,89L107.831,89L108.273,89L108.426,89L108.681,89L108.80000000000001,89L108.902,89L108.97,89L109.31,89L109.36099999999999,89L110.07499999999999,89L110.364,89L110.653,89L110.67,89L111.01,89L111.061,89L111.214,89L111.401,89L111.82600000000001,89L111.87700000000001,89L112.115,89L112.149,89L112.183,89L112.676,89L113.152,89L113.288,89L113.35600000000001,89L113.492,89L113.679,89L114.121,89L114.206,89L114.478,89L114.75,89L114.886,89L115.039,89L115.192,89L115.379,89L115.396,89L115.49799999999999,89L115.6,89L115.63399999999999,89L115.685,89L116.28,89L116.48400000000001,89L116.807,89L117.19800000000001,89L117.538,89L117.946,89L118.21799999999999,89L118.354,89L118.507,89L118.558,89L118.592,89L119.459,89L119.51,89L119.85,89L119.88399999999999,89L119.901,89L120.02,89L120.32600000000001,89L120.80199999999999,89L121.14200000000001,89L121.176,89L121.278,89L121.72,89L121.805,89L122.09400000000001,89L122.4,89L122.536,89L123.063,89L123.522,89L123.913,89L124.40599999999999,89L124.59299999999999,89L124.865,89L125.103,89L125.46,89L126.14,89L126.51400000000001,89L126.599,89L127.228,89L127.415,89L127.51700000000001,89L127.755,89L127.789,89L128.333,89L128.741,89L128.945,89L128.97899999999998,89L129.081,89L129.285,89L129.71,89L130.186,89L130.22,89L130.28799999999998,89L130.543,89L131.24,89L131.291,89L131.59699999999998,89L131.90300000000002,89L132.192,89L132.243,89L132.41299999999998,89L132.719,89L132.736,89L133.025,89L133.076,89L133.654,89L133.688,89L133.80700000000002,89L134.266,89L134.419,89L134.776,89L135.184,89L135.269,89L135.371,89L135.83,89L136.17,89L136.255,89L136.51,89L136.595,89L137.02,89L137.326,89L137.394,89L137.47899999999998,89L137.751,89L137.785,89L138.05700000000002,89L138.09099999999998,89L138.19299999999998,89L138.227,89L138.261,89L138.465,89L138.533,89L138.924,89L139.077,89L139.39999999999998,89L139.58700000000002,89L139.62099999999998,89L139.72299999999998,89L139.944,89L140.25,89L140.91299999999998,89L141.304,89L141.372,89L141.389,89L141.508,89L141.797,89L141.984,89L142.171,89L142.29,89L142.392,89L142.8,89L143.735,89L143.803,89L144.024,89L144.415,89L144.43200000000002,89L144.5,89L144.84,89L144.85700000000003,89L144.874,89L145.01,89L145.35000000000002,89L145.758,89L145.87699999999998,89L145.928,89L146.251,89L147.169,89L147.322,89L147.356,89L147.424,89L147.526,89L147.577,89L147.696,89L147.832,89L147.883,89L148.08700000000002,89L148.546,89L148.614,89L148.801,89L148.988,89L150.144,89L150.382,89L150.51799999999997,89L150.756,89L150.773,89L151.215,89L151.453,89L151.878,89L152.37099999999998,89L152.422,89L152.864,89L153.17,89L153.238,89L153.66299999999998,89L153.78199999999998,89L154.105,89L154.547,89L154.802,89L154.93800000000002,89L154.955,89L155.329,89L155.397,89L155.635,89L155.839,89L155.97500000000002,89L156.315,89L156.46800000000002,89L156.62099999999998,89L156.655,89L156.672,89L156.995,89L157.046,89L157.199,89L157.828,89L158.10000000000002,89L158.287,89L158.59300000000002,89L158.763,89L158.78,89L159.001,89L159.086,89L159.103,89L159.494,89L159.56199999999998,89L159.817,89L160.327,89L160.48,89L160.531,89L160.64999999999998,89L160.82000000000002,89L160.87099999999998,89L160.956,89L161.126,89L161.53400000000002,89L161.68699999999998,89L162.01,89L162.299,89L163.132,89L163.353,89L163.404,89L163.931,89L163.948,89L164.237,89L164.40699999999998,89L164.492,89L164.679,89L164.781,89L164.89999999999998,89L165.206,89L165.29100000000003,89L165.376,89L165.68200000000002,89L165.869,89L165.92,89L166.26,89L166.39600000000002,89L166.566,89L166.77,89L167.161,89L167.24599999999998,89L168.283,89L168.3,89L168.368,89L168.844,89L169.575,89L169.711,89L169.84699999999998,89L169.864,89L170.442,89L170.62900000000002,89L170.833,89L170.884,89L171.122,89L172.142,89L172.55,89L173.06,89L173.128,89L173.366,89L173.655,89L173.757,89L174.471,89L174.743,89L174.92999999999998,89L175.083,89L175.219,89L175.559,89L175.59300000000002,89L175.644,89L175.678,89L175.78,89L175.984,89L176.12,89L176.171,89L176.256,89L176.375,89L176.40900000000002,89L177.276,89L177.463,89L177.599,89L177.93900000000002,89L177.956,89L177.99,89L178.228,89L178.296,89L178.449,89L178.46599999999998,89L178.551,89L178.619,89L178.636,89L178.891,89L179.418,89L179.622,89L179.741,89L179.826,89L180.06400000000002,89L180.217,89L180.47199999999998,89L180.65900000000002,89L180.77800000000002,89L180.795,89L180.948,89L181.594,89L181.73,89L181.747,89L181.815,89L182.359,89L183.158,89L183.226,89L183.53199999999998,89L183.617,89L183.923,89L183.974,89L184.331,89L184.51799999999997,89L184.926,89L185.045,89L185.33399999999997,89L185.368,89L185.419,89L185.776,89L185.81,89L185.895,89L186.082,89L186.286,89L186.575,89L186.881,89L186.983,89L187.06799999999998,89L187.15300000000002,89L187.45899999999997,89L187.476,89L187.935,89L188.071,89L188.241,89L188.428,89L188.785,89L189.09099999999998,89L189.635,89L189.65200000000002,89L189.75400000000002,89L190.638,89L190.672,89L190.842,89L190.961,89L191.42,89L191.77700000000002,89L191.947,89L192.219,89L192.253,89L192.372,89L192.91600000000003,89L193.001,89L193.18800000000002,89L193.273,89L194.00400000000002,89L194.05499999999998,89L194.395,89L194.497,89L194.514,89L194.956,89L195.075,89L196.12900000000002,89L196.14600000000002,89L196.299,89L196.418,89L196.469,89L196.588,89L196.639,89L197.013,89L197.2,89L197.387,89L197.55700000000002,89L197.59099999999998,89L197.608,89L197.65900000000002,89L198.067,89L198.169,89L198.237,89L198.56,89L198.73,89L198.866,89L199.07000000000002,89L199.75,89L199.90300000000002,89L199.92,89L200.056,89L200.20899999999997,89L200.804,89L201.28,89L201.331,89L202.011,89L202.419,89L202.589,89L203.524,89L203.745,89L203.93200000000002,89L204.238,89L204.85000000000002,89L204.935,89L204.952,89L204.986,89L205.224,89L205.428,89L205.59799999999998,89L205.819,89L205.904,89L205.921,89L206.176,89L206.27800000000002,89L206.448,89L206.856,89L207.145,89L207.519,89L208.046,89L208.165,89L208.21599999999998,89L208.352,89L208.624,89L208.692,89L208.77700000000002,89L208.81099999999998,89L208.845,89L208.89600000000002,89L209.491,89L209.61,89L209.882,89L210.22199999999998,89L210.698,89L210.73200000000003,89L210.749,89L210.783,89L210.885,89L211.03799999999998,89L211.14,89L211.22500000000002,89L211.71800000000002,89L211.956,89L212.14299999999997,89L212.31300000000002,89L212.381,89L212.398,89L212.874,89L213.02700000000002,89L213.16299999999998,89L213.418,89L213.435,89L213.639,89L214.16600000000003,89L214.319,89L214.54,89L214.59099999999998,89L214.608,89L214.69299999999998,89L214.846,89L214.98200000000003,89L215.101,89L215.118,89L215.40699999999998,89L215.917,89L216.08700000000002,89L216.71599999999998,89L216.869,89L216.886,89L216.988,89L217.26,89L217.37900000000002,89L217.855,89L217.872,89L218.02499999999998,89L218.11,89L218.297,89L218.45,89L218.68800000000002,89L218.875,89L219.33399999999997,89L219.385,89L219.53799999999998,89L219.963,89L220.031,89L220.184,89L220.422,89L220.524,89L220.558,89L221.136,89L221.238,89L221.34,89L221.374,89L221.391,89L221.56099999999998,89L221.64600000000002,89L221.884,89L222.037,89L222.309,89L222.734,89L223.05700000000002,89L223.21,89L223.516,89L223.822,89L223.97500000000002,89L224.366,89L224.39999999999998,89L224.417,89L225.28400000000002,89L225.42,89L225.471,89L225.624,89L225.91299999999998,89L226.27,89L226.52499999999998,89L226.797,89L227.137,89L227.256,89L227.375,89L227.46,89L227.987,89L228.12300000000002,89L228.15699999999998,89L228.735,89L228.786,89L229.024,89L229.058,89L229.075,89L229.262,89L229.364,89L229.84,89L229.891,89L229.908,89L230.01,89L230.044,89L230.333,89L230.469,89L230.622,89L230.87699999999998,89L231.149,89L231.81199999999998,89L232.016,89L232.05,89L232.22,89L232.40699999999998,89L232.526,89L232.645,89L232.679,89L232.96800000000002,89L233.29100000000003,89L233.90300000000002,89L234.073,89L234.362,89L234.464,89L234.617,89L235.12699999999998,89L235.51799999999997,89L235.535,89L235.84099999999998,89L236.317,89L236.40200000000002,89L236.62300000000002,89L236.64,89L236.861,89L236.997,89L237.082,89L237.116,89L237.133,89L237.47299999999998,89L237.558,89L237.796,89L237.96599999999998,89L238.051,89L238.17,89L238.425,89L238.493,89L238.697,89L239.292,89L239.44500000000002,89L239.53,89L240.261,89L240.346,89L240.499,89L240.601,89L240.78799999999998,89L240.856,89L241.128,89L241.349,89L241.68900000000002,89L241.842,89L241.978,89L242.31799999999998,89L242.59,89L242.92999999999998,89L242.981,89L243.253,89L243.491,89L243.52499999999998,89L243.71200000000002,89L244.73200000000003,89L244.885,89L244.90200000000002,89L245.412,89L245.735,89L245.786,89L246.16,89L246.908,89L247.265,89L247.367,89L247.401,89L247.758,89L248.132,89L248.625,89L249.169,89L249.40699999999998,89L249.679,89L249.883,89L250.886,89L251.158,89L251.685,89L251.821,89L252.178,89L252.603,89L252.68800000000002,89L252.90900000000002,89L253.13,89L253.23200000000003,89L253.946,89L253.963,89L254.048,89L254.133,89L254.303,89L254.81300000000002,89L255.03400000000002,89L255.289,89L255.578,89L256.037,89L256.054,89L256.19,89L256.394,89L256.445,89L256.598,89L256.853,89L256.921,89L256.955,89L257.21000000000004,89L257.516,89L257.822,89L258.077,89L258.247,89L258.298,89L258.502,89L258.519,89L258.587,89L259.063,89L259.505,89L260.066,89L260.151,89L260.321,89L260.933,89L261.018,89L261.834,89L261.902,89L262.242,89L263.058,89L263.075,89L263.432,89" style="fill: none;" fill="none"></path></g></g></g></g><g opacity="0.2"><g><g><g><path stroke="rgb(255, 112, 67)" stroke-width="2px" d="M34.306,89L34.714,89L34.765,89L34.952,89L35.207,89L35.257999999999996,89L35.598,89L36.635,89L36.686,89L36.839,89L37.893,89L37.978,89L38.335,89L38.419999999999995,89L38.539,89L38.641000000000005,89L39.236,89L39.27,89L39.406,89L39.899,89L40.239,89L41.157,89L41.174,89L41.514,89L41.565,89L41.82,89L41.871,89L41.888,89L42.05800000000001,89L43.112,89L43.571000000000005,89L43.843,89L43.961999999999996,89L43.979000000000006,89L44.54,89L44.778,89L44.914,89L44.948,89L44.998999999999995,89L45.033,89L45.237,89L45.407,89L46.138,89L46.274,89L46.41,89L46.784,89L46.852,89L47.005,89L47.073,89L47.107,89L47.345,89L47.379,89L47.464,89L47.498,89L47.634,89L47.736,89L47.753,89L48.211999999999996,89L49.419,89L49.452999999999996,89L50.014,89L50.065,89L50.354000000000006,89L50.507000000000005,89L50.524,89L50.626000000000005,89L50.643,89L50.728,89L51.034,89L51.085,89L51.238,89L52.071000000000005,89L52.122,89L52.224000000000004,89L52.326,89L52.411,89L52.581,89L52.68300000000001,89L52.768,89L53.652,89L53.737,89L53.754,89L54.06,89L54.281,89L54.502,89L55.148,89L55.437000000000005,89L55.777,89L55.879,89L55.998,89L56.372,89L56.423,89L56.61,89L56.661,89L56.711999999999996,89L56.729000000000006,89L57.544999999999995,89L57.647,89L57.664,89L58.038000000000004,89L58.242000000000004,89L58.412,89L58.922000000000004,89L59.108999999999995,89L59.245,89L59.347,89L59.891000000000005,89L59.959,89L60.384,89L60.656,89L60.673,89L60.928000000000004,89L60.996,89L61.285,89L61.88,89L62.016000000000005,89L62.356,89L62.594,89L62.747,89L62.849000000000004,89L62.882999999999996,89L62.934,89L63.053000000000004,89L63.206,89L63.444,89L63.478,89L63.529,89L63.665,89L63.682,89L64.175,89L64.277,89L64.685,89L65.042,89L65.348,89L65.501,89L65.72200000000001,89L65.77300000000001,89L65.90899999999999,89L66.589,89L66.878,89L67.048,89L67.099,89L67.43900000000001,89L67.711,89L68.01700000000001,89L68.085,89L68.221,89L68.51,89L68.612,89L69.02,89L69.24100000000001,89L69.29199999999999,89L69.309,89L69.445,89L69.513,89L69.632,89L69.887,89L70.46499999999999,89L70.533,89L70.652,89L70.805,89L71.179,89L71.247,89L71.383,89L71.51899999999999,89L71.587,89L71.92699999999999,89L72.012,89L72.029,89L72.063,89L72.114,89L72.318,89L72.369,89L72.454,89L72.777,89L73.04899999999999,89L73.21900000000001,89L73.423,89L73.865,89L74.018,89L74.613,89L74.63,89L74.664,89L75.412,89L75.548,89L75.70100000000001,89L75.735,89L75.82,89L76.245,89L76.262,89L76.432,89L76.46600000000001,89L76.551,89L76.789,89L76.89099999999999,89L77.044,89L77.29899999999999,89L77.367,89L77.401,89L77.82600000000001,89L78.19999999999999,89L78.30199999999999,89L78.59100000000001,89L78.693,89L79.135,89L79.526,89L79.645,89L79.73,89L79.95100000000001,89L80.07,89L80.32499999999999,89L80.58,89L80.818,89L81.413,89L81.43,89L81.447,89L82.824,89L82.977,89L83.13,89L83.232,89L83.64,89L84.439,89L84.57499999999999,89L85.187,89L85.459,89L85.51,89L85.646,89L85.697,89L86.105,89L86.173,89L86.683,89L87.074,89L87.329,89L87.635,89L87.737,89L88.00899999999999,89L88.315,89L88.332,89L88.91000000000001,89L89.08,89L89.131,89L89.148,89L89.182,89L89.199,89L89.62400000000001,89L90.185,89L90.57600000000001,89L90.865,89L91.39200000000001,89L91.851,89L91.936,89L92.31,89L92.633,89L92.66699999999999,89L92.888,89L93.16000000000001,89L93.653,89L93.704,89L94.129,89L94.571,89L94.86,89L95.19999999999999,89L95.506,89L95.54,89L95.574,89L95.676,89L96.152,89L96.39,89L97.342,89L97.41000000000001,89L97.546,89L97.597,89L98.12400000000001,89L98.26,89L98.48100000000001,89L98.566,89L98.838,89L98.923,89L98.957,89L99.12700000000001,89L99.195,89L99.688,89L99.89200000000001,89L100.776,89L100.895,89L100.963,89L101.15,89L101.25200000000001,89L101.354,89L101.728,89L102.153,89L102.17,89L102.37400000000001,89L102.561,89L102.612,89L103.581,89L103.666,89L103.683,89L103.853,89L105.09400000000001,89L105.28099999999999,89L105.298,89L105.332,89L105.41699999999999,89L105.434,89L105.85900000000001,89L105.944,89L105.995,89L106.131,89L106.471,89L106.522,89L106.539,89L106.794,89L107.066,89L107.168,89L107.38900000000001,89L107.423,89L107.64399999999999,89L107.831,89L108.273,89L108.426,89L108.681,89L108.80000000000001,89L108.902,89L108.97,89L109.31,89L109.36099999999999,89L110.07499999999999,89L110.364,89L110.653,89L110.67,89L111.01,89L111.061,89L111.214,89L111.401,89L111.82600000000001,89L111.87700000000001,89L112.115,89L112.149,89L112.183,89L112.676,89L113.152,89L113.288,89L113.35600000000001,89L113.492,89L113.679,89L114.121,89L114.206,89L114.478,89L114.75,89L114.886,89L115.039,89L115.192,89L115.379,89L115.396,89L115.49799999999999,89L115.6,89L115.63399999999999,89L115.685,89L116.28,89L116.48400000000001,89L116.807,89L117.19800000000001,89L117.538,89L117.946,89L118.21799999999999,89L118.354,89L118.507,89L118.558,89L118.592,89L119.459,89L119.51,89L119.85,89L119.88399999999999,89L119.901,89L120.02,89L120.32600000000001,89L120.80199999999999,89L121.14200000000001,89L121.176,89L121.278,89L121.72,89L121.805,89L122.09400000000001,89L122.4,89L122.536,89L123.063,89L123.522,89L123.913,89L124.40599999999999,89L124.59299999999999,89L124.865,89L125.103,89L125.46,89L126.14,89L126.51400000000001,89L126.599,89L127.228,89L127.415,89L127.51700000000001,89L127.755,89L127.789,89L128.333,89L128.741,89L128.945,89L128.97899999999998,89L129.081,89L129.285,89L129.71,89L130.186,89L130.22,89L130.28799999999998,89L130.543,89L131.24,89L131.291,89L131.59699999999998,89L131.90300000000002,89L132.192,89L132.243,89L132.41299999999998,89L132.719,89L132.736,89L133.025,89L133.076,89L133.654,89L133.688,89L133.80700000000002,89L134.266,89L134.419,89L134.776,89L135.184,89L135.269,89L135.371,89L135.83,89L136.17,89L136.255,89L136.51,89L136.595,89L137.02,89L137.326,89L137.394,89L137.47899999999998,89L137.751,89L137.785,89L138.05700000000002,89L138.09099999999998,89L138.19299999999998,89L138.227,89L138.261,89L138.465,89L138.533,89L138.924,89L139.077,89L139.39999999999998,89L139.58700000000002,89L139.62099999999998,89L139.72299999999998,89L139.944,89L140.25,89L140.91299999999998,89L141.304,89L141.372,89L141.389,89L141.508,89L141.797,89L141.984,89L142.171,89L142.29,89L142.392,89L142.8,89L143.735,89L143.803,89L144.024,89L144.415,89L144.43200000000002,89L144.5,89L144.84,89L144.85700000000003,89L144.874,89L145.01,89L145.35000000000002,89L145.758,89L145.87699999999998,89L145.928,89L146.251,89L147.169,89L147.322,89L147.356,89L147.424,89L147.526,89L147.577,89L147.696,89L147.832,89L147.883,89L148.08700000000002,89L148.546,89L148.614,89L148.801,89L148.988,89L150.144,89L150.382,89L150.51799999999997,89L150.756,89L150.773,89L151.215,89L151.453,89L151.878,89L152.37099999999998,89L152.422,89L152.864,89L153.17,89L153.238,89L153.66299999999998,89L153.78199999999998,89L154.105,89L154.547,89L154.802,89L154.93800000000002,89L154.955,89L155.329,89L155.397,89L155.635,89L155.839,89L155.97500000000002,89L156.315,89L156.46800000000002,89L156.62099999999998,89L156.655,89L156.672,89L156.995,89L157.046,89L157.199,89L157.828,89L158.10000000000002,89L158.287,89L158.59300000000002,89L158.763,89L158.78,89L159.001,89L159.086,89L159.103,89L159.494,89L159.56199999999998,89L159.817,89L160.327,89L160.48,89L160.531,89L160.64999999999998,89L160.82000000000002,89L160.87099999999998,89L160.956,89L161.126,89L161.53400000000002,89L161.68699999999998,89L162.01,89L162.299,89L163.132,89L163.353,89L163.404,89L163.931,89L163.948,89L164.237,89L164.40699999999998,89L164.492,89L164.679,89L164.781,89L164.89999999999998,89L165.206,89L165.29100000000003,89L165.376,89L165.68200000000002,89L165.869,89L165.92,89L166.26,89L166.39600000000002,89L166.566,89L166.77,89L167.161,89L167.24599999999998,89L168.283,89L168.3,89L168.368,89L168.844,89L169.575,89L169.711,89L169.84699999999998,89L169.864,89L170.442,89L170.62900000000002,89L170.833,89L170.884,89L171.122,89L172.142,89L172.55,89L173.06,89L173.128,89L173.366,89L173.655,89L173.757,89L174.471,89L174.743,89L174.92999999999998,89L175.083,89L175.219,89L175.559,89L175.59300000000002,89L175.644,89L175.678,89L175.78,89L175.984,89L176.12,89L176.171,89L176.256,89L176.375,89L176.40900000000002,89L177.276,89L177.463,89L177.599,89L177.93900000000002,89L177.956,89L177.99,89L178.228,89L178.296,89L178.449,89L178.46599999999998,89L178.551,89L178.619,89L178.636,89L178.891,89L179.418,89L179.622,89L179.741,89L179.826,89L180.06400000000002,89L180.217,89L180.47199999999998,89L180.65900000000002,89L180.77800000000002,89L180.795,89L180.948,89L181.594,89L181.73,89L181.747,89L181.815,89L182.359,89L183.158,89L183.226,89L183.53199999999998,89L183.617,89L183.923,89L183.974,89L184.331,89L184.51799999999997,89L184.926,89L185.045,89L185.33399999999997,89L185.368,89L185.419,89L185.776,89L185.81,89L185.895,89L186.082,89L186.286,89L186.575,89L186.881,89L186.983,89L187.06799999999998,89L187.15300000000002,89L187.45899999999997,89L187.476,89L187.935,89L188.071,89L188.241,89L188.428,89L188.785,89L189.09099999999998,89L189.635,89L189.65200000000002,89L189.75400000000002,89L190.638,89L190.672,89L190.842,89L190.961,89L191.42,89L191.77700000000002,89L191.947,89L192.219,89L192.253,89L192.372,89L192.91600000000003,89L193.001,89L193.18800000000002,89L193.273,89L194.00400000000002,89L194.05499999999998,89L194.395,89L194.497,89L194.514,89L194.956,89L195.075,89L196.12900000000002,89L196.14600000000002,89L196.299,89L196.418,89L196.469,89L196.588,89L196.639,89L197.013,89L197.2,89L197.387,89L197.55700000000002,89L197.59099999999998,89L197.608,89L197.65900000000002,89L198.067,89L198.169,89L198.237,89L198.56,89L198.73,89L198.866,89L199.07000000000002,89L199.75,89L199.90300000000002,89L199.92,89L200.056,89L200.20899999999997,89L200.804,89L201.28,89L201.331,89L202.011,89L202.419,89L202.589,89L203.524,89L203.745,89L203.93200000000002,89L204.238,89L204.85000000000002,89L204.935,89L204.952,89L204.986,89L205.224,89L205.428,89L205.59799999999998,89L205.819,89L205.904,89L205.921,89L206.176,89L206.27800000000002,89L206.448,89L206.856,89L207.145,89L207.519,89L208.046,89L208.165,89L208.21599999999998,89L208.352,89L208.624,89L208.692,89L208.77700000000002,89L208.81099999999998,89L208.845,89L208.89600000000002,89L209.491,89L209.61,89L209.882,89L210.22199999999998,89L210.698,89L210.73200000000003,89L210.749,89L210.783,89L210.885,89L211.03799999999998,89L211.14,89L211.22500000000002,89L211.71800000000002,89L211.956,89L212.14299999999997,89L212.31300000000002,89L212.381,89L212.398,89L212.874,89L213.02700000000002,89L213.16299999999998,89L213.418,89L213.435,89L213.639,89L214.16600000000003,89L214.319,89L214.54,89L214.59099999999998,89L214.608,89L214.69299999999998,89L214.846,89L214.98200000000003,89L215.101,89L215.118,89L215.40699999999998,89L215.917,89L216.08700000000002,89L216.71599999999998,89L216.869,89L216.886,89L216.988,89L217.26,89L217.37900000000002,89L217.855,89L217.872,89L218.02499999999998,89L218.11,89L218.297,89L218.45,89L218.68800000000002,89L218.875,89L219.33399999999997,89L219.385,89L219.53799999999998,89L219.963,89L220.031,89L220.184,89L220.422,89L220.524,89L220.558,89L221.136,89L221.238,89L221.34,89L221.374,89L221.391,89L221.56099999999998,89L221.64600000000002,89L221.884,89L222.037,89L222.309,89L222.734,89L223.05700000000002,89L223.21,89L223.516,89L223.822,89L223.97500000000002,89L224.366,89L224.39999999999998,89L224.417,89L225.28400000000002,89L225.42,89L225.471,89L225.624,89L225.91299999999998,89L226.27,89L226.52499999999998,89L226.797,89L227.137,89L227.256,89L227.375,89L227.46,89L227.987,89L228.12300000000002,89L228.15699999999998,89L228.735,89L228.786,89L229.024,89L229.058,89L229.075,89L229.262,89L229.364,89L229.84,89L229.891,89L229.908,89L230.01,89L230.044,89L230.333,89L230.469,89L230.622,89L230.87699999999998,89L231.149,89L231.81199999999998,89L232.016,89L232.05,89L232.22,89L232.40699999999998,89L232.526,89L232.645,89L232.679,89L232.96800000000002,89L233.29100000000003,89L233.90300000000002,89L234.073,89L234.362,89L234.464,89L234.617,89L235.12699999999998,89L235.51799999999997,89L235.535,89L235.84099999999998,89L236.317,89L236.40200000000002,89L236.62300000000002,89L236.64,89L236.861,89L236.997,89L237.082,89L237.116,89L237.133,89L237.47299999999998,89L237.558,89L237.796,89L237.96599999999998,89L238.051,89L238.17,89L238.425,89L238.493,89L238.697,89L239.292,89L239.44500000000002,89L239.53,89L240.261,89L240.346,89L240.499,89L240.601,89L240.78799999999998,89L240.856,89L241.128,89L241.349,89L241.68900000000002,89L241.842,89L241.978,89L242.31799999999998,89L242.59,89L242.92999999999998,89L242.981,89L243.253,89L243.491,89L243.52499999999998,89L243.71200000000002,89L244.73200000000003,89L244.885,89L244.90200000000002,89L245.412,89L245.735,89L245.786,89L246.16,89L246.908,89L247.265,89L247.367,89L247.401,89L247.758,89L248.132,89L248.625,89L249.169,89L249.40699999999998,89L249.679,89L249.883,89L250.886,89L251.158,89L251.685,89L251.821,89L252.178,89L252.603,89L252.68800000000002,89L252.90900000000002,89L253.13,89L253.23200000000003,89L253.946,89L253.963,89L254.048,89L254.133,89L254.303,89L254.81300000000002,89L255.03400000000002,89L255.289,89L255.578,89L256.037,89L256.054,89L256.19,89L256.394,89L256.445,89L256.598,89L256.853,89L256.921,89L256.955,89L257.21000000000004,89L257.516,89L257.822,89L258.077,89L258.247,89L258.298,89L258.502,89L258.519,89L258.587,89L259.063,89L259.505,89L260.066,89L260.151,89L260.321,89L260.933,89L261.018,89L261.834,89L261.902,89L262.242,89L263.058,89L263.075,89L263.432,89" style="fill: none;" fill="none"></path></g></g></g></g></g></g><g transform="translate(58, 178)" clip-path="url(#clip_1)"><clipPath id="clip_1"><rect width="271" height="21"></rect></clipPath><g><g><line x1="0" y1="0" x2="0" y2="5" style="visibility: inherit;" fill="rgb(0, 0, 0)" stroke="rgb(204, 204, 204)" stroke-width="1px"></line><line x1="34" y1="0" x2="34" y2="5" style="visibility: inherit;" fill="rgb(0, 0, 0)" stroke="rgb(204, 204, 204)" stroke-width="1px"></line><line x1="68" y1="0" x2="68" y2="5" style="visibility: inherit;" fill="rgb(0, 0, 0)" stroke="rgb(204, 204, 204)" stroke-width="1px"></line><line x1="102" y1="0" x2="102" y2="5" style="visibility: inherit;" fill="rgb(0, 0, 0)" stroke="rgb(204, 204, 204)" stroke-width="1px"></line><line x1="136" y1="0" x2="136" y2="5" style="visibility: inherit;" fill="rgb(0, 0, 0)" stroke="rgb(204, 204, 204)" stroke-width="1px"></line><line x1="170" y1="0" x2="170" y2="5" style="visibility: inherit;" fill="rgb(0, 0, 0)" stroke="rgb(204, 204, 204)" stroke-width="1px"></line><line x1="204" y1="0" x2="204" y2="5" style="visibility: inherit;" fill="rgb(0, 0, 0)" stroke="rgb(204, 204, 204)" stroke-width="1px"></line><line x1="238" y1="0" x2="238" y2="5" style="visibility: inherit;" fill="rgb(0, 0, 0)" stroke="rgb(204, 204, 204)" stroke-width="1px"></line><line x1="272" y1="0" x2="272" y2="5" style="visibility: inherit;" fill="rgb(0, 0, 0)" stroke="rgb(204, 204, 204)" stroke-width="1px"></line></g><g transform="translate(0, 8)"><text x="0" y="0" dx="0em" dy="0.95em" style="text-anchor: middle; visibility: hidden; font-family: Roboto, sans-serif; font-size: 12px; font-weight: 200;" fill="rgb(50, 49, 63)" stroke="none" stroke-width="1px">-2k</text><text x="34" y="0" dx="0em" dy="0.95em" style="text-anchor: middle; visibility: inherit; font-family: Roboto, sans-serif; font-size: 12px; font-weight: 200;" fill="rgb(50, 49, 63)" stroke="none" stroke-width="1px">0</text><text x="68" y="0" dx="0em" dy="0.95em" style="text-anchor: middle; visibility: inherit; font-family: Roboto, sans-serif; font-size: 12px; font-weight: 200;" fill="rgb(50, 49, 63)" stroke="none" stroke-width="1px">2k</text><text x="102" y="0" dx="0em" dy="0.95em" style="text-anchor: middle; visibility: inherit; font-family: Roboto, sans-serif; font-size: 12px; font-weight: 200;" fill="rgb(50, 49, 63)" stroke="none" stroke-width="1px">4k</text><text x="136" y="0" dx="0em" dy="0.95em" style="text-anchor: middle; visibility: inherit; font-family: Roboto, sans-serif; font-size: 12px; font-weight: 200;" fill="rgb(50, 49, 63)" stroke="none" stroke-width="1px">6k</text><text x="170" y="0" dx="0em" dy="0.95em" style="text-anchor: middle; visibility: inherit; font-family: Roboto, sans-serif; font-size: 12px; font-weight: 200;" fill="rgb(50, 49, 63)" stroke="none" stroke-width="1px">8k</text><text x="204" y="0" dx="0em" dy="0.95em" style="text-anchor: middle; visibility: inherit; font-family: Roboto, sans-serif; font-size: 12px; font-weight: 200;" fill="rgb(50, 49, 63)" stroke="none" stroke-width="1px">10k</text><text x="238" y="0" dx="0em" dy="0.95em" style="text-anchor: middle; visibility: inherit; font-family: Roboto, sans-serif; font-size: 12px; font-weight: 200;" fill="rgb(50, 49, 63)" stroke="none" stroke-width="1px">12k</text><text x="272" y="0" dx="0em" dy="0.95em" style="text-anchor: middle; visibility: hidden; font-family: Roboto, sans-serif; font-size: 12px; font-weight: 200;" fill="rgb(50, 49, 63)" stroke="none" stroke-width="1px">14k</text></g><line x1="0" y1="0" x2="272" y2="0" fill="rgb(0, 0, 0)" stroke="rgb(204, 204, 204)" stroke-width="1px"></line></g></g></g></g></svg>