<svg viewBox="0 0 330.0000305175781 200.00001525878906" xmlns="http://www.w3.org/2000/svg"><g><g><g><g><g><line x1="70" y1="178" x2="65" y2="178" style="visibility: inherit;" fill="rgb(0, 0, 0)" stroke="rgb(204, 204, 204)" stroke-width="1px"></line><line x1="70" y1="163.16666666666666" x2="65" y2="163.16666666666666" style="visibility: inherit;" fill="rgb(0, 0, 0)" stroke="rgb(204, 204, 204)" stroke-width="1px"></line><line x1="70" y1="148.33333333333331" x2="65" y2="148.33333333333331" style="visibility: inherit;" fill="rgb(0, 0, 0)" stroke="rgb(204, 204, 204)" stroke-width="1px"></line><line x1="70" y1="133.5" x2="65" y2="133.5" style="visibility: inherit;" fill="rgb(0, 0, 0)" stroke="rgb(204, 204, 204)" stroke-width="1px"></line><line x1="70" y1="118.66666666666666" x2="65" y2="118.66666666666666" style="visibility: inherit;" fill="rgb(0, 0, 0)" stroke="rgb(204, 204, 204)" stroke-width="1px"></line><line x1="70" y1="103.83333333333331" x2="65" y2="103.83333333333331" style="visibility: inherit;" fill="rgb(0, 0, 0)" stroke="rgb(204, 204, 204)" stroke-width="1px"></line><line x1="70" y1="88.99999999999999" x2="65" y2="88.99999999999999" style="visibility: inherit;" fill="rgb(0, 0, 0)" stroke="rgb(204, 204, 204)" stroke-width="1px"></line><line x1="70" y1="74.16666666666669" x2="65" y2="74.16666666666669" style="visibility: inherit;" fill="rgb(0, 0, 0)" stroke="rgb(204, 204, 204)" stroke-width="1px"></line><line x1="70" y1="59.33333333333332" x2="65" y2="59.33333333333332" style="visibility: inherit;" fill="rgb(0, 0, 0)" stroke="rgb(204, 204, 204)" stroke-width="1px"></line><line x1="70" y1="44.5" x2="65" y2="44.5" style="visibility: inherit;" fill="rgb(0, 0, 0)" stroke="rgb(204, 204, 204)" stroke-width="1px"></line><line x1="70" y1="29.66666666666668" x2="65" y2="29.66666666666668" style="visibility: inherit;" fill="rgb(0, 0, 0)" stroke="rgb(204, 204, 204)" stroke-width="1px"></line><line x1="70" y1="14.83333333333332" x2="65" y2="14.83333333333332" style="visibility: inherit;" fill="rgb(0, 0, 0)" stroke="rgb(204, 204, 204)" stroke-width="1px"></line><line x1="70" y1="0" x2="65" y2="0" style="visibility: inherit;" fill="rgb(0, 0, 0)" stroke="rgb(204, 204, 204)" stroke-width="1px"></line></g><g transform="translate(60, 0)"><text x="0" y="178" dx="0em" dy="0.3em" style="text-anchor: end; visibility: hidden; font-family: Roboto, sans-serif; font-size: 12px; font-weight: 200;" fill="rgb(50, 49, 63)" stroke="none" stroke-width="1px">-0.01</text><text x="0" y="163.16666666666666" dx="0em" dy="0.3em" style="text-anchor: end; visibility: inherit; font-family: Roboto, sans-serif; font-size: 12px; font-weight: 200;" fill="rgb(50, 49, 63)" stroke="none" stroke-width="1px">0</text><text x="0" y="148.33333333333331" dx="0em" dy="0.3em" style="text-anchor: end; visibility: hidden; font-family: Roboto, sans-serif; font-size: 12px; font-weight: 200;" fill="rgb(50, 49, 63)" stroke="none" stroke-width="1px">0.01</text><text x="0" y="133.5" dx="0em" dy="0.3em" style="text-anchor: end; visibility: inherit; font-family: Roboto, sans-serif; font-size: 12px; font-weight: 200;" fill="rgb(50, 49, 63)" stroke="none" stroke-width="1px">0.02</text><text x="0" y="118.66666666666666" dx="0em" dy="0.3em" style="text-anchor: end; visibility: hidden; font-family: Roboto, sans-serif; font-size: 12px; font-weight: 200;" fill="rgb(50, 49, 63)" stroke="none" stroke-width="1px">0.03</text><text x="0" y="103.83333333333331" dx="0em" dy="0.3em" style="text-anchor: end; visibility: inherit; font-family: Roboto, sans-serif; font-size: 12px; font-weight: 200;" fill="rgb(50, 49, 63)" stroke="none" stroke-width="1px">0.04</text><text x="0" y="88.99999999999999" dx="0em" dy="0.3em" style="text-anchor: end; visibility: hidden; font-family: Roboto, sans-serif; font-size: 12px; font-weight: 200;" fill="rgb(50, 49, 63)" stroke="none" stroke-width="1px">0.05</text><text x="0" y="74.16666666666669" dx="0em" dy="0.3em" style="text-anchor: end; visibility: inherit; font-family: Roboto, sans-serif; font-size: 12px; font-weight: 200;" fill="rgb(50, 49, 63)" stroke="none" stroke-width="1px">0.06</text><text x="0" y="59.33333333333332" dx="0em" dy="0.3em" style="text-anchor: end; visibility: hidden; font-family: Roboto, sans-serif; font-size: 12px; font-weight: 200;" fill="rgb(50, 49, 63)" stroke="none" stroke-width="1px">0.07</text><text x="0" y="44.5" dx="0em" dy="0.3em" style="text-anchor: end; visibility: inherit; font-family: Roboto, sans-serif; font-size: 12px; font-weight: 200;" fill="rgb(50, 49, 63)" stroke="none" stroke-width="1px">0.08</text><text x="0" y="29.66666666666668" dx="0em" dy="0.3em" style="text-anchor: end; visibility: hidden; font-family: Roboto, sans-serif; font-size: 12px; font-weight: 200;" fill="rgb(50, 49, 63)" stroke="none" stroke-width="1px">0.09</text><text x="0" y="14.83333333333332" dx="0em" dy="0.3em" style="text-anchor: end; visibility: inherit; font-family: Roboto, sans-serif; font-size: 12px; font-weight: 200;" fill="rgb(50, 49, 63)" stroke="none" stroke-width="1px">0.1</text><text x="0" y="0" dx="0em" dy="0.3em" style="text-anchor: end; visibility: hidden; font-family: Roboto, sans-serif; font-size: 12px; font-weight: 200;" fill="rgb(50, 49, 63)" stroke="none" stroke-width="1px">0.11</text></g><line x1="70" y1="0" x2="70" y2="178" fill="rgb(0, 0, 0)" stroke="rgb(204, 204, 204)" stroke-width="1px"></line></g></g><g transform="translate(70, 0)" clip-path="url(#clip_0)"><clipPath id="clip_0"><rect width="260" height="177"></rect></clipPath><g><g><g><line x1="0" y1="0" x2="0" y2="178" fill="rgb(0, 0, 0)" stroke="rgb(60, 60, 60)" stroke-width="1px" opacity="0.25"></line><line x1="32.5" y1="0" x2="32.5" y2="178" fill="rgb(0, 0, 0)" stroke="rgb(60, 60, 60)" stroke-width="1px" opacity="0.25"></line><line x1="65" y1="0" x2="65" y2="178" fill="rgb(0, 0, 0)" stroke="rgb(60, 60, 60)" stroke-width="1px" opacity="0.25"></line><line x1="97.5" y1="0" x2="97.5" y2="178" fill="rgb(0, 0, 0)" stroke="rgb(60, 60, 60)" stroke-width="1px" opacity="0.25"></line><line x1="130" y1="0" x2="130" y2="178" fill="rgb(0, 0, 0)" stroke="rgb(60, 60, 60)" stroke-width="1px" opacity="0.25"></line><line x1="162.5" y1="0" x2="162.5" y2="178" fill="rgb(0, 0, 0)" stroke="rgb(60, 60, 60)" stroke-width="1px" opacity="0.25"></line><line x1="195" y1="0" x2="195" y2="178" fill="rgb(0, 0, 0)" stroke="rgb(60, 60, 60)" stroke-width="1px" opacity="0.25"></line><line x1="227.5" y1="0" x2="227.5" y2="178" fill="rgb(0, 0, 0)" stroke="rgb(60, 60, 60)" stroke-width="1px" opacity="0.25"></line><line x1="260" y1="0" x2="260" y2="178" fill="rgb(0, 0, 0)" stroke="rgb(60, 60, 60)" stroke-width="1px" opacity="0.25"></line></g><g><line x1="0" y1="178" x2="260" y2="178" fill="rgb(0, 0, 0)" stroke="rgb(60, 60, 60)" stroke-width="1px" opacity="0.25"></line><line x1="0" y1="163.16666666666666" x2="260" y2="163.16666666666666" fill="rgb(0, 0, 0)" stroke="rgb(60, 60, 60)" stroke-width="1px" opacity="0.25"></line><line x1="0" y1="148.33333333333331" x2="260" y2="148.33333333333331" fill="rgb(0, 0, 0)" stroke="rgb(60, 60, 60)" stroke-width="1px" opacity="0.25"></line><line x1="0" y1="133.5" x2="260" y2="133.5" fill="rgb(0, 0, 0)" stroke="rgb(60, 60, 60)" stroke-width="1px" opacity="0.25"></line><line x1="0" y1="118.66666666666666" x2="260" y2="118.66666666666666" fill="rgb(0, 0, 0)" stroke="rgb(60, 60, 60)" stroke-width="1px" opacity="0.25"></line><line x1="0" y1="103.83333333333331" x2="260" y2="103.83333333333331" fill="rgb(0, 0, 0)" stroke="rgb(60, 60, 60)" stroke-width="1px" opacity="0.25"></line><line x1="0" y1="88.99999999999999" x2="260" y2="88.99999999999999" fill="rgb(0, 0, 0)" stroke="rgb(60, 60, 60)" stroke-width="1px" opacity="0.25"></line><line x1="0" y1="74.16666666666669" x2="260" y2="74.16666666666669" fill="rgb(0, 0, 0)" stroke="rgb(60, 60, 60)" stroke-width="1px" opacity="0.25"></line><line x1="0" y1="59.33333333333332" x2="260" y2="59.33333333333332" fill="rgb(0, 0, 0)" stroke="rgb(60, 60, 60)" stroke-width="1px" opacity="0.25"></line><line x1="0" y1="44.5" x2="260" y2="44.5" fill="rgb(0, 0, 0)" stroke="rgb(60, 60, 60)" stroke-width="1px" opacity="0.25"></line><line x1="0" y1="29.66666666666668" x2="260" y2="29.66666666666668" fill="rgb(0, 0, 0)" stroke="rgb(60, 60, 60)" stroke-width="1px" opacity="0.25"></line><line x1="0" y1="14.83333333333332" x2="260" y2="14.83333333333332" fill="rgb(0, 0, 0)" stroke="rgb(60, 60, 60)" stroke-width="1px" opacity="0.25"></line><line x1="0" y1="0" x2="260" y2="0" fill="rgb(0, 0, 0)" stroke="rgb(60, 60, 60)" stroke-width="1px" opacity="0.25"></line></g></g></g><g><g><line x1="0" y1="163.16666666666666" x2="260" y2="163.16666666666666" fill="rgb(0, 0, 0)" stroke="rgb(153, 153, 153)" stroke-width="1.5px"></line></g></g><g><g><line x1="32.5" y1="0" x2="32.5" y2="178" fill="rgb(0, 0, 0)" stroke="rgb(153, 153, 153)" stroke-width="1.5px"></line></g></g><g><g><g><g><g><path stroke="rgb(255, 112, 67)" stroke-width="2px" d="M37.5375,-11.134457234599079L37.667500000000004,3.1750987122959047L38.13875,3.141465021454355L38.46375,-3.6613961210755828L39.682500000000005,-2.775721740491168L39.731249999999996,6.847101674028271L39.975,0.054668512293366556L40.02375,5.374214199829478L40.04,7.304305293585367L40.2025,5.171312990296645L41.21,15.159938394523065L41.64875,24.848791562493417L41.908750000000005,24.212736342679143L42.0225,25.714551677536438L42.03875,27.182684610599473L42.575,18.446396429294666L42.802499999999995,13.089931498507077L42.9325,27.531707020615645L42.965,25.94583616363867L43.013749999999995,28.110390853487264L43.04625,30.989909819403913L43.24125,35.16697481611539L43.403749999999995,32.304084346799314L44.1025,25.49624961861355L44.2325,24.155068179339214L44.3625,23.724460511862862L44.72,30.65590776775269L44.785,43.771714876649675L44.93125,40.843346350885795L44.99625,45.350030326063106L45.028749999999995,30.337436586813176L45.25625,35.11157826393073L45.28875,34.03479903525161L45.37,41.334890011488085L45.4025,34.530936521758214L45.5325,23.81059997335364L45.629999999999995,25.803481299611605L45.64625,20.919350223304733L46.085,26.286406073944192L47.23875,36.55743232100221L47.271249999999995,31.32886099028924L47.807500000000005,33.173191825428134L47.856249999999996,31.898693819026278L48.1325,38.73395836925737L48.27875,47.45266645732521L48.295,38.10610644603673L48.392500000000005,44.57991237925185L48.408750000000005,39.25015138067195L48.49,41.01282215368955L48.7825,37.87276329131211L48.83125,40.29931860487706L48.9775,46.93845366953145L49.77375,51.81323698866785L49.8225,58.82472126031478L49.92,62.798697737728936L50.0175,62.19222867555538L50.09875,65.89549333729754L50.26125,60.81092319524855L50.35875,61.65679708868934L50.440000000000005,66.53379243125521L51.285000000000004,60.45304349282506L51.36625,59.29099153335108L51.3825,64.53223607914302L51.675000000000004,56.30021543165727L51.886250000000004,53.293455164240996L52.0975,58.135267362873954L52.715,54.59533300835264L52.99125,47.73112055145619L53.316250000000004,49.859514566483114L53.41375,51.89784133870976L53.5275,44.9955300679598L53.885,53.69101239678763L53.933749999999996,49.700041173917306L54.112500000000004,45.11005558511885L54.16125,52.22439971303421L54.21,49.91997544173153L54.22625,45.11506990185808L55.006249999999994,53.81545032186458L55.10375,48.360426133637304L55.12,54.48145516246579L55.4775,61.06064055749604L55.6725,63.24428936633953L55.835,65.68195059363232L56.322500000000005,59.41957842302932L56.50125,66.0531749220911L56.63125,54.19161374939457L56.728750000000005,57.248010871426956L57.24875,58.15864779903161L57.31375,58.59907175184203L57.72,64.516425451997L57.980000000000004,69.50956625577554L57.996249999999996,73.23989582458579L58.24,68.22002762868964L58.305,56.30717814875727L58.58125,52.91824733529752L59.15,48.36504000552798L59.28,47.24929244980494L59.605000000000004,54.1427993850411L59.832499999999996,58.25331896130011L59.97875,56.345215865443826L60.07625,60.71943805243239L60.10875,64.31908749492123L60.1575,66.93338281447889L60.27125,75.134364293052L60.4175,78.66523971701216L60.645,78.07101098153744L60.6775,70.11092538609316L60.72625,59.762981027322624L60.85625,61.222893425896196L60.8725,60.34027113379543L61.34375,59.375312710835544L61.441250000000004,59.94997765296941L61.831250000000004,63.258156900360625L62.1725,66.53415954799439L62.464999999999996,53.18058431531932L62.611250000000005,33.89063597424352L62.822500000000005,38.53362855519943L62.87125,46.987141208517485L63.00125,49.1856405085974L63.65125,45.650256466619744L63.9275,46.27258049698961L64.09,49.144130389527994L64.13875,54.09644092955894L64.46375,55.98148447860064L64.72375,58.20487345761112L65.01625,49.914628941719414L65.08125,42.541619466219935L65.21124999999999,47.97273713791969L65.4875,52.833274409810365L65.585,60.2973757995001L65.975,62.8826390215782L66.18625,70.38540337513069L66.235,74.07079466593865L66.25125,73.34779555309213L66.38125,59.017720953415L66.44625,61.09105470147399L66.56,63.52377879714364L66.80375,46.31732067743645L67.35624999999999,53.36162151979635L67.42125,60.35147499263061L67.535,55.04814401782064L67.68125,54.03220638356255L68.03875000000001,54.89410862082131L68.10374999999999,51.63583151266776L68.23375,58.828810171926406L68.36375,60.15004489468097L68.42875000000001,60.61636534951758L68.75375,57.91130972448847L68.835,57.50273425722542L68.85125000000001,62.382307960521594L68.88374999999999,57.09231476775207L68.9325,60.419619732887824L69.1275,62.13750020983215L69.17625,59.898651340165046L69.2575,60.05173698751642L69.56625,61.24479618618796L69.82625,56.4464503341197L69.98875000000001,54.95883949873335L70.18375,57.371056475632955L70.60625,54.57457694352026L70.7525,49.83777378776993L71.32125,50.97318052548483L71.33749999999999,44.58202959839947L71.37,50.837510753511L72.085,51.30182537112064L72.215,54.787498142653824L72.36125,58.848946371733206L72.39375,62.329933054624874L72.475,48.44370984606265L72.88125000000001,53.74649983709224L72.8975,49.22182470894918L73.06,54.332116461198886L73.0925,52.158509373838875L73.17375,48.70677200062321L73.40125,54.2528579921431L73.49875,52.50216125257414L73.645,47.816452506379704L73.88875,51.65225344758591L73.95375,57.68357233582971L73.98625,52.299849522275764L74.3925,55.33004870896412L74.75,60.013758091834724L74.8475,61.25095385417192L75.12375,70.11713133035491L75.22125,74.72715924496805L75.64375,79.09038389093476L76.0175,76.72490541627842L76.13125,73.49407995076983L76.2125,80.41107370124776L76.42375,78.65147331010753L76.5375,76.44932045173424L76.78125,71.16485141268201L77.025,68.71457746770581L77.2525,68.81469892892984L77.82124999999999,71.42101882654148L77.8375,71.3961552757182L77.85375,76.47061680947942L79.17,83.39870447170226L79.31625,85.65211929505425L79.46249999999999,90.23929705527257L79.56,93.22279678671963L79.95,98.18510275751629L80.71374999999999,87.80341147711518L80.84375,87.35728479469587L81.42875000000001,79.52138316329226L81.68875,78.15830280303322L81.7375,81.29666856146682L81.8675,62.71434224067536L81.91625,62.54380820369654L82.30625,66.47094143451726L82.37125,71.62372728571135L82.85875,70.13475309553068L83.2325,72.32412007772355L83.47625,65.22639737005541L83.76875,67.45461158908766L83.86625,73.5218828650555L84.12625,69.35973203910898L84.41875,76.42502655835531L84.435,71.5187843106197L84.98750000000001,76.08762783558058L85.15,76.60428316768349L85.19875,79.11200961362397L85.215,73.07834244715013L85.2475,74.26195844166537L85.26375,70.76755332584527L85.67,78.23954014040723L86.20625,79.01081398777521L86.58,80.49384587991104L86.85625,77.77674485730977L87.36,73.82954690046569L87.79875,77.91264748220851L87.88000000000001,81.0391883053553L88.2375,85.81916763891739L88.54625,88.40152360210475L88.57875,92.94028115970174L88.79,90.09642656476733L89.05000000000001,90.35949169743404L89.52125000000001,90.49602360411023L89.57,90.04703459585816L89.97625,88.6074416001677L90.39874999999999,86.8390512239449L90.675,89.2453100330521L91,93.64533395081716L91.2925,97.28167510451676L91.325,101.09487769807319L91.3575,100.06061609262593L91.455,95.99103418992613L91.91,92.47270029639974L92.1375,70.19291185407812L93.0475,63.15836941859853L93.11250000000001,67.9805099069652L93.2425,76.12384179932644L93.29124999999999,81.79717163625058L93.795,85.48393225478179L93.925,86.91094284506028L94.13625,88.81750477603372L94.2175,90.60700209017803L94.4775,90.47335963441515L94.55875,92.50682184392477L94.59125,95.49006445844859L94.75375000000001,87.25777246232605L94.81875,89.30204626230623L95.28999999999999,91.7047261988365L95.485,92.24177702821487L96.33,96.18080226892249L96.44375,98.62048725046353L96.50875,95.61070253383963L96.6875,101.20983242999095L96.78500000000001,99.2253808866889L96.8825,102.39365548447842L97.24,103.19664976274446L97.64625000000001,99.47243062206019L97.6625,102.91324220230811L97.8575,104.37720466534373L98.03625000000001,98.31986984006609L98.085,103.84504319761304L99.01125,103.40667393834089L99.0925,105.42831556352608L99.10875,97.60973343369713L99.27125,100.16106074408314L100.45750000000001,102.77590164884988L100.63624999999999,107.32267957768653L100.6525,107.610494545923L100.685,93.76441106264146L100.76625,96.46279152130504L100.7825,99.74807290006063L101.18875,93.60960948359507L101.27000000000001,87.3148506532349L101.31875000000001,91.28150134411595L101.44875,91.47204012661606L101.77374999999999,93.57751852935046L101.8225,94.41275017608147L101.83875,94.69364652369465L102.0825,96.5946874896749L102.3425,97.9139103076913L102.44,98.8508606753103L102.65125,102.52971006172073L102.68375,105.61174473527527L102.895,106.99618121611186L103.07375,104.6993096703231L103.49625,107.32555201419153L103.6425,103.24549370597958L103.88624999999999,95.13371581218682L104,95.64666375611067L104.0975,100.66924625619707L104.16250000000001,101.88233378143124L104.4875,104.29422365377256L104.53625,103.74128249138514L105.21875,106.31594408864702L105.495,108.53740698504879L105.77125000000001,108.41561440544912L105.7875,109.11756790604028L106.1125,114.5224777821029L106.16125000000001,114.78171274321697L106.30749999999999,117.58297951495081L106.48625,119.88980155695616L106.8925,121.33503234084172L106.94125000000001,107.5914796518897L107.16875,111.00655193662679L107.20125,109.28568440062234L107.23375,108.48470105771412L107.705,109.77143427893292L108.16,109.35373970069777L108.28999999999999,108.79442718156638L108.355,111.86725325535353L108.485,112.40553766698197L108.66375000000001,109.79553739815452L109.08625,109.89910489748468L109.1675,112.52347392216319L109.4275,111.2721829865127L109.6875,113.37786403791354L109.8175,116.25748693933457L109.96375,115.0754007015758L110.11,114.86588649180727L110.28875,109.991495836819L110.305,105.62831975781948L110.40249999999999,108.06980520996083L110.5,110.37755296614137L110.5325,98.78372732587387L110.58125,98.90082607601043L111.14999999999999,104.41120973691902L111.345,105.81093407391512L111.65375,108.97476198595865L112.0275,106.82920236378803L112.35249999999999,110.18192186383807L112.74249999999999,112.1070749065336L113.0025,115.32717099012937L113.1325,114.6187068680903L113.27875,118.37581787658061L113.3275,118.35749799273503L113.36,121.24337420877946L114.18875,123.88827764773539L114.2375,125.52670124507947L114.5625,125.33699826800131L114.595,122.91044121894211L114.61125,123.31786219375009L114.725,119.51242912274607L115.0175,121.13897081914848L115.4725,123.2693184908651L115.7975,123.09866251106367L115.83,123.81843146234525L115.92750000000001,124.87158807039057L116.35000000000001,119.94754821189063L116.43125,121.58014484944478L116.70750000000001,124.24406487508149L117,125.08563601200458L117.13000000000001,126.02303102540185L117.63374999999999,125.12723657076049L118.0725,125.897169202949L118.44624999999999,127.32184872810727L118.91749999999999,128.01639694205141L119.09625,127.77799436259365L119.35625,129.3172170226379L119.58375,122.6187749151531L119.925,115.14086000519283L120.575,117.50556615797242L120.9325,118.78323786384665L121.01375,119.1684284070792L121.615,121.84720540996103L121.79375,123.37645729926864L121.89125,124.6092539847431L122.11874999999999,127.38220202553856L122.15125,125.68530831625789L122.67125,126.63924753319877L123.06125,125.6103568036009L123.25625,125.06366118456266L123.28875,122.56226824322152L123.38625,115.88032615024771L123.58125000000001,111.76622475614184L123.9875,113.19241081649592L124.44250000000001,114.73812639963705L124.47500000000001,116.89485501375667L124.53999999999999,114.28225895677191L124.78375,116.61762842881446L125.45,118.14105338914185L125.49875,116.78930113222887L125.79124999999999,119.29101962521445L126.08375000000001,119.75187387709612L126.36,119.13030679405048L126.40875,119.27312882733627L126.57124999999999,121.74691035355683L126.86375000000001,119.21957071130473L126.88,120.65412923300761L127.15625,123.06494538778115L127.205,117.40492677901827L127.75750000000001,121.52402955054049L127.78999999999999,121.44046670703017L127.90375,122.56042355181904L128.3425,124.73637075585792L128.48875,125.34749998464089L128.83,128.16406757311285L129.22,122.3186012358331L129.30125,122.87521203826142L129.39875,124.60534145134929L129.8375,124.9185471522651L130.1625,127.36553826546248L130.24375,118.60235385253051L130.48749999999998,116.22643084167059L130.56875,116.88476044900473L130.975,118.79334344437251L131.26749999999998,115.83160715523836L131.3325,118.48588666501024L131.41375,121.6924354210038L131.67374999999998,125.06380406437044L131.70625,123.15969174554897L131.96625,121.32369923771282L131.99875,123.09817591756853L132.09625,123.60604799817247L132.12875,124.38406965983134L132.16125,126.05492743792134L132.35625,122.93623812047441L132.42125,122.0732969740333L132.79500000000002,123.11742269812738L132.94125,122.64647987447029L133.25,120.70122301122208L133.42875,120.99564355288044L133.46124999999998,123.09052128562513L133.55875,124.69288342604803L133.76999999999998,121.54625874230057L134.0625,123.84276050860097L134.69625,126.85069821870918L135.07,124.49085647351478L135.13500000000002,121.69829954642297L135.15125,119.59762990568497L135.265,123.10967339156791L135.54125,123.10247120617184L135.72,126.06098337292067L135.89875,129.19776229557226L136.0125,130.52681672030084L136.10999999999999,128.76980247704245L136.5,131.34148445427792L137.39375,122.30654996315974L137.45874999999998,125.24433905885671L137.67,127.9234932882942L138.04375,129.79119628746278L138.06,130.26816083586286L138.125,129.8262337944057L138.45,130.1741434739065L138.46625,131.8857803609648L138.48250000000002,134.61123569326892L138.61249999999998,136.2687250922428L138.9375,137.9406790415099L139.3275,135.20396424548682L139.44125,134.04268179506235L139.48999999999998,134.09859852396602L139.79874999999998,134.28260349581976L140.67625,134.60947015300695L140.82250000000002,129.72685406330996L140.855,132.30841310767602L140.92000000000002,132.60151890445198L141.0175,130.47080424726605L141.06625,129.9354920905882L141.18,128.92470244937624L141.31,129.59493484185276L141.35875,131.23712001650307L141.55375,132.23143122685846L141.9925,133.83317189759123L142.0575,133.70192819534736L142.23625,135.2787689902916L142.415,135.67337794785016L143.52,136.30759580244253L143.7475,134.2875587282446L143.8775,131.94898889030813L144.10500000000002,127.71138795375049L144.12125,127.24241927631994L144.54375,127.08563565816947L144.77125,128.48246155973098L145.17749999999998,131.1887898166104L145.64874999999998,132.64310444180782L145.6975,134.35375441536212L146.12,133.97576387606475L146.4125,135.72373233121309L146.4775,137.47007397887984L146.88375,138.08779469829145L146.9975,137.33623490786758L147.30625,136.86935741057582L147.72875,136.94508206387886L147.9725,137.34643331051097L148.10250000000002,137.9042673673327L148.11875,135.09935717155395L148.47625,136.8320110888692L148.54125,135.15551718846172L148.76874999999998,135.47383607636084L148.96375,135.6248624553449L149.09375,137.8513321978003L149.41875000000002,138.1545641388183L149.565,138.61406251295077L149.71124999999998,135.94113275238178L149.74375,137.3570224698183L149.76,133.28222099346095L150.06875,134.2166956951167L150.1175,135.5762503378417L150.26375,135.29244603982005L150.865,137.20313993660997L151.125,138.77862727634908L151.30375,140.36894662193728L151.59625,139.64287736066723L151.75875000000002,137.75598043221922L151.775,137.07482583340825L151.98624999999998,136.39497146472473L152.0675,137.97997813088074L152.08375,136.29326004158594L152.45749999999998,136.78566509295527L152.52249999999998,136.94206662367407L152.76624999999999,137.536807023501L153.25375,137.57426251169446L153.4,138.50184593959912L153.44875,139.7718015199809L153.5625,137.54835335411806L153.72500000000002,138.75558539143066L153.77374999999998,138.77399021928284L153.855,139.21971148056585L154.01749999999998,138.52078018955905L154.4075,140.47288242042328L154.55374999999998,141.53505137033005L154.86249999999998,141.46570511914854L155.13875000000002,142.54224735688354L155.935,142.73136227072095L156.14625,141.45579641204807L156.195,138.5450004143274L156.69875000000002,139.289049882564L156.715,140.1685133116799L156.99124999999998,140.45369065725524L157.15375,140.5229227844635L157.235,139.7364600377414L157.41375,138.85769457289777L157.51125,139.49777215783578L157.625,139.34789153457487L157.9175,140.84919516847754L157.99875,136.67714455893238L158.07999999999998,137.47196102015465L158.3725,137.5001715081191L158.55124999999998,137.21662436440891L158.6,138.2796805478759L158.92499999999998,137.22751845343558L159.055,138.12221603505347L159.2175,139.97148176325513L159.4125,138.78167611026603L159.78625,139.15048840912635L159.86749999999998,137.92846667861153L160.85875,132.4760726050604L160.875,134.5462517448539L160.94,135.9481039811494L161.395,132.29220857147274L162.09375,131.58489010998616L162.22375,133.46124111741392L162.35375,133.7790106161599L162.37,133.87328030198796L162.92249999999999,132.06704960541907L163.10125000000002,133.75540476465508L163.29625,133.5858861933833L163.345,130.48122619590333L163.57250000000002,131.80770182387087L164.54749999999999,132.30550052087455L164.9375,131.99011000866545L165.42499999999998,130.36884767797955L165.48999999999998,132.81540378178042L165.7175,132.9406246968398L165.99375,133.49848909246032L166.09125,133.66961770043167L166.77375,132.14256129445488L167.03375,133.48857920279025L167.21249999999998,133.04317680156655L167.35875,133.75991559429252L167.48875,132.47050322133256L167.81375,133.1656182319836L167.84625,134.95482620284702L167.895,135.04104850358934L167.92749999999998,134.93135744072947L168.025,136.6724264795436L168.22,137.71436522440294L168.35,138.23190076861593L168.39875,138.71775829970767L168.48000000000002,139.45204423063186L168.59375,138.20965208832294L168.62625,138.19658545145373L169.455,140.042009216107L169.63375,138.71143028701482L169.76375,138.6697811177236L170.08875,139.99653903909285L170.105,141.78839972860848L170.13750000000002,140.2088182111334L170.365,137.74603348953286L170.43,136.7675560228227L170.57625,138.73107271216597L170.5925,134.21757933537222L170.67375,131.4825675374374L170.73874999999998,133.15175899701762L170.755,134.23420368237993L170.99875,136.86643703369938L171.5025,136.55292017265936L171.69750000000002,135.91763788441125L171.81125,137.23779689129563L171.89249999999998,135.6565135423912L172.12,137.75309875567666L172.26625,139.73026881930278L172.51,141.07754363427898L172.68875,142.6486668583744L172.8025,142.21898068137904L172.81875,141.35082063894117L172.965,142.53142100899623L173.5825,142.9477950784319L173.7125,137.36632249951145L173.72875000000002,137.28787676498098L173.79375000000002,137.1233671449554L174.31375,136.4742721782266L175.0775,134.31775273030252L175.1425,135.94893436810102L175.435,136.8229507483557L175.51625,138.52748442724484L175.80875,138.09096526448056L175.8575,138.8358185817521L176.19875,139.89149035952977L176.3775,140.12071875723194L176.7675,140.7566684729635L176.88125,142.74020720443917L177.1575,143.06485134572648L177.19,138.54362949023422L177.23875,138.42132921403447L177.58,139.789221418373L177.61249999999998,140.6137923770025L177.69375,140.2446703712729L177.8725,138.43579364809182L178.0675,138.88048304772383L178.34375,140.66859907038912L178.63625000000002,141.65773778914277L178.73375000000001,140.16649693867046L178.815,140.63855202827287L178.89625,140.9968173595775L179.18875,136.06507224323929L179.205,136.18153712038517L179.64374999999998,136.0263265434244L179.77375,138.07184327599953L179.93625,140.0686963205311L180.11499999999998,140.84498411838422L180.45625,141.66839452641L180.74875,142.93176062344122L181.26874999999998,144.01808769908794L181.285,143.12891407476388L181.38250000000002,142.36731664041548L182.22750000000002,142.2374981961388L182.26,142.13204705201733L182.4225,142.48336410339755L182.53625,143.09591334850313L182.975,143.7711091837451L183.31625,144.10868657943342L183.47875000000002,143.55637801386476L183.73875,144.9849662133461L183.77124999999998,146.4645057411215L183.88500000000002,142.74783082873614L184.405,143.52613618418715L184.48624999999998,145.2586549191798L184.66500000000002,144.28919895350563L184.74625,145.00689660601233L185.44500000000002,144.5463177830172L185.49374999999998,144.66015860395365L185.81875,145.06460234384795L185.91625000000002,144.7937058951701L185.9325,145.23546236664015L186.355,145.6674331633395L186.46875,146.56065602142553L187.47625000000002,145.39216170308535L187.4925,142.29729582903576L187.63875000000002,143.61372658948366L187.7525,144.5287417882121L187.80125,144.78403169372106L187.915,144.12137628607536L187.96375,144.15464248724356L188.32125000000002,145.3266363468537L188.5,142.82501879126752L188.67875,143.80723300612797L188.84125,143.9080778572276L188.87375,144.44790587233834L188.89000000000001,143.02377513005436L188.93875,144.4646351967715L189.32874999999999,146.07396490702723L189.42625,145.57151761182126L189.49124999999998,145.09321508798925L189.79999999999998,141.64851759716407L189.9625,141.69446664375644L190.0925,142.38848510033463L190.28750000000002,142.95972796685413L190.9375,143.57854836686178L191.08375,143.564858450153L191.1,143.9406970752206L191.23000000000002,144.97199165349915L191.37625,145.52426066763095L191.945,146.09143116998376L192.4,146.91768603412368L192.44875,147.35840220972153L193.09875,148.21428473879226L193.48875,147.88167653859054L193.65125,147.78460846194233L194.545,148.500295369029L194.75625,146.77522880733503L194.935,146.29868301976916L195.2275,147.2814776660877L195.8125,147.10391864659286L195.89374999999998,147.7366416630269L195.91,148.61204569389756L195.9425,149.42097730515204L196.17,146.47482989251637L196.36499999999998,146.01650268950087L196.5275,146.34543945578207L196.73874999999998,145.72123101049385L196.82,146.4948537845721L196.83625,147.15192041353671L197.08,148.24720145688119L197.1775,146.7847346675455L197.34,146.13989837016697L197.73,146.74872944899084L198.00625,147.79142572887653L198.36375,147.99389047726612L198.8675,147.47286677049257L198.98125,147.5777396071627L199.03,146.36681131251723L199.16,146.8590663993012L199.42000000000002,147.74174689203858L199.48499999999999,147.92461174526883L199.56625,148.6946844140109L199.59875,148.6210437558815L199.63125,149.3510249022099L199.68,149.56688341395133L200.24875,149.0550258719694L200.3625,149.82484747620492L200.6225,149.99125844512741L200.9475,150.37359188854126L201.4025,150.67695240227863L201.435,150.91230971946578L201.45125000000002,150.37231374247207L201.48375,150.64579734176522L201.58124999999998,151.2149089604739L201.7275,151.2455961342515L201.825,150.2389309805905L201.90625,150.02507358617314L202.3775,146.79240605850075L202.605,146.77982766101408L202.78375,147.472645790467L202.94625000000002,146.241114146988L203.01125000000002,146.3694415627493L203.0275,147.32607836081002L203.48250000000002,145.23461324471307L203.62875,144.2833300042725L203.75875,144.0542670246431L204.0025,144.9461475180347L204.01874999999998,146.01991026206773L204.21375,147.17009615140472L204.7175,147.7853934817434L204.86374999999998,148.48938531256005L205.075,149.51582999083433L205.12375,149.2170404286209L205.14000000000001,149.189226407376L205.22125,149.16796545531386L205.3675,149.3395713802942L205.4975,146.0981369707079L205.61125,146.78401146531425L205.6275,146.2790771194328L205.90375,144.99766221853358L206.39125,145.224241914449L206.55375,146.9150809968602L207.155,148.37540782212787L207.30124999999998,148.93363412790117L207.3175,149.2360483416019L207.415,149.6580832863016L207.67499999999998,145.6100777661052L207.78875000000002,146.75141419264523L208.24375,147.33398333633752L208.26000000000002,146.33066555410952L208.40625,145.84664625135858L208.4875,147.09724459428793L208.66625,148.047990434375L208.8125,147.91468180835835L209.04000000000002,147.5582433697684L209.21875,146.2309270216915L209.6575,147.24978356765L209.70624999999998,145.71763166907587L209.8525,146.40405953754575L210.25875,147.56432101796142L210.32375,148.8507502820104L210.47,149.09516999685852L210.6975,149.3554405608046L210.795,148.38844002206534L210.82750000000001,144.4166052401311L211.38,143.92393364141108L211.4775,145.16968173311278L211.575,142.61684052321823L211.60750000000002,143.22272411901417L211.62375,144.79926388743564L211.78625,145.8617108407591L211.8675,143.51136351301537L212.095,143.83591169721723L212.24125,144.18337750635948L212.50125,144.7223765887411L212.9075,145.66765658160867L213.21625,144.30568830088515L213.3625,144.42233551702566L213.655,143.11183023535213L213.94750000000002,143.51507429144976L214.09375,144.81205968063057L214.4675,145.940367204208L214.5,146.36546038026157L214.51625,144.36652604581008L215.345,145.42456728636705L215.475,146.3407579196248L215.52375,145.53734166455547L215.67000000000002,146.45112805833097L215.94625,145.06049883830258L216.2875,145.87671674783965L216.53125,146.729960543626L216.79125,147.97147732852486L217.11625,148.6418898729307L217.23000000000002,148.98381757960124L217.34375,147.9036519793457L217.425,147.3987782550114L217.92874999999998,148.105674679655L218.05875,148.36441097255334L218.09125,149.6484634723541L218.64375,150.065547836891L218.6925,149.18806630200552L218.92,149.45468572859357L218.95250000000001,149.4799735088617L218.96875,149.27679318728778L219.1475,149.49228908985563L219.245,150.19350334699192L219.7,151.0931842677987L219.74875,151.7980449042657L219.765,150.29747709187322L219.86249999999998,150.62424748263962L219.895,151.4800162714346L220.17125,152.2111648929826L220.30125,152.64561340857324L220.44750000000002,152.59173677240335L220.69125,152.88536702654832L220.95125,152.69314539326592L221.58499999999998,150.0755870687865L221.78,147.57809522158033L221.8125,146.33757084548984L221.975,147.21560340330836L222.15375,146.00373652376484L222.2675,145.03355406304675L222.38125,145.15214681411715L222.41375,143.71169803496636L222.69,145.14238631304522L222.99875,146.3747025311927L223.58375,144.41838959222994L223.74625,145.63981452461323L224.02249999999998,146.72319316085915L224.12,147.0965970194098L224.26625,147.4891655960114L224.75375,147.37089874549088L225.1275,147.4652602719942L225.14375,146.49207029980036L225.43625,147.3385216516003L225.89124999999999,148.57430337754778L225.9725,149.68386892594748L226.18375,149.25747173322804L226.2,150.46093585450194L226.41125,151.1034432065151L226.54125000000002,150.643608213762L226.6225,151.2184400715998L226.655,151.1689686045884L226.67125,151.37103639321452L226.99625,151.77455675085866L227.07750000000001,151.46772175451053L227.305,150.5812329662635L227.4675,150.82819345943776L227.54875,150.82382729598515L227.6625,149.616750462639L227.90625,149.86126567318058L227.97125,150.46541429113836L228.16625000000002,151.59376664688125L228.735,152.40426044863716L228.88125000000002,152.57828866393146L228.9625,153.13080261038692L229.66125,153.80663139731442L229.7425,154.02044184347295L229.88875000000002,153.90862548481698L229.98625,154.49638738096093L230.165,154.6658179821998L230.23,155.3078775293597L230.48999999999998,155.42064207284614L230.70125,154.54862023470372L231.02625,154.4620400111607L231.1725,153.46756458646635L231.3025,152.9901729196178L231.6275,152.60306405577865L231.8875,150.12455970742727L232.21249999999998,150.39180869140804L232.26125,151.2226476444314L232.52124999999998,151.41192583266982L232.74875,151.26812681117835L232.78125,151.78250136384875L232.96,152.19401306152776L233.935,152.39552849392237L234.08124999999998,152.13818390169865L234.0975,152.5070840315815L234.585,152.94500937560494L234.89375,152.97819998865936L234.9425,153.1943590419248L235.3,153.2541465987779L236.015,153.61296821681935L236.35625,153.65062088764287L236.45375,153.7805107701574L236.48625,153.80801112260707L236.8275,154.29341395867402L237.185,153.57988925488326L237.65625,154.1014220531695L238.17625,154.32624884570106L238.40375,155.05372469019596L238.66375,155.20104875874432L238.85875,154.9586634006671L239.8175,152.68443666795042L240.0775,153.02370237273334L240.58124999999998,153.44742670649535L240.71125,154.11137340672138L241.05249999999998,153.81247662727128L241.45875,154.19703714375814L241.54000000000002,154.23602430732404L241.75125,153.9039435497445L241.9625,153.75245592110429L242.06,152.57807455673085L242.7425,152.16901868661583L242.75875,152.9397659727415L242.84,153.18333492291544L242.92125,153.5815139752633L243.08374999999998,153.6211818272552L243.57125000000002,153.40773404465L243.7825,153.7794620413598L244.02625,154.10927184797725L244.3025,154.0499750130714L244.74125,154.2712396392792L244.7575,154.98419315144605L244.88750000000002,155.2401233077749L245.0825,155.01370979944335L245.13125000000002,154.80057761646327L245.2775,155.073762499081L245.52125,155.45035275727705L245.58625,155.83868810351743L245.61875,155.68630386926304L245.8625,155.61581573246733L246.155,155.87509155426605L246.44750000000002,153.43157943128313L246.69125,153.7637055481214L246.85375000000002,154.00043924958283L246.9025,154.45115939946854L247.0975,154.3492475830485L247.11375,155.0012556718803L247.17875,154.95384270661222L247.63375000000002,155.22499920436758L248.05625,155.49451013297767L248.5925,155.85133430211457L248.67375,155.2599338361506L248.83625,155.65139615083692L249.42125000000001,148.9596754420843L249.5025,149.3175575513409L250.2825,149.29929006406564L250.3475,150.1374282032395L250.6725,151.09640535611712L251.45250000000001,151.33479590977402L251.46875,151.93700852674647L251.81,152.6297848854224" style="fill: none;" fill="none"></path></g></g></g></g><g opacity="0.2"><g><g><g><path stroke="rgb(255, 112, 67)" stroke-width="2px" d="M33.65375,-423.77291655540466L33.7025,24.69811788698038L34.027499999999996,41.985587418079376L35.01875,134.45798365026712L35.067499999999995,40.02374585966268L35.21375,126.51963434120017L36.221250000000005,104.84646560251713L36.3025,-119.15545747677487L36.64375,-47.31716623902325L36.724999999999994,109.41262793044248L36.83875,-34.212508906920775L36.93625,38.9121001114448L37.504999999999995,156.32257879028717L37.5375,-93.04109897216163L37.667500000000004,112.63101400434971L38.13875,2.8796525200208096L38.46375,-57.44352450966839L39.3575,-55.053772389888806L39.682500000000005,53.270074864228576L39.731249999999996,86.54430683950582L39.975,-56.68858325481419L40.02375,50.15682356059551L40.04,23.665016531944275L40.2025,-13.0209509134293L41.21,100.82327302793661L41.64875,108.35197470088798L41.908750000000005,18.706640616059303L42.0225,38.76678137977919L42.03875,39.98755156000456L42.575,-57.993368417024655L42.802499999999995,-33.91152705748878L42.9325,154.57953591768938L42.965,11.962388222416248L43.013749999999995,47.23589384555817L43.04625,56.479962185025215L43.24125,72.20489340772232L43.403749999999995,6.880830119053516L44.1025,-35.04070079326634L44.2325,12.214499478538837L44.3625,19.886574784914647L44.72,92.49445629864931L44.785,160.88673713516133L44.93125,14.674352496862411L44.99625,85.65211459000903L45.028749999999995,-104.00219173232716L45.25625,77.85740968088311L45.28875,24.38873674968878L45.37,106.76143692433834L45.4025,-26.47457655270897L45.5325,-72.34618202845257L45.629999999999995,43.684829662243516L45.64625,-22.917433937390673L46.085,74.47083891928196L47.23875,128.79158921167254L47.271249999999995,-15.63432302077614L47.807500000000005,49.742340808113426L47.856249999999996,20.446763078371678L48.1325,100.16179595390955L48.27875,125.8182440722982L48.295,-45.91375575462978L48.392500000000005,102.78234061102071L48.408750000000005,-8.671888073285448L48.49,56.86322390039763L48.7825,9.634094576040898L48.83125,62.12311214705309L48.9775,106.65322978297868L49.77375,95.66154593229294L49.8225,121.89605293422937L49.92,98.54814908405143L50.0175,56.7362509816885L50.09875,99.21254380544025L50.26125,15.06502989927927L50.35875,69.26738062500954L50.440000000000005,110.41491163522005L51.285000000000004,5.7395879328250885L51.36625,48.83480880657831L51.3825,111.69416185716787L51.675000000000004,-17.7748594284058L51.886250000000004,26.236922681331635L52.0975,101.7053308735291L52.715,22.7400339047114L52.99125,-14.039618755380326L53.316250000000004,69.01305902997655L53.41375,70.241057018439L53.5275,-17.12001337111L53.885,131.94439176718393L53.933749999999996,13.783762743075695L54.112500000000004,3.8027342557907104L54.16125,116.24994111806154L54.21,29.181193575263023L54.22625,1.8728652497132685L55.006249999999994,132.1157040844361L55.10375,-0.7330027570326991L55.12,109.56890994310379L55.4775,120.27156158909202L55.6725,82.8966066390276L55.835,87.62037718296051L56.322500000000005,3.0594414869944186L56.50125,125.75438738117614L56.63125,-52.56057640910153L56.728750000000005,84.75515353431305L57.24875,66.35426445802054L57.31375,62.562836969892174L57.72,117.77199983224273L57.980000000000004,114.44737105568248L57.996249999999996,106.8125510116418L58.24,23.041590442260112L58.305,-50.9076628684998L58.58125,22.418075939019527L59.15,7.386423041423169L59.28,37.207619364062936L59.605000000000004,116.18405644098917L59.832499999999996,95.2478312725822L59.97875,39.17235646645227L60.07625,100.08729648093382L60.10875,96.71582785993814L60.1575,90.46197230865556L60.27125,148.94300453923643L60.4175,110.44304372370243L60.645,72.7229636932413L60.6775,-1.5297083655993275L60.72625,-33.36835837364201L60.85625,74.362084719042L60.8725,52.39668154716492L61.34375,50.690697769323975L61.441250000000004,65.12195630868277L61.831250000000004,93.03173995514709L62.1725,96.01815648625293L62.464999999999996,-67.00149412949882L62.611250000000005,-139.71877084175748L62.822500000000005,80.32053400079411L62.87125,123.06870956222215L63.00125,68.97212355335554L63.65125,13.831815510988235L63.9275,51.87349432706833L64.09,74.98806927601498L64.13875,98.66722004115582L64.46375,72.94687102486691L64.72375,78.21536854157847L65.01625,-24.6975524822871L65.08125,-23.81545042991642L65.21124999999999,96.85278598467508L65.4875,96.57810164242983L65.585,127.47427695368725L65.975,86.15000448127586L66.18625,137.91027331352234L66.235,107.2393121967713L66.25125,66.84080425898236L66.38125,-69.95293757319455L66.44625,79.75105675806603L66.56,85.41829388837019L66.80375,-108.54079113403958L67.35624999999999,116.76032495001951L67.42125,123.26015254110098L67.535,7.3181677758693695L67.68125,44.88876811166605L68.03875000000001,62.6512284229199L68.10374999999999,22.311338673035298L68.23375,123.56561585267383L68.36375,72.04115702708563L68.42875000000001,64.81324932475886L68.75375,33.56580971678099L68.835,53.82555513580641L68.85125000000001,106.29847038785616L68.88374999999999,9.482376913229619L68.9325,90.36536392072836L69.1275,77.59842427074909L69.17625,39.749011784791946L69.2575,61.429507796963065L69.56625,71.9823288569848L69.82625,13.261338089903202L69.98875000000001,41.570342098673194L70.18375,79.08100909491381L70.60625,29.40626133481661L70.7525,7.2065456608931155L71.32125,61.19184110562006L71.33749999999999,-12.938328444957772L71.37,107.13684088488418L72.085,55.48065691192946L72.215,86.15855296701193L72.36125,95.40198030819494L72.39375,93.65881310403347L72.475,-76.53229868412022L72.88125000000001,101.47160963714123L72.8975,8.499748647212982L73.06,100.32474213838577L73.0925,32.59604562322298L73.17375,17.641135692596436L73.40125,104.16763184219599L73.49875,36.745890617370605L73.645,5.645073841015491L73.88875,86.17446188131967L73.95375,111.96544227749109L73.98625,3.8463442424933048L74.3925,82.60184136778116L74.75,102.16714250793058L74.8475,72.38571570813656L75.12375,149.91272857040167L75.22125,116.21741045514742L75.64375,118.35940568645793L76.0175,55.43559915324053L76.13125,44.41665077209473L76.2125,142.66401743454236L76.42375,62.815069794654846L76.5375,56.629944731791824L76.78125,23.604630072911586L77.025,46.66211196780205L77.2525,69.7157920797666L77.82124999999999,94.87789790083963L77.8375,71.17238331834477L77.85375,122.1407706066966L79.17,145.75149342355627L79.31625,105.93285270283619L79.46249999999999,131.52389689286548L79.56,120.07429436718422L79.95,142.8458564908554L80.71374999999999,-5.631810039281845L80.84375,83.3421446532011L81.42875000000001,8.998268485069275L81.68875,65.89057956139246L81.7375,109.54196038593847L81.8675,-104.5265946388245L81.91625,61.00900187095007L82.30625,101.81514051059881L82.37125,117.99879994491735L82.85875,56.73398538430533L83.2325,92.02842291692892L83.47625,1.3468930025895502L83.76875,87.50853955994049L83.86625,128.1273243476947L84.12625,31.900374606251717L84.41875,140.01267723056176L84.435,27.362604081630707L84.98750000000001,117.2072195596993L85.15,81.25418115655583L85.19875,101.68154762685299L85.215,18.77533794939518L85.2475,84.91450239221257L85.26375,39.31790728370348L85.67,145.48742147100467L86.20625,85.95227861404419L86.58,93.84113290905952L86.85625,53.32283565402031L87.36,38.304765289028495L87.79875,114.6605527177453L87.88000000000001,109.17805571357408L88.2375,128.83898164083558L88.54625,111.64272727072239L88.57875,133.7890991779665L88.79,64.5017352104187L89.05000000000001,92.72707789142925L89.52125000000001,91.72481076419353L89.57,86.00613352159658L89.97625,75.65110463897389L90.39874999999999,70.92353783796233L90.675,110.90163931498924L91,133.24554921065766L91.2925,130.00874548777938L91.325,135.41370104004938L91.3575,90.75226164360839L91.455,59.36479706565538L91.91,60.807695254683495L92.1375,-130.32518412669504L93.0475,-0.15251250068347977L93.11250000000001,111.37977430224419L93.2425,149.41382883054513L93.29124999999999,132.85714016854763L93.795,118.66477782155076L93.925,99.7540381575624L94.13625,105.97656215478975L94.2175,106.71247791747251L94.4775,89.27057753254968L94.55875,110.80798172950745L94.59125,122.33924798915783L94.75375000000001,13.167144497235622L94.81875,107.70051046212512L95.28999999999999,113.32884562760592L95.485,97.07523449261981L96.33,131.6320294352869L96.44375,120.57765208433071L96.50875,68.52264008422694L96.6875,151.6020014953489L96.78500000000001,81.36531699697179L96.8825,130.9081268645823L97.24,110.423598267138L97.64625000000001,65.95445835590363L97.6625,133.8805464245379L97.8575,117.5528668326636L98.03625000000001,43.80385641256967L98.085,153.5716034155339L99.01125,99.46135060489178L99.0925,123.62309019019204L99.10875,27.242494265238438L99.27125,123.12300653755665L100.45750000000001,126.3094697917501L100.63624999999999,148.2436809372157L100.6525,110.20082926005125L100.685,-30.850340286890678L100.76625,120.74821564927697L100.7825,129.31560530886054L101.18875,38.363438735405595L101.27000000000001,30.662021179993953L101.31875000000001,126.98135756204525L101.44875,93.1868891691168L101.77374999999999,112.52682415395975L101.8225,101.92983499666053L101.83875,97.2217136522134L102.0825,113.7040561834971L102.3425,109.78691566983858L102.44,107.28341398388147L102.65125,135.63935453941423L102.68375,133.350056797266L102.895,119.45610954364139L103.07375,84.02746575822434L103.49625,130.96173310900727L103.6425,66.52496893207231L103.88624999999999,22.1277147680521L104,100.26319525142509L104.0975,145.87248875697452L104.16250000000001,112.80012150853872L104.4875,126.00123250484467L104.53625,98.76481202989817L105.21875,129.4878984640042L105.495,128.53057305266458L105.77125000000001,107.31948118905225L105.7875,115.43514941136041L106.1125,163.16666666666666L106.16125000000001,117.1148273932437L106.30749999999999,142.79438046055535L106.48625,140.65119993500412L106.8925,134.34210939581195L106.94125000000001,-16.100494548678437L107.16875,141.7422024992605L107.20125,93.79787657658258L107.23375,101.2758509715398L107.705,121.35203326990205L108.16,105.5944884965817L108.28999999999999,103.76061450938383L108.355,139.52268791943789L108.485,117.25009737163782L108.66375000000001,86.30553497870761L109.08625,110.83121239145595L109.1675,136.14279514426985L109.4275,100.01056456565857L109.6875,132.32899350052077L109.8175,142.17409305212396L109.96375,104.4366245617469L110.11,112.98025860389072L110.28875,66.12197994192442L110.305,66.35973504682383L110.40249999999999,130.0431742792328L110.5,131.14728277176619L110.5325,-5.560703436533624L110.58125,99.95471482723951L111.14999999999999,154.00466268509626L111.345,118.40845310688019L111.65375,137.4492131943504L112.0275,87.51916576425234L112.35249999999999,140.35639736428857L112.74249999999999,129.43345229079324L113.0025,144.30803574249148L113.1325,108.2425297697385L113.27875,152.18981695299345L113.3275,118.19261903812486L113.36,147.21626015317935L114.18875,147.69240859833855L114.2375,140.27251362117627L114.5625,123.62967147429782L114.595,101.07142777740955L114.61125,126.98465096702176L114.725,85.26353148370981L115.0175,135.7778460867703L115.4725,142.44244753631452L115.7975,121.56275869285065L115.83,130.29635202387968L115.92750000000001,134.34999754279852L116.35000000000001,75.63118948539099L116.43125,136.27351458743215L116.70750000000001,148.21934510581195L117,132.65977624431252L117.13000000000001,134.45958614597717L117.63374999999999,117.06508647898832L118.0725,132.8265628926456L118.44624999999999,140.14396445453167L118.91749999999999,134.26733086754876L119.09625,125.63237114747363L119.35625,143.170220963036L119.58375,62.332795947790146L119.925,47.83962581555048L120.575,138.78792153298855L120.9325,130.28228321671486L121.01375,122.6351432961722L121.615,145.95619843589762L121.79375,137.13972430303693L121.89125,135.7044241540134L122.11874999999999,152.3387343926976L122.15125,110.41326493273178L122.67125,135.22470048566657L123.06125,116.35034023722011L123.25625,120.14340061321855L123.28875,100.04973177115122L123.38625,55.742847313483566L123.58125000000001,74.73931220918894L123.9875,126.02808535968262L124.44250000000001,128.64956664790708L124.47500000000001,136.30541254083315L124.53999999999999,90.76889444390932L124.78375,137.63595367719728L125.45,131.85187803208828L125.49875,104.62353082001209L125.79124999999999,141.80648606208462L126.08375000000001,123.89956214403111L126.36,113.53620304663974L126.40875,120.5585271269083L126.57124999999999,144.01094408954182L126.86375000000001,96.473513931036L126.88,133.56515592833358L127.15625,144.76229078074294L127.205,66.46475930015245L127.75750000000001,158.59595449424037L127.78999999999999,120.68840111543733L127.90375,132.64003515491882L128.3425,144.3198955922077L128.48875,130.84766304368773L128.83,153.51317586936057L129.22,69.70940420031548L129.30125,127.88470926011601L129.39875,140.17650616914034L129.8375,127.73739846050739L130.1625,149.38845828423896L130.24375,39.73369413614273L130.48749999999998,94.84312374393144L130.56875,122.8097269150118L130.975,135.9705904026826L131.26749999999998,89.17598055303097L131.3325,142.37440225295722L131.41375,150.5513742249459L131.67374999999998,155.40612185467035L131.70625,106.02268087615568L131.96625,104.79976666718721L131.99875,139.06846603627005L132.09625,128.17689672360817L132.12875,131.38626461476088L132.16125,141.09264744073153L132.35625,94.86803426345188L132.42125,114.30682665606338L132.79500000000002,132.51455421497423L132.94125,118.40799446155626L133.25,103.19391124198833L133.42875,123.64542842780548L133.46124999999998,141.9444208803276L133.55875,139.1141426898539L133.76999999999998,93.22663658857346L134.0625,144.51127640530467L134.69625,153.92213760968298L135.07,103.25228076676527L135.13500000000002,96.56528720259666L135.15125,100.69160313904285L135.265,154.71806476451457L135.54125,123.0376515376071L135.72,152.6875928736602L135.89875,157.42877259943634L136.0125,142.48830654285848L136.10999999999999,112.95667428771654L136.5,154.48662224939713L137.39375,40.992139543096215L137.45874999999998,151.68444092012942L137.67,152.03588135323176L138.04375,146.60052327997983L138.06,134.56084177146354L138.125,125.84889042129117L138.45,133.30533058941364L138.46625,147.29051234448949L138.48250000000002,159.1403336840061L138.61249999999998,151.18612968300778L138.9375,152.98826458491385L139.3275,110.5735310812791L139.44125,123.59113974124193L139.48999999999998,134.60184908409911L139.79874999999998,135.9386482425034L140.67625,137.5512700676918L140.82250000000002,85.78330925603706L140.855,155.54244450697053L140.92000000000002,135.23947107543546L141.0175,111.29437233259279L141.06625,125.11768268048763L141.18,119.82759567846853L141.31,135.62702637414137L141.35875,146.0167865883559L141.55375,141.18023212005693L141.9925,148.24883793418604L142.0575,132.5207348751525L142.23625,149.47033614479005L142.415,139.22485856587687L143.52,142.01555649377406L143.7475,116.10722506046295L143.8775,110.90186034888029L144.10500000000002,89.57297952473164L144.12125,123.02170117944479L144.54375,125.6745830948154L144.77125,141.05389467378455L145.17749999999998,155.54574412852526L145.64874999999998,145.7319360685845L145.6975,149.7496041773508L146.12,130.57384902238846L146.4125,151.455448427548L146.4775,153.18714880788076L146.88375,143.64728117299575L146.9975,130.5721967940529L147.30625,132.66745993494987L147.72875,137.6266039436062L147.9725,140.95859453019995L148.10250000000002,142.92477387872833L148.11875,109.8551654095451L148.47625,152.42589634470642L148.54125,120.06707208479443L148.76874999999998,138.33870606745282L148.96375,136.98409986620146L149.09375,157.88955987989902L149.41875000000002,140.8836516079803L149.565,142.74954788014293L149.71124999999998,111.88476490726072L149.74375,150.10002992674708L149.76,96.60900770624477L150.06875,142.62696801001826L150.1175,147.81224212236702L150.26375,132.73820735762516L150.865,154.3993850077192L151.125,152.9580133340011L151.30375,154.68182073223093L151.59625,133.10825400923687L151.75875000000002,120.77390807618696L151.775,130.9444344441096L151.98624999999998,130.27628214657307L152.0675,152.24503812628487L152.08375,121.11279723793268L152.45749999999998,141.21731055527925L152.52249999999998,138.34968040014306L152.76624999999999,142.88947062194347L153.25375,137.9113619054357L153.4,146.85009679074088L153.44875,151.20140174341697L153.5625,117.53731986135244L153.72500000000002,149.62067372724414L153.77374999999998,138.93963366995254L153.855,143.2312028321127L154.01749999999998,132.2303985704978L154.4075,158.04180249820152L154.55374999999998,151.09457191949087L154.86249999999998,140.84158885851502L155.13875000000002,152.23112749649832L155.935,144.4333964952578L156.14625,129.9757036839922L156.195,112.34783643484116L156.69875000000002,145.98549509669343L156.715,148.08368417372304L156.99124999999998,143.02028676743308L157.15375,141.14601192933816L157.235,132.65829531724253L157.41375,130.94880538930494L157.51125,145.25847042227784L157.625,137.9989659252266L157.9175,154.3609278736015L157.99875,99.12868907302618L158.07999999999998,144.6253091711551L158.3725,137.75406589979926L158.55124999999998,134.66470007101694L158.6,147.84718619907895L158.92499999999998,127.75805960347253L159.055,146.1744942696144L159.2175,156.6148733170703L159.4125,128.0734252333641L159.78625,142.46979909886915L159.86749999999998,126.93027110397816L160.85875,83.40452594310045L160.875,153.1778640029952L160.94,148.56477410780886L161.395,99.38914988438287L162.09375,125.21902395660678L162.22375,150.34840018426377L162.35375,136.6389361048738L162.37,134.72170747444034L162.92249999999999,115.81097333629924L163.10125000000002,148.95060119777918L163.29625,132.06021905193725L163.345,102.53928621858358L163.57250000000002,143.74598247557878L164.54749999999999,136.78568879390755L164.9375,129.15159539878368L165.42499999999998,115.77748670180637L165.48999999999998,154.8344087159882L165.7175,134.06761293237406L165.99375,138.5192686530451L166.09125,135.20977517217398L166.77375,118.39905364066362L167.03375,145.6027403778086L167.21249999999998,129.03455519055325L167.35875,140.21056472882628L167.48875,120.86579186469316L167.81375,139.42165332784253L167.84625,151.0576979406178L167.895,135.81704921027023L167.92749999999998,133.9441378749907L168.025,152.3420478288705L168.22,147.0918139281372L168.35,142.8897206665327L168.39875,143.0904760795335L168.48000000000002,146.06061760894954L168.59375,127.02812280754247L168.62625,138.0789857196311L169.455,156.6508230979865L169.63375,126.73621992518503L169.76375,138.29493859410286L170.08875,151.93736033141613L170.105,157.91514593424895L170.13750000000002,125.99258455385763L170.365,115.58097099512815L170.43,127.96125882243115L170.57625,156.40272291625539L170.5925,93.59613894422847L170.67375,106.86746135602394L170.73874999999998,148.1744821332395L170.755,143.97620585064092L170.99875,160.5565371955745L171.5025,133.73126842329899L171.69750000000002,130.20009729017812L171.81125,149.11922795325518L171.89249999999998,121.4249634022514L172.12,156.62236567524573L172.26625,157.52479939193776L172.51,153.20301696906486L172.68875,156.7887758752331L172.8025,138.3518050884207L172.81875,133.5373802570005L172.965,153.1568243394916L173.5825,146.6951617033531L173.7125,87.13306928922731L173.72875000000002,136.58186515420675L173.79375000000002,135.6427805647254L174.31375,130.63241747766733L175.0775,114.90907769898573L175.1425,150.62956910828748L175.435,144.689098170648L175.51625,153.86828753724694L175.80875,134.16229279960194L175.8575,145.53949843719602L176.19875,149.3925363595287L176.3775,142.1837743365516L176.7675,146.48021591454744L176.88125,160.5920557877204L177.1575,145.9866486173123L177.19,97.85263279080391L177.23875,137.32062672823668L177.58,152.1002512574196L177.61249999999998,148.03493100466827L177.69375,136.92257231970626L177.8725,122.15590313946205L178.0675,142.8826876444121L178.34375,156.76164327437678L178.63625000000002,150.55998625792563L178.73375000000001,126.7453292844196L178.815,144.88704783469439L178.89625,144.22120534131923L179.18875,91.67936619619528L179.205,137.22972101469833L179.64374999999998,134.62943135077754L179.77375,156.48149386917552L179.93625,158.0403737213152L180.11499999999998,147.83157429906228L180.45625,149.07908819864193L180.74875,154.30205549672246L181.26874999999998,153.79503137990832L181.285,135.1263514558474L181.38250000000002,135.51293973128L182.22750000000002,141.0691321976483L182.26,141.18298675492406L182.4225,145.64521756581962L182.53625,148.60885655445355L182.975,149.84787170092264L183.31625,147.14688314062852L183.47875000000002,138.58560092374682L183.73875,157.84226000867784L183.77124999999998,159.78036149110025L183.88500000000002,109.29775661726791L184.405,150.5308843832463L184.48624999999998,160.85132353411367L184.66500000000002,135.56409526243806L184.74625,151.46617547857264L185.44500000000002,140.4011083760609L185.49374999999998,145.68472599238157L185.81875,148.7045960028966L185.91625000000002,142.35563785706955L185.9325,149.21127060987055L186.355,149.5551703336338L186.46875,154.5996617441997L187.47625000000002,134.8757128380239L187.4925,114.44350296258926L187.63875000000002,155.46160343351463L187.7525,152.76387857676792L187.80125,147.081640843302L187.915,138.1574776172638L187.96375,144.4540382977575L188.32125000000002,155.8745810833449L188.5,120.31046079099178L188.67875,152.64716093987226L188.84125,144.81568151712418L188.87375,149.30635800833502L188.89000000000001,130.20659844949841L188.93875,157.43237579722577L189.32874999999999,160.55793229932897L189.42625,141.04949195496738L189.49124999999998,140.78849237350124L189.79999999999998,110.64624017973739L189.9625,142.10800806308785L190.0925,148.63465120953816L190.28750000000002,148.10091376552978L190.9375,149.14793196693063L191.08375,143.44164919977385L191.1,147.32324470082918L191.23000000000002,154.25364285800606L191.37625,150.49468179481724L191.945,151.19596569115916L192.4,154.35397981138277L192.44875,151.32484779010215L193.09875,155.91722750042877L193.48875,144.88820273677507L193.65125,146.91099577210844L194.545,154.94147753280896L194.75625,131.24962975208956L194.935,142.00977093167603L195.2275,156.12662948295474L195.8125,145.50588747113943L195.89374999999998,153.43114881093302L195.91,156.49068197173378L195.9425,156.70136180644235L196.17,119.95950317879516L196.36499999999998,141.89155786236125L196.5275,149.30587035231292L196.73874999999998,140.10335500289995L196.82,153.45745875127614L196.83625,153.0655200742185L197.08,158.1047308469812L197.1775,133.62253356352448L197.34,140.33637169376016L197.73,152.22820915840566L198.00625,157.1756922478477L198.36375,149.8160732127726L198.8675,142.7836534095307L198.98125,148.5215951371938L199.03,135.46845666070777L199.16,151.28936218035716L199.42000000000002,155.685871326675L199.48499999999999,149.57039542434114L199.56625,155.6253384326895L199.59875,147.9582778327167L199.63125,155.92085521916547L199.68,151.50961001962423L200.24875,144.44830799413222L200.3625,156.75324191432446L200.6225,151.48895716542998L200.9475,153.81459287926555L201.4025,153.40719702591497L201.435,153.03052557415018L201.45125000000002,145.51234994952875L201.48375,153.10714973540354L201.58124999999998,156.33691352885216L201.7275,151.52178069824973L201.825,141.17894459764162L201.90625,148.1003570364167L202.3775,117.69839830944935L202.605,146.66662208363414L202.78375,153.70800895554322L202.94625000000002,135.15732935567695L203.01125000000002,147.5243883046011L203.0275,155.9358095433563L203.48250000000002,126.41142719984055L203.62875,135.72178084030747L203.75875,141.9927002079785L204.0025,152.97307195855925L204.01874999999998,155.68377495836467L204.21375,157.52176915543774L204.7175,153.32306945479164L204.86374999999998,154.82531178991L205.075,158.75383209530264L205.12375,146.5279343686998L205.14000000000001,148.93890021617213L205.22125,148.9766168867548L205.3675,150.88402470511693L205.4975,116.92522728443146L205.61125,152.95688191677132L205.6275,141.7346680064996L205.90375,133.46492811044055L206.39125,147.26345917768776L206.55375,162.13263273856137L207.155,161.51834924953678L207.30124999999998,153.9576708798607L207.3175,151.9577762649084L207.415,153.45639778859913L207.67499999999998,109.17802808433771L207.78875000000002,157.0234420315052L208.24375,152.57710562956828L208.26000000000002,137.30080551405746L208.40625,141.49047252659994L208.4875,158.35262968065217L208.66625,156.60470299515873L208.8125,146.71490417420864L209.04000000000002,144.3502974224587L209.21875,134.28507988899946L209.6575,156.4194924812764L209.70624999999998,131.92826458190876L209.8525,152.58191035377482L210.25875,158.00667434170222L210.32375,160.42861365845116L210.47,151.29494743049145L210.6975,151.6978756363193L210.795,139.68543517341215L210.82750000000001,108.67009220272303L211.38,139.48988925293088L211.4775,156.38141455842802L211.575,119.64126963416734L211.60750000000002,148.6756764811774L211.62375,158.98812180322906L211.78625,155.42373342067003L211.8675,122.35823756332198L212.095,146.75684535503387L212.24125,147.31056978863973L212.50125,149.57336833017567L212.9075,154.17517651741701L213.21625,132.04797377437353L213.3625,145.47216046229005L213.655,131.31728270029026L213.94750000000002,147.14427079632878L214.09375,156.48492818325758L214.4675,156.09513491640487L214.5,150.1912989647438L214.51625,126.37611703574657L215.345,154.94693845137954L215.475,154.58647361894447L215.52375,138.30659536893168L215.67000000000002,154.6752056023106L215.94625,132.544835858047L216.2875,153.22267793367305L216.53125,154.40915470570326L216.79125,159.14512839261442L217.11625,154.67560277258355L217.23000000000002,152.06116693963605L217.34375,138.18216157704592L217.425,142.85491473600268L217.92874999999998,154.4677425014476L218.05875,150.6930376086384L218.09125,161.20493597056097L218.64375,153.81930711772293L218.6925,141.29073248803616L218.92,151.85426056788612L218.95250000000001,149.7075635312746L218.96875,147.44817029312253L219.1475,151.43175221296647L219.245,156.5044316612184L219.7,159.1903125550598L219.74875,158.14179063246897L219.765,136.79236678034067L219.86249999999998,153.5651809995373L219.895,159.1819353705893L220.17125,158.7915024869144L220.30125,156.55565004888922L220.44750000000002,152.10684704687446L220.69125,155.5280393138528L220.95125,150.96315069372454L221.58499999999998,126.51756214847165L221.78,125.10066859672466L221.8125,135.1728514606754L221.975,155.11789642367512L222.15375,135.09693460787335L222.2675,136.30191191658378L222.38125,146.21948157375056L222.41375,130.74765902260938L222.69,158.01858081575483L222.99875,157.46554849452028L223.58375,126.8115731415649L223.74625,156.6326389160628L224.02249999999998,156.4736008870726L224.12,150.4572317463656L224.26625,151.02228278542557L224.75375,146.30649709080654L225.1275,148.31451401052374L225.14375,137.7333605500559L225.43625,154.95658381779987L225.89124999999999,159.69633891107515L225.9725,159.66995886154473L226.18375,145.41989699875313L226.2,161.29211294596703L226.41125,156.88600937463343L226.54125000000002,146.50509327898422L226.6225,156.3919267921398L226.655,150.72372540148595L226.67125,153.18964649084955L226.99625,155.40623996965587L227.07750000000001,148.7062067873776L227.305,142.6028338720401L227.4675,153.05083789800602L227.54875,150.78453182491162L227.6625,138.75305896252394L227.90625,152.06190256805468L227.97125,155.90275185275823L228.16625000000002,161.74893784856735L228.735,159.6987046644402L228.88125000000002,154.1445426015804L228.9625,158.1034281284859L229.66125,159.88909047966203L229.7425,155.94473585889986L229.88875000000002,152.902278256913L229.98625,159.78624444625652L230.165,156.19069339334965L230.23,161.08641345379874L230.48999999999998,156.43552296422422L230.70125,146.70042369142175L231.02625,153.68281799927354L231.1725,144.51728576421738L231.3025,148.69364791798094L231.6275,149.11908428122598L231.8875,127.81802057226497L232.21249999999998,152.79704954723516L232.26125,158.70019822164127L232.52124999999998,153.1154295268158L232.74875,149.97393561775485L232.78125,156.41187233788273L232.96,155.8976183406388L233.935,154.20916738547385L234.08124999999998,149.8220825716853L234.0975,155.8271852005273L234.585,156.88633747181544L234.89375,153.27691550614932L234.9425,155.13979052131373L235.3,153.79223461045572L236.015,156.84236277919263L236.35625,153.9894949250544L236.45375,154.94951971278834L236.48625,154.05551429465413L236.8275,158.66203948327652L237.185,147.15816692076623L237.65625,158.79521723774573L238.17625,156.34968997848532L238.40375,161.60100729065016L238.66375,156.52696537567923L238.85875,152.77719517797232L239.8175,132.2163960735003L240.0775,156.07709371577948L240.58124999999998,157.26094571035355L240.71125,160.08689370875558L241.05249999999998,151.12240561222035L241.45875,157.65808179213977L241.54000000000002,154.58690877941746L241.75125,150.91521673152843L241.9625,152.38906726334244L242.06,142.0086422773699L242.7425,148.48751585558057L242.75875,159.87649154787263L242.84,155.375455474481L242.92125,157.1651254463941L243.08374999999998,153.97819249518216L243.57125000000002,151.48670400120318L243.7825,157.12501401174814L244.02625,157.07756010753414L244.3025,153.5163034989188L244.74125,156.2626212751493L244.7575,161.40077476094788L244.88750000000002,157.54349471473446L245.0825,152.97598822445917L245.13125000000002,152.88238796964288L245.2775,157.5324264426405L245.52125,158.83966508104155L245.58625,159.3337062196806L245.61875,154.31484576097378L245.8625,154.98142250130573L246.155,158.2085739504546L246.44750000000002,131.4399703244368L246.69125,156.75284059966603L246.85375000000002,156.1310425627356L246.9025,158.50764074843997L247.0975,153.43204123526812L247.11375,160.86932847136632L247.17875,154.52712601919967L247.63375000000002,157.66540768416598L248.05625,157.92010849046832L248.5925,159.0627518243467L248.67375,149.93732964247465L248.83625,159.17455698301396L249.42125000000001,88.73418906331062L249.5025,152.5384965346505L250.2825,149.1348826785882L250.3475,157.68067145580426L250.6725,159.72719973201552L251.45250000000001,153.48031089268625L251.46875,157.35692207949856L251.81,158.86477211350575" style="fill: none;" fill="none"></path></g></g></g></g></g></g><g transform="translate(70, 178)" clip-path="url(#clip_1)"><clipPath id="clip_1"><rect width="260" height="21"></rect></clipPath><g><g><line x1="0" y1="0" x2="0" y2="5" style="visibility: inherit;" fill="rgb(0, 0, 0)" stroke="rgb(204, 204, 204)" stroke-width="1px"></line><line x1="32.5" y1="0" x2="32.5" y2="5" style="visibility: inherit;" fill="rgb(0, 0, 0)" stroke="rgb(204, 204, 204)" stroke-width="1px"></line><line x1="65" y1="0" x2="65" y2="5" style="visibility: inherit;" fill="rgb(0, 0, 0)" stroke="rgb(204, 204, 204)" stroke-width="1px"></line><line x1="97.5" y1="0" x2="97.5" y2="5" style="visibility: inherit;" fill="rgb(0, 0, 0)" stroke="rgb(204, 204, 204)" stroke-width="1px"></line><line x1="130" y1="0" x2="130" y2="5" style="visibility: inherit;" fill="rgb(0, 0, 0)" stroke="rgb(204, 204, 204)" stroke-width="1px"></line><line x1="162.5" y1="0" x2="162.5" y2="5" style="visibility: inherit;" fill="rgb(0, 0, 0)" stroke="rgb(204, 204, 204)" stroke-width="1px"></line><line x1="195" y1="0" x2="195" y2="5" style="visibility: inherit;" fill="rgb(0, 0, 0)" stroke="rgb(204, 204, 204)" stroke-width="1px"></line><line x1="227.5" y1="0" x2="227.5" y2="5" style="visibility: inherit;" fill="rgb(0, 0, 0)" stroke="rgb(204, 204, 204)" stroke-width="1px"></line><line x1="260" y1="0" x2="260" y2="5" style="visibility: inherit;" fill="rgb(0, 0, 0)" stroke="rgb(204, 204, 204)" stroke-width="1px"></line></g><g transform="translate(0, 8)"><text x="0" y="0" dx="0em" dy="0.95em" style="text-anchor: middle; visibility: hidden; font-family: Roboto, sans-serif; font-size: 12px; font-weight: 200;" fill="rgb(50, 49, 63)" stroke="none" stroke-width="1px">-2k</text><text x="32.5" y="0" dx="0em" dy="0.95em" style="text-anchor: middle; visibility: inherit; font-family: Roboto, sans-serif; font-size: 12px; font-weight: 200;" fill="rgb(50, 49, 63)" stroke="none" stroke-width="1px">0</text><text x="65" y="0" dx="0em" dy="0.95em" style="text-anchor: middle; visibility: inherit; font-family: Roboto, sans-serif; font-size: 12px; font-weight: 200;" fill="rgb(50, 49, 63)" stroke="none" stroke-width="1px">2k</text><text x="97.5" y="0" dx="0em" dy="0.95em" style="text-anchor: middle; visibility: inherit; font-family: Roboto, sans-serif; font-size: 12px; font-weight: 200;" fill="rgb(50, 49, 63)" stroke="none" stroke-width="1px">4k</text><text x="130" y="0" dx="0em" dy="0.95em" style="text-anchor: middle; visibility: inherit; font-family: Roboto, sans-serif; font-size: 12px; font-weight: 200;" fill="rgb(50, 49, 63)" stroke="none" stroke-width="1px">6k</text><text x="162.5" y="0" dx="0em" dy="0.95em" style="text-anchor: middle; visibility: inherit; font-family: Roboto, sans-serif; font-size: 12px; font-weight: 200;" fill="rgb(50, 49, 63)" stroke="none" stroke-width="1px">8k</text><text x="195" y="0" dx="0em" dy="0.95em" style="text-anchor: middle; visibility: inherit; font-family: Roboto, sans-serif; font-size: 12px; font-weight: 200;" fill="rgb(50, 49, 63)" stroke="none" stroke-width="1px">10k</text><text x="227.5" y="0" dx="0em" dy="0.95em" style="text-anchor: middle; visibility: inherit; font-family: Roboto, sans-serif; font-size: 12px; font-weight: 200;" fill="rgb(50, 49, 63)" stroke="none" stroke-width="1px">12k</text><text x="260" y="0" dx="0em" dy="0.95em" style="text-anchor: middle; visibility: hidden; font-family: Roboto, sans-serif; font-size: 12px; font-weight: 200;" fill="rgb(50, 49, 63)" stroke="none" stroke-width="1px">14k</text></g><line x1="0" y1="0" x2="260" y2="0" fill="rgb(0, 0, 0)" stroke="rgb(204, 204, 204)" stroke-width="1px"></line></g></g></g></g></svg>