<svg viewBox="0 0 330.0000305175781 200.00001525878906" xmlns="http://www.w3.org/2000/svg"><g><g><g><g><g><line x1="70" y1="178" x2="65" y2="178" style="visibility: inherit;" fill="rgb(0, 0, 0)" stroke="rgb(204, 204, 204)" stroke-width="1px"></line><line x1="70" y1="158.2222222222222" x2="65" y2="158.2222222222222" style="visibility: inherit;" fill="rgb(0, 0, 0)" stroke="rgb(204, 204, 204)" stroke-width="1px"></line><line x1="70" y1="138.44444444444446" x2="65" y2="138.44444444444446" style="visibility: inherit;" fill="rgb(0, 0, 0)" stroke="rgb(204, 204, 204)" stroke-width="1px"></line><line x1="70" y1="118.66666666666669" x2="65" y2="118.66666666666669" style="visibility: inherit;" fill="rgb(0, 0, 0)" stroke="rgb(204, 204, 204)" stroke-width="1px"></line><line x1="70" y1="98.8888888888889" x2="65" y2="98.8888888888889" style="visibility: inherit;" fill="rgb(0, 0, 0)" stroke="rgb(204, 204, 204)" stroke-width="1px"></line><line x1="70" y1="79.1111111111111" x2="65" y2="79.1111111111111" style="visibility: inherit;" fill="rgb(0, 0, 0)" stroke="rgb(204, 204, 204)" stroke-width="1px"></line><line x1="70" y1="59.33333333333332" x2="65" y2="59.33333333333332" style="visibility: inherit;" fill="rgb(0, 0, 0)" stroke="rgb(204, 204, 204)" stroke-width="1px"></line><line x1="70" y1="39.55555555555557" x2="65" y2="39.55555555555557" style="visibility: inherit;" fill="rgb(0, 0, 0)" stroke="rgb(204, 204, 204)" stroke-width="1px"></line><line x1="70" y1="19.777777777777768" x2="65" y2="19.777777777777768" style="visibility: inherit;" fill="rgb(0, 0, 0)" stroke="rgb(204, 204, 204)" stroke-width="1px"></line><line x1="70" y1="0" x2="65" y2="0" style="visibility: inherit;" fill="rgb(0, 0, 0)" stroke="rgb(204, 204, 204)" stroke-width="1px"></line></g><g transform="translate(60, 0)"><text x="0" y="178" dx="0em" dy="0.3em" style="text-anchor: end; visibility: hidden; font-family: Roboto, sans-serif; font-size: 12px; font-weight: 200;" fill="rgb(50, 49, 63)" stroke="none" stroke-width="1px">-5e-3</text><text x="0" y="158.2222222222222" dx="0em" dy="0.3em" style="text-anchor: end; visibility: inherit; font-family: Roboto, sans-serif; font-size: 12px; font-weight: 200;" fill="rgb(50, 49, 63)" stroke="none" stroke-width="1px">0</text><text x="0" y="138.44444444444446" dx="0em" dy="0.3em" style="text-anchor: end; visibility: hidden; font-family: Roboto, sans-serif; font-size: 12px; font-weight: 200;" fill="rgb(50, 49, 63)" stroke="none" stroke-width="1px">5e-3</text><text x="0" y="118.66666666666669" dx="0em" dy="0.3em" style="text-anchor: end; visibility: inherit; font-family: Roboto, sans-serif; font-size: 12px; font-weight: 200;" fill="rgb(50, 49, 63)" stroke="none" stroke-width="1px">0.01</text><text x="0" y="98.8888888888889" dx="0em" dy="0.3em" style="text-anchor: end; visibility: hidden; font-family: Roboto, sans-serif; font-size: 12px; font-weight: 200;" fill="rgb(50, 49, 63)" stroke="none" stroke-width="1px">0.015</text><text x="0" y="79.1111111111111" dx="0em" dy="0.3em" style="text-anchor: end; visibility: inherit; font-family: Roboto, sans-serif; font-size: 12px; font-weight: 200;" fill="rgb(50, 49, 63)" stroke="none" stroke-width="1px">0.02</text><text x="0" y="59.33333333333332" dx="0em" dy="0.3em" style="text-anchor: end; visibility: hidden; font-family: Roboto, sans-serif; font-size: 12px; font-weight: 200;" fill="rgb(50, 49, 63)" stroke="none" stroke-width="1px">0.025</text><text x="0" y="39.55555555555557" dx="0em" dy="0.3em" style="text-anchor: end; visibility: inherit; font-family: Roboto, sans-serif; font-size: 12px; font-weight: 200;" fill="rgb(50, 49, 63)" stroke="none" stroke-width="1px">0.03</text><text x="0" y="19.777777777777768" dx="0em" dy="0.3em" style="text-anchor: end; visibility: hidden; font-family: Roboto, sans-serif; font-size: 12px; font-weight: 200;" fill="rgb(50, 49, 63)" stroke="none" stroke-width="1px">0.035</text><text x="0" y="0" dx="0em" dy="0.3em" style="text-anchor: end; visibility: hidden; font-family: Roboto, sans-serif; font-size: 12px; font-weight: 200;" fill="rgb(50, 49, 63)" stroke="none" stroke-width="1px">0.04</text></g><line x1="70" y1="0" x2="70" y2="178" fill="rgb(0, 0, 0)" stroke="rgb(204, 204, 204)" stroke-width="1px"></line></g></g><g transform="translate(70, 0)" clip-path="url(#clip_0)"><clipPath id="clip_0"><rect width="260" height="177"></rect></clipPath><g><g><g><line x1="0" y1="0" x2="0" y2="178" fill="rgb(0, 0, 0)" stroke="rgb(60, 60, 60)" stroke-width="1px" opacity="0.25"></line><line x1="32.5" y1="0" x2="32.5" y2="178" fill="rgb(0, 0, 0)" stroke="rgb(60, 60, 60)" stroke-width="1px" opacity="0.25"></line><line x1="65" y1="0" x2="65" y2="178" fill="rgb(0, 0, 0)" stroke="rgb(60, 60, 60)" stroke-width="1px" opacity="0.25"></line><line x1="97.5" y1="0" x2="97.5" y2="178" fill="rgb(0, 0, 0)" stroke="rgb(60, 60, 60)" stroke-width="1px" opacity="0.25"></line><line x1="130" y1="0" x2="130" y2="178" fill="rgb(0, 0, 0)" stroke="rgb(60, 60, 60)" stroke-width="1px" opacity="0.25"></line><line x1="162.5" y1="0" x2="162.5" y2="178" fill="rgb(0, 0, 0)" stroke="rgb(60, 60, 60)" stroke-width="1px" opacity="0.25"></line><line x1="195" y1="0" x2="195" y2="178" fill="rgb(0, 0, 0)" stroke="rgb(60, 60, 60)" stroke-width="1px" opacity="0.25"></line><line x1="227.5" y1="0" x2="227.5" y2="178" fill="rgb(0, 0, 0)" stroke="rgb(60, 60, 60)" stroke-width="1px" opacity="0.25"></line><line x1="260" y1="0" x2="260" y2="178" fill="rgb(0, 0, 0)" stroke="rgb(60, 60, 60)" stroke-width="1px" opacity="0.25"></line></g><g><line x1="0" y1="178" x2="260" y2="178" fill="rgb(0, 0, 0)" stroke="rgb(60, 60, 60)" stroke-width="1px" opacity="0.25"></line><line x1="0" y1="158.2222222222222" x2="260" y2="158.2222222222222" fill="rgb(0, 0, 0)" stroke="rgb(60, 60, 60)" stroke-width="1px" opacity="0.25"></line><line x1="0" y1="138.44444444444446" x2="260" y2="138.44444444444446" fill="rgb(0, 0, 0)" stroke="rgb(60, 60, 60)" stroke-width="1px" opacity="0.25"></line><line x1="0" y1="118.66666666666669" x2="260" y2="118.66666666666669" fill="rgb(0, 0, 0)" stroke="rgb(60, 60, 60)" stroke-width="1px" opacity="0.25"></line><line x1="0" y1="98.8888888888889" x2="260" y2="98.8888888888889" fill="rgb(0, 0, 0)" stroke="rgb(60, 60, 60)" stroke-width="1px" opacity="0.25"></line><line x1="0" y1="79.1111111111111" x2="260" y2="79.1111111111111" fill="rgb(0, 0, 0)" stroke="rgb(60, 60, 60)" stroke-width="1px" opacity="0.25"></line><line x1="0" y1="59.33333333333332" x2="260" y2="59.33333333333332" fill="rgb(0, 0, 0)" stroke="rgb(60, 60, 60)" stroke-width="1px" opacity="0.25"></line><line x1="0" y1="39.55555555555557" x2="260" y2="39.55555555555557" fill="rgb(0, 0, 0)" stroke="rgb(60, 60, 60)" stroke-width="1px" opacity="0.25"></line><line x1="0" y1="19.777777777777768" x2="260" y2="19.777777777777768" fill="rgb(0, 0, 0)" stroke="rgb(60, 60, 60)" stroke-width="1px" opacity="0.25"></line><line x1="0" y1="0" x2="260" y2="0" fill="rgb(0, 0, 0)" stroke="rgb(60, 60, 60)" stroke-width="1px" opacity="0.25"></line></g></g></g><g><g><line x1="0" y1="158.2222222222222" x2="260" y2="158.2222222222222" fill="rgb(0, 0, 0)" stroke="rgb(153, 153, 153)" stroke-width="1.5px"></line></g></g><g><g><line x1="32.5" y1="0" x2="32.5" y2="178" fill="rgb(0, 0, 0)" stroke="rgb(153, 153, 153)" stroke-width="1.5px"></line></g></g><g><g><g><g><g><path stroke="rgb(255, 112, 67)" stroke-width="2px" d="M40.2025,-9.194632695519799L41.21,4.212289527639214L41.64875,13.397733254884827L41.908750000000005,13.397332323861109L42.0225,22.099266382072955L42.03875,25.433915064437475L42.575,34.894453802222934L42.802499999999995,37.461383528897755L42.9325,44.96171541364342L42.965,18.749098246824826L43.013749999999995,25.07932493189286L43.04625,34.002984730768155L43.24125,45.47774566914587L43.403749999999995,54.46679530441462L44.1025,59.80943654274244L44.2325,61.552856673868824L44.3625,46.13192951619811L44.72,52.51146540821819L44.785,57.097178331328976L44.93125,63.25117031801427L44.99625,67.25659829355473L45.028749999999995,56.144413860837055L45.25625,47.29194514167406L45.28875,35.320509542495124L45.37,39.55970934926598L45.4025,17.18613566277683L45.5325,12.847592812792055L45.629999999999995,17.8645663002029L45.64625,26.822422462410323L46.085,30.890211967238148L47.23875,37.79412460946332L47.271249999999995,36.520173524683024L47.807500000000005,40.34997825637751L47.856249999999996,34.7253699138608L48.1325,35.05283189793858L48.27875,46.28652842194754L48.295,43.148266383020115L48.392500000000005,52.42888692430412L48.408750000000005,54.59299058164873L48.49,56.07609388091408L48.7825,57.13903894072631L48.83125,61.01703811571761L48.9775,65.0989025426513L49.77375,65.50994268831981L49.8225,71.18266623221268L49.92,75.40377324500203L50.0175,64.46209833477526L50.09875,70.67698962210515L50.26125,68.65053454225871L50.35875,69.15376498576613L50.440000000000005,73.00453761324533L51.285000000000004,58.5309643253271L51.36625,52.92365613359393L51.3825,57.296386241274604L51.675000000000004,56.6040479710567L51.886250000000004,58.63862223918858L52.0975,67.92210811456917L52.715,69.03679838156009L52.99125,50.78743728776442L53.316250000000004,52.70099220053388L53.41375,56.75774847454891L53.5275,63.53025402484649L53.885,68.20963642829318L53.933749999999996,69.8577929943826L54.112500000000004,73.19910413291458L54.16125,71.22301621983819L54.21,72.20242325891044L54.22625,70.55672496214308L55.006249999999994,75.17350507395038L55.10375,80.38173308949638L55.12,66.89204777370024L55.4775,67.76467244692923L55.6725,67.60104275868224L55.835,62.67981430119168L56.322500000000005,66.91569477901744L56.50125,65.6363907910548L56.63125,68.70421494324106L56.728750000000005,65.76524677117887L57.24875,67.63395162830425L57.31375,66.75837539312897L57.72,73.04386227278397L57.980000000000004,80.49987814338198L57.996249999999996,85.36706232566016L58.24,69.25969517232535L58.305,76.0980959487322L58.58125,55.46500066973763L59.15,55.83149404401167L59.28,49.92217745496151L59.605000000000004,56.73052623035759L59.832499999999996,57.29217695440703L59.97875,58.44841849875217L60.07625,65.28377187161954L60.10875,59.26096456203048L60.1575,59.27212761968847L60.27125,67.57845159682503L60.4175,65.32840329971498L60.645,69.1502288934634L60.6775,74.51735642788648L60.72625,77.20010139103805L60.85625,76.93916134589577L60.8725,69.2593467605323L61.34375,68.56416990183436L61.441250000000004,72.58104622479178L61.831250000000004,75.14193799080785L62.1725,75.18710733999478L62.464999999999996,70.73438571760008L62.611250000000005,76.2168712124122L62.822500000000005,75.96969788493807L62.87125,64.57125767437957L63.00125,64.19400080169105L63.65125,51.935823404477695L63.9275,54.155693944250864L64.09,60.424017648139476L64.13875,59.417834075079476L64.46375,68.19372548587391L64.72375,71.60995107440715L65.01625,69.00297959966346L65.08125,64.07726218074554L65.21124999999999,71.53713809934146L65.4875,67.90366135230796L65.585,64.1456294791493L65.975,56.04401134043401L66.18625,65.08898793100542L66.235,64.89955524849462L66.25125,60.24418532904893L66.38125,67.04430442185459L66.44625,69.58355606873654L66.56,56.85310907023344L66.80375,62.782879374299135L67.35624999999999,68.47959460543753L67.42125,70.6774822346518L67.535,75.29501615499989L67.68125,76.86419457429885L68.03875000000001,68.25160924221213L68.10374999999999,70.76789136902836L68.23375,56.42050763232717L68.36375,59.80793048389335L68.42875000000001,67.1312561061076L68.75375,71.26552976438563L68.835,76.86763383675671L68.85125000000001,75.22539470757883L68.88374999999999,73.36579321225979L68.9325,80.2569903765378L69.1275,86.20856935590172L69.17625,89.07101250365001L69.2575,88.25533608639162L69.56625,89.35121812065748L69.82625,90.51488612273329L69.98875000000001,92.1780614259554L70.18375,97.60276615933302L70.60625,99.22458886706298L70.7525,102.95878741235643L71.32125,99.56663514274986L71.33749999999999,81.28045854174248L71.37,85.26517048921554L72.085,83.72596094255795L72.215,89.20579494182412L72.36125,94.71972005615442L72.39375,90.04097294116288L72.475,76.23286643592886L72.88125000000001,79.60137231085561L72.8975,83.77768181189337L73.06,83.7023845788657L73.0925,74.78331930855812L73.17375,74.31410208882465L73.40125,77.14180272617568L73.49875,70.89263837669134L73.645,52.918979399816045L73.88875,51.053922001114174L73.95375,54.15432494873799L73.98625,54.14530810443677L74.3925,47.04613100307982L74.75,48.830956887372025L74.8475,55.76215139846479L75.12375,63.481471448852744L75.22125,72.00385739091907L75.64375,78.8708770815213L76.0175,80.02575130797128L76.13125,86.46834759014554L76.2125,91.54745055322724L76.42375,91.0301002598023L76.5375,89.34209537357893L76.78125,93.46733435598674L77.025,96.31747167942322L77.2525,96.84632239076699L77.82124999999999,99.0013469340228L77.8375,97.36532275689127L77.85375,100.9913068573073L79.17,102.42316980819422L79.31625,106.7425618710502L79.46249999999999,108.6171909651767L79.56,103.38721609833512L79.95,107.57305970762769L80.71374999999999,106.72653690200268L80.84375,103.6415003483131L81.42875000000001,96.0840758541448L81.68875,99.72850725942112L81.7375,103.57916671829025L81.8675,101.74789725087791L81.91625,99.67220813798299L82.30625,102.88485713312758L82.37125,101.13516591012633L82.85875,98.68328849552239L83.2325,96.313648954013L83.47625,92.494271111883L83.76875,97.83491832325497L83.86625,101.8074154267947L84.12625,102.46521107315901L84.41875,105.66296069938441L84.435,101.70322578782688L84.98750000000001,105.91335110752559L85.15,104.07131579714978L85.19875,101.84163029236325L85.215,97.99850040821752L85.2475,91.58860919537243L85.26375,86.19235992920568L85.67,90.90798307793881L86.20625,87.92011799748198L86.58,89.7479870836221L86.85625,88.78853703587033L87.36,88.33612261193048L87.79875,81.73550706217947L87.88000000000001,84.0344341605901L88.2375,85.75677504910864L88.54625,89.16910601123205L88.57875,94.92713587923856L88.79,97.07370890395582L89.05000000000001,92.78896428970066L89.52125000000001,91.95861642371943L89.57,96.77954473650415L89.97625,99.1989725617969L90.39874999999999,101.19500646272523L90.675,98.46480987255097L91,98.22176700372691L91.2925,90.61783079224728L91.325,95.66174560372897L91.3575,98.94386625448826L91.455,98.33983502928342L91.91,99.76734811759279L92.1375,99.4581903019876L93.0475,99.03052198980208L93.11250000000001,102.76456643857617L93.2425,107.46847203945724L93.29124999999999,109.25626264033825L93.795,112.0580301576163L93.925,110.71773704031818L94.13625,110.03914265376717L94.2175,107.77489332147539L94.4775,93.94241683624513L94.55875,98.2231028559954L94.59125,103.32971322928152L94.75375000000001,102.53343957816404L94.81875,104.17848958014825L95.28999999999999,108.81999006461434L95.485,113.04536812594115L96.33,107.49025619740088L96.44375,108.28718452463539L96.50875,101.04374812903272L96.6875,106.46685260073838L96.78500000000001,104.34213157378467L96.8825,93.6392668110909L97.24,91.95847706269915L97.64625000000001,96.81271714628951L97.6625,102.48339433559646L97.8575,104.13125252173997L98.03625000000001,103.51019865773108L98.085,102.42534129604816L99.01125,104.80102525326888L99.0925,109.50667970285778L99.10875,108.78579874550668L99.27125,113.3606081018233L100.45750000000001,117.38625433533022L100.63624999999999,117.8808943639838L100.6525,103.83554382286901L100.685,103.90115590588442L100.76625,103.315736054148L100.7825,104.84960283410797L101.18875,99.00673332096821L101.27000000000001,100.77512318213965L101.31875000000001,104.96774986498724L101.44875,108.55782060442888L101.77374999999999,112.1279356152896L101.8225,115.75437913232966L101.83875,118.5232684037374L102.0825,117.21883981550644L102.3425,120.68078281461288L102.44,119.4658889013646L102.65125,119.46433212203844L102.68375,120.71827329596304L102.895,122.26373410938893L103.07375,124.67590139848666L103.49625,126.99656990945414L103.6425,128.26051512006657L103.88624999999999,124.83585833058783L104,116.01664490128316L104.0975,119.96743129892057L104.16250000000001,123.10672357015427L104.4875,126.11638886304965L104.53625,122.13821328264187L105.21875,123.7035417422507L105.495,126.91859513850612L105.77125000000001,126.79541449065118L105.7875,127.11416571927002L106.1125,130.08815059666966L106.16125000000001,128.83279683766716L106.30749999999999,127.02838044037578L106.48625,116.36807567745257L106.8925,115.30411703586074L106.94125000000001,112.36652639984632L107.16875,116.51490793758306L107.20125,106.17164931483042L107.23375,107.41426188043363L107.705,111.28434836823028L108.16,113.54530081297742L108.28999999999999,107.83020841477189L108.355,109.1416540668218L108.485,112.02792843239781L108.66375000000001,102.46162813886885L109.08625,104.90005510021973L109.1675,106.0866371455069L109.4275,110.34599160877018L109.6875,103.21139729441305L109.8175,107.52390899533852L109.96375,109.20912607475127L110.11,112.19048447411197L110.28875,114.18893703968173L110.305,113.75011589297746L110.40249999999999,112.5808303040152L110.5,111.8709862863385L110.5325,111.72146512884169L110.58125,112.9333785560705L111.14999999999999,116.53848253562516L111.345,114.02765733189402L111.65375,109.68878661329532L112.0275,110.54394242692146L112.35249999999999,112.69219443036785L112.74249999999999,112.97031481680244L113.0025,115.20249481421648L113.1325,110.49278909113418L113.27875,111.90727236451477L113.3275,113.95121458014111L113.36,117.52012326475216L114.18875,113.85835693287132L114.2375,108.53690615634007L114.5625,109.88809472543558L114.595,113.63787878565793L114.61125,116.36435510635233L114.725,118.16859650233923L115.0175,118.95077693337451L115.4725,122.49570576675187L115.7975,120.40857796547849L115.83,121.52880596512128L115.92750000000001,122.27096316926226L116.35000000000001,122.77770776756563L116.43125,122.17528270404036L116.70750000000001,125.24644541805101L117,120.89974943490759L117.13000000000001,123.7432852874389L117.63374999999999,126.41036211731581L118.0725,126.06597062568825L118.44624999999999,123.43068501742879L118.91749999999999,122.51211749699027L119.09625,122.75279817631854L119.35625,125.60046680361111L119.58375,128.49928344262378L119.925,128.55437976279651L120.575,128.1118024426326L120.9325,130.32125341044824L121.01375,128.83687312767503L121.615,127.22495053555272L121.79375,129.6328969758282L121.89125,124.99705874013009L122.11874999999999,128.12925005743753L122.15125,114.16119639652503L122.67125,114.85423795186593L123.06125,110.97535253123577L123.25625,114.48994148105072L123.28875,109.48391836149875L123.38625,114.00173982023328L123.58125000000001,116.3961712367192L123.9875,120.22124227408347L124.44250000000001,121.91685319953231L124.47500000000001,124.53128201650341L124.53999999999999,127.77908252663559L124.78375,129.74306839531593L125.45,131.01913975859688L125.49875,125.46169047289264L125.79124999999999,127.38681747666519L126.08375000000001,129.52370350355608L126.36,131.67938419016102L126.40875,130.04420804711225L126.57124999999999,131.83675702305806L126.86375000000001,133.28708226095924L126.88,135.30384286979577L127.15625,137.13191992801032L127.205,133.08721338065573L127.75750000000001,135.03482688876718L127.78999999999999,135.54247716098814L127.90375,132.96525504996524L128.3425,131.66522829213866L128.48875,133.04348634930503L128.83,135.17487964542966L129.22,125.16278693206809L129.30125,127.63771864277554L129.39875,130.21538225145494L129.8375,130.9975138404954L130.1625,133.4756715442702L130.24375,133.73880682808178L130.48749999999998,135.49227583545593L130.56875,137.29962095460294L130.975,136.0626472478797L131.26749999999998,136.66499176731915L131.3325,135.67874199698457L131.41375,137.83420258796957L131.67374999999998,139.57951948081606L131.70625,137.79092362405498L131.96625,139.1652524979137L131.99875,140.54414383335416L132.09625,142.2577598146387L132.12875,143.599908451751L132.16125,134.10501610053603L132.35625,127.08251807423157L132.42125,124.88229332051559L132.79500000000002,127.8077602294703L132.94125,121.93466057150142L133.25,124.55272996794072L133.42875,127.15285483419113L133.46124999999998,128.3498517193128L133.55875,131.18514089769252L133.76999999999998,132.76810257985375L134.0625,134.6977966429667L134.69625,136.91747256946036L135.07,136.98014969675066L135.13500000000002,138.6108683032889L135.15125,138.8790351296255L135.265,139.40196071551676L135.54125,141.06906803891147L135.72,142.01302219325626L135.89875,142.8993785162011L136.0125,140.13320722957272L136.10999999999999,140.1734019795408L136.5,140.8086699994238L137.39375,142.2136665065962L137.45874999999998,142.77911985241442L137.67,141.74803289389374L138.04375,143.1083726406513L138.06,133.07729413062765L138.125,135.2851646277968L138.45,135.14314837558047L138.46625,136.14026473882475L138.48250000000002,138.25400399655666L138.61249999999998,139.53984069925474L138.9375,141.3503044432579L139.3275,136.0913809426189L139.44125,137.9812745876768L139.48999999999998,139.2267353813989L139.79874999999998,140.69566906236395L140.67625,142.21179771534858L140.82250000000002,137.82694657959243L140.855,139.14845637025613L140.92000000000002,139.69222054411597L141.0175,133.7423242867986L141.06625,131.59434459542896L141.18,112.6670856244905L141.31,115.00306517978068L141.35875,116.69629646968113L141.55375,114.11523375280838L141.9925,115.35639317381377L142.0575,117.13489125496675L142.23625,121.02484627267883L142.415,123.51187997553296L143.52,125.66592953286265L143.7475,124.53485683712884L143.8775,119.26891178987596L144.10500000000002,121.89494189918327L144.12125,118.57730269766776L144.54375,120.91824177804823L144.77125,124.50974310387022L145.17749999999998,127.73574024044915L145.64874999999998,129.69280354216463L145.6975,130.97343629861493L146.12,132.1379311104267L146.4125,134.28953736817434L146.4775,134.06198103601105L146.88375,134.9466204680032L146.9975,137.1162613337281L147.30625,138.47382986073245L147.72875,137.24655443286326L147.9725,128.02442601392553L148.10250000000002,129.1905539033767L148.11875,128.3708874313196L148.47625,130.09852539660315L148.54125,128.4586860369868L148.76874999999998,129.4039284701749L148.96375,118.4367718323115L149.09375,122.30117385328683L149.41875000000002,124.40756310514395L149.565,125.43797348457184L149.71124999999998,128.18949500594712L149.74375,127.4372792449603L149.76,128.99564473066647L150.06875,131.6540278668216L150.1175,128.50442476247846L150.26375,130.62440712351855L150.865,133.08290626996254L151.125,135.0910978631839L151.30375,136.79066396384587L151.59625,137.7691642201566L151.75875000000002,135.4902101299128L151.775,135.83572375337596L151.98624999999998,137.2031309429568L152.0675,138.70074358954304L152.08375,138.26948097956029L152.45749999999998,138.01322394908132L152.52249999999998,139.6034705988832L152.76624999999999,137.2576344627845L153.25375,135.05811426624692L153.4,134.82979410838618L153.44875,136.97791045681805L153.5625,136.89821635400475L153.72500000000002,138.81959125715153L153.77374999999998,139.88190313356677L153.855,139.90907452803322L154.01749999999998,137.51064791948914L154.4075,139.3793437162934L154.55374999999998,134.69598156828764L154.86249999999998,134.54449647291344L155.13875000000002,135.7182322720583L155.935,137.93940227488366L156.14625,139.27232781150244L156.195,138.6056792325954L156.69875000000002,140.29497064380223L156.715,136.00482838457364L156.99124999999998,132.91862417504174L157.15375,133.7633349515049L157.235,135.3580112045765L157.41375,137.1732388423856L157.51125,139.04191715584315L157.625,137.89355812247766L157.9175,135.39505330736657L157.99875,137.3965732311535L158.07999999999998,136.4836848127142L158.3725,136.9935136393606L158.55124999999998,137.40469215117986L158.6,137.70714849107247L158.92499999999998,138.98073868894417L159.055,139.9515135327093L159.2175,140.7247509886193L159.4125,137.75090107965113L159.78625,138.4174446429598L159.86749999999998,137.8760098811695L160.85875,138.08061527464503L160.875,139.81921476729224L160.94,140.47236108768408L161.395,137.8239679777581L162.09375,132.27982588869622L162.22375,129.7052830246031L162.35375,131.2619940826375L162.37,131.42640633071505L162.92249999999999,132.2640614838223L163.10125000000002,134.2293374000975L163.29625,136.34739866059752L163.345,138.46533518381878L163.57250000000002,139.5237873931378L164.54749999999999,137.40662928561554L164.9375,137.9484916368822L165.42499999999998,137.1728328001065L165.48999999999998,132.36293718004293L165.7175,133.98880903080763L165.99375,129.62484571178848L166.09125,116.00572727278951L166.77375,117.48394610855789L167.03375,121.01156360973678L167.21249999999998,112.99534820479934L167.35875,116.87239800534158L167.48875,118.33329473049136L167.81375,121.14510879238898L167.84625,124.63395046544026L167.895,126.0165257781753L167.92749999999998,127.45633808973844L168.025,123.48207210484217L168.22,123.73982149446769L168.35,124.8513119009762L168.39875,126.17959904063403L168.48000000000002,126.80231057976476L168.59375,126.0528398426438L168.62625,128.50392373786454L169.455,130.69793937601122L169.63375,130.11415284008842L169.76375,132.32763659388277L170.08875,134.4407816729189L170.105,136.37662784027475L170.13750000000002,129.9211257277993L170.365,131.82907286616606L170.43,131.94040108653437L170.57625,134.04361172996985L170.5925,125.86544769805064L170.67375,127.22372903753902L170.73874999999998,128.97282735420558L170.755,128.49117298760643L170.99875,130.27118209497564L171.5025,131.7578266254411L171.69750000000002,132.7209687732701L171.81125,129.86227728801373L171.89249999999998,124.23949854429888L172.12,126.90927995410094L172.26625,129.7548389729928L172.51,123.82751837147909L172.68875,127.08506369272996L172.8025,125.89066691774907L172.81875,128.98052919282546L172.965,131.50999095478366L173.5825,131.92394875506398L173.7125,130.82266655217796L173.72875000000002,129.17069270298947L173.79375000000002,131.2975688391092L174.31375,133.46233671472848L175.0775,135.25270005465956L175.1425,131.75163786074788L175.435,132.754012032252L175.51625,134.86881954828362L175.80875,136.24640421712746L175.8575,138.0605004594011L176.19875,139.798122940244L176.3775,138.9114323890079L176.7675,139.30797741324025L176.88125,140.42057166473026L177.1575,142.15579426780369L177.19,143.01564569634385L177.23875,143.1099593089783L177.58,140.916029850187L177.61249999999998,141.12933532616782L177.69375,142.64300264445228L177.8725,142.7155172673734L178.0675,142.12357621538158L178.34375,143.50360194787646L178.63625000000002,144.66397631596473L178.73375000000001,144.28776644274114L178.815,144.83112267514798L178.89625,145.7103154861438L179.18875,145.05546534390817L179.205,144.10390431970436L179.64374999999998,143.4098196880957L179.77375,143.31871970101326L179.93625,144.55734313481145L180.11499999999998,143.6606981882564L180.45625,144.83754182899293L180.74875,145.00905048096212L181.26874999999998,145.5969574036578L181.285,144.97709590635117L181.38250000000002,143.49698133052L182.22750000000002,143.38111388222256L182.26,142.48134067786032L182.4225,131.86057351979017L182.53625,130.91694422156107L182.975,131.35407373241028L183.31625,130.42402371388306L183.47875000000002,132.29417177092168L183.73875,134.73684181346124L183.77124999999998,136.13958568899594L183.88500000000002,138.133384118031L184.405,139.35859107049353L184.48624999999998,139.01877175013067L184.66500000000002,136.03621117836096L184.74625,136.1919508683278L185.44500000000002,137.10560535053426L185.49374999999998,138.85944204065794L185.81875,136.09769333217113L185.91625000000002,134.27142896286855L185.9325,136.27932883981026L186.355,137.70149660352874L186.46875,137.48542252467348L187.47625000000002,139.3428266572077L187.4925,139.10507223186295L187.63875000000002,134.13650247613253L187.7525,136.18181964104113L187.80125,136.41914196471635L187.915,137.97742562404179L187.96375,136.7457879879721L188.32125000000002,138.60020610168905L188.5,139.962487657396L188.67875,140.12761614048665L188.84125,138.64162020923462L188.87375,139.2777202703068L188.89000000000001,140.63971013689286L188.93875,139.38611891744358L189.32874999999999,134.53121342053058L189.42625,135.98689018031163L189.49124999999998,134.2522236152442L189.79999999999998,130.49220545105368L189.9625,132.49070290039984L190.0925,134.16545779337395L190.28750000000002,136.08791809428732L190.9375,136.19544479466907L191.08375,135.53972662567122L191.1,135.34336983317587L191.23000000000002,128.34675521326406L191.37625,131.05555579787435L191.945,133.30131788606872L192.4,134.6872263450578L192.44875,136.68450142831958L193.09875,138.67132506717343L193.48875,140.17360829924152L193.65125,141.7684930208969L194.545,143.29466567909878L194.75625,144.45698156054033L194.935,143.2855551304323L195.2275,144.00986503067568L195.8125,140.96263908564376L195.89374999999998,142.00593523989016L195.91,143.5549395865916L195.9425,139.54543273611665L196.17,139.46924994398245L196.36499999999998,140.6428786764941L196.5275,141.66277488254286L196.73874999999998,142.4923341296398L196.82,143.9465817827786L196.83625,144.78712332816252L197.08,137.26942873246998L197.1775,137.11161790098853L197.34,138.50291853615886L197.73,139.67051689017802L198.00625,141.32908730938706L198.36375,140.06385735665302L198.8675,141.8428382809497L198.98125,140.11517024126152L199.03,141.14127788314738L199.16,142.39556758930766L199.42000000000002,143.613771927414L199.48499999999999,143.92344058662843L199.56625,145.15615677264628L199.59875,141.31504056090682L199.63125,142.8887196815383L199.68,144.16483041691956L200.24875,142.85647437209911L200.3625,143.61939756757542L200.6225,144.28265079401802L200.9475,144.62363056963764L201.4025,145.5915214024581L201.435,145.96837147857622L201.45125000000002,146.71086118640378L201.48375,147.72210835946308L201.58124999999998,148.5197581687348L201.7275,145.79690253882598L201.825,136.94343597823476L201.90625,138.8211135858655L202.3775,139.49890450263263L202.605,137.77789788605588L202.78375,137.694125577019L202.94625000000002,138.56894377639134L203.01125000000002,140.0893514425751L203.0275,141.70483734061463L203.48250000000002,139.10740594017966L203.62875,122.83450303031618L203.75875,124.60550096323014L204.0025,125.96119069428174L204.01874999999998,128.83720749982407L204.21375,131.70737575752696L204.7175,133.55083251855615L204.86374999999998,135.55323180014716L205.075,137.31598412631462L205.12375,135.97253625433964L205.14000000000001,137.26945869416522L205.22125,130.68018084759322L205.3675,133.2993084458532L205.4975,133.47898429520131L205.61125,135.78319537453396L205.6275,137.46860781266497L205.90375,135.04143668868923L206.39125,136.81337655343106L206.55375,138.060167887253L207.155,139.83010620070644L207.30124999999998,138.24506665707133L207.3175,139.99296796007903L207.415,140.9725732957627L207.67499999999998,141.24712622854693L207.78875000000002,142.79751596935358L208.24375,138.3875299100643L208.26000000000002,140.1631552404667L208.40625,141.5574077752833L208.4875,143.05330721251565L208.66625,144.3899776828166L208.8125,145.62686046715115L209.04000000000002,145.81338301372176L209.21875,143.1654051285434L209.6575,144.575437535608L209.70624999999998,142.03279639477972L209.8525,143.36809180309442L210.25875,141.43760693835276L210.32375,143.02711090217076L210.47,144.04269579944219L210.6975,145.20324641707438L210.795,143.21490127926344L210.82750000000001,142.88663907789604L211.38,143.94711477933566L211.4775,145.27005549494177L211.575,145.42699791401336L211.60750000000002,145.86515935135785L211.62375,147.035574794247L211.78625,148.12888094326115L211.8675,148.81931517842102L212.095,147.0769899358228L212.24125,147.81883726866835L212.50125,147.4497007543423L212.9075,148.03399372338788L213.21625,148.24179469167936L213.3625,148.59958082151354L213.655,149.15333993253938L213.94750000000002,148.82728214519932L214.09375,148.73250902828516L214.4675,148.8989373014859L214.5,149.45693928113505L214.51625,149.99228831819195L215.345,140.19009562620533L215.475,141.51187238763302L215.52375,141.6739788068183L215.67000000000002,143.27724024137848L215.94625,120.24627616636846L216.2875,123.21744531478755L216.53125,125.87719066927974L216.79125,128.8273689740491L217.11625,131.64106038874672L217.23000000000002,134.22036964360595L217.34375,135.017786398752L217.425,132.11929084148784L217.92874999999998,134.33975488679874L218.05875,136.45075222583904L218.09125,137.6459951217462L218.64375,139.5083324550116L218.6925,138.62962567976828L218.92,140.05607959390477L218.95250000000001,138.3284168874361L218.96875,138.4977126330095L219.1475,139.84966933261637L219.245,141.56014638537468L219.7,142.88963084734849L219.74875,144.1116764305388L219.765,139.05528230493462L219.86249999999998,140.3574608659555L219.895,141.2962793051347L220.17125,141.98801574485805L220.30125,143.42228468326428L220.44750000000002,143.53179850282865L220.69125,138.43099895674985L220.95125,137.8104221482552L221.58499999999998,138.28217329989167L221.78,140.17911919437654L221.8125,141.64370961637488L221.975,142.7682754472584L222.15375,144.13646677079473L222.2675,144.653344445577L222.38125,145.32857111711286L222.41375,146.06172999786006L222.69,144.90810360884007L222.99875,139.8330308596737L223.58375,141.34232173977895L223.74625,142.69801613632046L224.02249999999998,144.15261041419504L224.12,145.00376276575062L224.26625,143.66780179254494L224.75375,142.8293191172453L225.1275,133.41274338232097L225.14375,135.68214813308745L225.43625,137.87526083740892L225.89124999999999,136.74572015300035L225.9725,138.06554667920048L226.18375,133.8548206696228L226.2,135.96094417885035L226.41125,135.21131702181611L226.54125000000002,137.29219023289588L226.6225,137.3961313655351L226.655,138.80071074771004L226.67125,138.48780414468453L226.99625,140.27331326804162L227.07750000000001,138.02368660746123L227.305,138.12521502620936L227.4675,139.4642560950726L227.54875,131.28732672048562L227.6625,126.49751422214834L227.90625,129.34535286872332L227.97125,131.89535062611222L228.16625000000002,134.3830987488386L228.735,136.61353798680787L228.88125000000002,137.64237000939042L228.9625,139.43231898923742L229.66125,141.26332311957086L229.7425,142.76164964553857L229.88875000000002,143.9630226933254L229.98625,138.22096607310544L230.165,139.51332537418693L230.23,141.33319847986706L230.48999999999998,142.76102653555205L230.70125,141.43093964991553L231.02625,141.4314444411181L231.1725,143.05666899245463L231.3025,141.6830078121391L231.6275,130.22469193214147L231.8875,131.56236149086627L232.21249999999998,133.37262341989575L232.26125,135.7365353560392L232.52124999999998,136.59021726978483L232.74875,131.57249965759843L232.78125,133.91935100461995L232.96,134.98949806537425L233.935,134.8418388757266L234.08124999999998,135.8832234245299L234.0975,137.08935181315567L234.585,137.71069444187887L234.89375,139.05596079932636L234.9425,140.06673056116986L235.3,141.6388053013719L236.015,143.12294949319573L236.35625,142.729700181093L236.45375,143.9561932407321L236.48625,144.9559077211181L236.8275,146.06553845796702L237.185,146.9232933777423L237.65625,147.62162403675248L238.17625,141.28563788239586L238.40375,142.89651660877155L238.66375,143.86729490739023L238.85875,145.05593275287475L239.8175,145.21038078888773L240.0775,146.34450709142084L240.58124999999998,146.7900213334355L240.71125,142.6445358821141L241.05249999999998,143.9656835453302L241.45875,144.97296156298512L241.54000000000002,144.2024905783129L241.75125,145.26526407438993L241.9625,144.99974631055824L242.06,146.09408859657043L242.7425,145.14238282174315L242.75875,146.33459887989596L242.84,147.09912815017663L242.92125,148.0722088850229L243.08374999999998,148.89047644831643L243.57125000000002,149.7267677499022L243.7825,150.4542623693253L244.02625,139.5411638075499L244.3025,141.3452497842299L244.74125,142.03389189162004L244.7575,143.61773031236817L244.88750000000002,144.62418933738152L245.0825,142.8382401305039L245.13125000000002,143.95748076644682L245.2775,145.20697126805442L245.52125,146.21784384220615L245.58625,145.06724935648637L245.61875,144.87359925523418L245.8625,140.31396768977427L246.155,141.88624042647703L246.44750000000002,143.03621594591547L246.69125,143.05275719002137L246.85375000000002,142.90595543969064L246.9025,144.11710291503175L247.0975,145.3520625458837L247.11375,144.3986992553551L247.17875,142.05007978023204L247.63375000000002,143.59659454423695L248.05625,144.99855060194014L248.5925,145.8171721323431L248.67375,141.57041906714673L248.83625,141.2049857077686L249.42125000000001,142.45183846528354L249.5025,143.90538859063366L250.2825,143.17924590681574L250.3475,144.24608210256156L250.6725,145.23372457166425L251.45250000000001,146.27283612199216L251.46875,146.8960239715228L251.81,147.873763415093" style="fill: none;" fill="none"></path></g></g></g></g><g opacity="0.2"><g><g><g><path stroke="rgb(255, 112, 67)" stroke-width="2px" d="M33.65375,-273.2412084341049L33.7025,8.389801674418983L34.027499999999996,-93.3204168478648L35.01875,108.0851489239269L35.067499999999995,-62.91892919937771L35.21375,-29.611155331134796L36.221250000000005,24.892103566063785L36.3025,-76.98363986942505L36.64375,-121.64213767316609L36.724999999999994,104.56891968184048L36.83875,18.850672635767193L36.93625,-25.937085787455253L37.504999999999995,92.84658620092604L37.5375,-140.33892297744754L37.667500000000004,74.59860284460915L38.13875,-89.49685471587715L38.46375,-2.3167263534333795L39.341249999999995,30.490037361780814L39.3575,-7.9983435802989575L39.682500000000005,-62.41769801245796L39.731249999999996,100.04031469590133L39.975,-98.72160100936894L40.02375,-10.377611325846786L40.04,95.68200895521376L40.2025,18.99340158700943L41.21,119.19123991661603L41.64875,92.56229241026772L41.908750000000005,13.39386161168417L42.0225,97.72750078969533L42.03875,54.51829273833168L42.575,117.67118248012329L42.802499999999995,59.985462884108216L42.9325,110.9439681155814L42.965,-212.38117692205643L43.013749999999995,81.01173910167482L43.04625,112.99692721168199L43.24125,147.22413023064533L43.403749999999995,134.29202668948304L44.1025,107.31752400762504L44.2325,77.0745655496915L44.3625,-91.31048199865555L44.72,109.42616522477732L44.785,98.0444007631805L44.93125,118.24553904599613L44.99625,103.07608256902958L45.028749999999995,-43.29254902733696L45.28875,-71.92265633742016L45.37,77.55323654413223L45.4025,-183.4194893042247L45.5325,-26.067260013686294L45.629999999999995,62.8799164228969L45.64625,107.22231365905867L46.085,67.41007232997153L47.23875,99.7914894769589L47.271249999999995,25.077506793869876L47.807500000000005,74.75628105468219L47.856249999999996,-15.814234587881279L48.1325,37.995699935489235L48.27875,147.25734978251987L48.295,14.937208652496338L48.392500000000005,135.8658414102263L48.408750000000005,74.05132293038896L48.49,69.41255096925629L48.7825,66.6981442703141L48.83125,95.89473197195265L48.9775,101.81266389952765L49.77375,69.20721785227457L49.8225,122.21126649280387L49.92,113.37638346023029L50.0175,-33.97249292002785L50.09875,126.59031626416576L50.26125,50.418511920505104L50.35875,73.681481656101L50.440000000000005,107.65214353137547L51.285000000000004,-71.69957419898778L51.36625,2.46890789270401L51.3825,96.64321903718842L51.675000000000004,50.37410621179476L51.886250000000004,76.9468742708365L52.0975,151.46150464564562L52.715,79.0677165587743L52.99125,-113.43774276309547L53.316250000000004,69.92118679152594L53.41375,93.26512124141055L53.5275,124.47764486240017L53.885,110.32086989283562L53.933749999999996,84.690185116397L54.112500000000004,103.26904883980751L54.16125,53.439212650060654L54.21,81.01664605405595L54.22625,55.74610653188492L55.006249999999994,116.72284393840367L55.10375,127.25407735506693L55.12,-54.511138902770156L55.4775,75.61806272466976L55.6725,66.12841468056041L55.835,18.38981697294447L56.322500000000005,105.03779887490803L56.50125,54.12287784285015L56.63125,96.31415114800134L56.728750000000005,39.314948081970215L57.24875,84.452057937781L57.31375,58.87828938828573L57.72,129.61259738604227L57.980000000000004,147.60333044826984L57.996249999999996,129.1713142742713L58.24,-75.70540087752876L58.305,137.6432412382629L58.58125,-130.2316030926175L59.15,59.129914369848024L59.28,-3.2613809969689935L59.605000000000004,118.00536361998981L59.832499999999996,62.34701107939083L59.97875,68.85455091132057L60.07625,126.80173149704933L60.10875,5.055873817867699L60.1575,59.37259484661949L60.27125,142.33517185019122L60.4175,45.07801629768478L60.645,103.54658636119629L60.6775,122.82141212953461L60.72625,101.34476462337706L60.85625,74.59070456690257L60.8725,0.14111157258352303L61.34375,62.30758600102529L61.441250000000004,108.73289242552386L61.831250000000004,98.18994052873717L62.1725,75.59363111191324L62.464999999999996,30.659924010435752L62.611250000000005,125.55920421414906L62.822500000000005,73.74513941672112L62.87125,-38.01464283466339L63.00125,60.79869077603021L63.65125,-58.38771969742245L63.9275,74.13452008697722L64.09,116.83890883458984L64.13875,50.36218511727122L64.46375,147.17672306588955L64.72375,102.35597257150543L65.01625,45.540242370631965L65.08125,19.74581568770939L65.21124999999999,138.67600735856425L65.4875,35.202376769648666L65.585,30.32334833674961L65.975,-16.870540817578622L66.18625,146.4937661025259L66.235,63.194661315944444L66.25125,18.345860699812583L66.38125,128.24537014961243L66.44625,92.4368188381195L66.56,-57.72090465492672L66.80375,116.15080822838677L67.35624999999999,119.75002832876312L67.42125,90.45846973194016L67.535,116.85281923413277L67.68125,90.98679967390166L68.03875000000001,-9.26165541675354L68.10374999999999,93.4144296348095L68.23375,-72.70594150490234L68.36375,90.29473519325256L68.42875000000001,133.0411848483814L68.75375,108.47399174504811L68.835,127.28656933705011L68.85125000000001,60.445242848661195L68.88374999999999,56.62938006387815L68.9325,142.2777638228403L69.1275,139.77277936786413L69.17625,114.83300048609573L69.2575,80.91424842013252L69.56625,99.21415632135337L69.82625,100.98789803849326L69.98875000000001,107.14663902256224L70.18375,146.42510837109552L70.60625,113.82099313206142L70.7525,136.56657410330243L71.32125,69.03726489345232L71.33749999999999,-83.29513000779686L71.37,121.12757784790462L72.085,69.87307508124245L72.215,138.52430074744754L72.36125,144.34504591508042L72.39375,47.93224903610018L72.475,-48.04009176625145L72.88125000000001,109.9179251094659L72.8975,121.36446723673079L73.06,83.0247094829877L73.0925,-5.488267978032416L73.17375,70.09114711814455L73.40125,102.59110842479599L73.49875,14.650159305996361L73.645,-108.84395119878982L73.88875,34.26840543084675L73.95375,82.0579514503479L73.98625,54.06415650579664L74.3925,-16.846462859047776L74.75,64.89438983466889L74.8475,118.14290195869074L75.12375,132.9553518626425L75.22125,148.7053308300674L75.64375,140.67405426833363L76.0175,90.41961934169132L76.13125,144.4517141079737L76.2125,137.25937720553742L76.42375,86.37394762039185L76.5375,74.1500514017211L76.78125,130.59448518852392L77.025,121.96870758467252L77.2525,101.60597879191238L77.82124999999999,118.396567819847L77.8375,82.64110516508418L77.85375,133.62516375631094L79.17,115.30993636449176L79.31625,145.61709043218028L79.46249999999999,125.48885281052853L79.56,56.31744230124685L79.95,145.24565218802957L80.71374999999999,99.10783165196577L80.84375,75.87617136703597L81.42875000000001,28.06725541088316L81.68875,132.52838990506197L81.7375,138.23510184635717L81.8675,85.26647204491827L81.91625,80.99100612269507L82.30625,131.79869808836114L82.37125,85.38794490363863L82.85875,76.61639176474677L83.2325,74.98689308100275L83.47625,58.1198705335458L83.76875,145.9007432245546L83.86625,137.55988935795094L84.12625,108.38537189033295L84.41875,134.44270733495551L84.435,66.065611584319L84.98750000000001,143.80447898432612L85.15,87.49299800395966L85.19875,81.7744607494937L85.215,63.41033145123056L85.2475,33.899588280253944L85.26375,37.62611653407416L85.67,133.34859141624636L86.20625,61.02933227353624L86.58,106.19880885879198L86.85625,80.15348660614755L87.36,84.26439279648993L87.79875,22.329967114660473L87.88000000000001,104.72477804621059L88.2375,101.25784304572475L88.54625,119.88008467025226L88.57875,146.74940469115973L88.79,116.39286612636512L89.05000000000001,54.226262761486915L89.52125000000001,84.48548562990294L89.57,140.16789955149093L89.97625,120.97382298939759L90.39874999999999,119.159311571055L90.675,73.89304056101373L91,96.03438118431303L91.2925,22.182404889000797L91.325,141.0569789070222L91.3575,128.48295211129718L91.455,92.90355400244394L91.91,112.61496591236855L92.1375,96.67576996154254L93.0475,95.18150718013445L93.11250000000001,136.37096647752654L93.2425,149.80362244736818L93.29124999999999,125.34637804826099L93.795,137.27393781310982L93.925,98.65509898463884L94.13625,103.93179317480987L94.2175,87.39664933085442L94.4775,-30.54987153079773L94.55875,136.74927703373962L94.59125,149.28920658884775L94.75375000000001,95.36697671810785L94.81875,118.98393959800401L95.28999999999999,150.59349442480337L95.485,151.07377067787777L96.33,57.49424884054395L96.44375,115.45953946974541L96.50875,35.85282056861454L96.6875,155.27479284608532L96.78500000000001,85.2196423312028L96.8825,-2.6865160531467818L97.24,76.83136932717429L97.64625000000001,140.50087789860035L97.6625,153.5194890393565L97.8575,118.9619761970308L98.03625000000001,97.92071388165155L98.085,92.66162504090202L99.01125,126.18218086825478L99.0925,151.85756974915662L99.10875,102.29787012934685L99.27125,154.53389230867225L100.45750000000001,153.6170704368916L100.63624999999999,122.332654621866L100.6525,-22.572611047161942L100.685,104.49166465302307L100.76625,98.04695738852024L100.7825,118.65440385374758L101.18875,46.4209077027109L101.27000000000001,116.69063193268245L101.31875000000001,142.70139001061517L101.44875,140.86845725940333L101.77374999999999,144.25897071303592L101.8225,148.39237078569002L101.83875,143.443271846407L102.0825,105.478982521428L102.3425,151.83826980657048L102.44,108.53184368213016L102.65125,119.4503211081028L102.68375,132.0037438612845L102.895,136.1728814302219L103.07375,146.38540700036617L103.49625,147.8825865081615L103.6425,139.63602201557822L103.88624999999999,94.01394722527927L104,36.6437240375413L104.0975,155.52450887765735L104.16250000000001,151.36035401125747L104.4875,153.20337649910815L104.53625,86.33463305897182L105.21875,137.7914978787303L105.495,155.85407570480473L105.77125000000001,125.6867886599567L105.7875,129.9829267768396L106.1125,156.8540144932663L106.16125000000001,117.53461300664479L106.30749999999999,110.7886328647534L106.48625,20.425332811143665L106.8925,105.72848926153446L106.94125000000001,85.9282106757164L107.16875,153.85034177721374L107.20125,13.082321710056725L107.23375,118.5977749708626L107.705,146.11512675839992L108.16,133.89387281570168L108.28999999999999,56.39437683092222L108.355,120.94466493527094L108.485,138.004397722582L108.66375000000001,16.36492549710804L109.08625,126.84589775237772L109.1675,116.76587555309135L109.4275,148.68018177813954L109.6875,39.00004846519894L109.8175,146.33651430366766L109.96375,124.37607978946632L110.11,139.0227100683583L110.28875,132.17501012980938L110.305,109.80072557263905L110.40249999999999,102.0572600033548L110.5,105.48239012724822L110.5325,110.37577471137047L110.58125,123.84059940112961L111.14999999999999,148.98441835161714L111.345,91.4302304983139L111.65375,70.63895014590686L112.0275,118.24034474955664L112.35249999999999,132.02646246138545L112.74249999999999,115.47339829471375L113.0025,135.29211479094292L113.1325,68.10543758339351L113.27875,124.63762182494003L113.3275,132.34669452077813L113.36,149.6403014262517L114.18875,80.90245994594362L114.2375,60.643849167558876L114.5625,122.04879184729522L114.595,147.38593532765904L114.61125,140.90264199260207L114.725,134.4067690662212L115.0175,125.9904008126921L115.4725,154.4000652671481L115.7975,101.62442775401804L115.83,131.6108579619063L115.92750000000001,128.9503780065311L116.35000000000001,127.33840915229584L116.43125,116.75345713231299L116.70750000000001,152.88690984414686L117,81.77948558661673L117.13000000000001,149.33510796022085L117.63374999999999,150.41405358620815L118.0725,122.96644720104004L118.44624999999999,99.71311454309357L118.91749999999999,114.24500981304381L119.09625,124.91892429027293L119.35625,151.2294844492442L119.58375,154.58863319373793L119.925,129.0502466443512L120.575,124.12860656115744L120.9325,150.20631212078862L121.01375,115.4774505827162L121.615,112.71764720645214L121.79375,151.30441493830747L121.89125,83.2745146188471L122.11874999999999,156.31897191320442L122.15125,-11.551286551687431L122.67125,121.09161194993389L123.06125,76.06538374556435L123.25625,146.12124202938543L123.28875,64.42971028553114L123.38625,154.66213294884395L123.58125000000001,137.94605398509236L123.9875,154.64688161036204L124.44250000000001,137.1773515285717L124.47500000000001,148.06114136924344L124.53999999999999,157.0092871178252L124.78375,147.4189412134389L125.45,142.50378202812539L125.49875,75.44464690155452L125.79124999999999,144.71296051061816L126.08375000000001,148.75567774557405L126.36,151.0805103696055L126.40875,115.32762275967333L126.57124999999999,147.96969780657025L126.86375000000001,146.34000940206977L126.88,153.45468834932478L127.15625,153.58461345194112L127.205,96.68485445446437L127.75750000000001,152.56334846177035L127.78999999999999,140.1113296109769L127.90375,109.7702560507589L128.3425,119.96498747169971L128.48875,145.44780886380207L128.83,154.35741931055156L129.22,35.05395251181391L129.30125,149.91210403914252L129.39875,153.41435472956962L129.8375,138.03669814185963L130.1625,155.77909087824324L130.24375,136.10702438238593L130.48749999999998,151.2734969018234L130.56875,153.56572702692617L130.975,124.92988388737041L131.26749999999998,142.0860924422741L131.3325,126.80249406397343L131.41375,157.23334790683455L131.67374999999998,155.28737151643466L131.70625,121.69356091320515L131.96625,151.53421236264208L131.99875,152.9541658523182L132.09625,157.68030364619983L132.12875,155.67924618576137L132.16125,48.65098493960169L132.35625,63.88003583749134L132.42125,105.08027053707177L132.79500000000002,154.13696241006255L132.94125,69.07676364978153L133.25,148.11535453589428L133.42875,150.55397863044507L133.46124999999998,139.12282368540764L133.55875,156.70274350310987L133.76999999999998,147.01475771930484L134.0625,152.06504321098328L134.69625,156.89455590790342L135.07,137.54424384236336L135.13500000000002,153.28733576213318L135.15125,141.29253656665483L135.265,144.108290988538L135.54125,156.07303394946373L135.72,150.50860958235958L135.89875,150.8765854227046L136.0125,115.23766564991737L136.10999999999999,140.53515472925372L136.5,146.5260821783708L137.39375,154.85863507114766L137.45874999999998,147.8681999647783L137.67,132.46825026720762L138.04375,155.35143036146957L138.06,42.797587540414604L138.125,155.15599910231927L138.45,133.8650021056334L138.46625,145.11431200802326L138.48250000000002,157.27765731614394L138.61249999999998,151.1123710235374L138.9375,157.64447813928643L139.3275,88.76106943686801L139.44125,154.99031739319778L139.48999999999998,150.43588252489764L139.79874999999998,153.91607219104964L140.67625,155.85695559221008L140.82250000000002,98.3632863577869L140.855,151.0420444862296L140.92000000000002,144.58609810885457L141.0175,80.19325797094238L141.06625,112.26252737310196L141.18,-57.67824511395561L141.31,136.02688117739226L141.35875,131.9353780787852L141.55375,90.88566930095354L141.9925,126.52682796286213L142.0575,133.1413739853435L142.23625,156.0344414320878L142.415,145.89518330122033L143.52,145.05237554882962L143.7475,114.35520257552463L143.8775,71.87540636459985L144.10500000000002,145.52921288294922L144.12125,88.7185498840279L144.54375,141.98669350147247L144.77125,156.83325503626838L145.17749999999998,156.76971446965925L145.64874999999998,147.30637325760392L145.6975,142.49913110666805L146.12,142.6183844167325L146.4125,153.65399368790287L146.4775,132.01397404654156L146.88375,142.90837535593244L146.9975,156.64302912525213L147.30625,150.69194660377173L147.72875,126.20107558204067L147.9725,45.02527024348578L148.10250000000002,139.6857049084372L148.11875,120.99388918280602L148.47625,145.6472670841548L148.54125,113.7001318004396L148.76874999999998,137.9111103688677L148.96375,19.73236209154129L149.09375,157.0807920420646L149.41875000000002,143.36506637185812L149.565,134.7116668994228L149.71124999999998,152.95318869832488L149.74375,120.66733739607865L149.76,143.02093410202198L150.06875,155.57947609221767L150.1175,100.1579968233903L150.26375,149.7042483728793L150.865,155.2093985879587L151.125,153.16482220217586L151.30375,152.08675886980362L151.59625,146.57566652695337L151.75875000000002,114.9796233177185L151.775,138.9453463645445L151.98624999999998,149.5097956491841L152.0675,152.17925740881927L152.08375,134.3881174897154L152.45749999999998,135.70691067477065L152.52249999999998,153.91569044710033L152.76624999999999,116.14510923789607L153.25375,115.26243249740864L153.4,132.7749126876394L153.44875,156.31095759270508L153.5625,136.18096942868496L153.72500000000002,156.1119653854726L153.77374999999998,149.44271002130378L153.855,140.15361707823143L154.01749999999998,115.92480844259262L154.4075,156.1976058875314L154.55374999999998,92.54572223623592L154.86249999999998,133.1811306145456L155.13875000000002,146.28185446436206L155.935,157.92993230031183L156.14625,151.2686576410714L156.195,132.6058420224322L156.69875000000002,155.49859334466356L156.715,97.3935480515162L156.99124999999998,105.14278628925481L157.15375,141.36573193967342L157.235,149.71009748222102L157.41375,153.51028758266736L157.51125,155.860021976961L157.625,127.55832682218815L157.9175,112.90850997136698L157.99875,155.41025254523586L158.07999999999998,128.26768904676038L158.3725,141.58197307917806L158.55124999999998,141.1052987575531L158.6,140.42925555010635L158.92499999999998,150.44305046978923L159.055,148.68848712659545L159.2175,147.68388809180922L159.4125,110.98625189893777L159.78625,144.41633671273786L159.86749999999998,133.00309702505666L160.85875,139.92206381592484L160.875,155.46661020111708L160.94,146.35067797121076L161.395,113.98842998842397L162.09375,82.38254708713954L162.22375,106.5343972477648L162.35375,145.27239360494744L162.37,132.90611656341287L162.92249999999999,139.80295786178775L163.10125000000002,151.91682064657408L163.29625,155.4099500050975L163.345,157.52676389281018L163.57250000000002,149.0498572770092L164.54749999999999,118.35220631791485L164.9375,142.82525279828243L165.42499999999998,130.19190326912533L165.48999999999998,89.07387659947076L165.7175,148.62165568768978L165.99375,90.34917584061623L166.09125,-6.566338678201026L166.77375,130.787915630473L167.03375,152.7601211203469L167.21249999999998,40.84940956036251L167.35875,151.76584621022144L167.48875,131.48136525683933L167.81375,146.45143534946772L167.84625,156.03352552290178L167.895,138.45970359279048L167.92749999999998,140.41464889380666L168.025,87.71367824077606L168.22,126.05956600109735L168.35,134.8547255595525L168.39875,138.13418329755464L168.48000000000002,132.4067144319415L168.59375,119.30760320855511L168.62625,150.5636787948509L169.455,150.44408011933166L169.63375,124.86007401678297L169.76375,152.24899037803212L170.08875,153.4590873842438L170.105,153.79924334647754L170.13750000000002,71.8216067155202L170.365,149.00059711146685L170.43,132.9423550698492L170.57625,152.97250752088922L170.5925,52.26197141077784L170.67375,139.44826109293433L170.73874999999998,144.71471220420466L170.755,124.15628368821407L170.99875,146.29126406129865L171.5025,145.13762739963002L171.69750000000002,141.3892481037312L171.81125,104.1340539207061L171.89249999999998,73.63448985086546L172.12,150.9373126423193L172.26625,155.3648701430195L172.51,70.48163295785585L172.68875,156.4029715839877L172.8025,115.1410959429211L172.81875,156.78928966851285L172.965,154.27514681240748L173.5825,135.64956895758706L173.7125,120.9111267262035L173.72875000000002,114.3029280602932L173.79375000000002,150.4394540641871L174.31375,152.94524759530194L175.0775,151.36597011403907L175.1425,100.24207811554271L175.435,141.77537957578897L175.51625,153.9020871925685L175.80875,148.6446662367218L175.8575,154.38736663986413L176.19875,155.43672526782998L176.3775,130.93121742788287L176.7675,142.87688263133168L176.88125,150.4339199281401L177.1575,157.77279769546456L177.19,150.75430855320562L177.23875,143.95878182268805L177.58,121.17066472106511L177.61249999999998,143.04908460999528L177.69375,156.26600850901255L177.8725,143.3681488736636L178.0675,136.79610674745507L178.34375,155.92383354033032L178.63625000000002,155.10734562875908L178.73375000000001,140.9018775837289L178.815,149.7213287668096L178.89625,153.6230507851061L179.18875,139.16181406378746L179.205,135.53985510187016L179.64374999999998,137.16305800361764L179.77375,142.4988198172715L179.93625,155.704954038995L180.11499999999998,135.59089366926085L180.45625,155.4291345956218L180.74875,146.55262834868498L181.26874999999998,150.88811970791883L181.285,139.39834243059158L181.38250000000002,130.1759501480394L182.22750000000002,142.33830684754582L182.26,134.38338183859983L182.4225,36.27366909715864L182.53625,122.42428053749931L182.975,135.28823933005333L183.31625,122.0535735471381L183.47875000000002,149.12550428426928L183.73875,156.72087219631715L183.77124999999998,148.76428056880832L183.88500000000002,156.07756997934646L184.405,150.3854536426564L184.48624999999998,135.96039786686498L184.66500000000002,109.19316603243351L184.74625,137.5936080780294L185.44500000000002,145.32849569039212L185.49374999999998,154.6439722517712L185.81875,111.24195495578978L185.91625000000002,117.83504963914552L185.9325,154.35042773228554L186.355,150.50100647699503L186.46875,135.54075581497617L187.47625000000002,156.0594638500156L187.4925,136.96528240376048L187.63875000000002,89.41937467455864L187.7525,154.58967412521858L187.80125,138.5550428777933L187.915,152.0019785579708L187.96375,125.66104926334488L188.32125000000002,155.28996912514168L188.5,152.2230216587583L188.67875,141.61377248830266L188.84125,125.26765682796636L188.87375,145.00262081995606L188.89000000000001,152.89761893616785L188.93875,128.10379794239998L189.32874999999999,90.83706394831339L189.42625,149.08798101834125L189.49124999999998,118.64022452963722L189.79999999999998,96.65204197333918L189.9625,150.47717994451523L190.0925,149.23825183014074L190.28750000000002,153.39006080250772L190.9375,137.163185098105L191.08375,129.63826310469042L191.1,133.5761587007178L191.23000000000002,65.37722363405756L191.37625,155.434761059367L191.945,153.51317667981814L192.4,147.16040247595973L192.44875,154.6599771776754L193.09875,156.55273781685779L193.48875,153.69415738785435L193.65125,156.12245551579528L194.545,157.03021960291596L194.75625,154.9178244935142L194.935,132.74271725946002L195.2275,150.5286541328662L195.8125,113.53760558035637L195.89374999999998,151.3956006281078L195.91,157.49597870690437L195.9425,103.45987108184231L196.17,138.78360481477446L196.36499999999998,151.20553726909887L196.5275,150.8418407369819L196.73874999999998,149.95836735351216L196.82,157.03481066102782L196.83625,152.35199723661773L197.08,69.61017737123701L197.1775,135.69132041765582L197.34,151.02462425269186L197.73,150.17890207635034L198.00625,156.25622108226847L198.36375,128.67678778204652L198.8675,157.85366659962003L198.98125,124.56615788406795L199.03,150.37624666011996L199.16,153.68417494475014L199.42000000000002,154.5776109703713L199.48499999999999,146.7104585195581L199.56625,156.25060244680694L199.59875,106.7449946552515L199.63125,157.05183176722173L199.68,155.6498270353509L200.24875,131.08126996871496L200.3625,150.48570632686216L200.6225,150.2519298320015L200.9475,147.69244855021435L201.4025,154.30253889784217L201.435,149.36002216363946L201.45125000000002,153.39326855685147L201.48375,156.82333291699695L201.58124999999998,155.69860645218026L201.7275,121.2912018696467L201.825,57.26223693291345L201.90625,155.72021205454237L202.3775,145.5990227535367L202.605,122.2888383368651L202.78375,136.9401747956872L202.94625000000002,146.44230757074223L203.01125000000002,153.77302043822903L203.0275,156.24421042297035L203.48250000000002,115.73052333626482L203.62875,-23.621623158454895L203.75875,140.54448235945569L204.0025,138.16239827374616L204.01874999999998,154.72135874970505L204.21375,157.5388900768529L204.7175,150.14194336781898L204.86374999999998,153.57482533446617L205.075,153.18075506182183L205.12375,123.88150540656513L205.14000000000001,148.9417606525951L205.22125,71.37668022844527L205.3675,156.87145683019318L205.4975,135.09606693933407L205.61125,156.52109508852786L205.6275,152.63731975584395L205.90375,113.19689657290775L206.39125,152.76083533610733L206.55375,149.28128989165026L207.155,155.75955102178784L207.30124999999998,123.97971076435512L207.3175,155.72407968714833L207.415,149.78902131691575L207.67499999999998,143.71810262360506L207.78875000000002,156.75102363661347L208.24375,98.6976553764608L208.26000000000002,156.1437832140881L208.40625,154.10568058863282L208.4875,156.51640214760684L208.66625,156.42001191552524L208.8125,156.75880552616175L209.04000000000002,147.49208593285746L209.21875,119.33360416193801L209.6575,157.2657291991895L209.70624999999998,119.14902612732517L209.8525,155.38575047792662L210.25875,124.0632431556781L210.32375,157.33264657653248L210.47,153.18295987488497L210.6975,155.64820197576452L210.795,125.319795038965L210.82750000000001,139.9322792655892L211.38,153.49139609229235L211.4775,157.17652193539672L211.575,146.83947968565755L211.60750000000002,149.80861228745846L211.62375,157.56931378024942L211.78625,157.96863628438828L211.8675,155.03322329485994L212.095,131.3960627524389L212.24125,154.49546326427824L212.50125,144.12747212540773L212.9075,153.2926304447982L213.21625,150.11200340630282L213.3625,151.81965599002112L213.655,154.13717193177175L213.94750000000002,145.89276205913887L214.09375,147.87955097605783L214.4675,150.39679176029233L214.5,154.4789570979774L214.51625,154.8104296517041L215.345,51.970361398326034L215.475,153.4078632404821L215.52375,143.13293657948572L215.67000000000002,157.70659315242017L215.94625,-87.0324005087217L216.2875,149.95796765055923L216.53125,149.8148988597095L216.79125,155.37897371697343L217.11625,156.96428312102537L217.23000000000002,157.434152937339L217.34375,142.1945371950666L217.425,106.0328308261103L217.92874999999998,154.32393129459686L218.05875,155.44972827720144L218.09125,148.40318118491106L218.64375,156.26936845440002L218.6925,130.72126470257837L218.92,152.89416482113302L218.95250000000001,122.77945252921845L218.96875,140.02137434317004L219.1475,152.0172796290782L219.245,156.95443986019947L219.7,154.8549910051127L219.74875,155.11008667925168L219.765,93.54773517449695L219.86249999999998,152.07706791514326L219.895,149.74564525774784L220.17125,148.21364370236793L220.30125,156.33070512892058L220.44750000000002,144.51742287890778L220.69125,92.52380304204092L220.95125,132.22523087180323L221.58499999999998,142.52793366461992L221.78,157.2516322447401L221.8125,154.82502341436017L221.975,152.8893679252101L222.15375,156.45018868262153L222.2675,149.30524351861743L222.38125,151.40561116093565L222.41375,152.66015992458495L222.69,134.52546610765987L222.99875,94.15737611717647L223.58375,154.9259396607263L223.74625,154.8992657051939L224.02249999999998,157.2439589150664L224.12,152.664133929751L224.26625,131.6441530336936L224.75375,135.28297503954835L225.1275,48.663561768001976L225.14375,156.10679088998586L225.43625,157.6132751763022L225.89124999999999,126.5798539933231L225.9725,149.9439854150017L226.18375,95.95828658342361L226.2,154.91605576189855L226.41125,128.46467260850798L226.54125000000002,156.02004913261365L226.6225,138.33160155928798L226.655,151.44192518728474L226.67125,135.6716447174549L226.99625,156.34289537825518L227.07750000000001,117.7770466622379L227.305,139.03897079494263L227.4675,151.5156257148418L227.54875,57.69496234920288L227.6625,83.38920173711246L227.90625,154.9759006878982L227.97125,154.84533044261235L228.16625000000002,156.77283185337566L228.735,156.6874911285316L228.88125000000002,146.90185821263324L228.9625,155.54185980786053L229.66125,157.7423602925717L229.7425,156.24658837924815L229.88875000000002,154.77538012340665L229.98625,86.54245649112595L230.165,151.1445590839204L230.23,157.712056430988L230.48999999999998,155.61147903671693L230.70125,129.46015767918695L231.02625,141.43598756194115L231.1725,157.6836899544837L231.3025,129.32005718929898L231.6275,27.099849012162952L231.8875,143.6013875193894L232.21249999999998,149.66498078116112L232.26125,157.01174278133033L232.52124999999998,144.2733544934955L232.74875,86.41304114792082L232.78125,155.04101312781373L232.96,144.6208216121627L233.935,133.51290616889793L234.08124999999998,145.25568436375923L234.0975,147.94450731078783L234.585,143.3027781003879L234.89375,151.16335801635353L234.9425,149.16365841776133L235.3,155.7874779631901L236.015,156.48024721961053L236.35625,139.1904563721683L236.45375,154.994630777484L236.48625,153.95333804459207L236.8275,156.05221508960756L237.185,154.6430876557198L237.65625,153.90659996784396L238.17625,84.26176249318651L238.40375,157.39442514615237L238.66375,152.6042995949586L238.85875,155.75367336223522L239.8175,146.60041311300463L240.0775,156.55164381421898L240.58124999999998,150.79964951156742L240.71125,105.33516682022149L241.05249999999998,155.856012514275L241.45875,154.03846372187965L241.54000000000002,137.26825171626277L241.75125,154.83022553908327L241.9625,142.61008643607298L242.06,155.94316917068014L242.7425,136.5770308482978L242.75875,157.06454340327116L242.84,153.97989158270258L242.92125,156.82993549863912L243.08374999999998,156.25488451795857L243.57125000000002,157.2533894641739L243.7825,157.00171394413337L244.02625,41.323276751571235L244.3025,157.5820235743498L244.74125,148.23167085813154L244.7575,157.8722760991012L244.88750000000002,153.68232056250173L245.0825,126.76469726860523L245.13125000000002,154.03064648993313L245.2775,156.4523857825229L245.52125,155.31569700957172L245.58625,134.7118989850084L245.61875,143.1307483439644L245.8625,99.27728360063499L246.155,156.03669505680185L246.44750000000002,153.38599562086165L246.69125,143.20162838697433L246.85375000000002,141.58473968671427L246.9025,155.01743019310135L247.0975,156.46669922355147L247.11375,135.81842964059777L247.17875,120.91250450412431L247.63375000000002,157.51522742028143L248.05625,157.61615512126852L248.5925,153.18476590596967L248.67375,103.34964148037965L248.83625,137.91608547336526L249.42125000000001,153.67351328291826L249.5025,156.9873397187847L250.2825,136.64396175245443L250.3475,153.8476078642739L250.6725,154.1225067935884L251.45250000000001,155.6248400749432L251.46875,152.50471461729873L251.81,156.67341840722494" style="fill: none;" fill="none"></path></g></g></g></g></g></g><g transform="translate(70, 178)" clip-path="url(#clip_1)"><clipPath id="clip_1"><rect width="260" height="21"></rect></clipPath><g><g><line x1="0" y1="0" x2="0" y2="5" style="visibility: inherit;" fill="rgb(0, 0, 0)" stroke="rgb(204, 204, 204)" stroke-width="1px"></line><line x1="32.5" y1="0" x2="32.5" y2="5" style="visibility: inherit;" fill="rgb(0, 0, 0)" stroke="rgb(204, 204, 204)" stroke-width="1px"></line><line x1="65" y1="0" x2="65" y2="5" style="visibility: inherit;" fill="rgb(0, 0, 0)" stroke="rgb(204, 204, 204)" stroke-width="1px"></line><line x1="97.5" y1="0" x2="97.5" y2="5" style="visibility: inherit;" fill="rgb(0, 0, 0)" stroke="rgb(204, 204, 204)" stroke-width="1px"></line><line x1="130" y1="0" x2="130" y2="5" style="visibility: inherit;" fill="rgb(0, 0, 0)" stroke="rgb(204, 204, 204)" stroke-width="1px"></line><line x1="162.5" y1="0" x2="162.5" y2="5" style="visibility: inherit;" fill="rgb(0, 0, 0)" stroke="rgb(204, 204, 204)" stroke-width="1px"></line><line x1="195" y1="0" x2="195" y2="5" style="visibility: inherit;" fill="rgb(0, 0, 0)" stroke="rgb(204, 204, 204)" stroke-width="1px"></line><line x1="227.5" y1="0" x2="227.5" y2="5" style="visibility: inherit;" fill="rgb(0, 0, 0)" stroke="rgb(204, 204, 204)" stroke-width="1px"></line><line x1="260" y1="0" x2="260" y2="5" style="visibility: inherit;" fill="rgb(0, 0, 0)" stroke="rgb(204, 204, 204)" stroke-width="1px"></line></g><g transform="translate(0, 8)"><text x="0" y="0" dx="0em" dy="0.95em" style="text-anchor: middle; visibility: hidden; font-family: Roboto, sans-serif; font-size: 12px; font-weight: 200;" fill="rgb(50, 49, 63)" stroke="none" stroke-width="1px">-2k</text><text x="32.5" y="0" dx="0em" dy="0.95em" style="text-anchor: middle; visibility: inherit; font-family: Roboto, sans-serif; font-size: 12px; font-weight: 200;" fill="rgb(50, 49, 63)" stroke="none" stroke-width="1px">0</text><text x="65" y="0" dx="0em" dy="0.95em" style="text-anchor: middle; visibility: inherit; font-family: Roboto, sans-serif; font-size: 12px; font-weight: 200;" fill="rgb(50, 49, 63)" stroke="none" stroke-width="1px">2k</text><text x="97.5" y="0" dx="0em" dy="0.95em" style="text-anchor: middle; visibility: inherit; font-family: Roboto, sans-serif; font-size: 12px; font-weight: 200;" fill="rgb(50, 49, 63)" stroke="none" stroke-width="1px">4k</text><text x="130" y="0" dx="0em" dy="0.95em" style="text-anchor: middle; visibility: inherit; font-family: Roboto, sans-serif; font-size: 12px; font-weight: 200;" fill="rgb(50, 49, 63)" stroke="none" stroke-width="1px">6k</text><text x="162.5" y="0" dx="0em" dy="0.95em" style="text-anchor: middle; visibility: inherit; font-family: Roboto, sans-serif; font-size: 12px; font-weight: 200;" fill="rgb(50, 49, 63)" stroke="none" stroke-width="1px">8k</text><text x="195" y="0" dx="0em" dy="0.95em" style="text-anchor: middle; visibility: inherit; font-family: Roboto, sans-serif; font-size: 12px; font-weight: 200;" fill="rgb(50, 49, 63)" stroke="none" stroke-width="1px">10k</text><text x="227.5" y="0" dx="0em" dy="0.95em" style="text-anchor: middle; visibility: inherit; font-family: Roboto, sans-serif; font-size: 12px; font-weight: 200;" fill="rgb(50, 49, 63)" stroke="none" stroke-width="1px">12k</text><text x="260" y="0" dx="0em" dy="0.95em" style="text-anchor: middle; visibility: hidden; font-family: Roboto, sans-serif; font-size: 12px; font-weight: 200;" fill="rgb(50, 49, 63)" stroke="none" stroke-width="1px">14k</text></g><line x1="0" y1="0" x2="260" y2="0" fill="rgb(0, 0, 0)" stroke="rgb(204, 204, 204)" stroke-width="1px"></line></g></g></g></g></svg>