<svg viewBox="0 0 330.0000305175781 200.00001525878906" xmlns="http://www.w3.org/2000/svg"><g><g><g><g><g><line x1="70" y1="178" x2="65" y2="178" style="visibility: inherit;" fill="rgb(0, 0, 0)" stroke="rgb(204, 204, 204)" stroke-width="1px"></line><line x1="70" y1="161.8181818181818" x2="65" y2="161.8181818181818" style="visibility: inherit;" fill="rgb(0, 0, 0)" stroke="rgb(204, 204, 204)" stroke-width="1px"></line><line x1="70" y1="145.63636363636363" x2="65" y2="145.63636363636363" style="visibility: inherit;" fill="rgb(0, 0, 0)" stroke="rgb(204, 204, 204)" stroke-width="1px"></line><line x1="70" y1="129.45454545454547" x2="65" y2="129.45454545454547" style="visibility: inherit;" fill="rgb(0, 0, 0)" stroke="rgb(204, 204, 204)" stroke-width="1px"></line><line x1="70" y1="113.27272727272727" x2="65" y2="113.27272727272727" style="visibility: inherit;" fill="rgb(0, 0, 0)" stroke="rgb(204, 204, 204)" stroke-width="1px"></line><line x1="70" y1="97.09090909090908" x2="65" y2="97.09090909090908" style="visibility: inherit;" fill="rgb(0, 0, 0)" stroke="rgb(204, 204, 204)" stroke-width="1px"></line><line x1="70" y1="80.90909090909089" x2="65" y2="80.90909090909089" style="visibility: inherit;" fill="rgb(0, 0, 0)" stroke="rgb(204, 204, 204)" stroke-width="1px"></line><line x1="70" y1="64.72727272727275" x2="65" y2="64.72727272727275" style="visibility: inherit;" fill="rgb(0, 0, 0)" stroke="rgb(204, 204, 204)" stroke-width="1px"></line><line x1="70" y1="48.54545454545454" x2="65" y2="48.54545454545454" style="visibility: inherit;" fill="rgb(0, 0, 0)" stroke="rgb(204, 204, 204)" stroke-width="1px"></line><line x1="70" y1="32.363636363636374" x2="65" y2="32.363636363636374" style="visibility: inherit;" fill="rgb(0, 0, 0)" stroke="rgb(204, 204, 204)" stroke-width="1px"></line><line x1="70" y1="16.181818181818187" x2="65" y2="16.181818181818187" style="visibility: inherit;" fill="rgb(0, 0, 0)" stroke="rgb(204, 204, 204)" stroke-width="1px"></line><line x1="70" y1="0" x2="65" y2="0" style="visibility: inherit;" fill="rgb(0, 0, 0)" stroke="rgb(204, 204, 204)" stroke-width="1px"></line></g><g transform="translate(60, 0)"><text x="0" y="178" dx="0em" dy="0.3em" style="text-anchor: end; visibility: hidden; font-family: Roboto, sans-serif; font-size: 12px; font-weight: 200;" fill="rgb(50, 49, 63)" stroke="none" stroke-width="1px">-0.01</text><text x="0" y="161.8181818181818" dx="0em" dy="0.3em" style="text-anchor: end; visibility: inherit; font-family: Roboto, sans-serif; font-size: 12px; font-weight: 200;" fill="rgb(50, 49, 63)" stroke="none" stroke-width="1px">0</text><text x="0" y="145.63636363636363" dx="0em" dy="0.3em" style="text-anchor: end; visibility: hidden; font-family: Roboto, sans-serif; font-size: 12px; font-weight: 200;" fill="rgb(50, 49, 63)" stroke="none" stroke-width="1px">0.01</text><text x="0" y="129.45454545454547" dx="0em" dy="0.3em" style="text-anchor: end; visibility: inherit; font-family: Roboto, sans-serif; font-size: 12px; font-weight: 200;" fill="rgb(50, 49, 63)" stroke="none" stroke-width="1px">0.02</text><text x="0" y="113.27272727272727" dx="0em" dy="0.3em" style="text-anchor: end; visibility: hidden; font-family: Roboto, sans-serif; font-size: 12px; font-weight: 200;" fill="rgb(50, 49, 63)" stroke="none" stroke-width="1px">0.03</text><text x="0" y="97.09090909090908" dx="0em" dy="0.3em" style="text-anchor: end; visibility: inherit; font-family: Roboto, sans-serif; font-size: 12px; font-weight: 200;" fill="rgb(50, 49, 63)" stroke="none" stroke-width="1px">0.04</text><text x="0" y="80.90909090909089" dx="0em" dy="0.3em" style="text-anchor: end; visibility: hidden; font-family: Roboto, sans-serif; font-size: 12px; font-weight: 200;" fill="rgb(50, 49, 63)" stroke="none" stroke-width="1px">0.05</text><text x="0" y="64.72727272727275" dx="0em" dy="0.3em" style="text-anchor: end; visibility: inherit; font-family: Roboto, sans-serif; font-size: 12px; font-weight: 200;" fill="rgb(50, 49, 63)" stroke="none" stroke-width="1px">0.06</text><text x="0" y="48.54545454545454" dx="0em" dy="0.3em" style="text-anchor: end; visibility: hidden; font-family: Roboto, sans-serif; font-size: 12px; font-weight: 200;" fill="rgb(50, 49, 63)" stroke="none" stroke-width="1px">0.07</text><text x="0" y="32.363636363636374" dx="0em" dy="0.3em" style="text-anchor: end; visibility: inherit; font-family: Roboto, sans-serif; font-size: 12px; font-weight: 200;" fill="rgb(50, 49, 63)" stroke="none" stroke-width="1px">0.08</text><text x="0" y="16.181818181818187" dx="0em" dy="0.3em" style="text-anchor: end; visibility: hidden; font-family: Roboto, sans-serif; font-size: 12px; font-weight: 200;" fill="rgb(50, 49, 63)" stroke="none" stroke-width="1px">0.09</text><text x="0" y="0" dx="0em" dy="0.3em" style="text-anchor: end; visibility: hidden; font-family: Roboto, sans-serif; font-size: 12px; font-weight: 200;" fill="rgb(50, 49, 63)" stroke="none" stroke-width="1px">0.1</text></g><line x1="70" y1="0" x2="70" y2="178" fill="rgb(0, 0, 0)" stroke="rgb(204, 204, 204)" stroke-width="1px"></line></g></g><g transform="translate(70, 0)" clip-path="url(#clip_0)"><clipPath id="clip_0"><rect width="260" height="177"></rect></clipPath><g><g><g><line x1="0" y1="0" x2="0" y2="178" fill="rgb(0, 0, 0)" stroke="rgb(60, 60, 60)" stroke-width="1px" opacity="0.25"></line><line x1="28.888888888888886" y1="0" x2="28.888888888888886" y2="178" fill="rgb(0, 0, 0)" stroke="rgb(60, 60, 60)" stroke-width="1px" opacity="0.25"></line><line x1="57.77777777777777" y1="0" x2="57.77777777777777" y2="178" fill="rgb(0, 0, 0)" stroke="rgb(60, 60, 60)" stroke-width="1px" opacity="0.25"></line><line x1="86.66666666666666" y1="0" x2="86.66666666666666" y2="178" fill="rgb(0, 0, 0)" stroke="rgb(60, 60, 60)" stroke-width="1px" opacity="0.25"></line><line x1="115.55555555555554" y1="0" x2="115.55555555555554" y2="178" fill="rgb(0, 0, 0)" stroke="rgb(60, 60, 60)" stroke-width="1px" opacity="0.25"></line><line x1="144.44444444444446" y1="0" x2="144.44444444444446" y2="178" fill="rgb(0, 0, 0)" stroke="rgb(60, 60, 60)" stroke-width="1px" opacity="0.25"></line><line x1="173.33333333333331" y1="0" x2="173.33333333333331" y2="178" fill="rgb(0, 0, 0)" stroke="rgb(60, 60, 60)" stroke-width="1px" opacity="0.25"></line><line x1="202.22222222222223" y1="0" x2="202.22222222222223" y2="178" fill="rgb(0, 0, 0)" stroke="rgb(60, 60, 60)" stroke-width="1px" opacity="0.25"></line><line x1="231.1111111111111" y1="0" x2="231.1111111111111" y2="178" fill="rgb(0, 0, 0)" stroke="rgb(60, 60, 60)" stroke-width="1px" opacity="0.25"></line><line x1="260" y1="0" x2="260" y2="178" fill="rgb(0, 0, 0)" stroke="rgb(60, 60, 60)" stroke-width="1px" opacity="0.25"></line></g><g><line x1="0" y1="178" x2="260" y2="178" fill="rgb(0, 0, 0)" stroke="rgb(60, 60, 60)" stroke-width="1px" opacity="0.25"></line><line x1="0" y1="161.8181818181818" x2="260" y2="161.8181818181818" fill="rgb(0, 0, 0)" stroke="rgb(60, 60, 60)" stroke-width="1px" opacity="0.25"></line><line x1="0" y1="145.63636363636363" x2="260" y2="145.63636363636363" fill="rgb(0, 0, 0)" stroke="rgb(60, 60, 60)" stroke-width="1px" opacity="0.25"></line><line x1="0" y1="129.45454545454547" x2="260" y2="129.45454545454547" fill="rgb(0, 0, 0)" stroke="rgb(60, 60, 60)" stroke-width="1px" opacity="0.25"></line><line x1="0" y1="113.27272727272727" x2="260" y2="113.27272727272727" fill="rgb(0, 0, 0)" stroke="rgb(60, 60, 60)" stroke-width="1px" opacity="0.25"></line><line x1="0" y1="97.09090909090908" x2="260" y2="97.09090909090908" fill="rgb(0, 0, 0)" stroke="rgb(60, 60, 60)" stroke-width="1px" opacity="0.25"></line><line x1="0" y1="80.90909090909089" x2="260" y2="80.90909090909089" fill="rgb(0, 0, 0)" stroke="rgb(60, 60, 60)" stroke-width="1px" opacity="0.25"></line><line x1="0" y1="64.72727272727275" x2="260" y2="64.72727272727275" fill="rgb(0, 0, 0)" stroke="rgb(60, 60, 60)" stroke-width="1px" opacity="0.25"></line><line x1="0" y1="48.54545454545454" x2="260" y2="48.54545454545454" fill="rgb(0, 0, 0)" stroke="rgb(60, 60, 60)" stroke-width="1px" opacity="0.25"></line><line x1="0" y1="32.363636363636374" x2="260" y2="32.363636363636374" fill="rgb(0, 0, 0)" stroke="rgb(60, 60, 60)" stroke-width="1px" opacity="0.25"></line><line x1="0" y1="16.181818181818187" x2="260" y2="16.181818181818187" fill="rgb(0, 0, 0)" stroke="rgb(60, 60, 60)" stroke-width="1px" opacity="0.25"></line><line x1="0" y1="0" x2="260" y2="0" fill="rgb(0, 0, 0)" stroke="rgb(60, 60, 60)" stroke-width="1px" opacity="0.25"></line></g></g></g><g><g><line x1="0" y1="161.8181818181818" x2="260" y2="161.8181818181818" fill="rgb(0, 0, 0)" stroke="rgb(153, 153, 153)" stroke-width="1.5px"></line></g></g><g><g><line x1="28.888888888888886" y1="0" x2="28.888888888888886" y2="178" fill="rgb(0, 0, 0)" stroke="rgb(153, 153, 153)" stroke-width="1.5px"></line></g></g><g><g><g><g><g><path stroke="rgb(255, 112, 67)" stroke-width="2px" d="M37.35333333333333,-3.3445591936748142L37.367777777777775,5.274309145783393L37.84444444444444,6.094870548519001L38.04666666666667,9.164546779583251L38.162222222222226,15.82816340886281L38.23444444444444,13.937462892634345L38.263333333333335,13.817153595740901L38.43666666666667,11.988576589750913L38.581111111111106,12.350510609543916L39.202222222222225,15.763315170444248L39.31777777777778,17.89798930820584L39.43333333333334,21.24820666949349L39.80888888888889,24.004012196018333L39.93888888888889,28.159762736647313L39.99666666666666,33.63421739612117L40.025555555555556,33.961527081020705L40.22777777777778,35.28915245079412L40.25666666666666,27.294485581834376L40.357777777777784,25.985859685771874L40.473333333333336,25.441831356204702L40.56,29.504231993932176L40.964444444444446,31.703336193428164L42.01888888888889,28.499281656750988L42.495555555555555,24.68872661907461L42.53888888888889,29.401117144229115L42.784444444444446,33.58633618930027L42.91444444444445,36.646539253344166L42.928888888888885,40.42698021705614L43.01555555555556,43.235651368611414L43.03,47.166410933111145L43.102222222222224,46.9866039406379L43.36222222222222,35.74255546265436L43.40555555555556,37.78622404944521L43.535555555555554,36.59300646635025L44.24333333333333,40.891259432558925L44.28666666666667,40.17627393357937L44.373333333333335,41.926115457661034L44.46,44.62665621795079L44.532222222222224,45.67932574936023L44.67666666666667,42.28999325177532L44.763333333333335,40.651748310995714L44.83555555555556,40.78119714473761L45.586666666666666,41.649070998085044L45.65888888888889,44.845577293987844L45.67333333333333,49.12261353724908L45.93333333333333,48.43358326193499L46.12111111111111,47.092445113921016L46.30888888888889,48.44021460764145L46.85777777777778,43.5743797925163L47.10333333333333,39.79408218771927L47.39222222222222,34.44481738223295L47.58,36.69612578923072L47.89777777777778,36.20763630491107L47.941111111111105,35.49682190762222L48.14333333333334,35.52544395969773L48.20111111111111,28.452003195976467L48.894444444444446,30.129401439342285L48.995555555555555,36.20458843772498L49.31333333333334,14.217261762577508L49.486666666666665,16.654467712767744L49.63111111111111,21.392287753717905L50.06444444444445,22.254369061882432L50.22333333333333,25.21580551024795L50.33888888888889,27.111170646443806L50.425555555555555,23.56978517208478L50.88777777777778,26.773200304260197L50.94555555555556,30.54197344139092L51.306666666666665,25.62205528516243L51.53777777777778,29.832098473075348L51.55222222222222,31.085114234059557L51.76888888888889,26.861545204232563L51.82666666666667,31.399061491092155L52.07222222222222,35.297840198983124L52.577777777777776,34.820870354186575L52.693333333333335,33.67179586673418L52.98222222222222,29.623936554561627L53.184444444444445,35.45877187551711L53.31444444444444,35.25821813836824L53.40111111111111,40.9679980001616L53.47333333333333,40.256430774261794L53.574444444444445,38.64450360894547L53.70444444444444,40.34406891766578L53.906666666666666,40.09825276967221L53.93555555555555,40.11941040896422L53.97888888888889,39.99065805258407L54.108888888888885,42.05219342820483L54.614444444444445,35.71243402823512L54.96111111111111,36.46524235462781L55.26444444444444,40.1224218310109L55.52444444444444,36.25805168200426L55.654444444444444,38.01251544292795L55.842222222222226,40.050588728650254L55.885555555555555,41.94837524989138L56.00111111111111,35.669683497800015L56.57888888888889,40.261367271434764L56.824444444444445,40.39428623394553L56.96888888888889,44.982631214879724L57.01222222222222,42.19168156031829L57.30111111111111,40.940364021608296L57.53222222222222,44.23057265022358L57.79222222222222,44.270916450200296L57.965555555555554,48.66134876194464L58.21111111111111,48.09233742209112L58.297777777777775,47.40980039982467L58.644444444444446,48.03867459732202L58.83222222222222,46.85635639401909L58.87555555555556,46.88884567034622L58.89,48.571476673942776L59.00555555555556,47.918895808371964L59.06333333333333,50.72183679688877L59.16444444444445,50.32770843310475L59.87222222222222,52.74537257881886L59.93,53.993570116063815L60.03111111111111,57.13772241885068L60.16111111111111,56.502788957851095L60.47888888888889,57.54392028549183L60.53666666666667,58.64620932718271L60.65222222222222,61.780466195419784L60.76777777777778,61.4600098936323L60.82555555555556,63.71593882368814L61.114444444444445,62.34760336973805L61.18666666666667,61.66284697821652L61.20111111111111,64.02740390668382L61.27333333333333,68.00751388962648L61.446666666666665,66.28892885550479L61.489999999999995,63.28035360581028L61.562222222222225,62.930667845853975L61.836666666666666,65.0573615807923L62.06777777777778,65.8479867246773L62.21222222222222,66.03643744994508L62.385555555555555,68.54712608078054L62.761111111111106,68.89455402344788L62.89111111111111,65.926169163332L63.39666666666667,67.5983319595995L63.41111111111111,66.54454746309298L63.44,66.63821718477006L64.07555555555555,64.24485433414577L64.19111111111111,62.460944618440664L64.32111111111111,59.3809180078416L64.35,59.5377219832703L64.42222222222223,57.61905701883051L64.78333333333333,58.62670483218351L64.79777777777778,58.787583398517306L64.94222222222221,56.64412233054933L64.97111111111111,60.21616763608956L65.04333333333332,63.537995639937364L65.24555555555557,65.81949345551344L65.33222222222221,67.12172571869887L65.46222222222222,67.51894927139344L65.67888888888889,65.18586839228313L65.76555555555557,65.17233283800472L66.44444444444444,63.3486414534857L66.53111111111112,62.140575376812535L66.77666666666667,67.5569737434019L66.86333333333333,71.32544176584898L67.57111111111111,70.87873751574273L67.67222222222222,64.96143206580399L67.74444444444444,61.26087824178797L67.93222222222222,62.29120949282178L68.46666666666665,63.754023708126276L68.66888888888889,68.4361845094502L69.17444444444445,74.60162540001187L70.37333333333333,76.82318349163148L70.50333333333333,75.48632955431268L70.63333333333334,69.44241510586386L70.72,68.50285197356054L71.06666666666666,70.86147843201014L71.74555555555555,67.85670185263471L71.86111111111111,58.826582959771606L72.38111111111111,64.04886704791551L72.61222222222223,70.64155686694473L72.65555555555555,70.45742983029797L72.77111111111111,71.73891319825375L72.81444444444445,69.92434077326858L73.16111111111111,74.89230388755503L73.21888888888888,76.27456586627451L73.65222222222222,76.80765417380529L74.20111111111112,65.49191946124448L74.46111111111112,67.69645965655819L74.54777777777778,66.92929780637998L74.77888888888889,67.55385690621563L75.03888888888889,71.75041916160862L75.05333333333334,71.13217999902233L75.54444444444445,74.92788911397318L75.68888888888888,71.33732430379989L75.73222222222223,73.96884522800475L75.74666666666667,77.27721915500699L75.77555555555556,78.51299014113948L75.78999999999999,76.66601866516851L76.1511111111111,75.83260213808809L76.62777777777778,77.79071889176899L77.20555555555556,72.41927369065779L77.65333333333334,74.55432109406362L78.04333333333334,76.61667400021753L78.11555555555556,74.17104007502367L78.43333333333334,72.90154420404589L78.70777777777778,71.59940984331925L78.92444444444445,68.1133340064566L79.15555555555557,61.43232636727263L79.57444444444445,64.12339995852471L79.61777777777777,67.83630277585029L79.97888888888889,67.27409108489441L80.35444444444444,66.64374368089526L80.6,69.96592682228963L80.88888888888889,74.63882259726856L81.14888888888889,77.4491814937901L81.17777777777778,81.65679072257109L81.20666666666668,79.90883666470464L81.29333333333332,76.9351982366734L81.69777777777779,77.98368269646807L81.9,74.88089507182994L82.7088888888889,64.66189703793539L82.76666666666668,67.42595639363638L82.92555555555555,67.79017620484635L83.37333333333333,67.79726491072505L83.4888888888889,71.52628849667387L83.67666666666668,70.37237372826581L83.7488888888889,73.34632568074336L83.98,75.00201450503921L84.05222222222223,75.07628517981657L84.08111111111111,71.11338938960824L84.22555555555554,70.12871663075633L84.28333333333333,70.69344030184378L84.70222222222222,75.23368163068668L84.87555555555555,78.68898199885984L85.62666666666667,80.96560606966906L85.78555555555555,82.1184063180345L86.03111111111112,79.45005323505454L86.43555555555555,84.18725357639711L86.81111111111112,84.88996048521048L86.98444444444445,82.75795536604105L87.14333333333333,85.9516085963657L87.18666666666667,85.93332161897946L88.01,87.53564100862225L88.08222222222223,89.87584120203952L88.09666666666666,89.42548049813114L88.24111111111111,90.8627086470746L89.29555555555555,93.26039039134409L89.45444444444445,94.84060857791906L89.46888888888888,97.54526498176259L89.49777777777777,89.8821934717591L89.57,79.34809700928601L89.58444444444444,82.79421561883964L89.94555555555556,85.12432714879414L90.01777777777778,83.19776274240415L90.06111111111112,81.74967088800122L90.17666666666666,79.4903637930875L90.46555555555555,80.45037665380455L90.50888888888889,80.00841129168663L90.52333333333334,81.09269278980896L90.74,84.20019467252027L91.05777777777777,82.29606880547173L91.24555555555555,85.618392401921L91.27444444444444,83.67247625214327L91.46222222222222,85.24631544615518L91.99666666666667,82.04888094662718L92.34333333333333,83.82242857151968L92.44444444444444,85.89546025834683L92.5311111111111,90.47650874728339L92.87777777777778,91.02443134526081L92.9211111111111,90.46152946878804L93.77333333333334,91.02421805627456L94.01888888888888,87.14770994054206L94.03333333333335,85.98075076759089L94.32222222222222,88.06654006894823L94.36555555555556,90.43627704454047L94.49555555555555,89.71354246654163L95.01555555555557,89.15345185645481L95.05888888888889,89.6708386487273L95.28999999999999,86.84129100884829L95.73777777777778,87.45230149434711L96.14222222222222,85.95417137981036L96.25777777777778,85.12065989167557L96.31555555555556,89.15163291216044L96.43111111111111,91.17516216358405L96.59,92.2596819622377L96.96555555555557,91.66428984149198L97.03777777777778,94.82198016512089L97.2688888888889,93.67251465402782L97.5,91.12275351435771L97.61555555555556,91.57582263880896L97.74555555555557,90.19138620095349L97.87555555555556,92.19469890710917L98.03444444444443,90.8793289833903L98.0488888888889,86.45205297342784L98.22222222222221,85.03094290548316L98.25111111111111,84.42835276239943L98.8,83.88764442426412L98.97333333333333,87.20986835575668L99.24777777777778,88.06454566656099L99.58,91.29557566717864L99.86888888888889,92.67902468738093L100.56222222222222,94.29703608783957L100.69222222222223,96.34866312373357L100.73555555555555,97.50332282417101L100.76444444444444,100.43461840390935L101.50111111111111,103.33068968337032L101.54444444444444,101.22933691438799L101.83333333333333,101.48858406949944L101.86222222222223,105.17081450452694L101.87666666666667,104.79324521232722L101.97777777777779,102.05893955260501L102.23777777777777,104.97545854172638L102.64222222222223,103.90197069276749L102.93111111111111,105.04118788035606L103.04666666666667,103.02278879884499L103.49444444444444,104.88854172390141L103.74000000000001,107.65115846748445L104,108.36504186021322L104.11555555555556,109.43257212551946L104.56333333333333,109.98270225311221L104.95333333333333,108.18866640299605L105.28555555555556,105.94103667790553L105.70444444444445,107.60031896101084L105.86333333333333,101.86238017943754L106.09444444444445,94.86237077816493L106.29666666666667,94.0170885226503L106.6,92.87222862879085L107.17777777777778,96.24991171092022L107.49555555555555,96.91948636512797L107.56777777777778,98.72067610422258L108.10222222222222,100.46621527319142L108.2611111111111,98.34755211106341L108.34777777777778,98.6844580357823L108.55,100.00172190306745L108.57888888888888,96.80906276959162L109.0411111111111,102.03988449882739L109.38777777777777,100.36865980507895L109.5611111111111,100.77666309765925L109.59,101.1680427479837L109.67666666666666,101.11942922393595L109.85,101.59560060651839L110.21111111111111,100.736570546033L110.61555555555556,101.16158382017684L110.64444444444445,100.85013816447041L110.70222222222222,100.6264472698088L110.91888888888889,101.60889818839651L111.5111111111111,102.7558004838201L111.55444444444446,101.11500600090106L112.32,104.8108307886925L112.36333333333333,102.58691435421223L112.50777777777778,102.20025854951567L112.76777777777778,101.76837571570333L112.78222222222222,99.88984964451973L113.02777777777779,101.26450020314317L113.07111111111111,100.84770246173984L113.56222222222222,102.21905263886114L113.5911111111111,102.75987986045358L113.69222222222221,102.61586516945746L114.08222222222221,105.27275949988127L114.21222222222222,104.89815948199707L114.51555555555557,107.12259991659869L114.86222222222221,109.15222835727901L114.93444444444444,110.52478052803501L115.02111111111111,110.31849836266709L115.41111111111111,108.53975289208513L115.7,106.88370166142232L115.77222222222223,108.23548414255865L115.9888888888889,104.4363535621512L116.06111111111112,104.58311719758588L116.68222222222222,105.60550527168624L116.74000000000001,106.23264739079347L117.04333333333334,106.6358481543664L117.07222222222222,106.82195859474031L117.30333333333333,108.64592244113817L117.33222222222223,109.77932253851566L117.41888888888889,103.82721485315246L117.44777777777779,103.02779523985224L117.70777777777778,100.97869082853711L118.04,103.7554685583608L118.17,104.15532907507523L118.44444444444444,101.62284446489711L118.60333333333334,102.3463189629405L118.63222222222223,103.37449888455257L118.7188888888889,102.75099817385016L118.90666666666667,103.63041693026405L119.16666666666666,103.94138833577016L119.73,104.14873314253879L120.06222222222222,96.69814108112426L120.12,97.26980909809906L120.13444444444444,97.29006567285263L120.23555555555555,101.06011018336672L120.48111111111112,103.72174337058401L120.64,107.076752254603L120.79888888888888,108.35574721097522L120.9,106.98128160248721L120.98666666666666,106.84140164785693L121.33333333333333,107.36622522538157L122.18555555555555,107.29394295642412L122.70555555555555,105.93533247475679L122.72,104.52702127186822L122.77777777777777,105.64544430524548L123.06666666666666,108.24399229829001L123.08111111111111,110.40627723841995L123.09555555555555,110.98365294933355L123.21111111111112,112.62182937738602L123.84666666666666,112.45497444823413L123.94777777777777,113.37444859413014L123.99111111111111,113.15935675340197L124.26555555555555,113.03317114798344L125.04555555555555,113.60675466545815L125.17555555555556,114.7813252568562L125.20444444444445,114.55970508318201L125.26222222222223,114.21856621211626L125.34888888888888,115.7840915246696L125.39222222222223,114.25903351032842L125.49333333333334,107.82489059201578L125.60888888888888,103.74553334399951L125.65222222222222,104.34877686354285L125.82555555555555,104.36134188758821L126.21555555555555,106.68622661443928L126.27333333333334,109.00355509419562L126.43222222222222,108.40020743269206L126.5911111111111,109.63323038532785L127.57333333333332,107.53638606222567L127.77555555555556,107.21147743718711L127.8911111111111,106.95477553640639L128.09333333333333,108.41019162355487L128.10777777777778,110.83305392780481L128.48333333333332,110.3727570584994L128.68555555555557,112.4834906244337L129.04666666666668,111.55720741931407L129.46555555555557,109.45303043876605L129.5088888888889,110.76820310831044L129.88444444444443,108.61908267629126L130.14444444444445,110.88780619687255L130.20222222222222,109.05176644258925L130.56333333333333,108.16146295482369L130.9388888888889,107.2564493675332L131.31444444444446,106.60676733595925L131.53111111111113,108.3540772012993L131.64666666666665,107.7248167265548L131.6611111111111,108.91406568039574L131.9788888888889,111.77871739719967L132.03666666666666,112.86186059312489L132.23888888888888,109.50095879080172L132.81666666666666,109.7887198023891L132.94666666666666,107.97775266513379L133.12,108.94534131537513L133.39444444444445,109.5217000053609L133.4377777777778,112.45498278535874L133.56777777777776,112.40771263304529L134.33333333333334,112.5381853816956L134.4922222222222,111.21132658301603L134.7522222222222,112.4141185217285L134.89666666666668,111.82820174963655L134.9111111111111,113.0989503854393L135.1711111111111,110.41815150000293L135.18555555555554,113.99939449637642L135.51777777777778,114.12606558916619L135.57555555555555,114.53916941899669L135.79222222222222,113.10410424362915L136.22555555555556,115.03844872093006L136.35555555555555,114.9265999290622L136.3988888888889,115.95979647440839L136.5,111.73843251924711L136.64444444444445,113.99887520470752L136.68777777777777,114.15949025740721L136.76000000000002,110.67238091926318L136.90444444444444,110.96817673634881L137.2511111111111,111.25512785963471L137.38111111111112,111.13323792932368L137.65555555555557,112.24565537853456L137.9011111111111,110.63489800657814L138.79666666666668,112.23130592483759L139.30222222222224,111.71642195899102L139.54777777777778,113.43763052515571L139.6922222222222,114.72002476996961L139.76444444444445,117.58297105114401L139.92333333333335,116.69112758957918L140.01,111.2089177695399L140.11111111111111,113.29981298611116L140.3711111111111,114.26669721510281L140.44333333333333,115.58805775447512L140.51555555555555,118.1977786440812L140.77555555555554,118.30196234050763L140.93444444444444,119.38654895635929L140.9777777777778,120.85168937753876L141.26666666666668,119.3017318904592L141.38222222222223,119.17820431423831L141.52666666666667,118.97860910726607L141.70000000000002,118.50211455691664L142.0322222222222,120.96064366999558L142.10444444444445,120.41616647417128L142.98555555555555,121.24266991050887L143,122.36829987318704L143.46222222222224,121.10737026902652L144.08333333333334,121.05849191985246L144.19888888888892,121.80757130806462L144.31444444444443,122.28260187144144L144.32888888888888,121.51463120865745L144.82000000000002,120.530105048879L144.9788888888889,122.28504053475675L145.1522222222222,118.91889010148513L145.39777777777778,115.06826183095569L146.26444444444445,115.06839456938474L146.61111111111111,116.54674217967319L147.04444444444445,115.3816128057914L147.10222222222222,116.87276529609707L147.30444444444444,116.47705508421906L147.55,115.70671666724697L147.63666666666666,116.14534593822904L148.24333333333334,117.45548435576328L148.47444444444443,118.28181081032474L148.63333333333333,118.45101111301476L148.76333333333335,119.22783218922044L148.87888888888887,119.03741302947029L149.1677777777778,118.55366817912574L149.19666666666666,120.01742070423926L149.23999999999998,119.87653672674654L149.26888888888888,120.63336722805248L149.35555555555555,117.19325579726883L149.64444444444445,117.01205702757245L149.6877777777778,120.15867772982024L149.76,119.64098669952196L149.89000000000001,118.23446831095745L150.9011111111111,117.97945324199348L151.19,118.99506829729386L151.20444444444445,120.4838085571943L151.23333333333332,118.46266890981146L151.43555555555554,118.24278525027509L151.49333333333334,119.74542595240877L151.62333333333333,120.32310240666497L151.63777777777779,121.19377994418528L151.71,120.44352072085923L151.7822222222222,119.83363066437501L151.99888888888887,122.25902710757413L152.4466666666667,122.75490125682082L152.62,120.07635360738966L152.7211111111111,120.18721032841205L152.79333333333332,120.74731318983316L152.99555555555554,122.54873178702458L153.12555555555556,123.47070556905093L153.5011111111111,123.91760344989336L153.60222222222222,124.08790318605L153.61666666666667,122.3575156990536L153.74666666666667,119.90824999892438L154.29555555555555,120.18141786400915L154.41111111111113,116.56033848761605L154.42555555555558,117.35187479075786L154.48333333333332,112.42063649842981L154.94555555555556,115.0094151373058L155.62444444444444,113.67037932814937L155.6822222222222,114.50158230404388L155.9422222222222,113.5688782643272L156.01444444444445,117.15261633965179L156.27444444444444,119.37944013672865L156.31777777777776,119.64859938562655L156.6211111111111,120.1629223684139L156.78,120.44031216832457L157.12666666666667,120.81935371631143L157.2277777777778,120.1873116404452L157.47333333333333,121.54335002452422L157.5022222222222,123.7328472327941L157.54555555555555,125.72914280749954L157.8488888888889,124.89588851278498L157.87777777777777,127.13191567462971L157.95000000000002,127.76921388611892L158.1088888888889,127.38094486011377L158.2822222222222,127.40492753970061L158.5277777777778,127.22089256196816L158.7877777777778,122.73484895623184L158.87444444444444,122.41450601338883L159.01888888888888,124.48018358882037L159.2788888888889,125.93709345731689L159.29333333333335,124.51218167568535L159.68333333333334,125.98837027939464L159.79888888888888,126.39100669859381L159.94333333333333,127.4307655646778L160.10222222222222,125.81837239236842L160.40555555555554,127.15556227842514L160.66555555555556,123.94765103579243L161.12777777777777,125.01701958295496L161.2288888888889,123.53403990822873L161.98,122.31761454772104L162.00888888888886,118.02530903833234L162.15333333333334,118.82476838994165L162.25444444444446,117.73452603268314L162.64444444444445,118.17158955573323L162.94777777777776,118.44864924235678L163.09222222222223,120.48982183376677L163.32333333333332,116.97525091277225L163.35222222222222,118.59869762946798L163.45333333333335,119.77807791456794L163.91555555555556,120.37503643795364L163.98777777777778,120.47413026428463L164.14666666666665,118.96371906304795L164.2188888888889,117.53052888676427L164.84,117.73080512638575L164.88333333333333,117.48546815580607L165.17222222222225,116.84100530499596L165.2588888888889,118.38226334940153L165.27333333333334,120.58108990796453L165.64888888888888,120.58353720292868L165.75,122.67444809901957L166.66,124.46488993296084L166.79,123.92347193947134L166.8911111111111,125.47671481961363L166.93444444444447,127.07749113333868L167.03555555555556,126.82628122485697L167.07888888888888,126.72687878610373L167.39666666666668,128.89765274714486L167.55555555555557,126.68857559353246L167.71444444444447,127.74101065182533L167.88777777777779,128.33190742738327L167.90222222222224,122.68760242083945L167.94555555555556,123.54493473460356L168.29222222222222,123.17563483611362L168.3788888888889,122.95042155503018L168.7111111111111,122.68709257096589L168.85555555555555,122.54303952850208L168.9711111111111,125.15124335310976L169.85222222222222,123.73758734787863L169.98222222222222,123.13003708024917L170.11222222222221,122.93448589140807L170.61777777777777,122.30128724602757L171.02222222222224,123.36639113372581L171.06555555555556,124.26677756778722L171.64333333333335,122.60627138289176L171.98999999999998,123.83304824292335L172.13444444444443,122.39829809160916L172.92888888888888,122.83635866244607L173.11666666666667,122.12319450020766L173.53555555555553,120.89330155944803L174.05555555555554,120.45747036941142L174.12777777777777,120.61520605990576L174.14222222222222,122.33767945872287L174.17111111111112,124.13139012242335L174.37333333333333,121.6142005985174L174.54666666666668,122.91580861807246L174.8788888888889,123.41852171665226L174.96555555555557,124.9402610689974L175.18222222222224,123.74690385734225L175.26888888888888,125.28747252164406L175.41333333333333,125.75595486591027L175.76000000000002,126.70421558366098L176.00555555555556,127.29271428574596L176.32333333333335,128.30794011504884L176.7711111111111,128.2462901245186L176.8722222222222,127.3812035030418L177.0311111111111,127.26396728471649L177.26222222222222,128.4762405615555L177.32000000000002,127.86930918322292L177.42111111111112,128.4578537148962L177.49333333333334,129.06937656806295L178.10000000000002,130.90544687562658L178.62,132.19647287134813L179.02444444444444,133.0599964455578L179.05333333333334,129.16882804784404L179.0677777777778,129.88600894547497L179.09666666666666,129.10721074012758L179.18333333333334,129.06150733826885L179.31333333333333,130.64971590906245L179.39999999999998,129.7156897507487L179.47222222222223,127.67631914165476L179.89111111111112,124.69435326246955L180.09333333333333,125.40641203404061L180.25222222222223,126.78922657087703L180.39666666666665,126.10144008539037L180.45444444444445,123.87186257223738L180.4688888888889,123.78072592614859L180.87333333333333,122.04344383260322L181.00333333333336,121.98518379454276L181.11888888888888,121.8522492171708L181.33555555555554,123.78330728955065L181.35,123.7304501028361L181.52333333333334,125.54193873058549L181.9711111111111,123.99931408250228L182.1011111111111,125.7869934054582L182.2888888888889,127.75728752202112L182.34666666666666,128.78869863993702L182.4188888888889,128.69718096604228L182.54888888888888,125.32077943313102L182.66444444444446,124.42602650168898L182.76555555555558,123.16579329841001L182.78,123.35044833605882L183.02555555555557,126.03249324054015L183.45888888888888,127.09701955725829L183.60333333333335,126.14030442414844L184.13777777777779,124.94420698249323L184.26777777777778,125.91484707168865L184.2822222222222,125.58840021745192L184.3688888888889,124.22306131122932L184.6,123.99710172789963L184.7011111111111,124.52753877218832L185.10555555555555,126.59165228165466L185.12,129.40851036377663L185.25,128.67235824358494L185.32222222222222,129.74806716975488L185.4811111111111,128.5553146386467L185.61111111111111,127.62889341869855L185.81333333333333,128.1457559777509L185.97222222222223,130.0804718355183L186.36222222222221,131.37001848161182L186.40555555555557,131.67244884263894L186.53555555555556,133.17582337366363L186.89666666666668,131.73687598085542L186.95444444444445,132.3806220021336L187.08444444444444,132.94203255894274L187.2866666666667,134.20774449682835L187.37333333333333,131.7744114135146L187.4022222222222,129.43000660548566L187.89333333333335,129.7236921048784L187.98,130.52923791460984L188.0666666666667,129.9329042662659L188.09555555555556,124.42610864902844L188.11,126.08916060210771L188.25444444444446,123.49135972036277L188.32666666666668,119.29543775187858L188.5288888888889,119.85361493490193L188.6588888888889,120.78113409374187L188.89000000000001,119.83395634857175L189.25111111111113,120.99073905614904L189.52555555555554,120.80161567442538L189.65555555555557,122.75643993172493L189.91555555555556,122.68764692107756L190.30555555555554,123.13747921504144L190.63777777777779,124.84432344152971L190.66666666666666,125.15217374982527L190.6811111111111,125.96690477101072L191.4177777777778,124.60420771310169L191.53333333333333,122.86278124091069L191.57666666666668,124.172035186649L191.70666666666665,126.10787044261806L192.25555555555556,126.74617347791305L192.70333333333332,126.25081424638869L192.99222222222224,125.53751953445591L193.19444444444446,127.17080714054804L193.26666666666665,126.05167646101408L193.71444444444444,126.82375896611339L193.83,128.24613231422452L193.85888888888888,129.89512164729948L194.35000000000002,130.39733027278234L194.39333333333335,129.6368149248963L194.59555555555556,130.41590918791778L194.63888888888889,126.90835831784445L194.79777777777778,129.08835475149937L194.88444444444443,125.61100582876128L195.28888888888886,125.27637800973778L195.33222222222224,125.56641664119475L195.34666666666666,124.28457838592018L195.43333333333334,124.434969760018L195.4622222222222,124.64017704528122L195.70777777777778,123.62821404656256L195.82333333333332,124.58750106642897L195.95333333333335,121.85945792245822L196.17,123.24618437268046L196.4011111111111,125.91452020429463L196.96444444444444,125.90700368779773L197.13777777777779,126.30517120335044L197.16666666666666,123.75721605548176L197.3111111111111,124.11230365895526L197.47,124.39024001841891L197.5711111111111,123.96569487412134L197.67222222222225,124.01516226669845L197.70111111111112,122.13527897689642L197.94666666666666,124.3257775499465L198.2211111111111,124.79697786976908L198.7411111111111,124.90301741481653L198.88555555555556,126.53046502635895L199.1311111111111,125.49711527902393L199.2177777777778,127.48619147066114L199.34777777777776,127.93763899504778L199.7811111111111,125.14319972344096L200.11333333333334,122.07111156471188L200.12777777777777,121.19832563172452L200.38777777777779,121.24765305056685L200.79222222222222,120.56920270351903L200.86444444444444,121.45363064314427L201.0522222222222,124.82656490177095L201.25444444444446,126.82272822991445L201.37,126.6517523423025L201.44222222222223,127.95132584725249L201.4711111111111,129.32811561096696L201.48555555555555,128.9315652561937L201.77444444444447,129.8231517388628L201.84666666666666,130.07742597235548L202.04888888888888,129.44203368450272L202.19333333333333,128.79318035492227L202.26555555555555,127.49041888551673L202.36666666666667,125.87155612244203L202.64111111111112,125.8475438583498L202.81444444444443,127.77076933761609L203.32,129.15822915599986L203.45,130.95249964617494L204.14333333333335,132.67307374488288L204.21555555555554,133.52879597190082L204.4322222222222,132.665288456088L204.5911111111111,131.16978973103082L204.64888888888888,130.75227123253265L204.88,127.17826243363719L205.06777777777776,127.80211786913758L205.35666666666668,127.18434070622384L205.48666666666668,128.87883720546694L205.60222222222222,127.91058981438688L205.89111111111112,124.59421604808541L206.12222222222223,125.38515737663626L206.4111111111111,126.39259630939101L206.45444444444445,126.62220697132682L206.68555555555557,126.097256189699L206.91666666666666,128.02549046811183L207.07555555555555,126.02319461072351L207.94222222222223,125.82939464120446L208.07222222222222,127.76138917027724L208.08666666666667,126.42182424768014L208.52,125.64369214757971L208.79444444444442,128.3126530652615L208.83777777777777,128.4948208473685L209.15555555555554,125.61451456873135L209.79111111111112,125.04681823365826L210.09444444444443,123.00807905455257L210.18111111111114,123.91643256140684L210.21,125.73916749185237L210.51333333333332,127.53305769579117L210.8311111111111,127.47316099522997L211.25,128.6449586763328L211.91444444444443,128.12407911412666L212.14555555555557,128.0576651386404L212.31888888888886,128.71575618409426L213.17111111111112,127.86038378898914L213.40222222222224,129.6285231166434L213.85,130.59582507775752L213.96555555555557,129.15517916963734L214.26888888888888,129.44907313656967L214.63,131.47235505276277L214.70222222222225,132.27775643319725L214.89000000000001,130.54122540738842L215.07777777777778,130.03166068054324L215.16444444444446,130.6121158692197L215.7711111111111,128.74564479512938L215.78555555555556,130.53593843230007L215.85777777777778,129.92855236844505L216.07444444444445,131.43445897921578L216.91222222222223,130.022472609502L217.15777777777777,130.88521782555154L217.54777777777778,129.72954075497202L217.5622222222222,130.10488279752832L217.67777777777778,131.6500911792749L217.85111111111112,132.34407678371375L217.89444444444445,130.6080613560699L218.02444444444447,131.67134352407223L218.2411111111111,132.35624328562756L218.29888888888888,131.31850751765793L218.32777777777778,132.4463941210187L218.54444444444442,133.24428919268283L218.80444444444444,133.50742758792012L219.06444444444443,134.4434459887134L219.2811111111111,135.2697931846087L219.42555555555558,135.5891560057712L219.4688888888889,133.94135768662014L219.64222222222222,132.02832258691947L219.65666666666667,133.88189611803904L219.71444444444444,132.83166896566928L220.11888888888888,133.7748032758862L220.49444444444444,132.83748082913482L220.97111111111113,132.74032669872543L221.1877777777778,134.16124279523342L221.70777777777778,134.51480640332994L221.78,132.10630852550705L222.47333333333333,132.8300115961445L222.53111111111113,131.01419109432322L222.82,131.62047810136946L223.51333333333335,133.413833338423L223.5277777777778,133.39788780232215L223.90333333333334,134.48577938444456L223.94666666666666,136.19286466468796L224.55333333333334,134.82239447435765L224.78444444444443,134.59445708562947L225.29000000000002,132.76016576054707L225.50666666666666,132.62471393435638L225.6222222222222,132.5722141429109L225.69444444444446,134.143867386397L225.70888888888888,134.30635273509506L226.18555555555554,135.70394695157583L226.43111111111114,136.17664977378672L226.47444444444446,136.64337229861775L226.51777777777778,137.77774221732417L226.70555555555555,138.64955563426793L227.09555555555556,140.22983361128126L227.35555555555555,140.05645560353292L227.45666666666668,141.59944110286284L227.55777777777777,139.35929005516593L227.87555555555556,139.35978856566544L228.17888888888888,140.74658246142317L228.36666666666665,136.98212175829502L228.87222222222223,134.78807413325762L229.20444444444445,133.13347608761893L229.24777777777777,131.61422790661666L229.43555555555557,130.1362645225043L229.49333333333334,131.72097518343378L229.58,131.725029273292L230.20111111111112,131.5457893887487L230.21555555555557,130.65116713553067L230.48999999999998,132.67398451112484L230.53333333333336,131.95959450191032L230.64888888888888,131.23218845324908L230.66333333333333,133.3241284185939L230.67777777777778,133.36084062257046L230.76444444444445,133.97027926930107L231.05333333333334,133.79918199317416L231.0822222222222,134.01041155598733L231.34222222222223,136.02084573605975L232.06444444444443,137.62648607590052L232.26666666666665,137.30279917672067L232.35333333333335,134.06867824091373L232.84444444444443,133.8163735444159L233.43666666666667,133.38989198524504L233.8411111111111,130.9362723097256L234.2311111111111,130.7310413046227L234.30333333333334,132.0576375093027L234.39,133.0394017525744L234.72222222222223,135.13843165444823L235.08333333333334,135.0340973309623L235.2566666666667,134.95727793892473L235.2711111111111,134.83921352913927L235.35777777777778,134.00041779832446L235.48777777777778,133.73437123923443L235.73333333333332,135.2667799575505L235.90666666666667,134.99322098683623L235.9933333333333,134.93075404311125L236.28222222222223,135.8745250254414L236.34,136.00093327783688L236.68666666666667,136.53655438515648L236.71555555555554,136.24034466214408L236.84555555555556,135.811951266534L237.56777777777776,135.77694380011414L237.91444444444443,134.58662501057884L237.92888888888888,134.91850795885912L238.24666666666667,135.96207587389856L238.7522222222222,135.3757248458449L238.76666666666668,134.76500486725317L239.11333333333332,133.9362034399384L239.14222222222222,132.53418524717588L239.15666666666667,133.38907471329648L239.59,133.90264337347645L239.95111111111112,134.60796496925332L239.99444444444444,136.4381109126454L240.02333333333334,135.8557963277413L240.24,136.76192992250202L240.32666666666668,136.7349292973395L240.61555555555555,136.09116156293757L240.76000000000002,137.92747463743L240.77444444444444,136.69351816358446L240.89,137.40104211995958L240.9477777777778,136.53746702516315L241.03444444444443,137.67165176761688L241.26555555555555,136.72724871170897L241.88666666666666,137.2585803974673L242.06,136.37391207407052L242.21888888888887,135.56597549185818L242.36333333333334,136.64388182674404L242.37777777777777,136.49362546237498L242.43555555555554,136.6624999434602L242.49333333333334,137.1336293722367L242.5511111111111,137.5605910844987L242.79666666666665,135.9182744413715L242.88333333333335,135.61900158300546L242.94111111111113,134.31493075963044L242.97,136.01514447060202L243.3311111111111,136.99317347896104L243.60555555555555,137.87826072456787L243.70666666666668,139.24217743286152L243.72111111111113,138.14077817407136L243.95222222222222,138.12712345894826L243.99555555555554,138.5756936457833L244.45777777777778,139.23585143949134L244.47222222222223,134.19012504132306L244.48666666666668,133.58943579516264L244.83333333333334,134.08754887266807L245.03555555555556,134.7376409210311L245.54111111111112,136.470393164223" style="fill: none;" fill="none"></path></g></g></g></g><g opacity="0.2"><g><g><g><path stroke="rgb(255, 112, 67)" stroke-width="2px" d="M31.171111111111113,-180.04632115364075L31.301111111111112,42.488237294283785L32.196666666666665,24.726178862831812L32.26888888888889,13.168606053699156L32.572222222222216,25.367096770893454L32.644444444444446,-12.260499163107434L33.48222222222222,-24.90557077256119L33.90111111111111,38.13476985151118L34.190000000000005,42.729473682967104L34.97,2.945434938777586L34.98444444444445,3.9115740765224896L35.27333333333333,3.639159852808177L35.53333333333333,-28.52623852816498L36.63111111111111,-1.6312204707752467L37.02111111111111,32.8776153922081L37.25222222222222,8.607382828539073L37.35333333333333,59.88958047194916L37.367777777777775,79.5558498935266L37.84444444444444,13.198168331926524L38.04666666666667,35.84300607442856L38.162222222222226,73.9473721114072L38.23444444444444,-2.605570012872855L38.263333333333335,12.761473682793717L38.43666666666667,-4.097862243652344L38.581111111111106,15.54187105460602L39.202222222222225,45.91806438836185L39.31777777777778,36.79453286257658L39.43333333333334,50.9544903852723L39.80888888888889,48.47632269967687L39.93888888888889,65.1137245243246L39.99666666666666,82.3734111000191L40.025555555555556,36.87874677506361L40.22777777777778,47.13349358602005L40.25666666666666,-44.09232123331591L40.357777777777784,14.291490370577037L40.473333333333336,20.576729720289073L40.56,65.85647073659031L40.964444444444446,51.393270790576935L42.01888888888889,-0.20345406098798913L42.495555555555555,-9.463102275674979L42.53888888888889,71.65328747846864L42.784444444444446,71.12594080242245L42.91444444444445,64.1045500879938L42.928888888888885,74.35775970870799L43.01555555555556,68.45138048583811L43.03,82.4647623977878L43.102222222222224,45.3715721585534L43.36222222222222,-65.27202980084853L43.40555555555556,56.149494133212364L43.535555555555554,25.869679613546907L44.24333333333333,79.52485893260348L44.28666666666667,33.74899127266625L44.373333333333335,57.657978101210176L44.46,68.90831179239534L44.532222222222224,55.14520856467161L44.67666666666667,11.809597259218057L44.763333333333335,25.91780873862181L44.83555555555556,41.94550665942106L45.586666666666666,49.45553096857939L45.65888888888889,73.5995330864733L45.67333333333333,87.59835690259933L45.93333333333333,42.23486011678523L46.12111111111111,35.026667632839896L46.30888888888889,60.566100911660634L46.85777777777778,-0.20500933582131076L47.10333333333333,5.780580396001994L47.39222222222222,-13.686879087578138L47.58,56.95347477089276L47.89777777777778,31.812095398252666L47.941111111111105,29.100624431263327L48.14333333333334,35.78300140120766L48.20111111111111,-35.19983844323591L48.894444444444446,45.22403806447983L48.995555555555555,90.87492311542684L49.31333333333334,-183.64800008860502L49.486666666666665,38.58725837685845L49.63111111111111,64.0290589766069L50.06444444444445,30.012509795752447L50.22333333333333,51.866906231099925L50.33888888888889,44.168404313651L50.425555555555555,-8.300914114171784L50.88777777777778,55.60249553485352L50.94555555555556,64.45940593426879L51.306666666666665,-18.655415529554524L51.53777777777778,67.72110661322421L51.55222222222222,42.36188628456811L51.76888888888889,-11.149454225193342L51.82666666666667,72.23562336780809L52.07222222222222,70.38600975816901L52.577777777777776,30.528234107927858L52.693333333333335,23.330325728113017L52.98222222222222,-6.806162379004717L53.184444444444445,87.97146612947637L53.31444444444444,33.453259982846L53.40111111111111,92.35536391084844L53.47333333333333,33.85239896449176L53.574444444444445,24.137308407913565L53.70444444444444,55.6400150331584L53.906666666666666,37.885925878178L53.93555555555555,40.30982773412359L53.97888888888889,38.831894668665804L54.108888888888885,60.60589906844226L54.614444444444445,-21.3450885360891L54.96111111111111,43.240483945066295L55.26444444444444,73.0368913168257L55.52444444444444,1.4788589965213537L55.654444444444444,53.80263263528999L55.842222222222226,58.39318906719035L55.885555555555555,59.02840430086311L56.00111111111111,-20.838394463062286L56.57888888888889,81.58642394976182L56.824444444444445,41.59055436199363L56.96888888888889,86.27765730023384L57.01222222222222,17.073177776553432L57.30111111111111,29.67852356758986L57.53222222222222,73.84240914474834L57.79222222222222,44.63401019573212L57.965555555555554,88.17519507624887L58.21111111111111,42.971240552988924L58.297777777777775,41.26697280190209L58.644444444444446,53.69853772900323L58.83222222222222,36.21550042520871L58.87555555555556,47.18124896287918L58.89,63.71514664454895L59.00555555555556,42.04567118124529L59.06333333333333,75.94829346645963L59.16444444444445,46.780554706400096L59.87222222222222,74.50434134765106L59.93,65.22734398191626L60.03111111111111,85.43508414517748L60.16111111111111,50.788389444351196L60.47888888888889,66.91409982063554L60.53666666666667,68.5668084025383L60.65222222222222,89.98877212405205L60.76777777777778,58.575903719121776L60.82555555555556,84.01929576288569L61.114444444444445,50.03258615732193L61.18666666666667,55.50004029815849L61.20111111111111,85.3084136410193L61.27333333333333,103.82849976420403L61.446666666666665,50.82166509194809L61.489999999999995,36.20317879048262L61.562222222222225,59.783496260643005L61.836666666666666,84.19760380278933L62.06777777777778,72.96361255374823L62.21222222222222,67.73249387741089L62.385555555555555,91.14332255992024L62.761111111111106,72.02140535820615L62.89111111111111,39.21070656993172L63.39666666666667,82.64779654416172L63.41111111111111,57.06048732454127L63.44,67.48124465346336L64.07555555555555,42.70458928563378L64.19111111111111,46.405757584355094L64.32111111111111,31.660679145292818L64.35,60.94895773313264L64.42222222222223,40.35107265819204L64.78333333333333,67.69553500142966L64.79777777777778,60.235490473833956L64.94222222222221,37.352972978895366L64.97111111111111,92.36457499590786L65.04333333333332,93.43444734811783L65.24555555555557,86.35297359390692L65.33222222222221,78.84181598370725L65.46222222222222,71.09396121718667L65.67888888888889,44.188140630722046L65.76555555555557,65.05051285028458L66.44444444444444,46.93541908806022L66.53111111111112,51.26798074353826L66.77666666666667,116.30455881357193L66.86333333333333,105.24165382439439L67.57111111111111,66.85839928009294L67.67222222222222,11.705683198842149L67.74444444444444,27.955893928354442L67.93222222222222,71.56419072638859L68.46666666666665,76.91935161297971L68.66888888888889,110.57563162662767L69.17444444444445,130.09059330279175L70.37333333333333,96.81720627979799L70.50333333333333,63.45464413816279L70.63333333333334,15.0471851500598L70.72,60.046783794056296L71.06666666666666,92.08911653269422L71.74555555555555,40.813712667335174L71.86111111111111,-22.444486997344256L72.38111111111111,111.04942380027337L72.61222222222223,129.9757651916959L72.65555555555555,68.80028650164604L72.77111111111111,83.27226350253278L72.81444444444445,53.59318895773455L73.16111111111111,119.60397189313714L73.21888888888888,88.71492366899143L73.65222222222222,81.60544893958352L74.20111111111112,-36.34969291361896L74.46111111111112,87.53732140768658L74.54777777777778,60.024841156872846L74.77888888888889,73.1748888032003L75.03888888888889,109.51947945085438L75.05333333333334,65.56802753697743L75.54444444444445,109.08927114172415L75.68888888888888,39.02224101803521L75.73222222222223,97.65253354202616L75.74666666666667,107.0525844937021L75.77555555555556,89.63492901487784L75.78999999999999,60.043275383385755L76.1511111111111,68.3318533951586L76.62777777777778,95.41376967321742L77.20555555555556,24.076266884803772L77.65333333333334,93.76974772323263L78.04333333333334,95.17785015431316L78.11555555555556,52.160334749655306L78.43333333333334,61.476081365888774L78.70777777777778,59.88020059737293L78.92444444444445,36.73865147612313L79.15555555555557,1.30325761708347L79.57444444444445,88.34306227889927L79.61777777777777,101.25242813067003L79.97888888888889,62.2141858664426L80.35444444444444,60.97061704505575L80.6,99.86557509411466L80.88888888888889,116.69488457116215L81.14888888888889,102.74241156198762L81.17777777777778,119.52527378093112L81.20666666666668,64.17725014415656L81.29333333333332,50.17245238477534L81.69777777777779,87.42004283449866L81.9,46.95580645041033L82.7088888888889,-27.309085266156632L82.76666666666668,92.30249059471218L82.92555555555555,71.06815450570802L83.37333333333333,67.86106326363306L83.4888888888889,105.08750076998365L83.67666666666668,59.987140812657096L83.7488888888889,100.11189325289293L83.98,89.90321392362767L84.05222222222223,75.74472125280988L84.08111111111111,35.44732727787713L84.22555555555554,61.26666180112145L84.28333333333333,75.77595334161413L84.70222222222222,116.09585359015249L84.87555555555555,109.78668531233613L85.62666666666667,101.4552227069031L85.78555555555555,92.49360855330121L86.03111111111112,55.43487548828125L86.43555555555555,126.8220566484061L86.81111111111112,91.21432266452096L86.98444444444445,63.56990929354322L87.14333333333333,114.69448766925119L87.18666666666667,85.76873882250352L88.01,101.95651551539247L88.08222222222223,110.93764294277537L88.09666666666666,85.37223416295917L88.24111111111111,103.7977619875561L89.29555555555555,114.83952608975498L89.45444444444445,109.06257225708528L89.46888888888888,121.88717261634089L89.49777777777777,20.91454988176173L89.57,-15.458771152929822L89.58444444444444,113.80928310480984L89.94555555555556,106.09533091837709L90.01777777777778,65.85868308489974L90.06111111111112,68.71684419837867L90.17666666666666,59.156599938869476L90.46555555555555,89.09049240025608L90.50888888888889,76.03072303262626L90.52333333333334,90.85122627290814L90.74,112.16771161691709L91.05777777777777,65.15893600203775L91.24555555555555,115.51930476996033L91.27444444444444,66.15923090414567L91.46222222222222,99.4108681922609L91.99666666666667,53.27197045087814L92.34333333333333,99.78435719555074L92.44444444444444,104.55274543978952L92.5311111111111,131.7059451477094L92.87777777777778,95.95573472705753L92.9211111111111,85.39541258053346L93.77333333333334,96.08841534365308L94.01888888888888,52.25913689895111L94.03333333333335,75.47811821103096L94.32222222222222,106.83864378116347L94.36555555555556,111.76390982486986L94.49555555555555,83.20893126455219L95.01555555555557,84.11263636567377L95.05888888888889,94.32731977917932L95.28999999999999,61.37536224993793L95.73777777777778,92.95139586383645L96.14222222222222,72.47100034897979L96.25777777777778,77.6190564984625L96.31555555555556,125.43039009652354L96.43111111111111,109.38692542639645L96.59,102.02036015012048L96.96555555555557,86.30576075478034L97.03777777777778,123.24119307778098L97.2688888888889,83.32732505419038L97.5,68.17490325732666L97.61555555555556,95.65344475887038L97.74555555555557,77.73145826025443L97.87555555555556,110.2245132625103L98.03444444444443,79.04099966992031L98.0488888888889,46.60656888376584L98.22222222222221,72.24095229398121L98.25111111111111,79.0050414746458L98.8,79.0212693810463L98.97333333333333,117.10988373918967L99.24777777777778,95.75664146379991L99.58,120.37484567273748L99.86888888888889,105.1300658692013L100.56222222222222,108.85913869196717L100.69222222222223,114.81330644677985L100.73555555555555,107.89526012810795L100.76444444444444,126.81627862155437L101.50111111111111,129.3953311985189L101.54444444444444,82.31716199354692L101.83333333333333,103.82180846550249L101.86222222222223,138.31088841977444L101.87666666666667,101.39512158252977L101.97777777777779,77.45018861510538L102.23777777777777,131.22412944381887L102.64222222222223,94.24058005213737L102.93111111111111,115.29414256865327L103.04666666666667,84.85719706524502L103.49444444444444,121.68031804940917L103.74000000000001,132.51470915973186L104,114.78999239477245L104.11555555555556,119.0403445132754L104.56333333333333,114.93387340144677L104.95333333333333,92.0423437519507L105.28555555555556,85.71236915209077L105.70444444444445,122.53385950895874L105.86333333333333,50.220931145277895L106.09444444444445,31.86228616671129L106.29666666666667,86.40954822301865L106.6,82.56848958405583L107.17777777777778,126.64905945008451L107.49555555555555,102.94565825299783L107.56777777777778,114.93138375607403L108.10222222222222,116.17606779391114L108.2611111111111,79.27958365191112L108.34777777777778,101.71661135825245L108.55,111.85709670863368L108.57888888888888,68.07513056830926L109.0411111111111,149.11728006194937L109.38777777777777,85.32763756134294L109.5611111111111,104.44869273088194L109.59,104.69045960090376L109.67666666666666,100.6819075075063L109.85,105.8811430497603L110.21111111111111,93.0053000016646L110.61555555555556,104.98670328747141L110.64444444444445,98.0471272631125L110.70222222222222,98.61322921785442L110.91888888888889,110.45095645568587L111.5111111111111,113.0779211426323L111.55444444444446,86.34785565462978L112.32,138.07325387881562L112.36333333333333,82.5716664438898L112.50777777777778,98.72035630724646L112.76777777777778,97.88143021139233L112.78222222222222,82.98311500386758L113.02777777777779,113.63635523075406L113.07111111111111,97.09652278910983L113.56222222222222,114.56120423295282L113.5911111111111,107.62732485478574L113.69222222222221,101.31973295049234L114.08222222222221,129.1848084736954L114.21222222222222,101.52675932103936L114.51555555555557,127.14256382801317L114.86222222222221,127.41888432340188L114.93444444444444,122.877750064839L115.02111111111111,108.46195887435567L115.41111111111111,92.5310436568477L115.7,91.9792405854572L115.77222222222223,120.40152647278525L115.9888888888889,70.24417833848435L116.06111111111112,105.903989916498L116.68222222222222,114.80699793858962L116.74000000000001,111.87692646275866L117.04333333333334,110.26465502652256L117.07222222222222,108.49695255810563L117.30333333333333,125.06159705871885L117.33222222222223,119.9799234149131L117.41888888888889,50.25824568488381L117.44777777777779,95.83301872015L117.70777777777778,82.53675112670118L118.04,128.74646812677383L118.17,107.75407372550531L118.44444444444444,78.83048297329383L118.60333333333334,108.85758944533087L118.63222222222223,112.62811817906119L118.7188888888889,97.1394917775284L118.90666666666667,111.54518573798917L119.16666666666666,106.74013098532502L119.73,106.01483640345661L120.06222222222222,29.64281252839349L120.12,102.41482125087218L120.13444444444444,97.47237484563482L120.23555555555555,134.99051077799365L120.48111111111112,127.67644205553965L120.64,137.27183221077377L120.79888888888888,119.8667018183253L120.9,94.61109112609518L120.98666666666666,105.58248205618425L121.33333333333333,112.0896374231035L122.18555555555555,106.64340253580701L122.70555555555555,93.70783813975073L122.72,91.85222044587135L122.77777777777777,115.71125160564077L123.06666666666666,131.6309242356907L123.08111111111111,129.86684169958937L123.09555555555555,116.18003434755586L123.21111111111112,127.36541722985832L123.84666666666666,110.95328008586709L123.94777777777777,121.64971590719439L123.99111111111111,111.22353018684821L124.26555555555555,111.89750069921666L125.04555555555555,118.76900632273066L125.17555555555556,125.35246057943864L125.20444444444445,112.5651235201142L125.26222222222223,111.14831637252462L125.34888888888888,129.8738193376498L125.39222222222223,100.53351138125765L125.49333333333334,49.91760432720184L125.60888888888888,67.03131811185318L125.65222222222222,109.77796853943305L125.82555555555555,104.47442710399628L126.21555555555555,127.6101891560988L126.27333333333334,129.85951141200283L126.43222222222222,102.97007847915995L126.5911111111111,120.73043695904992L127.57333333333332,88.66478715430605L127.77555555555556,104.28729981184006L127.8911111111111,104.6444584293799L128.09333333333333,121.5089364078912L128.10777777777778,132.63881466605446L128.48333333333332,106.23008523475039L128.68555555555557,131.4800927178426L129.04666666666668,103.22065857323734L129.46555555555557,90.51543761383402L129.5088888888889,122.60475713420999L129.88444444444443,89.27699878811836L130.14444444444445,131.30631788210437L130.20222222222222,92.52740865403955L130.56333333333333,100.1487315649336L130.9388888888889,99.11132708191872L131.31444444444446,100.7596290517937L131.53111111111113,124.07986598935993L131.64666666666665,102.06147245385431L131.6611111111111,119.61730626496403L131.9788888888889,137.56058284843508L132.03666666666666,122.61014935645191L132.23888888888888,79.25284256989306L132.81666666666666,112.3785689066757L132.94666666666666,91.67904842983592L133.12,117.65363916754723L133.39444444444445,114.70892821523277L133.4377777777778,138.8545278053392L133.56777777777776,111.98228126222436L134.33333333333334,113.71244011954828L134.4922222222222,99.26959739489989L134.7522222222222,123.23924597014081L134.89666666666668,106.55495080080898L134.9111111111111,124.53568810766393L135.1711111111111,86.29096153107555L135.18555555555554,146.23058146373793L135.51777777777778,115.26610542427409L135.57555555555555,118.25710388747127L135.79222222222222,100.18851766532117L136.22555555555556,132.44754901663825L136.35555555555555,113.91996080225164L136.3988888888889,125.25856538252397L136.5,73.74615692279558L136.64444444444445,134.34285937385127L136.68777777777777,115.60502573170446L136.76000000000002,79.28839687596667L136.90444444444444,113.63033909011972L137.2511111111111,113.83768796920776L137.38111111111112,110.03622855652463L137.65555555555557,122.25741242143242L137.9011111111111,96.13808165897024L138.79666666666668,126.59897718917239L139.30222222222224,107.08246626637198L139.54777777777778,128.92850762063804L139.6922222222222,126.26157297329469L139.76444444444445,143.34948758171365L139.92333333333335,108.66453643549573L140.01,61.869029389186345L140.11111111111111,132.11786993525246L140.3711111111111,122.9686552760276L140.44333333333333,127.48030260882594L140.51555555555555,141.68526665053585L140.77555555555554,119.23961560834539L140.93444444444444,129.14782849902454L140.9777777777778,134.03795316815376L141.26666666666668,105.35211450674318L141.38222222222223,118.06645612825048L141.52666666666667,117.18225224451585L141.70000000000002,114.2136636037718L142.0322222222222,143.08740568770602L142.10444444444445,115.51587171175264L142.98555555555555,128.68120083754712L143,132.49896953729066L143.46222222222224,109.75900383158164L144.08333333333334,120.6185867772861L144.19888888888892,128.5492858019742L144.31444444444443,126.55787694183262L144.32888888888888,114.60289524360137L144.82000000000002,111.66936961087315L144.9788888888889,138.07945990765634L145.1522222222222,88.6235362020406L145.39777777777778,80.41260739619082L146.26444444444445,115.06958921524613L146.61111111111111,129.8518706722693L147.04444444444445,104.89544844085519L147.10222222222222,130.29313770884815L147.30444444444444,112.91566317731683L147.55,108.77367091449825L147.63666666666666,120.09300937706773L148.24333333333334,129.24673011357132L148.47444444444443,125.71874890137804L148.63333333333333,119.97381383722478L148.76333333333335,126.21922187507153L148.87888888888887,117.32364059171893L149.1677777777778,114.19996452602474L149.19666666666666,133.19119343026117L149.23999999999998,118.60858092931183L149.26888888888888,127.44484173980625L149.35555555555555,86.23225292021579L149.64444444444445,115.38126810030504L149.6877777777778,148.47826405005023L149.76,114.98176742683756L149.89000000000001,105.57580281387675L150.9011111111111,115.68431762131779L151.19,128.13560379499737L151.20444444444445,133.88247089629823L151.23333333333332,100.2724120833657L151.43555555555554,116.26383231444792L151.49333333333334,133.2691922716119L151.62333333333333,125.52219049497084L151.63777777777779,129.02987778186798L151.71,113.69118771092458L151.7822222222222,114.34462015601723L151.99888888888887,144.08759509636596L152.4466666666667,127.21776860004121L152.62,95.96942476250909L152.7211111111111,121.1849208176136L152.79333333333332,125.78823894262314L152.99555555555554,138.76149916174737L153.12555555555556,131.76846960728818L153.5011111111111,127.93968437747522L153.60222222222222,125.6206008114598L153.61666666666667,106.78402831608598L153.74666666666667,97.86485869776118L154.29555555555555,122.63992864977229L154.41111111111113,83.97062410007823L154.42555555555558,124.47570151903413L154.48333333333332,68.03949186747725L154.94555555555556,138.30842288718983L155.62444444444444,101.61905704574151L155.6822222222222,121.98240908709438L155.9422222222222,105.174541906877L156.01444444444445,149.40625901757315L156.27444444444444,139.42085431042042L156.31777777777776,122.0710326257077L156.6211111111111,124.79182921350002L156.78,122.9368203675205L157.12666666666667,124.23072764819318L157.2277777777778,114.49893295764923L157.47333333333333,133.74769548123533L157.5022222222222,143.43832210722294L157.54555555555555,143.6958029798486L157.8488888888889,117.3965998603539L157.87777777777777,147.2561601312323L157.95000000000002,133.50489778952166L158.1088888888889,123.88652362606742L158.2822222222222,127.62077165598218L158.5277777777778,125.56457776237619L158.7877777777778,82.36045650460504L158.87444444444444,119.53141952780159L159.01888888888888,143.07128176770428L159.2788888888889,139.04928227378562L159.29333333333335,111.68797564100134L159.68333333333334,139.2740677127784L159.79888888888888,130.0147344713861L159.94333333333333,136.78859535943377L160.10222222222222,111.30683384158395L160.40555555555554,139.19027125293556L160.66555555555556,95.07644985209811L161.12777777777777,134.64133650741795L161.2288888888889,110.18722283569248L161.98,111.36978630315173L162.00888888888886,79.39455945383418L162.15333333333334,126.01990255442531L162.25444444444446,107.92234481735663L162.64444444444445,122.10516126318412L162.94777777777776,120.94218642196871L163.09222222222223,138.86037515645677L163.32333333333332,85.3441126238216L163.35222222222222,133.20971807972953L163.45333333333335,130.39250048046762L163.91555555555556,125.74766314842485L163.98777777777778,121.36597470126368L164.14666666666665,105.37001825191759L164.2188888888889,104.63181730021131L164.84,119.53329128297894L164.88333333333333,115.27743542058901L165.17222222222225,111.0408396477049L165.2588888888889,132.25358574905178L165.27333333333334,140.37052893503144L165.64888888888888,120.60556285760619L165.75,141.49264616383746L166.66,140.5788664384322L166.79,119.05070999806577L166.8911111111111,139.4559007408944L166.93444444444447,141.48447795686397L167.03555555555556,124.56539204852147L167.07888888888888,125.83225683732466L167.39666666666668,148.4346183965152L167.55555555555557,106.80688121102072L167.71444444444447,137.2129261764613L167.88777777777779,133.64997840740463L167.90222222222224,71.88885736194526L167.94555555555556,131.26092555848035L168.29222222222222,119.85193574970418L168.3788888888889,120.92350202527912L168.7111111111111,120.31713171438737L168.85555555555555,121.24656214632772L168.9711111111111,148.62507777457887L169.85222222222222,111.01468330079858L169.98222222222222,117.66208467158405L170.11222222222221,121.17452519183809L170.61777777777777,116.60249943760307L171.02222222222224,132.95232612301004L171.06555555555556,132.37025547433984L171.64333333333335,107.6617157188329L171.98999999999998,134.87403998320752L172.13444444444443,109.4855467297814L172.92888888888888,126.77890379997818L173.11666666666667,115.70471704006195L173.53555555555553,109.82426509261131L174.05555555555554,116.53498965908182L174.12777777777777,122.03482727435501L174.14222222222222,137.8399400480769L174.17111111111112,140.27478609572756L174.37333333333333,98.95949488336389L174.54666666666668,134.63028079406783L174.8788888888889,127.94293960387056L174.96555555555557,138.63591524010354L175.18222222222224,113.00668895244598L175.26888888888888,139.15259050036016L175.41333333333333,129.97229596430603L175.76000000000002,135.23856204341757L176.00555555555556,132.58920260451058L176.32333333333335,137.44497257877478L176.7711111111111,127.69144020974636L176.8722222222222,119.59542390975086L177.0311111111111,126.20884131978858L177.26222222222222,139.38670005310664L177.32000000000002,122.40692677822979L177.42111111111112,133.75475449995562L177.49333333333334,134.57308224656364L178.10000000000002,147.43007964369926L178.62,143.81570683284238L179.02444444444444,140.83170861344445L179.05333333333334,94.14831246842039L179.0677777777778,136.34063702415335L179.09666666666666,122.09802689200097L179.18333333333334,128.65017672154036L179.31333333333333,144.9435930462046L179.39999999999998,121.30945432592523L179.47222222222223,109.32198365980928L179.89111111111112,97.85666034980254L180.09333333333333,131.8149409781803L180.25222222222223,139.23455740240487L180.39666666666665,119.91136171601035L180.45444444444445,103.80566495386036L180.4688888888889,122.96049611134963L180.87333333333333,106.40790499069475L181.00333333333336,121.46084345199846L181.11888888888888,120.65583802082323L181.33555555555554,141.1628299409693L181.35,123.25473542240532L181.52333333333334,141.84533638033L181.9711111111111,110.11569224975325L182.1011111111111,141.87610731206158L182.2888888888889,145.48993457108736L182.34666666666666,138.0713987011801L182.4188888888889,127.87352190098979L182.54888888888888,94.93316563692959L182.66444444444446,116.37325011871077L182.76555555555558,111.8236944688992L182.78,125.01234367489815L183.02555555555557,150.17089738087222L183.45888888888888,136.6777564077215L183.60333333333335,117.52986822615969L184.13777777777779,114.17933000759645L184.26777777777778,134.65060787444764L184.2822222222222,122.65037852932107L184.3688888888889,111.93501115522601L184.6,121.96346547793257L184.7011111111111,129.3014721707864L185.10555555555555,145.16867386685178L185.12,154.7602331028743L185.25,122.04698916185987L185.32222222222222,139.42944750528443L185.4811111111111,117.8205418586731L185.61111111111111,119.29110243916512L185.81333333333333,132.79751900922167L185.97222222222223,147.492914555425L186.36222222222221,142.9759382964535L186.40555555555557,134.39432209188286L186.53555555555556,146.7061941528862L186.89666666666668,118.78634944558144L186.95444444444445,138.1743361936374L187.08444444444444,137.99472757022488L187.2866666666667,145.599151937799L187.37333333333333,109.87441366369073L187.4022222222222,108.33036333322525L187.89333333333335,132.36686159941283L187.98,137.77915020219305L188.0666666666667,124.56590143117039L188.09555555555556,74.86494809389114L188.11,141.0566281798211L188.25444444444446,100.11115178465843L188.32666666666668,81.5321400355209L188.5288888888889,124.87720958211206L188.6588888888889,129.1288065233014L188.89000000000001,111.30935664204033L189.25111111111113,131.40178342434493L189.52555555555554,119.09950523891233L189.65555555555557,140.349858247421L189.91555555555556,122.06850982525133L190.30555555555554,127.1859698607163L190.63777777777779,140.20592147992417L190.66666666666666,127.92282652448523L190.6811111111111,133.29948396167973L191.4177777777778,112.33993419192053L191.53333333333333,107.18994299119169L191.57666666666668,135.95532069829378L191.70666666666665,143.53038774633947L192.25555555555556,132.4909007955681L192.70333333333332,121.79258116266944L192.99222222222224,119.11786712706089L193.19444444444446,141.87039559537712L193.26666666666665,115.97950034520842L193.71444444444444,133.77250151200727L193.83,141.04749244722453L193.85888888888888,144.73602564497426L194.35000000000002,134.91720790212804L194.39333333333335,122.79217679392207L194.59555555555556,137.4277575551109L194.63888888888889,95.34040048718452L194.79777777777778,148.70832265439358L194.88444444444443,94.31486552411859L195.28888888888886,122.2647276385264L195.33222222222224,128.17676432430744L195.34666666666666,112.74803408844905L195.43333333333334,125.78849212689833L195.4622222222222,126.48704261265017L195.70777777777778,114.52054705809462L195.82333333333332,133.2210842452266L195.95333333333335,97.30706962672146L196.17,135.72672242468053L196.4011111111111,149.92954268882218L196.96444444444444,125.83935503932564L197.13777777777779,129.8886788433248L197.16666666666666,100.82561972466381L197.3111111111111,127.30809209021656L197.47,126.89166725359179L197.5711111111111,120.14478857544334L197.67222222222225,124.46036879989235L197.70111111111112,105.21632936867802L197.94666666666666,144.0402647073973L198.2211111111111,129.03778074817225L198.7411111111111,125.85737332024358L198.88555555555556,141.17749353024092L199.1311111111111,116.19696755300868L199.2177777777778,145.38787719539621L199.34777777777776,132.0006667145274L199.7811111111111,99.99324627897956L200.11333333333334,94.42231813615018L200.12777777777777,113.34325223483823L200.38777777777779,121.69159982014787L200.79222222222222,114.46314958008854L200.86444444444444,129.4134820997715L201.0522222222222,155.18297322941098L201.25444444444446,144.788198183206L201.37,125.11296935379505L201.44222222222223,139.6474873918024L201.4711111111111,141.71922348439693L201.48555555555555,125.3626120632345L201.77444444444447,137.8474300828847L201.84666666666666,132.36589407378975L202.04888888888888,123.72350309382784L202.19333333333333,122.95350038869815L202.26555555555555,115.76556566086681L202.36666666666667,111.30179125476968L202.64111111111112,125.63143348151986L202.81444444444443,145.0797986510125L203.32,141.64536752145398L203.45,147.1009340577505L204.14333333333335,148.15824063325468L204.21555555555554,141.23029601506212L204.4322222222222,124.8937208137729L204.5911111111111,117.71030120551586L204.64888888888888,126.99460474604909L204.88,95.01218324357812L205.06777777777776,133.4168167886409L205.35666666666668,121.62434624000029L205.48666666666668,144.12930569865486L205.60222222222222,119.19636329466645L205.89111111111112,94.74685215137221L206.12222222222223,132.50362933359364L206.4111111111111,135.4595467041839L206.45444444444445,128.688702928749L206.68555555555557,121.37269915504889L206.91666666666666,145.37959897382692L207.07555555555555,108.00253189422868L207.94222222222223,124.08519491553307L208.07222222222222,145.14933993193236L208.08666666666667,114.3657399443063L208.52,118.64050324667585L208.79444444444442,152.33330132439733L208.83777777777777,130.13433088633147L209.15555555555554,99.69175806099717L209.79111111111112,119.93755121800034L210.09444444444443,104.65942644260146L210.18111111111114,132.09161412309516L210.21,142.14378186586228L210.51333333333332,143.67806953124025L210.8311111111111,126.9340906901793L211.25,139.1911378062584L211.91444444444443,123.43616305427118L212.14555555555557,127.45993935926394L212.31888888888886,134.6385755931789L213.17111111111112,120.16203223304315L213.40222222222224,145.54177706553176L213.85,139.30154272778466L213.96555555555557,116.18936599655585L214.26888888888888,132.09411883896047L214.63,149.68189229850063L214.70222222222225,139.52636885710737L214.89000000000001,114.91244617510927L215.07777777777778,125.44557813893664L215.16444444444446,135.83621256730774L215.7711111111111,111.94740512831645L215.78555555555556,146.64858116683635L215.85777777777778,124.46207779374988L216.07444444444445,144.98761847615242L216.91222222222223,117.31459528207779L217.15777777777777,138.6499247699976L217.54777777777778,119.32844711975618L217.5622222222222,133.48296118053523L217.67777777777778,145.55696661499414L217.85111111111112,138.58994722366333L217.89444444444445,114.98392250727522L218.02444444444447,141.24088303609327L218.2411111111111,138.5203411396254L218.29888888888888,121.97888560593128L218.32777777777778,142.59737355126575L218.54444444444442,140.42534483766013L218.80444444444444,135.87567314505577L219.06444444444443,142.86761159585282L219.2811111111111,142.7069179476662L219.42555555555558,138.46342139623383L219.4688888888889,119.11117281426084L219.64222222222222,114.8110066896135L219.65666666666667,150.564057898115L219.71444444444444,123.37962459434164L220.11888888888888,142.26301206783816L220.49444444444444,124.40157880837266L220.97111111111113,131.86593952504072L221.1877777777778,146.94948766380548L221.70777777777778,137.6968788761984L221.78,110.42982762510125L222.47333333333333,139.34333923188123L222.53111111111113,114.67180657793176L222.82,137.0770611647855L223.51333333333335,149.55403047190472L223.5277777777778,133.25437797741458L223.90333333333334,144.27680362354624L223.94666666666666,151.5566321868788L224.55333333333334,122.48816276138479L224.78444444444443,132.54302058707583L225.29000000000002,116.25154383480549L225.50666666666666,131.40564749864015L225.6222222222222,132.09971601990136L225.69444444444446,148.28874657777223L225.70888888888888,135.76872087337753L226.18555555555554,148.28229489990255L226.43111111111114,140.4309751736847L226.47444444444446,140.84387502209708L226.51777777777778,147.98707148568198L226.70555555555555,146.49587638676167L227.09555555555556,154.45233540440148L227.35555555555555,138.4960535337979L227.45666666666668,155.48631059683183L227.55777777777777,119.19793062589385L227.87555555555556,139.36427516016093L228.17888888888888,153.2277275232429L228.36666666666665,103.1019754301418L228.87222222222223,115.04164550792086L229.20444444444445,118.24209367687051L229.24777777777777,117.94099427759647L229.43555555555557,116.8345940654928L229.49333333333334,145.98337113179943L229.58,131.7615160820159L230.20111111111112,129.93263042785904L230.21555555555557,122.5995668565685L230.48999999999998,150.8793408914723L230.53333333333336,125.53008441897957L230.64888888888888,124.68553401529789L230.66333333333333,152.15158810669723L230.67777777777778,133.69125045835972L230.76444444444445,139.45522708987647L231.05333333333334,132.25930650803176L231.0822222222222,135.91147762130606L231.34222222222223,154.11475335671142L232.06444444444443,152.0772491344674L232.26666666666665,134.38961708410218L232.35333333333335,104.96158981865102L232.84444444444443,131.54563127593562L233.43666666666667,129.55155795270744L233.8411111111111,108.85369523005052L234.2311111111111,128.88396225869656L234.30333333333334,143.99700335142288L234.39,141.87527994201943L234.72222222222223,154.02970077131283L235.08333333333334,134.09508841958913L235.2566666666667,134.26590341058645L235.2711111111111,133.77663384107026L235.35777777777778,126.45125622099096L235.48777777777778,131.33995220742443L235.73333333333332,149.05845842239532L235.90666666666667,132.53119025040758L235.9933333333333,134.36855154958639L236.28222222222223,144.36846386641264L236.34,137.13860754939643L236.68666666666667,141.35714435103264L236.71555555555554,133.5744571550326L236.84555555555556,131.95641070604324L237.56777777777776,135.46187660233542L237.91444444444443,123.87375590476124L237.92888888888888,137.90545449338177L238.24666666666667,145.35418710925362L238.7522222222222,130.09856559336185L238.76666666666668,129.26852505992758L239.11333333333332,126.47699059410529L239.14222222222222,119.91602151231332L239.15666666666667,141.0830799083818L239.59,138.5247613150965L239.95111111111112,140.95585933124477L239.99444444444444,152.90942440317437L240.02333333333334,130.61496506360444L240.24,144.91713227534834L240.32666666666668,136.4919236708771L240.61555555555555,130.29725195332006L240.76000000000002,154.45429230786183L240.77444444444444,125.58790989897467L240.89,143.76875772733578L240.9477777777778,128.76529117199507L241.03444444444443,147.87931444970044L241.26555555555555,128.2276212085377L241.88666666666666,142.0405655692924L242.06,128.41189716349948L242.21888888888887,128.29454625194722L242.36333333333334,146.3450388407165L242.37777777777777,135.1413181830536L242.43555555555554,138.18237027322704L242.49333333333334,141.37379423122513L242.5511111111111,141.40324649485675L242.79666666666665,121.13742465322667L242.88333333333335,132.92554585771128L242.94111111111113,122.5782933492552L242.97,151.31706786934623L243.3311111111111,145.79543455419216L243.60555555555555,145.84404593502933L243.70666666666668,151.51742780750448L243.72111111111113,128.22818484495986L243.95222222222222,138.00423102284017L243.99555555555554,142.61282532729885L244.45777777777778,145.17727158286354L244.47222222222223,88.77858745780857L244.48666666666668,128.18323257971895L244.83333333333334,138.57056657021695L245.03555555555556,140.58846935629845L245.54111111111112,152.06516335295007" style="fill: none;" fill="none"></path></g></g></g></g></g></g><g transform="translate(70, 178)" clip-path="url(#clip_1)"><clipPath id="clip_1"><rect width="260" height="21"></rect></clipPath><g><g><line x1="0" y1="0" x2="0" y2="5" style="visibility: inherit;" fill="rgb(0, 0, 0)" stroke="rgb(204, 204, 204)" stroke-width="1px"></line><line x1="28.888888888888886" y1="0" x2="28.888888888888886" y2="5" style="visibility: inherit;" fill="rgb(0, 0, 0)" stroke="rgb(204, 204, 204)" stroke-width="1px"></line><line x1="57.77777777777777" y1="0" x2="57.77777777777777" y2="5" style="visibility: inherit;" fill="rgb(0, 0, 0)" stroke="rgb(204, 204, 204)" stroke-width="1px"></line><line x1="86.66666666666666" y1="0" x2="86.66666666666666" y2="5" style="visibility: inherit;" fill="rgb(0, 0, 0)" stroke="rgb(204, 204, 204)" stroke-width="1px"></line><line x1="115.55555555555554" y1="0" x2="115.55555555555554" y2="5" style="visibility: inherit;" fill="rgb(0, 0, 0)" stroke="rgb(204, 204, 204)" stroke-width="1px"></line><line x1="144.44444444444446" y1="0" x2="144.44444444444446" y2="5" style="visibility: inherit;" fill="rgb(0, 0, 0)" stroke="rgb(204, 204, 204)" stroke-width="1px"></line><line x1="173.33333333333331" y1="0" x2="173.33333333333331" y2="5" style="visibility: inherit;" fill="rgb(0, 0, 0)" stroke="rgb(204, 204, 204)" stroke-width="1px"></line><line x1="202.22222222222223" y1="0" x2="202.22222222222223" y2="5" style="visibility: inherit;" fill="rgb(0, 0, 0)" stroke="rgb(204, 204, 204)" stroke-width="1px"></line><line x1="231.1111111111111" y1="0" x2="231.1111111111111" y2="5" style="visibility: inherit;" fill="rgb(0, 0, 0)" stroke="rgb(204, 204, 204)" stroke-width="1px"></line><line x1="260" y1="0" x2="260" y2="5" style="visibility: inherit;" fill="rgb(0, 0, 0)" stroke="rgb(204, 204, 204)" stroke-width="1px"></line></g><g transform="translate(0, 8)"><text x="0" y="0" dx="0em" dy="0.95em" style="text-anchor: middle; visibility: hidden; font-family: Roboto, sans-serif; font-size: 12px; font-weight: 200;" fill="rgb(50, 49, 63)" stroke="none" stroke-width="1px">-2k</text><text x="28.888888888888886" y="0" dx="0em" dy="0.95em" style="text-anchor: middle; visibility: inherit; font-family: Roboto, sans-serif; font-size: 12px; font-weight: 200;" fill="rgb(50, 49, 63)" stroke="none" stroke-width="1px">0</text><text x="57.77777777777777" y="0" dx="0em" dy="0.95em" style="text-anchor: middle; visibility: inherit; font-family: Roboto, sans-serif; font-size: 12px; font-weight: 200;" fill="rgb(50, 49, 63)" stroke="none" stroke-width="1px">2k</text><text x="86.66666666666666" y="0" dx="0em" dy="0.95em" style="text-anchor: middle; visibility: inherit; font-family: Roboto, sans-serif; font-size: 12px; font-weight: 200;" fill="rgb(50, 49, 63)" stroke="none" stroke-width="1px">4k</text><text x="115.55555555555554" y="0" dx="0em" dy="0.95em" style="text-anchor: middle; visibility: inherit; font-family: Roboto, sans-serif; font-size: 12px; font-weight: 200;" fill="rgb(50, 49, 63)" stroke="none" stroke-width="1px">6k</text><text x="144.44444444444446" y="0" dx="0em" dy="0.95em" style="text-anchor: middle; visibility: inherit; font-family: Roboto, sans-serif; font-size: 12px; font-weight: 200;" fill="rgb(50, 49, 63)" stroke="none" stroke-width="1px">8k</text><text x="173.33333333333331" y="0" dx="0em" dy="0.95em" style="text-anchor: middle; visibility: inherit; font-family: Roboto, sans-serif; font-size: 12px; font-weight: 200;" fill="rgb(50, 49, 63)" stroke="none" stroke-width="1px">10k</text><text x="202.22222222222223" y="0" dx="0em" dy="0.95em" style="text-anchor: middle; visibility: inherit; font-family: Roboto, sans-serif; font-size: 12px; font-weight: 200;" fill="rgb(50, 49, 63)" stroke="none" stroke-width="1px">12k</text><text x="231.1111111111111" y="0" dx="0em" dy="0.95em" style="text-anchor: middle; visibility: inherit; font-family: Roboto, sans-serif; font-size: 12px; font-weight: 200;" fill="rgb(50, 49, 63)" stroke="none" stroke-width="1px">14k</text><text x="260" y="0" dx="0em" dy="0.95em" style="text-anchor: middle; visibility: hidden; font-family: Roboto, sans-serif; font-size: 12px; font-weight: 200;" fill="rgb(50, 49, 63)" stroke="none" stroke-width="1px">16k</text></g><line x1="0" y1="0" x2="260" y2="0" fill="rgb(0, 0, 0)" stroke="rgb(204, 204, 204)" stroke-width="1px"></line></g></g></g></g></svg>