<svg viewBox="0 0 330.0000305175781 200.00001525878906" xmlns="http://www.w3.org/2000/svg"><g><g><g><g><g><line x1="70" y1="178" x2="65" y2="178" style="visibility: inherit;" fill="rgb(0, 0, 0)" stroke="rgb(204, 204, 204)" stroke-width="1px"></line><line x1="70" y1="158.2222222222222" x2="65" y2="158.2222222222222" style="visibility: inherit;" fill="rgb(0, 0, 0)" stroke="rgb(204, 204, 204)" stroke-width="1px"></line><line x1="70" y1="138.44444444444446" x2="65" y2="138.44444444444446" style="visibility: inherit;" fill="rgb(0, 0, 0)" stroke="rgb(204, 204, 204)" stroke-width="1px"></line><line x1="70" y1="118.66666666666669" x2="65" y2="118.66666666666669" style="visibility: inherit;" fill="rgb(0, 0, 0)" stroke="rgb(204, 204, 204)" stroke-width="1px"></line><line x1="70" y1="98.8888888888889" x2="65" y2="98.8888888888889" style="visibility: inherit;" fill="rgb(0, 0, 0)" stroke="rgb(204, 204, 204)" stroke-width="1px"></line><line x1="70" y1="79.1111111111111" x2="65" y2="79.1111111111111" style="visibility: inherit;" fill="rgb(0, 0, 0)" stroke="rgb(204, 204, 204)" stroke-width="1px"></line><line x1="70" y1="59.33333333333332" x2="65" y2="59.33333333333332" style="visibility: inherit;" fill="rgb(0, 0, 0)" stroke="rgb(204, 204, 204)" stroke-width="1px"></line><line x1="70" y1="39.55555555555557" x2="65" y2="39.55555555555557" style="visibility: inherit;" fill="rgb(0, 0, 0)" stroke="rgb(204, 204, 204)" stroke-width="1px"></line><line x1="70" y1="19.777777777777768" x2="65" y2="19.777777777777768" style="visibility: inherit;" fill="rgb(0, 0, 0)" stroke="rgb(204, 204, 204)" stroke-width="1px"></line><line x1="70" y1="0" x2="65" y2="0" style="visibility: inherit;" fill="rgb(0, 0, 0)" stroke="rgb(204, 204, 204)" stroke-width="1px"></line></g><g transform="translate(60, 0)"><text x="0" y="178" dx="0em" dy="0.3em" style="text-anchor: end; visibility: hidden; font-family: Roboto, sans-serif; font-size: 12px; font-weight: 200;" fill="rgb(50, 49, 63)" stroke="none" stroke-width="1px">-5e-3</text><text x="0" y="158.2222222222222" dx="0em" dy="0.3em" style="text-anchor: end; visibility: inherit; font-family: Roboto, sans-serif; font-size: 12px; font-weight: 200;" fill="rgb(50, 49, 63)" stroke="none" stroke-width="1px">0</text><text x="0" y="138.44444444444446" dx="0em" dy="0.3em" style="text-anchor: end; visibility: hidden; font-family: Roboto, sans-serif; font-size: 12px; font-weight: 200;" fill="rgb(50, 49, 63)" stroke="none" stroke-width="1px">5e-3</text><text x="0" y="118.66666666666669" dx="0em" dy="0.3em" style="text-anchor: end; visibility: inherit; font-family: Roboto, sans-serif; font-size: 12px; font-weight: 200;" fill="rgb(50, 49, 63)" stroke="none" stroke-width="1px">0.01</text><text x="0" y="98.8888888888889" dx="0em" dy="0.3em" style="text-anchor: end; visibility: hidden; font-family: Roboto, sans-serif; font-size: 12px; font-weight: 200;" fill="rgb(50, 49, 63)" stroke="none" stroke-width="1px">0.015</text><text x="0" y="79.1111111111111" dx="0em" dy="0.3em" style="text-anchor: end; visibility: inherit; font-family: Roboto, sans-serif; font-size: 12px; font-weight: 200;" fill="rgb(50, 49, 63)" stroke="none" stroke-width="1px">0.02</text><text x="0" y="59.33333333333332" dx="0em" dy="0.3em" style="text-anchor: end; visibility: hidden; font-family: Roboto, sans-serif; font-size: 12px; font-weight: 200;" fill="rgb(50, 49, 63)" stroke="none" stroke-width="1px">0.025</text><text x="0" y="39.55555555555557" dx="0em" dy="0.3em" style="text-anchor: end; visibility: inherit; font-family: Roboto, sans-serif; font-size: 12px; font-weight: 200;" fill="rgb(50, 49, 63)" stroke="none" stroke-width="1px">0.03</text><text x="0" y="19.777777777777768" dx="0em" dy="0.3em" style="text-anchor: end; visibility: hidden; font-family: Roboto, sans-serif; font-size: 12px; font-weight: 200;" fill="rgb(50, 49, 63)" stroke="none" stroke-width="1px">0.035</text><text x="0" y="0" dx="0em" dy="0.3em" style="text-anchor: end; visibility: hidden; font-family: Roboto, sans-serif; font-size: 12px; font-weight: 200;" fill="rgb(50, 49, 63)" stroke="none" stroke-width="1px">0.04</text></g><line x1="70" y1="0" x2="70" y2="178" fill="rgb(0, 0, 0)" stroke="rgb(204, 204, 204)" stroke-width="1px"></line></g></g><g transform="translate(70, 0)" clip-path="url(#clip_0)"><clipPath id="clip_0"><rect width="260" height="177"></rect></clipPath><g><g><g><line x1="0" y1="0" x2="0" y2="178" fill="rgb(0, 0, 0)" stroke="rgb(60, 60, 60)" stroke-width="1px" opacity="0.25"></line><line x1="28.888888888888886" y1="0" x2="28.888888888888886" y2="178" fill="rgb(0, 0, 0)" stroke="rgb(60, 60, 60)" stroke-width="1px" opacity="0.25"></line><line x1="57.77777777777777" y1="0" x2="57.77777777777777" y2="178" fill="rgb(0, 0, 0)" stroke="rgb(60, 60, 60)" stroke-width="1px" opacity="0.25"></line><line x1="86.66666666666666" y1="0" x2="86.66666666666666" y2="178" fill="rgb(0, 0, 0)" stroke="rgb(60, 60, 60)" stroke-width="1px" opacity="0.25"></line><line x1="115.55555555555554" y1="0" x2="115.55555555555554" y2="178" fill="rgb(0, 0, 0)" stroke="rgb(60, 60, 60)" stroke-width="1px" opacity="0.25"></line><line x1="144.44444444444446" y1="0" x2="144.44444444444446" y2="178" fill="rgb(0, 0, 0)" stroke="rgb(60, 60, 60)" stroke-width="1px" opacity="0.25"></line><line x1="173.33333333333331" y1="0" x2="173.33333333333331" y2="178" fill="rgb(0, 0, 0)" stroke="rgb(60, 60, 60)" stroke-width="1px" opacity="0.25"></line><line x1="202.22222222222223" y1="0" x2="202.22222222222223" y2="178" fill="rgb(0, 0, 0)" stroke="rgb(60, 60, 60)" stroke-width="1px" opacity="0.25"></line><line x1="231.1111111111111" y1="0" x2="231.1111111111111" y2="178" fill="rgb(0, 0, 0)" stroke="rgb(60, 60, 60)" stroke-width="1px" opacity="0.25"></line><line x1="260" y1="0" x2="260" y2="178" fill="rgb(0, 0, 0)" stroke="rgb(60, 60, 60)" stroke-width="1px" opacity="0.25"></line></g><g><line x1="0" y1="178" x2="260" y2="178" fill="rgb(0, 0, 0)" stroke="rgb(60, 60, 60)" stroke-width="1px" opacity="0.25"></line><line x1="0" y1="158.2222222222222" x2="260" y2="158.2222222222222" fill="rgb(0, 0, 0)" stroke="rgb(60, 60, 60)" stroke-width="1px" opacity="0.25"></line><line x1="0" y1="138.44444444444446" x2="260" y2="138.44444444444446" fill="rgb(0, 0, 0)" stroke="rgb(60, 60, 60)" stroke-width="1px" opacity="0.25"></line><line x1="0" y1="118.66666666666669" x2="260" y2="118.66666666666669" fill="rgb(0, 0, 0)" stroke="rgb(60, 60, 60)" stroke-width="1px" opacity="0.25"></line><line x1="0" y1="98.8888888888889" x2="260" y2="98.8888888888889" fill="rgb(0, 0, 0)" stroke="rgb(60, 60, 60)" stroke-width="1px" opacity="0.25"></line><line x1="0" y1="79.1111111111111" x2="260" y2="79.1111111111111" fill="rgb(0, 0, 0)" stroke="rgb(60, 60, 60)" stroke-width="1px" opacity="0.25"></line><line x1="0" y1="59.33333333333332" x2="260" y2="59.33333333333332" fill="rgb(0, 0, 0)" stroke="rgb(60, 60, 60)" stroke-width="1px" opacity="0.25"></line><line x1="0" y1="39.55555555555557" x2="260" y2="39.55555555555557" fill="rgb(0, 0, 0)" stroke="rgb(60, 60, 60)" stroke-width="1px" opacity="0.25"></line><line x1="0" y1="19.777777777777768" x2="260" y2="19.777777777777768" fill="rgb(0, 0, 0)" stroke="rgb(60, 60, 60)" stroke-width="1px" opacity="0.25"></line><line x1="0" y1="0" x2="260" y2="0" fill="rgb(0, 0, 0)" stroke="rgb(60, 60, 60)" stroke-width="1px" opacity="0.25"></line></g></g></g><g><g><line x1="0" y1="158.2222222222222" x2="260" y2="158.2222222222222" fill="rgb(0, 0, 0)" stroke="rgb(153, 153, 153)" stroke-width="1.5px"></line></g></g><g><g><line x1="28.888888888888886" y1="0" x2="28.888888888888886" y2="178" fill="rgb(0, 0, 0)" stroke="rgb(153, 153, 153)" stroke-width="1.5px"></line></g></g><g><g><g><g><g><path stroke="rgb(255, 112, 67)" stroke-width="2px" d="M37.25222222222222,-3.7428435463776775L37.35333333333333,6.853376947296017L37.367777777777775,11.808933115688012L37.84444444444444,22.77158070881237L38.04666666666667,26.611638835468263L38.162222222222226,35.286134103287125L38.23444444444444,39.976091530650756L38.263333333333335,47.44647078740221L38.43666666666667,57.63072825081029L38.581111111111106,65.43934984997537L39.202222222222225,69.69709304774129L39.31777777777778,70.44590845075297L39.43333333333334,54.05218709714015L39.80888888888889,58.50471643888905L39.93888888888889,64.54387219518364L39.99666666666666,68.43482668706852L40.025555555555556,57.16371526577104L40.22777777777778,48.179807579455485L40.25666666666666,36.08404839794158L40.357777777777784,13.993137108079543L40.473333333333336,9.9640250203639L40.56,15.283027101671514L40.964444444444446,20.52002289366775L42.01888888888889,20.977681807329695L42.495555555555555,26.375823100193557L42.53888888888889,22.14250281641113L42.784444444444446,23.732661783925543L42.91444444444445,36.11905601896125L42.928888888888885,33.99563698069227L43.01555555555556,44.20530789746812L43.03,47.1958806118384L43.102222222222224,49.42154719335134L43.36222222222222,51.15200558744958L43.40555555555556,55.632800373749966L43.535555555555554,60.256844318728504L44.24333333333333,61.1529381832893L44.28666666666667,67.26525689716587L44.373333333333335,71.88077739840152L44.46,61.286344404194246L44.532222222222224,67.82179711584462L44.67666666666667,66.08025613790407L44.763333333333335,66.84085526497267L44.83555555555556,70.92428682390413L45.586666666666666,56.65465847446127L45.65888888888889,51.2336072106752L45.67333333333333,55.776435942571254L45.93333333333333,55.23600301553367L46.12111111111111,57.407813331391644L46.30888888888889,66.81600200921247L46.85777777777778,68.04150400853557L47.10333333333333,49.889172863060885L47.39222222222222,51.89281199996705L47.58,59.15272278105397L47.89777777777778,64.27044314626664L47.941111111111105,66.31274261604963L48.14333333333334,65.02520506237602L48.20111111111111,64.09717548700822L48.894444444444446,69.36035342030087L48.995555555555555,56.971909649183196L49.31333333333334,58.83670033303921L49.486666666666665,59.56593349117809L49.63111111111111,55.44800814672254L50.06444444444445,60.407327228539295L50.22333333333333,59.77884351022978L50.33888888888889,63.432577177846326L50.425555555555555,61.02069372242478L50.88777777777778,63.36393554757572L50.94555555555556,62.91535277132656L51.306666666666665,69.58532025566083L51.53777777777778,77.38737711880383L51.55222222222222,82.56592366706225L51.76888888888889,66.73837081065834L51.82666666666667,73.82902735740002L52.07222222222222,53.422525271952445L52.577777777777776,53.99327523332177L52.693333333333335,48.2677098312434L52.98222222222222,55.24158459004646L53.184444444444445,55.952137269012034L53.31444444444444,57.2423950249803L53.40111111111111,64.19840820592911L53.47333333333333,63.71582190397751L53.574444444444445,71.57782971169682L53.70444444444444,68.92782628185873L53.906666666666666,72.38972826002416L53.93555555555555,77.43293069641473L53.97888888888889,79.82412861897669L54.108888888888885,71.85578333739743L54.614444444444445,75.54351239677305L54.96111111111111,77.80816524168577L55.26444444444444,77.58671094583147L55.52444444444444,72.8940154146604L55.654444444444444,78.16055130154929L55.842222222222226,77.71900882980214L55.885555555555555,66.14561339094925L56.00111111111111,65.61091987072446L56.57888888888889,53.21102964215926L56.824444444444445,55.30338267641823L56.96888888888889,61.4569458526958L57.01222222222222,60.347468065522335L57.30111111111111,69.03040563557619L57.53222222222222,72.36296649845626L57.79222222222222,69.68069106551629L57.965555555555554,76.58022968661768L58.21111111111111,72.44244062111459L58.297777777777775,68.23052793540954L58.644444444444446,59.72041477328243L58.83222222222222,68.39775567553745L58.87555555555556,67.87744592823219L58.89,62.92428473787901L59.00555555555556,69.4563964451179L59.06333333333333,71.75443968687797L59.16444444444445,58.80690016948148L59.87222222222222,64.90121513877997L59.93,67.4569414108342L60.03111111111111,72.3965306069045L60.16111111111111,74.25555799246266L60.47888888888889,65.90383471538674L60.53666666666667,68.65489478132179L60.65222222222222,54.518808498227855L60.76777777777778,58.09640177235013L60.82555555555556,65.5908812198759L61.114444444444445,69.87919285942642L61.18666666666667,75.61993121446116L61.20111111111111,74.102462209621L61.27333333333333,80.91999305129083L61.446666666666665,86.80527221153156L61.489999999999995,89.60804526554466L61.562222222222225,88.7386655177563L61.836666666666666,89.78621466670404L62.06777777777778,90.90638306989146L62.21222222222222,92.53040875128802L62.385555555555555,97.91987897051415L62.761111111111106,99.50999045497687L62.89111111111111,103.21564896307834L63.39666666666667,99.7978104371887L63.41111111111111,81.48851581930933L63.44,85.45242213389051L64.07555555555555,83.89448738910671L64.19111111111111,89.3574688496587L64.32111111111111,94.85622666918206L64.35,90.16382881910201L64.42222222222223,76.34343653055653L64.78333333333333,79.70088543873712L64.79777777777778,83.8672436747018L64.94222222222221,83.78299025450818L64.97111111111111,74.85586433377573L65.04333333333332,74.37939260753012L65.24555555555557,77.20056421420905L65.33222222222221,70.94552367359638L65.46222222222222,52.96657605755331L65.67888888888889,51.0967589828265L65.76555555555557,51.39349873684549L66.44444444444444,52.74358785367892L66.53111111111112,59.283519294920524L66.77666666666667,66.6507025828587L66.86333333333333,74.85616543882057L67.57111111111111,76.41251083444064L67.67222222222222,83.21643118277686L67.74444444444444,88.6207258000528L67.93222222222222,88.39604798152547L68.46666666666665,91.75331394938799L68.66888888888889,92.73858043563396L69.17444444444445,95.3043791787277L70.37333333333333,97.30493490058288L70.50333333333333,102.13615046086886L70.63333333333334,104.47142069893499L70.72,99.65602285341282L71.06666666666666,104.21498579177675L71.74555555555555,103.70427037730141L71.86111111111111,100.92146047385106L72.38111111111111,93.63603996184321L72.61222222222223,97.52527495890901L72.65555555555555,101.5962576502387L72.77111111111111,99.96327908877348L72.81444444444445,98.06605179118988L73.16111111111111,101.43931642246842L73.21888888888888,99.83417926991675L73.65222222222222,97.51240051852923L74.20111111111112,93.57314751870162L74.46111111111112,98.80590709087609L74.54777777777778,102.68130531864284L74.77888888888889,103.25171197595218L75.03888888888889,106.37081151254306L75.05333333333334,102.34029151891755L75.54444444444445,106.48671026620197L75.68888888888888,104.58733903967118L75.73222222222223,102.3060512103221L75.74666666666667,98.41647923390444L75.77555555555556,91.9647901377803L75.78999999999999,86.53092277683427L76.1511111111111,91.21268964122167L76.62777777777778,88.19435390419426L77.20555555555556,87.3902671743275L77.65333333333334,87.07767973652203L78.04333333333334,80.60290847393101L78.11555555555556,83.01509543129472L78.43333333333334,84.83937019283012L78.70777777777778,88.34344164073208L78.92444444444445,91.14838408941046L79.15555555555557,87.45617195648177L79.57444444444445,87.15910332381401L79.61777777777777,92.45998294674024L79.97888888888889,95.31136695108272L80.35444444444444,97.69616141313772L80.6,95.31584932787342L80.88888888888889,95.38770251351879L81.14888888888889,88.0671727509377L81.17777777777778,93.36615336663037L81.20666666666668,96.8778332411473L81.29333333333332,96.48040531727185L81.69777777777779,98.09386137680022L81.9,97.95205223527296L82.7088888888889,97.67499772975651L82.76666666666668,101.54459460456621L82.92555555555555,103.92477294895379L83.37333333333333,107.2596894353922L83.4888888888889,106.39923039031157L83.67666666666668,106.15248666876005L83.7488888888889,104.27690293496012L83.98,90.7942254883238L84.05222222222223,95.38973064288396L84.08111111111111,100.77967823749997L84.22555555555554,100.23840808555897L84.28333333333333,102.11296123680897L84.70222222222222,106.96101455562128L84.87555555555555,111.37229016785744L85.62666666666667,105.98448603511454L85.78555555555555,98.97131948845099L86.03111111111112,97.59615177272377L86.43555555555555,95.51967352816558L86.81111111111112,101.31965507929284L86.98444444444445,103.08388719106887L87.14333333333333,102.56756986012655L87.18666666666667,101.57697537820309L88.01,104.03749592721051L88.08222222222223,108.81950330940911L88.09666666666666,108.16733999140241L88.24111111111111,112.80399522313252L89.29555555555555,116.8853027445109L89.45444444444445,117.4300379322467L89.46888888888888,103.42977303429895L89.49777777777777,103.53596219617141L89.57,102.98706171540609L89.58444444444444,104.55379592924079L89.94555555555556,98.74050710658592L90.01777777777778,100.5355195891961L90.06111111111112,104.7521066313391L90.17666666666666,108.36374169414638L90.46555555555555,111.95326459603608L90.50888888888889,115.59717521500217L90.52333333333334,118.38178487814314L90.74,117.0915046424714L91.05777777777777,116.23553854643718L91.24555555555555,116.55701680260378L91.27444444444444,118.101689508472L91.46222222222222,119.90880870064717L91.99666666666667,122.70618648139889L92.34333333333333,119.8369625557867L92.44444444444444,111.51763870396154L92.5311111111111,115.91832572133141L92.87777777777778,119.6468307991093L92.9211111111111,116.31561102509536L93.77333333333334,120.26945749306648L94.01888888888888,120.81119060975554L94.03333333333335,121.728364226464L94.32222222222222,125.24092925314434L94.36555555555556,124.47029762849436L94.49555555555555,123.10213115212024L95.01555555555557,121.36476696306161L95.05888888888889,117.821111334327L95.28999999999999,107.34723237189978L95.73777777777778,111.22402181054984L96.14222222222222,113.49100691106509L96.25777777777778,107.7813439030507L96.31555555555556,109.09767600627276L96.43111111111111,111.9883481779037L96.59,102.42600590982403L96.96555555555557,104.86799509407942L97.03777777777778,106.05778313998063L97.2688888888889,110.32002300379656L97.5,103.18802554993675L97.61555555555556,107.50287442530986L97.74555555555557,109.19019496172552L97.87555555555556,112.1734464723888L98.03444444444443,114.17360283813086L98.0488888888889,113.7363151115817L98.22222222222221,112.91092261314834L98.25111111111111,112.65740782297055L98.8,116.29010887583522L98.97333333333333,113.80412103808311L99.24777777777778,109.48760394886546L99.58,110.36287802893459L99.86888888888889,112.52923647217968L100.56222222222222,108.08685658330104L100.69222222222223,109.74193310746494L100.73555555555555,112.00240924879625L100.76444444444444,115.7661984665418L101.50111111111111,112.279824614482L101.54444444444444,107.11622706978966L101.83333333333333,108.60948354754022L101.86222222222223,112.48712872555211L101.87666666666667,115.32868005225711L101.97777777777779,117.23648895365352L102.23777777777777,118.11188013955737L102.64222222222223,121.74069865231645L102.93111111111111,119.7290715624866L103.04666666666667,120.65120220689107L103.49444444444444,120.26142769943326L103.74000000000001,123.5239759139046L104,119.34952688117582L104.11555555555556,122.3480849890803L104.56333333333333,125.1546818487931L104.95333333333333,124.93585838401779L105.28555555555556,122.41358399992536L105.70444444444445,121.59672658123722L105.86333333333333,121.92894635214078L106.09444444444445,124.85900016185111L106.29666666666667,127.8319634650398L106.6,127.95379178297095L107.17777777777778,127.5712732607896L107.49555555555555,129.8347771467895L107.56777777777778,128.39904449038218L108.10222222222222,126.83090476198916L108.2611111111111,129.27825577962102L108.34777777777778,124.67788166354362L108.55,127.84199068850971L108.57888888888888,113.90266296448998L109.0411111111111,114.62155786303438L109.38777777777777,110.76594045128736L109.5611111111111,114.30147060909717L109.59,109.31429457674056L109.67666666666666,113.8490784139509L109.85,116.25877597106506L110.21111111111111,120.09758653499476L110.61555555555556,121.80556303435246L110.64444444444445,124.43112086784154L110.70222222222222,127.68893749283993L110.91888888888889,129.6619378648998L111.5111111111111,130.94612228122236L111.55444444444446,125.3959747432556L112.32,127.96442830589059L112.36333333333333,126.70074775126886L112.50777777777778,128.82764275679898L112.76777777777778,130.57887942132606L112.78222222222222,132.86646031412593L113.02777777777779,134.93827562790744L113.07111111111111,131.11293351056315L113.56222222222222,133.25797500568387L113.5911111111111,133.94331046621318L113.69222222222221,131.52600502466774L114.08222222222221,130.36990326937095L114.21222222222222,131.87769382881407L114.51555555555557,134.1256663769878L114.86222222222221,124.21849499047042L114.93444444444444,126.78785589533764L115.02111111111111,129.45050577876083L115.41111111111111,130.30912501507072L115.7,132.85612160138794L115.77222222222223,133.18121187948776L115.9888888888889,134.99044038172133L116.06111111111112,136.84796904624181L116.68222222222222,137.37178138584503L116.74000000000001,136.31485265365785L117.04333333333334,138.21210453993555L117.07222222222222,136.5602501772625L117.30333333333333,138.05764639580045L117.33222222222223,139.54729834145226L117.41888888888889,141.360598871927L117.44777777777779,142.79246360331044L117.70777777777778,139.02124429668658L118.04,140.53281610802418L118.17,133.3872108621999L118.44444444444444,134.86002522956935L118.60333333333334,136.4294205696569L118.63222222222223,136.69876088123198L118.7188888888889,138.69915914341976L118.90666666666667,139.53071900100826L119.16666666666666,140.78415142200578L119.73,142.39519187059554L120.06222222222222,141.9100970677723L120.12,143.0478209372084L120.13444444444444,142.87229250015307L120.23555555555555,142.99589234899153L120.48111111111112,144.3036065090388L120.64,144.92410681637085L120.79888888888888,145.51935467700423L120.9,142.49118577429556L120.98666666666666,142.29558266979137L121.33333333333333,142.71863262064932L122.18555555555555,143.2335893550622L122.70555555555555,144.44537345570293L122.72,134.2805948641741L122.77777777777777,136.36813528798862L123.06666666666666,136.1178219697531L123.08111111111111,137.01747097358012L123.09555555555555,139.0434896078365L123.21111111111112,140.2503777494066L123.84666666666666,135.10144691815276L123.94777777777777,137.09033396565724L123.99111111111111,138.4248888215813L124.26555555555555,139.9740071585281L125.04555555555555,141.5623020018963L125.17555555555556,137.2424004374854L125.20444444444445,138.6223648423598L125.26222222222223,139.21873816900927L125.34888888888888,133.31619014920258L125.39222222222223,131.2108238715925L125.49333333333334,112.32191697303773L125.60888888888888,114.69241339347316L125.65222222222222,116.41670986200437L125.82555555555555,113.86360580589931L126.21555555555555,115.12992802159557L126.27333333333334,116.93107261797036L126.43222222222222,120.84140949938211L126.5911111111111,123.34678687956593L127.57333333333332,125.5173457464923L127.77555555555556,124.40113142939552L127.8911111111111,119.14855892291595L128.09333333333333,121.7866243189193L128.10777777777778,118.47981687543015L128.48333333333332,120.83050453803438L128.68555555555557,124.4307795878578L129.04666666666668,127.66467307603793L129.46555555555557,129.62884309419454L129.5088888888889,130.91587189544188L129.88444444444443,132.08612314757096L130.14444444444445,134.24291020160413L130.20222222222222,134.02001658609788L130.56333333333333,134.90885246308136L130.9388888888889,136.48716187715038L131.31444444444446,135.4585532476394L131.53111111111113,126.41522494722403L131.64666666666665,127.74227294334536L131.6611111111111,127.06743456729143L131.9788888888889,128.92541781897776L132.03666666666666,127.40288921712394L132.23888888888888,128.45371133229833L132.81666666666666,129.9448468362543L132.94666666666666,130.42152884257115L133.12,131.68146936851625L133.39444444444445,134.0712700408864L133.4377777777778,130.67994271913676L133.56777777777776,132.58237328451105L134.33333333333334,134.6406181762775L134.4922222222222,136.38523224563014L134.7522222222222,137.40427567376244L134.89666666666668,135.16181043815806L134.9111111111111,135.5401640307967L135.1711111111111,137.20407336859896L135.18555555555554,136.9224777807106L135.51777777777778,136.8009210701166L135.57555555555555,138.512398007815L135.79222222222222,136.2756691308231L136.22555555555556,134.17434546748166L136.35555555555555,134.03440218949743L136.3988888888889,136.26205772981817L136.5,136.25394889970485L136.64444444444445,138.23975054828165L136.68777777777777,139.36004649558384L136.76000000000002,139.43940355384862L136.90444444444444,137.087944042723L137.2511111111111,138.99891022720385L137.38111111111112,134.35359142810705L137.65555555555557,134.2363453467509L137.9011111111111,135.44089625851203L138.79666666666668,137.02367239676798L139.30222222222224,133.0606599622428L139.54777777777778,130.26887259494399L139.6922222222222,131.37855852941692L139.76444444444445,133.21171242469734L139.92333333333335,135.24156994049434L140.01,137.303415144141L140.11111111111111,136.32890631194573L140.3711111111111,133.98686667788786L140.44333333333333,136.12920526462267L140.51555555555555,135.34305364283642L140.77555555555554,135.9669455864706L140.93444444444444,136.48078090357885L140.9777777777778,136.87562836823162L141.26666666666668,138.23237057838736L141.38222222222223,139.27798223320818L141.52666666666667,140.11857281906828L141.70000000000002,137.20534072705522L142.0322222222222,137.9264403256235L142.10444444444445,137.43410599556682L142.98555555555555,137.6829017776026L143,139.46127261995406L143.46222222222224,136.91398835680107L144.08333333333334,131.4608442298349L144.19888888888892,128.9681995316279L144.31444444444443,130.59861893895985L144.32888888888888,130.82936870140514L144.82000000000002,131.7267276174434L144.9788888888889,133.74573692035648L145.1522222222222,135.91215822883058L145.39777777777778,137.22592813364844L146.26444444444445,135.3385559520751L146.61111111111111,136.08722563669582L147.04444444444445,135.49769339993878L147.10222222222222,130.85531171989197L147.30444444444444,132.63194611667174L147.55,128.40366908906623L147.63666666666666,114.90666831233946L148.24333333333334,116.49479304415284L148.47444444444443,120.12132585177226L148.63333333333333,112.19413422263128L148.76333333333335,116.1513054213903L148.87888888888887,117.68431140493519L149.1677777777778,120.56102379938845L149.19666666666666,124.10827397173978L149.23999999999998,125.54341693384485L149.26888888888888,127.03054012984103L149.35555555555555,123.09885394093453L149.64444444444445,124.27444110279632L149.6877777777778,125.66041532227216L149.76,126.33504523323909L149.89000000000001,128.75790858940027L150.9011111111111,131.10701676826343L151.19,133.3422238298615L151.20444444444445,135.3879257815231L151.23333333333332,129.03129387492282L151.43555555555554,131.02822419857722L151.49333333333334,131.2196372857044L151.62333333333333,133.3949243092229L151.63777777777779,125.28162901937839L151.71,126.698292226734L151.7822222222222,126.444091372882L151.99888888888887,128.42880864172366L152.4466666666667,130.09969051751432L152.62,131.22864627613598L152.7211111111111,128.519187040593L152.79333333333332,123.03071732162023L152.99555555555554,125.82137685369014L153.12555555555556,128.7757261826231L153.5011111111111,131.53845072275953L153.60222222222222,129.8987152447757L153.61666666666667,132.58777268714942L153.74666666666667,134.7565100996752L154.29555555555555,134.8458159854664L154.41111111111113,133.4523470595401L154.42555555555558,131.53740515961542L154.48333333333332,133.4276100500726L154.94555555555556,135.37937380459553L155.62444444444444,136.97803343553988L155.6822222222222,133.30443790354016L155.9422222222222,134.15153207076503L156.01444444444445,136.1265875829454L156.27444444444444,137.37839544832303L156.31777777777776,139.07929256747713L156.6211111111111,140.71503583751243L156.78,139.73665399654948L157.12666666666667,140.0506768600277L157.2277777777778,141.08900116683895L157.47333333333333,142.7573808197015L157.5022222222222,143.5570735930519L157.54555555555555,143.5972444160155L157.8488888888889,141.35458644652047L157.87777777777777,141.52403626286798L157.95000000000002,142.9982334874824L158.1088888888889,143.03522502610053L158.2822222222222,142.411313198236L158.5277777777778,143.76256523244544L158.7877777777778,144.89704327207681L158.87444444444444,144.497526703242L159.01888888888888,145.41007911142842L159.2788888888889,144.7852526066643L159.29333333333335,143.8607128561849L159.68333333333334,143.19094737092817L159.79888888888888,143.1217346155625L159.94333333333333,144.38005655790576L160.10222222222222,143.50114026904126L160.40555555555554,144.69393970169932L160.66555555555556,144.87980856639788L161.12777777777777,145.48063968054998L161.2288888888889,143.95017072729894L161.98,143.78898433932363L162.00888888888886,142.84842408925124L162.15333333333334,132.19094859004198L162.25444444444446,131.21428178478772L162.64444444444445,131.62167753931428L162.94777777777776,130.66486714009667L163.09222222222223,132.51093085451393L163.32333333333332,134.93192498869425L163.35222222222222,136.31516054670564L163.45333333333335,138.29140148996973L163.91555555555556,139.5008067052384L163.98777777777778,139.14676582140106L164.14666666666665,136.15140584250432L164.2188888888889,136.29562606605683L164.84,137.19891302849035L164.88333333333333,138.94341895081843L165.17222222222225,136.17327255131556L165.2588888888889,134.33945026009854L165.27333333333334,136.34054800731727L165.64888888888888,137.75659385428503L165.75,137.53501005035415L166.66,137.4780372856948L166.79,132.6721710245812L166.8911111111111,134.8639213346449L166.93444444444447,135.23303348895976L167.03555555555556,136.90992799586084L167.07888888888888,135.78504012260927L167.39666666666668,137.7355330228625L167.55555555555557,139.18428188645208L167.71444444444447,139.42723094663714L167.88777777777779,139.98476993396903L167.90222222222224,141.2760548341889L167.94555555555556,139.95882914501001L168.29222222222222,135.04665262534036L168.3788888888889,136.45078546464046L168.7111111111111,132.47091111551032L168.85555555555555,134.2715379984108L168.9711111111111,135.7682093815838L169.85222222222222,135.15521475389446L169.98222222222222,128.17741564191078L170.11222222222221,130.9031501836564L170.61777777777777,133.1641528332726L171.02222222222224,134.5637777975413L171.06555555555556,136.5733977355547L171.64333333333335,138.57133174368502L171.98999999999998,140.08361430810194L172.13444444444443,141.68749842887127L172.92888888888888,143.22177054627574L173.11666666666667,144.39137594099958L173.53555555555553,145.00510376018624L174.05555555555554,141.85835394220325L174.12777777777777,142.81207861079372L174.14222222222222,144.28046862040478L174.17111111111112,140.19840886654853L174.37333333333333,140.05692846137114L174.54666666666668,141.17178934214388L174.8788888888889,142.05044714328073L174.96555555555557,143.08060215261443L175.18222222222224,135.73355967447668L175.26888888888888,135.7293357487946L175.41333333333333,137.2588645991843L175.76000000000002,138.55086834690093L176.00555555555556,140.32140362043768L176.32333333333335,139.15694203659856L176.7711111111111,141.0266144929007L176.8722222222222,139.38056883201745L177.0311111111111,140.81092944329072L177.26222222222222,142.18759759599874L177.32000000000002,142.6398836883547L177.42111111111112,139.05039478504438L177.49333333333334,140.71033801007502L178.10000000000002,141.68787484175374L178.62,142.2883322125998L179.02444444444444,143.48975288112405L179.05333333333334,144.07677980937558L179.0677777777778,145.00842868412317L179.09666666666666,146.18991910741053L179.18333333333334,147.14078784188752L179.31333333333333,144.55582924466344L179.39999999999998,135.82647001348843L179.47222222222223,137.81584421759382L179.89111111111112,138.59416207118812L180.09333333333333,136.9636296977558L180.25222222222223,136.96128420754897L180.39666666666665,137.9093865438683L180.45444444444445,139.49574993330438L180.4688888888889,141.17059598227098L180.87333333333333,138.62658871767036L181.00333333333336,122.40176753005784L181.11888888888888,124.21603901299763L181.33555555555554,125.61067493907247L181.35,128.52174332013573L181.52333333333334,131.42345799580744L181.9711111111111,133.29530653300858L182.1011111111111,135.32325841315435L182.2888888888889,137.10900807802108L182.34666666666666,138.2922833354785L182.4188888888889,131.60072302477516L182.54888888888888,134.12779640531699L182.66444444444446,134.2246234587187L182.76555555555558,136.4542706216996L182.78,138.07257553511403L183.02555555555557,135.58500763889342L183.45888888888888,137.3025904086148L183.60333333333335,138.50046035691835L184.13777777777779,140.2263694234053L184.26777777777778,138.6017035575003L184.2822222222222,140.31394117046509L184.3688888888889,141.26144918511017L184.6,141.50711452895965L184.7011111111111,143.03150543972504L185.10555555555555,138.5981204333986L185.12,140.35268671146756L185.25,141.72798609918408L185.32222222222222,143.20682770402635L185.4811111111111,144.52814612517625L185.61111111111111,145.7512120652748L185.81333333333333,145.92529945203307L185.97222222222223,143.26612992302356L186.36222222222221,144.66608985064016L186.40555555555557,142.11438347830864L186.53555555555556,143.44152017827045L186.89666666666668,141.50369247601122L186.95444444444445,143.08658788606334L187.08444444444444,144.0962250849455L187.2866666666667,145.2514227740274L187.37333333333333,143.25826000052115L187.4022222222222,142.92566192702796L187.89333333333335,143.98223534355438L187.98,145.30166400273865L188.0666666666667,145.4554455710305L188.09555555555556,145.8907622426733L188.11,147.05861739643092L188.25444444444446,148.14961928522666L188.32666666666668,148.83797968618998L188.5288888888889,147.09378799281487L188.6588888888889,147.83395551996122L188.89000000000001,147.46330718050586L189.25111111111113,148.04623950693508L189.52555555555554,148.25281589687188L189.65555555555557,148.60949990618678L189.91555555555556,149.16226710874528L190.30555555555554,149.03399549547655L190.63777777777779,149.17027512195813L190.66666666666666,149.70114331956006L190.6811111111111,150.21207195277447L191.4177777777778,140.3879008973296L191.53333333333333,141.68989713164487L191.57666666666668,141.83420107642897L191.70666666666665,143.42144028402808L192.25555555555556,144.07509302068118L192.70333333333332,145.20548109031043L192.99222222222224,146.3813612933819L193.19444444444446,145.96267888355038L193.26666666666665,141.96969407780637L193.71444444444444,143.20511779948544L193.83,144.429578847257L193.85888888888888,144.82693908102243L194.35000000000002,145.9711820183602L194.39333333333335,144.44619028678198L194.59555555555556,145.2909877402171L194.63888888888889,144.76402640051242L194.79777777777778,145.48935172336897L194.88444444444443,146.63586053705203L195.28888888888886,147.4577735838581L195.33222222222224,148.22300489339744L195.34666666666666,142.7554779215074L195.43333333333334,143.687636920871L195.4622222222222,144.29343775455868L195.70777777777778,144.6854583493396L195.82333333333332,145.8499830272977L195.95333333333335,145.7167270124587L196.17,140.39743461541693L196.4011111111111,139.58021424105556L196.96444444444444,139.87498618341198L197.13777777777779,141.6126507895448L197.16666666666666,142.93388805202636L197.3111111111111,143.92943603934472L197.47,145.1815113036724L197.5711111111111,145.59388452516689L197.67222222222225,146.17505718874378L197.70111111111112,146.8235674623279L197.94666666666666,145.5937573268611L198.2211111111111,140.45011920589263L198.7411111111111,141.897701251376L198.88555555555556,143.19785769675778L199.1311111111111,144.60246781858865L199.2177777777778,145.4086344297049L199.34777777777776,144.03218629010377L199.7811111111111,143.15726516504822L200.11333333333334,133.70789482534357L200.12777777777777,135.94778443180783L200.38777777777779,138.11433350625725L200.79222222222222,136.96088555496385L200.86444444444444,138.25919554096765L201.0522222222222,134.02910464521324L201.25444444444446,133.47266144154273L201.37,135.72740021064982L201.44222222222223,135.9878203455136L201.4711111111111,137.53323082969072L201.48555555555555,137.34707221846716L201.77444444444447,139.24665453444595L201.84666666666666,137.09969374722516L202.04888888888888,137.2936214519969L202.19333333333333,138.7158218782814L202.26555555555555,130.61373592537353L202.36666666666667,125.89128250654743L202.64111111111112,128.78668730015391L202.81444444444443,131.5853017554761L203.32,134.09552069278163L203.45,135.3761544447668L204.14333333333335,137.6127750295473L204.21555555555554,139.47615636451738L204.4322222222222,134.18278637717825L204.5911111111111,135.87896364785246L204.64888888888888,138.062272926166L204.88,139.8171935372211L205.06777777777776,138.7814899514177L205.35666666666668,139.04693971247002L205.48666666666668,140.9106147366714L205.60222222222222,139.75155898193418L205.89111111111112,128.48638798495705L206.12222222222223,129.99788793840028L206.4111111111111,131.96459722267636L206.45444444444445,134.46931177854174L206.68555555555557,135.44971605003713L206.91666666666666,137.4088457578148L207.07555555555555,138.13004334324958L207.94222222222223,137.6683296258144L208.07222222222222,138.4270650996089L208.08666666666667,139.3788093207268L208.52,139.7712061986929L208.79444444444442,140.91042138045898L208.83777777777777,141.7357450841892L209.15555555555554,143.1409183720893L209.79111111111112,144.47485125684142L210.09444444444443,143.9464117683741L210.18111111111114,145.0512336692851L210.21,145.9414441068158L210.51333333333332,146.95252120509497L210.8311111111111,147.72157785015747L211.25,148.3400800619261L211.91444444444443,149.24551457034875L212.14555555555557,149.58139307280973L212.31888888888886,150.19862110175225L213.17111111111112,149.8388003028775L213.40222222222224,150.51008465401165L213.85,150.53904113976722L213.96555555555557,146.01865370781263L214.26888888888888,147.00238958845887L214.63,147.70599700180094L214.70222222222225,146.66222247324714L214.89000000000001,147.47902277983076L215.07777777777778,146.99212914545498L215.16444444444446,147.8872331479775L215.7711111111111,146.75621291800954L215.78555555555556,147.7870459665357L215.85777777777778,148.40633052815238L216.07444444444445,149.191185927133L216.91222222222223,138.40439500957683L217.15777777777777,140.3221578660541L217.54777777777778,141.11310916526185L217.5622222222222,142.7890258586458L217.67777777777778,143.8783553290314L217.85111111111112,142.16698952298879L217.89444444444445,143.3533552196832L218.02444444444447,144.6632582759672L218.2411111111111,145.72850214932762L218.29888888888888,144.6268418328957L218.32777777777778,144.47723248400257L218.54444444444442,139.95723759566582L218.80444444444444,141.56518334177943L219.06444444444443,142.74726456968764L219.2811111111111,142.79270095141632L219.42555555555558,142.6719048249461L219.4688888888889,143.90645736176162L219.64222222222222,145.16248154794062L219.65666666666667,144.22807635720633L219.71444444444444,141.89651917189815L220.11888888888888,143.45838999673646L220.49444444444444,144.87416650918965L220.97111111111113,145.70522644886768L221.1877777777778,144.92631235131742L221.70777777777778,145.80103244447753L221.78,146.9196631719082L222.47333333333333,145.89209302996284L222.53111111111113,146.68764451339396L222.82,147.4311307414134L223.51333333333335,148.25050167476638L223.5277777777778,148.6759229690196L223.90333333333334,148.2757110157022L223.94666666666666,148.7531429234132L224.55333333333334,149.4238672565854L224.78444444444443,149.22451620022053L225.29000000000002,149.85979081016373L225.50666666666666,150.47074032280858L225.6222222222222,151.22931507645364L225.69444444444446,151.7610007186671L225.70888888888888,151.21515460206695L226.18555555555554,151.89669884241079L226.43111111111114,152.34909124487115L226.47444444444446,151.9263013797382L226.51777777777778,152.42167528457276L226.70555555555555,152.96178390754955L227.09555555555556,152.05074660941617L227.35555555555555,152.46209936917515L227.45666666666668,151.42989153503666L227.55777777777777,150.48990528530902L227.87555555555556,150.2719459521422L228.17888888888888,150.01741044878636L228.36666666666665,150.73069046526692L228.87222222222223,151.21653034119313L229.20444444444445,151.6262072553323L229.24777777777777,151.16921562063968L229.43555555555557,151.8486492486262L229.49333333333334,152.39094321373742L229.58,152.70288942273402L230.20111111111112,151.27516102358052L230.21555555555557,151.56392771924118L230.48999999999998,151.0541312275127L230.53333333333336,151.6025248660929L230.64888888888888,151.45112423502155L230.66333333333333,151.81762231328602L230.67777777777778,151.45807064360707L230.76444444444445,151.5023044672628L231.05333333333334,150.17644605315238L231.0822222222222,150.92189839357L231.34222222222223,151.6076802864724L232.06444444444443,152.1846392904218L232.26666666666665,152.59452558040667L232.35333333333335,152.52042140692433L232.84444444444443,153.0666195731782L233.43666666666667,145.31459428568158L233.8411111111111,146.08046992442203L234.2311111111111,146.52385171707212L234.30333333333334,142.3176601048327L234.39,143.58475236811347L234.72222222222223,144.933243798257L235.08333333333334,145.15978649946086L235.2566666666667,145.45769832711582L235.2711111111111,146.08636973136544L235.35777777777778,146.96269488453112L235.48777777777778,147.62627515644897L235.73333333333332,148.6153512276965L235.90666666666667,148.98135456368146L235.9933333333333,149.8056802845668L236.28222222222223,150.23972790600564L236.34,150.8601768237716L236.68666666666667,147.04333408161628L236.71555555555554,146.14657468293603L236.84555555555556,142.59246600129586L237.56777777777776,144.02167818666894L237.91444444444443,140.08010023318323L237.92888888888888,141.15869018399218L238.24666666666667,142.6776047371893L238.7522222222222,143.75227834912758L238.76666666666668,144.59458949183616L239.11333333333332,141.22952145997357L239.14222222222222,142.52414156845683L239.15666666666667,143.44279428993323L239.59,144.84311834422826L239.95111111111112,145.01217941280805L239.99444444444444,145.06658453075033L240.02333333333334,144.03847437860384L240.24,144.71544494457345L240.32666666666668,143.6100681214323L240.61555555555555,144.93570053689336L240.76000000000002,146.22313478318026L240.77444444444444,146.6275392377157L240.89,147.54161911793724L240.9477777777778,147.78022110992197L241.03444444444443,148.6932765640418L241.26555555555555,141.86784998951757L241.88666666666666,142.73227163659763L242.06,144.06122342736407L242.21888888888887,144.99698442750633L242.36333333333334,145.87130300447046L242.37777777777777,134.8305697419931L242.43555555555554,137.1391494771479L242.49333333333334,138.93557116223204L242.5511111111111,140.08502761038187L242.79666666666665,141.5628724437042L242.88333333333335,142.80302744270784L242.94111111111113,141.85168020902688L242.97,143.13850754540331L243.3311111111111,144.53467668414498L243.60555555555555,145.6189372274281L243.70666666666668,143.743173149364L243.72111111111113,144.95264331858417L243.95222222222222,145.79833739486787L243.99555555555554,146.9998975650049L244.45777777777778,147.9631281039386L244.47222222222223,148.43937025132863L244.48666666666668,149.2794957742396L244.83333333333334,148.09836001579356L245.03555555555556,148.92299645758456L245.54111111111112,147.91709721689529" style="fill: none;" fill="none"></path></g></g></g></g><g opacity="0.2"><g><g><g><path stroke="rgb(255, 112, 67)" stroke-width="2px" d="M29.91444444444444,-273.2412084341049L29.95777777777778,8.389801674418983L30.246666666666666,-93.3204168478648L31.127777777777776,108.0851489239269L31.171111111111113,-62.91892919937771L31.301111111111112,-29.611155331134796L32.196666666666665,24.892103566063785L32.26888888888889,-76.98363986942505L32.572222222222216,-121.64213767316609L32.644444444444446,104.56891968184048L32.745555555555555,18.850672635767193L32.83222222222222,-25.937085787455253L33.337777777777774,92.84658620092604L33.36666666666667,-140.33892297744754L33.48222222222222,74.59860284460915L33.90111111111111,-89.49685471587715L34.190000000000005,-2.3167263534333795L34.97,30.490037361780814L34.98444444444445,-7.9983435802989575L35.53333333333333,-98.72160100936894L35.73555555555556,18.99340158700943L36.63111111111111,119.19123991661603L37.02111111111111,92.56229241026772L37.25222222222222,13.39386161168417L37.35333333333333,97.72750078969533L37.367777777777775,54.51829273833168L37.84444444444444,117.67118248012329L38.04666666666667,59.985462884108216L38.162222222222226,110.9439681155814L38.23444444444444,81.01173910167482L38.263333333333335,112.99692721168199L38.43666666666667,147.22413023064533L38.581111111111106,134.29202668948304L39.202222222222225,107.31752400762504L39.31777777777778,77.0745655496915L39.43333333333334,-91.31048199865555L39.80888888888889,98.0444007631805L39.93888888888889,118.24553904599613L39.99666666666666,103.07608256902958L40.025555555555556,-43.29254902733696L40.473333333333336,-26.067260013686294L40.56,62.8799164228969L40.964444444444446,67.41007232997153L42.01888888888889,25.077506793869876L42.495555555555555,74.75628105468219L42.53888888888889,-15.814234587881279L42.784444444444446,37.995699935489235L42.91444444444445,147.25734978251987L42.928888888888885,14.937208652496338L43.01555555555556,135.8658414102263L43.03,74.05132293038896L43.102222222222224,69.41255096925629L43.36222222222222,66.6981442703141L43.40555555555556,95.89473197195265L43.535555555555554,101.81266389952765L44.24333333333333,69.20721785227457L44.28666666666667,122.21126649280387L44.373333333333335,113.37638346023029L44.46,-33.97249292002785L44.532222222222224,126.59031626416576L44.67666666666667,50.418511920505104L44.763333333333335,73.681481656101L44.83555555555556,107.65214353137547L45.586666666666666,-71.69957419898778L45.65888888888889,2.46890789270401L45.67333333333333,96.64321903718842L45.93333333333333,50.37410621179476L46.12111111111111,76.9468742708365L46.30888888888889,151.46150464564562L46.85777777777778,79.0677165587743L47.10333333333333,-113.43774276309547L47.39222222222222,69.92118679152594L47.58,124.47764486240017L47.89777777777778,110.32086989283562L47.941111111111105,84.690185116397L48.14333333333334,53.439212650060654L48.20111111111111,55.74610653188492L48.894444444444446,116.72284393840367L48.995555555555555,-54.511138902770156L49.31333333333334,75.61806272466976L49.486666666666665,66.12841468056041L49.63111111111111,18.38981697294447L50.06444444444445,105.03779887490803L50.22333333333333,54.12287784285015L50.33888888888889,96.31415114800134L50.425555555555555,39.314948081970215L50.88777777777778,84.452057937781L50.94555555555556,58.87828938828573L51.306666666666665,129.61259738604227L51.53777777777778,147.60333044826984L51.55222222222222,129.1713142742713L51.76888888888889,-75.70540087752876L51.82666666666667,137.6432412382629L52.07222222222222,-130.2316030926175L52.577777777777776,59.129914369848024L52.693333333333335,-3.2613809969689935L52.98222222222222,118.00536361998981L53.184444444444445,62.34701107939083L53.31444444444444,68.85455091132057L53.40111111111111,126.80173149704933L53.47333333333333,59.37259484661949L53.574444444444445,142.33517185019122L53.70444444444444,45.07801629768478L53.906666666666666,103.54658636119629L53.93555555555555,122.82141212953461L53.97888888888889,101.34476462337706L54.108888888888885,0.14111157258352303L54.614444444444445,108.73289242552386L54.96111111111111,98.18994052873717L55.26444444444444,75.59363111191324L55.52444444444444,30.659924010435752L55.654444444444444,125.55920421414906L55.842222222222226,73.74513941672112L55.885555555555555,-38.01464283466339L56.00111111111111,60.79869077603021L56.57888888888889,-58.38771969742245L56.824444444444445,74.13452008697722L56.96888888888889,116.83890883458984L57.01222222222222,50.36218511727122L57.30111111111111,147.17672306588955L57.53222222222222,102.35597257150543L57.79222222222222,45.540242370631965L57.965555555555554,138.67600735856425L58.21111111111111,35.202376769648666L58.297777777777775,30.32334833674961L58.644444444444446,-16.870540817578622L58.83222222222222,146.4937661025259L58.87555555555556,63.194661315944444L58.89,18.345860699812583L59.00555555555556,128.24537014961243L59.06333333333333,92.4368188381195L59.16444444444445,-57.72090465492672L59.87222222222222,119.75002832876312L59.93,90.45846973194016L60.03111111111111,116.85281923413277L60.16111111111111,90.98679967390166L60.47888888888889,-9.26165541675354L60.53666666666667,93.4144296348095L60.65222222222222,-72.70594150490234L60.76777777777778,90.29473519325256L60.82555555555556,133.0411848483814L61.114444444444445,108.47399174504811L61.18666666666667,127.28656933705011L61.20111111111111,60.445242848661195L61.27333333333333,142.2777638228403L61.446666666666665,139.77277936786413L61.489999999999995,114.83300048609573L61.562222222222225,80.91424842013252L61.836666666666666,99.21415632135337L62.06777777777778,100.98789803849326L62.21222222222222,107.14663902256224L62.385555555555555,146.42510837109552L62.761111111111106,113.82099313206142L62.89111111111111,136.56657410330243L63.39666666666667,69.03726489345232L63.41111111111111,-83.29513000779686L63.44,121.12757784790462L64.07555555555555,69.87307508124245L64.19111111111111,138.52430074744754L64.32111111111111,144.34504591508042L64.35,47.93224903610018L64.42222222222223,-48.04009176625145L64.78333333333333,109.9179251094659L64.79777777777778,121.36446723673079L64.94222222222221,83.0247094829877L64.97111111111111,-5.488267978032416L65.04333333333332,70.09114711814455L65.24555555555557,102.59110842479599L65.33222222222221,14.650159305996361L65.46222222222222,-108.84395119878982L65.67888888888889,34.26840543084675L65.76555555555557,54.06415650579664L66.44444444444444,64.89438983466889L66.53111111111112,118.14290195869074L66.77666666666667,132.9553518626425L66.86333333333333,148.7053308300674L67.57111111111111,90.41961934169132L67.67222222222222,144.4517141079737L67.74444444444444,137.25937720553742L67.93222222222222,86.37394762039185L68.46666666666665,121.96870758467252L68.66888888888889,101.60597879191238L69.17444444444445,118.396567819847L70.37333333333333,115.30993636449176L70.50333333333333,145.61709043218028L70.63333333333334,125.48885281052853L70.72,56.31744230124685L71.06666666666666,145.24565218802957L71.74555555555555,99.10783165196577L71.86111111111111,75.87617136703597L72.38111111111111,28.06725541088316L72.61222222222223,132.52838990506197L72.65555555555555,138.23510184635717L72.77111111111111,85.26647204491827L72.81444444444445,80.99100612269507L73.16111111111111,131.79869808836114L73.21888888888888,85.38794490363863L73.65222222222222,76.61639176474677L74.20111111111112,58.1198705335458L74.46111111111112,145.9007432245546L74.54777777777778,137.55988935795094L74.77888888888889,108.38537189033295L75.03888888888889,134.44270733495551L75.05333333333334,66.065611584319L75.54444444444445,143.80447898432612L75.68888888888888,87.49299800395966L75.73222222222223,81.7744607494937L75.74666666666667,63.41033145123056L75.77555555555556,33.899588280253944L75.78999999999999,37.62611653407416L76.1511111111111,133.34859141624636L76.62777777777778,61.02933227353624L77.20555555555556,80.15348660614755L77.65333333333334,84.26439279648993L78.04333333333334,22.329967114660473L78.11555555555556,104.72477804621059L78.43333333333334,101.25784304572475L78.70777777777778,119.88008467025226L78.92444444444445,116.39286612636512L79.15555555555557,54.226262761486915L79.57444444444445,84.48548562990294L79.61777777777777,140.16789955149093L79.97888888888889,120.97382298939759L80.35444444444444,119.159311571055L80.6,73.89304056101373L80.88888888888889,96.03438118431303L81.14888888888889,22.182404889000797L81.17777777777778,141.0569789070222L81.20666666666668,128.48295211129718L81.29333333333332,92.90355400244394L81.69777777777779,112.61496591236855L81.9,96.67576996154254L82.7088888888889,95.18150718013445L82.76666666666668,136.37096647752654L82.92555555555555,125.34637804826099L83.37333333333333,137.27393781310982L83.4888888888889,98.65509898463884L83.67666666666668,103.93179317480987L83.7488888888889,87.39664933085442L83.98,-30.54987153079773L84.05222222222223,136.74927703373962L84.08111111111111,149.28920658884775L84.22555555555554,95.36697671810785L84.28333333333333,118.98393959800401L84.70222222222222,150.59349442480337L84.87555555555555,151.07377067787777L85.62666666666667,57.49424884054395L85.78555555555555,35.85282056861454L86.03111111111112,85.2196423312028L86.43555555555555,76.83136932717429L86.81111111111112,153.5194890393565L86.98444444444445,118.9619761970308L87.14333333333333,97.92071388165155L87.18666666666667,92.66162504090202L88.01,126.18218086825478L88.08222222222223,151.85756974915662L88.09666666666666,102.29787012934685L88.24111111111111,154.53389230867225L89.29555555555555,153.6170704368916L89.45444444444445,122.332654621866L89.46888888888888,-22.572611047161942L89.49777777777777,104.49166465302307L89.57,98.04695738852024L89.58444444444444,118.65440385374758L89.94555555555556,46.4209077027109L90.01777777777778,116.69063193268245L90.06111111111112,142.70139001061517L90.17666666666666,140.86845725940333L90.46555555555555,144.25897071303592L90.50888888888889,148.39237078569002L90.52333333333334,143.443271846407L90.74,105.478982521428L91.05777777777777,108.53184368213016L91.24555555555555,119.4503211081028L91.27444444444444,132.0037438612845L91.46222222222222,136.1728814302219L91.99666666666667,147.8825865081615L92.34333333333333,94.01394722527927L92.44444444444444,36.6437240375413L92.5311111111111,155.52450887765735L92.87777777777778,153.20337649910815L92.9211111111111,86.33463305897182L93.77333333333334,155.85407570480473L94.01888888888888,125.6867886599567L94.03333333333335,129.9829267768396L94.32222222222222,156.8540144932663L94.36555555555556,117.53461300664479L94.49555555555555,110.7886328647534L95.01555555555557,105.72848926153446L95.05888888888889,85.9282106757164L95.28999999999999,13.082321710056725L95.73777777777778,146.11512675839992L96.14222222222222,133.89387281570168L96.25777777777778,56.39437683092222L96.31555555555556,120.94466493527094L96.43111111111111,138.004397722582L96.59,16.36492549710804L96.96555555555557,126.84589775237772L97.03777777777778,116.76587555309135L97.2688888888889,148.68018177813954L97.5,39.00004846519894L97.61555555555556,146.33651430366766L97.74555555555557,124.37607978946632L97.87555555555556,139.0227100683583L98.03444444444443,132.17501012980938L98.0488888888889,109.80072557263905L98.22222222222221,105.48239012724822L98.25111111111111,110.37577471137047L98.8,148.98441835161714L98.97333333333333,91.4302304983139L99.24777777777778,70.63895014590686L99.58,118.24034474955664L99.86888888888889,132.02646246138545L100.56222222222222,68.10543758339351L100.69222222222223,124.63762182494003L100.73555555555555,132.34669452077813L100.76444444444444,149.6403014262517L101.50111111111111,80.90245994594362L101.54444444444444,60.643849167558876L101.83333333333333,122.04879184729522L101.86222222222223,147.38593532765904L101.87666666666667,140.90264199260207L101.97777777777779,134.4067690662212L102.23777777777777,125.9904008126921L102.64222222222223,154.4000652671481L102.93111111111111,101.62442775401804L103.04666666666667,128.9503780065311L103.49444444444444,116.75345713231299L103.74000000000001,152.88690984414686L104,81.77948558661673L104.11555555555556,149.33510796022085L104.56333333333333,150.41405358620815L104.95333333333333,122.96644720104004L105.28555555555556,99.71311454309357L105.70444444444445,114.24500981304381L105.86333333333333,124.91892429027293L106.09444444444445,151.2294844492442L106.29666666666667,154.58863319373793L106.6,129.0502466443512L107.17777777777778,124.12860656115744L107.49555555555555,150.20631212078862L107.56777777777778,115.4774505827162L108.10222222222222,112.71764720645214L108.2611111111111,151.30441493830747L108.34777777777778,83.2745146188471L108.55,156.31897191320442L108.57888888888888,-11.551286551687431L109.0411111111111,121.09161194993389L109.38777777777777,76.06538374556435L109.5611111111111,146.12124202938543L109.59,64.42971028553114L109.67666666666666,154.66213294884395L109.85,137.94605398509236L110.21111111111111,154.64688161036204L110.61555555555556,137.1773515285717L110.64444444444445,148.06114136924344L110.70222222222222,157.0092871178252L110.91888888888889,147.4189412134389L111.5111111111111,142.50378202812539L111.55444444444446,75.44464690155452L112.32,151.0805103696055L112.36333333333333,115.32762275967333L112.50777777777778,147.96969780657025L112.76777777777778,146.34000940206977L112.78222222222222,153.45468834932478L113.02777777777779,153.58461345194112L113.07111111111111,96.68485445446437L113.56222222222222,152.56334846177035L113.5911111111111,140.1113296109769L113.69222222222221,109.7702560507589L114.08222222222221,119.96498747169971L114.21222222222222,145.44780886380207L114.51555555555557,154.35741931055156L114.86222222222221,35.05395251181391L114.93444444444444,149.91210403914252L115.02111111111111,153.41435472956962L115.41111111111111,138.03669814185963L115.7,155.77909087824324L115.77222222222223,136.10702438238593L115.9888888888889,151.2734969018234L116.06111111111112,153.56572702692617L116.68222222222222,142.0860924422741L116.74000000000001,126.80249406397343L117.04333333333334,155.28737151643466L117.07222222222222,121.69356091320515L117.30333333333333,151.53421236264208L117.33222222222223,152.9541658523182L117.41888888888889,157.68030364619983L117.44777777777779,155.67924618576137L117.70777777777778,105.08027053707177L118.04,154.13696241006255L118.17,69.07676364978153L118.44444444444444,148.11535453589428L118.60333333333334,150.55397863044507L118.63222222222223,139.12282368540764L118.7188888888889,156.70274350310987L118.90666666666667,147.01475771930484L119.16666666666666,152.06504321098328L119.73,156.89455590790342L120.06222222222222,137.54424384236336L120.12,153.28733576213318L120.13444444444444,141.29253656665483L120.23555555555555,144.108290988538L120.48111111111112,156.07303394946373L120.64,150.50860958235958L120.79888888888888,150.8765854227046L120.9,115.23766564991737L120.98666666666666,140.53515472925372L121.33333333333333,146.5260821783708L122.18555555555555,147.8681999647783L122.70555555555555,155.35143036146957L122.72,42.797587540414604L122.77777777777777,155.15599910231927L123.06666666666666,133.8650021056334L123.08111111111111,145.11431200802326L123.09555555555555,157.27765731614394L123.21111111111112,151.1123710235374L123.84666666666666,88.76106943686801L123.94777777777777,154.99031739319778L123.99111111111111,150.43588252489764L124.26555555555555,153.91607219104964L125.04555555555555,155.85695559221008L125.17555555555556,98.3632863577869L125.20444444444445,151.0420444862296L125.26222222222223,144.58609810885457L125.34888888888888,80.19325797094238L125.39222222222223,112.26252737310196L125.49333333333334,-57.67824511395561L125.60888888888888,136.02688117739226L125.65222222222222,131.9353780787852L125.82555555555555,90.88566930095354L126.21555555555555,126.52682796286213L126.27333333333334,133.1413739853435L126.43222222222222,156.0344414320878L126.5911111111111,145.89518330122033L127.57333333333332,145.05237554882962L127.77555555555556,114.35520257552463L127.8911111111111,71.87540636459985L128.09333333333333,145.52921288294922L128.10777777777778,88.7185498840279L128.48333333333332,141.98669350147247L128.68555555555557,156.83325503626838L129.04666666666668,156.76971446965925L129.46555555555557,147.30637325760392L129.5088888888889,142.49913110666805L129.88444444444443,142.6183844167325L130.14444444444445,153.65399368790287L130.20222222222222,132.01397404654156L130.56333333333333,142.90837535593244L130.9388888888889,150.69194660377173L131.31444444444446,126.20107558204067L131.53111111111113,45.02527024348578L131.64666666666665,139.6857049084372L131.6611111111111,120.99388918280602L131.9788888888889,145.6472670841548L132.03666666666666,113.7001318004396L132.23888888888888,137.9111103688677L132.81666666666666,143.36506637185812L132.94666666666666,134.7116668994228L133.12,143.02093410202198L133.39444444444445,155.57947609221767L133.4377777777778,100.1579968233903L133.56777777777776,149.7042483728793L134.33333333333334,153.16482220217586L134.4922222222222,152.08675886980362L134.7522222222222,146.57566652695337L134.89666666666668,114.9796233177185L134.9111111111111,138.9453463645445L135.1711111111111,152.17925740881927L135.18555555555554,134.3881174897154L135.51777777777778,135.70691067477065L135.57555555555555,153.91569044710033L135.79222222222222,116.14510923789607L136.22555555555556,115.26243249740864L136.35555555555555,132.7749126876394L136.3988888888889,156.31095759270508L136.5,136.18096942868496L136.64444444444445,156.1119653854726L136.68777777777777,149.44271002130378L136.76000000000002,140.15361707823143L136.90444444444444,115.92480844259262L137.2511111111111,156.1976058875314L137.38111111111112,92.54572223623592L137.65555555555557,133.1811306145456L137.9011111111111,146.28185446436206L138.79666666666668,151.2686576410714L139.30222222222224,97.3935480515162L139.54777777777778,105.14278628925481L139.6922222222222,141.36573193967342L139.76444444444445,149.71009748222102L139.92333333333335,153.51028758266736L140.01,155.860021976961L140.11111111111111,127.55832682218815L140.3711111111111,112.90850997136698L140.44333333333333,155.41025254523586L140.51555555555555,128.26768904676038L140.77555555555554,141.58197307917806L140.93444444444444,141.1052987575531L140.9777777777778,140.42925555010635L141.26666666666668,150.44305046978923L141.38222222222223,148.68848712659545L141.52666666666667,147.68388809180922L141.70000000000002,110.98625189893777L142.0322222222222,144.41633671273786L142.10444444444445,133.00309702505666L142.98555555555555,139.92206381592484L143,155.46661020111708L143.46222222222224,113.98842998842397L144.08333333333334,82.38254708713954L144.19888888888892,106.5343972477648L144.31444444444443,145.27239360494744L144.32888888888888,132.90611656341287L144.82000000000002,139.80295786178775L144.9788888888889,151.91682064657408L145.1522222222222,155.4099500050975L145.39777777777778,149.0498572770092L146.26444444444445,118.35220631791485L146.61111111111111,142.82525279828243L147.04444444444445,130.19190326912533L147.10222222222222,89.07387659947076L147.30444444444444,148.62165568768978L147.55,90.34917584061623L147.63666666666666,-6.566338678201026L148.24333333333334,130.787915630473L148.47444444444443,152.7601211203469L148.63333333333333,40.84940956036251L148.76333333333335,151.76584621022144L148.87888888888887,131.48136525683933L149.1677777777778,146.45143534946772L149.19666666666666,156.03352552290178L149.23999999999998,138.45970359279048L149.26888888888888,140.41464889380666L149.35555555555555,87.71367824077606L149.64444444444445,134.8547255595525L149.6877777777778,138.13418329755464L149.76,132.4067144319415L149.89000000000001,150.5636787948509L150.9011111111111,152.24899037803212L151.19,153.4590873842438L151.20444444444445,153.79924334647754L151.23333333333332,71.8216067155202L151.43555555555554,149.00059711146685L151.49333333333334,132.9423550698492L151.62333333333333,152.97250752088922L151.63777777777779,52.26197141077784L151.71,139.44826109293433L151.7822222222222,124.15628368821407L151.99888888888887,146.29126406129865L152.4466666666667,145.13762739963002L152.62,141.3892481037312L152.7211111111111,104.1340539207061L152.79333333333332,73.63448985086546L152.99555555555554,150.9373126423193L153.12555555555556,155.3648701430195L153.5011111111111,156.4029715839877L153.60222222222222,115.1410959429211L153.61666666666667,156.78928966851285L153.74666666666667,154.27514681240748L154.29555555555555,135.64956895758706L154.41111111111113,120.9111267262035L154.42555555555558,114.3029280602932L154.48333333333332,150.4394540641871L154.94555555555556,152.94524759530194L155.62444444444444,151.36597011403907L155.6822222222222,100.24207811554271L155.9422222222222,141.77537957578897L156.01444444444445,153.9020871925685L156.27444444444444,148.6446662367218L156.31777777777776,154.38736663986413L156.6211111111111,155.43672526782998L156.78,130.93121742788287L157.12666666666667,142.87688263133168L157.2277777777778,150.4339199281401L157.47333333333333,157.77279769546456L157.5022222222222,150.75430855320562L157.54555555555555,143.95878182268805L157.8488888888889,121.17066472106511L157.87777777777777,143.04908460999528L157.95000000000002,156.26600850901255L158.1088888888889,143.3681488736636L158.2822222222222,136.79610674745507L158.5277777777778,155.92383354033032L158.7877777777778,155.10734562875908L158.87444444444444,140.9018775837289L159.01888888888888,153.6230507851061L159.2788888888889,139.16181406378746L159.29333333333335,135.53985510187016L159.68333333333334,137.16305800361764L159.79888888888888,142.4988198172715L159.94333333333333,155.704954038995L160.10222222222222,135.59089366926085L160.40555555555554,155.4291345956218L160.66555555555556,146.55262834868498L161.12777777777777,150.88811970791883L161.2288888888889,130.1759501480394L161.98,142.33830684754582L162.00888888888886,134.38338183859983L162.15333333333334,36.27366909715864L162.25444444444446,122.42428053749931L162.64444444444445,135.28823933005333L162.94777777777776,122.0535735471381L163.09222222222223,149.12550428426928L163.32333333333332,156.72087219631715L163.35222222222222,148.76428056880832L163.45333333333335,156.07756997934646L163.91555555555556,150.3854536426564L163.98777777777778,135.96039786686498L164.14666666666665,109.19316603243351L164.2188888888889,137.5936080780294L164.84,145.32849569039212L164.88333333333333,154.6439722517712L165.17222222222225,111.24195495578978L165.2588888888889,117.83504963914552L165.27333333333334,154.35042773228554L165.64888888888888,150.50100647699503L165.75,135.54075581497617L166.66,136.96528240376048L166.79,89.41937467455864L166.8911111111111,154.58967412521858L166.93444444444447,138.5550428777933L167.03555555555556,152.0019785579708L167.07888888888888,125.66104926334488L167.39666666666668,155.28996912514168L167.55555555555557,152.2230216587583L167.71444444444447,141.61377248830266L167.88777777777779,145.00262081995606L167.90222222222224,152.89761893616785L167.94555555555556,128.10379794239998L168.29222222222222,90.83706394831339L168.3788888888889,149.08798101834125L168.7111111111111,96.65204197333918L168.85555555555555,150.47717994451523L168.9711111111111,149.23825183014074L169.85222222222222,129.63826310469042L169.98222222222222,65.37722363405756L170.11222222222221,155.434761059367L170.61777777777777,153.51317667981814L171.02222222222224,147.16040247595973L171.06555555555556,154.6599771776754L171.64333333333335,156.55273781685779L171.98999999999998,153.69415738785435L172.13444444444443,156.12245551579528L172.92888888888888,157.03021960291596L173.11666666666667,154.9178244935142L173.53555555555553,150.5286541328662L174.05555555555554,113.53760558035637L174.12777777777777,151.3956006281078L174.14222222222222,157.49597870690437L174.17111111111112,103.45987108184231L174.37333333333333,138.78360481477446L174.54666666666668,151.20553726909887L174.8788888888889,149.95836735351216L174.96555555555557,152.35199723661773L175.18222222222224,69.61017737123701L175.26888888888888,135.69132041765582L175.41333333333333,151.02462425269186L175.76000000000002,150.17890207635034L176.00555555555556,156.25622108226847L176.32333333333335,128.67678778204652L176.7711111111111,157.85366659962003L176.8722222222222,124.56615788406795L177.0311111111111,153.68417494475014L177.26222222222222,154.5776109703713L177.32000000000002,146.7104585195581L177.42111111111112,106.7449946552515L177.49333333333334,155.6498270353509L178.10000000000002,150.48570632686216L178.62,147.69244855021435L179.02444444444444,154.30253889784217L179.05333333333334,149.36002216363946L179.0677777777778,153.39326855685147L179.09666666666666,156.82333291699695L179.18333333333334,155.69860645218026L179.31333333333333,121.2912018696467L179.39999999999998,57.26223693291345L179.47222222222223,155.72021205454237L179.89111111111112,145.5990227535367L180.09333333333333,122.2888383368651L180.25222222222223,136.9401747956872L180.39666666666665,146.44230757074223L180.45444444444445,153.77302043822903L180.4688888888889,156.24421042297035L180.87333333333333,115.73052333626482L181.00333333333336,-23.621623158454895L181.11888888888888,140.54448235945569L181.33555555555554,138.16239827374616L181.35,154.72135874970505L181.52333333333334,157.5388900768529L181.9711111111111,150.14194336781898L182.1011111111111,153.57482533446617L182.2888888888889,153.18075506182183L182.34666666666666,148.9417606525951L182.4188888888889,71.37668022844527L182.54888888888888,156.87145683019318L182.66444444444446,135.09606693933407L182.76555555555558,156.52109508852786L182.78,152.63731975584395L183.02555555555557,113.19689657290775L183.45888888888888,152.76083533610733L183.60333333333335,149.28128989165026L184.13777777777779,155.75955102178784L184.26777777777778,123.97971076435512L184.2822222222222,155.72407968714833L184.3688888888889,149.78902131691575L184.6,143.71810262360506L184.7011111111111,156.75102363661347L185.10555555555555,98.6976553764608L185.12,156.1437832140881L185.25,154.10568058863282L185.32222222222222,156.51640214760684L185.4811111111111,156.42001191552524L185.61111111111111,156.75880552616175L185.81333333333333,147.49208593285746L185.97222222222223,119.33360416193801L186.36222222222221,157.2657291991895L186.40555555555557,119.14902612732517L186.53555555555556,155.38575047792662L186.89666666666668,124.0632431556781L186.95444444444445,157.33264657653248L187.08444444444444,153.18295987488497L187.2866666666667,155.64820197576452L187.37333333333333,125.319795038965L187.4022222222222,139.9322792655892L187.89333333333335,153.49139609229235L187.98,157.17652193539672L188.0666666666667,146.83947968565755L188.09555555555556,149.80861228745846L188.11,157.56931378024942L188.25444444444446,157.96863628438828L188.32666666666668,155.03322329485994L188.5288888888889,131.3960627524389L188.6588888888889,154.49546326427824L188.89000000000001,144.12747212540773L189.25111111111113,153.2926304447982L189.52555555555554,150.11200340630282L189.65555555555557,151.81965599002112L189.91555555555556,154.13717193177175L190.30555555555554,147.87955097605783L190.63777777777779,150.39679176029233L190.66666666666666,154.4789570979774L190.6811111111111,154.8104296517041L191.4177777777778,51.970361398326034L191.53333333333333,153.4078632404821L191.57666666666668,143.13293657948572L191.70666666666665,157.70659315242017L192.25555555555556,149.95796765055923L192.70333333333332,155.37897371697343L192.99222222222224,156.96428312102537L193.19444444444446,142.1945371950666L193.26666666666665,106.0328308261103L193.71444444444444,154.32393129459686L193.83,155.44972827720144L193.85888888888888,148.40318118491106L194.35000000000002,156.26936845440002L194.39333333333335,130.72126470257837L194.59555555555556,152.89416482113302L194.63888888888889,140.02137434317004L194.79777777777778,152.0172796290782L194.88444444444443,156.95443986019947L195.28888888888886,154.8549910051127L195.33222222222224,155.11008667925168L195.34666666666666,93.54773517449695L195.43333333333334,152.07706791514326L195.4622222222222,149.74564525774784L195.70777777777778,148.21364370236793L195.82333333333332,156.33070512892058L195.95333333333335,144.51742287890778L196.17,92.52380304204092L196.4011111111111,132.22523087180323L196.96444444444444,142.52793366461992L197.13777777777779,157.2516322447401L197.16666666666666,154.82502341436017L197.3111111111111,152.8893679252101L197.47,156.45018868262153L197.5711111111111,149.30524351861743L197.67222222222225,151.40561116093565L197.70111111111112,152.66015992458495L197.94666666666666,134.52546610765987L198.2211111111111,94.15737611717647L198.7411111111111,154.9259396607263L198.88555555555556,154.8992657051939L199.1311111111111,157.2439589150664L199.2177777777778,152.664133929751L199.34777777777776,131.6441530336936L199.7811111111111,135.28297503954835L200.11333333333334,48.663561768001976L200.12777777777777,156.10679088998586L200.38777777777779,157.6132751763022L200.79222222222222,126.5798539933231L200.86444444444444,149.9439854150017L201.0522222222222,95.95828658342361L201.25444444444446,128.46467260850798L201.37,156.02004913261365L201.44222222222223,138.33160155928798L201.4711111111111,151.44192518728474L201.48555555555555,135.6716447174549L201.77444444444447,156.34289537825518L201.84666666666666,117.7770466622379L202.04888888888888,139.03897079494263L202.19333333333333,151.5156257148418L202.26555555555555,57.69496234920288L202.36666666666667,83.38920173711246L202.64111111111112,154.84533044261235L202.81444444444443,156.77283185337566L203.32,156.6874911285316L203.45,146.90185821263324L204.14333333333335,157.7423602925717L204.21555555555554,156.24658837924815L204.4322222222222,86.54245649112595L204.5911111111111,151.1445590839204L204.64888888888888,157.712056430988L204.88,155.61147903671693L205.06777777777776,129.46015767918695L205.35666666666668,141.43598756194115L205.48666666666668,157.6836899544837L205.60222222222222,129.32005718929898L205.89111111111112,27.099849012162952L206.12222222222223,143.6013875193894L206.4111111111111,149.66498078116112L206.45444444444445,157.01174278133033L206.68555555555557,144.2733544934955L206.91666666666666,155.04101312781373L207.07555555555555,144.6208216121627L207.94222222222223,133.51290616889793L208.07222222222222,145.25568436375923L208.08666666666667,147.94450731078783L208.52,143.3027781003879L208.79444444444442,151.16335801635353L208.83777777777777,149.16365841776133L209.15555555555554,155.7874779631901L209.79111111111112,156.48024721961053L210.09444444444443,139.1904563721683L210.18111111111114,154.994630777484L210.21,153.95333804459207L210.51333333333332,156.05221508960756L210.8311111111111,154.6430876557198L211.25,153.90659996784396L211.91444444444443,157.39442514615237L212.14555555555557,152.6042995949586L212.31888888888886,155.75367336223522L213.17111111111112,146.60041311300463L213.40222222222224,156.55164381421898L213.85,150.79964951156742L213.96555555555557,105.33516682022149L214.26888888888888,155.856012514275L214.63,154.03846372187965L214.70222222222225,137.26825171626277L214.89000000000001,154.83022553908327L215.07777777777778,142.61008643607298L215.16444444444446,155.94316917068014L215.7711111111111,136.5770308482978L215.78555555555556,157.06454340327116L215.85777777777778,153.97989158270258L216.07444444444445,156.25488451795857L216.91222222222223,41.323276751571235L217.15777777777777,157.5820235743498L217.54777777777778,148.23167085813154L217.5622222222222,157.8722760991012L217.67777777777778,153.68232056250173L217.85111111111112,126.76469726860523L217.89444444444445,154.03064648993313L218.02444444444447,156.4523857825229L218.2411111111111,155.31569700957172L218.29888888888888,134.7118989850084L218.32777777777778,143.1307483439644L218.54444444444442,99.27728360063499L218.80444444444444,156.03669505680185L219.06444444444443,153.38599562086165L219.2811111111111,143.20162838697433L219.42555555555558,141.58473968671427L219.4688888888889,155.01743019310135L219.64222222222222,156.46669922355147L219.65666666666667,135.81842964059777L219.71444444444444,120.91250450412431L220.11888888888888,157.51522742028143L220.49444444444444,157.61615512126852L220.97111111111113,153.18476590596967L221.1877777777778,137.91608547336526L221.70777777777778,153.67351328291826L221.78,156.9873397187847L222.47333333333333,136.64396175245443L222.53111111111113,153.8476078642739L222.82,154.1225067935884L223.51333333333335,155.6248400749432L223.5277777777778,152.50471461729873L223.90333333333334,144.67380343584549L223.94666666666666,153.05003009281225L224.55333333333334,155.46038625513512L224.78444444444443,147.4303566929367L225.29000000000002,155.57726229965272L225.50666666666666,155.9692859366122L225.6222222222222,158.05648785925908L225.69444444444446,156.5461714985884L225.70888888888888,146.30253955266542L226.18555555555554,158.03059700550511L226.43111111111114,156.42062286701469L226.47444444444446,148.12119259354142L226.51777777777778,156.88004042808382L226.70555555555555,157.82276151434053L227.09555555555556,143.85141092621618L227.35555555555555,156.1642742070059L227.45666666666668,142.14002102779017L227.55777777777777,142.03002903776036L227.87555555555556,148.31031195364065L228.17888888888888,147.72659091858398L228.36666666666665,157.15021061359178L228.87222222222223,155.58908922452895L229.20444444444445,155.31329948258482L229.24777777777777,147.05629090840617L229.43555555555557,157.96355190050477L229.49333333333334,157.27158889973848L229.58,155.51040530370344L230.20111111111112,138.42560543119907L230.21555555555557,154.16282798018722L230.48999999999998,146.46596280195647L230.53333333333336,156.5380676133144L230.64888888888888,150.08851855537958L230.66333333333333,155.1161050176662L230.67777777777778,148.2221056164967L230.76444444444445,151.9004088801642L231.05333333333334,138.24372032615872L231.0822222222222,157.63096945732832L231.34222222222223,157.77971732259417L232.06444444444443,157.3772703259666L232.26666666666665,156.28350219027035L232.35333333333335,151.85348384558327L232.84444444444443,157.98240306946295L233.43666666666667,75.54636669821208L233.8411111111111,152.97335067308612L234.2311111111111,150.514287850923L234.30333333333334,104.46193559467793L234.39,154.98858273764037L234.72222222222223,157.0696666695488L235.08333333333334,147.19867081029545L235.2566666666667,148.13890477601024L235.2711111111111,151.74441236961218L235.35777777777778,154.84962126302221L235.48777777777778,153.5984976037095L235.73333333333332,157.5170358689243L235.90666666666667,152.27538458754617L235.9933333333333,157.22461177253476L236.28222222222223,154.14615649895538L236.34,156.44421708366522L236.68666666666667,112.6917494022184L236.71555555555554,138.07574009481402L236.84555555555556,110.60548786653412L237.56777777777776,156.88458785502655L237.91444444444443,104.60589865181181L237.92888888888888,150.86599974127282L238.24666666666667,156.3478357159636L238.7522222222222,153.42434085657197L238.76666666666668,152.17538977621328L239.11333333333332,110.94390917321044L239.14222222222222,154.1757225448059L239.15666666666667,151.71066878322097L239.59,157.44603483288344L239.95111111111112,146.5337290300263L239.99444444444444,145.55623059223095L240.02333333333334,134.7854830092854L240.24,150.80818003829984L240.32666666666668,133.661676713162L240.61555555555555,156.8663922760429L240.76000000000002,157.81004299976243L240.77444444444444,150.26717932853433L240.89,155.76833803993134L240.9477777777778,149.92763903778462L241.03444444444443,156.91077565112047L241.26555555555555,80.43901081879932L241.88666666666666,150.51206646031804L242.06,156.021789544262L242.21888888888887,153.41883342878688L242.36333333333334,153.74017019714745L242.37777777777777,35.46397037969696L242.43555555555554,157.9163670935409L242.49333333333334,155.10336632798942L242.5511111111111,150.43013564373055L242.79666666666665,154.8634759436051L242.88333333333335,153.96442243374057L242.94111111111113,133.2895551058981L242.97,154.7199535727915L243.3311111111111,157.1001989328199L243.60555555555555,155.37728211697606L243.70666666666668,126.861296446787L243.72111111111113,155.83787484156588L243.95222222222222,153.4095840814213L243.99555555555554,157.81393909623796L244.45777777777778,156.63220295434198L244.47222222222223,152.72554957783885L244.48666666666668,156.84062548043826L244.83333333333334,137.46813818977938L245.03555555555556,156.34472443370353L245.54111111111112,138.8640040506919" style="fill: none;" fill="none"></path></g></g></g></g></g></g><g transform="translate(70, 178)" clip-path="url(#clip_1)"><clipPath id="clip_1"><rect width="260" height="21"></rect></clipPath><g><g><line x1="0" y1="0" x2="0" y2="5" style="visibility: inherit;" fill="rgb(0, 0, 0)" stroke="rgb(204, 204, 204)" stroke-width="1px"></line><line x1="28.888888888888886" y1="0" x2="28.888888888888886" y2="5" style="visibility: inherit;" fill="rgb(0, 0, 0)" stroke="rgb(204, 204, 204)" stroke-width="1px"></line><line x1="57.77777777777777" y1="0" x2="57.77777777777777" y2="5" style="visibility: inherit;" fill="rgb(0, 0, 0)" stroke="rgb(204, 204, 204)" stroke-width="1px"></line><line x1="86.66666666666666" y1="0" x2="86.66666666666666" y2="5" style="visibility: inherit;" fill="rgb(0, 0, 0)" stroke="rgb(204, 204, 204)" stroke-width="1px"></line><line x1="115.55555555555554" y1="0" x2="115.55555555555554" y2="5" style="visibility: inherit;" fill="rgb(0, 0, 0)" stroke="rgb(204, 204, 204)" stroke-width="1px"></line><line x1="144.44444444444446" y1="0" x2="144.44444444444446" y2="5" style="visibility: inherit;" fill="rgb(0, 0, 0)" stroke="rgb(204, 204, 204)" stroke-width="1px"></line><line x1="173.33333333333331" y1="0" x2="173.33333333333331" y2="5" style="visibility: inherit;" fill="rgb(0, 0, 0)" stroke="rgb(204, 204, 204)" stroke-width="1px"></line><line x1="202.22222222222223" y1="0" x2="202.22222222222223" y2="5" style="visibility: inherit;" fill="rgb(0, 0, 0)" stroke="rgb(204, 204, 204)" stroke-width="1px"></line><line x1="231.1111111111111" y1="0" x2="231.1111111111111" y2="5" style="visibility: inherit;" fill="rgb(0, 0, 0)" stroke="rgb(204, 204, 204)" stroke-width="1px"></line><line x1="260" y1="0" x2="260" y2="5" style="visibility: inherit;" fill="rgb(0, 0, 0)" stroke="rgb(204, 204, 204)" stroke-width="1px"></line></g><g transform="translate(0, 8)"><text x="0" y="0" dx="0em" dy="0.95em" style="text-anchor: middle; visibility: hidden; font-family: Roboto, sans-serif; font-size: 12px; font-weight: 200;" fill="rgb(50, 49, 63)" stroke="none" stroke-width="1px">-2k</text><text x="28.888888888888886" y="0" dx="0em" dy="0.95em" style="text-anchor: middle; visibility: inherit; font-family: Roboto, sans-serif; font-size: 12px; font-weight: 200;" fill="rgb(50, 49, 63)" stroke="none" stroke-width="1px">0</text><text x="57.77777777777777" y="0" dx="0em" dy="0.95em" style="text-anchor: middle; visibility: inherit; font-family: Roboto, sans-serif; font-size: 12px; font-weight: 200;" fill="rgb(50, 49, 63)" stroke="none" stroke-width="1px">2k</text><text x="86.66666666666666" y="0" dx="0em" dy="0.95em" style="text-anchor: middle; visibility: inherit; font-family: Roboto, sans-serif; font-size: 12px; font-weight: 200;" fill="rgb(50, 49, 63)" stroke="none" stroke-width="1px">4k</text><text x="115.55555555555554" y="0" dx="0em" dy="0.95em" style="text-anchor: middle; visibility: inherit; font-family: Roboto, sans-serif; font-size: 12px; font-weight: 200;" fill="rgb(50, 49, 63)" stroke="none" stroke-width="1px">6k</text><text x="144.44444444444446" y="0" dx="0em" dy="0.95em" style="text-anchor: middle; visibility: inherit; font-family: Roboto, sans-serif; font-size: 12px; font-weight: 200;" fill="rgb(50, 49, 63)" stroke="none" stroke-width="1px">8k</text><text x="173.33333333333331" y="0" dx="0em" dy="0.95em" style="text-anchor: middle; visibility: inherit; font-family: Roboto, sans-serif; font-size: 12px; font-weight: 200;" fill="rgb(50, 49, 63)" stroke="none" stroke-width="1px">10k</text><text x="202.22222222222223" y="0" dx="0em" dy="0.95em" style="text-anchor: middle; visibility: inherit; font-family: Roboto, sans-serif; font-size: 12px; font-weight: 200;" fill="rgb(50, 49, 63)" stroke="none" stroke-width="1px">12k</text><text x="231.1111111111111" y="0" dx="0em" dy="0.95em" style="text-anchor: middle; visibility: inherit; font-family: Roboto, sans-serif; font-size: 12px; font-weight: 200;" fill="rgb(50, 49, 63)" stroke="none" stroke-width="1px">14k</text><text x="260" y="0" dx="0em" dy="0.95em" style="text-anchor: middle; visibility: hidden; font-family: Roboto, sans-serif; font-size: 12px; font-weight: 200;" fill="rgb(50, 49, 63)" stroke="none" stroke-width="1px">16k</text></g><line x1="0" y1="0" x2="260" y2="0" fill="rgb(0, 0, 0)" stroke="rgb(204, 204, 204)" stroke-width="1px"></line></g></g></g></g></svg>