<svg viewBox="0 0 330.0000305175781 200.00001525878906" xmlns="http://www.w3.org/2000/svg"><g><g><g><g><g><line x1="70" y1="178" x2="65" y2="178" style="visibility: inherit;" fill="rgb(0, 0, 0)" stroke="rgb(204, 204, 204)" stroke-width="1px"></line><line x1="70" y1="163.16666666666666" x2="65" y2="163.16666666666666" style="visibility: inherit;" fill="rgb(0, 0, 0)" stroke="rgb(204, 204, 204)" stroke-width="1px"></line><line x1="70" y1="148.33333333333331" x2="65" y2="148.33333333333331" style="visibility: inherit;" fill="rgb(0, 0, 0)" stroke="rgb(204, 204, 204)" stroke-width="1px"></line><line x1="70" y1="133.5" x2="65" y2="133.5" style="visibility: inherit;" fill="rgb(0, 0, 0)" stroke="rgb(204, 204, 204)" stroke-width="1px"></line><line x1="70" y1="118.66666666666666" x2="65" y2="118.66666666666666" style="visibility: inherit;" fill="rgb(0, 0, 0)" stroke="rgb(204, 204, 204)" stroke-width="1px"></line><line x1="70" y1="103.83333333333331" x2="65" y2="103.83333333333331" style="visibility: inherit;" fill="rgb(0, 0, 0)" stroke="rgb(204, 204, 204)" stroke-width="1px"></line><line x1="70" y1="88.99999999999999" x2="65" y2="88.99999999999999" style="visibility: inherit;" fill="rgb(0, 0, 0)" stroke="rgb(204, 204, 204)" stroke-width="1px"></line><line x1="70" y1="74.16666666666669" x2="65" y2="74.16666666666669" style="visibility: inherit;" fill="rgb(0, 0, 0)" stroke="rgb(204, 204, 204)" stroke-width="1px"></line><line x1="70" y1="59.33333333333332" x2="65" y2="59.33333333333332" style="visibility: inherit;" fill="rgb(0, 0, 0)" stroke="rgb(204, 204, 204)" stroke-width="1px"></line><line x1="70" y1="44.5" x2="65" y2="44.5" style="visibility: inherit;" fill="rgb(0, 0, 0)" stroke="rgb(204, 204, 204)" stroke-width="1px"></line><line x1="70" y1="29.66666666666668" x2="65" y2="29.66666666666668" style="visibility: inherit;" fill="rgb(0, 0, 0)" stroke="rgb(204, 204, 204)" stroke-width="1px"></line><line x1="70" y1="14.83333333333332" x2="65" y2="14.83333333333332" style="visibility: inherit;" fill="rgb(0, 0, 0)" stroke="rgb(204, 204, 204)" stroke-width="1px"></line><line x1="70" y1="0" x2="65" y2="0" style="visibility: inherit;" fill="rgb(0, 0, 0)" stroke="rgb(204, 204, 204)" stroke-width="1px"></line></g><g transform="translate(60, 0)"><text x="0" y="178" dx="0em" dy="0.3em" style="text-anchor: end; visibility: hidden; font-family: Roboto, sans-serif; font-size: 12px; font-weight: 200;" fill="rgb(50, 49, 63)" stroke="none" stroke-width="1px">-0.01</text><text x="0" y="163.16666666666666" dx="0em" dy="0.3em" style="text-anchor: end; visibility: inherit; font-family: Roboto, sans-serif; font-size: 12px; font-weight: 200;" fill="rgb(50, 49, 63)" stroke="none" stroke-width="1px">0</text><text x="0" y="148.33333333333331" dx="0em" dy="0.3em" style="text-anchor: end; visibility: hidden; font-family: Roboto, sans-serif; font-size: 12px; font-weight: 200;" fill="rgb(50, 49, 63)" stroke="none" stroke-width="1px">0.01</text><text x="0" y="133.5" dx="0em" dy="0.3em" style="text-anchor: end; visibility: inherit; font-family: Roboto, sans-serif; font-size: 12px; font-weight: 200;" fill="rgb(50, 49, 63)" stroke="none" stroke-width="1px">0.02</text><text x="0" y="118.66666666666666" dx="0em" dy="0.3em" style="text-anchor: end; visibility: hidden; font-family: Roboto, sans-serif; font-size: 12px; font-weight: 200;" fill="rgb(50, 49, 63)" stroke="none" stroke-width="1px">0.03</text><text x="0" y="103.83333333333331" dx="0em" dy="0.3em" style="text-anchor: end; visibility: inherit; font-family: Roboto, sans-serif; font-size: 12px; font-weight: 200;" fill="rgb(50, 49, 63)" stroke="none" stroke-width="1px">0.04</text><text x="0" y="88.99999999999999" dx="0em" dy="0.3em" style="text-anchor: end; visibility: hidden; font-family: Roboto, sans-serif; font-size: 12px; font-weight: 200;" fill="rgb(50, 49, 63)" stroke="none" stroke-width="1px">0.05</text><text x="0" y="74.16666666666669" dx="0em" dy="0.3em" style="text-anchor: end; visibility: inherit; font-family: Roboto, sans-serif; font-size: 12px; font-weight: 200;" fill="rgb(50, 49, 63)" stroke="none" stroke-width="1px">0.06</text><text x="0" y="59.33333333333332" dx="0em" dy="0.3em" style="text-anchor: end; visibility: hidden; font-family: Roboto, sans-serif; font-size: 12px; font-weight: 200;" fill="rgb(50, 49, 63)" stroke="none" stroke-width="1px">0.07</text><text x="0" y="44.5" dx="0em" dy="0.3em" style="text-anchor: end; visibility: inherit; font-family: Roboto, sans-serif; font-size: 12px; font-weight: 200;" fill="rgb(50, 49, 63)" stroke="none" stroke-width="1px">0.08</text><text x="0" y="29.66666666666668" dx="0em" dy="0.3em" style="text-anchor: end; visibility: hidden; font-family: Roboto, sans-serif; font-size: 12px; font-weight: 200;" fill="rgb(50, 49, 63)" stroke="none" stroke-width="1px">0.09</text><text x="0" y="14.83333333333332" dx="0em" dy="0.3em" style="text-anchor: end; visibility: inherit; font-family: Roboto, sans-serif; font-size: 12px; font-weight: 200;" fill="rgb(50, 49, 63)" stroke="none" stroke-width="1px">0.1</text><text x="0" y="0" dx="0em" dy="0.3em" style="text-anchor: end; visibility: hidden; font-family: Roboto, sans-serif; font-size: 12px; font-weight: 200;" fill="rgb(50, 49, 63)" stroke="none" stroke-width="1px">0.11</text></g><line x1="70" y1="0" x2="70" y2="178" fill="rgb(0, 0, 0)" stroke="rgb(204, 204, 204)" stroke-width="1px"></line></g></g><g transform="translate(70, 0)" clip-path="url(#clip_0)"><clipPath id="clip_0"><rect width="260" height="177"></rect></clipPath><g><g><g><line x1="0" y1="0" x2="0" y2="178" fill="rgb(0, 0, 0)" stroke="rgb(60, 60, 60)" stroke-width="1px" opacity="0.25"></line><line x1="28.888888888888886" y1="0" x2="28.888888888888886" y2="178" fill="rgb(0, 0, 0)" stroke="rgb(60, 60, 60)" stroke-width="1px" opacity="0.25"></line><line x1="57.77777777777777" y1="0" x2="57.77777777777777" y2="178" fill="rgb(0, 0, 0)" stroke="rgb(60, 60, 60)" stroke-width="1px" opacity="0.25"></line><line x1="86.66666666666666" y1="0" x2="86.66666666666666" y2="178" fill="rgb(0, 0, 0)" stroke="rgb(60, 60, 60)" stroke-width="1px" opacity="0.25"></line><line x1="115.55555555555554" y1="0" x2="115.55555555555554" y2="178" fill="rgb(0, 0, 0)" stroke="rgb(60, 60, 60)" stroke-width="1px" opacity="0.25"></line><line x1="144.44444444444446" y1="0" x2="144.44444444444446" y2="178" fill="rgb(0, 0, 0)" stroke="rgb(60, 60, 60)" stroke-width="1px" opacity="0.25"></line><line x1="173.33333333333331" y1="0" x2="173.33333333333331" y2="178" fill="rgb(0, 0, 0)" stroke="rgb(60, 60, 60)" stroke-width="1px" opacity="0.25"></line><line x1="202.22222222222223" y1="0" x2="202.22222222222223" y2="178" fill="rgb(0, 0, 0)" stroke="rgb(60, 60, 60)" stroke-width="1px" opacity="0.25"></line><line x1="231.1111111111111" y1="0" x2="231.1111111111111" y2="178" fill="rgb(0, 0, 0)" stroke="rgb(60, 60, 60)" stroke-width="1px" opacity="0.25"></line><line x1="260" y1="0" x2="260" y2="178" fill="rgb(0, 0, 0)" stroke="rgb(60, 60, 60)" stroke-width="1px" opacity="0.25"></line></g><g><line x1="0" y1="178" x2="260" y2="178" fill="rgb(0, 0, 0)" stroke="rgb(60, 60, 60)" stroke-width="1px" opacity="0.25"></line><line x1="0" y1="163.16666666666666" x2="260" y2="163.16666666666666" fill="rgb(0, 0, 0)" stroke="rgb(60, 60, 60)" stroke-width="1px" opacity="0.25"></line><line x1="0" y1="148.33333333333331" x2="260" y2="148.33333333333331" fill="rgb(0, 0, 0)" stroke="rgb(60, 60, 60)" stroke-width="1px" opacity="0.25"></line><line x1="0" y1="133.5" x2="260" y2="133.5" fill="rgb(0, 0, 0)" stroke="rgb(60, 60, 60)" stroke-width="1px" opacity="0.25"></line><line x1="0" y1="118.66666666666666" x2="260" y2="118.66666666666666" fill="rgb(0, 0, 0)" stroke="rgb(60, 60, 60)" stroke-width="1px" opacity="0.25"></line><line x1="0" y1="103.83333333333331" x2="260" y2="103.83333333333331" fill="rgb(0, 0, 0)" stroke="rgb(60, 60, 60)" stroke-width="1px" opacity="0.25"></line><line x1="0" y1="88.99999999999999" x2="260" y2="88.99999999999999" fill="rgb(0, 0, 0)" stroke="rgb(60, 60, 60)" stroke-width="1px" opacity="0.25"></line><line x1="0" y1="74.16666666666669" x2="260" y2="74.16666666666669" fill="rgb(0, 0, 0)" stroke="rgb(60, 60, 60)" stroke-width="1px" opacity="0.25"></line><line x1="0" y1="59.33333333333332" x2="260" y2="59.33333333333332" fill="rgb(0, 0, 0)" stroke="rgb(60, 60, 60)" stroke-width="1px" opacity="0.25"></line><line x1="0" y1="44.5" x2="260" y2="44.5" fill="rgb(0, 0, 0)" stroke="rgb(60, 60, 60)" stroke-width="1px" opacity="0.25"></line><line x1="0" y1="29.66666666666668" x2="260" y2="29.66666666666668" fill="rgb(0, 0, 0)" stroke="rgb(60, 60, 60)" stroke-width="1px" opacity="0.25"></line><line x1="0" y1="14.83333333333332" x2="260" y2="14.83333333333332" fill="rgb(0, 0, 0)" stroke="rgb(60, 60, 60)" stroke-width="1px" opacity="0.25"></line><line x1="0" y1="0" x2="260" y2="0" fill="rgb(0, 0, 0)" stroke="rgb(60, 60, 60)" stroke-width="1px" opacity="0.25"></line></g></g></g><g><g><line x1="0" y1="163.16666666666666" x2="260" y2="163.16666666666666" fill="rgb(0, 0, 0)" stroke="rgb(153, 153, 153)" stroke-width="1.5px"></line></g></g><g><g><line x1="28.888888888888886" y1="0" x2="28.888888888888886" y2="178" fill="rgb(0, 0, 0)" stroke="rgb(153, 153, 153)" stroke-width="1.5px"></line></g></g><g><g><g><g><g><path stroke="rgb(255, 112, 67)" stroke-width="2px" d="M33.36666666666667,-11.134457234599079L33.48222222222222,3.1750987122959047L33.90111111111111,3.141465021454355L34.190000000000005,-3.6613961210755828L35.73555555555556,-9.058326427690396L36.63111111111111,2.608241366853169L37.02111111111111,13.766583916440116L37.25222222222222,14.285008029316039L37.35333333333333,16.8415605885393L37.367777777777775,19.247969084780948L37.84444444444444,11.249182286487697L38.04666666666667,6.589100113254888L38.162222222222226,21.8115224751941L38.23444444444444,24.419234704451554L38.263333333333335,27.69919981705919L38.43666666666667,32.24187444627008L38.581111111111106,29.658630977346732L39.202222222222225,23.080666553460585L39.31777777777778,21.9777477319741L39.43333333333334,21.765811087609944L39.80888888888889,35.846484771830085L39.93888888888889,33.706209514117276L39.99666666666666,38.9516691108825L40.025555555555556,24.53041484472034L40.22777777777778,29.905335226684237L40.25666666666666,29.349747568424164L40.357777777777784,23.73156844982726L40.473333333333336,14.068458405362856L40.56,17.04543821579061L40.964444444444446,22.81473859567504L42.01888888888889,18.953714364755413L42.495555555555555,22.044188235040032L42.53888888888889,21.883903734659725L42.784444444444446,29.73558761492694L42.91444444444445,39.37024187970068L42.928888888888885,30.82076736487946L43.01555555555556,38.03292508666724L43.03,33.35309966569056L43.102222222222224,35.70834448836643L43.36222222222222,33.09669565326307L43.40555555555556,36.00356848377983L43.535555555555554,43.077802004694995L44.24333333333333,48.34238343613489L44.28666666666667,55.70556357871076L44.373333333333335,59.99391752849763L44.46,59.667870635059025L44.532222222222224,63.625399314277225L44.67666666666667,58.7659792512884L44.763333333333335,59.81677779669773L44.83555555555556,64.87944612489531L45.586666666666666,58.96245726351436L45.65888888888889,57.9492295998352L45.67333333333333,63.32593317935944L45.93333333333333,55.21285217203207L46.12111111111111,52.314294033140904L46.30888888888889,57.254878364222314L46.85777777777778,53.80246272718243L47.10333333333333,47.01660731629109L47.39222222222222,49.21673315905425L47.58,42.58175388963411L47.89777777777778,51.519599357361834L47.941111111111105,47.74541458940993L48.14333333333334,54.59684933460367L48.20111111111111,49.32377066201309L48.894444444444446,57.603925382441666L48.995555555555555,62.8009669068769L49.31333333333334,68.54856691451349L49.486666666666665,69.9834923412023L49.63111111111111,71.74731518872505L50.06444444444445,64.87805686485805L50.22333333333333,70.96606556885979L50.33888888888889,58.61271534892389L50.425555555555555,61.227089833789904L50.88777777777778,61.739830360287954L50.94555555555556,61.822134353223966L51.306666666666665,67.41732476406733L51.53777777777778,72.12048361851078L51.55222222222222,75.58979274638345L51.76888888888889,70.33483293688748L51.82666666666667,58.21029351609366L52.07222222222222,54.63099475072864L52.577777777777776,49.90644609713515L52.693333333333335,48.636541293280956L52.98222222222222,55.39139875286023L53.184444444444445,59.377098266234924L53.31444444444444,57.35659841735226L53.40111111111111,61.62971708174276L53.47333333333333,64.5129722743702L53.574444444444445,72.95605369550243L53.70444444444444,76.70478394492032L53.906666666666666,76.30659893267853L53.93555555555555,68.52291565091438L53.97888888888889,58.33372633490857L54.108888888888885,57.74001860929124L54.614444444444445,58.47821601255001L54.96111111111111,61.93358371302699L55.26444444444444,65.34205457898042L55.52444444444444,52.107652222420164L55.654444444444444,32.92494797033111L55.842222222222226,37.664520348098115L55.885555555555555,46.20496160865111L56.00111111111111,48.48168316279809L56.57888888888889,45.016689056305275L56.824444444444445,45.7023708908654L56.96888888888889,48.63094575526507L57.01222222222222,53.63458091216055L57.30111111111111,55.565812608006475L57.53222222222222,57.83077103499895L57.79222222222222,49.57792939083092L57.965555555555554,54.30541984091998L58.21111111111111,58.53269187648871L58.297777777777775,65.42685604315228L58.644444444444446,67.49917241788403L58.83222222222222,74.5402871888958L58.87555555555556,77.81019164634776L58.89,76.7132523168576L59.00555555555556,62.04662621904868L59.06333333333333,63.81707004525917L59.16444444444445,65.97719327763663L59.87222222222222,71.05550823925097L59.93,76.27597432957943L60.03111111111111,69.38019170059354L60.16111111111111,66.93104871083715L60.47888888888889,66.50306658282764L60.53666666666667,62.08389286981329L60.65222222222222,68.23206632260217L60.76777777777778,68.61297545742488L60.82555555555556,68.23300278636378L61.114444444444445,64.76628300484113L61.18666666666667,63.672210083145316L61.20111111111111,67.93483658626539L61.27333333333333,70.17788954355464L61.446666666666665,70.91994308292125L61.489999999999995,67.80284970114415L61.562222222222225,67.16551546436015L61.836666666666666,67.64719683516057L62.06777777777778,62.208610640153665L62.21222222222222,60.14478367655147L62.385555555555555,62.038406308772394L62.761111111111106,58.77519167119564L62.89111111111111,53.61832687078965L63.39666666666667,54.37567832062549L63.41111111111111,47.64427743326405L63.44,53.593533946104344L64.07555555555555,53.78224624747379L64.19111111111111,57.01987699334155L64.32111111111111,60.85808740368937L64.35,64.13816003437893L64.42222222222223,50.071113928413865L64.78333333333333,55.21116357627698L64.79777777777778,50.540022020400464L64.94222222222221,55.51849409260085L64.97111111111111,53.226249220633235L65.04333333333332,49.6677378328586L65.24555555555557,55.1177272819957L65.33222222222221,53.280543600908814L65.46222222222222,48.51699659079256L65.67888888888889,52.28274314412593L65.76555555555557,47.439103225855106L66.44444444444444,52.911907182645386L66.53111111111112,54.85928804434803L66.77666666666667,64.36463213716458L66.86333333333333,69.54990998870497L67.57111111111111,68.13847890032213L67.67222222222222,65.7662960801837L67.74444444444444,73.45606823696292L67.93222222222222,72.39196839007398L68.46666666666665,69.81898274206223L68.66888888888889,69.80866367581177L69.17444444444445,72.31558710287975L70.37333333333333,79.65917774698306L70.50333333333333,82.28654524644385L70.63333333333334,87.21028041762244L70.72,90.49668181650516L71.06666666666666,95.73159928956935L71.74555555555555,85.59525834687452L71.86111111111111,85.36994697731093L72.38111111111111,77.7327791221L72.61222222222223,76.54855916519378L72.65555555555555,79.84789928936318L72.77111111111111,61.41044988600813L72.81444444444445,61.37030508448169L73.16111111111111,65.41478862896554L73.21888888888888,70.67318976275135L73.65222222222222,69.2792693243841L74.20111111111112,62.48603168991233L74.46111111111112,64.98828247767507L74.54777777777778,71.3021866664028L74.77888888888889,67.36200545941846L75.03888888888889,74.62707263814123L75.05333333333334,69.9006257815484L75.54444444444445,74.63128516021183L75.68888888888888,75.29357475995312L75.73222222222223,77.93237204702643L75.74666666666667,72.01666863648992L75.77555555555556,73.30645201221392L75.78999999999999,69.90759753900296L76.1511111111111,77.46557993292346L76.62777777777778,78.31424980110832L77.20555555555556,75.8151083862066L77.65333333333334,72.06407407622818L78.04333333333334,76.32372194064624L78.11555555555556,79.6091553181239L78.43333333333334,84.5321379506444L78.70777777777778,87.24319688277578L78.92444444444445,84.96905071544678L79.15555555555557,85.74485343307369L79.57444444444445,86.34284916620554L79.61777777777777,86.30917760174363L79.97888888888889,85.24337030543799L80.35444444444444,83.81138705865571L80.6,86.52041228434811L80.88888888888889,91.19292597707076L81.14888888888889,95.07450792821017L81.17777777777778,99.10842723945822L81.20666666666668,98.27281067986128L81.29333333333332,94.3820093183906L81.69777777777779,91.02457791198097L81.9,68.88960170788258L82.7088888888889,61.985390286961184L82.76666666666668,66.9248286885312L82.92555555555555,73.51805983658295L83.37333333333333,78.03273163511061L83.4888888888889,80.20486228736917L83.67666666666668,82.78203227412551L83.7488888888889,85.17507683847218L83.98,85.58462690788174L84.05222222222223,88.1069623900545L84.08111111111111,91.53019094997728L84.22555555555554,83.69388630467748L84.28333333333333,86.09454872042929L84.70222222222222,88.81797841115419L84.87555555555555,89.6437040193027L85.62666666666667,93.84253656091016L85.78555555555555,91.31054691323693L86.03111111111112,90.31602392160869L86.43555555555555,92.32678135616476L86.81111111111112,96.48215786300794L86.98444444444445,98.58922875997618L87.14333333333333,93.11069152522926L87.18666666666667,99.15678271426592L88.01,99.18723950332853L88.08222222222223,101.63082457201692L88.09666666666666,94.19199154133351L88.24111111111111,97.08509304095779L89.29555555555555,100.00753071603879L89.45444444444445,104.8311457381591L89.46888888888888,105.3681140903486L89.49777777777777,91.74626865261864L89.57,94.64646335228564L89.58444444444444,98.11337754794435L89.94555555555556,92.13838366668855L90.01777777777778,85.99074741801732L90.06111111111112,90.08980843242118L90.17666666666666,90.3995165060908L90.46555555555555,92.61224727087819L90.50888888888889,93.5440060434566L90.52333333333334,93.91177680433235L90.74,95.89100474224912L91.05777777777777,97.03024566641251L91.24555555555555,100.89115655371317L91.27444444444444,104.1370465780688L91.46222222222222,105.66895287462623L91.99666666666667,108.19823089806457L92.34333333333333,99.59117928506261L92.44444444444444,99.65838088169887L92.5311111111111,104.27979166922674L92.87777777777778,106.45193575278866L92.9211111111111,105.68322338049957L93.77333333333334,107.96795834771618L94.01888888888888,107.90311063184977L94.03333333333335,108.65631450980086L94.32222222222222,114.10734972548765L94.36555555555556,114.40809749226324L94.49555555555555,117.24672578909254L95.01555555555557,118.95626414976452L95.05888888888889,105.45058827991993L95.28999999999999,104.28531710958617L95.73777777777778,105.99198872561779L96.14222222222222,105.95223870271417L96.25777777777778,105.73307628338114L96.31555555555556,109.11203744698685L96.43111111111111,109.92584343945197L96.59,107.56381259337749L96.96555555555557,107.89055257318535L97.03777777777778,110.71577683029382L97.2688888888889,109.6452556038303L97.5,111.91362939349936L97.61555555555556,114.93967575936183L97.74555555555557,113.88937063960036L97.87555555555556,113.79845943602938L98.03444444444443,109.03081148661884L98.0488888888889,104.76370384263932L98.22222222222221,107.40206173555202L98.25111111111111,96.10578521834343L98.8,101.89567296501872L98.97333333333333,103.5469509792049L99.24777777777778,106.93717720071943L99.58,104.99537605707272L99.86888888888889,108.5314781877943L100.56222222222222,108.50258334598874L100.69222222222223,112.8713067066892L100.73555555555555,113.40343793983277L100.76444444444444,116.78472016116743L101.50111111111111,119.87548900488454L101.54444444444444,121.91519146651373L101.83333333333333,122.08663946729214L101.86222222222223,119.98511829830387L101.87666666666667,120.68507156517566L101.97777777777779,117.1429175570291L102.23777777777777,119.00641041000318L102.64222222222223,121.35001412263435L102.93111111111111,121.37128857965597L103.04666666666667,122.66915947597022L103.49444444444444,124.0295949871164L103.74000000000001,126.44856999898597L104,127.06969062351861L104.11555555555556,127.80868017576447L104.56333333333333,126.73432080608686L104.95333333333333,127.34354501474273L105.28555555555556,128.62358695872163L105.70444444444445,129.18796134960434L105.86333333333333,128.83240232939127L106.09444444444445,130.26618419275576L106.29666666666667,123.47284536825919L106.6,115.9095234129883L107.17777777777778,118.19736322498835L107.49555555555555,119.405855224161L107.56777777777778,119.72878403136212L108.10222222222222,122.35152547181566L108.2611111111111,123.83034535493779L108.34777777777778,125.01775323484536L108.55,127.74985135063056L108.57888888888888,126.01619270884068L109.0411111111111,126.9370434865233L109.38777777777777,125.87837316159298L109.5611111111111,125.30487590675553L109.59,122.77936149319508L109.67666666666666,116.07571007522394L109.85,111.94207028862043L110.21111111111111,113.35067179572667L110.61555555555556,114.8805612809447L110.64444444444445,117.02304640693356L110.70222222222222,114.39763121063113L110.91888888888889,116.72146345728775L111.5111111111111,118.2345049147678L111.55444444444446,116.87340750529222L112.32,116.53968705942698L112.36333333333333,116.94157106617513L112.50777777777778,119.64850836851178L112.76777777777778,117.33100892476422L112.78222222222222,118.95442362512115L113.02777777777779,121.53521034068334L113.07111111111111,116.02816523663024L113.56222222222222,120.28494416239126L113.5911111111111,120.32528985769585L113.69222222222221,121.55676438741817L114.08222222222221,123.83307750789712L114.21222222222222,124.53453606147617L114.51555555555557,127.43240004226462L114.86222222222221,121.66010045806969L114.93444444444444,122.28256133827433L115.02111111111111,124.07195582136094L115.41111111111111,124.43850008527559L115.7,126.9334959051719L115.77222222222223,118.213515728269L115.9888888888889,115.87647652983524L116.06111111111112,116.5698015683529L116.68222222222222,113.83041946682071L116.74000000000001,116.68481774543436L117.04333333333334,120.55694815635798L117.07222222222222,119.10352142833773L117.30333333333333,117.6731459522227L117.33222222222223,119.81267796062741L117.41888888888889,120.64909983692549L117.44777777777779,121.72281631470904L117.70777777777778,120.98121734884447L118.04,122.13455103545743L118.17,121.76189537806734L118.44444444444444,119.90509696445942L118.60333333333334,120.27913011079404L118.63222222222223,122.44565918774738L118.7188888888889,124.11250753795805L118.90666666666667,121.02392044301958L119.16666666666666,123.37265603924808L119.73,126.42760419629158L120.06222222222222,124.11007185333894L120.12,121.35559338826472L120.13444444444444,119.28919436334253L120.23555555555555,122.83208140345972L120.48111111111112,122.85263841687448L120.64,125.83613386255304L120.79888888888888,128.9953977362414L120.9,130.34468861690308L120.98666666666666,128.60588718398444L121.33333333333333,131.1939606905257L122.18555555555555,133.24300871348606L122.70555555555555,134.57876017013544L122.72,134.57696833026827L122.77777777777777,133.70416053937055L123.06666666666666,133.66427754437487L123.08111111111111,135.02690102438632L123.09555555555555,137.4382442903483L123.21111111111112,138.81303282961426L123.84666666666666,135.98908265478073L123.94777777777777,134.74928836342687L123.99111111111111,134.7345444354941L124.26555555555555,134.854954816195L125.04555555555555,135.1245863413447L125.17555555555556,130.19045863281394L125.20444444444445,132.7256572202296L125.26222222222223,132.97703860575018L125.34888888888888,130.80877197843444L125.39222222222223,130.23966304863976L125.49333333333334,129.19845631162264L125.60888888888888,129.84131331787452L125.65222222222222,131.45886064492265L125.82555555555555,132.43099779243607L126.21555555555555,134.0127818066111L126.27333333333334,133.86357711346523L126.43222222222222,135.4242530165977L126.5911111111111,135.80431357152563L127.57333333333332,136.42543786375046L127.77555555555556,134.3936165834217L127.8911111111111,132.04444095996757L128.09333333333333,127.79729481644397L128.10777777777778,127.31973545274406L128.48333333333332,127.15522021695118L128.68555555555557,128.54508766263453L129.04666666666668,131.2451533092236L129.46555555555557,132.6938315851597L129.5088888888889,134.39940884437883L129.88444444444443,134.01685286217977L130.14444444444445,135.7607124187166L130.20222222222222,137.503356057633L130.56333333333333,138.1177485691693L130.9388888888889,137.57271970574735L131.31444444444446,137.57810812953323L131.53111111111113,137.9161567695999L131.64666666666665,138.41701848051275L131.6611111111111,135.560833173416L131.9788888888889,137.24733949054502L132.03666666666666,135.52931274996996L132.23888888888888,135.81025208171826L132.81666666666666,136.31759203434447L132.94666666666666,136.96078761892431L133.12,132.92560962765634L133.39444444444445,133.89574546589253L133.4377777777778,135.28739513154L133.56777777777776,135.0324763541485L134.33333333333334,136.82503005213377L134.4922222222222,138.6107091201435L134.7522222222222,138.06046360905282L134.89666666666668,136.33180805576623L134.9111111111111,135.79307069460054L135.1711111111111,137.438267437769L135.18555555555554,135.80572041778538L135.51777777777778,136.34687943153477L135.57555555555555,136.54715952839558L135.79222222222222,137.18139063775038L136.22555555555556,137.25438776451892L136.35555555555555,138.2139586671411L136.3988888888889,139.51270297476867L136.5,137.31516466342708L136.64444444444445,138.54571556980878L136.68777777777777,138.58510737982317L136.76000000000002,139.0497169250521L136.90444444444444,138.36778508959668L137.2511111111111,140.3351868304572L137.38111111111112,141.41112533936052L137.65555555555557,141.35417169127598L137.9011111111111,142.44186727179823L138.79666666666668,141.19525091301762L139.30222222222224,141.88409423908817L139.54777777777778,141.99771349192267L139.6922222222222,141.9125433356642L139.76444444444445,140.98711853382204L139.92333333333335,139.98328721937034L140.01,140.5108055396611L140.11111111111111,140.25962157821763L140.3711111111111,141.66975220775603L140.44333333333333,137.41564589428305L140.51555555555555,138.13661222197024L140.77555555555554,138.09835758975316L140.93444444444444,137.75499183787954L140.9777777777778,138.76421127399948L141.26666666666668,137.66359610694678L141.38222222222223,138.51468592321356L141.52666666666667,140.32470466259923L141.70000000000002,139.0995767196757L142.0322222222222,139.43659895759507L142.10444444444445,138.18596617223338L142.98555555555555,132.70782214932007L143,134.75482633468758L143.46222222222224,131.21825868965712L144.08333333333334,130.61833521635208L144.19888888888892,132.59134171314324L144.31444444444443,132.9961011523163L144.32888888888888,133.1686617845287L144.82000000000002,131.43289293970577L144.9788888888889,133.1846637655131L145.1522222222222,133.0722192941555L145.39777777777778,134.13959561229785L146.26444444444445,134.4042049304588L146.61111111111111,133.8789439772913L147.04444444444445,132.0687982497428L147.10222222222222,134.34535929636735L147.30444444444444,134.31758465996802L147.55,134.73775305927572L147.63666666666666,134.78495527056555L148.24333333333334,133.14636510757535L148.47444444444443,134.39200263459867L148.63333333333333,133.85625789019414L148.76333333333335,134.49168857405735L148.87888888888887,133.12909890312093L149.1677777777778,133.75835434559312L149.19666666666666,135.48828870509558L149.23999999999998,135.52116475561306L149.26888888888888,135.3634620675508L149.35555555555555,137.0613206436828L149.64444444444445,137.6441606459678L149.6877777777778,138.18879218932435L149.76,138.97597473128687L149.89000000000001,138.88627583012126L150.9011111111111,138.82714210651943L151.19,140.13816392900912L151.20444444444445,141.9158621295331L151.23333333333332,140.32353437196556L151.43555555555554,137.8492780342818L151.49333333333334,136.86047611309675L151.62333333333333,138.8147007934126L151.63777777777779,134.2928446084942L151.71,131.55030628324718L151.7822222222222,132.79289623998656L151.99888888888887,135.56926033554535L152.4466666666667,135.38546114432071L152.62,134.86692475890646L152.7211111111111,136.29215507834132L152.79333333333332,134.80543591073234L152.99555555555554,136.98712888718367L153.12555555555556,139.0408959376591L153.5011111111111,140.8156839314165L153.60222222222222,140.56929604711692L153.61666666666667,139.86610446810528L153.74666666666667,141.19517645524388L154.29555555555555,141.74517498005483L154.41111111111113,136.28396441097206L154.42555555555558,136.31375448529553L154.48333333333332,136.24665709323853L154.94555555555556,135.6852331316814L155.62444444444444,133.60761758841184L155.6822222222222,135.30981274039942L155.9422222222222,136.24774128342426L156.01444444444445,138.00979590880655L156.27444444444444,137.62504559788607L156.31777777777776,138.41649088181705L156.6211111111111,139.51409542958822L156.78,139.78106332028457L157.12666666666667,140.45097857971086L157.2277777777778,142.4650863005118L157.47333333333333,142.81724253219184L157.5022222222222,138.32078155805306L157.54555555555555,138.22076607507142L157.8488888888889,139.60871459330625L157.87777777777777,140.45133623444244L157.95000000000002,140.09845984296882L158.1088888888889,138.30420417261814L158.2822222222222,138.76205251979755L158.5277777777778,140.56201159525546L158.7877777777778,141.5618090615225L158.87444444444444,140.0801610838122L159.01888888888888,140.4942655095629L159.2788888888889,135.61277557822615L159.29333333333335,135.77447012187338L159.68333333333334,135.65996624476378L159.79888888888888,137.74211900720496L159.94333333333333,139.77194447861598L160.10222222222222,140.5779074606606L160.40555555555554,141.42802553445875L160.66555555555556,142.71542853068513L161.12777777777777,143.82338881560742L161.2288888888889,142.99234390717467L161.98,142.80002273622205L162.00888888888886,142.63831913809224L162.15333333333334,142.939008980865L162.25444444444446,143.50599373822385L162.64444444444445,144.14018153449373L162.94777777777776,144.4408516951072L163.09222222222223,143.85532661797117L163.32333333333332,145.25401995704183L163.35222222222222,146.7066541104477L163.45333333333335,142.96576436112971L163.91555555555556,143.72227636334136L163.98777777777778,145.4351810804186L164.14666666666665,144.44807249862055L164.2188888888889,145.14988279661574L164.84,144.67500535456026L164.88333333333333,144.7759774183424L165.17222222222225,145.16883927679783L165.2588888888889,144.887519134825L165.27333333333334,145.31989428232956L165.64888888888888,145.74342188745996L165.75,146.62904587313395L166.66,143.41049158207946L166.79,144.615602767223L166.8911111111111,145.43043034817748L166.93444444444447,145.59555139768995L167.03555555555556,144.85174401964733L167.07888888888888,144.81197344745834L167.39666666666668,145.918234211047L167.55555555555557,143.3574568690415L167.71444444444447,144.28642727612456L167.88777777777779,144.7884203493456L167.90222222222224,143.33023815936087L167.94555555555556,144.74045192314736L168.29222222222222,146.32219996076552L168.3788888888889,145.79492916018572L168.7111111111111,142.2800602621409L168.85555555555555,142.26285504223557L168.9711111111111,142.90003465896584L169.85222222222222,142.95419611304663L169.98222222222222,144.0841407875426L170.11222222222221,144.72519488827004L170.61777777777777,145.37227196855898L171.02222222222224,146.27044275284135L171.06555555555556,146.77588325656743L171.64333333333335,147.69001768095356L171.98999999999998,147.4098361865357L172.13444444444443,147.359952145093L172.92888888888888,148.11810468386457L173.11666666666667,146.43125719068706L173.53555555555553,147.40079441991384L174.05555555555554,147.2113037250364L174.12777777777777,147.83328823362606L174.14222222222222,148.69902760743685L174.17111111111112,149.49926102733738L174.37333333333333,146.54528524248317L174.54666666666668,146.079912504471L174.8788888888889,145.48225675431388L174.96555555555557,146.24058308630435L175.18222222222224,147.42699786237202L175.26888888888888,146.04655143248726L175.41333333333333,145.47553345861456L175.76000000000002,146.1508010285937L176.00555555555556,147.25329015051906L176.32333333333335,147.50956845674443L176.7711111111111,147.03697695202305L176.8722222222222,147.18543877054015L177.0311111111111,147.59583111152182L177.26222222222222,148.40483513303715L177.32000000000002,148.52139116216756L177.42111111111112,148.46507982922247L177.49333333333334,148.76953284826266L178.10000000000002,149.56790375486884L178.62,149.9925726673085L179.02444444444444,150.33403510316913L179.05333333333334,150.60368415026724L179.0677777777778,150.0945507301934L179.09666666666666,150.39581063071444L179.18333333333334,150.9899209205282L179.31333333333333,151.04310689830035L179.39999999999998,150.05669066823447L179.47222222222223,149.8610573050527L179.89111111111112,146.64479140549236L180.09333333333333,146.64697447330656L180.25222222222223,147.35307792153023L180.39666666666665,146.1335030649449L180.45444444444445,146.2725915889105L180.4688888888889,147.2389133843551L180.87333333333333,145.15616476590364L181.00333333333336,144.212726373344L181.11888888888888,143.99072375680745L181.33555555555554,144.88895857698265L181.35,145.96844021512084L181.52333333333334,147.12377310915252L181.9711111111111,147.74370274371645L182.1011111111111,148.4518636483358L182.2888888888889,149.4820604930325L182.34666666666666,149.42774446534645L182.4188888888889,149.3826317074873L182.54888888888888,149.53277100725023L182.66444444444446,146.27201663496837L182.76555555555558,146.94050316314866L182.78,146.41991964748377L183.02555555555557,145.12442049377944L183.45888888888888,145.33832436217028L183.60333333333335,147.0177551998094L184.13777777777779,148.46781460478212L184.26777777777778,149.01680023228997L184.2822222222222,149.31089783555183L184.3688888888889,149.72544783085655L184.6,145.67070585620468L184.7011111111111,146.80597947373474L185.10555555555555,147.3830920893181L185.12,146.37486343179202L185.25,145.8864243412728L185.32222222222222,147.13304487521074L185.4811111111111,148.08021068720555L185.61111111111111,147.94368003590586L185.81333333333333,147.58434177456115L185.97222222222223,146.25441558600497L186.36222222222221,147.2709232755321L186.40555555555557,145.7366574061698L186.53555555555556,146.42118270093027L186.89666666666668,147.5797318650075L186.95444444444445,148.86462004435185L187.08444444444444,149.1076527829658L187.2866666666667,149.36667506830116L187.37333333333333,148.39855107881226L187.4022222222222,144.42570519120335L187.89333333333335,143.9321235973761L187.98,145.1770526934813L188.0666666666667,142.6234743875499L188.09555555555556,143.22869459691265L188.11,144.8046373175443L188.25444444444446,145.86654692785686L188.32666666666668,143.51571599140337L188.5288888888889,143.83982892776643L188.6588888888889,144.18690301385374L188.89000000000001,144.72554954548593L189.25111111111113,145.67051224267905L189.52555555555554,144.3082583958485L189.65555555555557,144.42464860249265L189.91555555555556,143.11391201227244L190.30555555555554,144.45101362937095L190.63777777777779,145.61542575807434L190.66666666666666,146.07301307874127L190.6811111111111,144.10332347444182L191.4177777777778,145.18768497213557L191.53333333333333,146.12756383681648L191.57666666666668,145.345466990028L191.70666666666665,146.27844085125625L192.25555555555556,146.97286455949794L192.70333333333332,148.19009094280958L192.99222222222224,148.83864212578698L193.19444444444446,147.7729940709129L193.26666666666665,147.28118613742186L193.71444444444444,147.99984177382444L193.83,148.26916135730585L193.85888888888888,149.56273881863135L194.35000000000002,149.9883956485405L194.39333333333335,149.11862933249006L194.59555555555556,149.39219245602968L194.63888888888889,149.19779023973896L194.79777777777778,149.42118643706172L194.88444444444443,150.1295109594774L195.28888888888886,151.03559111903562L195.33222222222224,151.74621107037893L195.34666666666666,150.25082664137514L195.43333333333334,150.58226207719133L195.4622222222222,151.44222940653114L195.70777777777778,152.17715671456946L195.82333333333332,152.61500604800145L195.95333333333335,152.56419014788875L196.17,152.86057506448515L196.4011111111111,152.67083262740908L196.96444444444444,150.05550557951534L197.13777777777779,147.56002188123628L197.16666666666666,146.3213048391802L197.3111111111111,147.20096399762969L197.47,145.99056105865404L197.5711111111111,145.02169614444702L197.67222222222225,145.14147468737738L197.70111111111112,143.7020931209006L197.94666666666666,145.133741890386L198.2211111111111,146.36692255079942L198.7411111111111,144.411387609876L198.88555555555556,145.63351274049467L199.1311111111111,146.71752155515247L199.2177777777778,147.09149257427376L199.34777777777776,147.48457159538896L199.7811111111111,147.36676414493073L200.11333333333334,147.46153913149L200.12777777777777,146.4887212733466L200.38777777777779,147.33550752779192L200.79222222222222,148.57159066612024L200.86444444444444,149.6814274856627L201.0522222222222,149.25527443697175L201.25444444444446,150.01834793073792L201.37,149.66702246556252L201.44222222222223,150.33951289822028L201.4711111111111,150.37793414854684L201.48555555555555,150.65910538277708L201.77444444444447,151.13381884146497L201.84666666666666,150.89105763605625L202.04888888888888,150.0622352596546L202.19333333333333,150.36109552348978L202.26555555555555,150.40343915363198L202.36666666666667,149.23840113452115L202.64111111111112,149.90483620634487L202.81444444444443,151.0892463705671L203.32,151.95019219995442L203.45,152.16962724011702L204.14333333333335,152.94157356407152L204.21555555555554,153.24188979355435L204.4322222222222,153.89632525882456L204.5911111111111,154.12576207227707L204.64888888888888,154.82182721042923L204.88,154.98319678580876L205.06777777777776,154.15491947637005L205.35666666666668,154.1077093286604L205.48666666666668,153.1486669722161L205.60222222222222,152.7031650667926L205.89111111111112,152.3447569882359L206.12222222222223,149.89208334663883L206.4111111111111,150.18257996669846L206.45444444444445,151.03434179219275L206.68555555555557,151.24245056565505L206.91666666666666,151.75939274287782L207.07555555555555,152.17321530265392L207.94222222222223,152.37681051093588L208.07222222222222,152.12133771701085L208.08666666666667,152.4919224653625L208.52,152.93136396600778L208.79444444444442,152.96591912002194L208.83777777777777,153.18330626015114L209.15555555555554,153.24419909518159L209.79111111111112,153.6040154635827L210.09444444444443,153.64256340972986L210.18111111111114,153.77325904003573L210.21,153.80148456549756L210.51333333333332,154.28754005727544L210.8311111111111,153.57460274362452L211.25,154.09666419303664L211.91444444444443,154.847098502798L212.14555555555557,155.01508519008613L212.31888888888886,154.79129618887472L213.17111111111112,152.53380617733728L213.40222222222224,152.88813493118153L213.85,153.32541600909872L213.96555555555557,154.0015637790644L214.26888888888888,153.71364796237998L214.63,154.10809134535597L214.70222222222225,154.15597308876212L214.89000000000001,153.83189745303878L215.07777777777778,153.68761443406913L215.16444444444446,152.5197172183992L215.7711111111111,152.11649708211735L215.78555555555556,152.89249652869287L215.85777777777778,153.14079242327168L216.07444444444445,153.22453243046272L216.91222222222223,153.6098351981699L217.15777777777777,153.60048202824476L217.54777777777778,153.8666959529352L217.5622222222222,154.62010383373647L217.67777777777778,154.91244292183626L217.85111111111112,154.71879745209858L217.89444444444445,154.53515650385302L218.02444444444447,154.83488349773174L218.2411111111111,155.23536165606274L218.29888888888888,155.64519611242451L218.32777777777778,155.51216107727944L218.54444444444442,155.4590872196821L218.80444444444444,155.73403589275932L219.06444444444443,153.30462933592707L219.2811111111111,153.649450462301L219.42555555555558,153.89760967234443L219.4688888888889,154.358612779954L219.64222222222222,154.2659556254854L219.65666666666667,154.9262929100735L219.71444444444444,154.8863762209861L220.11888888888888,155.1642793673041L220.49444444444444,155.4398622796205L220.97111111111113,155.80215123409315L221.1877777777778,156.1393918089852L221.70777777777778,149.39887153441776L221.78,149.71283403444104L222.47333333333333,149.65503889885576L222.53111111111113,150.4576021545506L222.82,151.3845619122971L223.51333333333335,151.594136810336L223.5277777777778,152.17041533725228L223.90333333333334,152.821579904469L223.94666666666666,153.01308583496228L224.55333333333334,153.22185063474274L224.78444444444443,153.09774036154505L225.29000000000002,153.3347983354784L225.50666666666666,153.25238409539176L225.6222222222222,153.4942053361868L225.69444444444446,153.67997440503007L225.70888888888888,153.7951675152443L226.18555555555554,154.47412622265227L226.43111111111114,154.0193612882295L226.47444444444446,154.45275329793307L226.51777777777778,154.99087052823373L226.70555555555555,155.6714750253597L227.09555555555556,155.97807787902047L227.35555555555555,155.63107603883074L227.45666666666668,155.32273524091437L227.55777777777777,155.5537487972903L227.87555555555556,156.03914915518178L228.17888888888888,156.26035309905524L228.36666666666665,155.77461072850718L228.87222222222223,156.14751301780237L229.20444444444445,156.04635575474455L229.24777777777777,156.6123207261588L229.43555555555557,156.8827807303278L229.49333333333334,156.2836751546246L229.58,156.37266156312245L230.20111111111112,156.71898744999083L230.21555555555557,156.5814836906154L230.48999999999998,156.82063462850223L230.53333333333336,155.81767758208107L230.64888888888888,155.5645814525754L230.66333333333333,156.11381892712453L230.67777777777778,155.68385830246046L230.76444444444445,155.51831223027528L231.05333333333334,155.3629328858575L231.0822222222222,155.60200200096256L231.34222222222223,156.19077217839688L232.06444444444443,156.51896029096434L232.26666666666665,156.74719078962687L232.35333333333335,154.5725615251781L232.84444444444443,153.0063814844538L233.43666666666667,153.51987031814474L233.8411111111111,152.9032464198303L234.2311111111111,153.0074083198002L234.30333333333334,153.50406627971697L234.39,152.53443883577378L234.72222222222223,153.29030663708488L235.08333333333334,153.57862870825505L235.2566666666667,153.9897451967856L235.2711111111111,154.6209668873368L235.35777777777778,155.05559878913752L235.48777777777778,154.4252418978152L235.73333333333332,154.82562945028874L235.90666666666667,154.89070335500352L235.9933333333333,154.96118083305032L236.28222222222223,155.06887874747872L236.34,155.11950310228767L236.68666666666667,155.34676769311068L236.71555555555554,155.11036065317796L236.84555555555556,155.3222942231878L237.56777777777776,155.82162927995745L237.91444444444443,155.00354841892482L237.92888888888888,154.8500747374828L238.24666666666667,155.0125989990728L238.7522222222222,155.41332166528997L238.76666666666668,155.53225209549237L239.11333333333332,155.67873988784007L239.14222222222222,155.8440683674426L239.15666666666667,156.3924815143952L239.59,156.76807048068167L239.95111111111112,156.8930226360593L239.99444444444444,157.141668295476L240.02333333333334,156.16559215764389L240.24,156.12867646606927L240.32666666666668,156.23395542621438L240.61555555555555,155.76907015995772L240.76000000000002,156.3114797010117L240.77444444444444,156.5709059781143L240.89,156.707674590727L240.9477777777778,156.97280451636243L241.03444444444443,157.04380854878727L241.26555555555555,156.5198777252251L241.88666666666666,156.82539250230988L242.06,156.50584142846196L242.21888888888887,156.47915214015762L242.36333333333334,156.7479183841668L242.37777777777777,156.52714158987305L242.43555555555554,156.90655616805415L242.49333333333334,155.44051279838547L242.5511111111111,155.75835240492944L242.79666666666665,155.82710749126971L242.88333333333335,155.6790110199911L242.94111111111113,155.22090156184746L242.97,155.66976752841376L243.3311111111111,156.0142810454469L243.60555555555555,156.02106923989464L243.70666666666668,155.7835055347848L243.72111111111113,155.85066522356485L243.95222222222222,155.5141199182913L243.99555555555554,155.82125861084904L244.45777777777778,156.2012176082251L244.47222222222223,155.8421255105258L244.48666666666668,156.13309875810955L244.83333333333334,155.78980972059773L245.03555555555556,156.08061051029412L245.54111111111112,156.1709286597754" style="fill: none;" fill="none"></path></g></g></g></g><g opacity="0.2"><g><g><g><path stroke="rgb(255, 112, 67)" stroke-width="2px" d="M29.91444444444444,-423.77291655540466L29.95777777777778,24.69811788698038L30.246666666666666,41.985587418079376L31.127777777777776,134.45798365026712L31.171111111111113,40.02374585966268L31.301111111111112,126.51963434120017L32.196666666666665,104.84646560251713L32.26888888888889,-119.15545747677487L32.572222222222216,-47.31716623902325L32.644444444444446,109.41262793044248L32.745555555555555,-34.212508906920775L32.83222222222222,38.9121001114448L33.337777777777774,156.32257879028717L33.36666666666667,-93.04109897216163L33.48222222222222,112.63101400434971L33.90111111111111,2.8796525200208096L34.190000000000005,-57.44352450966839L34.98444444444445,-55.053772389888806L35.27333333333333,53.270074864228576L35.53333333333333,-56.68858325481419L35.73555555555556,-13.0209509134293L36.63111111111111,100.82327302793661L37.02111111111111,108.35197470088798L37.25222222222222,18.706640616059303L37.35333333333333,38.76678137977919L37.367777777777775,39.98755156000456L37.84444444444444,-57.993368417024655L38.04666666666667,-33.91152705748878L38.162222222222226,154.57953591768938L38.23444444444444,47.23589384555817L38.263333333333335,56.479962185025215L38.43666666666667,72.20489340772232L38.581111111111106,6.880830119053516L39.202222222222225,-35.04070079326634L39.31777777777778,12.214499478538837L39.43333333333334,19.886574784914647L39.80888888888889,160.88673713516133L39.93888888888889,14.674352496862411L39.99666666666666,85.65211459000903L40.025555555555556,-104.00219173232716L40.22777777777778,77.85740968088311L40.25666666666666,24.38873674968878L40.357777777777784,-26.47457655270897L40.473333333333336,-72.34618202845257L40.56,43.684829662243516L40.964444444444446,74.47083891928196L42.01888888888889,-15.63432302077614L42.495555555555555,49.742340808113426L42.53888888888889,20.446763078371678L42.784444444444446,100.16179595390955L42.91444444444445,125.8182440722982L42.928888888888885,-45.91375575462978L43.01555555555556,102.78234061102071L43.03,-8.671888073285448L43.102222222222224,56.86322390039763L43.36222222222222,9.634094576040898L43.40555555555556,62.12311214705309L43.535555555555554,106.65322978297868L44.24333333333333,95.66154593229294L44.28666666666667,121.89605293422937L44.373333333333335,98.54814908405143L44.46,56.7362509816885L44.532222222222224,99.21254380544025L44.67666666666667,15.06502989927927L44.763333333333335,69.26738062500954L44.83555555555556,110.41491163522005L45.586666666666666,5.7395879328250885L45.65888888888889,48.83480880657831L45.67333333333333,111.69416185716787L45.93333333333333,-17.7748594284058L46.12111111111111,26.236922681331635L46.30888888888889,101.7053308735291L46.85777777777778,22.7400339047114L47.10333333333333,-14.039618755380326L47.39222222222222,69.01305902997655L47.58,-17.12001337111L47.89777777777778,131.94439176718393L47.941111111111105,13.783762743075695L48.14333333333334,116.24994111806154L48.20111111111111,1.8728652497132685L48.894444444444446,132.1157040844361L48.995555555555555,109.56890994310379L49.31333333333334,120.27156158909202L49.486666666666665,82.8966066390276L49.63111111111111,87.62037718296051L50.06444444444445,3.0594414869944186L50.22333333333333,125.75438738117614L50.33888888888889,-52.56057640910153L50.425555555555555,84.75515353431305L50.88777777777778,66.35426445802054L50.94555555555556,62.562836969892174L51.306666666666665,117.77199983224273L51.53777777777778,114.44737105568248L51.55222222222222,106.8125510116418L51.76888888888889,23.041590442260112L51.82666666666667,-50.9076628684998L52.07222222222222,22.418075939019527L52.577777777777776,7.386423041423169L52.693333333333335,37.207619364062936L52.98222222222222,116.18405644098917L53.184444444444445,95.2478312725822L53.31444444444444,39.17235646645227L53.40111111111111,100.08729648093382L53.47333333333333,90.46197230865556L53.574444444444445,148.94300453923643L53.70444444444444,110.44304372370243L53.906666666666666,72.7229636932413L53.93555555555555,-1.5297083655993275L53.97888888888889,-33.36835837364201L54.108888888888885,52.39668154716492L54.614444444444445,65.12195630868277L54.96111111111111,93.03173995514709L55.26444444444444,96.01815648625293L55.52444444444444,-67.00149412949882L55.654444444444444,-139.71877084175748L55.842222222222226,80.32053400079411L55.885555555555555,123.06870956222215L56.00111111111111,68.97212355335554L56.57888888888889,13.831815510988235L56.824444444444445,51.87349432706833L56.96888888888889,74.98806927601498L57.01222222222222,98.66722004115582L57.30111111111111,72.94687102486691L57.53222222222222,78.21536854157847L57.79222222222222,-24.6975524822871L57.965555555555554,96.85278598467508L58.21111111111111,96.57810164242983L58.297777777777775,127.47427695368725L58.644444444444446,86.15000448127586L58.83222222222222,137.91027331352234L58.87555555555556,107.2393121967713L58.89,66.84080425898236L59.00555555555556,-69.95293757319455L59.06333333333333,79.75105675806603L59.16444444444445,85.41829388837019L59.87222222222222,116.76032495001951L59.93,123.26015254110098L60.03111111111111,7.3181677758693695L60.16111111111111,44.88876811166605L60.47888888888889,62.6512284229199L60.53666666666667,22.311338673035298L60.65222222222222,123.56561585267383L60.76777777777778,72.04115702708563L60.82555555555556,64.81324932475886L61.114444444444445,33.56580971678099L61.18666666666667,53.82555513580641L61.20111111111111,106.29847038785616L61.27333333333333,90.36536392072836L61.446666666666665,77.59842427074909L61.489999999999995,39.749011784791946L61.562222222222225,61.429507796963065L61.836666666666666,71.9823288569848L62.06777777777778,13.261338089903202L62.21222222222222,41.570342098673194L62.385555555555555,79.08100909491381L62.761111111111106,29.40626133481661L62.89111111111111,7.2065456608931155L63.39666666666667,61.19184110562006L63.41111111111111,-12.938328444957772L63.44,107.13684088488418L64.07555555555555,55.48065691192946L64.19111111111111,86.15855296701193L64.32111111111111,95.40198030819494L64.35,93.65881310403347L64.42222222222223,-76.53229868412022L64.78333333333333,101.47160963714123L64.79777777777778,8.499748647212982L64.94222222222221,100.32474213838577L64.97111111111111,32.59604562322298L65.04333333333332,17.641135692596436L65.24555555555557,104.16763184219599L65.33222222222221,36.745890617370605L65.46222222222222,5.645073841015491L65.67888888888889,86.17446188131967L65.76555555555557,3.8463442424933048L66.44444444444444,102.16714250793058L66.53111111111112,72.38571570813656L66.77666666666667,149.91272857040167L66.86333333333333,116.21741045514742L67.57111111111111,55.43559915324053L67.67222222222222,44.41665077209473L67.74444444444444,142.66401743454236L67.93222222222222,62.815069794654846L68.46666666666665,46.66211196780205L68.66888888888889,69.7157920797666L69.17444444444445,94.87789790083963L70.37333333333333,145.75149342355627L70.50333333333333,105.93285270283619L70.63333333333334,131.52389689286548L70.72,120.07429436718422L71.06666666666666,142.8458564908554L71.74555555555555,-5.631810039281845L71.86111111111111,83.3421446532011L72.38111111111111,8.998268485069275L72.61222222222223,65.89057956139246L72.65555555555555,109.54196038593847L72.77111111111111,-104.5265946388245L72.81444444444445,61.00900187095007L73.16111111111111,101.81514051059881L73.21888888888888,117.99879994491735L73.65222222222222,56.73398538430533L74.20111111111112,1.3468930025895502L74.46111111111112,87.50853955994049L74.54777777777778,128.1273243476947L74.77888888888889,31.900374606251717L75.03888888888889,140.01267723056176L75.05333333333334,27.362604081630707L75.54444444444445,117.2072195596993L75.68888888888888,81.25418115655583L75.73222222222223,101.68154762685299L75.74666666666667,18.77533794939518L75.77555555555556,84.91450239221257L75.78999999999999,39.31790728370348L76.1511111111111,145.48742147100467L76.62777777777778,85.95227861404419L77.20555555555556,53.32283565402031L77.65333333333334,38.304765289028495L78.04333333333334,114.6605527177453L78.11555555555556,109.17805571357408L78.43333333333334,128.83898164083558L78.70777777777778,111.64272727072239L78.92444444444445,64.5017352104187L79.15555555555557,92.72707789142925L79.57444444444445,91.72481076419353L79.61777777777777,86.00613352159658L79.97888888888889,75.65110463897389L80.35444444444444,70.92353783796233L80.6,110.90163931498924L80.88888888888889,133.24554921065766L81.14888888888889,130.00874548777938L81.17777777777778,135.41370104004938L81.20666666666668,90.75226164360839L81.29333333333332,59.36479706565538L81.69777777777779,60.807695254683495L81.9,-130.32518412669504L82.7088888888889,-0.15251250068347977L82.76666666666668,111.37977430224419L82.92555555555555,132.85714016854763L83.37333333333333,118.66477782155076L83.4888888888889,99.7540381575624L83.67666666666668,105.97656215478975L83.7488888888889,106.71247791747251L83.98,89.27057753254968L84.05222222222223,110.80798172950745L84.08111111111111,122.33924798915783L84.22555555555554,13.167144497235622L84.28333333333333,107.70051046212512L84.70222222222222,113.32884562760592L84.87555555555555,97.07523449261981L85.62666666666667,131.6320294352869L85.78555555555555,68.52264008422694L86.03111111111112,81.36531699697179L86.43555555555555,110.423598267138L86.81111111111112,133.8805464245379L86.98444444444445,117.5528668326636L87.14333333333333,43.80385641256967L87.18666666666667,153.5716034155339L88.01,99.46135060489178L88.08222222222223,123.62309019019204L88.09666666666666,27.242494265238438L88.24111111111111,123.12300653755665L89.29555555555555,126.3094697917501L89.45444444444445,148.2436809372157L89.46888888888888,110.20082926005125L89.49777777777777,-30.850340286890678L89.57,120.74821564927697L89.58444444444444,129.31560530886054L89.94555555555556,38.363438735405595L90.01777777777778,30.662021179993953L90.06111111111112,126.98135756204525L90.17666666666666,93.1868891691168L90.46555555555555,112.52682415395975L90.50888888888889,101.92983499666053L90.52333333333334,97.2217136522134L90.74,113.7040561834971L91.05777777777777,107.28341398388147L91.24555555555555,135.63935453941423L91.27444444444444,133.350056797266L91.46222222222222,119.45610954364139L91.99666666666667,130.96173310900727L92.34333333333333,22.1277147680521L92.44444444444444,100.26319525142509L92.5311111111111,145.87248875697452L92.87777777777778,126.00123250484467L92.9211111111111,98.76481202989817L93.77333333333334,128.53057305266458L94.01888888888888,107.31948118905225L94.03333333333335,115.43514941136041L94.32222222222222,163.16666666666666L94.36555555555556,117.1148273932437L94.49555555555555,142.79438046055535L95.01555555555557,134.34210939581195L95.05888888888889,-16.100494548678437L95.28999999999999,93.79787657658258L95.73777777777778,121.35203326990205L96.14222222222222,105.5944884965817L96.25777777777778,103.76061450938383L96.31555555555556,139.52268791943789L96.43111111111111,117.25009737163782L96.59,86.30553497870761L96.96555555555557,110.83121239145595L97.03777777777778,136.14279514426985L97.2688888888889,100.01056456565857L97.5,132.32899350052077L97.61555555555556,142.17409305212396L97.74555555555557,104.4366245617469L97.87555555555556,112.98025860389072L98.03444444444443,66.12197994192442L98.0488888888889,66.35973504682383L98.22222222222221,131.14728277176619L98.25111111111111,-5.560703436533624L98.8,154.00466268509626L98.97333333333333,118.40845310688019L99.24777777777778,137.4492131943504L99.58,87.51916576425234L99.86888888888889,140.35639736428857L100.56222222222222,108.2425297697385L100.69222222222223,152.18981695299345L100.73555555555555,118.19261903812486L100.76444444444444,147.21626015317935L101.50111111111111,147.69240859833855L101.54444444444444,140.27251362117627L101.83333333333333,123.62967147429782L101.86222222222223,101.07142777740955L101.87666666666667,126.98465096702176L101.97777777777779,85.26353148370981L102.23777777777777,135.7778460867703L102.64222222222223,142.44244753631452L102.93111111111111,121.56275869285065L103.04666666666667,134.34999754279852L103.49444444444444,136.27351458743215L103.74000000000001,148.21934510581195L104,132.65977624431252L104.11555555555556,134.45958614597717L104.56333333333333,117.06508647898832L104.95333333333333,132.8265628926456L105.28555555555556,140.14396445453167L105.70444444444445,134.26733086754876L105.86333333333333,125.63237114747363L106.09444444444445,143.170220963036L106.29666666666667,62.332795947790146L106.6,47.83962581555048L107.17777777777778,138.78792153298855L107.49555555555555,130.28228321671486L107.56777777777778,122.6351432961722L108.10222222222222,145.95619843589762L108.2611111111111,137.13972430303693L108.34777777777778,135.7044241540134L108.55,152.3387343926976L108.57888888888888,110.41326493273178L109.0411111111111,135.22470048566657L109.38777777777777,116.35034023722011L109.5611111111111,120.14340061321855L109.59,100.04973177115122L109.67666666666666,55.742847313483566L109.85,74.73931220918894L110.21111111111111,126.02808535968262L110.61555555555556,128.64956664790708L110.64444444444445,136.30541254083315L110.70222222222222,90.76889444390932L110.91888888888889,137.63595367719728L111.5111111111111,131.85187803208828L111.55444444444446,104.62353082001209L112.32,113.53620304663974L112.36333333333333,120.5585271269083L112.50777777777778,144.01094408954182L112.76777777777778,96.473513931036L112.78222222222222,133.56515592833358L113.02777777777779,144.76229078074294L113.07111111111111,66.46475930015245L113.56222222222222,158.59595449424037L113.5911111111111,120.68840111543733L113.69222222222221,132.64003515491882L114.08222222222221,144.3198955922077L114.21222222222222,130.84766304368773L114.51555555555557,153.51317586936057L114.86222222222221,69.70940420031548L114.93444444444444,127.88470926011601L115.02111111111111,140.17650616914034L115.41111111111111,127.73739846050739L115.7,149.38845828423896L115.77222222222223,39.73369413614273L115.9888888888889,94.84312374393144L116.06111111111112,122.8097269150118L116.68222222222222,89.17598055303097L116.74000000000001,142.37440225295722L117.04333333333334,155.40612185467035L117.07222222222222,106.02268087615568L117.30333333333333,104.79976666718721L117.33222222222223,139.06846603627005L117.41888888888889,128.17689672360817L117.44777777777779,131.38626461476088L117.70777777777778,114.30682665606338L118.04,132.51455421497423L118.17,118.40799446155626L118.44444444444444,103.19391124198833L118.60333333333334,123.64542842780548L118.63222222222223,141.9444208803276L118.7188888888889,139.1141426898539L118.90666666666667,93.22663658857346L119.16666666666666,144.51127640530467L119.73,153.92213760968298L120.06222222222222,103.25228076676527L120.12,96.56528720259666L120.13444444444444,100.69160313904285L120.23555555555555,154.71806476451457L120.48111111111112,123.0376515376071L120.64,152.6875928736602L120.79888888888888,157.42877259943634L120.9,142.48830654285848L120.98666666666666,112.95667428771654L121.33333333333333,154.48662224939713L122.18555555555555,151.68444092012942L122.70555555555555,146.60052327997983L122.72,134.56084177146354L122.77777777777777,125.84889042129117L123.06666666666666,133.30533058941364L123.08111111111111,147.29051234448949L123.09555555555555,159.1403336840061L123.21111111111112,151.18612968300778L123.84666666666666,110.5735310812791L123.94777777777777,123.59113974124193L123.99111111111111,134.60184908409911L124.26555555555555,135.9386482425034L125.04555555555555,137.5512700676918L125.17555555555556,85.78330925603706L125.20444444444445,155.54244450697053L125.26222222222223,135.23947107543546L125.34888888888888,111.29437233259279L125.39222222222223,125.11768268048763L125.49333333333334,119.82759567846853L125.60888888888888,135.62702637414137L125.65222222222222,146.0167865883559L125.82555555555555,141.18023212005693L126.21555555555555,148.24883793418604L126.27333333333334,132.5207348751525L126.43222222222222,149.47033614479005L126.5911111111111,139.22485856587687L127.57333333333332,142.01555649377406L127.77555555555556,116.10722506046295L127.8911111111111,110.90186034888029L128.09333333333333,89.57297952473164L128.10777777777778,123.02170117944479L128.48333333333332,125.6745830948154L128.68555555555557,141.05389467378455L129.04666666666668,155.54574412852526L129.46555555555557,145.7319360685845L129.5088888888889,149.7496041773508L129.88444444444443,130.57384902238846L130.14444444444445,151.455448427548L130.20222222222222,153.18714880788076L130.56333333333333,143.64728117299575L130.9388888888889,132.66745993494987L131.31444444444446,137.6266039436062L131.53111111111113,140.95859453019995L131.64666666666665,142.92477387872833L131.6611111111111,109.8551654095451L131.9788888888889,152.42589634470642L132.03666666666666,120.06707208479443L132.23888888888888,138.33870606745282L132.81666666666666,140.8836516079803L132.94666666666666,142.74954788014293L133.12,96.60900770624477L133.39444444444445,142.62696801001826L133.4377777777778,147.81224212236702L133.56777777777776,132.73820735762516L134.33333333333334,152.9580133340011L134.4922222222222,154.68182073223093L134.7522222222222,133.10825400923687L134.89666666666668,120.77390807618696L134.9111111111111,130.9444344441096L135.1711111111111,152.24503812628487L135.18555555555554,121.11279723793268L135.51777777777778,141.21731055527925L135.57555555555555,138.34968040014306L135.79222222222222,142.88947062194347L136.22555555555556,137.9113619054357L136.35555555555555,146.85009679074088L136.3988888888889,151.20140174341697L136.5,117.53731986135244L136.64444444444445,149.62067372724414L136.68777777777777,138.93963366995254L136.76000000000002,143.2312028321127L136.90444444444444,132.2303985704978L137.2511111111111,158.04180249820152L137.38111111111112,151.09457191949087L137.65555555555557,140.84158885851502L137.9011111111111,152.23112749649832L138.79666666666668,129.9757036839922L139.30222222222224,148.08368417372304L139.54777777777778,143.02028676743308L139.6922222222222,141.14601192933816L139.76444444444445,132.65829531724253L139.92333333333335,130.94880538930494L140.01,145.25847042227784L140.11111111111111,137.9989659252266L140.3711111111111,154.3609278736015L140.44333333333333,99.12868907302618L140.51555555555555,144.6253091711551L140.77555555555554,137.75406589979926L140.93444444444444,134.66470007101694L140.9777777777778,147.84718619907895L141.26666666666668,127.75805960347253L141.38222222222223,146.1744942696144L141.52666666666667,156.6148733170703L141.70000000000002,128.0734252333641L142.0322222222222,142.46979909886915L142.10444444444445,126.93027110397816L142.98555555555555,83.40452594310045L143,153.1778640029952L143.46222222222224,99.38914988438287L144.08333333333334,125.21902395660678L144.19888888888892,150.34840018426377L144.31444444444443,136.6389361048738L144.32888888888888,134.72170747444034L144.82000000000002,115.81097333629924L144.9788888888889,148.95060119777918L145.1522222222222,132.06021905193725L145.39777777777778,143.74598247557878L146.26444444444445,136.78568879390755L146.61111111111111,129.15159539878368L147.04444444444445,115.77748670180637L147.10222222222222,154.8344087159882L147.30444444444444,134.06761293237406L147.55,138.5192686530451L147.63666666666666,135.20977517217398L148.24333333333334,118.39905364066362L148.47444444444443,145.6027403778086L148.63333333333333,129.03455519055325L148.76333333333335,140.21056472882628L148.87888888888887,120.86579186469316L149.1677777777778,139.42165332784253L149.19666666666666,151.0576979406178L149.23999999999998,135.81704921027023L149.26888888888888,133.9441378749907L149.35555555555555,152.3420478288705L149.64444444444445,142.8897206665327L149.6877777777778,143.0904760795335L149.76,146.06061760894954L149.89000000000001,138.0789857196311L150.9011111111111,138.29493859410286L151.19,151.93736033141613L151.20444444444445,157.91514593424895L151.23333333333332,125.99258455385763L151.43555555555554,115.58097099512815L151.49333333333334,127.96125882243115L151.62333333333333,156.40272291625539L151.63777777777779,93.59613894422847L151.71,106.86746135602394L151.7822222222222,143.97620585064092L151.99888888888887,160.5565371955745L152.4466666666667,133.73126842329899L152.62,130.20009729017812L152.7211111111111,149.11922795325518L152.79333333333332,121.4249634022514L152.99555555555554,156.62236567524573L153.12555555555556,157.52479939193776L153.5011111111111,156.7887758752331L153.60222222222222,138.3518050884207L153.61666666666667,133.5373802570005L153.74666666666667,153.1568243394916L154.29555555555555,146.6951617033531L154.41111111111113,87.13306928922731L154.42555555555558,136.58186515420675L154.48333333333332,135.6427805647254L154.94555555555556,130.63241747766733L155.62444444444444,114.90907769898573L155.6822222222222,150.62956910828748L155.9422222222222,144.689098170648L156.01444444444445,153.86828753724694L156.27444444444444,134.16229279960194L156.31777777777776,145.53949843719602L156.6211111111111,149.3925363595287L156.78,142.1837743365516L157.12666666666667,146.48021591454744L157.2277777777778,160.5920557877204L157.47333333333333,145.9866486173123L157.5022222222222,97.85263279080391L157.54555555555555,137.32062672823668L157.8488888888889,152.1002512574196L157.87777777777777,148.03493100466827L157.95000000000002,136.92257231970626L158.1088888888889,122.15590313946205L158.2822222222222,142.8826876444121L158.5277777777778,156.76164327437678L158.7877777777778,150.55998625792563L158.87444444444444,126.7453292844196L159.01888888888888,144.22120534131923L159.2788888888889,91.67936619619528L159.29333333333335,137.22972101469833L159.68333333333334,134.62943135077754L159.79888888888888,156.48149386917552L159.94333333333333,158.0403737213152L160.10222222222222,147.83157429906228L160.40555555555554,149.07908819864193L160.66555555555556,154.30205549672246L161.12777777777777,153.79503137990832L161.2288888888889,135.51293973128L161.98,141.0691321976483L162.00888888888886,141.18298675492406L162.15333333333334,145.64521756581962L162.25444444444446,148.60885655445355L162.64444444444445,149.84787170092264L162.94777777777776,147.14688314062852L163.09222222222223,138.58560092374682L163.32333333333332,157.84226000867784L163.35222222222222,159.78036149110025L163.45333333333335,109.29775661726791L163.91555555555556,150.5308843832463L163.98777777777778,160.85132353411367L164.14666666666665,135.56409526243806L164.2188888888889,151.46617547857264L164.84,140.4011083760609L164.88333333333333,145.68472599238157L165.17222222222225,148.7045960028966L165.2588888888889,142.35563785706955L165.27333333333334,149.21127060987055L165.64888888888888,149.5551703336338L165.75,154.5996617441997L166.66,114.44350296258926L166.79,155.46160343351463L166.8911111111111,152.76387857676792L166.93444444444447,147.081640843302L167.03555555555556,138.1574776172638L167.07888888888888,144.4540382977575L167.39666666666668,155.8745810833449L167.55555555555557,120.31046079099178L167.71444444444447,152.64716093987226L167.88777777777779,149.30635800833502L167.90222222222224,130.20659844949841L167.94555555555556,157.43237579722577L168.29222222222222,160.55793229932897L168.3788888888889,141.04949195496738L168.7111111111111,110.64624017973739L168.85555555555555,142.10800806308785L168.9711111111111,148.63465120953816L169.85222222222222,143.44164919977385L169.98222222222222,154.25364285800606L170.11222222222221,150.49468179481724L170.61777777777777,151.19596569115916L171.02222222222224,154.35397981138277L171.06555555555556,151.32484779010215L171.64333333333335,155.91722750042877L171.98999999999998,144.88820273677507L172.13444444444443,146.91099577210844L172.92888888888888,154.94147753280896L173.11666666666667,131.24962975208956L173.53555555555553,156.12662948295474L174.05555555555554,145.50588747113943L174.12777777777777,153.43114881093302L174.14222222222222,156.49068197173378L174.17111111111112,156.70136180644235L174.37333333333333,119.95950317879516L174.54666666666668,141.89155786236125L174.8788888888889,140.10335500289995L174.96555555555557,153.0655200742185L175.18222222222224,158.1047308469812L175.26888888888888,133.62253356352448L175.41333333333333,140.33637169376016L175.76000000000002,152.22820915840566L176.00555555555556,157.1756922478477L176.32333333333335,149.8160732127726L176.7711111111111,142.7836534095307L176.8722222222222,148.5215951371938L177.0311111111111,151.28936218035716L177.26222222222222,155.685871326675L177.32000000000002,149.57039542434114L177.42111111111112,147.9582778327167L177.49333333333334,151.50961001962423L178.10000000000002,156.75324191432446L178.62,153.81459287926555L179.02444444444444,153.40719702591497L179.05333333333334,153.03052557415018L179.0677777777778,145.51234994952875L179.09666666666666,153.10714973540354L179.18333333333334,156.33691352885216L179.31333333333333,151.52178069824973L179.39999999999998,141.17894459764162L179.47222222222223,148.1003570364167L179.89111111111112,117.69839830944935L180.09333333333333,146.66662208363414L180.25222222222223,153.70800895554322L180.39666666666665,135.15732935567695L180.45444444444445,147.5243883046011L180.4688888888889,155.9358095433563L180.87333333333333,126.41142719984055L181.00333333333336,135.72178084030747L181.11888888888888,141.9927002079785L181.33555555555554,152.97307195855925L181.35,155.68377495836467L181.52333333333334,157.52176915543774L181.9711111111111,153.32306945479164L182.1011111111111,154.82531178991L182.2888888888889,158.75383209530264L182.34666666666666,148.93890021617213L182.4188888888889,148.9766168867548L182.54888888888888,150.88402470511693L182.66444444444446,116.92522728443146L182.76555555555558,152.95688191677132L182.78,141.7346680064996L183.02555555555557,133.46492811044055L183.45888888888888,147.26345917768776L183.60333333333335,162.13263273856137L184.13777777777779,161.51834924953678L184.26777777777778,153.9576708798607L184.2822222222222,151.9577762649084L184.3688888888889,153.45639778859913L184.6,109.17802808433771L184.7011111111111,157.0234420315052L185.10555555555555,152.57710562956828L185.12,137.30080551405746L185.25,141.49047252659994L185.32222222222222,158.35262968065217L185.4811111111111,156.60470299515873L185.61111111111111,146.71490417420864L185.81333333333333,144.3502974224587L185.97222222222223,134.28507988899946L186.36222222222221,156.4194924812764L186.40555555555557,131.92826458190876L186.53555555555556,152.58191035377482L186.89666666666668,158.00667434170222L186.95444444444445,160.42861365845116L187.08444444444444,151.29494743049145L187.2866666666667,151.6978756363193L187.37333333333333,139.68543517341215L187.4022222222222,108.67009220272303L187.89333333333335,139.48988925293088L187.98,156.38141455842802L188.0666666666667,119.64126963416734L188.09555555555556,148.6756764811774L188.11,158.98812180322906L188.25444444444446,155.42373342067003L188.32666666666668,122.35823756332198L188.5288888888889,146.75684535503387L188.6588888888889,147.31056978863973L188.89000000000001,149.57336833017567L189.25111111111113,154.17517651741701L189.52555555555554,132.04797377437353L189.65555555555557,145.47216046229005L189.91555555555556,131.31728270029026L190.30555555555554,156.48492818325758L190.63777777777779,156.09513491640487L190.66666666666666,150.1912989647438L190.6811111111111,126.37611703574657L191.4177777777778,154.94693845137954L191.53333333333333,154.58647361894447L191.57666666666668,138.30659536893168L191.70666666666665,154.6752056023106L192.25555555555556,153.22267793367305L192.70333333333332,159.14512839261442L192.99222222222224,154.67560277258355L193.19444444444446,138.18216157704592L193.26666666666665,142.85491473600268L193.71444444444444,154.4677425014476L193.83,150.6930376086384L193.85888888888888,161.20493597056097L194.35000000000002,153.81930711772293L194.39333333333335,141.29073248803616L194.59555555555556,151.85426056788612L194.63888888888889,147.44817029312253L194.79777777777778,151.43175221296647L194.88444444444443,156.5044316612184L195.28888888888886,159.1903125550598L195.33222222222224,158.14179063246897L195.34666666666666,136.79236678034067L195.43333333333334,153.5651809995373L195.4622222222222,159.1819353705893L195.70777777777778,158.7915024869144L195.82333333333332,156.55565004888922L195.95333333333335,152.10684704687446L196.17,155.5280393138528L196.4011111111111,150.96315069372454L196.96444444444444,126.51756214847165L197.13777777777779,125.10066859672466L197.16666666666666,135.1728514606754L197.3111111111111,155.11789642367512L197.47,135.09693460787335L197.5711111111111,136.30191191658378L197.67222222222225,146.21948157375056L197.70111111111112,130.74765902260938L197.94666666666666,158.01858081575483L198.2211111111111,157.46554849452028L198.7411111111111,126.8115731415649L198.88555555555556,156.6326389160628L199.1311111111111,156.4736008870726L199.2177777777778,150.4572317463656L199.34777777777776,151.02228278542557L199.7811111111111,146.30649709080654L200.11333333333334,148.31451401052374L200.12777777777777,137.7333605500559L200.38777777777779,154.95658381779987L200.79222222222222,159.69633891107515L200.86444444444444,159.66995886154473L201.0522222222222,145.41989699875313L201.25444444444446,156.88600937463343L201.37,146.50509327898422L201.44222222222223,156.3919267921398L201.4711111111111,150.72372540148595L201.48555555555555,153.18964649084955L201.77444444444447,155.40623996965587L201.84666666666666,148.7062067873776L202.04888888888888,142.6028338720401L202.19333333333333,153.05083789800602L202.26555555555555,150.78453182491162L202.36666666666667,138.75305896252394L202.64111111111112,155.90275185275823L202.81444444444443,161.74893784856735L203.32,159.6987046644402L203.45,154.1445426015804L204.14333333333335,159.88909047966203L204.21555555555554,155.94473585889986L204.4322222222222,159.78624444625652L204.5911111111111,156.19069339334965L204.64888888888888,161.08641345379874L204.88,156.43552296422422L205.06777777777776,146.70042369142175L205.35666666666668,153.68281799927354L205.48666666666668,144.51728576421738L205.60222222222222,148.69364791798094L205.89111111111112,149.11908428122598L206.12222222222223,127.81802057226497L206.4111111111111,152.79704954723516L206.45444444444445,158.70019822164127L206.68555555555557,153.1154295268158L206.91666666666666,156.41187233788273L207.07555555555555,155.8976183406388L207.94222222222223,154.20916738547385L208.07222222222222,149.8220825716853L208.08666666666667,155.8271852005273L208.52,156.88633747181544L208.79444444444442,153.27691550614932L208.83777777777777,155.13979052131373L209.15555555555554,153.79223461045572L209.79111111111112,156.84236277919263L210.09444444444443,153.9894949250544L210.18111111111114,154.94951971278834L210.21,154.05551429465413L210.51333333333332,158.66203948327652L210.8311111111111,147.15816692076623L211.25,158.79521723774573L211.91444444444443,161.60100729065016L212.14555555555557,156.52696537567923L212.31888888888886,152.77719517797232L213.17111111111112,132.2163960735003L213.40222222222224,156.07709371577948L213.85,157.26094571035355L213.96555555555557,160.08689370875558L214.26888888888888,151.12240561222035L214.63,157.65808179213977L214.70222222222225,154.58690877941746L214.89000000000001,150.91521673152843L215.07777777777778,152.38906726334244L215.16444444444446,142.0086422773699L215.7711111111111,148.48751585558057L215.78555555555556,159.87649154787263L215.85777777777778,155.375455474481L216.07444444444445,153.97819249518216L216.91222222222223,157.07756010753414L217.15777777777777,153.5163034989188L217.54777777777778,156.2626212751493L217.5622222222222,161.40077476094788L217.67777777777778,157.54349471473446L217.85111111111112,152.97598822445917L217.89444444444445,152.88238796964288L218.02444444444447,157.5324264426405L218.2411111111111,158.83966508104155L218.29888888888888,159.3337062196806L218.32777777777778,154.31484576097378L218.54444444444442,154.98142250130573L218.80444444444444,158.2085739504546L219.06444444444443,131.4399703244368L219.2811111111111,156.75284059966603L219.42555555555558,156.1310425627356L219.4688888888889,158.50764074843997L219.64222222222222,153.43204123526812L219.65666666666667,160.86932847136632L219.71444444444444,154.52712601919967L220.11888888888888,157.66540768416598L220.49444444444444,157.92010849046832L220.97111111111113,159.0627518243467L221.1877777777778,159.17455698301396L221.70777777777778,88.73418906331062L221.78,152.5384965346505L222.47333333333333,149.1348826785882L222.53111111111113,157.68067145580426L222.82,159.72719973201552L223.51333333333335,153.48031089268625L223.5277777777778,157.35692207949856L223.90333333333334,158.68206100941947L223.94666666666666,154.73663920940209L224.55333333333334,155.1007338327666L224.78444444444443,151.98074790276587L225.29000000000002,155.46832010087866L225.50666666666666,152.51065593461195L225.6222222222222,155.67059650334218L225.69444444444446,155.35189602461952L225.70888888888888,154.83190550717214L226.18555555555554,160.5847545893242L226.43111111111114,149.92647687842447L226.47444444444446,158.3532813852653L226.51777777777778,159.83392560093975L226.70555555555555,161.79691549949348L227.09555555555556,158.73750356196737L227.35555555555555,152.5080594771231L227.45666666666668,152.54766805966693L227.55777777777777,157.63287080467367L227.87555555555556,160.40775237620497L228.17888888888888,158.2511885939166L228.36666666666665,151.4029293935746L228.87222222222223,159.50363362145922L229.20444444444445,155.13594038722414L229.24777777777777,161.70600546888696L229.43555555555557,159.3169207678487L229.49333333333334,150.8917249732961L229.58,157.17353923960277L230.20111111111112,159.8359204318064L230.21555555555557,155.34394985623658L230.48999999999998,158.97299306948358L230.53333333333336,146.79106416429082L230.64888888888888,153.28671628702432L230.66333333333333,161.05695619806647L230.67777777777778,151.81421268048385L230.76444444444445,154.02839758060873L231.05333333333334,153.96451878609756L231.0822222222222,157.75362403690815L231.34222222222223,161.4897037753059L232.06444444444443,159.47265330407149L232.26666666666665,158.80126527758935L232.35333333333335,135.00089814513922L232.84444444444443,138.91076111793518L233.43666666666667,158.14126982136318L233.8411111111111,147.3536313350002L234.2311111111111,153.94486541952938L234.30333333333334,157.973987918968L234.39,143.80779184028506L234.72222222222223,160.09311684888476L235.08333333333334,156.1735273487866L235.2566666666667,157.68979359356067L235.2711111111111,160.3019621022977L235.35777777777778,158.9672859053438L235.48777777777778,148.75202987591425L235.73333333333332,158.42911742255092L235.90666666666667,155.47636849743623L235.9933333333333,155.59547813547152L236.28222222222223,156.03815997733423L236.34,155.57512229556838L236.68666666666667,157.39214901051795L236.71555555555554,152.98269729378322L236.84555555555556,157.22969635327658L237.56777777777776,160.3156447908841L237.91444444444443,147.64082066963115L237.92888888888888,153.46881160450477L238.24666666666667,156.4753173533827L238.7522222222222,159.01982566124448L238.76666666666668,156.60262596731386L239.11333333333332,156.9971300189694L239.14222222222222,157.3320246838654L239.15666666666667,161.32819983696876L239.59,160.14837117725983L239.95111111111112,158.01759203445786L239.99444444444444,159.37947923022634L240.02333333333334,147.3809069171548L240.24,155.7964352418979L240.32666666666668,157.1814660675203L240.61555555555555,151.58510276364782L240.76000000000002,161.1931655704975L240.77444444444444,158.90574247203767L240.89,157.93859210424125L240.9477777777778,159.35897384708127L241.03444444444443,157.682844840611L241.26555555555555,151.80450031316528L241.88666666666666,159.57502549607307L242.06,153.62988176383078L242.21888888888887,156.23894854541868L242.36333333333334,159.16681458024928L242.37777777777777,154.54015044122934L242.43555555555554,160.32128737168387L242.49333333333334,142.2461224713673L242.5511111111111,158.6189088638251L242.79666666666665,156.44590326833227L242.88333333333335,154.3461427784835L242.94111111111113,151.0979164385547L242.97,159.70956122751036L243.3311111111111,159.11490269874534L243.60555555555555,156.08216298992434L243.70666666666668,153.6454321887965L243.72111111111113,156.4551024225851L243.95222222222222,152.48521217082936L243.99555555555554,158.58550684386864L244.45777777777778,159.62084858460972L244.47222222222223,152.6102966312319L244.48666666666668,158.75185798636326L244.83333333333334,152.70020838299143L245.03555555555556,158.69781761756167L245.54111111111112,156.9837920051068" style="fill: none;" fill="none"></path></g></g></g></g></g><g><g><circle r="4" cx="110.91888888888889" cy="116.72146345728775" fill="rgb(255, 112, 67)" style="stroke: none;" stroke="none" stroke-width="1px"></circle></g></g></g><g transform="translate(70, 178)" clip-path="url(#clip_1)"><clipPath id="clip_1"><rect width="260" height="21"></rect></clipPath><g><g><line x1="0" y1="0" x2="0" y2="5" style="visibility: inherit;" fill="rgb(0, 0, 0)" stroke="rgb(204, 204, 204)" stroke-width="1px"></line><line x1="28.888888888888886" y1="0" x2="28.888888888888886" y2="5" style="visibility: inherit;" fill="rgb(0, 0, 0)" stroke="rgb(204, 204, 204)" stroke-width="1px"></line><line x1="57.77777777777777" y1="0" x2="57.77777777777777" y2="5" style="visibility: inherit;" fill="rgb(0, 0, 0)" stroke="rgb(204, 204, 204)" stroke-width="1px"></line><line x1="86.66666666666666" y1="0" x2="86.66666666666666" y2="5" style="visibility: inherit;" fill="rgb(0, 0, 0)" stroke="rgb(204, 204, 204)" stroke-width="1px"></line><line x1="115.55555555555554" y1="0" x2="115.55555555555554" y2="5" style="visibility: inherit;" fill="rgb(0, 0, 0)" stroke="rgb(204, 204, 204)" stroke-width="1px"></line><line x1="144.44444444444446" y1="0" x2="144.44444444444446" y2="5" style="visibility: inherit;" fill="rgb(0, 0, 0)" stroke="rgb(204, 204, 204)" stroke-width="1px"></line><line x1="173.33333333333331" y1="0" x2="173.33333333333331" y2="5" style="visibility: inherit;" fill="rgb(0, 0, 0)" stroke="rgb(204, 204, 204)" stroke-width="1px"></line><line x1="202.22222222222223" y1="0" x2="202.22222222222223" y2="5" style="visibility: inherit;" fill="rgb(0, 0, 0)" stroke="rgb(204, 204, 204)" stroke-width="1px"></line><line x1="231.1111111111111" y1="0" x2="231.1111111111111" y2="5" style="visibility: inherit;" fill="rgb(0, 0, 0)" stroke="rgb(204, 204, 204)" stroke-width="1px"></line><line x1="260" y1="0" x2="260" y2="5" style="visibility: inherit;" fill="rgb(0, 0, 0)" stroke="rgb(204, 204, 204)" stroke-width="1px"></line></g><g transform="translate(0, 8)"><text x="0" y="0" dx="0em" dy="0.95em" style="text-anchor: middle; visibility: hidden; font-family: Roboto, sans-serif; font-size: 12px; font-weight: 200;" fill="rgb(50, 49, 63)" stroke="none" stroke-width="1px">-2k</text><text x="28.888888888888886" y="0" dx="0em" dy="0.95em" style="text-anchor: middle; visibility: inherit; font-family: Roboto, sans-serif; font-size: 12px; font-weight: 200;" fill="rgb(50, 49, 63)" stroke="none" stroke-width="1px">0</text><text x="57.77777777777777" y="0" dx="0em" dy="0.95em" style="text-anchor: middle; visibility: inherit; font-family: Roboto, sans-serif; font-size: 12px; font-weight: 200;" fill="rgb(50, 49, 63)" stroke="none" stroke-width="1px">2k</text><text x="86.66666666666666" y="0" dx="0em" dy="0.95em" style="text-anchor: middle; visibility: inherit; font-family: Roboto, sans-serif; font-size: 12px; font-weight: 200;" fill="rgb(50, 49, 63)" stroke="none" stroke-width="1px">4k</text><text x="115.55555555555554" y="0" dx="0em" dy="0.95em" style="text-anchor: middle; visibility: inherit; font-family: Roboto, sans-serif; font-size: 12px; font-weight: 200;" fill="rgb(50, 49, 63)" stroke="none" stroke-width="1px">6k</text><text x="144.44444444444446" y="0" dx="0em" dy="0.95em" style="text-anchor: middle; visibility: inherit; font-family: Roboto, sans-serif; font-size: 12px; font-weight: 200;" fill="rgb(50, 49, 63)" stroke="none" stroke-width="1px">8k</text><text x="173.33333333333331" y="0" dx="0em" dy="0.95em" style="text-anchor: middle; visibility: inherit; font-family: Roboto, sans-serif; font-size: 12px; font-weight: 200;" fill="rgb(50, 49, 63)" stroke="none" stroke-width="1px">10k</text><text x="202.22222222222223" y="0" dx="0em" dy="0.95em" style="text-anchor: middle; visibility: inherit; font-family: Roboto, sans-serif; font-size: 12px; font-weight: 200;" fill="rgb(50, 49, 63)" stroke="none" stroke-width="1px">12k</text><text x="231.1111111111111" y="0" dx="0em" dy="0.95em" style="text-anchor: middle; visibility: inherit; font-family: Roboto, sans-serif; font-size: 12px; font-weight: 200;" fill="rgb(50, 49, 63)" stroke="none" stroke-width="1px">14k</text><text x="260" y="0" dx="0em" dy="0.95em" style="text-anchor: middle; visibility: hidden; font-family: Roboto, sans-serif; font-size: 12px; font-weight: 200;" fill="rgb(50, 49, 63)" stroke="none" stroke-width="1px">16k</text></g><line x1="0" y1="0" x2="260" y2="0" fill="rgb(0, 0, 0)" stroke="rgb(204, 204, 204)" stroke-width="1px"></line></g></g></g></g></svg>