<svg viewBox="0 0 330.0000305175781 200.00001525878906" xmlns="http://www.w3.org/2000/svg"><g><g><g><g><g><line x1="70" y1="178" x2="65" y2="178" style="visibility: inherit;" fill="rgb(0, 0, 0)" stroke="rgb(204, 204, 204)" stroke-width="1px"></line><line x1="70" y1="158.2222222222222" x2="65" y2="158.2222222222222" style="visibility: inherit;" fill="rgb(0, 0, 0)" stroke="rgb(204, 204, 204)" stroke-width="1px"></line><line x1="70" y1="138.44444444444446" x2="65" y2="138.44444444444446" style="visibility: inherit;" fill="rgb(0, 0, 0)" stroke="rgb(204, 204, 204)" stroke-width="1px"></line><line x1="70" y1="118.66666666666669" x2="65" y2="118.66666666666669" style="visibility: inherit;" fill="rgb(0, 0, 0)" stroke="rgb(204, 204, 204)" stroke-width="1px"></line><line x1="70" y1="98.8888888888889" x2="65" y2="98.8888888888889" style="visibility: inherit;" fill="rgb(0, 0, 0)" stroke="rgb(204, 204, 204)" stroke-width="1px"></line><line x1="70" y1="79.1111111111111" x2="65" y2="79.1111111111111" style="visibility: inherit;" fill="rgb(0, 0, 0)" stroke="rgb(204, 204, 204)" stroke-width="1px"></line><line x1="70" y1="59.33333333333332" x2="65" y2="59.33333333333332" style="visibility: inherit;" fill="rgb(0, 0, 0)" stroke="rgb(204, 204, 204)" stroke-width="1px"></line><line x1="70" y1="39.55555555555557" x2="65" y2="39.55555555555557" style="visibility: inherit;" fill="rgb(0, 0, 0)" stroke="rgb(204, 204, 204)" stroke-width="1px"></line><line x1="70" y1="19.777777777777768" x2="65" y2="19.777777777777768" style="visibility: inherit;" fill="rgb(0, 0, 0)" stroke="rgb(204, 204, 204)" stroke-width="1px"></line><line x1="70" y1="0" x2="65" y2="0" style="visibility: inherit;" fill="rgb(0, 0, 0)" stroke="rgb(204, 204, 204)" stroke-width="1px"></line></g><g transform="translate(60, 0)"><text x="0" y="178" dx="0em" dy="0.3em" style="text-anchor: end; visibility: hidden; font-family: Roboto, sans-serif; font-size: 12px; font-weight: 200;" fill="rgb(50, 49, 63)" stroke="none" stroke-width="1px">-0.02</text><text x="0" y="158.2222222222222" dx="0em" dy="0.3em" style="text-anchor: end; visibility: inherit; font-family: Roboto, sans-serif; font-size: 12px; font-weight: 200;" fill="rgb(50, 49, 63)" stroke="none" stroke-width="1px">0</text><text x="0" y="138.44444444444446" dx="0em" dy="0.3em" style="text-anchor: end; visibility: hidden; font-family: Roboto, sans-serif; font-size: 12px; font-weight: 200;" fill="rgb(50, 49, 63)" stroke="none" stroke-width="1px">0.02</text><text x="0" y="118.66666666666669" dx="0em" dy="0.3em" style="text-anchor: end; visibility: inherit; font-family: Roboto, sans-serif; font-size: 12px; font-weight: 200;" fill="rgb(50, 49, 63)" stroke="none" stroke-width="1px">0.04</text><text x="0" y="98.8888888888889" dx="0em" dy="0.3em" style="text-anchor: end; visibility: hidden; font-family: Roboto, sans-serif; font-size: 12px; font-weight: 200;" fill="rgb(50, 49, 63)" stroke="none" stroke-width="1px">0.06</text><text x="0" y="79.1111111111111" dx="0em" dy="0.3em" style="text-anchor: end; visibility: inherit; font-family: Roboto, sans-serif; font-size: 12px; font-weight: 200;" fill="rgb(50, 49, 63)" stroke="none" stroke-width="1px">0.08</text><text x="0" y="59.33333333333332" dx="0em" dy="0.3em" style="text-anchor: end; visibility: hidden; font-family: Roboto, sans-serif; font-size: 12px; font-weight: 200;" fill="rgb(50, 49, 63)" stroke="none" stroke-width="1px">0.1</text><text x="0" y="39.55555555555557" dx="0em" dy="0.3em" style="text-anchor: end; visibility: inherit; font-family: Roboto, sans-serif; font-size: 12px; font-weight: 200;" fill="rgb(50, 49, 63)" stroke="none" stroke-width="1px">0.12</text><text x="0" y="19.777777777777768" dx="0em" dy="0.3em" style="text-anchor: end; visibility: hidden; font-family: Roboto, sans-serif; font-size: 12px; font-weight: 200;" fill="rgb(50, 49, 63)" stroke="none" stroke-width="1px">0.14</text><text x="0" y="0" dx="0em" dy="0.3em" style="text-anchor: end; visibility: hidden; font-family: Roboto, sans-serif; font-size: 12px; font-weight: 200;" fill="rgb(50, 49, 63)" stroke="none" stroke-width="1px">0.16</text></g><line x1="70" y1="0" x2="70" y2="178" fill="rgb(0, 0, 0)" stroke="rgb(204, 204, 204)" stroke-width="1px"></line></g></g><g transform="translate(70, 0)" clip-path="url(#clip_0)"><clipPath id="clip_0"><rect width="260" height="177"></rect></clipPath><g><g><g><line x1="0" y1="0" x2="0" y2="178" fill="rgb(0, 0, 0)" stroke="rgb(60, 60, 60)" stroke-width="1px" opacity="0.25"></line><line x1="28.888888888888886" y1="0" x2="28.888888888888886" y2="178" fill="rgb(0, 0, 0)" stroke="rgb(60, 60, 60)" stroke-width="1px" opacity="0.25"></line><line x1="57.77777777777777" y1="0" x2="57.77777777777777" y2="178" fill="rgb(0, 0, 0)" stroke="rgb(60, 60, 60)" stroke-width="1px" opacity="0.25"></line><line x1="86.66666666666666" y1="0" x2="86.66666666666666" y2="178" fill="rgb(0, 0, 0)" stroke="rgb(60, 60, 60)" stroke-width="1px" opacity="0.25"></line><line x1="115.55555555555554" y1="0" x2="115.55555555555554" y2="178" fill="rgb(0, 0, 0)" stroke="rgb(60, 60, 60)" stroke-width="1px" opacity="0.25"></line><line x1="144.44444444444446" y1="0" x2="144.44444444444446" y2="178" fill="rgb(0, 0, 0)" stroke="rgb(60, 60, 60)" stroke-width="1px" opacity="0.25"></line><line x1="173.33333333333331" y1="0" x2="173.33333333333331" y2="178" fill="rgb(0, 0, 0)" stroke="rgb(60, 60, 60)" stroke-width="1px" opacity="0.25"></line><line x1="202.22222222222223" y1="0" x2="202.22222222222223" y2="178" fill="rgb(0, 0, 0)" stroke="rgb(60, 60, 60)" stroke-width="1px" opacity="0.25"></line><line x1="231.1111111111111" y1="0" x2="231.1111111111111" y2="178" fill="rgb(0, 0, 0)" stroke="rgb(60, 60, 60)" stroke-width="1px" opacity="0.25"></line><line x1="260" y1="0" x2="260" y2="178" fill="rgb(0, 0, 0)" stroke="rgb(60, 60, 60)" stroke-width="1px" opacity="0.25"></line></g><g><line x1="0" y1="178" x2="260" y2="178" fill="rgb(0, 0, 0)" stroke="rgb(60, 60, 60)" stroke-width="1px" opacity="0.25"></line><line x1="0" y1="158.2222222222222" x2="260" y2="158.2222222222222" fill="rgb(0, 0, 0)" stroke="rgb(60, 60, 60)" stroke-width="1px" opacity="0.25"></line><line x1="0" y1="138.44444444444446" x2="260" y2="138.44444444444446" fill="rgb(0, 0, 0)" stroke="rgb(60, 60, 60)" stroke-width="1px" opacity="0.25"></line><line x1="0" y1="118.66666666666669" x2="260" y2="118.66666666666669" fill="rgb(0, 0, 0)" stroke="rgb(60, 60, 60)" stroke-width="1px" opacity="0.25"></line><line x1="0" y1="98.8888888888889" x2="260" y2="98.8888888888889" fill="rgb(0, 0, 0)" stroke="rgb(60, 60, 60)" stroke-width="1px" opacity="0.25"></line><line x1="0" y1="79.1111111111111" x2="260" y2="79.1111111111111" fill="rgb(0, 0, 0)" stroke="rgb(60, 60, 60)" stroke-width="1px" opacity="0.25"></line><line x1="0" y1="59.33333333333332" x2="260" y2="59.33333333333332" fill="rgb(0, 0, 0)" stroke="rgb(60, 60, 60)" stroke-width="1px" opacity="0.25"></line><line x1="0" y1="39.55555555555557" x2="260" y2="39.55555555555557" fill="rgb(0, 0, 0)" stroke="rgb(60, 60, 60)" stroke-width="1px" opacity="0.25"></line><line x1="0" y1="19.777777777777768" x2="260" y2="19.777777777777768" fill="rgb(0, 0, 0)" stroke="rgb(60, 60, 60)" stroke-width="1px" opacity="0.25"></line><line x1="0" y1="0" x2="260" y2="0" fill="rgb(0, 0, 0)" stroke="rgb(60, 60, 60)" stroke-width="1px" opacity="0.25"></line></g></g></g><g><g><line x1="0" y1="158.2222222222222" x2="260" y2="158.2222222222222" fill="rgb(0, 0, 0)" stroke="rgb(153, 153, 153)" stroke-width="1.5px"></line></g></g><g><g><line x1="28.888888888888886" y1="0" x2="28.888888888888886" y2="178" fill="rgb(0, 0, 0)" stroke="rgb(153, 153, 153)" stroke-width="1.5px"></line></g></g><g><g><g><g><g><path stroke="rgb(255, 112, 67)" stroke-width="2px" d="M37.25222222222222,-2.2009633039742855L37.35333333333333,6.767741758376891L37.367777777777775,11.649137916317683L37.84444444444444,7.464338505799454L38.04666666666667,6.297050433606632L38.162222222222226,12.794502963701472L38.23444444444444,3.835686312410114L38.263333333333335,10.059876943308678L38.43666666666667,14.66011564904826L38.581111111111106,16.303396691657028L39.202222222222225,23.230287221067357L39.31777777777778,28.22449007336416L39.43333333333334,29.495132917585085L39.80888888888889,26.915142742922157L39.93888888888889,27.293448178975382L39.99666666666666,33.17298133270013L40.025555555555556,36.083514916803544L40.22777777777778,41.26084098287065L40.25666666666666,39.68052564252187L40.357777777777784,39.682928610618816L40.473333333333336,32.450447038665374L40.56,33.46140336551295L40.964444444444446,37.357341483900804L42.01888888888889,33.433503222011L42.495555555555555,35.380364949733945L42.53888888888889,39.3674973496891L42.784444444444446,39.730373522894475L42.91444444444445,42.95862349156172L42.928888888888885,45.787900875204436L43.01555555555556,48.461487655106296L43.03,50.47296811739399L43.102222222222224,54.62414494141856L43.36222222222222,51.91687939917358L43.40555555555556,54.42725809704874L43.535555555555554,52.858357466213405L44.24333333333333,56.13468825242965L44.28666666666667,53.16207731932189L44.373333333333335,54.05587201910799L44.46,51.5442436022446L44.532222222222224,54.19885789854127L44.67666666666667,47.839356487542375L44.763333333333335,45.26438687178616L44.83555555555556,47.39416394482156L45.586666666666666,50.85100378282778L45.65888888888889,53.76687066358606L45.67333333333333,55.95108342255241L45.93333333333333,52.14049729719462L46.12111111111111,50.132220588233345L46.30888888888889,47.00679829566811L46.85777777777778,43.89849567713244L47.10333333333333,42.26222102374809L47.39222222222222,42.38517518073689L47.58,46.48443507961815L47.89777777777778,45.2386869533729L47.941111111111105,43.11353779021475L48.14333333333334,42.98135781866328L48.20111111111111,32.19196894235188L48.894444444444446,33.04907431299976L48.995555555555555,37.48201759604111L49.31333333333334,35.0950882730914L49.486666666666665,27.235092794476515L49.63111111111111,31.12369781978783L50.06444444444445,33.26820361674449L50.22333333333333,38.51849595995595L50.33888888888889,36.6038656079002L50.425555555555555,38.875075694404416L50.88777777777778,42.393715568046446L50.94555555555556,46.897308581376386L51.306666666666665,45.56550147520126L51.53777777777778,49.88116592147966L51.55222222222222,47.776197841298256L51.76888888888889,45.38292530956903L51.82666666666667,42.41670113936861L52.07222222222222,46.00621263999101L52.577777777777776,44.61645047652487L52.693333333333335,42.30387653049633L52.98222222222222,41.22124831153384L53.184444444444445,43.72736512686727L53.31444444444444,45.84496463687975L53.40111111111111,47.59551510617928L53.47333333333333,40.704694577195525L53.574444444444445,38.66899009892316L53.70444444444444,42.05999444804331L53.906666666666666,41.86702481911809L53.93555555555555,44.30582488307274L53.97888888888889,46.65684278875542L54.108888888888885,46.969400804510705L54.614444444444445,49.4297834017314L54.96111111111111,46.697833638149376L55.26444444444444,48.58677028348125L55.52444444444444,47.51036495806994L55.654444444444444,46.7993014608659L55.842222222222226,48.87572507134884L55.885555555555555,52.69847124856665L56.00111111111111,54.35519910261079L56.57888888888889,56.704250607502736L56.824444444444445,59.740120887981455L56.96888888888889,55.79009645222714L57.01222222222222,53.5880867008077L57.30111111111111,52.27183464523389L57.53222222222222,49.433443763132786L57.79222222222222,51.52959535681939L57.965555555555554,55.29087050192067L58.21111111111111,55.671703601740475L58.297777777777775,53.720987580432634L58.644444444444446,56.70240901356351L58.83222222222222,56.912532139460836L58.87555555555556,57.24429681130576L58.89,60.05538593861876L59.00555555555556,61.5683552848529L59.06333333333333,61.696189315039106L59.16444444444445,61.89932639245242L59.87222222222222,65.65450370337062L59.93,63.8350810280803L60.03111111111111,64.37376695038927L60.16111111111111,64.34269985795314L60.47888888888889,65.74157177932713L60.53666666666667,67.6199959512593L60.65222222222222,70.12320593742585L60.76777777777778,72.72990531841072L60.82555555555556,74.6478906940117L61.114444444444445,74.63099071121913L61.18666666666667,72.65806341994023L61.20111111111111,73.23108518959404L61.27333333333333,73.08602978123584L61.446666666666665,74.2577417253802L61.489999999999995,73.54155770745491L61.562222222222225,72.58210204077734L61.836666666666666,67.55655814184202L62.06777777777778,69.32375890505463L62.21222222222222,71.57965034795781L62.385555555555555,74.37955656697939L62.761111111111106,73.82427758154944L62.89111111111111,69.43080290219285L63.39666666666667,73.80052426848859L63.41111111111111,76.43209001356117L63.44,73.1115615071801L64.07555555555555,70.77292257824799L64.19111111111111,71.56498390374821L64.32111111111111,69.59217190243196L64.35,70.80494864025245L64.42222222222223,72.25347343525706L64.78333333333333,73.59332899468635L64.79777777777778,73.01102374002886L64.94222222222221,71.82365650522897L64.97111111111111,74.62163452113512L65.04333333333332,74.67703151450382L65.24555555555557,71.50149372131253L65.33222222222221,71.4859606306465L65.46222222222222,68.99092771570278L65.67888888888889,70.42523517405287L65.76555555555557,72.41342518763904L66.44444444444444,72.47100965112833L66.53111111111112,74.13765328850286L66.77666666666667,77.9963706883777L66.86333333333333,77.03632859530337L67.57111111111111,76.52433286525927L67.67222222222222,73.79651807046088L67.74444444444444,72.83070796956645L67.93222222222222,73.04980260758381L68.46666666666665,72.86851734345034L68.66888888888889,74.53962435314483L69.17444444444445,77.24944711066512L70.37333333333333,80.72038029690061L70.50333333333333,80.42244864446543L70.63333333333334,82.3655888331403L70.72,84.74691490251455L71.06666666666666,85.15123105781475L71.74555555555555,86.82930501626885L71.86111111111111,85.0044015086451L72.38111111111111,89.51554149136082L72.61222222222223,92.50088946023887L72.65555555555555,93.22553283683816L72.77111111111111,92.91019790659L72.81444444444445,92.92599464682904L73.16111111111111,94.90035683725291L73.21888888888888,96.58386762344055L73.65222222222222,96.8195685998114L74.20111111111112,90.81111210447727L74.46111111111112,93.02711415036227L74.54777777777778,92.60151980377859L74.77888888888889,90.59227519203003L75.03888888888889,91.52889609958832L75.05333333333334,88.83305000870845L75.54444444444445,91.89445072581778L75.68888888888888,88.92762946888972L75.73222222222223,92.02369392004199L75.74666666666667,94.0485660238853L75.77555555555556,91.73653924571211L75.78999999999999,91.00287545179236L76.1511111111111,90.09110335873899L76.62777777777778,90.93335859432361L77.20555555555556,87.726896807063L77.65333333333334,89.86347847618026L78.04333333333334,92.42685136159025L78.11555555555556,94.27923240139363L78.43333333333334,95.76407321487287L78.70777777777778,91.87065904130982L78.92444444444445,91.13320560993442L79.15555555555557,90.23659484748232L79.57444444444445,91.05707644141893L79.61777777777777,91.72523251868759L79.97888888888889,90.30664482835812L80.35444444444444,89.95783239083795L80.6,92.17140679526099L80.88888888888889,94.20683514815252L81.14888888888889,94.99433074148739L81.17777777777778,97.60802826266689L81.20666666666668,96.28423234636097L81.29333333333332,93.95354619453389L81.69777777777779,96.20596699432858L81.9,92.132182252345L82.7088888888889,90.00564247839021L82.76666666666668,90.2064284403321L82.92555555555555,93.70908804643933L83.37333333333333,93.94230109173125L83.4888888888889,95.81053533385945L83.67666666666668,95.84900529193578L83.7488888888889,96.95444130656603L83.98,98.61023721081497L84.05222222222223,97.18482714941422L84.08111111111111,96.49573617125588L84.22555555555554,97.33789020032496L84.28333333333333,100.21604411495973L84.70222222222222,102.89482861285049L84.87555555555555,102.24335725445236L85.62666666666667,104.01076804752348L85.78555555555555,105.04054510649587L86.03111111111112,105.48653127833508L86.43555555555555,106.39008646682913L86.81111111111112,102.2028717848442L86.98444444444445,103.91181574108126L87.14333333333333,103.84725133850564L87.18666666666667,105.5716247733811L88.01,104.53150489748172L88.08222222222223,106.0164471595358L88.09666666666666,102.99510409526971L88.24111111111111,103.27677816831739L89.29555555555555,104.75768787296673L89.45444444444445,106.31641540066012L89.46888888888888,106.08590192518666L89.49777777777777,106.59099411960962L89.57,106.09849144664256L89.58444444444444,108.70272686778429L89.94555555555556,106.94343836833015L90.01777777777778,103.87028745302877L90.06111111111112,106.13533660793087L90.17666666666666,102.97929890574346L90.46555555555555,104.79217286036315L90.50888888888889,103.92926818013153L90.52333333333334,104.10990017545191L90.74,99.00209045611513L91.05777777777777,100.58418164914627L91.24555555555555,102.20673229965124L91.27444444444444,102.20985311705505L91.46222222222222,103.17290675336898L91.99666666666667,103.85318273099239L92.34333333333333,105.7998020277698L92.44444444444444,107.45765163702958L92.5311111111111,109.18417688011677L92.87777777777778,109.82326621217463L92.9211111111111,110.17978036134748L93.77333333333334,109.693424010009L94.01888888888888,109.46758896048604L94.03333333333335,108.97056163972113L94.32222222222222,110.26161150365688L94.36555555555556,111.11683170288792L94.49555555555555,110.68999643651303L95.01555555555557,112.75308736322552L95.05888888888889,111.91023824555083L95.28999999999999,111.65629883357049L95.73777777777778,108.09788884593388L96.14222222222222,108.76089905817646L96.25777777777778,108.92905558437845L96.31555555555556,109.14046757530835L96.43111111111111,109.79864169558385L96.59,108.6354860884658L96.96555555555557,108.6721357564569L97.03777777777778,108.4315644934174L97.2688888888889,107.59406890183256L97.5,106.89163183492364L97.61555555555556,108.09262688845146L97.74555555555557,109.62486038010096L97.87555555555556,108.79370770249795L98.03444444444443,104.81469928577168L98.0488888888889,106.1558565830439L98.22222222222221,107.88681588769535L98.25111111111111,108.15999565850223L98.8,110.05717070745895L98.97333333333333,112.27967921408737L99.24777777777778,111.38053438244381L99.58,112.03178178512691L99.86888888888889,111.88768914890895L100.56222222222222,113.25264578889491L100.69222222222223,114.96442702302613L100.73555555555555,115.76871927298126L100.76444444444444,117.39719628372441L101.50111111111111,119.33869074678206L101.54444444444444,118.34209838416383L101.83333333333333,119.84771763441215L101.86222222222223,120.66339534926607L101.87666666666667,121.80176504346106L101.97777777777779,119.98602939847245L102.23777777777777,119.51824584669028L102.64222222222223,120.30678654512968L102.93111111111111,119.71405399512336L103.04666666666667,120.71253952346554L103.49444444444444,120.95135773171398L103.74000000000001,122.6978116102961L104,123.63423902494897L104.11555555555556,122.71028525563948L104.56333333333333,123.8691473670097L104.95333333333333,124.56456257756182L105.28555555555556,122.74787067774331L105.70444444444445,121.75318241347595L105.86333333333333,118.16649296356657L106.09444444444445,115.53438940703282L106.29666666666667,115.0230421863013L106.6,114.74335580264317L107.17777777777778,116.84510764811083L107.49555555555555,115.44569910102696L107.56777777777778,116.23723030252839L108.10222222222222,117.14258423279284L108.2611111111111,115.74784374085567L108.34777777777778,117.17138335758864L108.55,118.951451161891L108.57888888888888,120.47328093560284L109.0411111111111,122.28090601865355L109.38777777777777,121.12258905288427L109.5611111111111,121.65231085126761L109.59,121.26571424826628L109.67666666666666,118.3517458686118L109.85,118.74880230532716L110.21111111111111,119.45981800734303L110.61555555555556,120.44297014270924L110.64444444444445,118.57786253659494L110.70222222222222,116.66179645669172L110.91888888888889,116.90490774165131L111.5111111111111,118.58558571478213L111.55444444444446,119.6704988111367L112.32,120.59499421100278L112.36333333333333,120.2513438584978L112.50777777777778,121.60424482196409L112.76777777777778,121.97215646836017L112.78222222222222,122.74262417339187L113.02777777777779,123.07862925381738L113.07111111111111,122.68575993345331L113.56222222222222,122.94974992059537L113.5911111111111,123.17611386091757L113.69222222222221,122.2650197703652L114.08222222222221,123.58972877559837L114.21222222222222,122.81563096610705L114.51555555555557,124.2488680606703L114.86222222222221,124.9632841608317L114.93444444444444,124.76492814175805L115.02111111111111,123.8573230143117L115.41111111111111,122.18898291013184L115.7,122.94886589846068L115.77222222222223,124.4591626523695L115.9888888888889,121.29924373582523L116.06111111111112,121.63143926292628L116.68222222222222,121.32701076587345L116.74000000000001,121.308681389871L117.04333333333334,122.40042677776464L117.07222222222222,121.33222271400163L117.30333333333333,121.70275355022208L117.33222222222223,122.93110156210216L117.41888888888889,115.95866064233999L117.44777777777779,117.19263990615553L117.70777777777778,118.80765465900573L118.04,120.01346962208298L118.17,120.97124076426961L118.44444444444444,121.45044480002764L118.60333333333334,120.89019618428243L118.63222222222223,120.57448302603605L118.7188888888889,122.02245337771534L118.90666666666667,121.04334530455976L119.16666666666666,122.07187680503526L119.73,122.30577949243172L120.06222222222222,116.00811402799336L120.12,117.70621170961012L120.13444444444444,118.75587983480926L120.23555555555555,120.87802039629867L120.48111111111112,121.5498157986368L120.64,122.57383573280727L120.79888888888888,123.56750059132038L120.9,124.82129364183047L120.98666666666666,121.96310255269324L121.33333333333333,122.96515601192353L122.18555555555555,123.6796033036344L122.70555555555555,123.8885546149283L122.72,123.4164956582244L122.77777777777777,120.40113497231306L123.06666666666666,122.22975924611268L123.08111111111111,122.84181907789733L123.09555555555555,123.9568873522859L123.21111111111112,125.42425047543608L123.84666666666666,122.55286013088225L123.94777777777777,124.2050860223814L123.99111111111111,125.04673888339396L124.26555555555555,124.76711094361295L125.04555555555555,125.01676318794728L125.17555555555556,124.67774121289669L125.20444444444445,125.3088580031464L125.26222222222223,125.61290241554472L125.34888888888888,124.54862921748807L125.39222222222223,121.26094540274299L125.49333333333334,121.50608641622341L125.60888888888888,120.20542473308994L125.65222222222222,119.44988002785193L125.82555555555555,119.5546131544709L126.21555555555555,121.37452894676659L126.27333333333334,121.1754808300671L126.43222222222222,122.17947797467744L126.5911111111111,123.11940048287038L127.57333333333332,123.45247040773184L127.77555555555556,124.4299081460596L127.8911111111111,124.62687152273438L128.09333333333333,123.91995694884609L128.10777777777778,125.63278385045517L128.48333333333332,126.50887514076115L128.68555555555557,127.64733536570603L129.04666666666668,127.9867588731289L129.46555555555557,126.87890143981006L129.5088888888889,128.24323924633913L129.88444444444443,128.88618315800443L130.14444444444445,129.74370266586513L130.20222222222222,129.10312849578895L130.56333333333333,129.8982495262511L130.9388888888889,129.41617802628465L131.31444444444446,128.96166800572206L131.53111111111113,129.3253149200879L131.64666666666665,130.28833279428835L131.6611111111111,128.82565190718728L131.9788888888889,130.49112011655546L132.03666666666666,129.92854893503525L132.23888888888888,130.6208325896973L132.81666666666666,129.76459922262856L132.94666666666666,130.32242387564924L133.12,129.49614594921886L133.39444444444445,130.47245888171142L133.4377777777778,131.27299398877676L133.56777777777776,131.09975267594336L134.33333333333334,132.5362225878313L134.4922222222222,133.05411965861262L134.7522222222222,133.67394504184102L134.89666666666668,132.7036105860715L134.9111111111111,133.05273364219403L135.1711111111111,133.17718403432107L135.18555555555554,133.42633373302556L135.51777777777778,133.14906135096587L135.57555555555555,133.4899914852943L135.79222222222222,133.4165385072876L136.22555555555556,134.06833380120372L136.35555555555555,133.7371558816066L136.3988888888889,133.59639728545292L136.5,131.31461550756853L136.64444444444445,131.25164755087533L136.68777777777777,132.0540168712003L136.76000000000002,130.8561788878358L136.90444444444444,130.95693067784424L137.2511111111111,131.8506035219575L137.38111111111112,132.92349749338467L137.65555555555557,133.68030037635222L137.9011111111111,132.72772740627286L138.79666666666668,133.40686841085017L139.30222222222224,133.5497827054429L139.54777777777778,134.07679116155353L139.6922222222222,134.49674543307637L139.76444444444445,134.29087069930077L139.92333333333335,133.87024073472915L140.01,134.14543933657308L140.11111111111111,134.15411818413685L140.3711111111111,132.1202368850497L140.44333333333333,132.40881828526545L140.51555555555555,133.24845048267542L140.77555555555554,133.6220111734934L140.93444444444444,133.13356855571675L140.9777777777778,133.8646802559101L141.26666666666668,133.79494880321718L141.38222222222223,134.69137314440263L141.52666666666667,135.38234581781734L141.70000000000002,135.77722991690018L142.0322222222222,136.97533131448574L142.10444444444445,136.13337793443597L142.98555555555555,135.4354370049596L143,136.4518499173155L143.46222222222224,135.1760600038059L144.08333333333334,135.03609222851713L144.19888888888892,135.3568765890857L144.31444444444443,135.64925278135811L144.32888888888888,135.1791865723942L144.82000000000002,133.85709870916466L144.9788888888889,134.87077344690601L145.1522222222222,133.6987783643407L145.39777777777778,132.8376832617179L146.26444444444445,134.1302607509315L146.61111111111111,133.44629610156395L147.04444444444445,133.62404765487884L147.10222222222222,134.7941128327223L147.30444444444444,133.33166177230362L147.55,133.5814492544355L147.63666666666666,131.86884104328752L148.24333333333334,132.73506036787225L148.47444444444443,133.6486562409344L148.63333333333333,134.1358663005804L148.76333333333335,133.94812287094106L148.87888888888887,133.90703994133457L149.1677777777778,131.87058204301744L149.19666666666666,132.17164493327033L149.23999999999998,132.0288019609341L149.26888888888888,133.32178343045547L149.35555555555555,133.1403072639841L149.64444444444445,134.2069549559472L149.6877777777778,135.2998849751081L149.76,135.01715896722743L149.89000000000001,134.80856604023802L150.9011111111111,134.76658307467525L151.19,135.47373050915695L151.20444444444445,136.19518296540525L151.23333333333332,136.20896726987763L151.43555555555554,134.64504121553043L151.49333333333334,134.96307662076444L151.62333333333333,135.85221305193525L151.63777777777779,135.1830730789915L151.71,134.28387167738018L151.7822222222222,134.48419218445014L151.99888888888887,136.1876943491724L152.4466666666667,136.53622943348796L152.62,136.25566986627115L152.7211111111111,136.16817487065055L152.79333333333332,135.51214632000182L152.99555555555554,136.6525029312745L153.12555555555556,136.98733593083665L153.5011111111111,137.3344459085152L153.60222222222222,137.73446419639424L153.61666666666667,136.99085899009702L153.74666666666667,137.76239793590003L154.29555555555555,137.23694004407025L154.41111111111113,135.60839958020162L154.42555555555558,135.51841225980357L154.48333333333332,135.5432318583075L154.94555555555556,135.27162499823L155.62444444444444,135.3911221774556L155.6822222222222,135.65310583423482L155.9422222222222,134.58124596877047L156.01444444444445,135.40597396607532L156.27444444444444,134.72566047465273L156.31777777777776,131.56615006433515L156.6211111111111,132.63782755432123L156.78,132.74495493653254L157.12666666666667,132.91856824569788L157.2277777777778,131.9604047368791L157.47333333333333,133.04683962619902L157.5022222222222,134.060429030898L157.54555555555555,135.08240420349122L157.8488888888889,135.7311360107188L157.87777777777777,136.5896373514194L157.95000000000002,137.36049247349035L158.1088888888889,136.8035381269944L158.2822222222222,136.97691609446304L158.5277777777778,137.83369651025225L158.7877777777778,137.37171785328573L158.87444444444444,137.1716532460293L159.01888888888888,138.4424245371219L159.2788888888889,136.061790959446L159.29333333333335,134.68840983900844L159.68333333333334,133.8819137795509L159.79888888888888,134.57344604717696L159.94333333333333,135.1957493839327L160.10222222222222,136.14136176453502L160.40555555555554,137.04287328664785L160.66555555555556,137.4025180214136L161.12777777777777,137.60913099782073L161.2288888888889,137.76842138445474L161.98,136.6448308361751L162.00888888888886,136.08322703646593L162.15333333333334,136.62198566216173L162.25444444444446,136.40591967158332L162.64444444444445,137.10874791333276L162.94777777777776,137.31184713658635L163.09222222222223,137.0342117907794L163.32333333333332,134.74730490174287L163.35222222222222,135.2161632836569L163.45333333333335,134.89435420529423L163.91555555555556,135.25851149777645L163.98777777777778,135.75702347683972L164.14666666666665,136.73461043887926L164.2188888888889,136.76411248452033L164.84,136.86894863556734L164.88333333333333,137.78392715986223L165.17222222222225,136.97586651853806L165.2588888888889,137.799632173686L165.27333333333334,137.13761372604426L165.64888888888888,136.0713655354044L165.75,137.31846707803325L166.66,136.74662125840536L166.79,136.53359189400683L166.8911111111111,137.28695407278983L166.93444444444447,138.4327046930712L167.03555555555556,138.3635952767163L167.07888888888888,138.7513845967869L167.39666666666668,138.71450186100515L167.55555555555557,138.8998294238669L167.71444444444447,139.96796240186328L167.88777777777779,139.9596085202999L167.90222222222224,139.0894660335855L167.94555555555556,138.81920475907145L168.29222222222222,139.03269102009452L168.3788888888889,138.64087571856794L168.7111111111111,136.24397482466375L168.85555555555555,136.4891511739212L168.9711111111111,137.20106240806408L169.85222222222222,137.48088694656244L169.98222222222222,137.60754280312108L170.11222222222221,137.5724256372709L170.61777777777777,137.67130809816715L171.02222222222224,138.70207218793894L171.06555555555556,139.68294310954954L171.64333333333335,139.28508144061402L171.98999999999998,137.0670512415956L172.13444444444443,137.53295354568544L172.92888888888888,138.04406541499387L173.11666666666667,137.97874295310777L173.53555555555553,138.67216974955738L174.05555555555554,137.72601307944205L174.12777777777777,137.09271854581937L174.14222222222222,137.8594906423763L174.17111111111112,138.67409502527096L174.37333333333333,138.18557737838773L174.54666666666668,138.55209338025313L174.8788888888889,139.19456260642696L174.96555555555557,140.20418559648587L175.18222222222224,140.39524364321622L175.26888888888888,140.91782682779868L175.41333333333333,141.40942731110516L175.76000000000002,141.84019006512995L176.00555555555556,141.73112221410068L176.32333333333335,141.9006970137623L176.7711111111111,139.77418553175931L176.8722222222222,140.00615610405637L177.0311111111111,140.67107698377487L177.26222222222222,141.51554928294516L177.32000000000002,141.57537149577863L177.42111111111112,141.03412120569655L177.49333333333334,141.36847236087107L178.10000000000002,141.79008524609603L178.62,142.07170696633094L179.02444444444444,142.16369582338626L179.05333333333334,141.4431258687822L179.0677777777778,140.95070059667063L179.09666666666666,141.01811111333993L179.18333333333334,141.08898829182047L179.31333333333333,142.03923412642848L179.39999999999998,142.35438517444274L179.47222222222223,142.53747768178562L179.89111111111112,140.89290366200092L180.09333333333333,141.4434400446935L180.25222222222223,141.82805163678535L180.39666666666665,142.35849358909965L180.45444444444445,142.48602656238222L180.4688888888889,142.10927125563208L180.87333333333333,142.02812900485247L181.00333333333336,138.16833988485223L181.11888888888888,138.4630523438262L181.33555555555554,139.6784367021966L181.35,140.089033758484L181.52333333333334,140.46927716194762L181.9711111111111,140.75699488547863L182.1011111111111,141.0094289019341L182.2888888888889,141.53998632186034L182.34666666666666,142.1730962274774L182.4188888888889,141.88568316404755L182.54888888888888,141.0720982715083L182.66444444444446,140.20714175343187L182.76555555555558,139.525721948932L182.78,139.0095748895718L183.02555555555557,138.36849521538105L183.45888888888888,138.73026604814433L183.60333333333335,139.16009302592238L184.13777777777779,140.06777963272762L184.26777777777778,140.71825767743582L184.2822222222222,141.17801375726887L184.3688888888889,141.39632171030865L184.6,140.02324825944925L184.7011111111111,139.34450321566905L185.10555555555555,139.50572376653216L185.12,139.02226321309007L185.25,139.38628293343658L185.32222222222222,139.97048870304175L185.4811111111111,140.23124514267894L185.61111111111111,139.1655233256166L185.81333333333333,139.6574554749095L185.97222222222223,140.08284564336014L186.36222222222221,139.84713713478266L186.40555555555557,139.6312553471436L186.53555555555556,140.65932299411946L186.89666666666668,140.86063544116075L186.95444444444445,141.09543172927852L187.08444444444444,141.3801847806418L187.2866666666667,141.42997331053942L187.37333333333333,140.92421279956403L187.4022222222222,140.50480985855282L187.89333333333335,139.933382420262L187.98,139.76901574192937L188.0666666666667,139.3707405360968L188.09555555555556,139.48831954317174L188.11,140.30357563110053L188.25444444444446,139.81712609050015L188.32666666666668,138.7330208010866L188.5288888888889,138.83995482800614L188.6588888888889,138.67675029160637L188.89000000000001,138.06037088380774L189.25111111111113,138.8481862317625L189.52555555555554,138.33709150766262L189.65555555555557,138.67431490083638L189.91555555555556,138.96962222835182L190.30555555555554,139.55010494313487L190.63777777777779,140.62526907543835L190.66666666666666,140.81934965834137L190.6811111111111,141.32392668541874L191.4177777777778,141.69907004793427L191.53333333333333,142.58342368681596L191.57666666666668,142.4340339328822L191.70666666666665,142.8571983370147L192.25555555555556,143.14961570628805L192.70333333333332,143.4444619034197L192.99222222222224,143.2414326805723L193.19444444444446,143.51915285384166L193.26666666666665,143.8430277286896L193.71444444444444,143.6841740354269L193.83,142.7688191725909L193.85888888888888,143.30924979805343L194.35000000000002,143.13993857334177L194.39333333333335,143.46966709513242L194.59555555555556,144.05213900058862L194.63888888888889,142.53510274598457L194.79777777777778,142.9764224909926L194.88444444444443,142.1422416903939L195.28888888888886,141.8411050058434L195.33222222222224,142.65749809492726L195.34666666666666,142.46583851391264L195.43333333333334,142.78150698862407L195.4622222222222,143.2577018027727L195.70777777777778,143.1739151423211L195.82333333333332,142.70342730297298L195.95333333333335,142.7071233483548L196.17,141.80979102070023L196.4011111111111,142.52981839161018L196.96444444444444,140.5464484592889L197.13777777777779,140.78392977653806L197.16666666666666,139.93318179390474L197.3111111111111,140.83814400283805L197.47,140.43165183974784L197.5711111111111,139.3540303995755L197.67222222222225,138.8089475884032L197.70111111111112,136.69969011547758L197.94666666666666,137.85847868943216L198.2211111111111,139.0109300394681L198.7411111111111,139.025387574336L198.88555555555556,139.64027408843998L199.1311111111111,139.96224615170414L199.2177777777778,140.80641121474704L199.34777777777776,141.5466371372543L199.7811111111111,141.90782917024512L200.11333333333334,140.25290158639655L200.12777777777777,139.02603384107624L200.38777777777779,139.6720693978195L200.79222222222222,140.42555970552286L200.86444444444444,140.5287358366031L201.0522222222222,141.1707380449842L201.25444444444446,140.80393631888398L201.37,140.37430770218046L201.44222222222223,140.52382430228295L201.4711111111111,140.93973011234667L201.48555555555555,140.86434461438L201.77444444444447,141.69773397784604L201.84666666666666,141.9864634658021L202.04888888888888,142.09335552681088L202.19333333333333,141.73914666234526L202.26555555555555,140.39164577300184L202.36666666666667,140.61818183623106L202.64111111111112,141.09421319245743L202.81444444444443,141.97926934223045L203.32,141.9997080881854L203.45,142.86950464776547L204.14333333333335,143.38926658497837L204.21555555555554,144.04956059860615L204.4322222222222,144.54748869462992L204.5911111111111,143.61258241439958L204.64888888888888,144.418881539628L204.88,143.50767179301636L205.06777777777776,143.15598385995426L205.35666666666668,143.5768457533838L205.48666666666668,143.67058094065018L205.60222222222222,143.93471941929957L205.89111111111112,143.81595248603534L206.12222222222223,143.78640725412805L206.4111111111111,143.1198448717159L206.45444444444445,143.9910156063675L206.68555555555557,144.23246495690896L206.91666666666666,144.78728397963204L207.07555555555555,144.01144922971707L207.94222222222223,144.17144842417687L208.07222222222222,143.87902935916668L208.08666666666667,143.49303029842216L208.52,142.44264279981783L208.79444444444442,142.5857277410292L208.83777777777777,143.15241238866648L209.15555555555554,141.28305721635581L209.79111111111112,141.9037758930968L210.09444444444443,141.9580909623373L210.18111111111114,142.69822624526606L210.21,143.3772207374238L210.51333333333332,143.90479103313157L210.8311111111111,142.89948446347623L211.25,142.86569922945444L211.91444444444443,143.5295185267434L212.14555555555557,143.71686130924076L212.31888888888886,143.92714354330545L213.17111111111112,142.68947541828774L213.40222222222224,143.3683583531122L213.85,144.094702155272L213.96555555555557,144.4351775889597L214.26888888888888,144.80470826063734L214.63,145.55572618339968L214.70222222222225,145.19017017515233L214.89000000000001,144.21889022391926L215.07777777777778,144.11764442054795L215.16444444444446,144.4452010811504L215.7711111111111,144.91247657072438L215.78555555555556,145.32544479872985L215.85777777777778,145.60335758754528L216.07444444444445,144.87654024381794L216.91222222222223,144.51404761780393L217.15777777777777,145.09425908409736L217.54777777777778,145.15623915990057L217.5622222222222,145.13069180791453L217.67777777777778,145.6774487199797L217.85111111111112,145.95802155137946L217.89444444444445,145.8372266984314L218.02444444444447,145.8988241143555L218.2411111111111,146.06225526395218L218.29888888888888,146.10762423871122L218.32777777777778,145.93093732430717L218.54444444444442,146.30816141192213L218.80444444444444,146.4178321429675L219.06444444444443,145.0906724175705L219.2811111111111,145.29650930920945L219.42555555555558,143.9507451097045L219.4688888888889,144.40002949304576L219.64222222222222,143.64625589415905L219.65666666666667,144.3683509725847L219.71444444444444,144.734773793891L220.11888888888888,145.25993825412536L220.49444444444444,145.3807041818904L220.97111111111113,145.93620565328808L221.1877777777778,146.0561273762941L221.70777777777778,145.40076620900868L221.78,144.9048908770596L222.47333333333333,144.44581884643733L222.53111111111113,144.61336779574887L222.82,145.16227575361535L223.51333333333335,144.90427971521507L223.5277777777778,145.29808524404672L223.90333333333334,145.2332677789619L223.94666666666666,146.1115566808058L224.55333333333334,145.88647514465939L224.78444444444443,145.81078866181414L225.29000000000002,145.79895821277674L225.50666666666666,145.3574709035417L225.6222222222222,145.62555153870397L225.69444444444446,146.25901343063032L225.70888888888888,146.4884405255016L226.18555555555554,146.82738858774073L226.43111111111114,146.7903361784083L226.47444444444446,147.21315124839919L226.51777777777778,146.76073659805132L226.70555555555555,146.89815573903826L227.09555555555556,147.25993753461736L227.35555555555555,146.91298185175322L227.45666666666668,147.26615743609364L227.55777777777777,147.39396978570244L227.87555555555556,147.78377278122616L228.17888888888888,147.99410269820174L228.36666666666665,145.70425393826898L228.87222222222223,145.62047116275386L229.20444444444445,145.95712163627158L229.24777777777777,145.99139772675446L229.43555555555557,144.0834198036771L229.49333333333334,143.98755236649674L229.58,144.499712460065L230.20111111111112,144.87726718030046L230.21555555555557,145.3234328180469L230.48999999999998,146.0022074793288L230.53333333333336,145.73314444051596L230.64888888888888,145.45276145978542L230.66333333333333,145.6540171866721L230.67777777777778,145.62838680543953L230.76444444444445,145.98250762686408L231.05333333333334,145.98840404608595L231.0822222222222,146.32529149952404L231.34222222222223,146.176903508919L232.06444444444443,146.68649515658032L232.26666666666665,146.48977127018375L232.35333333333335,144.97034319217195L232.84444444444443,143.35432649389907L233.43666666666667,142.65402089609773L233.8411111111111,142.21463919934627L234.2311111111111,142.76177038689087L234.30333333333334,143.25948765112128L234.39,142.27135011944355L234.72222222222223,143.4489796452608L235.08333333333334,144.02138056182343L235.2566666666667,143.7046421173493L235.2711111111111,144.49481714173672L235.35777777777778,144.1324696027312L235.48777777777778,143.88595443729884L235.73333333333332,144.22192764965587L235.90666666666667,144.9367819303061L235.9933333333333,144.72998706865545L236.28222222222223,145.67897539985424L236.34,146.22917157166887L236.68666666666667,145.88367150901078L236.71555555555554,145.881628103824L236.84555555555556,146.28861967875167L237.56777777777776,146.87712805805847L237.91444444444443,144.51412243516333L237.92888888888888,144.43705709419956L238.24666666666667,145.06686320543866L238.7522222222222,145.39619911761602L238.76666666666668,145.5702775993748L239.11333333333332,145.53146807005902L239.14222222222222,145.954857411136L239.15666666666667,146.19547402752914L239.59,146.73791131261288L239.95111111111112,146.01980863283046L239.99444444444444,146.26723480163818L240.02333333333334,146.3590541332042L240.24,145.25836108492493L240.32666666666668,145.54658436076522L240.61555555555555,143.74258715063678L240.76000000000002,144.54654235266457L240.77444444444444,144.74381343260933L240.89,145.60136568371928L240.9477777777778,145.88426724006266L241.03444444444443,145.99536050644096L241.26555555555555,146.40133179227098L241.88666666666666,147.00297538432852L242.06,146.19148033677578L242.21888888888887,146.630300882393L242.36333333333334,147.27455487319048L242.37777777777777,147.40548269637483L242.43555555555554,147.7577742797062L242.49333333333334,146.2687754120164L242.5511111111111,146.8699785072846L242.79666666666665,147.5408125616968L242.88333333333335,147.8592304686241L242.94111111111113,147.9591459044562L242.97,148.2796264724554L243.3311111111111,148.15817889356373L243.60555555555555,148.24385209399344L243.70666666666668,147.13650043904215L243.72111111111113,147.03322437804923L243.95222222222222,147.1868275322363L243.99555555555554,147.94480528680592L244.45777777777778,147.7686732754356L244.47222222222223,147.56550055385182L244.48666666666668,147.782825122209L244.83333333333334,148.07437495314093L245.03555555555556,148.07545257539263L245.54111111111112,148.46776643921243" style="fill: none;" fill="none"></path></g></g></g></g><g opacity="0.2"><g><g><g><path stroke="rgb(255, 112, 67)" stroke-width="2px" d="M30.246666666666666,-121.6747622754839L31.127777777777776,21.58324095275667L31.171111111111113,-54.73131812943352L31.301111111111112,60.20063200924131L32.196666666666665,46.63464010755222L32.26888888888889,-24.179232723183098L32.572222222222216,1.91144568390316L32.644444444444446,-11.351987659931183L32.745555555555555,16.3298400508033L32.83222222222222,-16.72563099861145L33.337777777777774,20.596486720773907L33.36666666666667,-165.27555396821765L33.48222222222222,-28.971365365717123L33.90111111111111,79.99997856881883L34.190000000000005,-15.094533503055573L34.97,-39.12405614058178L34.98444444444445,31.14438609282177L35.27333333333333,-57.7790365682708L35.53333333333333,-3.793763226932945L35.73555555555556,14.834958374500275L36.63111111111111,42.83098576135105L37.02111111111111,53.05376638306513L37.25222222222222,32.1660342084037L37.35333333333333,83.684149361319L37.367777777777775,53.71935100356739L37.84444444444444,-28.76192838615841L38.04666666666667,-3.8478133810890958L38.162222222222226,69.46444972687296L38.23444444444444,-74.55113242732155L38.263333333333335,64.67538208762804L38.43666666666667,55.12953986061943L38.581111111111106,30.79306009080675L39.202222222222225,84.4346846739451L39.31777777777778,72.43412846657965L39.43333333333334,40.76188750730621L39.80888888888889,4.004120886325836L39.93888888888889,30.65743369526333L39.99666666666666,85.51859803663359L40.025555555555556,62.024286862876664L40.22777777777778,87.450087957912L40.25666666666666,25.569410350587635L40.357777777777784,39.704402430189994L40.473333333333336,-32.22772506210541L40.56,42.50790789061123L40.964444444444446,72.24007544583743L42.01888888888889,-1.717238234149094L42.495555555555555,52.82897491587534L42.53888888888889,75.11686837673187L42.784444444444446,42.985215842723846L42.91444444444445,71.92445378502208L42.928888888888885,71.18165465858246L43.01555555555556,72.4644543164306L43.03,68.53612948788536L43.102222222222224,91.91013928254443L43.36222222222222,27.595274375544662L43.40555555555556,76.98412584927347L43.535555555555554,38.75880470871925L44.24333333333333,85.58303678366873L44.28666666666667,26.44012178977331L44.373333333333335,62.09148853354982L44.46,28.961175408628254L44.532222222222224,78.06985168986849L44.67666666666667,-9.351881451076927L44.763333333333335,22.105794542365608L44.83555555555556,66.55014734466869L45.586666666666666,81.94501786761812L45.65888888888889,79.99635361300574L45.67333333333333,75.60001899136437L45.93333333333333,17.859320898850765L46.12111111111111,32.06441756089529L46.30888888888889,18.887364261680183L46.85777777777778,15.932155874040394L47.10333333333333,27.539721190929413L47.39222222222222,43.491493970155716L47.58,83.36971391571892L47.89777777777778,34.02915834718281L47.941111111111105,23.99058000246685L48.14333333333334,41.79192754295138L48.20111111111111,-64.89861187669968L48.894444444444446,40.7620274954372L48.995555555555555,77.37387490934795L49.31333333333334,13.614969180689926L49.486666666666665,-43.49821369515526L49.63111111111111,66.11818081140518L50.06444444444445,52.56728552447426L50.22333333333333,85.76788742674721L50.33888888888889,19.373255696561603L50.425555555555555,59.314831323093834L50.88777777777778,74.05989167756503L50.94555555555556,87.4278224772877L51.306666666666665,33.57972276873058L51.53777777777778,88.72073075175285L51.55222222222222,28.832106351852417L51.76888888888889,23.84410821066963L51.82666666666667,15.721392691135406L52.07222222222222,78.3110438717736L52.577777777777776,32.10886010858747L52.693333333333335,21.49111402697033L52.98222222222222,31.47776414288416L53.184444444444445,66.28206270602013L53.31444444444444,64.90309120217958L53.40111111111111,63.350269175238076L53.47333333333333,-21.31198108858532L53.574444444444445,20.34783832894432L53.70444444444444,72.57875094148848L53.906666666666666,40.130312634838965L53.93555555555555,66.25486080182922L53.97888888888889,67.81586108273929L54.108888888888885,49.782405853271484L54.614444444444445,71.57310567961798L54.96111111111111,22.110406782892017L55.26444444444444,65.58712478478748L55.52444444444444,37.82275565134155L55.654444444444444,40.399752948019234L55.842222222222226,67.56347721815109L55.885555555555555,87.10308685236505L56.00111111111111,69.26571078764067L56.57888888888889,77.8456643819809L56.824444444444445,87.06289552317725L56.96888888888889,20.23994431893032L57.01222222222222,33.77003294891781L57.30111111111111,40.425584442085686L57.53222222222222,23.887961334652367L57.79222222222222,70.39493609799278L57.965555555555554,89.14230869213739L58.21111111111111,59.09919802678955L58.297777777777775,36.164559400743904L58.644444444444446,83.53517988655302L58.83222222222222,58.80363887548447L58.87555555555556,60.23017687267727L58.89,85.35517294539345L59.00555555555556,75.18507206771109L59.06333333333333,62.846695029073274L59.16444444444445,63.727559291654146L59.87222222222222,99.45108623305956L59.93,47.46028273635441L60.03111111111111,69.22193870941797L60.16111111111111,64.0630961060524L60.47888888888889,78.33141582873132L60.53666666666667,84.52580957942537L60.65222222222222,92.65209111240173L60.76777777777778,96.19019534190494L60.82555555555556,91.90975615713332L61.114444444444445,74.47889088922075L61.18666666666667,54.90172022912237L61.20111111111111,78.38828048110008L61.27333333333333,71.78053125076822L61.446666666666665,84.80314817031223L61.489999999999995,67.09590212504068L61.562222222222225,63.947001738680726L61.836666666666666,22.326666341887588L62.06777777777778,85.22856473260454L62.21222222222222,91.88267213768428L62.385555555555555,99.57871120174724L62.761111111111106,68.82676695121658L62.89111111111111,29.88953248659771L63.39666666666667,113.12801504466269L63.41111111111111,100.11618089510334L63.44,43.22680588563284L64.07555555555555,49.72517281108433L64.19111111111111,78.69353565242555L64.32111111111111,51.836864295932976L64.35,81.71993905637L64.42222222222223,85.29019634922344L64.78333333333333,85.65202882885933L64.79777777777778,67.77027652661005L64.94222222222221,61.1373515360885L64.97111111111111,99.80343635876972L65.04333333333332,75.17560444937811L65.24555555555557,42.92165386345652L65.33222222222221,71.3461628158887L65.46222222222222,46.53563165995809L65.67888888888889,83.33400220672289L65.76555555555557,90.30713519454002L66.44444444444444,72.98926981952454L66.53111111111112,89.13744594653446L66.77666666666667,112.72482712401283L66.86333333333333,68.39594979418648L67.57111111111111,71.91637131240631L67.67222222222222,49.24618500139979L67.74444444444444,64.13841708832315L67.93222222222222,75.0216543442673L68.46666666666665,71.23694997032482L68.66888888888889,89.57958740658229L69.17444444444445,101.63785187900066L70.37333333333333,111.95877891613377L70.50333333333333,77.74106377694342L70.63333333333334,99.85385050541824L70.72,106.17884949843088L71.06666666666666,88.79007645116911L71.74555555555555,101.9319706261158L71.86111111111111,68.58026995592645L72.38111111111111,130.11580130043956L72.61222222222223,119.36902115907932L72.65555555555555,99.74732322163051L72.77111111111111,90.07218353615866L72.81444444444445,93.06816530889934L73.16111111111111,112.6696165419287L73.21888888888888,111.73546469211578L73.65222222222222,98.94087738626534L74.20111111111112,36.7350036667453L74.46111111111112,112.97113255659738L74.54777777777778,88.77117068568865L74.77888888888889,72.50907369123564L75.03888888888889,99.95848426553938L75.05333333333334,64.57043519616127L75.54444444444445,119.44705717431175L75.68888888888888,62.226238161325455L75.73222222222223,119.88827397591537L75.74666666666667,112.27241495582793L75.77555555555556,70.92829824487367L75.78999999999999,84.39990130729144L76.1511111111111,81.88515452212756L76.62777777777778,98.51365571386283L77.20555555555556,58.86874072419271L77.65333333333334,109.09271349675124L78.04333333333334,115.49720732867718L78.11555555555556,110.95066175858179L78.43333333333334,109.12764053543407L78.70777777777778,56.829931481017L78.92444444444445,84.49612472785843L79.15555555555557,82.16709798574448L79.57444444444445,98.44141078657573L79.61777777777777,97.73863721390563L79.97888888888889,77.53935561577478L80.35444444444444,86.81852045324113L80.6,112.09357643458578L80.88888888888889,112.52569032377666L81.14888888888889,102.08179108136231L81.17777777777778,121.13130595286685L81.20666666666668,84.37006909979713L81.29333333333332,72.97737082839012L81.69777777777779,116.47775419221983L81.9,55.46811957491768L82.7088888888889,70.86678451299667L82.76666666666668,92.01350209779208L82.92555555555555,125.23302450113827L83.37333333333333,96.04121849934259L83.4888888888889,112.62464351289803L83.67666666666668,96.1952349146207L83.7488888888889,106.90336543818313L83.98,113.5124003489812L84.05222222222223,84.35613659686511L84.08111111111111,90.2939173678557L84.22555555555554,104.91727646191913L84.28333333333333,126.1194293465879L84.70222222222222,127.0038890937964L84.87555555555555,96.38011502888466L85.62666666666667,119.91746518512565L85.78555555555555,114.30853863722747L86.03111111111112,109.50040682488019L86.43555555555555,114.52208316326141L86.81111111111112,64.51793964703876L86.98444444444445,119.29231134719318L87.14333333333333,103.26617171532577L87.18666666666667,121.09098568724262L88.01,95.17042601439688L88.08222222222223,119.38092751801014L88.09666666666666,75.80301651689742L88.24111111111111,105.81184482574463L89.29555555555555,118.08587521480189L89.45444444444445,120.34496314989197L89.46888888888888,104.01128064592677L89.49777777777777,111.13682386941379L89.57,101.66596738994122L89.58444444444444,132.14084565805067L89.94555555555556,91.1098418732484L90.01777777777778,76.21192921532524L90.06111111111112,126.52077900204394L90.17666666666666,74.57495958606401L90.46555555555555,121.1080384519365L90.50888888888889,96.16312605804866L90.52333333333334,105.73558813333511L90.74,53.031802982091904L91.05777777777777,114.82300238642428L91.24555555555555,116.80968815419409L91.27444444444444,102.23794047368897L91.46222222222222,111.84038948019344L91.99666666666667,109.97566652960246L92.34333333333333,123.3193756987651L92.44444444444444,122.37829812036621L92.5311111111111,124.72290406790043L92.87777777777778,115.57507020069492L92.9211111111111,113.38840770390297L93.77333333333334,105.31621684796279L94.01888888888888,107.43507351477939L94.03333333333335,104.4973157528374L94.32222222222222,121.88106027907794L94.36555555555556,118.81381349596712L94.49555555555555,106.8484790391392L95.01555555555557,131.32090570363732L95.05888888888889,104.32459618647891L95.28999999999999,109.37084412574768L95.73777777777778,76.07219895720482L96.14222222222222,114.72799096835983L96.25777777777778,110.44246432019604L96.31555555555556,111.04317549367744L96.43111111111111,115.72220877806345L96.59,98.16708562440341L96.96555555555557,109.00198276837665L97.03777777777778,106.26642312606174L97.2688888888889,100.0566085775693L97.5,100.56969823274348L97.61555555555556,118.90158237020174L97.74555555555557,123.41496180494624L97.87555555555556,101.31333360407088L98.03444444444443,69.0036235352357L98.0488888888889,118.22627225849364L98.22222222222221,123.46544962955845L98.25111111111111,110.61861359576383L98.8,127.13174614806968L98.97333333333333,132.28225577374297L99.24777777777778,103.28823089765177L99.58,117.89300840927494L99.86888888888889,110.59085542294714L100.56222222222222,125.53725554876858L100.69222222222223,130.3704581302073L100.73555555555555,123.0073495225774L100.76444444444444,132.05348938041263L101.50111111111111,136.81214091430107L101.54444444444444,109.37276712059975L101.83333333333333,133.39829088664717L101.86222222222223,128.00449478295113L101.87666666666667,132.04709229121605L101.97777777777779,103.64440859357515L102.23777777777777,115.30819388065073L102.64222222222223,127.40365283108419L102.93111111111111,114.3794610450665L103.04666666666667,129.6989092785451L103.49444444444444,123.10072160594994L103.74000000000001,138.41589651753503L104,132.0620857568251L104.11555555555556,114.39470133185387L104.56333333333333,134.29890636934172L104.95333333333333,130.82329947253066L105.28555555555556,106.39764357937706L105.70444444444445,112.80098803506957L105.86333333333333,85.88628791438208L106.09444444444445,91.84545739822919L106.29666666666667,110.42091719971762L106.6,112.2261783497201L107.17777777777778,135.7608742573195L107.49555555555555,102.85102217727238L107.56777777777778,123.36101111604107L108.10222222222222,125.290769605173L108.2611111111111,103.19517931342125L108.34777777777778,129.98323990818525L108.55,134.97206140061218L108.57888888888888,134.16974889900948L109.0411111111111,138.54953176611L109.38777777777777,110.69773636096055L109.5611111111111,126.41980703671771L109.59,117.7863448212544L109.67666666666666,92.1260304517216L109.85,122.32231023576523L110.21111111111111,125.85895932548577L110.61555555555556,129.29133936100536L110.64444444444445,101.79189408156607L110.70222222222222,99.4172017375628L110.91888888888889,119.09290930628777L111.5111111111111,133.71168747295934L111.55444444444446,129.434716678328L112.32,128.91545280979742L112.36333333333333,117.15849068595303L112.50777777777778,133.78035349316067L112.76777777777778,125.28336128592491L112.78222222222222,129.67683351867728L113.02777777777779,126.10267497764694L113.07111111111111,119.14993605017662L113.56222222222222,125.32565980487401L113.5911111111111,125.21338932381737L113.69222222222221,114.06517295539379L114.08222222222221,135.5121098226971L114.21222222222222,115.84875068068504L114.51555555555557,137.1480019117395L114.86222222222221,131.39302906228434L114.93444444444444,122.9797239700953L115.02111111111111,115.68887686729431L115.41111111111111,107.1739219725132L115.7,129.78781279342044L115.77222222222223,138.05183343754874L115.9888888888889,92.8599734869268L116.06111111111112,124.62119900683561L116.68222222222222,118.58715429239804L116.74000000000001,121.14371700584888L117.04333333333334,132.2261352688074L117.07222222222222,111.71838614013458L117.30333333333333,125.0375310762061L117.33222222222223,133.9862336690227L117.41888888888889,53.206692364480766L117.44777777777779,128.2984532804953L117.70777777777778,133.3427874346574L118.04,130.86580428977805L118.17,129.59118104394938L118.44444444444444,125.76328112185001L118.60333333333334,115.84795864257548L118.63222222222223,117.73306460181871L118.7188888888889,135.05418654282886L118.90666666666667,112.23137264615958L119.16666666666666,131.32866030931473L119.73,124.41090367900001L120.06222222222222,59.32912484804788L120.12,132.98909084416098L120.13444444444444,128.2028929616014L120.23555555555555,139.97728544970352L120.48111111111112,127.59597441967989L120.64,131.7900151403414L120.79888888888888,132.51048431793848L120.9,136.10543109642134L120.98666666666666,96.23938275045818L121.33333333333333,131.98363714499604L122.18555555555555,130.1096289290322L122.70555555555555,125.76911641657352L122.72,119.1679650478893L122.77777777777777,93.26288879911104L123.06666666666666,138.68737771030928L123.08111111111111,128.35035756395925L123.09555555555555,133.99250182178284L123.21111111111112,138.6305185837878L123.84666666666666,96.7103470298979L123.94777777777777,139.07511904587346L123.99111111111111,132.62161463250715L124.26555555555555,122.25045948558385L125.04555555555555,127.26363338695633L125.17555555555556,121.62654343744117L125.20444444444445,130.98890911539394L125.26222222222223,128.3493021271295L125.34888888888888,114.97017043497826L125.39222222222223,91.67179107003743L125.49333333333334,123.712355537547L125.60888888888888,108.49946958488887L125.65222222222222,112.64997768070961L125.82555555555555,120.49721129404175L126.21555555555555,137.7537710774276L126.27333333333334,119.38404777977202L126.43222222222222,131.21545227617025L126.5911111111111,131.57870305660697L127.57333333333332,126.45009973148504L127.77555555555556,133.22684779100948L127.8911111111111,126.39954191280735L128.09333333333333,117.5577257838514L128.10777777777778,141.04822596493693L128.48333333333332,134.39369675351512L128.68555555555557,137.89347739020982L129.04666666666668,131.04157043993473L129.46555555555557,116.9081845399406L129.5088888888889,140.5222795051005L129.88444444444443,134.67267836299206L130.14444444444445,137.46137823661167L130.20222222222222,123.33796096510356L130.56333333333333,137.05433880041042L130.9388888888889,125.07753452658653L131.31444444444446,124.87107782065868L131.53111111111113,132.59813714938034L131.64666666666665,138.9554936620924L131.6611111111111,115.66152392327785L131.9788888888889,145.4803340008689L132.03666666666666,124.86540830135345L132.23888888888888,136.8513854816556L132.81666666666666,122.05849891901016L132.94666666666666,135.34284575283527L133.12,122.0596446113454L133.39444444444445,139.25927527414427L133.4377777777778,138.47780995236502L133.56777777777776,129.5405808604426L134.33333333333334,145.464451794823L134.4922222222222,137.71519329564438L134.7522222222222,139.25237349089647L134.89666666666668,123.970600484146L134.9111111111111,136.19484114729696L135.1711111111111,134.29723756346436L135.18555555555554,135.66868102136584L135.51777777777778,130.65360991242858L135.57555555555555,136.5583626942502L135.79222222222222,132.75546170522767L136.22555555555556,139.93449144644867L136.35555555555555,130.75655460523237L136.3988888888889,132.32956992006964L136.5,110.77857950660918L136.64444444444445,130.6849359406365L136.68777777777777,139.27534075412484L136.76000000000002,120.07563703755537L136.90444444444444,131.86369678792025L137.2511111111111,139.89365911897684L137.38111111111112,142.57954323622914L137.65555555555557,140.49152632306019L137.9011111111111,124.1545706755585L138.79666666666668,139.51913745204607L139.30222222222224,134.83601135677762L139.54777777777778,138.81986726654898L139.6922222222222,138.276333876782L139.76444444444445,132.43799809532035L139.92333333333335,130.0845710535844L140.01,136.62222675316863L140.11111111111111,134.2322278122107L140.3711111111111,113.81530519326526L140.44333333333333,135.00605088720718L140.51555555555555,140.80514025936523L140.77555555555554,136.9840573908554L140.93444444444444,128.73758499572673L140.9777777777778,140.4446855576502L141.26666666666668,133.16736572898097L141.38222222222223,142.75919221507178L141.52666666666667,141.60109987854958L141.70000000000002,139.33118680864573L142.0322222222222,147.7582438927558L142.10444444444445,128.55579751398827L142.98555555555555,129.1539686396718L143,145.59956612851886L143.46222222222224,123.69395078221956L144.08333333333334,133.77638225091826L144.19888888888892,138.2439358342025L144.31444444444443,138.28063851181003L144.32888888888888,130.94859069171878L144.82000000000002,121.95830794009898L144.9788888888889,143.99384608657823L145.1522222222222,123.15082262125279L145.39777777777778,125.08782733811272L146.26444444444445,145.7634581538538L146.61111111111111,127.29061425725618L147.04444444444445,135.22381163471275L147.10222222222222,145.32469943331347L147.30444444444444,120.16960222853554L147.55,135.82953659362263L147.63666666666666,116.45536714295545L148.24333333333334,140.53103428913485L148.47444444444443,141.87101909849378L148.63333333333333,138.5207568373945L148.76333333333335,132.25843200418683L148.87888888888887,133.53729357487626L149.1677777777778,113.54246095816293L149.19666666666666,134.88121094554663L149.23999999999998,130.74321520990796L149.26888888888888,144.95861665614777L149.35555555555555,131.50702176574202L149.64444444444445,143.80678418361478L149.6877777777778,145.13625514755645L149.76,132.47262489630114L149.89000000000001,132.93122969733346L150.9011111111111,134.38873638461033L151.19,141.83805741949212L151.20444444444445,142.68825507164001L151.23333333333332,136.33302601012917L151.43555555555554,120.56970672640536L151.49333333333334,137.82539526787068L151.62333333333333,143.85444093247253L151.63777777777779,129.16081332249772L151.71,126.19105906287828L151.7822222222222,136.28707674807973L151.99888888888887,151.51921383167306L152.4466666666667,139.67304519232775L152.62,133.73063376131984L152.7211111111111,135.38071991006532L152.79333333333332,129.60788936416307L152.99555555555554,146.91571243272887L153.12555555555556,140.00083292689587L153.5011111111111,140.4584357076221L153.60222222222222,141.33462878730563L153.61666666666667,130.29841213342215L153.74666666666667,144.70624844812684L154.29555555555555,132.50781901760232L154.41111111111113,120.95153540538418L154.42555555555558,134.7085263762209L154.48333333333332,135.76660824484296L154.94555555555556,132.82716325753265L155.62444444444444,136.4665967904859L155.6822222222222,138.0109587452478L155.9422222222222,124.93450717959139L156.01444444444445,142.82852594181895L156.27444444444444,128.60283905184932L156.31777777777776,103.1305563714769L156.6211111111111,142.28292496419616L156.78,133.70910137643415L157.12666666666667,134.4810880281859L157.2277777777778,123.33693315751022L157.47333333333333,142.8247536300785L157.5022222222222,143.1827336731884L157.54555555555555,144.2801807568305L157.8488888888889,141.56972227576705L157.87777777777777,144.3161494177249L157.95000000000002,144.2981885721286L158.1088888888889,131.79094900853104L158.2822222222222,138.5373178016808L158.5277777777778,145.54472025235492L158.7877777777778,133.21390994058717L158.87444444444444,135.37107178072134L159.01888888888888,149.87936615695554L159.2788888888889,114.63608876036272L159.29333333333335,122.32797975507046L159.68333333333334,126.62344924443299L159.79888888888888,140.79723645581137L159.94333333333333,140.79647941473456L160.10222222222222,144.65187318995595L160.40555555555554,145.15647698566318L160.66555555555556,140.63932063430548L161.12777777777777,139.4686477854848L161.2288888888889,139.20203486416074L161.98,126.53251590165827L162.00888888888886,131.0287928390834L162.15333333333334,141.47081329342393L162.25444444444446,134.46132575637765L162.64444444444445,143.4342020890779L162.94777777777776,139.13974014586873L163.09222222222223,134.53549367851681L163.32333333333332,114.16514290041393L163.35222222222222,139.43588872088324L163.45333333333335,131.9980725000302L163.91555555555556,138.53592713011633L163.98777777777778,140.24363128840923L164.14666666666665,145.53289309723507L164.2188888888889,137.0296308952901L164.84,137.81247399499017L164.88333333333333,146.01873387851649L165.17222222222225,129.70332074662048L165.2588888888889,145.2135230700175L165.27333333333334,131.1794476972686L165.64888888888888,126.47513181964555L165.75,148.542380961693L166.66,131.60000888175435L166.79,134.61632761442L166.8911111111111,144.0672136818369L166.93444444444447,148.74446027560364L167.03555555555556,137.7416105295221L167.07888888888888,142.2414884774221L167.39666666666668,138.38255723896953L167.55555555555557,140.56777748962242L167.71444444444447,149.58115920383068L167.88777777777779,139.88442358622947L167.90222222222224,131.25818365315595L167.94555555555556,136.3868532884452L168.29222222222222,140.9540673693021L168.3788888888889,135.1145380048288L168.7111111111111,114.67186677952606L168.85555555555555,138.69573831723795L168.9711111111111,143.6082635153499L169.85222222222222,139.99930779304768L169.98222222222222,138.74744551214906L170.11222222222221,137.25637114461924L170.61777777777777,138.5612502462334L171.02222222222224,147.97894899588493L171.06555555555556,148.5107814040449L171.64333333333335,135.70432642019458L171.98999999999998,117.1047794504298L172.13444444444443,141.72607428249387L172.92888888888888,142.6440722387698L173.11666666666667,137.39084079613286L173.53555555555553,144.91301091760397L174.05555555555554,129.21060304840404L174.12777777777777,131.39306774321528L174.14222222222222,144.76043951138854L174.17111111111112,146.00553447132307L174.37333333333333,133.78891855643855L174.54666666666668,141.8507373970416L174.8788888888889,144.97678564199143L174.96555555555557,149.290792507016L175.18222222222224,142.11476606378952L175.26888888888888,145.6210754890409L175.41333333333333,145.83383166086344L175.76000000000002,145.71705485135317L176.00555555555556,140.74951155483723L176.32333333333335,143.4268702107171L176.7711111111111,120.63558219373226L176.8722222222222,142.0938912547297L177.0311111111111,146.65536490124134L177.26222222222222,149.11579997547798L177.32000000000002,142.11377141127983L177.42111111111112,136.1628685949577L177.49333333333334,144.37763275744186L178.10000000000002,145.58460121312075L178.62,144.6063024484449L179.02444444444444,142.99159553688435L179.05333333333334,134.95799627734553L179.0677777777778,136.51887314766645L179.09666666666666,141.62480576336384L179.18333333333334,141.72688289814525L179.31333333333333,150.59144663790036L179.39999999999998,145.19074460657106L179.47222222222223,144.1853102478716L179.89111111111112,126.09173748393852L180.09333333333333,146.39826748892665L180.25222222222223,145.28955596561232L180.39666666666665,147.13247115992837L180.45444444444445,143.63382332192526L180.4688888888889,138.71847349488073L180.87333333333333,141.2978487478362L181.00333333333336,103.43023780484992L181.11888888888888,141.11546447459193L181.33555555555554,150.6168959275302L181.35,143.7844072650704L181.52333333333334,143.89146779312026L181.9711111111111,143.34645439725784L182.1011111111111,143.2813350500332L182.2888888888889,146.31500310119657L182.34666666666666,147.87108537803093L182.4188888888889,139.29896559317905L182.54888888888888,133.74983423865504L182.66444444444446,132.42253309074374L182.76555555555558,133.39294370843302L182.78,134.36425135533014L183.02555555555557,132.59877814766432L183.45888888888888,141.986203543014L183.60333333333335,143.02853582592473L184.13777777777779,148.23695909397472L184.26777777777778,146.5725600798097L184.2822222222222,145.3158184757663L184.3688888888889,143.36109328766662L184.6,127.66558720171452L184.7011111111111,133.2357978216476L185.10555555555555,140.95670872430006L185.12,134.67111823211113L185.25,142.6624604165554L185.32222222222222,145.22834062948823L185.4811111111111,142.5780530994137L185.61111111111111,129.57402697205544L185.81333333333333,144.0848448185457L185.97222222222223,143.91135715941587L186.36222222222221,137.7257605575853L186.40555555555557,137.68831925839186L186.53555555555556,149.91193181690244L186.89666666666668,142.67244746453233L186.95444444444445,143.20859832233853L187.08444444444444,143.94296224291125L187.2866666666667,141.87807007961803L187.37333333333333,136.3723682007856L187.4022222222222,136.73018338945175L187.89333333333335,134.7905354756448L187.98,138.28971563693548L188.0666666666667,135.78626368360386L188.09555555555556,140.546530606846L188.11,147.64088042245973L188.25444444444446,135.4390802250968L188.32666666666668,128.97607319636475L188.5288888888889,139.80236107028193L188.6588888888889,137.20790946400828L188.89000000000001,132.51295621361996L189.25111111111113,145.9385243633555L189.52555555555554,133.7372389907638L189.65555555555557,141.70932543940015L189.91555555555556,141.62738817599086L190.30555555555554,144.77444937618242L190.63777777777779,150.30174626616966L190.66666666666666,142.56607490446834L190.6811111111111,145.86511992911497L191.4177777777778,145.07536031057435L191.53333333333333,150.54260643675096L191.57666666666668,141.08952614747815L191.70666666666665,146.6656779742075L192.25555555555556,145.78137202974824L192.70333333333332,146.09807767760424L192.99222222222224,141.41416967494618L193.19444444444446,146.01863441326552L193.26666666666665,146.7579016023212L193.71444444444444,142.25449079606267L193.83,134.5306254070666L193.85888888888888,148.1731254272163L194.35000000000002,141.6161375509368L194.39333333333335,146.43722379124827L194.59555555555556,149.2943861496945L194.63888888888889,128.88177645454803L194.79777777777778,146.94830019606482L194.88444444444443,134.63461448500553L195.28888888888886,139.13087484488884L195.33222222222224,150.00503589668207L195.34666666666666,140.74090228478113L195.43333333333334,145.6225232610272L195.4622222222222,147.54345513011017L195.70777777777778,142.4198351982567L195.82333333333332,138.46903674883973L195.95333333333335,142.7403877567914L196.17,133.73380007180901L196.4011111111111,149.0100647297998L196.96444444444444,122.69611906839741L197.13777777777779,142.9212616317802L197.16666666666666,132.27644995020498L197.3111111111111,148.98280388323795L197.47,136.77322237193584L197.5711111111111,129.6554374380244L197.67222222222225,133.90320228785276L197.70111111111112,117.71637285914684L197.94666666666666,148.28757585502333L198.2211111111111,149.38299218979148L198.7411111111111,139.1555053881473L198.88555555555556,145.1742527153757L199.1311111111111,142.85999472108153L199.2177777777778,148.4038967821333L199.34777777777776,148.20867043981949L199.7811111111111,145.1585574671626L200.11333333333334,125.35855333175923L200.12777777777777,127.98422413319349L200.38777777777779,145.48638940850893L200.79222222222222,147.2069724748532L200.86444444444444,141.45732101632487L201.0522222222222,146.9487579204142L201.25444444444446,137.502720783982L201.37,136.5076501518488L201.44222222222223,141.86947370320559L201.4711111111111,144.68288240292006L201.48555555555555,140.18587513267994L201.77444444444447,149.19823824904032L201.84666666666666,144.58502885740666L202.04888888888888,143.05538407588998L202.19333333333333,138.55126688215466L202.26555555555555,128.264137768911L202.36666666666667,142.65700640529394L202.64111111111112,145.37849539849492L202.81444444444443,149.94477469018764L203.32,142.18365680178005L203.45,150.69767368398607L204.14333333333335,148.06712401989432L204.21555555555554,149.99220672125617L204.4322222222222,149.02884155884385L204.5911111111111,135.19842589232655L204.64888888888888,151.6755736666835L204.88,135.30678407351175L205.06777777777776,139.9907924623953L205.35666666666668,147.36460279424983L205.48666666666668,144.51419762604766L205.60222222222222,146.31196572714381L205.89111111111112,142.7470500866572L206.12222222222223,143.52050016696253L206.4111111111111,137.12078343000675L206.45444444444445,151.83155221823188L206.68555555555557,146.4055091117819L206.91666666666666,149.7806551841398L207.07555555555555,137.0289364804824L207.94222222222223,145.61144117431508L208.07222222222222,141.24725777407485L208.08666666666667,140.01903875172138L208.52,132.98915531237918L208.79444444444442,143.87349221193128L208.83777777777777,148.25257421740227L209.15555555555554,124.45886066555977L209.79111111111112,147.49024398376542L210.09444444444443,142.4469265855021L210.18111111111114,149.35944379162459L210.21,149.48817116684384L210.51333333333332,148.6529236945013L210.8311111111111,133.85172533657814L211.25,142.5616321232584L211.91444444444443,149.50389220234422L212.14555555555557,145.4029463517169L212.31888888888886,145.81968364988762L213.17111111111112,131.55046229312816L213.40222222222224,149.47830476653246L213.85,150.6317963747101L213.96555555555557,147.49945649214916L214.26888888888888,148.1304843057361L214.63,152.31488748826087L214.70222222222225,141.90016610092587L214.89000000000001,135.47737066282164L215.07777777777778,143.20643219020633L215.16444444444446,147.39321102657252L215.7711111111111,149.11795597689022L215.78555555555556,149.04215885077912L215.85777777777778,148.10457268688413L216.07444444444445,138.33518415027194L216.91222222222223,141.2516139836775L217.15777777777777,150.31616228073835L217.54777777777778,145.71405984212953L217.5622222222222,144.90076564004022L217.67777777777778,150.59826092856625L217.85111111111112,148.4831770339774L217.89444444444445,144.75007302189866L218.02444444444447,146.4532008576724L218.2411111111111,147.53313561032215L218.29888888888888,146.5159450115429L218.32777777777778,144.34075509467058L218.54444444444442,149.70317820045682L218.80444444444444,147.4048687223759L219.06444444444443,133.14623488899733L219.2811111111111,147.14904133396018L219.42555555555558,131.83886731415987L219.4688888888889,148.4435889431172L219.64222222222222,136.86229350417852L219.65666666666667,150.86720667841533L219.71444444444444,148.03257918564807L220.11888888888888,149.9864183962345L220.49444444444444,146.46759753177562L220.97111111111113,150.93571889586747L221.1877777777778,147.13542288334835L221.70777777777778,139.5025157034397L221.78,140.44201288951766L222.47333333333333,140.31417057083712L222.53111111111113,146.12130833955274L222.82,150.1024473744134L223.51333333333335,142.58231536961264L223.5277777777778,148.84233500353164L223.90333333333334,144.6499105931984L223.94666666666666,154.01615679740078L224.55333333333334,143.86074131934177L224.78444444444443,145.129610316207L225.29000000000002,145.69248417144019L225.50666666666666,141.38408512042628L225.6222222222222,148.03827725516427L225.69444444444446,151.96017045796745L225.70888888888888,148.55328437934318L226.18555555555554,149.87792114789286L226.43111111111114,146.45686449441644L226.47444444444446,151.01848687831728L226.51777777777778,142.68900474492045L226.70555555555555,148.13492800792056L227.09555555555556,150.51597369482946L227.35555555555555,143.79038070597582L227.45666666666668,150.44473769515753L227.55777777777777,148.5442809321814L227.87555555555556,151.29199974094L228.17888888888888,149.887071950982L228.36666666666665,125.09561509887376L228.87222222222223,144.86642618311774L229.20444444444445,148.9869758979314L229.24777777777777,146.29988254110017L229.43555555555557,126.91161849598089L229.49333333333334,143.12474543187352L229.58,149.10915330217946L230.20111111111112,148.27525966241956L230.21555555555557,149.33892355776496L230.48999999999998,152.11117943086558L230.53333333333336,143.31157709120046L230.64888888888888,142.92931463321048L230.66333333333333,147.46531872865228L230.67777777777778,145.3977133743465L230.76444444444445,149.16959501968492L231.05333333333334,146.0414718190829L231.0822222222222,149.3572785804669L231.34222222222223,144.84141159347362L232.06444444444443,151.2728199855321L232.26666666666665,144.71925629261466L232.35333333333335,131.2954904900657L232.84444444444443,128.81017620944314L233.43666666666667,136.3512705158856L233.8411111111111,138.2602039285832L234.2311111111111,147.68595107479226L234.30333333333334,147.73894302919507L234.39,133.3781123343441L234.72222222222223,154.04764537761608L235.08333333333334,149.17298881088692L235.2566666666667,140.8539961170819L235.2711111111111,151.6063923612237L235.35777777777778,140.87134175168143L235.48777777777778,141.6673179484076L235.73333333333332,147.24568656086922L235.90666666666667,151.3704704561581L235.9933333333333,142.86883331379957L236.28222222222223,154.21987038064333L236.34,151.18093711800046L236.68666666666667,142.77417094508806L236.71555555555554,145.86323745714293L236.84555555555556,149.95154385310082L237.56777777777776,152.17370347181955L237.91444444444443,123.24707182910706L237.92888888888888,143.74346902552577L238.24666666666667,150.7351182065904L238.7522222222222,148.36022232721248L238.76666666666668,147.13698393520383L239.11333333333332,145.18218230621682L239.14222222222222,149.7653614808288L239.15666666666667,148.36102357506752L239.59,151.61984687836636L239.95111111111112,139.55688451478878L239.99444444444444,148.49407032090755L240.02333333333334,147.18542811729841L240.24,135.35212365041176L240.32666666666668,148.14059384332765L240.61555555555555,127.50661225948069L240.76000000000002,151.7821391709149L240.77444444444444,146.51925315211216L240.89,153.3193359437088L240.9477777777778,148.43038124715287L241.03444444444443,146.9951999038458L241.26555555555555,150.05507336474128L241.88666666666666,152.4177677128464L242.06,138.8880249088009L242.21888888888887,150.5796857929478L242.36333333333334,153.0728407903678L242.37777777777777,148.5838331050343L242.43555555555554,150.9283985296885L242.49333333333334,132.867785602808L242.5511111111111,152.28080636469852L242.79666666666665,153.57831905140645L242.88333333333335,150.72499163096975L242.94111111111113,148.85838482694496L242.97,151.1639515844484L243.3311111111111,147.06515068353877L243.60555555555555,149.01491089786091L243.70666666666668,137.1703355444802L243.72111111111113,146.10373982911307L243.95222222222222,148.5692559199201L243.99555555555554,154.76660507793227L244.45777777777778,146.1834851731029L244.47222222222223,145.73694605959784L244.48666666666668,149.7387462374237L244.83333333333334,150.69832343152828L245.03555555555556,148.0851511756579L245.54111111111112,151.99859121359057" style="fill: none;" fill="none"></path></g></g></g></g></g></g><g transform="translate(70, 178)" clip-path="url(#clip_1)"><clipPath id="clip_1"><rect width="260" height="21"></rect></clipPath><g><g><line x1="0" y1="0" x2="0" y2="5" style="visibility: inherit;" fill="rgb(0, 0, 0)" stroke="rgb(204, 204, 204)" stroke-width="1px"></line><line x1="28.888888888888886" y1="0" x2="28.888888888888886" y2="5" style="visibility: inherit;" fill="rgb(0, 0, 0)" stroke="rgb(204, 204, 204)" stroke-width="1px"></line><line x1="57.77777777777777" y1="0" x2="57.77777777777777" y2="5" style="visibility: inherit;" fill="rgb(0, 0, 0)" stroke="rgb(204, 204, 204)" stroke-width="1px"></line><line x1="86.66666666666666" y1="0" x2="86.66666666666666" y2="5" style="visibility: inherit;" fill="rgb(0, 0, 0)" stroke="rgb(204, 204, 204)" stroke-width="1px"></line><line x1="115.55555555555554" y1="0" x2="115.55555555555554" y2="5" style="visibility: inherit;" fill="rgb(0, 0, 0)" stroke="rgb(204, 204, 204)" stroke-width="1px"></line><line x1="144.44444444444446" y1="0" x2="144.44444444444446" y2="5" style="visibility: inherit;" fill="rgb(0, 0, 0)" stroke="rgb(204, 204, 204)" stroke-width="1px"></line><line x1="173.33333333333331" y1="0" x2="173.33333333333331" y2="5" style="visibility: inherit;" fill="rgb(0, 0, 0)" stroke="rgb(204, 204, 204)" stroke-width="1px"></line><line x1="202.22222222222223" y1="0" x2="202.22222222222223" y2="5" style="visibility: inherit;" fill="rgb(0, 0, 0)" stroke="rgb(204, 204, 204)" stroke-width="1px"></line><line x1="231.1111111111111" y1="0" x2="231.1111111111111" y2="5" style="visibility: inherit;" fill="rgb(0, 0, 0)" stroke="rgb(204, 204, 204)" stroke-width="1px"></line><line x1="260" y1="0" x2="260" y2="5" style="visibility: inherit;" fill="rgb(0, 0, 0)" stroke="rgb(204, 204, 204)" stroke-width="1px"></line></g><g transform="translate(0, 8)"><text x="0" y="0" dx="0em" dy="0.95em" style="text-anchor: middle; visibility: hidden; font-family: Roboto, sans-serif; font-size: 12px; font-weight: 200;" fill="rgb(50, 49, 63)" stroke="none" stroke-width="1px">-2k</text><text x="28.888888888888886" y="0" dx="0em" dy="0.95em" style="text-anchor: middle; visibility: inherit; font-family: Roboto, sans-serif; font-size: 12px; font-weight: 200;" fill="rgb(50, 49, 63)" stroke="none" stroke-width="1px">0</text><text x="57.77777777777777" y="0" dx="0em" dy="0.95em" style="text-anchor: middle; visibility: inherit; font-family: Roboto, sans-serif; font-size: 12px; font-weight: 200;" fill="rgb(50, 49, 63)" stroke="none" stroke-width="1px">2k</text><text x="86.66666666666666" y="0" dx="0em" dy="0.95em" style="text-anchor: middle; visibility: inherit; font-family: Roboto, sans-serif; font-size: 12px; font-weight: 200;" fill="rgb(50, 49, 63)" stroke="none" stroke-width="1px">4k</text><text x="115.55555555555554" y="0" dx="0em" dy="0.95em" style="text-anchor: middle; visibility: inherit; font-family: Roboto, sans-serif; font-size: 12px; font-weight: 200;" fill="rgb(50, 49, 63)" stroke="none" stroke-width="1px">6k</text><text x="144.44444444444446" y="0" dx="0em" dy="0.95em" style="text-anchor: middle; visibility: inherit; font-family: Roboto, sans-serif; font-size: 12px; font-weight: 200;" fill="rgb(50, 49, 63)" stroke="none" stroke-width="1px">8k</text><text x="173.33333333333331" y="0" dx="0em" dy="0.95em" style="text-anchor: middle; visibility: inherit; font-family: Roboto, sans-serif; font-size: 12px; font-weight: 200;" fill="rgb(50, 49, 63)" stroke="none" stroke-width="1px">10k</text><text x="202.22222222222223" y="0" dx="0em" dy="0.95em" style="text-anchor: middle; visibility: inherit; font-family: Roboto, sans-serif; font-size: 12px; font-weight: 200;" fill="rgb(50, 49, 63)" stroke="none" stroke-width="1px">12k</text><text x="231.1111111111111" y="0" dx="0em" dy="0.95em" style="text-anchor: middle; visibility: inherit; font-family: Roboto, sans-serif; font-size: 12px; font-weight: 200;" fill="rgb(50, 49, 63)" stroke="none" stroke-width="1px">14k</text><text x="260" y="0" dx="0em" dy="0.95em" style="text-anchor: middle; visibility: hidden; font-family: Roboto, sans-serif; font-size: 12px; font-weight: 200;" fill="rgb(50, 49, 63)" stroke="none" stroke-width="1px">16k</text></g><line x1="0" y1="0" x2="260" y2="0" fill="rgb(0, 0, 0)" stroke="rgb(204, 204, 204)" stroke-width="1px"></line></g></g></g></g></svg>