<svg viewBox="0 0 330.0000305175781 200.00001525878906" xmlns="http://www.w3.org/2000/svg"><g><g><g><g><g><line x1="58" y1="178" x2="53" y2="178" style="visibility: inherit;" fill="rgb(0, 0, 0)" stroke="rgb(204, 204, 204)" stroke-width="1px"></line><line x1="58" y1="163.16666666666669" x2="53" y2="163.16666666666669" style="visibility: inherit;" fill="rgb(0, 0, 0)" stroke="rgb(204, 204, 204)" stroke-width="1px"></line><line x1="58" y1="148.33333333333334" x2="53" y2="148.33333333333334" style="visibility: inherit;" fill="rgb(0, 0, 0)" stroke="rgb(204, 204, 204)" stroke-width="1px"></line><line x1="58" y1="133.5" x2="53" y2="133.5" style="visibility: inherit;" fill="rgb(0, 0, 0)" stroke="rgb(204, 204, 204)" stroke-width="1px"></line><line x1="58" y1="118.66666666666669" x2="53" y2="118.66666666666669" style="visibility: inherit;" fill="rgb(0, 0, 0)" stroke="rgb(204, 204, 204)" stroke-width="1px"></line><line x1="58" y1="103.83333333333331" x2="53" y2="103.83333333333331" style="visibility: inherit;" fill="rgb(0, 0, 0)" stroke="rgb(204, 204, 204)" stroke-width="1px"></line><line x1="58" y1="89" x2="53" y2="89" style="visibility: inherit;" fill="rgb(0, 0, 0)" stroke="rgb(204, 204, 204)" stroke-width="1px"></line><line x1="58" y1="74.16666666666666" x2="53" y2="74.16666666666666" style="visibility: inherit;" fill="rgb(0, 0, 0)" stroke="rgb(204, 204, 204)" stroke-width="1px"></line><line x1="58" y1="59.33333333333332" x2="53" y2="59.33333333333332" style="visibility: inherit;" fill="rgb(0, 0, 0)" stroke="rgb(204, 204, 204)" stroke-width="1px"></line><line x1="58" y1="44.5" x2="53" y2="44.5" style="visibility: inherit;" fill="rgb(0, 0, 0)" stroke="rgb(204, 204, 204)" stroke-width="1px"></line><line x1="58" y1="29.66666666666666" x2="53" y2="29.66666666666666" style="visibility: inherit;" fill="rgb(0, 0, 0)" stroke="rgb(204, 204, 204)" stroke-width="1px"></line><line x1="58" y1="14.83333333333332" x2="53" y2="14.83333333333332" style="visibility: inherit;" fill="rgb(0, 0, 0)" stroke="rgb(204, 204, 204)" stroke-width="1px"></line><line x1="58" y1="0" x2="53" y2="0" style="visibility: inherit;" fill="rgb(0, 0, 0)" stroke="rgb(204, 204, 204)" stroke-width="1px"></line></g><g transform="translate(48, 0)"><text x="0" y="178" dx="0em" dy="0.3em" style="text-anchor: end; visibility: hidden; font-family: Roboto, sans-serif; font-size: 12px; font-weight: 200;" fill="rgb(50, 49, 63)" stroke="none" stroke-width="1px">-1.2</text><text x="0" y="163.16666666666669" dx="0em" dy="0.3em" style="text-anchor: end; visibility: inherit; font-family: Roboto, sans-serif; font-size: 12px; font-weight: 200;" fill="rgb(50, 49, 63)" stroke="none" stroke-width="1px">-1</text><text x="0" y="148.33333333333334" dx="0em" dy="0.3em" style="text-anchor: end; visibility: hidden; font-family: Roboto, sans-serif; font-size: 12px; font-weight: 200;" fill="rgb(50, 49, 63)" stroke="none" stroke-width="1px">-0.8</text><text x="0" y="133.5" dx="0em" dy="0.3em" style="text-anchor: end; visibility: inherit; font-family: Roboto, sans-serif; font-size: 12px; font-weight: 200;" fill="rgb(50, 49, 63)" stroke="none" stroke-width="1px">-0.6</text><text x="0" y="118.66666666666669" dx="0em" dy="0.3em" style="text-anchor: end; visibility: hidden; font-family: Roboto, sans-serif; font-size: 12px; font-weight: 200;" fill="rgb(50, 49, 63)" stroke="none" stroke-width="1px">-0.4</text><text x="0" y="103.83333333333331" dx="0em" dy="0.3em" style="text-anchor: end; visibility: inherit; font-family: Roboto, sans-serif; font-size: 12px; font-weight: 200;" fill="rgb(50, 49, 63)" stroke="none" stroke-width="1px">-0.2</text><text x="0" y="89" dx="0em" dy="0.3em" style="text-anchor: end; visibility: hidden; font-family: Roboto, sans-serif; font-size: 12px; font-weight: 200;" fill="rgb(50, 49, 63)" stroke="none" stroke-width="1px">0</text><text x="0" y="74.16666666666666" dx="0em" dy="0.3em" style="text-anchor: end; visibility: inherit; font-family: Roboto, sans-serif; font-size: 12px; font-weight: 200;" fill="rgb(50, 49, 63)" stroke="none" stroke-width="1px">0.2</text><text x="0" y="59.33333333333332" dx="0em" dy="0.3em" style="text-anchor: end; visibility: hidden; font-family: Roboto, sans-serif; font-size: 12px; font-weight: 200;" fill="rgb(50, 49, 63)" stroke="none" stroke-width="1px">0.4</text><text x="0" y="44.5" dx="0em" dy="0.3em" style="text-anchor: end; visibility: inherit; font-family: Roboto, sans-serif; font-size: 12px; font-weight: 200;" fill="rgb(50, 49, 63)" stroke="none" stroke-width="1px">0.6</text><text x="0" y="29.66666666666666" dx="0em" dy="0.3em" style="text-anchor: end; visibility: hidden; font-family: Roboto, sans-serif; font-size: 12px; font-weight: 200;" fill="rgb(50, 49, 63)" stroke="none" stroke-width="1px">0.8</text><text x="0" y="14.83333333333332" dx="0em" dy="0.3em" style="text-anchor: end; visibility: inherit; font-family: Roboto, sans-serif; font-size: 12px; font-weight: 200;" fill="rgb(50, 49, 63)" stroke="none" stroke-width="1px">1</text><text x="0" y="0" dx="0em" dy="0.3em" style="text-anchor: end; visibility: hidden; font-family: Roboto, sans-serif; font-size: 12px; font-weight: 200;" fill="rgb(50, 49, 63)" stroke="none" stroke-width="1px">1.2</text></g><line x1="58" y1="0" x2="58" y2="178" fill="rgb(0, 0, 0)" stroke="rgb(204, 204, 204)" stroke-width="1px"></line></g></g><g transform="translate(58, 0)" clip-path="url(#clip_0)"><clipPath id="clip_0"><rect width="271" height="177"></rect></clipPath><g><g><g><line x1="0" y1="0" x2="0" y2="178" fill="rgb(0, 0, 0)" stroke="rgb(60, 60, 60)" stroke-width="1px" opacity="0.25"></line><line x1="30.22222222222222" y1="0" x2="30.22222222222222" y2="178" fill="rgb(0, 0, 0)" stroke="rgb(60, 60, 60)" stroke-width="1px" opacity="0.25"></line><line x1="60.44444444444444" y1="0" x2="60.44444444444444" y2="178" fill="rgb(0, 0, 0)" stroke="rgb(60, 60, 60)" stroke-width="1px" opacity="0.25"></line><line x1="90.66666666666666" y1="0" x2="90.66666666666666" y2="178" fill="rgb(0, 0, 0)" stroke="rgb(60, 60, 60)" stroke-width="1px" opacity="0.25"></line><line x1="120.88888888888889" y1="0" x2="120.88888888888889" y2="178" fill="rgb(0, 0, 0)" stroke="rgb(60, 60, 60)" stroke-width="1px" opacity="0.25"></line><line x1="151.11111111111111" y1="0" x2="151.11111111111111" y2="178" fill="rgb(0, 0, 0)" stroke="rgb(60, 60, 60)" stroke-width="1px" opacity="0.25"></line><line x1="181.33333333333331" y1="0" x2="181.33333333333331" y2="178" fill="rgb(0, 0, 0)" stroke="rgb(60, 60, 60)" stroke-width="1px" opacity="0.25"></line><line x1="211.55555555555557" y1="0" x2="211.55555555555557" y2="178" fill="rgb(0, 0, 0)" stroke="rgb(60, 60, 60)" stroke-width="1px" opacity="0.25"></line><line x1="241.77777777777777" y1="0" x2="241.77777777777777" y2="178" fill="rgb(0, 0, 0)" stroke="rgb(60, 60, 60)" stroke-width="1px" opacity="0.25"></line><line x1="272" y1="0" x2="272" y2="178" fill="rgb(0, 0, 0)" stroke="rgb(60, 60, 60)" stroke-width="1px" opacity="0.25"></line></g><g><line x1="0" y1="178" x2="272" y2="178" fill="rgb(0, 0, 0)" stroke="rgb(60, 60, 60)" stroke-width="1px" opacity="0.25"></line><line x1="0" y1="163.16666666666669" x2="272" y2="163.16666666666669" fill="rgb(0, 0, 0)" stroke="rgb(60, 60, 60)" stroke-width="1px" opacity="0.25"></line><line x1="0" y1="148.33333333333334" x2="272" y2="148.33333333333334" fill="rgb(0, 0, 0)" stroke="rgb(60, 60, 60)" stroke-width="1px" opacity="0.25"></line><line x1="0" y1="133.5" x2="272" y2="133.5" fill="rgb(0, 0, 0)" stroke="rgb(60, 60, 60)" stroke-width="1px" opacity="0.25"></line><line x1="0" y1="118.66666666666669" x2="272" y2="118.66666666666669" fill="rgb(0, 0, 0)" stroke="rgb(60, 60, 60)" stroke-width="1px" opacity="0.25"></line><line x1="0" y1="103.83333333333331" x2="272" y2="103.83333333333331" fill="rgb(0, 0, 0)" stroke="rgb(60, 60, 60)" stroke-width="1px" opacity="0.25"></line><line x1="0" y1="89" x2="272" y2="89" fill="rgb(0, 0, 0)" stroke="rgb(60, 60, 60)" stroke-width="1px" opacity="0.25"></line><line x1="0" y1="74.16666666666666" x2="272" y2="74.16666666666666" fill="rgb(0, 0, 0)" stroke="rgb(60, 60, 60)" stroke-width="1px" opacity="0.25"></line><line x1="0" y1="59.33333333333332" x2="272" y2="59.33333333333332" fill="rgb(0, 0, 0)" stroke="rgb(60, 60, 60)" stroke-width="1px" opacity="0.25"></line><line x1="0" y1="44.5" x2="272" y2="44.5" fill="rgb(0, 0, 0)" stroke="rgb(60, 60, 60)" stroke-width="1px" opacity="0.25"></line><line x1="0" y1="29.66666666666666" x2="272" y2="29.66666666666666" fill="rgb(0, 0, 0)" stroke="rgb(60, 60, 60)" stroke-width="1px" opacity="0.25"></line><line x1="0" y1="14.83333333333332" x2="272" y2="14.83333333333332" fill="rgb(0, 0, 0)" stroke="rgb(60, 60, 60)" stroke-width="1px" opacity="0.25"></line><line x1="0" y1="0" x2="272" y2="0" fill="rgb(0, 0, 0)" stroke="rgb(60, 60, 60)" stroke-width="1px" opacity="0.25"></line></g></g></g><g><g><line x1="0" y1="89" x2="272" y2="89" fill="rgb(0, 0, 0)" stroke="rgb(153, 153, 153)" stroke-width="1.5px"></line></g></g><g><g><line x1="30.22222222222222" y1="0" x2="30.22222222222222" y2="178" fill="rgb(0, 0, 0)" stroke="rgb(153, 153, 153)" stroke-width="1.5px"></line></g></g><g><g><g><g><g><path stroke="rgb(255, 112, 67)" stroke-width="2px" d="M30.49422222222222,89L30.85688888888889,89L30.90222222222222,89L31.068444444444445,89L31.295111111111108,89L31.340444444444444,89L31.642666666666667,89L32.56444444444444,89L32.60977777777778,89L32.74577777777778,89L33.68266666666667,89L33.75822222222222,89L34.07555555555555,89L34.15111111111111,89L34.25688888888889,89L34.34755555555555,89L34.87644444444444,89L34.906666666666666,89L35.02755555555555,89L35.465777777777774,89L35.768,89L36.584,89L36.599111111111114,89L36.90133333333333,89L37.17333333333333,89L37.38488888888889,89L38.32177777777778,89L38.729777777777784,89L38.971555555555554,89L39.077333333333335,89L39.092444444444446,89L39.59111111111111,89L39.80266666666667,89L39.92355555555556,89L39.99911111111111,89L40.029333333333334,89L40.21066666666667,89L40.361777777777775,89L41.01155555555556,89L41.132444444444445,89L41.25333333333334,89L41.64622222222222,89L41.782222222222224,89L41.842666666666666,89L41.87288888888889,89L42.08444444444445,89L42.114666666666665,89L42.220444444444446,89L42.34133333333334,89L42.432,89L42.855111111111114,89L43.958222222222226,89L44.45688888888889,89L44.50222222222222,89L44.75911111111111,89L44.89511111111111,89L44.91022222222222,89L45.00088888888889,89L45.016000000000005,89L45.09155555555555,89L45.36355555555556,89L45.40888888888889,89L45.54488888888889,89L46.285333333333334,89L46.330666666666666,89L46.42133333333333,89L46.512,89L46.587555555555554,89L46.73866666666667,89L46.82933333333333,89L46.90488888888889,89L47.69066666666667,89L47.76622222222222,89L47.781333333333336,89L48.053333333333335,89L48.24977777777778,89L48.44622222222222,89L49.02044444444444,89L49.27733333333333,89L49.57955555555556,89L49.775999999999996,89L50.108444444444444,89L50.153777777777776,89L50.36533333333333,89L50.425777777777775,89L51.15111111111111,89L51.25688888888889,89L51.589333333333336,89L51.77066666666666,89L51.92177777777778,89L52.37511111111111,89L52.54133333333333,89L52.662222222222226,89L52.75288888888889,89L53.236444444444444,89L53.29688888888889,89L53.67466666666667,89L53.916444444444444,89L53.931555555555555,89L54.15822222222222,89L54.218666666666664,89L54.47555555555556,89L55.004444444444445,89L55.12533333333333,89L55.42755555555556,89L55.639111111111106,89L55.77511111111111,89L55.86577777777778,89L55.94133333333333,89L56.04711111111111,89L56.18311111111111,89L56.394666666666666,89L56.42488888888889,89L56.47022222222222,89L56.60622222222222,89L57.13511111111111,89L57.49777777777778,89L57.81511111111111,89L58.08711111111111,89L58.22311111111111,89L58.41955555555556,89L58.464888888888886,89L58.58577777777778,89L59.190222222222225,89L59.44711111111111,89L59.598222222222226,89L59.64355555555555,89L59.94577777777778,89L60.187555555555555,89L60.45955555555555,89L60.64088888888889,89L60.897777777777776,89L60.98844444444444,89L61.351111111111116,89L61.547555555555554,89L61.59288888888889,89L61.608000000000004,89L61.72888888888889,89L61.78933333333333,89L61.89511111111111,89L62.635555555555555,89L62.696000000000005,89L62.80177777777778,89L62.93777777777778,89L63.270222222222216,89L63.330666666666666,89L63.45155555555556,89L63.57244444444444,89L63.63288888888889,89L63.935111111111105,89L64.01066666666667,89L64.02577777777778,89L64.10133333333333,89L64.28266666666667,89L64.328,89L64.40355555555556,89L64.69066666666667,89L64.93244444444444,89L65.08355555555556,89L65.26488888888889,89L65.65777777777777,89L65.79377777777778,89L66.32266666666666,89L66.33777777777777,89L66.368,89L67.03288888888889,89L67.15377777777778,89L67.28977777777777,89L67.32,89L67.39555555555556,89L67.77333333333334,89L67.78844444444445,89L67.93955555555556,89L67.96977777777778,89L68.04533333333333,89L68.2568888888889,89L68.34755555555556,89L68.48355555555555,89L68.71022222222223,89L68.80088888888889,89L69.5111111111111,89L69.60177777777778,89L69.85866666666668,89L69.94933333333333,89L70.68977777777778,89L70.79555555555555,89L70.8711111111111,89L71.06755555555556,89L71.62666666666667,89L71.83822222222223,89L72.36711111111111,89L73.62133333333334,89L73.75733333333334,89L73.89333333333333,89L73.98400000000001,89L74.34666666666666,89L75.05688888888889,89L75.17777777777778,89L75.72177777777779,89L75.96355555555556,89L76.00888888888889,89L76.12977777777779,89L76.17511111111111,89L76.53777777777779,89L76.59822222222222,89L77.05155555555557,89L77.62577777777778,89L77.89777777777779,89L77.98844444444444,89L78.23022222222222,89L78.50222222222222,89L78.51733333333334,89L79.03111111111112,89L79.18222222222222,89L79.22755555555557,89L79.24266666666666,89L79.27288888888889,89L79.288,89L79.66577777777778,89L80.16444444444444,89L80.7688888888889,89L81.23733333333334,89L81.64533333333334,89L81.7208888888889,89L82.05333333333334,89L82.34044444444444,89L82.56711111111112,89L82.80888888888889,89L83.24711111111112,89L83.29244444444444,89L83.67022222222222,89L84.0631111111111,89L84.32,89L84.62222222222222,89L84.89422222222223,89L84.92444444444445,89L84.95466666666667,89L85.04533333333333,89L85.46844444444444,89L85.68,89L86.52622222222223,89L86.58666666666667,89L86.75288888888888,89L87.22133333333333,89L87.34222222222223,89L87.53866666666667,89L87.61422222222222,89L87.85600000000001,89L87.93155555555555,89L87.96177777777778,89L88.11288888888889,89L88.17333333333333,89L88.61155555555555,89L88.79288888888888,89L89.57866666666666,89L89.74488888888888,89L90.00177777777778,89L90.42488888888889,89L90.81777777777778,89L90.9991111111111,89L91.16533333333334,89L91.21066666666667,89L92.072,89L92.14755555555556,89L92.16266666666667,89L92.31377777777779,89L93.41688888888889,89L93.58311111111111,89L93.59822222222222,89L93.62844444444444,89L93.704,89L93.71911111111112,89L94.09688888888888,89L94.17244444444444,89L94.21777777777778,89L94.33866666666667,89L94.6408888888889,89L94.68622222222221,89L94.70133333333334,89L94.928,89L95.26044444444445,89L95.45688888888888,89L95.48711111111112,89L95.68355555555556,89L96.24266666666666,89L96.60533333333333,89L96.71111111111111,89L96.80177777777777,89L97.16444444444444,89L97.20977777777777,89L98.10133333333334,89L98.35822222222222,89L98.37333333333333,89L98.67555555555555,89L98.7208888888889,89L98.85688888888889,89L99.40088888888889,89L99.44622222222222,89L99.688,89L100.15644444444445,89L100.57955555555554,89L100.70044444444444,89L100.7608888888889,89L100.88177777777777,89L101.048,89L101.44088888888889,89L101.51644444444445,89L101.75822222222223,89L102,89L102.1208888888889,89L102.2568888888889,89L102.39288888888889,89L102.55911111111111,89L102.57422222222222,89L102.75555555555556,89L102.78577777777778,89L103.36,89L103.54133333333333,89L103.82844444444444,89L104.176,89L104.47822222222223,89L105.20355555555555,89L105.33955555555555,89L105.38488888888888,89L105.4151111111111,89L106.18577777777779,89L106.2311111111111,89L106.53333333333333,89L106.56355555555555,89L106.57866666666666,89L106.68444444444445,89L106.95644444444444,89L107.37955555555556,89L107.68177777777778,89L107.80266666666667,89L108.27111111111111,89L108.528,89L108.80000000000001,89L108.92088888888888,89L109.38933333333334,89L109.79733333333334,89L110.14488888888889,89L110.58311111111111,89L110.74933333333334,89L110.99111111111111,89L111.20266666666666,89L111.52,89L112.12444444444444,89L112.45688888888888,89L112.53244444444444,89L113.09155555555556,89L113.25777777777778,89L113.34844444444444,89L113.56,89L113.59022222222222,89L114.07377777777778,89L114.43644444444445,89L114.61777777777777,89L114.648,89L114.73866666666667,89L114.92,89L115.29777777777777,89L115.7208888888889,89L115.75111111111111,89L115.81155555555554,89L116.03822222222222,89L116.65777777777777,89L116.70311111111111,89L117.504,89L117.54933333333332,89L117.70044444444444,89L117.97244444444445,89L117.98755555555555,89L118.24444444444444,89L118.28977777777777,89L118.80355555555555,89L118.83377777777778,89L118.93955555555556,89L119.34755555555556,89L119.48355555555555,89L119.80088888888889,89L120.16355555555555,89L120.2391111111111,89L120.32977777777778,89L120.73777777777778,89L121.04,89L121.11555555555556,89L121.34222222222223,89L121.41777777777777,89L122.06755555555556,89L122.128,89L122.44533333333334,89L122.47555555555556,89L122.71733333333333,89L122.74755555555555,89L122.83822222222223,89L122.86844444444445,89L123.14044444444446,89L123.488,89L123.62400000000001,89L123.91111111111111,89L124.07733333333333,89L124.10755555555556,89L124.19822222222223,89L124.39466666666667,89L124.66666666666666,89L125.256,89L125.60355555555556,89L125.664,89L125.67911111111111,89L125.78488888888889,89L126.04177777777778,89L126.20800000000001,89L126.37422222222222,89L126.48,89L126.57066666666667,89L126.93333333333334,89L127.82488888888889,89L128.36888888888888,89L128.384,89L128.44444444444443,89L128.74666666666667,89L128.76177777777778,89L128.7768888888889,89L128.89777777777778,89L129.56266666666667,89L129.66844444444445,89L129.71377777777778,89L130.00088888888888,89L130.81688888888888,89L130.95288888888888,89L130.98311111111113,89L131.04355555555557,89L131.1342222222222,89L131.17955555555557,89L131.28533333333334,89L131.40622222222223,89L131.45155555555556,89L131.63288888888889,89L132.0408888888889,89L132.10133333333334,89L132.26755555555556,89L132.43377777777778,89L133.46133333333333,89L133.6728888888889,89L133.79377777777776,89L134.00533333333334,89L134.02044444444445,89L134.41333333333333,89L134.6248888888889,89L135.00266666666667,89L135.4408888888889,89L135.4862222222222,89L135.87911111111111,89L136.1511111111111,89L136.21155555555555,89L136.58933333333334,89L136.98222222222222,89L137.37511111111112,89L137.60177777777778,89L137.72266666666667,89L137.73777777777778,89L138.0702222222222,89L138.13066666666668,89L138.34222222222223,89L138.9466666666667,89L139.08266666666665,89L139.264,89L139.5511111111111,89L139.59644444444444,89L139.73244444444444,89L140.53333333333336,89L140.69955555555555,89L140.97155555555554,89L141.12266666666667,89L141.13777777777776,89L141.40977777777778,89L141.4248888888889,89L141.77244444444446,89L141.8328888888889,89L142.05955555555553,89L142.51288888888888,89L142.6488888888889,89L142.69422222222224,89L142.8,89L142.95111111111112,89L142.99644444444445,89L143.072,89L143.2231111111111,89L143.58577777777776,89L143.7217777777778,89L144.0088888888889,89L144.26577777777777,89L145.2026666666667,89L145.73155555555556,89L145.98844444444444,89L146.13955555555555,89L146.21511111111113,89L146.38133333333334,89L146.47199999999998,89L146.57777777777778,89L146.84977777777777,89L146.92533333333333,89L147.00088888888888,89L147.27288888888887,89L147.4391111111111,89L147.48444444444445,89L147.78666666666666,89L147.90755555555558,89L148.05866666666668,89L148.24,89L148.58755555555555,89L148.6631111111111,89L149.58488888888888,89L149.60000000000002,89L150.08355555555556,89L150.73333333333335,89L150.85422222222223,89L150.9751111111111,89L150.99022222222223,89L151.50400000000002,89L151.6702222222222,89L151.85155555555556,89L152.10844444444444,89L153.0151111111111,89L153.37777777777777,89L153.8311111111111,89L153.89155555555556,89L154.10311111111113,89L154.36,89L154.45066666666665,89L155.08533333333335,89L155.3271111111111,89L155.49333333333334,89L155.62933333333334,89L155.75022222222222,89L156.05244444444446,89L156.08266666666665,89L156.128,89L156.15822222222224,89L156.24888888888887,89L156.5511111111111,89L156.59644444444444,89L156.672,89L156.808,89L157.86577777777777,89L158.168,89L158.18311111111112,89L158.21333333333334,89L158.4248888888889,89L158.48533333333333,89L158.62133333333335,89L158.63644444444444,89L158.71200000000002,89L158.78755555555554,89L159.0142222222222,89L159.4826666666667,89L159.664,89L159.76977777777776,89L159.84533333333334,89L160.0568888888889,89L160.1928888888889,89L160.58577777777776,89L160.69155555555554,89L160.70666666666665,89L160.84266666666667,89L161.41688888888888,89L161.5377777777778,89L161.5528888888889,89L161.61333333333332,89L162.0968888888889,89L162.8071111111111,89L162.86755555555555,89L163.13955555555555,89L163.21511111111113,89L163.48711111111112,89L163.53244444444445,89L163.84977777777777,89L164.016,89L164.37866666666665,89L164.48444444444445,89L164.74133333333333,89L164.77155555555555,89L164.81688888888888,89L165.13422222222223,89L165.16444444444446,89L165.24,89L165.40622222222223,89L165.58755555555555,89L165.84444444444446,89L166.11644444444445,89L166.20711111111112,89L166.35822222222222,89L166.63022222222222,89L166.64533333333333,89L167.0533333333333,89L167.17422222222223,89L167.32533333333333,89L167.49155555555555,89L167.80888888888887,89L168.08088888888886,89L168.56444444444443,89L168.6702222222222,89L169.456,89L169.4862222222222,89L169.63733333333334,89L169.74311111111112,89L170.1511111111111,89L170.46844444444443,89L170.61955555555556,89L170.86133333333333,89L170.89155555555556,89L170.99733333333336,89L171.4808888888889,89L171.55644444444442,89L171.72266666666667,89L171.79822222222222,89L172.448,89L172.49333333333334,89L172.79555555555558,89L172.88622222222222,89L172.90133333333335,89L173.2942222222222,89L173.39999999999998,89L174.352,89L174.488,89L174.59377777777777,89L174.63911111111113,89L174.7448888888889,89L174.79022222222224,89L175.12266666666667,89L175.2888888888889,89L175.45511111111114,89L175.63644444444444,89L175.65155555555555,89L175.69688888888888,89L176.05955555555553,89L176.15022222222223,89L176.49777777777777,89L176.6488888888889,89L176.76977777777776,89L177.69155555555554,89L177.82755555555556,89L177.96355555555556,89L178.49244444444446,89L178.91555555555556,89L178.9608888888889,89L179.56533333333334,89L179.928,89L180.0791111111111,89L180.91022222222222,89L181.10666666666668,89L181.54488888888886,89L182.08888888888887,89L182.16444444444446,89L182.17955555555557,89L182.20977777777776,89L182.42133333333334,89L182.60266666666666,89L182.95022222222224,89L183.0408888888889,89L183.26755555555556,89L183.35822222222222,89L183.50933333333333,89L183.872,89L184.1288888888889,89L184.46133333333333,89L184.9297777777778,89L185.03555555555556,89L185.20177777777778,89L185.44355555555558,89L185.50400000000002,89L185.6097777777778,89L185.68533333333332,89L186.32000000000002,89L186.864,89L187.28711111111113,89L187.31733333333332,89L187.33244444444443,89L187.36266666666666,89L187.45333333333335,89L187.58933333333334,89L187.67999999999998,89L187.75555555555556,89L188.19377777777777,89L188.40533333333332,89L188.57155555555556,89L188.72266666666667,89L188.7831111111111,89L188.79822222222222,89L189.22133333333332,89L189.35733333333334,89L189.4782222222222,89L189.7048888888889,89L189.72,89L189.90133333333335,89L190.36977777777778,89L190.50577777777775,89L190.70222222222222,89L190.7626666666667,89L190.8382222222222,89L190.97422222222224,89L191.09511111111112,89L191.2008888888889,89L191.21599999999998,89L191.4728888888889,89L191.9262222222222,89L192.07733333333334,89L192.63644444444444,89L192.77244444444446,89L192.78755555555554,89L192.87822222222223,89L193.12,89L193.22577777777778,89L193.6488888888889,89L193.664,89L193.8,89L193.87555555555554,89L194.04177777777778,89L194.17777777777778,89L194.38933333333333,89L194.55555555555557,89L194.96355555555556,89L195.0088888888889,89L195.1448888888889,89L195.52266666666665,89L195.58311111111112,89L195.7191111111111,89L195.93066666666667,89L196.02133333333333,89L196.05155555555555,89L196.56533333333334,89L196.656,89L196.74666666666667,89L196.7768888888889,89L196.792,89L196.9431111111111,89L197.0186666666667,89L197.23022222222224,89L197.3662222222222,89L197.608,89L197.9857777777778,89L198.27288888888887,89L198.4088888888889,89L198.6808888888889,89L199.08888888888887,89L199.43644444444445,89L199.46666666666664,89L199.48177777777778,89L200.25244444444445,89L200.37333333333333,89L200.41866666666667,89L200.55466666666666,89L201.1288888888889,89L201.59733333333332,89L201.89955555555557,89L202.11111111111111,89L202.18666666666667,89L202.65511111111113,89L202.776,89L202.80622222222223,89L203.32000000000002,89L203.36533333333335,89L203.5768888888889,89L203.62222222222223,89L203.78844444444445,89L203.87911111111111,89L204.3022222222222,89L204.34755555555557,89L204.36266666666666,89L204.45333333333335,89L204.48355555555554,89L204.74044444444442,89L204.86133333333333,89L204.99733333333336,89L205.224,89L205.4657777777778,89L206.0551111111111,89L206.23644444444446,89L206.26666666666665,89L206.41777777777776,89L206.58399999999997,89L206.68977777777775,89L206.79555555555558,89L206.82577777777777,89L207.08266666666665,89L207.36977777777778,89L207.91377777777777,89L208.06488888888887,89L208.32177777777775,89L208.41244444444445,89L208.54844444444444,89L209.0017777777778,89L209.34933333333333,89L209.36444444444444,89L209.63644444444444,89L210.05955555555553,89L210.13511111111112,89L210.33155555555555,89L210.54311111111113,89L210.664,89L210.73955555555557,89L210.76977777777776,89L210.78488888888887,89L211.0871111111111,89L211.16266666666667,89L211.37422222222222,89L211.52533333333332,89L211.60088888888887,89L211.70666666666665,89L211.99377777777778,89L212.1751111111111,89L212.704,89L212.84,89L213.56533333333334,89L213.64088888888887,89L213.86755555555555,89L214.03377777777777,89L214.09422222222221,89L214.336,89L214.53244444444445,89L214.8346666666667,89L214.97066666666666,89L215.09155555555557,89L215.39377777777776,89L215.63555555555556,89L215.93777777777777,89L215.9831111111111,89L216.2248888888889,89L216.46666666666664,89L216.63288888888889,89L217.53955555555555,89L217.67555555555555,89L217.69066666666666,89L218.144,89L218.4311111111111,89L218.47644444444444,89L218.80888888888887,89L219.47377777777777,89L219.7911111111111,89L219.88177777777778,89L219.912,89L220.22933333333333,89L220.56177777777776,89L221,89L221.69511111111112,89L221.9368888888889,89L222.11822222222222,89L223.00977777777777,89L223.25155555555557,89L223.72,89L223.8408888888889,89L224.15822222222224,89L224.536,89L224.61155555555558,89L224.808,89L225.00444444444443,89L225.09511111111112,89L225.72977777777777,89L225.7448888888889,89L225.82044444444443,89L226.04711111111112,89L226.92355555555557,89L227.18044444444445,89L227.58844444444446,89L227.60355555555554,89L227.72444444444443,89L227.90577777777779,89L227.95111111111112,89L228.0871111111111,89L228.31377777777777,89L228.37422222222222,89L228.40444444444447,89L228.6311111111111,89L228.9031111111111,89L229.1751111111111,89L229.40177777777777,89L229.5528888888889,89L229.59822222222223,89L229.77955555555553,89L229.79466666666667,89L229.8551111111111,89L230.2782222222222,89L230.67111111111112,89L231.1697777777778,89L231.39644444444446,89L231.94044444444447,89L232.016,89L232.74133333333333,89L232.80177777777777,89L233.10399999999998,89L233.82933333333335,89L233.84444444444446,89L234.2373333333333,89L234.28266666666664,89L234.91733333333335,89L235.1591111111111,89L235.68800000000002,89L235.91466666666665,89L236.03555555555556,89L236.11111111111111,89L236.1262222222222,89L236.62488888888888,89L236.88177777777778,89L236.92711111111112,89L236.97244444444445,89L237.1688888888889,89L237.5768888888889,89L237.8488888888889,89L237.95466666666667,89L238.06044444444444,89L238.3928888888889,89L238.71022222222223,89L238.90666666666667,89L239.43555555555557,89L239.7831111111111,89L239.82844444444444,89L240.0248888888889,89L240.08533333333335,89L240.176,89L240.82577777777777,89L240.8408888888889,89L241.128,89L241.17333333333335,89L241.2942222222222,89L241.30933333333334,89L241.32444444444445,89L241.41511111111112,89L241.71733333333336,89L241.74755555555555,89L242.01955555555554,89L242.7751111111111,89L242.98666666666665,89L243.07733333333334,89L243.5911111111111,89L244.21066666666667,89L244.6337777777778,89L245.04177777777778,89L245.11733333333333,89L245.208,89L245.55555555555557,89L245.93333333333334,89L246.11466666666666,89L246.12977777777778,89L246.22044444444447,89L246.35644444444443,89L246.61333333333332,89L246.79466666666667,89L246.88533333333334,89L247.18755555555555,89L247.24800000000002,89L247.61066666666667,89L247.64088888888887,89L247.7768888888889,89L248.53244444444445,89L248.8951111111111,89L248.91022222222222,89L249.24266666666668,89L249.77155555555555,89L249.78666666666666,89L250.14933333333332,89L250.17955555555557,89L250.19466666666665,89L250.648,89L251.02577777777776,89L251.0711111111111,89L251.10133333333334,89L251.328,89L251.41866666666667,89L251.72088888888888,89L251.872,89L251.8871111111111,89L252.008,89L252.06844444444445,89L252.1591111111111,89L252.4008888888889,89L253.05066666666667,89L253.23200000000003,89L253.39822222222222,89L253.54933333333335,89L253.56444444444443,89L253.62488888888888,89L253.68533333333332,89L253.7457777777778,89L254.00266666666664,89L254.09333333333333,89L254.1537777777778,89L254.184,89L254.56177777777776,89L254.8488888888889,89L254.95466666666667,89L254.96977777777778,89L255.21155555555555,89L255.25688888888888,89L255.74044444444442,89L255.75555555555556,89L255.77066666666667,89L256.1333333333333,89L256.3448888888889,89L256.8737777777778,89" style="fill: none;" fill="none"></path></g></g></g></g><g opacity="0.2"><g><g><g><path stroke="rgb(255, 112, 67)" stroke-width="2px" d="M30.49422222222222,89L30.85688888888889,89L30.90222222222222,89L31.068444444444445,89L31.295111111111108,89L31.340444444444444,89L31.642666666666667,89L32.56444444444444,89L32.60977777777778,89L32.74577777777778,89L33.68266666666667,89L33.75822222222222,89L34.07555555555555,89L34.15111111111111,89L34.25688888888889,89L34.34755555555555,89L34.87644444444444,89L34.906666666666666,89L35.02755555555555,89L35.465777777777774,89L35.768,89L36.584,89L36.599111111111114,89L36.90133333333333,89L37.17333333333333,89L37.38488888888889,89L38.32177777777778,89L38.729777777777784,89L38.971555555555554,89L39.077333333333335,89L39.092444444444446,89L39.59111111111111,89L39.80266666666667,89L39.92355555555556,89L39.99911111111111,89L40.029333333333334,89L40.21066666666667,89L40.361777777777775,89L41.01155555555556,89L41.132444444444445,89L41.25333333333334,89L41.64622222222222,89L41.782222222222224,89L41.842666666666666,89L41.87288888888889,89L42.08444444444445,89L42.114666666666665,89L42.220444444444446,89L42.34133333333334,89L42.432,89L42.855111111111114,89L43.958222222222226,89L44.45688888888889,89L44.50222222222222,89L44.75911111111111,89L44.89511111111111,89L44.91022222222222,89L45.00088888888889,89L45.016000000000005,89L45.09155555555555,89L45.36355555555556,89L45.40888888888889,89L45.54488888888889,89L46.285333333333334,89L46.330666666666666,89L46.42133333333333,89L46.512,89L46.587555555555554,89L46.73866666666667,89L46.82933333333333,89L46.90488888888889,89L47.69066666666667,89L47.76622222222222,89L47.781333333333336,89L48.053333333333335,89L48.24977777777778,89L48.44622222222222,89L49.02044444444444,89L49.27733333333333,89L49.57955555555556,89L49.775999999999996,89L50.108444444444444,89L50.153777777777776,89L50.36533333333333,89L50.425777777777775,89L51.15111111111111,89L51.25688888888889,89L51.589333333333336,89L51.77066666666666,89L51.92177777777778,89L52.37511111111111,89L52.54133333333333,89L52.662222222222226,89L52.75288888888889,89L53.236444444444444,89L53.29688888888889,89L53.67466666666667,89L53.916444444444444,89L53.931555555555555,89L54.15822222222222,89L54.218666666666664,89L54.47555555555556,89L55.004444444444445,89L55.12533333333333,89L55.42755555555556,89L55.639111111111106,89L55.77511111111111,89L55.86577777777778,89L55.94133333333333,89L56.04711111111111,89L56.18311111111111,89L56.394666666666666,89L56.42488888888889,89L56.47022222222222,89L56.60622222222222,89L57.13511111111111,89L57.49777777777778,89L57.81511111111111,89L58.08711111111111,89L58.22311111111111,89L58.41955555555556,89L58.464888888888886,89L58.58577777777778,89L59.190222222222225,89L59.44711111111111,89L59.598222222222226,89L59.64355555555555,89L59.94577777777778,89L60.187555555555555,89L60.45955555555555,89L60.64088888888889,89L60.897777777777776,89L60.98844444444444,89L61.351111111111116,89L61.547555555555554,89L61.59288888888889,89L61.608000000000004,89L61.72888888888889,89L61.78933333333333,89L61.89511111111111,89L62.635555555555555,89L62.696000000000005,89L62.80177777777778,89L62.93777777777778,89L63.270222222222216,89L63.330666666666666,89L63.45155555555556,89L63.57244444444444,89L63.63288888888889,89L63.935111111111105,89L64.01066666666667,89L64.02577777777778,89L64.10133333333333,89L64.28266666666667,89L64.328,89L64.40355555555556,89L64.69066666666667,89L64.93244444444444,89L65.08355555555556,89L65.26488888888889,89L65.65777777777777,89L65.79377777777778,89L66.32266666666666,89L66.33777777777777,89L66.368,89L67.03288888888889,89L67.15377777777778,89L67.28977777777777,89L67.32,89L67.39555555555556,89L67.77333333333334,89L67.78844444444445,89L67.93955555555556,89L67.96977777777778,89L68.04533333333333,89L68.2568888888889,89L68.34755555555556,89L68.48355555555555,89L68.71022222222223,89L68.80088888888889,89L69.5111111111111,89L69.60177777777778,89L69.85866666666668,89L69.94933333333333,89L70.68977777777778,89L70.79555555555555,89L70.8711111111111,89L71.06755555555556,89L71.62666666666667,89L71.83822222222223,89L72.36711111111111,89L73.62133333333334,89L73.75733333333334,89L73.89333333333333,89L73.98400000000001,89L74.34666666666666,89L75.05688888888889,89L75.17777777777778,89L75.72177777777779,89L75.96355555555556,89L76.00888888888889,89L76.12977777777779,89L76.17511111111111,89L76.53777777777779,89L76.59822222222222,89L77.05155555555557,89L77.62577777777778,89L77.89777777777779,89L77.98844444444444,89L78.23022222222222,89L78.50222222222222,89L78.51733333333334,89L79.03111111111112,89L79.18222222222222,89L79.22755555555557,89L79.24266666666666,89L79.27288888888889,89L79.288,89L79.66577777777778,89L80.16444444444444,89L80.7688888888889,89L81.23733333333334,89L81.64533333333334,89L81.7208888888889,89L82.05333333333334,89L82.34044444444444,89L82.56711111111112,89L82.80888888888889,89L83.24711111111112,89L83.29244444444444,89L83.67022222222222,89L84.0631111111111,89L84.32,89L84.62222222222222,89L84.89422222222223,89L84.92444444444445,89L84.95466666666667,89L85.04533333333333,89L85.46844444444444,89L85.68,89L86.52622222222223,89L86.58666666666667,89L86.75288888888888,89L87.22133333333333,89L87.34222222222223,89L87.53866666666667,89L87.61422222222222,89L87.85600000000001,89L87.93155555555555,89L87.96177777777778,89L88.11288888888889,89L88.17333333333333,89L88.61155555555555,89L88.79288888888888,89L89.57866666666666,89L89.74488888888888,89L90.00177777777778,89L90.42488888888889,89L90.81777777777778,89L90.9991111111111,89L91.16533333333334,89L91.21066666666667,89L92.072,89L92.14755555555556,89L92.16266666666667,89L92.31377777777779,89L93.41688888888889,89L93.58311111111111,89L93.59822222222222,89L93.62844444444444,89L93.704,89L93.71911111111112,89L94.09688888888888,89L94.17244444444444,89L94.21777777777778,89L94.33866666666667,89L94.6408888888889,89L94.68622222222221,89L94.70133333333334,89L94.928,89L95.26044444444445,89L95.45688888888888,89L95.48711111111112,89L95.68355555555556,89L96.24266666666666,89L96.60533333333333,89L96.71111111111111,89L96.80177777777777,89L97.16444444444444,89L97.20977777777777,89L98.10133333333334,89L98.35822222222222,89L98.37333333333333,89L98.67555555555555,89L98.7208888888889,89L98.85688888888889,89L99.40088888888889,89L99.44622222222222,89L99.688,89L100.15644444444445,89L100.57955555555554,89L100.70044444444444,89L100.7608888888889,89L100.88177777777777,89L101.048,89L101.44088888888889,89L101.51644444444445,89L101.75822222222223,89L102,89L102.1208888888889,89L102.2568888888889,89L102.39288888888889,89L102.55911111111111,89L102.57422222222222,89L102.75555555555556,89L102.78577777777778,89L103.36,89L103.54133333333333,89L103.82844444444444,89L104.176,89L104.47822222222223,89L105.20355555555555,89L105.33955555555555,89L105.38488888888888,89L105.4151111111111,89L106.18577777777779,89L106.2311111111111,89L106.53333333333333,89L106.56355555555555,89L106.57866666666666,89L106.68444444444445,89L106.95644444444444,89L107.37955555555556,89L107.68177777777778,89L107.80266666666667,89L108.27111111111111,89L108.528,89L108.80000000000001,89L108.92088888888888,89L109.38933333333334,89L109.79733333333334,89L110.14488888888889,89L110.58311111111111,89L110.74933333333334,89L110.99111111111111,89L111.20266666666666,89L111.52,89L112.12444444444444,89L112.45688888888888,89L112.53244444444444,89L113.09155555555556,89L113.25777777777778,89L113.34844444444444,89L113.56,89L113.59022222222222,89L114.07377777777778,89L114.43644444444445,89L114.61777777777777,89L114.648,89L114.73866666666667,89L114.92,89L115.29777777777777,89L115.7208888888889,89L115.75111111111111,89L115.81155555555554,89L116.03822222222222,89L116.65777777777777,89L116.70311111111111,89L117.504,89L117.54933333333332,89L117.70044444444444,89L117.97244444444445,89L117.98755555555555,89L118.24444444444444,89L118.28977777777777,89L118.80355555555555,89L118.83377777777778,89L118.93955555555556,89L119.34755555555556,89L119.48355555555555,89L119.80088888888889,89L120.16355555555555,89L120.2391111111111,89L120.32977777777778,89L120.73777777777778,89L121.04,89L121.11555555555556,89L121.34222222222223,89L121.41777777777777,89L122.06755555555556,89L122.128,89L122.44533333333334,89L122.47555555555556,89L122.71733333333333,89L122.74755555555555,89L122.83822222222223,89L122.86844444444445,89L123.14044444444446,89L123.488,89L123.62400000000001,89L123.91111111111111,89L124.07733333333333,89L124.10755555555556,89L124.19822222222223,89L124.39466666666667,89L124.66666666666666,89L125.256,89L125.60355555555556,89L125.664,89L125.67911111111111,89L125.78488888888889,89L126.04177777777778,89L126.20800000000001,89L126.37422222222222,89L126.48,89L126.57066666666667,89L126.93333333333334,89L127.82488888888889,89L128.36888888888888,89L128.384,89L128.44444444444443,89L128.74666666666667,89L128.76177777777778,89L128.7768888888889,89L128.89777777777778,89L129.56266666666667,89L129.66844444444445,89L129.71377777777778,89L130.00088888888888,89L130.81688888888888,89L130.95288888888888,89L130.98311111111113,89L131.04355555555557,89L131.1342222222222,89L131.17955555555557,89L131.28533333333334,89L131.40622222222223,89L131.45155555555556,89L131.63288888888889,89L132.0408888888889,89L132.10133333333334,89L132.26755555555556,89L132.43377777777778,89L133.46133333333333,89L133.6728888888889,89L133.79377777777776,89L134.00533333333334,89L134.02044444444445,89L134.41333333333333,89L134.6248888888889,89L135.00266666666667,89L135.4408888888889,89L135.4862222222222,89L135.87911111111111,89L136.1511111111111,89L136.21155555555555,89L136.58933333333334,89L136.98222222222222,89L137.37511111111112,89L137.60177777777778,89L137.72266666666667,89L137.73777777777778,89L138.0702222222222,89L138.13066666666668,89L138.34222222222223,89L138.9466666666667,89L139.08266666666665,89L139.264,89L139.5511111111111,89L139.59644444444444,89L139.73244444444444,89L140.53333333333336,89L140.69955555555555,89L140.97155555555554,89L141.12266666666667,89L141.13777777777776,89L141.40977777777778,89L141.4248888888889,89L141.77244444444446,89L141.8328888888889,89L142.05955555555553,89L142.51288888888888,89L142.6488888888889,89L142.69422222222224,89L142.8,89L142.95111111111112,89L142.99644444444445,89L143.072,89L143.2231111111111,89L143.58577777777776,89L143.7217777777778,89L144.0088888888889,89L144.26577777777777,89L145.2026666666667,89L145.73155555555556,89L145.98844444444444,89L146.13955555555555,89L146.21511111111113,89L146.38133333333334,89L146.47199999999998,89L146.57777777777778,89L146.84977777777777,89L146.92533333333333,89L147.00088888888888,89L147.27288888888887,89L147.4391111111111,89L147.48444444444445,89L147.78666666666666,89L147.90755555555558,89L148.05866666666668,89L148.24,89L148.58755555555555,89L148.6631111111111,89L149.58488888888888,89L149.60000000000002,89L150.08355555555556,89L150.73333333333335,89L150.85422222222223,89L150.9751111111111,89L150.99022222222223,89L151.50400000000002,89L151.6702222222222,89L151.85155555555556,89L152.10844444444444,89L153.0151111111111,89L153.37777777777777,89L153.8311111111111,89L153.89155555555556,89L154.10311111111113,89L154.36,89L154.45066666666665,89L155.08533333333335,89L155.3271111111111,89L155.49333333333334,89L155.62933333333334,89L155.75022222222222,89L156.05244444444446,89L156.08266666666665,89L156.128,89L156.15822222222224,89L156.24888888888887,89L156.5511111111111,89L156.59644444444444,89L156.672,89L156.808,89L157.86577777777777,89L158.168,89L158.18311111111112,89L158.21333333333334,89L158.4248888888889,89L158.48533333333333,89L158.62133333333335,89L158.63644444444444,89L158.71200000000002,89L158.78755555555554,89L159.0142222222222,89L159.4826666666667,89L159.664,89L159.76977777777776,89L159.84533333333334,89L160.0568888888889,89L160.1928888888889,89L160.58577777777776,89L160.69155555555554,89L160.70666666666665,89L160.84266666666667,89L161.41688888888888,89L161.5377777777778,89L161.5528888888889,89L161.61333333333332,89L162.0968888888889,89L162.8071111111111,89L162.86755555555555,89L163.13955555555555,89L163.21511111111113,89L163.48711111111112,89L163.53244444444445,89L163.84977777777777,89L164.016,89L164.37866666666665,89L164.48444444444445,89L164.74133333333333,89L164.77155555555555,89L164.81688888888888,89L165.13422222222223,89L165.16444444444446,89L165.24,89L165.40622222222223,89L165.58755555555555,89L165.84444444444446,89L166.11644444444445,89L166.20711111111112,89L166.35822222222222,89L166.63022222222222,89L166.64533333333333,89L167.0533333333333,89L167.17422222222223,89L167.32533333333333,89L167.49155555555555,89L167.80888888888887,89L168.08088888888886,89L168.56444444444443,89L168.6702222222222,89L169.456,89L169.4862222222222,89L169.63733333333334,89L169.74311111111112,89L170.1511111111111,89L170.46844444444443,89L170.61955555555556,89L170.86133333333333,89L170.89155555555556,89L170.99733333333336,89L171.4808888888889,89L171.55644444444442,89L171.72266666666667,89L171.79822222222222,89L172.448,89L172.49333333333334,89L172.79555555555558,89L172.88622222222222,89L172.90133333333335,89L173.2942222222222,89L173.39999999999998,89L174.352,89L174.488,89L174.59377777777777,89L174.63911111111113,89L174.7448888888889,89L174.79022222222224,89L175.12266666666667,89L175.2888888888889,89L175.45511111111114,89L175.63644444444444,89L175.65155555555555,89L175.69688888888888,89L176.05955555555553,89L176.15022222222223,89L176.49777777777777,89L176.6488888888889,89L176.76977777777776,89L177.69155555555554,89L177.82755555555556,89L177.96355555555556,89L178.49244444444446,89L178.91555555555556,89L178.9608888888889,89L179.56533333333334,89L179.928,89L180.0791111111111,89L180.91022222222222,89L181.10666666666668,89L181.54488888888886,89L182.08888888888887,89L182.16444444444446,89L182.17955555555557,89L182.20977777777776,89L182.42133333333334,89L182.60266666666666,89L182.95022222222224,89L183.0408888888889,89L183.26755555555556,89L183.35822222222222,89L183.50933333333333,89L183.872,89L184.1288888888889,89L184.46133333333333,89L184.9297777777778,89L185.03555555555556,89L185.20177777777778,89L185.44355555555558,89L185.50400000000002,89L185.6097777777778,89L185.68533333333332,89L186.32000000000002,89L186.864,89L187.28711111111113,89L187.31733333333332,89L187.33244444444443,89L187.36266666666666,89L187.45333333333335,89L187.58933333333334,89L187.67999999999998,89L187.75555555555556,89L188.19377777777777,89L188.40533333333332,89L188.57155555555556,89L188.72266666666667,89L188.7831111111111,89L188.79822222222222,89L189.22133333333332,89L189.35733333333334,89L189.4782222222222,89L189.7048888888889,89L189.72,89L189.90133333333335,89L190.36977777777778,89L190.50577777777775,89L190.70222222222222,89L190.7626666666667,89L190.8382222222222,89L190.97422222222224,89L191.09511111111112,89L191.2008888888889,89L191.21599999999998,89L191.4728888888889,89L191.9262222222222,89L192.07733333333334,89L192.63644444444444,89L192.77244444444446,89L192.78755555555554,89L192.87822222222223,89L193.12,89L193.22577777777778,89L193.6488888888889,89L193.664,89L193.8,89L193.87555555555554,89L194.04177777777778,89L194.17777777777778,89L194.38933333333333,89L194.55555555555557,89L194.96355555555556,89L195.0088888888889,89L195.1448888888889,89L195.52266666666665,89L195.58311111111112,89L195.7191111111111,89L195.93066666666667,89L196.02133333333333,89L196.05155555555555,89L196.56533333333334,89L196.656,89L196.74666666666667,89L196.7768888888889,89L196.792,89L196.9431111111111,89L197.0186666666667,89L197.23022222222224,89L197.3662222222222,89L197.608,89L197.9857777777778,89L198.27288888888887,89L198.4088888888889,89L198.6808888888889,89L199.08888888888887,89L199.43644444444445,89L199.46666666666664,89L199.48177777777778,89L200.25244444444445,89L200.37333333333333,89L200.41866666666667,89L200.55466666666666,89L201.1288888888889,89L201.59733333333332,89L201.89955555555557,89L202.11111111111111,89L202.18666666666667,89L202.65511111111113,89L202.776,89L202.80622222222223,89L203.32000000000002,89L203.36533333333335,89L203.5768888888889,89L203.62222222222223,89L203.78844444444445,89L203.87911111111111,89L204.3022222222222,89L204.34755555555557,89L204.36266666666666,89L204.45333333333335,89L204.48355555555554,89L204.74044444444442,89L204.86133333333333,89L204.99733333333336,89L205.224,89L205.4657777777778,89L206.0551111111111,89L206.23644444444446,89L206.26666666666665,89L206.41777777777776,89L206.58399999999997,89L206.68977777777775,89L206.79555555555558,89L206.82577777777777,89L207.08266666666665,89L207.36977777777778,89L207.91377777777777,89L208.06488888888887,89L208.32177777777775,89L208.41244444444445,89L208.54844444444444,89L209.0017777777778,89L209.34933333333333,89L209.36444444444444,89L209.63644444444444,89L210.05955555555553,89L210.13511111111112,89L210.33155555555555,89L210.54311111111113,89L210.664,89L210.73955555555557,89L210.76977777777776,89L210.78488888888887,89L211.0871111111111,89L211.16266666666667,89L211.37422222222222,89L211.52533333333332,89L211.60088888888887,89L211.70666666666665,89L211.99377777777778,89L212.1751111111111,89L212.704,89L212.84,89L213.56533333333334,89L213.64088888888887,89L213.86755555555555,89L214.03377777777777,89L214.09422222222221,89L214.336,89L214.53244444444445,89L214.8346666666667,89L214.97066666666666,89L215.09155555555557,89L215.39377777777776,89L215.63555555555556,89L215.93777777777777,89L215.9831111111111,89L216.2248888888889,89L216.46666666666664,89L216.63288888888889,89L217.53955555555555,89L217.67555555555555,89L217.69066666666666,89L218.144,89L218.4311111111111,89L218.47644444444444,89L218.80888888888887,89L219.47377777777777,89L219.7911111111111,89L219.88177777777778,89L219.912,89L220.22933333333333,89L220.56177777777776,89L221,89L221.69511111111112,89L221.9368888888889,89L222.11822222222222,89L223.00977777777777,89L223.25155555555557,89L223.72,89L223.8408888888889,89L224.15822222222224,89L224.536,89L224.61155555555558,89L224.808,89L225.00444444444443,89L225.09511111111112,89L225.72977777777777,89L225.7448888888889,89L225.82044444444443,89L226.04711111111112,89L226.92355555555557,89L227.18044444444445,89L227.58844444444446,89L227.60355555555554,89L227.72444444444443,89L227.90577777777779,89L227.95111111111112,89L228.0871111111111,89L228.31377777777777,89L228.37422222222222,89L228.40444444444447,89L228.6311111111111,89L228.9031111111111,89L229.1751111111111,89L229.40177777777777,89L229.5528888888889,89L229.59822222222223,89L229.77955555555553,89L229.79466666666667,89L229.8551111111111,89L230.2782222222222,89L230.67111111111112,89L231.1697777777778,89L231.39644444444446,89L231.94044444444447,89L232.016,89L232.74133333333333,89L232.80177777777777,89L233.10399999999998,89L233.82933333333335,89L233.84444444444446,89L234.2373333333333,89L234.28266666666664,89L234.91733333333335,89L235.1591111111111,89L235.68800000000002,89L235.91466666666665,89L236.03555555555556,89L236.11111111111111,89L236.1262222222222,89L236.62488888888888,89L236.88177777777778,89L236.92711111111112,89L236.97244444444445,89L237.1688888888889,89L237.5768888888889,89L237.8488888888889,89L237.95466666666667,89L238.06044444444444,89L238.3928888888889,89L238.71022222222223,89L238.90666666666667,89L239.43555555555557,89L239.7831111111111,89L239.82844444444444,89L240.0248888888889,89L240.08533333333335,89L240.176,89L240.82577777777777,89L240.8408888888889,89L241.128,89L241.17333333333335,89L241.2942222222222,89L241.30933333333334,89L241.32444444444445,89L241.41511111111112,89L241.71733333333336,89L241.74755555555555,89L242.01955555555554,89L242.7751111111111,89L242.98666666666665,89L243.07733333333334,89L243.5911111111111,89L244.21066666666667,89L244.6337777777778,89L245.04177777777778,89L245.11733333333333,89L245.208,89L245.55555555555557,89L245.93333333333334,89L246.11466666666666,89L246.12977777777778,89L246.22044444444447,89L246.35644444444443,89L246.61333333333332,89L246.79466666666667,89L246.88533333333334,89L247.18755555555555,89L247.24800000000002,89L247.61066666666667,89L247.64088888888887,89L247.7768888888889,89L248.53244444444445,89L248.8951111111111,89L248.91022222222222,89L249.24266666666668,89L249.77155555555555,89L249.78666666666666,89L250.14933333333332,89L250.17955555555557,89L250.19466666666665,89L250.648,89L251.02577777777776,89L251.0711111111111,89L251.10133333333334,89L251.328,89L251.41866666666667,89L251.72088888888888,89L251.872,89L251.8871111111111,89L252.008,89L252.06844444444445,89L252.1591111111111,89L252.4008888888889,89L253.05066666666667,89L253.23200000000003,89L253.39822222222222,89L253.54933333333335,89L253.56444444444443,89L253.62488888888888,89L253.68533333333332,89L253.7457777777778,89L254.00266666666664,89L254.09333333333333,89L254.1537777777778,89L254.184,89L254.56177777777776,89L254.8488888888889,89L254.95466666666667,89L254.96977777777778,89L255.21155555555555,89L255.25688888888888,89L255.74044444444442,89L255.75555555555556,89L255.77066666666667,89L256.1333333333333,89L256.3448888888889,89L256.8737777777778,89" style="fill: none;" fill="none"></path></g></g></g></g></g></g><g transform="translate(58, 178)" clip-path="url(#clip_1)"><clipPath id="clip_1"><rect width="271" height="21"></rect></clipPath><g><g><line x1="0" y1="0" x2="0" y2="5" style="visibility: inherit;" fill="rgb(0, 0, 0)" stroke="rgb(204, 204, 204)" stroke-width="1px"></line><line x1="30.22222222222222" y1="0" x2="30.22222222222222" y2="5" style="visibility: inherit;" fill="rgb(0, 0, 0)" stroke="rgb(204, 204, 204)" stroke-width="1px"></line><line x1="60.44444444444444" y1="0" x2="60.44444444444444" y2="5" style="visibility: inherit;" fill="rgb(0, 0, 0)" stroke="rgb(204, 204, 204)" stroke-width="1px"></line><line x1="90.66666666666666" y1="0" x2="90.66666666666666" y2="5" style="visibility: inherit;" fill="rgb(0, 0, 0)" stroke="rgb(204, 204, 204)" stroke-width="1px"></line><line x1="120.88888888888889" y1="0" x2="120.88888888888889" y2="5" style="visibility: inherit;" fill="rgb(0, 0, 0)" stroke="rgb(204, 204, 204)" stroke-width="1px"></line><line x1="151.11111111111111" y1="0" x2="151.11111111111111" y2="5" style="visibility: inherit;" fill="rgb(0, 0, 0)" stroke="rgb(204, 204, 204)" stroke-width="1px"></line><line x1="181.33333333333331" y1="0" x2="181.33333333333331" y2="5" style="visibility: inherit;" fill="rgb(0, 0, 0)" stroke="rgb(204, 204, 204)" stroke-width="1px"></line><line x1="211.55555555555557" y1="0" x2="211.55555555555557" y2="5" style="visibility: inherit;" fill="rgb(0, 0, 0)" stroke="rgb(204, 204, 204)" stroke-width="1px"></line><line x1="241.77777777777777" y1="0" x2="241.77777777777777" y2="5" style="visibility: inherit;" fill="rgb(0, 0, 0)" stroke="rgb(204, 204, 204)" stroke-width="1px"></line><line x1="272" y1="0" x2="272" y2="5" style="visibility: inherit;" fill="rgb(0, 0, 0)" stroke="rgb(204, 204, 204)" stroke-width="1px"></line></g><g transform="translate(0, 8)"><text x="0" y="0" dx="0em" dy="0.95em" style="text-anchor: middle; visibility: hidden; font-family: Roboto, sans-serif; font-size: 12px; font-weight: 200;" fill="rgb(50, 49, 63)" stroke="none" stroke-width="1px">-2k</text><text x="30.22222222222222" y="0" dx="0em" dy="0.95em" style="text-anchor: middle; visibility: inherit; font-family: Roboto, sans-serif; font-size: 12px; font-weight: 200;" fill="rgb(50, 49, 63)" stroke="none" stroke-width="1px">0</text><text x="60.44444444444444" y="0" dx="0em" dy="0.95em" style="text-anchor: middle; visibility: inherit; font-family: Roboto, sans-serif; font-size: 12px; font-weight: 200;" fill="rgb(50, 49, 63)" stroke="none" stroke-width="1px">2k</text><text x="90.66666666666666" y="0" dx="0em" dy="0.95em" style="text-anchor: middle; visibility: inherit; font-family: Roboto, sans-serif; font-size: 12px; font-weight: 200;" fill="rgb(50, 49, 63)" stroke="none" stroke-width="1px">4k</text><text x="120.88888888888889" y="0" dx="0em" dy="0.95em" style="text-anchor: middle; visibility: inherit; font-family: Roboto, sans-serif; font-size: 12px; font-weight: 200;" fill="rgb(50, 49, 63)" stroke="none" stroke-width="1px">6k</text><text x="151.11111111111111" y="0" dx="0em" dy="0.95em" style="text-anchor: middle; visibility: inherit; font-family: Roboto, sans-serif; font-size: 12px; font-weight: 200;" fill="rgb(50, 49, 63)" stroke="none" stroke-width="1px">8k</text><text x="181.33333333333331" y="0" dx="0em" dy="0.95em" style="text-anchor: middle; visibility: inherit; font-family: Roboto, sans-serif; font-size: 12px; font-weight: 200;" fill="rgb(50, 49, 63)" stroke="none" stroke-width="1px">10k</text><text x="211.55555555555557" y="0" dx="0em" dy="0.95em" style="text-anchor: middle; visibility: inherit; font-family: Roboto, sans-serif; font-size: 12px; font-weight: 200;" fill="rgb(50, 49, 63)" stroke="none" stroke-width="1px">12k</text><text x="241.77777777777777" y="0" dx="0em" dy="0.95em" style="text-anchor: middle; visibility: inherit; font-family: Roboto, sans-serif; font-size: 12px; font-weight: 200;" fill="rgb(50, 49, 63)" stroke="none" stroke-width="1px">14k</text><text x="272" y="0" dx="0em" dy="0.95em" style="text-anchor: middle; visibility: hidden; font-family: Roboto, sans-serif; font-size: 12px; font-weight: 200;" fill="rgb(50, 49, 63)" stroke="none" stroke-width="1px">16k</text></g><line x1="0" y1="0" x2="272" y2="0" fill="rgb(0, 0, 0)" stroke="rgb(204, 204, 204)" stroke-width="1px"></line></g></g></g></g></svg>