<svg viewBox="0 0 330.0000305175781 200.00001525878906" xmlns="http://www.w3.org/2000/svg"><g><g><g><g><g><line x1="70" y1="178" x2="65" y2="178" style="visibility: inherit;" fill="rgb(0, 0, 0)" stroke="rgb(204, 204, 204)" stroke-width="1px"></line><line x1="70" y1="158.2222222222222" x2="65" y2="158.2222222222222" style="visibility: inherit;" fill="rgb(0, 0, 0)" stroke="rgb(204, 204, 204)" stroke-width="1px"></line><line x1="70" y1="138.44444444444446" x2="65" y2="138.44444444444446" style="visibility: inherit;" fill="rgb(0, 0, 0)" stroke="rgb(204, 204, 204)" stroke-width="1px"></line><line x1="70" y1="118.66666666666666" x2="65" y2="118.66666666666666" style="visibility: inherit;" fill="rgb(0, 0, 0)" stroke="rgb(204, 204, 204)" stroke-width="1px"></line><line x1="70" y1="98.8888888888889" x2="65" y2="98.8888888888889" style="visibility: inherit;" fill="rgb(0, 0, 0)" stroke="rgb(204, 204, 204)" stroke-width="1px"></line><line x1="70" y1="79.1111111111111" x2="65" y2="79.1111111111111" style="visibility: inherit;" fill="rgb(0, 0, 0)" stroke="rgb(204, 204, 204)" stroke-width="1px"></line><line x1="70" y1="59.33333333333334" x2="65" y2="59.33333333333334" style="visibility: inherit;" fill="rgb(0, 0, 0)" stroke="rgb(204, 204, 204)" stroke-width="1px"></line><line x1="70" y1="39.55555555555557" x2="65" y2="39.55555555555557" style="visibility: inherit;" fill="rgb(0, 0, 0)" stroke="rgb(204, 204, 204)" stroke-width="1px"></line><line x1="70" y1="19.777777777777786" x2="65" y2="19.777777777777786" style="visibility: inherit;" fill="rgb(0, 0, 0)" stroke="rgb(204, 204, 204)" stroke-width="1px"></line><line x1="70" y1="0" x2="65" y2="0" style="visibility: inherit;" fill="rgb(0, 0, 0)" stroke="rgb(204, 204, 204)" stroke-width="1px"></line></g><g transform="translate(60, 0)"><text x="0" y="178" dx="0em" dy="0.3em" style="text-anchor: end; visibility: hidden; font-family: Roboto, sans-serif; font-size: 12px; font-weight: 200;" fill="rgb(50, 49, 63)" stroke="none" stroke-width="1px">-0.05</text><text x="0" y="158.2222222222222" dx="0em" dy="0.3em" style="text-anchor: end; visibility: inherit; font-family: Roboto, sans-serif; font-size: 12px; font-weight: 200;" fill="rgb(50, 49, 63)" stroke="none" stroke-width="1px">0</text><text x="0" y="138.44444444444446" dx="0em" dy="0.3em" style="text-anchor: end; visibility: hidden; font-family: Roboto, sans-serif; font-size: 12px; font-weight: 200;" fill="rgb(50, 49, 63)" stroke="none" stroke-width="1px">0.05</text><text x="0" y="118.66666666666666" dx="0em" dy="0.3em" style="text-anchor: end; visibility: inherit; font-family: Roboto, sans-serif; font-size: 12px; font-weight: 200;" fill="rgb(50, 49, 63)" stroke="none" stroke-width="1px">0.1</text><text x="0" y="98.8888888888889" dx="0em" dy="0.3em" style="text-anchor: end; visibility: hidden; font-family: Roboto, sans-serif; font-size: 12px; font-weight: 200;" fill="rgb(50, 49, 63)" stroke="none" stroke-width="1px">0.15</text><text x="0" y="79.1111111111111" dx="0em" dy="0.3em" style="text-anchor: end; visibility: inherit; font-family: Roboto, sans-serif; font-size: 12px; font-weight: 200;" fill="rgb(50, 49, 63)" stroke="none" stroke-width="1px">0.2</text><text x="0" y="59.33333333333334" dx="0em" dy="0.3em" style="text-anchor: end; visibility: hidden; font-family: Roboto, sans-serif; font-size: 12px; font-weight: 200;" fill="rgb(50, 49, 63)" stroke="none" stroke-width="1px">0.25</text><text x="0" y="39.55555555555557" dx="0em" dy="0.3em" style="text-anchor: end; visibility: inherit; font-family: Roboto, sans-serif; font-size: 12px; font-weight: 200;" fill="rgb(50, 49, 63)" stroke="none" stroke-width="1px">0.3</text><text x="0" y="19.777777777777786" dx="0em" dy="0.3em" style="text-anchor: end; visibility: hidden; font-family: Roboto, sans-serif; font-size: 12px; font-weight: 200;" fill="rgb(50, 49, 63)" stroke="none" stroke-width="1px">0.35</text><text x="0" y="0" dx="0em" dy="0.3em" style="text-anchor: end; visibility: hidden; font-family: Roboto, sans-serif; font-size: 12px; font-weight: 200;" fill="rgb(50, 49, 63)" stroke="none" stroke-width="1px">0.4</text></g><line x1="70" y1="0" x2="70" y2="178" fill="rgb(0, 0, 0)" stroke="rgb(204, 204, 204)" stroke-width="1px"></line></g></g><g transform="translate(70, 0)" clip-path="url(#clip_0)"><clipPath id="clip_0"><rect width="260" height="177"></rect></clipPath><g><g><g><line x1="0" y1="0" x2="0" y2="178" fill="rgb(0, 0, 0)" stroke="rgb(60, 60, 60)" stroke-width="1px" opacity="0.25"></line><line x1="28.888888888888886" y1="0" x2="28.888888888888886" y2="178" fill="rgb(0, 0, 0)" stroke="rgb(60, 60, 60)" stroke-width="1px" opacity="0.25"></line><line x1="57.77777777777777" y1="0" x2="57.77777777777777" y2="178" fill="rgb(0, 0, 0)" stroke="rgb(60, 60, 60)" stroke-width="1px" opacity="0.25"></line><line x1="86.66666666666666" y1="0" x2="86.66666666666666" y2="178" fill="rgb(0, 0, 0)" stroke="rgb(60, 60, 60)" stroke-width="1px" opacity="0.25"></line><line x1="115.55555555555554" y1="0" x2="115.55555555555554" y2="178" fill="rgb(0, 0, 0)" stroke="rgb(60, 60, 60)" stroke-width="1px" opacity="0.25"></line><line x1="144.44444444444446" y1="0" x2="144.44444444444446" y2="178" fill="rgb(0, 0, 0)" stroke="rgb(60, 60, 60)" stroke-width="1px" opacity="0.25"></line><line x1="173.33333333333331" y1="0" x2="173.33333333333331" y2="178" fill="rgb(0, 0, 0)" stroke="rgb(60, 60, 60)" stroke-width="1px" opacity="0.25"></line><line x1="202.22222222222223" y1="0" x2="202.22222222222223" y2="178" fill="rgb(0, 0, 0)" stroke="rgb(60, 60, 60)" stroke-width="1px" opacity="0.25"></line><line x1="231.1111111111111" y1="0" x2="231.1111111111111" y2="178" fill="rgb(0, 0, 0)" stroke="rgb(60, 60, 60)" stroke-width="1px" opacity="0.25"></line><line x1="260" y1="0" x2="260" y2="178" fill="rgb(0, 0, 0)" stroke="rgb(60, 60, 60)" stroke-width="1px" opacity="0.25"></line></g><g><line x1="0" y1="178" x2="260" y2="178" fill="rgb(0, 0, 0)" stroke="rgb(60, 60, 60)" stroke-width="1px" opacity="0.25"></line><line x1="0" y1="158.2222222222222" x2="260" y2="158.2222222222222" fill="rgb(0, 0, 0)" stroke="rgb(60, 60, 60)" stroke-width="1px" opacity="0.25"></line><line x1="0" y1="138.44444444444446" x2="260" y2="138.44444444444446" fill="rgb(0, 0, 0)" stroke="rgb(60, 60, 60)" stroke-width="1px" opacity="0.25"></line><line x1="0" y1="118.66666666666666" x2="260" y2="118.66666666666666" fill="rgb(0, 0, 0)" stroke="rgb(60, 60, 60)" stroke-width="1px" opacity="0.25"></line><line x1="0" y1="98.8888888888889" x2="260" y2="98.8888888888889" fill="rgb(0, 0, 0)" stroke="rgb(60, 60, 60)" stroke-width="1px" opacity="0.25"></line><line x1="0" y1="79.1111111111111" x2="260" y2="79.1111111111111" fill="rgb(0, 0, 0)" stroke="rgb(60, 60, 60)" stroke-width="1px" opacity="0.25"></line><line x1="0" y1="59.33333333333334" x2="260" y2="59.33333333333334" fill="rgb(0, 0, 0)" stroke="rgb(60, 60, 60)" stroke-width="1px" opacity="0.25"></line><line x1="0" y1="39.55555555555557" x2="260" y2="39.55555555555557" fill="rgb(0, 0, 0)" stroke="rgb(60, 60, 60)" stroke-width="1px" opacity="0.25"></line><line x1="0" y1="19.777777777777786" x2="260" y2="19.777777777777786" fill="rgb(0, 0, 0)" stroke="rgb(60, 60, 60)" stroke-width="1px" opacity="0.25"></line><line x1="0" y1="0" x2="260" y2="0" fill="rgb(0, 0, 0)" stroke="rgb(60, 60, 60)" stroke-width="1px" opacity="0.25"></line></g></g></g><g><g><line x1="0" y1="158.2222222222222" x2="260" y2="158.2222222222222" fill="rgb(0, 0, 0)" stroke="rgb(153, 153, 153)" stroke-width="1.5px"></line></g></g><g><g><line x1="28.888888888888886" y1="0" x2="28.888888888888886" y2="178" fill="rgb(0, 0, 0)" stroke="rgb(153, 153, 153)" stroke-width="1.5px"></line></g></g><g><g><g><g><g><path stroke="rgb(255, 112, 67)" stroke-width="2px" d="M37.25222222222222,-4.020813648403369L37.35333333333333,3.1104018397708533L37.367777777777775,8.307060195954806L37.84444444444444,5.796975686378564L38.04666666666667,5.221742681879428L38.162222222222226,14.376369903888232L38.23444444444444,11.495057704020521L38.263333333333335,15.577020104584648L38.43666666666667,19.199936447071387L38.581111111111106,20.037718738918123L39.202222222222225,22.31436671189151L39.31777777777778,24.614627507441366L39.43333333333334,24.245937555655374L39.80888888888889,28.087682932813895L39.93888888888889,29.288031594310485L39.99666666666666,34.76592946453124L40.025555555555556,31.037373533051476L40.22777777777778,33.96775553910696L40.25666666666666,30.023644218848485L40.357777777777784,25.997445962730207L40.473333333333336,19.991727280944048L40.56,22.71490200195113L40.964444444444446,26.87301618608588L42.01888888888889,23.536426868382687L42.495555555555555,24.74764361025648L42.53888888888889,27.028339978932383L42.784444444444446,30.449342219513948L42.91444444444445,36.29657222380954L42.928888888888885,35.86018903040244L43.01555555555556,40.56039750683384L43.03,41.37694653885283L43.102222222222224,43.84409604742564L43.36222222222222,39.48925100340104L43.40555555555556,42.216211814851235L43.535555555555554,43.64584311985083L44.24333333333333,47.50055738312624L44.28666666666667,48.71148542595632L44.373333333333335,51.1018557723697L44.46,49.61094722904474L44.532222222222224,52.63899847447004L44.67666666666667,47.79669460746207L44.763333333333335,46.72251964636872L44.83555555555556,49.36446199461721L45.586666666666666,47.95451872502716L45.65888888888889,49.089933974524065L45.67333333333333,52.8971869100138L45.93333333333333,48.98699149560468L46.12111111111111,47.3000789927449L46.30888888888889,48.637672846400214L46.85777777777778,45.40683154385601L47.10333333333333,40.203454969438965L47.39222222222222,39.73210206097129L47.58,40.87878895009616L47.89777777777778,43.15627904769634L47.941111111111105,41.33024497162421L48.14333333333334,42.982664952799674L48.20111111111111,35.43888916503145L48.894444444444446,38.92612046057028L48.995555555555555,42.33137749833587L49.31333333333334,37.72109816811063L49.486666666666665,35.62843161268692L49.63111111111111,38.40056763854854L50.06444444444445,38.13323107710318L50.22333333333333,42.51787498120112L50.33888888888889,39.286481983020934L50.425555555555555,39.785272233458166L50.88777777777778,42.34684023803651L50.94555555555556,45.04662184603411L51.306666666666665,45.47029974736906L51.53777777777778,50.26006850331276L51.55222222222222,51.167376967204035L51.76888888888889,46.19356123634037L51.82666666666667,43.59209723646613L52.07222222222222,42.985806900607514L52.577777777777776,41.11050504217491L52.693333333333335,38.99339302026917L52.98222222222222,40.0695479638924L53.184444444444445,43.63219637811833L53.31444444444444,44.020437949194275L53.40111111111111,47.951481394208436L53.47333333333333,45.74182445526507L53.574444444444445,47.57120504988397L53.70444444444444,50.07771739241149L53.906666666666666,50.18044897417132L53.93555555555555,49.58981242941742L53.97888888888889,48.02074924079505L54.108888888888885,47.694547290563236L54.614444444444445,47.69460642313625L54.96111111111111,47.933742746486665L55.26444444444444,50.47007495663796L55.52444444444444,45.09644590925029L55.654444444444444,40.65215499907196L55.842222222222226,43.20065143763714L55.885555555555555,46.313764731572164L56.00111111111111,45.995321976289986L56.57888888888889,45.89336690139642L56.824444444444445,47.53228953815998L56.96888888888889,48.470184821174776L57.01222222222222,48.13050283093494L57.30111111111111,48.68141277444113L57.53222222222222,49.287575371091336L57.79222222222222,47.66691272530622L57.965555555555554,52.195257340202936L58.21111111111111,52.921992843119334L58.297777777777775,53.392116598364034L58.644444444444446,54.440016319490695L58.83222222222222,56.98041926096463L58.87555555555556,57.94101008479976L58.89,58.6889218156246L59.00555555555556,55.87670040963748L59.06333333333333,57.31492011722018L59.16444444444445,56.58111113321101L59.87222222222222,60.63781560229811L59.93,61.862858396500876L60.03111111111111,61.50198702109074L60.16111111111111,60.8671528844912L60.47888888888889,60.731899213627656L60.53666666666667,60.84937737914506L60.65222222222222,62.842717467001776L60.76777777777778,64.26639851592697L60.82555555555556,66.2331641386916L61.114444444444445,65.39629419750675L61.18666666666667,64.72205869357649L61.20111111111111,66.51422332794617L61.27333333333333,68.70901700800007L61.446666666666665,69.54401202731682L61.489999999999995,67.9711609194198L61.562222222222225,67.24500618644427L61.836666666666666,65.98784986491287L62.06777777777778,65.54972122795905L62.21222222222222,66.11019293676742L62.385555555555555,68.88779259193832L62.761111111111106,68.03942841377619L62.89111111111111,64.55183526447928L63.39666666666667,66.56865133025866L63.41111111111111,63.73771630926089L63.44,64.41526037857085L64.07555555555555,62.78929158329434L64.19111111111111,64.07971556071159L64.32111111111111,64.11109405663524L64.35,65.03998122061604L64.42222222222223,60.01713265133473L64.78333333333333,62.5058130912289L64.79777777777778,61.483214715882156L64.94222222222221,61.80347753667071L64.97111111111111,62.29185761275949L65.04333333333332,62.129435386022706L65.24555555555557,63.15236730008542L65.33222222222221,62.34905777364248L65.46222222222222,58.379970738569504L65.67888888888889,59.20060230858921L65.76555555555557,58.73060690896185L66.44444444444444,59.90227332710037L66.53111111111112,61.44692017862989L66.77666666666667,67.58589232319981L66.86333333333333,70.32634337646356L67.57111111111111,69.79160418769929L67.67222222222222,67.30183518352278L67.74444444444444,68.60196653415632L67.93222222222222,68.63523553487903L68.46666666666665,68.56989552439651L68.66888888888889,70.47864126692915L69.17444444444445,73.994770497304L70.37333333333333,78.08453761996192L70.50333333333333,78.82233131751197L70.63333333333334,79.66870921507879L70.72,80.7864028906586L71.06666666666666,83.37655666942953L71.74555555555555,80.5591897744623L71.86111111111111,77.28350155738637L72.38111111111111,77.59939552837419L72.61222222222223,80.47821301038609L72.65555555555555,82.0099838084502L72.77111111111111,77.11715051409846L72.81444444444445,76.47947932173652L73.16111111111111,79.89947051962426L73.21888888888888,82.15248778533945L73.65222222222222,81.77318845673227L74.20111111111112,74.39828133965463L74.46111111111112,77.0141128145298L74.54777777777778,78.72759450108717L74.77888888888889,77.08289202710414L75.03888888888889,80.73262830584302L75.05333333333334,77.83972652306284L75.54444444444445,81.66827777423023L75.68888888888888,79.59052911424682L75.73222222222223,81.94776600820597L75.74666666666667,81.59995047114874L75.77555555555556,80.67599060136793L75.78999999999999,78.48129479794487L76.1511111111111,80.39650082710332L76.62777777777778,81.13653238995579L77.20555555555556,77.79408112154435L77.65333333333334,78.13907934980102L78.04333333333334,80.156987938552L78.11555555555556,81.41745299035982L78.43333333333334,83.19629083623765L78.70777777777778,82.39398171264169L78.92444444444445,80.92090342816043L79.15555555555557,78.7667834149204L79.57444444444445,79.88255335305814L79.61777777777777,81.57852343398653L79.97888888888889,80.87458202681853L80.35444444444444,80.43758929534084L80.6,82.61948389767059L80.88888888888889,85.82910757199535L81.14888888888889,87.13411822363108L81.17777777777778,90.81373398111087L81.20666666666668,89.98527543820317L81.29333333333332,87.24882169199745L81.69777777777779,87.67211708297307L81.9,79.36730214464261L82.7088888888889,74.14988033558168L82.76666666666668,76.60999669229463L82.92555555555555,80.09630500116542L83.37333333333333,81.72872724025639L83.4888888888889,83.88074872859592L83.67666666666668,84.2766394327581L83.7488888888889,85.89636666174049L83.98,85.72435459099584L84.05222222222223,86.30451913816106L84.08111111111111,86.5120304968113L84.22555555555554,84.4643862285354L84.28333333333333,86.58132324030537L84.70222222222222,89.97372677661036L84.87555555555555,91.21908854044459L85.62666666666667,93.06346886493446L85.78555555555555,92.38066174676467L86.03111111111112,91.50406930726021L86.43555555555555,93.3520279933355L86.81111111111112,93.53701340242328L86.98444444444445,94.43774302776463L87.14333333333333,93.6800133411567L87.18666666666667,95.87852431622365L88.01,96.1083286824344L88.08222222222223,98.40417751341587L88.09666666666666,95.03664684364183L88.24111111111111,96.73579793634217L89.29555555555555,99.10170938156836L89.45444444444445,101.45224688408749L89.46888888888888,100.76434423952115L89.49777777777777,95.47131285719435L89.57,93.41780551957132L89.58444444444444,96.38306800608943L89.94555555555556,94.07427485727462L90.01777777777778,90.91420797456085L90.06111111111112,92.98099153658373L90.17666666666666,91.61005397318334L90.46555555555555,93.51888712224745L90.50888888888889,93.6785497928293L90.52333333333334,94.39238219375441L90.74,93.50763570226081L91.05777777777777,93.89322028684452L91.24555555555555,96.41608812194812L91.27444444444444,96.96170595225604L91.46222222222222,98.32086405995722L91.99666666666667,98.76559139548657L92.34333333333333,97.39563684396954L92.44444444444444,97.7515053112611L92.5311111111111,101.23437226315768L92.87777777777778,102.57603346027003L92.9211111111111,102.04292908422174L93.77333333333334,102.99057967663629L94.01888888888888,101.98953549147384L94.03333333333335,101.79803965826166L94.32222222222222,104.62918502859348L94.36555555555556,105.55367831483353L94.49555555555555,105.82642636648865L95.01555555555557,106.7968922491555L95.05888888888889,102.63034597689396L95.28999999999999,100.47897614726455L95.73777777777778,100.0477612964325L96.14222222222222,100.16285482547134L96.25777777777778,99.39696004739704L96.31555555555556,101.49956329606813L96.43111111111111,102.76355578980738L96.59,100.97728973594343L96.96555555555557,101.17773875564667L97.03777777777778,102.72576207657623L97.2688888888889,102.25053525168998L97.5,101.2379854537981L97.61555555555556,103.06756422746282L97.74555555555557,103.23069022938898L97.87555555555556,103.66201020373998L98.03444444444443,100.67751453636109L98.0488888888889,98.9501307337107L98.22222222222221,99.91615462592173L98.25111111111111,96.8404347472241L98.8,99.37437179905496L98.97333333333333,101.26721639600156L99.24777777777778,101.58888797147486L99.58,102.20890819793017L99.86888888888889,103.649044073839L100.56222222222222,104.13859748459237L100.69222222222223,106.65531914950812L100.73555555555555,107.62723550832203L100.76444444444444,110.27321929573023L101.50111111111111,112.23331307657996L101.54444444444444,111.34857300943395L101.83333333333333,112.20923741218414L101.86222222222223,113.26296817131775L101.87666666666667,114.09683059369007L101.97777777777779,111.94835711098077L102.23777777777777,113.05864114879297L102.64222222222223,114.09949211928766L102.93111111111111,113.94538500959511L103.04666666666667,114.28970454218668L103.49444444444444,115.16510998415698L103.74000000000001,117.51031263126575L104,117.80757594481054L104.11555555555556,118.19586609937203L104.56333333333333,118.78805103789142L104.95333333333333,118.76825239129863L105.28555555555556,117.5812718955795L105.70444444444445,117.65781297411931L105.86333333333333,114.75893624273048L106.09444444444445,112.67032815829643L106.29666666666667,110.74490408136602L106.6,108.34847159813583L107.17777777777778,110.58666720457539L107.49555555555555,110.73919256151615L107.56777777777778,111.43863708700216L108.10222222222222,112.77004973192608L108.2611111111111,112.33334520879357L108.34777777777778,112.84172035337163L108.55,114.92071574899163L108.57888888888888,112.89277818774526L109.0411111111111,115.21192317417406L109.38777777777777,113.67220088134239L109.5611111111111,114.18444437908822L109.59,112.95328847317157L109.67666666666666,110.44165583623878L109.85,109.85554176459136L110.21111111111111,110.68947112262725L110.61555555555556,111.76539241999816L110.64444444444445,111.77710341106577L110.70222222222222,110.58166765790831L110.91888888888889,111.73605518400159L111.5111111111111,113.22057645294602L111.55444444444446,112.33548427584617L112.32,113.77655942638614L112.36333333333333,113.07627602146638L112.50777777777778,114.4574600155544L112.76777777777778,114.0561772802657L112.78222222222222,114.56683795358744L113.02777777777779,115.93265707196866L113.07111111111111,113.82254608152837L113.56222222222222,115.6130060836078L113.5911111111111,115.91504625969075L113.69222222222221,115.60206741270407L114.08222222222221,117.27282065907401L114.21222222222222,117.2094472760958L114.51555555555557,119.32405535944655L114.86222222222221,117.57595646094798L114.93444444444444,118.2550523136096L115.02111111111111,118.58502276095744L115.41111111111111,117.66648924235867L115.7,118.485661909606L115.77222222222223,117.12739695946046L115.9888888888889,114.49246588470906L116.06111111111112,115.0318591834121L116.68222222222222,114.48188431033608L116.74000000000001,115.2833340585782L117.04333333333334,117.04088579401358L117.07222222222222,116.10633204354001L117.30333333333333,116.46870838843293L117.33222222222223,117.9566080085263L117.41888888888889,114.11704773379458L117.44777777777779,114.84473680263544L117.70777777777778,114.41496880443763L118.04,116.03477572764973L118.17,115.70169224437163L118.44444444444444,114.92645729534966L118.60333333333334,115.1358889704727L118.63222222222223,115.86561167331583L118.7188888888889,116.93692118872711L118.90666666666667,116.01977980919571L119.16666666666666,117.25888043021926L119.73,118.37888274959253L120.06222222222222,113.3720425155531L120.12,113.57026731386055L120.13444444444444,113.42649357987287L120.23555555555555,116.15404616950839L120.48111111111112,117.20963899602164L120.64,119.29700905725727L120.79888888888888,120.90911340495776L120.9,121.13164418143776L120.98666666666666,119.47093410772557L121.33333333333333,120.73250366980064L122.18555555555555,121.59852223224908L122.70555555555555,121.82737681830646L122.72,120.2773433772218L122.77777777777777,119.32059696211508L123.06666666666666,120.65158047018465L123.08111111111111,121.87829404636439L123.09555555555555,123.31108439175082L123.21111111111112,124.78577200227659L123.84666666666666,122.32848216647882L123.94777777777777,123.08240984081706L123.99111111111111,123.49601676774886L124.26555555555555,123.54034154191527L125.04555555555555,124.01114294579382L125.17555555555556,122.41489353728637L125.20444444444445,123.42721583370148L125.26222222222223,123.5921164088587L125.34888888888888,122.38063153159214L125.39222222222223,120.33046696396437L125.49333333333334,116.68918743428844L125.60888888888888,115.58022448911468L125.65222222222222,116.02924196731495L125.82555555555555,116.07813265784219L126.21555555555555,117.92284552035005L126.27333333333334,118.55001093943461L126.43222222222222,119.61133869885991L126.5911111111111,120.6406006656716L127.57333333333332,120.64395578619839L127.77555555555556,120.30206821685334L127.8911111111111,119.16640002554759L128.09333333333333,118.37063706308761L128.10777777777778,119.18999317306093L128.48333333333332,119.61911088542175L128.68555555555557,121.3211109500901L129.04666666666668,122.27386233497975L129.46555555555557,121.8990961527863L129.5088888888889,123.34984153619423L129.88444444444443,123.09668869475438L130.14444444444445,124.67498124536462L130.20222222222222,124.41235751649006L130.56333333333333,124.76549796858994L130.9388888888889,124.36393391694902L131.31444444444446,123.92189487529117L131.53111111111113,123.68028708141134L131.64666666666665,124.17794276267601L131.6611111111111,123.05444252846586L131.9788888888889,125.05641129005768L132.03666666666666,124.4857577550736L132.23888888888888,124.12111665025297L132.81666666666666,124.13336898181288L132.94666666666666,124.13300487760804L133.12,123.08896192869571L133.39444444444445,124.11805770130545L133.4377777777778,125.1872703595138L133.56777777777776,125.22868372402513L134.33333333333334,126.51900380613138L134.4922222222222,127.05246176374182L134.7522222222222,127.54957997845611L134.89666666666668,126.33300109613903L134.9111111111111,126.67744985340107L135.1711111111111,126.67703373835745L135.18555555555554,127.1886031976571L135.51777777777778,127.2408114998977L135.57555555555555,127.70272025563617L135.79222222222222,127.26800080923705L136.22555555555556,127.8108923373251L136.35555555555555,127.89297153789458L136.3988888888889,128.65832450636356L136.5,126.12690192444438L136.64444444444445,127.1809945575229L136.68777777777777,127.66373789555315L136.76000000000002,126.46402966534266L136.90444444444444,126.15964171952328L137.2511111111111,127.302991496189L137.38111111111112,127.52473880317197L137.65555555555557,128.0724718814401L137.9011111111111,127.70820917428638L138.79666666666668,128.19594506257437L139.30222222222224,127.91464043044675L139.54777777777778,128.29730355155402L139.6922222222222,128.86701597277394L139.76444444444445,129.42103287332918L139.92333333333335,128.97007204703124L140.01,128.08691172914837L140.11111111111111,128.43705777465058L140.3711111111111,128.0016857318568L140.44333333333333,127.51992310741602L140.51555555555555,128.60735037452466L140.77555555555554,128.83442965090777L140.93444444444444,128.8639929577356L140.9777777777778,129.823192905338L141.26666666666668,129.25859863743807L141.38222222222223,129.91849116418493L141.52666666666667,130.71282104492542L141.70000000000002,130.1362742336888L142.0322222222222,131.37847110401285L142.10444444444445,130.52585982839554L142.98555555555555,129.01275871996341L143,130.41818280707298L143.46222222222224,128.401826540511L144.08333333333334,127.62859755478938L144.19888888888892,128.2168901226624L144.31444444444443,128.72093689397312L144.32888888888888,128.4142754511019L144.82000000000002,127.27164251529996L144.9788888888889,128.77513652276437L145.1522222222222,127.67015880652565L145.39777777777778,126.8004669342849L146.26444444444445,127.19935547593289L146.61111111111111,127.22194099182633L147.04444444444445,126.46657338717851L147.10222222222222,127.44194805769138L147.30444444444444,126.93049530585485L147.55,126.53132226692196L147.63666666666666,124.61638638937376L148.24333333333334,125.00498540740057L148.47444444444443,126.26723789228424L148.63333333333333,125.56789783651382L148.76333333333335,126.247855297194L148.87888888888887,125.9748188260391L149.1677777777778,125.49745957747518L149.19666666666666,126.79173173400306L149.23999999999998,126.8524375323119L149.26888888888888,127.66129137217628L149.35555555555555,126.80737832810148L149.64444444444445,127.46272714862988L149.6877777777778,128.95290554897772L149.76,128.99064693652699L149.89000000000001,128.78176071269112L150.9011111111111,128.92177239544375L151.19,130.0260193798787L151.20444444444445,131.3571376153292L151.23333333333332,129.80831136176477L151.43555555555554,128.6688826595665L151.49333333333334,128.91886994872777L151.62333333333333,130.15438950397098L151.63777777777779,128.0824078152952L151.71,126.94965317719573L151.7822222222222,127.18663437816224L151.99888888888887,129.3997454598955L152.4466666666667,129.7784483485623L152.62,128.98608793231017L152.7211111111111,129.08730369214499L152.79333333333332,128.0165011041415L152.99555555555554,129.77384124640759L153.12555555555556,130.97625194589023L153.5011111111111,131.97388701643962L153.60222222222222,131.94584613679953L153.61666666666667,131.30680854461454L153.74666666666667,131.58800774886552L154.29555555555555,131.60019575158995L154.41111111111113,128.46795722186783L154.42555555555558,128.44189879469937L154.48333333333332,127.41754079913675L154.94555555555556,127.98717386672914L155.62444444444444,127.31348783474847L155.6822222222222,127.70802335836673L155.9422222222222,127.38610887668231L156.01444444444445,129.25941171242988L156.27444444444444,129.55420166977356L156.31777777777776,128.73733394267126L156.6211111111111,129.7479971338951L156.78,129.83200766715862L157.12666666666667,130.2041540049789L157.2277777777778,130.30731708602278L157.47333333333333,131.33411324173096L157.5022222222222,131.15567250518234L157.54555555555555,132.02979221828852L157.8488888888889,132.23145434259638L157.87777777777777,133.36308329667654L157.95000000000002,133.88052874004913L158.1088888888889,133.0880677449352L158.2822222222222,133.22298287678578L158.5277777777778,134.13582305771712L158.7877777777778,133.23450373804909L158.87444444444444,132.64111401051323L159.01888888888888,133.85604902971824L159.2788888888889,131.89571577955087L159.29333333333335,130.9487160747308L159.68333333333334,130.88945293372402L159.79888888888888,131.81280769723298L159.94333333333333,132.98301115270334L160.10222222222222,133.09414737693757L160.40555555555554,134.12759875302575L160.66555555555556,133.84919497179212L161.12777777777777,134.54878052532504L161.2288888888889,133.87533169005167L161.98,133.06114260202443L162.00888888888886,131.6500939732911L162.15333333333334,131.0754574026177L162.25444444444446,130.77605650924565L162.64444444444445,131.3738818558649L162.94777777777776,131.50734497043854L163.09222222222223,131.9237105505999L163.32333333333332,130.7649146886272L163.35222222222222,131.87499317471605L163.45333333333335,131.23461595094847L163.91555555555556,131.84887904019803L163.98777777777778,132.49387722759596L164.14666666666665,131.95293539425634L164.2188888888889,131.81597231058427L164.84,131.8705579506556L164.88333333333333,132.37795459301734L165.17222222222225,131.72494333947023L165.2588888888889,132.1728005677583L165.27333333333334,132.76089394388362L165.64888888888888,132.58953827091045L165.75,133.81349851510114L166.66,133.15844525005159L166.79,132.78166335617664L166.8911111111111,133.8991522164707L166.93444444444447,134.8296969030706L167.03555555555556,134.7099871832431L167.07888888888888,134.71771020377383L167.39666666666668,135.72364289644264L167.55555555555557,134.7197782143084L167.71444444444447,135.67631360289604L167.88777777777779,136.00703225557112L167.90222222222224,134.01953607488034L167.94555555555556,134.365336048797L168.29222222222222,134.2910390274813L168.3788888888889,134.07906870570923L168.7111111111111,131.72065318035845L168.85555555555555,131.95898522569394L168.9711111111111,133.20089232527837L169.85222222222222,132.920405494272L169.98222222222222,132.4260940853649L170.11222222222221,132.80776710578178L170.61777777777777,133.0911922760295L171.02222222222224,134.14333139228208L171.06555555555556,135.09152032134247L171.64333333333335,134.9700368849196L171.98999999999998,134.45921671658576L172.13444444444443,134.44194686058006L172.92888888888888,135.10907423574284L173.11666666666667,134.5757506404059L173.53555555555553,134.87239705148966L174.05555555555554,134.02219219566652L174.12777777777777,134.06866696614497L174.14222222222222,135.17412761540504L174.17111111111112,135.74362151148085L174.37333333333333,134.13102653645754L174.54666666666668,134.58319042710085L174.8788888888889,134.89155445558023L174.96555555555557,135.97262014206223L175.18222222222224,135.33900680075462L175.26888888888888,135.5560822288593L175.41333333333333,135.86792171269923L175.76000000000002,136.5812955913601L176.00555555555556,137.1525742708867L176.32333333333335,137.42046518285764L176.7711111111111,136.61573335969175L176.8722222222222,136.3720412999327L177.0311111111111,136.86182596600136L177.26222222222222,137.8493496221086L177.32000000000002,137.8012278004755L177.42111111111112,137.35462885947783L177.49333333333334,137.8850344892997L178.10000000000002,138.8131494021077L178.62,139.41467293958794L179.02444444444444,139.87375070063445L179.05333333333334,138.764957494875L179.0677777777778,138.7006943019955L179.09666666666666,138.73577064541865L179.18333333333334,139.00646575365897L179.31333333333333,139.53048006230253L179.39999999999998,138.2922428374187L179.47222222222223,138.0137354515221L179.89111111111112,135.84714185900194L180.09333333333333,136.07894416123L180.25222222222223,136.75886972601973L180.39666666666665,136.57251113391771L180.45444444444445,136.27424313256975L180.4688888888889,136.52643355760495L180.87333333333333,135.25950715936057L181.00333333333336,131.82728457116897L181.11888888888888,132.03490098811622L181.33555555555554,133.3720840634342L181.35,134.10237082368388L181.52333333333334,135.29553677579062L181.9711111111111,135.38603729618524L182.1011111111111,136.3156372429759L182.2888888888889,137.46278184764725L182.34666666666666,138.07199184333447L182.4188888888889,137.25346944145008L182.54888888888888,136.3954372326912L182.66444444444446,134.97088565776846L182.76555555555558,134.79148842078206L182.78,134.6531758082931L183.02555555555557,134.45813159767675L183.45888888888888,135.09185685708954L183.60333333333335,135.59755909305827L184.13777777777779,136.227527734397L184.26777777777778,136.70891622048185L184.2822222222222,137.06267028226532L184.3688888888889,137.02154144005644L184.6,135.36037920767401L184.7011111111111,135.67372242015833L185.10555555555555,135.95332999920194L185.12,136.35510672303516L185.25,136.32804567471376L185.32222222222222,137.3049953295427L185.4811111111111,137.50244548939403L185.61111111111111,136.9355967924376L185.81333333333333,137.18029906850805L185.97222222222223,137.20282175360364L186.36222222222221,137.8348255670377L186.40555555555557,137.15809197141172L186.53555555555556,138.25206441603203L186.89666666666668,138.09601043061969L186.95444444444445,138.8482154646539L187.08444444444444,139.2651228250849L187.2866666666667,139.77902686969526L187.37333333333333,138.52442531789487L187.4022222222222,136.6909019586573L187.89333333333335,136.50815637112495L187.98,137.1032447319635L188.0666666666667,136.13258821678835L188.09555555555556,135.0384379481747L188.11,136.3081010391242L188.25444444444446,135.87077948937159L188.32666666666668,133.8534155992045L188.5288888888889,133.94464335010812L188.6588888888889,134.2726582551969L188.89000000000001,133.90114828266792L189.25111111111113,134.80932690520697L189.52555555555554,134.21604878343794L189.65555555555557,134.89548995336446L189.91555555555556,134.70254388534195L190.30555555555554,135.38842912655588L190.63777777777779,136.55986119767724L190.66666666666666,136.88785583060277L190.6811111111111,136.81468549556035L191.4177777777778,135.93838490844945L191.53333333333333,136.24727835378116L191.57666666666668,136.31343370055777L191.70666666666665,137.36342055785718L192.25555555555556,137.8869620094954L192.70333333333332,138.32144516480298L192.99222222222224,138.35640766814447L193.19444444444446,138.5407026476554L193.26666666666665,137.86624000869222L193.71444444444444,138.3066136508699L193.83,138.48242765756757L193.85888888888888,139.48637615889058L194.35000000000002,139.7693466583037L194.39333333333335,139.33089746421206L194.59555555555556,139.9117614310357L194.63888888888889,138.34300890166585L194.79777777777778,139.18452955854391L194.88444444444443,138.30437608310126L195.28888888888886,138.4259360655184L195.33222222222224,139.08941351423314L195.34666666666666,137.7538893323278L195.43333333333334,138.0985177862335L195.4622222222222,138.62906214133764L195.70777777777778,138.58336145164844L195.82333333333332,138.86287099256168L195.95333333333335,138.1706179591084L196.17,137.69776920121822L196.4011111111111,138.50572001878808L196.96444444444444,137.04259139647036L197.13777777777779,136.74321791908764L197.16666666666666,135.58188439915705L197.3111111111111,136.36479895935238L197.47,136.07257542408044L197.5711111111111,135.32062251955486L197.67222222222225,135.20473958284848L197.70111111111112,133.5825253431142L197.94666666666666,134.8402879634228L198.2211111111111,135.23093527146716L198.7411111111111,134.88592128915607L198.88555555555556,135.98561215036497L199.1311111111111,136.29133438206426L199.2177777777778,137.29556136468756L199.34777777777776,137.66918174848692L199.7811111111111,137.01166612025597L200.11333333333334,134.67907655740626L200.12777777777777,133.9395526374813L200.38777777777779,134.6524893263538L200.79222222222222,135.00231942477527L200.86444444444444,135.68557091999483L201.0522222222222,136.2302168876289L201.25444444444446,136.71928925779025L201.37,136.63743069324136L201.44222222222223,137.2202837526591L201.4711111111111,137.88798141285568L201.48555555555555,137.81725583266197L201.77444444444447,138.68510343245546L201.84666666666666,138.5833188936183L202.04888888888888,138.2691310909618L202.19333333333333,138.19075505473606L202.26555555555555,136.53438509919135L202.36666666666667,135.44635525884993L202.64111111111112,136.09815457782966L202.81444444444443,137.51800299259995L203.32,138.34594272357566L203.45,139.3190401438618L204.14333333333335,140.37704410960637L204.21555555555554,141.11676072623328L204.4322222222222,140.75003154666615L204.5911111111111,140.24130357072343L204.64888888888888,140.86571144235495L204.88,139.8461049270808L205.06777777777776,139.53348334480935L205.35666666666668,139.5647716442544L205.48666666666668,139.9470988748291L205.60222222222222,139.58136543936567L205.89111111111112,137.50109661661583L206.12222222222223,137.1797233529094L206.4111111111111,137.43349798651036L206.45444444444445,138.3157013232676L206.68555555555557,138.43749594996217L206.91666666666666,139.46453394007875L207.07555555555555,138.84722231455285L207.94222222222223,138.87196942698503L208.07222222222222,139.23501464073914L208.08666666666667,138.94716278921118L208.52,138.49322174015472L208.79444444444442,139.32600466463842L208.83777777777777,139.73771071614647L209.15555555555554,138.4426491078103L209.79111111111112,138.78151059131434L210.09444444444443,138.262313615109L210.18111111111114,138.92574404750562L210.21,139.73944715493454L210.51333333333332,140.61970430447172L210.8311111111111,140.0897293486545L211.25,140.56372132286572L211.91444444444443,140.9925822020898L212.14555555555557,141.12966900082398L212.31888888888886,141.37669436246924L213.17111111111112,140.03455669515358L213.40222222222224,140.89993776562866L213.85,141.54643079255771L213.96555555555557,141.05873027265014L214.26888888888888,141.29997944041705L214.63,142.27051229726095L214.70222222222225,142.22955683111223L214.89000000000001,141.41181939259334L215.07777777777778,141.15959588362426L215.16444444444446,141.21057873540073L215.7711111111111,140.72061319764114L215.78555555555556,141.6334443043082L215.85777777777778,141.7242779071498L216.07444444444445,141.90247776162272L216.91222222222223,140.4363966893469L217.15777777777777,141.06865666609838L217.54777777777778,140.96103546856162L217.5622222222222,141.41106728535047L217.67777777777778,142.1943776685897L217.85111111111112,142.25347233325374L217.89444444444445,141.8504606736281L218.02444444444447,142.34593054476585L218.2411111111111,142.79204152863113L218.29888888888888,142.55564364615546L218.32777777777778,142.7102375425344L218.54444444444442,142.59001574427228L218.80444444444444,142.93232091889752L219.06444444444443,142.100627833241L219.2811111111111,142.4814545453625L219.42555555555558,142.07531152337128L219.4688888888889,142.09861958310736L219.64222222222222,141.43037323114436L219.65666666666667,142.25495637782524L219.71444444444444,141.9010031732781L220.11888888888888,142.57190740736758L220.49444444444444,142.606156887967L220.97111111111113,142.98432512858452L221.1877777777778,143.39166823361694L221.70777777777778,141.5059502250712L221.78,140.91444265386312L222.47333333333333,140.7895500294377L222.53111111111113,140.70627436626043L222.82,141.39557894530503L223.51333333333335,141.86857989844034L223.5277777777778,142.21842074600903L223.90333333333334,142.5920454840254L223.94666666666666,143.45945999827833L224.55333333333334,143.1571666812847L224.78444444444443,143.01814299500867L225.29000000000002,142.69177149841383L225.50666666666666,142.52118397353365L225.6222222222222,142.7559259865527L225.69444444444446,143.49619966187018L225.70888888888888,143.60382259614744L226.18555555555554,144.33024596427606L226.43111111111114,144.35494317507664L226.47444444444446,144.71144913325372L226.51777777777778,145.00080900808865L226.70555555555555,145.50439198426366L227.09555555555556,146.0260519236402L227.35555555555555,145.79348984609732L227.45666666666668,146.12648930177707L227.55777777777777,145.5976269148097L227.87555555555556,145.8613140851665L228.17888888888888,146.3179742677378L228.36666666666665,144.42363003939695L228.87222222222223,144.00181872955903L229.20444444444445,143.7460140941615L229.24777777777777,143.49357748981325L229.43555555555557,142.50917238884907L229.49333333333334,142.75266710954605L229.58,143.01344644924598L230.20111111111112,143.0702347289576L230.21555555555557,143.0222246267347L230.48999999999998,143.80099489518207L230.53333333333336,143.30612514156815L230.64888888888888,142.93352926570353L230.66333333333333,143.70850780690736L230.67777777777778,143.55661846640893L230.76444444444445,143.8075183759021L231.05333333333334,143.59403286677914L231.0822222222222,143.91871875248438L231.34222222222223,144.57638663301742L232.06444444444443,145.31792590146154L232.26666666666665,145.2619629516774L232.35333333333335,143.27631697056518L232.84444444444443,142.20520768329214L233.43666666666667,141.18256225508028L233.8411111111111,140.31919043086717L234.2311111111111,140.55999003854532L234.30333333333334,140.79517898267932L234.39,140.50805275482386L234.72222222222223,141.8286146803022L235.08333333333334,142.13161130762649L235.2566666666667,142.12556022188627L235.2711111111111,142.64396294557457L235.35777777777778,142.49751943425733L235.48777777777778,142.2321425679865L235.73333333333332,142.9467982823506L235.90666666666667,143.21982333633994L235.9933333333333,143.2230621283219L236.28222222222223,143.90548127089633L236.34,144.2320042566315L236.68666666666667,143.9036534151372L236.71555555555554,143.67771131682827L236.84555555555556,143.43689435256442L237.56777777777776,143.93981758368972L237.91444444444443,142.0913361196882L237.92888888888888,142.20856947302653L238.24666666666667,142.91081750664299L238.7522222222222,143.113548419004L238.76666666666668,143.14983859096577L239.11333333333332,142.63427542737276L239.14222222222222,142.6344652439028L239.15666666666667,143.17779363725415L239.59,143.76049702512339L239.95111111111112,143.6958946476288L239.99444444444444,144.31398013127344L240.02333333333334,143.8452664027934L240.24,143.68434129350308L240.32666666666668,143.71056711813108L240.61555555555555,142.84019657763773L240.76000000000002,143.8840411513743L240.77444444444444,143.7709364787136L240.89,144.41478728478367L240.9477777777778,144.41141331099166L241.03444444444443,144.84333577201522L241.26555555555555,143.95261263484275L241.88666666666666,144.4910639160646L242.06,143.99789526532712L242.21888888888887,144.06238680041724L242.36333333333334,144.7426795187381L242.37777777777777,143.59537423589248L242.43555555555554,144.10960643931801L242.49333333333334,143.41786920627075L242.5511111111111,143.96242174165224L242.79666666666665,143.9954193895833L242.88333333333335,144.13415402795195L242.94111111111113,143.63805010414242L242.97,144.43023042443568L243.3311111111111,144.85221235212543L243.60555555555555,145.2130724914985L243.70666666666668,144.8526069997389L243.72111111111113,144.68092203379751L243.95222222222222,144.73384940773553L243.99555555555554,145.34875065338557L244.45777777777778,145.6373152086478L244.47222222222223,144.27451253742714L244.48666666666668,144.3762125504977L244.83333333333334,144.40493607683348L245.03555555555556,144.72428901838293L245.54111111111112,145.22827110418672" style="fill: none;" fill="none"></path></g></g></g></g><g opacity="0.2"><g><g><g><path stroke="rgb(255, 112, 67)" stroke-width="2px" d="M30.246666666666666,-75.14557213253444L31.127777777777776,50.36230447557238L31.171111111111113,-65.47829241222804L31.301111111111112,61.28816885418364L32.196666666666665,51.19075128767225L32.26888888888889,-49.881410174899635L32.572222222222216,-21.77226501040989L32.644444444444446,28.140229013231068L32.745555555555555,-8.329490661621094L32.83222222222222,-19.87316539552479L33.337777777777774,51.559836626052856L33.36666666666667,-142.21897241804336L33.48222222222222,15.862674607170964L33.90111111111111,29.18448742230734L34.190000000000005,-15.098338233100051L35.73555555555556,-1.4543817838032909L36.63111111111111,51.583425362904876L37.02111111111111,63.452792061699775L37.25222222222222,17.34270575311449L37.35333333333333,64.26833638879988L37.367777777777775,53.094354099697554L37.84444444444444,-15.931901242997894L38.04666666666667,0.2224107848273471L38.162222222222226,94.22185317675275L38.23444444444444,-13.71551484531826L38.263333333333335,51.39508091078865L38.43666666666667,51.071616967519134L38.581111111111106,27.4248808224996L39.202222222222225,42.43029994434782L39.31777777777778,44.97697581185236L39.43333333333334,20.97677405675253L39.80888888888889,62.20343777868482L39.93888888888889,39.9618288146125L39.99666666666666,83.53577815161812L40.025555555555556,-2.1942028469509505L40.22777777777778,60.11100718710157L40.25666666666666,-5.19452277819313L40.473333333333336,-33.71582836574978L40.56,47.08312818739149L40.964444444444446,64.10317397117615L42.01888888888889,-6.353589137395209L42.495555555555555,35.603087637159575L42.53888888888889,47.47748801443311L42.784444444444446,61.134252640936104L42.91444444444445,88.7614908748203L42.928888888888885,31.94349728690254L43.01555555555556,82.75799820158217L43.03,48.70958397123548L43.102222222222224,66.00410669379765L43.36222222222222,0.36607691976760925L43.40555555555556,66.71916606691148L43.535555555555554,56.49379640155369L44.24333333333333,82.14753795994653L44.28666666666667,59.59698845280543L44.373333333333335,72.59236073493958L44.46,36.20558476448059L44.532222222222224,79.86803607145947L44.67666666666667,4.24967185656231L44.763333333333335,37.06167554855347L44.83555555555556,73.1270446644889L45.586666666666666,35.27218516667685L45.65888888888889,59.30348491668701L45.67333333333333,87.14681177669102L45.93333333333333,13.809700038697986L46.12111111111111,32.123483710818824L46.30888888888889,60.672008885277656L46.85777777777778,16.33797409799364L47.10333333333333,-6.614303032557143L47.39222222222222,35.49095567067465L47.58,51.19671625561186L47.89777777777778,63.649659580654586L47.941111111111105,24.898846573299846L48.14333333333334,57.852076186074164L48.20111111111111,-32.44536092546253L48.894444444444446,70.30715322494507L48.995555555555555,72.9751324918535L49.31333333333334,-3.767080015606346L49.486666666666665,16.796203878190784L49.63111111111111,63.34768013159435L50.06444444444445,35.72738530900744L50.22333333333333,81.9769646326701L50.33888888888889,10.205739498138428L50.425555555555555,44.27413519223532L50.88777777777778,65.39980003568861L50.94555555555556,69.34356334474352L51.306666666666665,49.28324649069044L51.53777777777778,93.36641665299734L51.55222222222222,59.33288537131416L51.76888888888889,1.4305407736036688L51.82666666666667,20.179543124304885L52.07222222222222,37.529324319627555L52.577777777777776,24.23315143585205L52.693333333333335,19.939753770828247L52.98222222222222,49.75477366977268L53.184444444444445,75.69552920924293L53.31444444444444,47.514562765757255L53.40111111111111,83.3304229312473L53.47333333333333,25.855139387978458L53.574444444444445,64.03546097543504L53.70444444444444,72.63611955112883L53.906666666666666,51.10502550337049L53.93555555555555,44.27412340376114L53.97888888888889,33.89927588568794L54.108888888888885,44.758747577667236L54.614444444444445,47.69513861338299L54.96111111111111,50.08595906363594L55.26444444444444,73.29696373144787L55.52444444444444,-3.266022708680877L55.654444444444444,0.6536803245544434L55.842222222222226,66.137045317226L55.885555555555555,74.33170294761658L56.00111111111111,43.12934467527603L56.57888888888889,44.975773387485084L56.824444444444445,62.282562017440796L56.96888888888889,56.91122627258301L57.01222222222222,45.07337016529509L57.30111111111111,53.63959460788303L57.53222222222222,54.74303115738764L57.79222222222222,33.08096716139053L57.965555555555554,92.95031298531427L58.21111111111111,59.46260574128893L58.297777777777775,57.62322653664484L58.644444444444446,63.871106068293265L58.83222222222222,79.84402884377374L58.87555555555556,66.58632175127667L58.89,65.42012336519029L59.00555555555556,30.56672138637968L59.06333333333333,70.25889121161568L59.16444444444445,49.97683315806919L59.87222222222222,97.14814149008858L59.93,72.88823964860704L60.03111111111111,58.25414567523533L60.16111111111111,55.15364729033577L60.47888888888889,59.5146164894104L60.53666666666667,61.9066806236903L60.65222222222222,80.78277451462218L60.76777777777778,77.07952555020651L60.82555555555556,83.93405175209045L61.114444444444445,57.86446587244671L61.18666666666667,58.653939988878044L61.20111111111111,82.6437030500836L61.27333333333333,88.46215793821547L61.446666666666665,77.05896645122105L61.489999999999995,53.81550221972996L61.562222222222225,60.709614117940276L61.836666666666666,54.67344379425049L62.06777777777778,61.606563753551924L62.21222222222222,71.15443801879883L62.385555555555555,93.88618816269769L62.761111111111106,60.40415117475721L62.89111111111111,33.16349826918709L63.39666666666667,84.71999522050223L63.41111111111111,38.25930200682747L63.44,70.5131568113963L64.07555555555555,48.15557283825346L64.19111111111111,75.6935310628679L64.32111111111111,64.39350051350065L64.35,73.39996552467346L64.42222222222223,14.811496363745803L64.78333333333333,84.9039366775089L64.79777777777778,52.279829475614754L64.94222222222221,64.68584288491144L64.97111111111111,66.68727824423048L65.04333333333332,60.66763536135357L65.24555555555557,72.35875443617505L65.33222222222221,55.119272099600906L65.46222222222222,22.658187707265224L65.67888888888889,66.5862863858541L65.76555555555557,54.500648339589446L66.44444444444444,70.44727102915448L66.53111111111112,75.34874176979065L66.77666666666667,122.83664136462743L66.86333333333333,94.99040275149876L67.57111111111111,64.97895150714452L67.67222222222222,44.893914222717285L67.74444444444444,80.30314865377214L67.93222222222222,68.9346565405528L68.46666666666665,67.98183543152281L68.66888888888889,87.65735291110146L69.17444444444445,105.63993350664776L70.37333333333333,114.89244165685442L70.50333333333333,85.46247458457947L70.63333333333334,87.28611028194427L70.72,90.84564595752293L71.06666666666666,106.6879406505161L71.74555555555555,55.202887747022835L71.86111111111111,47.80230763223437L72.38111111111111,80.44244126478833L72.61222222222223,106.38757032818263L72.65555555555555,95.79592098130121L72.77111111111111,33.081650892893485L72.81444444444445,70.74043859375848L73.16111111111111,110.67939128478369L73.21888888888888,102.42964316738977L73.65222222222222,78.35949450069005L74.20111111111112,8.024117310841884L74.46111111111112,100.55659608046216L74.54777777777778,94.14892967542013L74.77888888888889,62.280569765302864L75.03888888888889,113.58025480641258L75.05333333333334,51.80361048380535L75.54444444444445,116.12523902787102L75.68888888888888,60.890791177749634L75.73222222222223,103.1628980504142L75.74666666666667,78.46961063808867L75.77555555555556,72.36035177442763L75.78999999999999,58.7290325694614L76.1511111111111,97.63335508770412L76.62777777777778,87.79681645499336L77.20555555555556,47.7120197084215L77.65333333333334,81.24406340387132L78.04333333333334,98.31816523604924L78.11555555555556,92.76163845592076L78.43333333333334,99.20583144823712L78.70777777777778,75.1731996006436L78.92444444444445,67.66319886843365L79.15555555555557,59.37970329655543L79.57444444444445,89.92448279592728L79.61777777777777,96.84225416183472L79.97888888888889,74.53910936249628L80.35444444444444,76.5046547121472L80.6,102.2565353181627L80.88888888888889,114.71572064028847L81.14888888888889,98.87921408812207L81.17777777777778,123.93027579784393L81.20666666666668,82.52914855215285L81.29333333333332,62.62073797649809L81.69777777777779,91.48177560170492L81.9,4.623967700534401L82.7088888888889,27.193084054523048L82.76666666666668,98.75104390250313L82.92555555555555,111.47307978073758L83.37333333333333,96.42052739196355L83.4888888888889,103.24894212351906L83.67666666666668,87.83965577019586L83.7488888888889,100.47391172250113L83.98,84.17624595430162L84.05222222222223,91.52600006262463L84.08111111111111,88.379632724656L84.22555555555554,66.03558781411913L84.28333333333333,105.63375634617275L84.70222222222222,120.50535860326555L84.87555555555555,102.42734441492294L85.62666666666667,109.66289178530377L85.78555555555555,86.23539768324959L86.03111111111112,83.61473735173544L86.43555555555555,109.98365616798401L86.81111111111112,95.20188208421072L86.98444444444445,102.54430965582532L87.14333333333333,86.86044616169401L87.18666666666667,115.66512309180366L88.01,98.17656797832912L88.08222222222223,119.06681699222987L88.09666666666666,64.72887081570097L88.24111111111111,112.0281577706337L89.29555555555555,120.39491238858965L89.45444444444445,122.60708440674675L89.46888888888888,94.57322043842738L89.49777777777777,47.834030416276725L89.57,74.93623948097229L89.58444444444444,123.0704303847419L89.94555555555556,73.29513651794859L90.01777777777778,62.47360603014629L90.06111111111112,111.5820435947842L90.17666666666666,79.27161590258282L90.46555555555555,110.69838546382057L90.50888888888889,95.11551382806566L90.52333333333334,100.8168738020791L90.74,85.54491727881963L91.05777777777777,97.3634815480974L91.24555555555555,119.12189863787758L91.27444444444444,101.8722664250268L91.46222222222222,110.55328702926636L91.99666666666667,102.76813741525015L92.34333333333333,85.06604588031769L92.44444444444444,100.9543215168847L92.5311111111111,132.5801748302248L92.87777777777778,114.65098423428005L92.9211111111111,97.24498969978755L93.77333333333334,111.51943500836691L94.01888888888888,92.9801378250122L94.03333333333335,100.07457715935176L94.32222222222222,130.10949336157907L94.36555555555556,113.87411789099377L94.49555555555555,108.28115883138445L95.01555555555557,115.5310851931572L95.05888888888889,65.13142952654097L95.28999999999999,81.1166476806005L95.73777777777778,96.166827638944L96.14222222222222,101.19869658682083L96.25777777777778,92.5039070447286L96.31555555555556,120.42299253410762L96.43111111111111,114.13948823346031L96.59,84.90089525116815L96.96555555555557,102.98177993297577L97.03777777777778,116.65797196494209L97.2688888888889,97.97349382771387L97.5,92.12503727277121L97.61555555555556,119.53377319044536L97.74555555555557,104.69882424672446L97.87555555555556,107.54388997289871L98.03444444444443,73.81705352995131L98.0488888888889,83.40367650985718L98.22222222222221,108.61036965582107L98.25111111111111,69.15895583894518L98.8,122.17980526553261L98.97333333333333,118.30281776852077L99.24777777777778,104.4839321507348L99.58,107.78909023602804L99.86888888888889,116.61026695701813L100.56222222222222,108.54457818137276L100.69222222222223,129.3058141337501L100.73555555555555,116.37448273764717L100.76444444444444,134.08707338240413L101.50111111111111,129.87415710422727L101.54444444444444,103.38591240512001L101.83333333333333,119.95521703693603L101.86222222222223,122.74654500352013L101.87666666666667,121.60159239504074L101.97777777777779,92.61209576659734L102.23777777777777,123.05119748910269L102.64222222222223,123.46715085373985L102.93111111111111,112.55842102236217L103.04666666666667,117.3885803355111L103.49444444444444,123.0437589618895L103.74000000000001,138.6171364552445L104,120.48294576671388L104.11555555555556,121.69047749042511L104.56333333333333,124.11771548456615L104.95333333333333,118.59006457196342L105.28555555555556,106.89844743410748L105.70444444444445,118.34668268097771L105.86333333333333,88.66904566023085L106.09444444444445,93.87285539839004L106.29666666666667,93.41608738899231L106.6,86.78057924906415L107.17777777777778,130.73042766253155L107.49555555555555,112.111920773983L107.56777777777778,117.73363781637615L108.10222222222222,124.75276353624132L108.2611111111111,108.40300450060104L108.34777777777778,117.4170966545741L108.55,133.6316743095716L108.57888888888888,94.64134013652802L109.0411111111111,136.0842280520333L109.38777777777777,99.81470024585724L109.5611111111111,118.79463585880067L109.59,101.87288531992172L109.67666666666666,87.83696210384369L109.85,104.58051511976456L110.21111111111111,118.19483534495038L110.61555555555556,121.44868409633636L110.64444444444445,111.88250233067406L110.70222222222222,99.82274587949118L110.91888888888889,122.12554291884106L111.5111111111111,126.58126787344617L111.55444444444446,104.3696546819475L112.32,126.74623578124577L112.36333333333333,106.7737253771888L112.50777777777778,126.8881159623464L112.76777777777778,110.44463266266717L112.78222222222222,119.16278401348328L113.02777777777779,128.22502913739947L113.07111111111111,94.83154716756609L113.56222222222222,131.72714610232245L113.5911111111111,118.63340784443749L113.69222222222221,112.78525778982376L114.08222222222221,132.3095998764038L114.21222222222222,116.63908682929146L114.51555555555557,138.35552810960345L114.86222222222221,101.84306637446088L114.93444444444444,124.36691498756409L115.02111111111111,121.55475678708818L115.41111111111111,109.3996875749694L115.7,125.85821591483223L115.77222222222223,104.90301240815057L115.9888888888889,90.77808621194627L116.06111111111112,119.88639887173971L116.68222222222222,109.53211045265198L116.74000000000001,122.49638179275726L117.04333333333334,132.8588514129321L117.07222222222222,107.69534828927782L117.30333333333333,119.73009549246895L117.33222222222223,131.3477045893669L117.41888888888889,79.56100526120927L117.44777777777779,121.39393842220306L117.70777777777778,110.54705682065752L118.04,130.61303803655835L118.17,112.70394089486864L118.44444444444444,107.94934275415208L118.60333333333334,117.02077404658002L118.63222222222223,122.43311599890393L118.7188888888889,126.5787068274286L118.90666666666667,107.76550739341313L119.16666666666666,128.41078601943124L119.73,128.45890362395178L120.06222222222222,68.31048040919835L120.12,115.35429049862755L120.13444444444444,112.13252997398376L120.23555555555555,140.7020194762283L120.48111111111112,126.70997443464067L120.64,138.08333960837788L120.79888888888888,135.41805253426233L120.9,123.13442116975784L120.98666666666666,104.52454344431561L121.33333333333333,132.08662972847623L122.18555555555555,129.39268929428525L122.70555555555555,123.88706809282303L122.72,106.32704240745967L122.77777777777777,110.70987922615474L123.06666666666666,132.63043204281064L123.08111111111111,132.91871623198193L123.09555555555555,136.20619750022888L123.21111111111112,138.05796049700845L123.84666666666666,100.21287364429897L123.94777777777777,129.86775890986127L123.99111111111111,127.21847911013496L124.26555555555555,123.939264509413L125.04555555555555,128.24835558070075L125.17555555555556,108.04864886071947L125.20444444444445,132.53811650143732L125.26222222222223,125.07622158527374L125.34888888888888,111.47726763619316L125.39222222222223,101.87898585531448L125.49333333333334,83.91767166720497L125.60888888888888,105.59955798255073L125.65222222222222,120.07039927111732L125.82555555555555,116.51814887258743L126.21555555555555,134.52526128292084L126.27333333333334,124.19449971119565L126.43222222222222,129.1632885336876L126.5911111111111,129.90395836697687L127.57333333333332,120.67415187093948L127.77555555555556,117.22508009274802L127.8911111111111,108.94538630379571L128.09333333333333,111.20877040094798L128.10777777777778,126.5641981628206L128.48333333333332,123.481170296669L128.68555555555557,136.63911153210532L129.04666666666668,130.84862479898663L129.46555555555557,118.52620051304501L129.5088888888889,136.4065499868658L129.88444444444443,120.81831312179565L130.14444444444445,138.87961420085696L130.20222222222222,122.04874395661885L130.56333333333333,127.94376203748917L130.9388888888889,120.74985745218065L131.31444444444446,119.94354350037044L131.53111111111113,121.50581693649292L131.64666666666665,128.6568438940578L131.6611111111111,112.9429404205746L131.9788888888889,143.07413014438418L132.03666666666666,119.3498759402169L132.23888888888888,120.83934670686722L132.81666666666666,124.24363996585211L132.94666666666666,124.12972793976468L133.12,113.69257538848454L133.39444444444445,133.3799196547932L133.4377777777778,134.81018428338896L133.56777777777776,125.60140400462681L134.33333333333334,138.13188454508781L134.4922222222222,131.85358338223566L134.7522222222222,132.02364391088486L134.89666666666668,115.3837911552853L134.9111111111111,129.77748866875964L135.1711111111111,126.67328870296478L135.18555555555554,131.79272833135394L135.51777777777778,127.7106862200631L135.57555555555555,131.85989905728232L135.79222222222222,123.35552579164505L136.22555555555556,132.69691609011758L136.35555555555555,128.63168434302014L136.3988888888889,135.54650122258397L136.5,103.34409868717194L136.64444444444445,136.66782825522952L136.68777777777777,132.0084279378255L136.76000000000002,115.66665559344823L136.90444444444444,123.42015020714867L137.2511111111111,137.59313948618043L137.38111111111112,129.52046456601886L137.65555555555557,133.00206958585315L137.9011111111111,124.42984480990303L138.79666666666668,132.58556805716623L139.30222222222224,125.38289874129826L139.54777777777778,131.74127164151935L139.6922222222222,133.99442776375346L139.76444444444445,134.40718497832617L139.92333333333335,124.91142461034988L140.01,120.13846886820262L140.11111111111111,131.5883721841706L140.3711111111111,124.08333734671277L140.44333333333333,123.1840594874488L140.51555555555555,138.39419577850234L140.77555555555554,130.87814313835568L140.93444444444444,129.13006271918613L140.9777777777778,138.4559924337599L141.26666666666668,124.17725022633871L141.38222222222223,135.8575239049064L141.52666666666667,137.86178997159004L141.70000000000002,124.94735293255913L142.0322222222222,142.55824293692908L142.10444444444445,122.85235834783977L142.98555555555555,115.39484874407452L143,143.06699959105916L143.46222222222224,110.2546201414532L144.08333333333334,120.66953668329452L144.19888888888892,133.51152323351968L144.31444444444443,133.25735783576965L144.32888888888888,125.65432246526083L144.82000000000002,116.98794609308243L144.9788888888889,142.3065825899442L145.1522222222222,117.72535936037701L145.39777777777778,118.9732400841183L146.26444444444445,130.7893523507648L146.61111111111111,127.42521063486737L147.04444444444445,119.66826494534811L147.10222222222222,136.22032009230722L147.30444444444444,122.32742053932613L147.55,122.93876491652595L147.63666666666666,107.38196349143982L148.24333333333334,128.50237656964194L148.47444444444443,137.62751025623746L148.63333333333333,119.27383733457988L148.76333333333335,132.3674724433157L148.87888888888887,123.51749058564505L149.1677777777778,121.20122634039986L149.19666666666666,138.44018114275403L149.23999999999998,127.39878971709145L149.26888888888888,134.9409759309557L149.35555555555555,119.12216093142828L149.64444444444445,133.3608665333854L149.6877777777778,142.36451115210852L149.76,129.33031942447025L149.89000000000001,126.90178469816846L150.9011111111111,130.18187754021753L151.19,139.96424223979315L151.20444444444445,143.3372017343839L151.23333333333332,115.8688750796848L151.43555555555554,118.41402433978188L151.49333333333334,131.16875555117923L151.62333333333333,141.2740655011601L151.63777777777779,109.43457261721295L151.71,116.75486143430075L151.7822222222222,129.31946518686084L151.99888888888887,149.31774519549478L152.4466666666667,133.18677434656354L152.62,121.8548441860411L152.7211111111111,129.9982455306583L152.79333333333332,118.37927781211006L152.99555555555554,145.5899025268025L153.12555555555556,141.79794824123383L153.5011111111111,140.95260265138415L153.60222222222222,131.69347822003894L153.61666666666667,125.55547021494972L153.74666666666667,134.1188005871243L154.29555555555555,131.7098877761099L154.41111111111113,100.27781045436859L154.42555555555558,128.20737295018304L154.48333333333332,118.19831883907318L154.94555555555556,133.11387147506076L155.62444444444444,121.25031354692247L155.6822222222222,131.2588430709309L155.9422222222222,124.48887854152257L156.01444444444445,146.119137234158L156.27444444444444,132.2073112858666L156.31777777777776,121.38552439875072L156.6211111111111,138.8439658549097L156.78,130.58810246653027L157.12666666666667,133.55347104536165L157.2277777777778,131.23578481541742L157.47333333333333,140.57527864310475L157.5022222222222,129.54970587624442L157.54555555555555,139.89686963624425L157.8488888888889,134.04641346136728L157.87777777777777,143.54774388339786L157.95000000000002,138.53753773040242L158.1088888888889,125.95591878890991L158.2822222222222,134.43721906344095L158.5277777777778,142.35138468609918L158.7877777777778,125.12262986103696L158.87444444444444,127.30060646269058L159.01888888888888,144.79046420256296L159.2788888888889,114.25271652804481L159.29333333333335,122.42571873135036L159.68333333333334,130.35608466466266L159.79888888888888,140.12300056881375L159.94333333333333,143.51484225193659L160.10222222222222,134.0943733950456L160.40555555555554,143.4286611378193L160.66555555555556,131.3435609406895L161.12777777777777,140.8450505071216L161.2288888888889,127.81429217259091L161.98,125.73344080977971L162.00888888888886,118.95065631469092L162.15333333333334,125.90372826655707L162.25444444444446,128.0814484688971L162.64444444444445,136.75430997543864L162.94777777777776,132.70851300160092L163.09222222222223,135.67100077205234L163.32333333333332,120.33575193087262L163.35222222222222,141.86569954951605L163.45333333333335,125.47122093704012L163.91555555555556,137.377246843444L163.98777777777778,138.29886091417737L164.14666666666665,127.08445889419978L164.2188888888889,130.58330455753537L164.84,132.3618287112978L164.88333333333333,136.9445243742731L165.17222222222225,125.84784205754599L165.2588888888889,136.2035156223509L165.27333333333334,138.05373432901172L165.64888888888888,131.04733721415204L165.75,144.82914071281752L166.66,127.26296586460536L166.79,129.39062631130219L166.8911111111111,143.95655195911726L166.93444444444447,143.20459908246994L167.03555555555556,133.6325997047954L167.07888888888888,134.78721738855043L167.39666666666668,144.77703713046182L167.55555555555557,125.68499607510036L167.71444444444447,144.28513210018477L167.88777777777779,138.98350012964673L167.90222222222224,116.1320704486635L167.94555555555556,137.47753581404686L168.29222222222222,133.62236583564015L168.3788888888889,132.17133580976062L168.7111111111111,110.49491345220143L168.85555555555555,134.1039736337132L168.9711111111111,144.37805622153812L169.85222222222222,130.39602401521472L169.98222222222222,127.97729140520096L170.11222222222221,136.24282428953381L170.61777777777777,135.64201880825888L171.02222222222224,143.6125834385554L171.06555555555556,143.62522068288592L171.64333333333335,133.8766859571139L171.98999999999998,129.8618352015813L172.13444444444443,134.28651815652847L172.92888888888888,141.11322061220804L173.11666666666667,129.77583828237323L173.53555555555553,137.5422147512436L174.05555555555554,126.37034849325818L174.12777777777777,134.48693990045123L174.14222222222222,145.12327345874576L174.17111111111112,140.86906657616296L174.37333333333333,119.61767176124786L174.54666666666668,138.6526654428906L174.8788888888889,137.66683071189456L174.96555555555557,145.70221132040024L175.18222222222224,129.63648672898609L175.26888888888888,137.50976108180154L175.41333333333333,138.67447706725864L175.76000000000002,143.00166049930783L176.00555555555556,142.29408238662612L176.32333333333335,139.8314833905962L176.7711111111111,129.37314695119858L176.8722222222222,134.1788127621015L177.0311111111111,141.2698879606194L177.26222222222222,146.73706252707373L177.32000000000002,137.3681314057774L177.42111111111112,133.3352383904987L177.49333333333334,142.6586851576964L178.10000000000002,147.16618361737994L178.62,144.82838477691016L179.02444444444444,144.00545055005284L179.05333333333334,128.78581864304013L179.0677777777778,138.1223255660799L179.09666666666666,139.05145773622723L179.18333333333334,141.44272172782155L179.31333333333333,144.2466088400947L179.39999999999998,127.14810781346428L179.47222222222223,135.50716897845268L179.89111111111112,116.34779952632057L180.09333333333333,138.16516488128238L180.25222222222223,142.87819980912738L180.39666666666665,134.89528380499948L180.45444444444445,133.58983112043805L180.4688888888889,138.79614738292165L180.87333333333333,123.8571695751614L181.00333333333336,100.93728127744463L181.11888888888888,133.90344874064127L181.33555555555554,145.40673174129594L181.35,140.67495166593127L181.52333333333334,146.03403034475116L181.9711111111111,136.20054197973676L182.1011111111111,144.68203676409192L182.2888888888889,147.7870832896895L182.34666666666666,143.55488180451923L182.4188888888889,129.88676782449085L182.54888888888888,128.67314735386105L182.66444444444446,122.1499214834637L182.76555555555558,133.17691328790454L182.78,133.40836229589252L183.02555555555557,132.7027337021298L183.45888888888888,140.79538419180446L183.60333333333335,140.14887921677698L184.13777777777779,141.89724550644556L184.26777777777778,141.04141259524556L184.2822222222222,140.2464568383164L184.3688888888889,136.6513818601767L184.6,120.40991911623215L184.7011111111111,138.4938113325172L185.10555555555555,138.46979821059438L185.12,139.971097237534L185.25,136.0844962398211L185.32222222222222,146.0975422230032L185.4811111111111,139.2794969280561L185.61111111111111,131.83395851982962L185.81333333333333,139.38261955314212L185.97222222222223,137.4055259194639L186.36222222222221,143.52285988794435L186.40555555555557,131.06748961077798L186.53555555555556,148.0978164176146L186.89666666666668,136.69152456190852L186.95444444444445,145.61806077096196L187.08444444444444,143.0172890689638L187.2866666666667,144.40416327118874L187.37333333333333,127.23301135169136L187.4022222222222,120.18919172551897L187.89333333333335,134.86344608333377L187.98,142.45903997951083L188.0666666666667,127.39667958021164L188.09555555555556,125.19108553065193L188.11,147.73506885766983L188.25444444444446,131.93488554159802L188.32666666666668,115.69714058770073L188.5288888888889,134.76569310824075L188.6588888888889,137.22479240099588L188.89000000000001,130.5575585299068L189.25111111111113,142.98293450805875L189.52555555555554,128.8765456875165L189.65555555555557,141.01046048270334L189.91555555555556,132.96602927313913L190.30555555555554,141.56139629748134L190.63777777777779,147.10274983776938L190.66666666666666,139.83980752693284L190.6811111111111,136.1561524801784L191.4177777777778,128.0516796244515L191.53333333333333,139.0273193617662L191.57666666666668,136.90883182154764L191.70666666666665,146.8133022735516L192.25555555555556,142.5988350742393L192.70333333333332,142.2317935625712L192.99222222222224,138.67107019821802L193.19444444444446,140.19935746325385L193.26666666666665,131.79607625802356L193.71444444444444,142.2699764304691L193.83,140.06475371784634L193.85888888888888,148.52191267079778L194.35000000000002,142.31608115302194L194.39333333333335,135.38485471738707L194.59555555555556,145.13953713244862L194.63888888888889,124.22423613733714L194.79777777777778,146.75821547044646L194.88444444444443,130.3829948041174L195.28888888888886,139.51997590727277L195.33222222222224,145.0607105526659L195.34666666666666,125.7341716951794L195.43333333333334,141.20017387138475L195.4622222222222,143.40396133727498L195.70777777777778,138.1720552444458L195.82333333333332,141.37845686078072L195.95333333333335,131.9403406580289L196.17,133.44213038020663L196.4011111111111,145.7772773769167L196.96444444444444,123.87443379561108L197.13777777777779,134.04885662264294L197.16666666666666,125.12988271978166L197.3111111111111,143.4110300011105L197.47,133.44256360663306L197.5711111111111,128.55304637882446L197.67222222222225,134.16179315249124L197.70111111111112,118.98259718550575L197.94666666666666,146.16015154620013L198.2211111111111,138.74676104386648L198.7411111111111,131.7807954483562L198.88555555555556,145.88282990124492L199.1311111111111,139.04283446735806L199.2177777777778,146.3336042082972L199.34777777777776,141.0317652026812L199.7811111111111,131.0940254661772L200.11333333333334,113.685770491759L200.12777777777777,127.28383735815686L200.38777777777779,141.06891952620614L200.79222222222222,138.15079031056828L200.86444444444444,141.83483437697092L201.0522222222222,141.13203059633574L201.25444444444446,141.1209405892425L201.37,135.90070361230107L201.44222222222223,142.465961287419L201.4711111111111,143.89726035462488L201.48555555555555,137.18072561091847L201.77444444444447,146.49573183059692L201.84666666666666,137.66725804408392L202.04888888888888,135.44144086705316L202.19333333333333,137.48537072870465L202.26555555555555,121.62705549928879L202.36666666666667,125.65408669577705L202.64111111111112,141.96434844864737L202.81444444444443,150.2966387255324L203.32,145.79740030235715L203.45,148.07691692643695L204.14333333333335,149.8990798013078L204.21555555555554,147.77421027587522L204.4322222222222,137.44946893056235L204.5911111111111,135.66275178723865L204.64888888888888,146.48538228703868L204.88,130.66964628961352L205.06777777777776,136.7198891043663L205.35666666666668,139.84636633925967L205.48666666666668,143.3880439500014L205.60222222222222,136.2897645201948L205.89111111111112,118.77867721186745L206.12222222222223,134.28736397955151L206.4111111111111,139.71746968891887L206.45444444444445,146.25553135408293L206.68555555555557,139.53364759021335L206.91666666666666,148.70787585112782L207.07555555555555,133.29141768481998L207.94222222222223,139.09469343887437L208.07222222222222,142.50242156452603L208.08666666666667,136.35649612545967L208.52,134.4077522986465L208.79444444444442,146.8210509849919L208.83777777777777,143.44306517971884L209.15555555555554,126.78709463278454L209.79111111111112,141.83126394285094L210.09444444444443,133.58954082926115L210.18111111111114,144.89661793907484L210.21,147.06277512179483L210.51333333333332,148.54201865030657L210.8311111111111,135.31995474629932L211.25,144.8296490907669L211.91444444444443,144.85233011510638L212.14555555555557,142.36345018943152L212.31888888888886,143.59992261727652L213.17111111111112,127.95531768931282L213.40222222222224,148.68836739990445L213.85,147.3648680349191L213.96555555555557,136.66942559348215L214.26888888888888,143.4712219503191L214.63,151.00530800885625L214.70222222222225,141.86095763577353L214.89000000000001,134.05218244592348L215.07777777777778,138.88958430290222L215.16444444444446,141.66942440138925L215.7711111111111,136.31092335780463L215.78555555555556,149.8489242643118L215.85777777777778,142.54178033272424L216.07444444444445,143.50627645187907L216.91222222222223,127.24166703886455L217.15777777777777,146.7589964568615L217.54777777777778,139.99244469073085L217.5622222222222,145.46135363645024L217.67777777777778,149.24417111774287L217.85111111111112,142.78532431523004L217.89444444444445,138.2233557369974L218.02444444444447,146.80515938500562L218.2411111111111,146.8070403834184L218.29888888888888,140.4280627038744L218.32777777777778,144.10158260994487L218.54444444444442,141.5080195599132L218.80444444444444,146.01306749052472L219.06444444444443,134.61539006233215L219.2811111111111,145.9088949544562L219.42555555555558,138.42002432545027L219.4688888888889,142.30839212073218L219.64222222222222,135.4161560634772L219.65666666666667,149.67620469795335L219.71444444444444,138.7154243323538L220.11888888888888,148.61004551417298L220.49444444444444,142.91440221336154L220.97111111111113,146.3878392941422L221.1877777777778,147.05775617890887L221.70777777777778,124.53448814815944L221.78,135.59087451299033L222.47333333333333,139.66551640960904L222.53111111111113,139.95679339766502L222.82,147.59932015670668L223.51333333333335,146.12558847665787L223.5277777777778,145.36698837412726L223.90333333333334,145.9546681261725L223.94666666666666,151.26619062655502L224.55333333333334,140.436526828342L224.78444444444443,141.76692981852423L225.29000000000002,139.75442802906036L225.50666666666666,140.98589624961218L225.6222222222222,144.86860410372415L225.69444444444446,150.15866273972722L225.70888888888888,144.5724290046427L226.18555555555554,150.86805627743402L226.43111111111114,144.57721807228197L226.47444444444446,147.92000275684725L226.51777777777778,147.60504788160324L226.70555555555555,150.03663876983853L227.09555555555556,150.7209913780292L227.35555555555555,143.70043114821115L227.45666666666668,149.12348440289497L227.55777777777777,140.83786543210348L227.87555555555556,148.23449861837756L228.17888888888888,150.42791591087976L228.36666666666665,127.37453198432922L228.87222222222223,140.20551694101758L229.20444444444445,141.44377237558365L229.24777777777777,141.22164805067908L229.43555555555557,133.6495264801714L229.49333333333334,144.94411959581905L229.58,145.3604605065452L230.20111111111112,143.58132924636206L230.21555555555557,142.5901337067286L230.48999999999998,150.80992731120853L230.53333333333336,138.8522973590427L230.64888888888888,139.58016638292204L230.66333333333333,150.6833146777418L230.67777777777778,142.1896144019233L230.76444444444445,146.06561756134033L231.05333333333334,141.6726632846726L231.0822222222222,146.8408917238315L231.34222222222223,150.49539755781493L232.06444444444443,151.99177931745848L232.26666666666665,144.75829640361997L232.35333333333335,125.4055031405555L232.84444444444443,132.56522409783472L233.43666666666667,131.97875340117346L233.8411111111111,132.5488440129492L234.2311111111111,142.7271865076489L234.30333333333334,142.9118794798851L234.39,137.92391670412488L234.72222222222223,153.71367200960717L235.08333333333334,144.85858095354504L235.2566666666667,142.07110045022435L235.2711111111111,147.30958745876947L235.35777777777778,141.1795278324021L235.48777777777778,139.84375077154903L235.73333333333332,149.37869971162743L235.90666666666667,145.67704882224402L235.9933333333333,143.25221125615965L236.28222222222223,150.04725355406603L236.34,147.1707111282481L236.68666666666667,140.94849584168858L236.71555555555554,141.64423243204752L236.84555555555556,141.2695416741901L237.56777777777776,148.46612666381728L237.91444444444443,125.45500294367474L237.92888888888888,143.26366965307128L238.24666666666667,149.23104980919095L238.7522222222222,144.93812663025327L238.76666666666668,143.47645013862186L239.11333333333332,137.99420695503554L239.14222222222222,142.63617359267343L239.15666666666667,148.06774917741618L239.59,149.00482751594652L239.95111111111112,143.11447325017718L239.99444444444444,149.87674948407542L240.02333333333334,139.62684284647307L240.24,142.23601530989012L240.32666666666668,143.94659953978328L240.61555555555555,135.0068617131975L240.76000000000002,153.2786423150036L240.77444444444444,142.75299442476697L240.89,150.20944453941453L240.9477777777778,144.38104754686356L241.03444444444443,148.73063792122733L241.26555555555555,135.93610440029036L241.88666666666666,149.33712544706134L242.06,139.55937740868993L242.21888888888887,144.6428106162283L242.36333333333334,150.86531398362584L242.37777777777777,133.26962669028174L242.43555555555554,148.73769627014795L242.49333333333334,137.19223410884538L242.5511111111111,148.86339456008542L242.79666666666665,144.29239822096295L242.88333333333335,145.38276577326985L242.94111111111113,139.17311478985678L242.97,151.55985330707497L243.3311111111111,148.65004970133305L243.60555555555555,148.46081374585629L243.70666666666668,141.60841757390233L243.72111111111113,143.13575734032523L243.95222222222222,145.21019577317767L243.99555555555554,150.88286186423568L244.45777777777778,148.23439620600809L244.47222222222223,132.00928849644131L244.48666666666668,145.29151266813278L244.83333333333334,144.6634478138553L245.03555555555556,147.59846549232802L245.54111111111112,149.76410987642078" style="fill: none;" fill="none"></path></g></g></g></g></g></g><g transform="translate(70, 178)" clip-path="url(#clip_1)"><clipPath id="clip_1"><rect width="260" height="21"></rect></clipPath><g><g><line x1="0" y1="0" x2="0" y2="5" style="visibility: inherit;" fill="rgb(0, 0, 0)" stroke="rgb(204, 204, 204)" stroke-width="1px"></line><line x1="28.888888888888886" y1="0" x2="28.888888888888886" y2="5" style="visibility: inherit;" fill="rgb(0, 0, 0)" stroke="rgb(204, 204, 204)" stroke-width="1px"></line><line x1="57.77777777777777" y1="0" x2="57.77777777777777" y2="5" style="visibility: inherit;" fill="rgb(0, 0, 0)" stroke="rgb(204, 204, 204)" stroke-width="1px"></line><line x1="86.66666666666666" y1="0" x2="86.66666666666666" y2="5" style="visibility: inherit;" fill="rgb(0, 0, 0)" stroke="rgb(204, 204, 204)" stroke-width="1px"></line><line x1="115.55555555555554" y1="0" x2="115.55555555555554" y2="5" style="visibility: inherit;" fill="rgb(0, 0, 0)" stroke="rgb(204, 204, 204)" stroke-width="1px"></line><line x1="144.44444444444446" y1="0" x2="144.44444444444446" y2="5" style="visibility: inherit;" fill="rgb(0, 0, 0)" stroke="rgb(204, 204, 204)" stroke-width="1px"></line><line x1="173.33333333333331" y1="0" x2="173.33333333333331" y2="5" style="visibility: inherit;" fill="rgb(0, 0, 0)" stroke="rgb(204, 204, 204)" stroke-width="1px"></line><line x1="202.22222222222223" y1="0" x2="202.22222222222223" y2="5" style="visibility: inherit;" fill="rgb(0, 0, 0)" stroke="rgb(204, 204, 204)" stroke-width="1px"></line><line x1="231.1111111111111" y1="0" x2="231.1111111111111" y2="5" style="visibility: inherit;" fill="rgb(0, 0, 0)" stroke="rgb(204, 204, 204)" stroke-width="1px"></line><line x1="260" y1="0" x2="260" y2="5" style="visibility: inherit;" fill="rgb(0, 0, 0)" stroke="rgb(204, 204, 204)" stroke-width="1px"></line></g><g transform="translate(0, 8)"><text x="0" y="0" dx="0em" dy="0.95em" style="text-anchor: middle; visibility: hidden; font-family: Roboto, sans-serif; font-size: 12px; font-weight: 200;" fill="rgb(50, 49, 63)" stroke="none" stroke-width="1px">-2k</text><text x="28.888888888888886" y="0" dx="0em" dy="0.95em" style="text-anchor: middle; visibility: inherit; font-family: Roboto, sans-serif; font-size: 12px; font-weight: 200;" fill="rgb(50, 49, 63)" stroke="none" stroke-width="1px">0</text><text x="57.77777777777777" y="0" dx="0em" dy="0.95em" style="text-anchor: middle; visibility: inherit; font-family: Roboto, sans-serif; font-size: 12px; font-weight: 200;" fill="rgb(50, 49, 63)" stroke="none" stroke-width="1px">2k</text><text x="86.66666666666666" y="0" dx="0em" dy="0.95em" style="text-anchor: middle; visibility: inherit; font-family: Roboto, sans-serif; font-size: 12px; font-weight: 200;" fill="rgb(50, 49, 63)" stroke="none" stroke-width="1px">4k</text><text x="115.55555555555554" y="0" dx="0em" dy="0.95em" style="text-anchor: middle; visibility: inherit; font-family: Roboto, sans-serif; font-size: 12px; font-weight: 200;" fill="rgb(50, 49, 63)" stroke="none" stroke-width="1px">6k</text><text x="144.44444444444446" y="0" dx="0em" dy="0.95em" style="text-anchor: middle; visibility: inherit; font-family: Roboto, sans-serif; font-size: 12px; font-weight: 200;" fill="rgb(50, 49, 63)" stroke="none" stroke-width="1px">8k</text><text x="173.33333333333331" y="0" dx="0em" dy="0.95em" style="text-anchor: middle; visibility: inherit; font-family: Roboto, sans-serif; font-size: 12px; font-weight: 200;" fill="rgb(50, 49, 63)" stroke="none" stroke-width="1px">10k</text><text x="202.22222222222223" y="0" dx="0em" dy="0.95em" style="text-anchor: middle; visibility: inherit; font-family: Roboto, sans-serif; font-size: 12px; font-weight: 200;" fill="rgb(50, 49, 63)" stroke="none" stroke-width="1px">12k</text><text x="231.1111111111111" y="0" dx="0em" dy="0.95em" style="text-anchor: middle; visibility: inherit; font-family: Roboto, sans-serif; font-size: 12px; font-weight: 200;" fill="rgb(50, 49, 63)" stroke="none" stroke-width="1px">14k</text><text x="260" y="0" dx="0em" dy="0.95em" style="text-anchor: middle; visibility: hidden; font-family: Roboto, sans-serif; font-size: 12px; font-weight: 200;" fill="rgb(50, 49, 63)" stroke="none" stroke-width="1px">16k</text></g><line x1="0" y1="0" x2="260" y2="0" fill="rgb(0, 0, 0)" stroke="rgb(204, 204, 204)" stroke-width="1px"></line></g></g></g></g></svg>