<svg viewBox="0 0 330.0000305175781 200.00001525878906" xmlns="http://www.w3.org/2000/svg"><g><g><g><g><g><line x1="70" y1="178" x2="65" y2="178" style="visibility: inherit;" fill="rgb(0, 0, 0)" stroke="rgb(204, 204, 204)" stroke-width="1px"></line><line x1="70" y1="158.2222222222222" x2="65" y2="158.2222222222222" style="visibility: inherit;" fill="rgb(0, 0, 0)" stroke="rgb(204, 204, 204)" stroke-width="1px"></line><line x1="70" y1="138.44444444444446" x2="65" y2="138.44444444444446" style="visibility: inherit;" fill="rgb(0, 0, 0)" stroke="rgb(204, 204, 204)" stroke-width="1px"></line><line x1="70" y1="118.66666666666669" x2="65" y2="118.66666666666669" style="visibility: inherit;" fill="rgb(0, 0, 0)" stroke="rgb(204, 204, 204)" stroke-width="1px"></line><line x1="70" y1="98.8888888888889" x2="65" y2="98.8888888888889" style="visibility: inherit;" fill="rgb(0, 0, 0)" stroke="rgb(204, 204, 204)" stroke-width="1px"></line><line x1="70" y1="79.11111111111113" x2="65" y2="79.11111111111113" style="visibility: inherit;" fill="rgb(0, 0, 0)" stroke="rgb(204, 204, 204)" stroke-width="1px"></line><line x1="70" y1="59.33333333333334" x2="65" y2="59.33333333333334" style="visibility: inherit;" fill="rgb(0, 0, 0)" stroke="rgb(204, 204, 204)" stroke-width="1px"></line><line x1="70" y1="39.55555555555557" x2="65" y2="39.55555555555557" style="visibility: inherit;" fill="rgb(0, 0, 0)" stroke="rgb(204, 204, 204)" stroke-width="1px"></line><line x1="70" y1="19.777777777777786" x2="65" y2="19.777777777777786" style="visibility: inherit;" fill="rgb(0, 0, 0)" stroke="rgb(204, 204, 204)" stroke-width="1px"></line><line x1="70" y1="0" x2="65" y2="0" style="visibility: inherit;" fill="rgb(0, 0, 0)" stroke="rgb(204, 204, 204)" stroke-width="1px"></line></g><g transform="translate(60, 0)"><text x="0" y="178" dx="0em" dy="0.3em" style="text-anchor: end; visibility: hidden; font-family: Roboto, sans-serif; font-size: 12px; font-weight: 200;" fill="rgb(50, 49, 63)" stroke="none" stroke-width="1px">-1e-3</text><text x="0" y="158.2222222222222" dx="0em" dy="0.3em" style="text-anchor: end; visibility: inherit; font-family: Roboto, sans-serif; font-size: 12px; font-weight: 200;" fill="rgb(50, 49, 63)" stroke="none" stroke-width="1px">0</text><text x="0" y="138.44444444444446" dx="0em" dy="0.3em" style="text-anchor: end; visibility: hidden; font-family: Roboto, sans-serif; font-size: 12px; font-weight: 200;" fill="rgb(50, 49, 63)" stroke="none" stroke-width="1px">1e-3</text><text x="0" y="118.66666666666669" dx="0em" dy="0.3em" style="text-anchor: end; visibility: inherit; font-family: Roboto, sans-serif; font-size: 12px; font-weight: 200;" fill="rgb(50, 49, 63)" stroke="none" stroke-width="1px">2e-3</text><text x="0" y="98.8888888888889" dx="0em" dy="0.3em" style="text-anchor: end; visibility: hidden; font-family: Roboto, sans-serif; font-size: 12px; font-weight: 200;" fill="rgb(50, 49, 63)" stroke="none" stroke-width="1px">3e-3</text><text x="0" y="79.11111111111113" dx="0em" dy="0.3em" style="text-anchor: end; visibility: inherit; font-family: Roboto, sans-serif; font-size: 12px; font-weight: 200;" fill="rgb(50, 49, 63)" stroke="none" stroke-width="1px">4e-3</text><text x="0" y="59.33333333333334" dx="0em" dy="0.3em" style="text-anchor: end; visibility: hidden; font-family: Roboto, sans-serif; font-size: 12px; font-weight: 200;" fill="rgb(50, 49, 63)" stroke="none" stroke-width="1px">5e-3</text><text x="0" y="39.55555555555557" dx="0em" dy="0.3em" style="text-anchor: end; visibility: inherit; font-family: Roboto, sans-serif; font-size: 12px; font-weight: 200;" fill="rgb(50, 49, 63)" stroke="none" stroke-width="1px">6e-3</text><text x="0" y="19.777777777777786" dx="0em" dy="0.3em" style="text-anchor: end; visibility: hidden; font-family: Roboto, sans-serif; font-size: 12px; font-weight: 200;" fill="rgb(50, 49, 63)" stroke="none" stroke-width="1px">7e-3</text><text x="0" y="0" dx="0em" dy="0.3em" style="text-anchor: end; visibility: hidden; font-family: Roboto, sans-serif; font-size: 12px; font-weight: 200;" fill="rgb(50, 49, 63)" stroke="none" stroke-width="1px">8e-3</text></g><line x1="70" y1="0" x2="70" y2="178" fill="rgb(0, 0, 0)" stroke="rgb(204, 204, 204)" stroke-width="1px"></line></g></g><g transform="translate(70, 0)" clip-path="url(#clip_0)"><clipPath id="clip_0"><rect width="260" height="177"></rect></clipPath><g><g><g><line x1="0" y1="0" x2="0" y2="178" fill="rgb(0, 0, 0)" stroke="rgb(60, 60, 60)" stroke-width="1px" opacity="0.25"></line><line x1="28.888888888888886" y1="0" x2="28.888888888888886" y2="178" fill="rgb(0, 0, 0)" stroke="rgb(60, 60, 60)" stroke-width="1px" opacity="0.25"></line><line x1="57.77777777777777" y1="0" x2="57.77777777777777" y2="178" fill="rgb(0, 0, 0)" stroke="rgb(60, 60, 60)" stroke-width="1px" opacity="0.25"></line><line x1="86.66666666666666" y1="0" x2="86.66666666666666" y2="178" fill="rgb(0, 0, 0)" stroke="rgb(60, 60, 60)" stroke-width="1px" opacity="0.25"></line><line x1="115.55555555555554" y1="0" x2="115.55555555555554" y2="178" fill="rgb(0, 0, 0)" stroke="rgb(60, 60, 60)" stroke-width="1px" opacity="0.25"></line><line x1="144.44444444444446" y1="0" x2="144.44444444444446" y2="178" fill="rgb(0, 0, 0)" stroke="rgb(60, 60, 60)" stroke-width="1px" opacity="0.25"></line><line x1="173.33333333333331" y1="0" x2="173.33333333333331" y2="178" fill="rgb(0, 0, 0)" stroke="rgb(60, 60, 60)" stroke-width="1px" opacity="0.25"></line><line x1="202.22222222222223" y1="0" x2="202.22222222222223" y2="178" fill="rgb(0, 0, 0)" stroke="rgb(60, 60, 60)" stroke-width="1px" opacity="0.25"></line><line x1="231.1111111111111" y1="0" x2="231.1111111111111" y2="178" fill="rgb(0, 0, 0)" stroke="rgb(60, 60, 60)" stroke-width="1px" opacity="0.25"></line><line x1="260" y1="0" x2="260" y2="178" fill="rgb(0, 0, 0)" stroke="rgb(60, 60, 60)" stroke-width="1px" opacity="0.25"></line></g><g><line x1="0" y1="178" x2="260" y2="178" fill="rgb(0, 0, 0)" stroke="rgb(60, 60, 60)" stroke-width="1px" opacity="0.25"></line><line x1="0" y1="158.2222222222222" x2="260" y2="158.2222222222222" fill="rgb(0, 0, 0)" stroke="rgb(60, 60, 60)" stroke-width="1px" opacity="0.25"></line><line x1="0" y1="138.44444444444446" x2="260" y2="138.44444444444446" fill="rgb(0, 0, 0)" stroke="rgb(60, 60, 60)" stroke-width="1px" opacity="0.25"></line><line x1="0" y1="118.66666666666669" x2="260" y2="118.66666666666669" fill="rgb(0, 0, 0)" stroke="rgb(60, 60, 60)" stroke-width="1px" opacity="0.25"></line><line x1="0" y1="98.8888888888889" x2="260" y2="98.8888888888889" fill="rgb(0, 0, 0)" stroke="rgb(60, 60, 60)" stroke-width="1px" opacity="0.25"></line><line x1="0" y1="79.11111111111113" x2="260" y2="79.11111111111113" fill="rgb(0, 0, 0)" stroke="rgb(60, 60, 60)" stroke-width="1px" opacity="0.25"></line><line x1="0" y1="59.33333333333334" x2="260" y2="59.33333333333334" fill="rgb(0, 0, 0)" stroke="rgb(60, 60, 60)" stroke-width="1px" opacity="0.25"></line><line x1="0" y1="39.55555555555557" x2="260" y2="39.55555555555557" fill="rgb(0, 0, 0)" stroke="rgb(60, 60, 60)" stroke-width="1px" opacity="0.25"></line><line x1="0" y1="19.777777777777786" x2="260" y2="19.777777777777786" fill="rgb(0, 0, 0)" stroke="rgb(60, 60, 60)" stroke-width="1px" opacity="0.25"></line><line x1="0" y1="0" x2="260" y2="0" fill="rgb(0, 0, 0)" stroke="rgb(60, 60, 60)" stroke-width="1px" opacity="0.25"></line></g></g></g><g><g><line x1="0" y1="158.2222222222222" x2="260" y2="158.2222222222222" fill="rgb(0, 0, 0)" stroke="rgb(153, 153, 153)" stroke-width="1.5px"></line></g></g><g><g><line x1="28.888888888888886" y1="0" x2="28.888888888888886" y2="178" fill="rgb(0, 0, 0)" stroke="rgb(153, 153, 153)" stroke-width="1.5px"></line></g></g><g><g><g><g><g><path stroke="rgb(255, 112, 67)" stroke-width="2px" d="M36.58777777777778,-0.21412275670002678L36.73222222222222,7.903515509726291L37.35333333333333,6.367184304465816L37.46888888888889,6.565736382264056L37.58444444444444,10.08710969434022L37.96,13.494256572527231L38.089999999999996,15.232228565027386L38.147777777777776,10.654661443894433L38.17666666666667,19.898826635467437L38.37888888888889,16.197518253858348L38.40777777777778,18.961868977307073L38.50888888888889,29.494507546101307L38.62444444444444,28.021647691644624L38.71111111111111,37.63705633909696L38.72555555555555,21.063727965909266L39.11555555555555,24.493784380533754L40.17,37.99933658959696L40.64666666666666,43.41565468298271L40.69,49.42248967553771L40.93555555555555,58.43581678231042L41.065555555555555,63.231913874106894L41.08,69.47843070831696L41.166666666666664,68.37834553424594L41.18111111111111,64.78835021590962L41.25333333333334,52.72730458095458L41.513333333333335,41.178895409460196L41.556666666666665,23.249122085835992L41.68666666666667,32.50373658067641L42.394444444444446,43.3557191373507L42.437777777777775,36.74881247867742L42.52444444444445,32.6479479701694L42.611111111111114,41.97504510569828L42.68333333333333,43.75772461910667L42.827777777777776,52.533896288326446L42.91444444444445,47.979104033739L42.986666666666665,54.72805212535302L43.73777777777778,37.316776327875324L43.81,35.14620861896434L43.82444444444444,47.2053151325365L44.08444444444444,49.039244908848225L44.272222222222226,59.28283545300891L44.46,63.91089586074471L45.00888888888889,72.02520324779739L45.254444444444445,65.13486572235075L45.54333333333333,68.60172400816496L45.73111111111111,63.2217130713979L46.04888888888889,63.60219529754503L46.092222222222226,58.41231401720263L46.294444444444444,65.17125816949711L46.352222222222224,71.62879335948264L47.04555555555555,78.39356836833286L47.132222222222225,77.16364678768288L47.14666666666667,72.70487562765793L47.464444444444446,73.99448939797021L47.63777777777778,77.13331845235868L47.782222222222224,73.08971182338952L48.215555555555554,62.44283326698214L48.37444444444444,61.83421558644762L48.49,69.32676664958896L48.57666666666666,72.9042330210305L49.03888888888889,72.98742041338862L49.096666666666664,68.70488070557145L49.45777777777777,68.49238493309197L49.68888888888889,72.14824722070959L49.70333333333333,70.89927225724537L49.92,79.72293509426456L49.977777777777774,75.16220782792877L50.22333333333333,57.34919343217666L50.72888888888889,58.75231439234157L50.84444444444445,60.88622584293424L51.13333333333333,67.02269466728056L51.33555555555556,71.77281802170195L51.465555555555554,76.50573976401121L51.55222222222222,78.55380651210592L51.62444444444445,75.00475771075727L51.72555555555556,77.24055253142528L51.855555555555554,74.58108759427714L52.05777777777778,89.09248350695891L52.086666666666666,88.59965658186218L52.13,89.22616723675534L52.260000000000005,82.0586658351892L52.76555555555556,77.82285424636113L53.11222222222222,82.5559499853828L53.41555555555556,85.67405041668685L53.67555555555556,85.64147916470957L53.80555555555555,86.65319213556906L53.99333333333333,86.9125557108647L54.03666666666667,82.6179659073574L54.15222222222222,86.16022032545807L54.73,84.96512818712077L54.97555555555555,92.05726842675126L55.12,86.92841137041094L55.163333333333334,86.15921223067906L55.452222222222225,86.05419830970169L55.68333333333334,55.170218664361244L55.943333333333335,66.38778946194907L56.11666666666666,70.4463803261815L56.36222222222223,70.766675207434L56.44888888888889,75.42013019891324L56.79555555555555,74.2631859091558L56.983333333333334,80.50736527256663L57.026666666666664,84.65730763244129L57.04111111111111,91.80307751275267L57.156666666666666,86.00220452540087L57.214444444444446,85.75369907212702L57.315555555555555,82.16910839652488L58.02333333333333,85.93509049377785L58.08111111111111,83.04358254469602L58.18222222222222,76.5298034822772L58.31222222222222,77.44211943303527L58.63,74.17436089495476L58.687777777777775,84.99035617769886L58.80333333333333,79.81409034169393L58.918888888888894,76.40136634000812L58.97666666666667,81.96715406043535L59.26555555555556,79.02778141807771L59.337777777777774,86.0611593402103L59.352222222222224,89.81504772067122L59.42444444444445,94.24500848544338L59.59777777777778,89.36429438142929L59.641111111111115,94.97154642498533L59.71333333333333,98.0843721348076L59.98777777777778,101.26379502903926L60.218888888888884,103.50101029712197L60.36333333333333,97.10714774565177L60.53666666666667,91.64784834691318L60.91222222222222,90.54018937245071L61.04222222222222,86.85608499928018L61.547777777777775,79.27866531190166L61.562222222222225,88.13414852138494L61.59111111111111,88.57022985987876L62.22666666666667,91.79770036128305L62.342222222222226,94.35715010648589L62.47222222222222,89.46543806226424L62.501111111111115,93.32089430963487L62.57333333333333,96.71601291191539L62.934444444444445,92.42077806822304L62.94888888888889,93.72094552655129L63.093333333333334,92.1371401114278L63.12222222222223,86.39162606144693L63.19444444444444,86.1722763147968L63.39666666666667,89.6203398034186L63.483333333333334,98.43325530507099L63.61333333333334,93.09961330719219L63.83,96.95435100376399L63.88777777777778,99.28561127067813L63.916666666666664,100.30013500828271L64.27777777777779,95.08125019064116L64.59555555555555,86.77871906023233L64.68222222222222,89.48423231499004L64.92777777777778,91.8293816975153L65.01444444444444,91.37335271409862L65.39,95.17907787475018L58.095555555555556,84.91843258375411L58.196666666666665,82.84943359349195L58.26888888888889,80.61822601575734L58.45666666666666,72.6297189605049L58.55777777777777,69.5335692707453L58.99111111111111,40.75187012549098L59.19333333333333,44.87238500413811L59.69888888888889,39.74443253615011L59.727777777777774,46.86887982100022L60.897777777777776,62.30598256537515L61.02777777777778,51.96778947342954L61.15777777777778,62.40609162652869L61.24444444444444,51.77792452172399L61.59111111111111,64.98197644042548L62.269999999999996,72.18962819479452L62.385555555555555,64.61833548110255L62.90555555555555,70.87511736158118L63.13666666666667,61.52469861708236L63.18,61.904675799819756L63.29555555555555,72.74084479139357L63.33888888888889,79.90102272529403L63.68555555555555,73.83099549193581L63.74333333333333,82.09439500478544L64.17666666666666,80.9785781103828L64.50888888888889,80.64556418217636L64.72555555555556,90.10039093343202L64.98555555555555,73.48674183006425L65.07222222222222,33.48931157935863L65.30333333333333,61.552260676286515L65.56333333333333,58.823371477813L65.57777777777778,43.76907079027854L66.06888888888889,58.32973263724702L66.21333333333332,68.48940565077896L66.25666666666667,74.9822950022061L66.27111111111111,70.30401714649304L66.3,80.72998109993573L66.31444444444443,70.1348492257033L66.67555555555555,73.8556003810307L67.15222222222222,77.38292839227164L67.48444444444443,86.079349411615L67.73,74.76185740681454L68.17777777777778,76.76046174987667L68.56777777777778,53.564290628513135L68.64,45.04432398849885L68.95777777777778,56.93448088564307L69.23222222222222,73.0791615803907L69.26111111111112,71.95783637357309L69.44888888888889,74.55055911675623L69.68,63.01100673279485L70.0988888888889,71.63257228186521L70.14222222222223,86.0076958703711L70.50333333333333,89.20360665526277L70.8788888888889,91.18611314482594L71.12444444444445,90.58738470791708L71.41333333333334,101.88872425752902L71.67333333333333,90.97716120678997L71.70222222222222,71.47512494271952L71.73111111111112,82.15710461700202L71.81777777777778,88.37649798713007L72.22222222222223,92.28565553684824L72.42444444444445,95.84603337760645L73.23333333333333,81.10668352302106L73.29111111111112,66.47686314616318L73.44999999999999,62.873274844092414L73.89777777777778,75.3322466726648L74.01333333333334,56.7987578477457L74.20111111111112,60.95433518220288L74.27333333333334,80.29694221523982L74.50444444444445,85.14876984554412L74.57666666666667,91.80239937320746L74.60555555555555,81.12657099170063L74.75,88.1691829645456L74.80777777777777,65.96388768920893L75.22666666666666,63.721651543793676L75.39999999999999,60.16004723784383L76.1511111111111,71.23624199764166L76.31,82.42841785200841L76.55555555555556,83.38015966460816L76.96,93.29703525312172L77.33555555555556,72.40887190167562L77.50888888888889,86.62164018527011L77.66777777777777,96.13870963605116L77.71111111111111,91.47719752614155L78.53444444444445,99.06136798687783L78.60666666666667,104.22373812245137L78.6211111111111,96.4944597332817L78.76555555555557,95.36880072929644L79.82,94.08292261349072L79.97888888888889,71.44954879203254L79.99333333333333,83.46962923677056L80.02222222222221,94.7807086481595L80.09444444444445,99.28039782819148L80.10888888888888,98.76586834056047L80.47,97.03763600267689L80.54222222222222,103.27768487777941L80.58555555555556,108.37767792057309L80.7011111111111,100.04414659775087L80.99,99.22489490481291L81.03333333333333,102.72623271716878L81.04777777777778,109.00997285611709L81.26444444444444,112.191542903321L81.58222222222221,105.86078538332602L81.77,87.41476304034923L81.7988888888889,95.12407814383825L81.98666666666668,81.05084102205626L82.52111111111111,78.53660441515828L82.86777777777779,78.52201946887828L82.9688888888889,92.52852467998605L83.05555555555554,100.46598919613007L83.40222222222222,106.26563075860051L83.44555555555554,106.26177053343413L84.29777777777778,101.60855688632886L84.54333333333334,95.19409136413354L84.55777777777779,95.1251578978031L84.84666666666666,95.50685668545935L84.89,91.07125592531216L85.02000000000001,93.0028471047435L85.54,96.01532018666654L85.58333333333333,92.44160870586285L85.81444444444445,91.59820310514505L85.84333333333333,83.44395794052019L86.26222222222222,92.47507978591865L86.66666666666666,92.83772236226129L86.78222222222223,95.84075674153908L86.84,77.92359504841295L86.95555555555555,87.4257014424819L87.11444444444444,91.13409608805155L87.49000000000001,74.76460337495526L87.56222222222222,91.09224302301902L87.79333333333334,95.2851811320059L88.02444444444444,101.56840956978834L88.14,93.29861032595603L88.27000000000001,91.08018685772902L88.4,96.79173855851359L88.55888888888889,91.18592437494623L88.57333333333334,104.6584178861641L88.74666666666667,95.05688922146935L88.77555555555556,103.04654195895446L89.32444444444444,96.45621697085824L89.49777777777777,106.05045365802086L89.77222222222223,99.35606356948928L90.10444444444444,100.67227920850968L90.39333333333333,103.79731822238877L90.97111111111111,100.72238894802905L91.08666666666666,83.96838230127969L91.21666666666667,93.87169161512713L91.25999999999999,105.02783261705993L91.28888888888889,113.21739170508319L92.02555555555556,114.01266989725205L92.06888888888889,113.21975581318564L92.35777777777777,86.33126047302208L92.38666666666667,91.51849376538748L92.4011111111111,101.71291433351847L92.50222222222223,103.49701874981227L92.76222222222223,104.10507481563032L93.16666666666667,102.37923360941242L93.45555555555556,89.09328833864589L93.48444444444445,85.8502660521654L93.57111111111111,93.0095809577842L94.01888888888888,101.75118004785945L94.26444444444445,106.81077679697854L94.52444444444446,109.49270379366985L94.64,106.95834025071898L95.08777777777777,109.3107940065805L95.47777777777777,100.10470805728762L95.81,98.61117479087842L96.22888888888889,101.12339558895256L96.38777777777779,103.0027170547263L96.61888888888889,87.49152698262363L96.82111111111111,82.62415338840384L97.12444444444444,94.15874891451776L97.70222222222222,95.86214122026895L98.02,94.32326504846257L98.09222222222222,95.95579290842916L98.62666666666668,100.51703489230948L98.78555555555555,103.0167322861896L98.87222222222222,104.55221085693913L99.07444444444444,105.93223357880665L99.10333333333332,106.22518494603435L99.56555555555555,105.22873015446568L99.91222222222223,93.34675111683737L100.08555555555554,93.10442531245468L100.11444444444444,97.58644433285639L100.20111111111112,101.92974813311804L100.37444444444444,103.16769640314286L100.73555555555555,102.441230988012L101.14,107.57850026766829L101.16888888888889,105.29579829565245L101.22666666666666,109.7280349340863L101.44333333333333,113.6275907119873L102.03555555555555,116.59142994762703L102.0788888888889,114.23992153318804L102.5988888888889,115.86842957490597L102.84444444444445,121.41133662681462L102.88777777777777,121.14308820910662L103.03222222222223,105.69694288934383L103.29222222222222,100.35535729347735L103.30666666666666,106.36727789708085L103.55222222222223,108.47848762026295L103.59555555555555,110.72893583794949L104.08666666666666,107.56110626024318L104.11555555555556,106.97440526323899L104.21666666666667,107.77191378022994L104.60666666666667,105.47079429998125L104.73666666666666,107.3102088047512L105.04,103.73108322462127L105.38666666666667,107.18510400180432L105.45888888888888,101.29463608103973L105.54555555555555,95.93256161533584L105.93555555555555,100.63547331379858L106.22444444444444,103.12204085660183L106.29666666666667,106.39821484145182L106.51333333333334,106.20042477124923L106.58555555555556,104.59596643939017L107.20666666666666,94.16500079588731L107.26444444444445,100.81212982045925L107.56777777777778,100.71080318610923L107.59666666666666,100.9543137730423L107.82777777777778,107.44100016558417L107.85666666666667,105.00808668606031L107.94333333333334,105.39952690700886L107.97222222222223,108.16740995973468L108.17444444444445,106.62662044529853L108.23222222222223,108.41738415461954L108.56444444444445,107.1866688788398L108.69444444444444,101.25770269198006L108.96888888888888,106.69027602259654L109.12777777777778,109.48539834470155L109.15666666666667,102.83603849080232L109.24333333333334,106.76916505287308L109.43111111111111,105.84326352477865L109.69111111111111,88.54575735211849L110.25444444444445,88.4602346340314L110.58666666666667,96.95002973311782L110.64444444444445,104.8061083865515L110.65888888888888,110.62200738646034L110.75999999999999,114.65385067515373L111.00555555555556,114.77133166192318L111.16444444444446,108.58907539800481L111.32333333333332,106.95628715531764L111.42444444444445,94.47090683565582L111.5111111111111,82.83809663333786L111.85777777777778,96.23523574110843L112.65222222222222,108.53717915528867L112.71,99.27831801561825L113.23,106.74837196525256L113.24444444444444,110.58050022715123L113.30222222222221,104.85877593556651L113.5911111111111,114.22374916593002L113.60555555555557,117.1268887639396L113.62,116.02837558493465L113.73555555555556,112.84753622141085L114.3711111111111,109.15868197281456L114.47222222222221,112.86905191629707L114.51555555555557,112.12888302180912L114.79,111.46333888137588L115.57000000000001,111.99138771621934L115.7,113.16068579250373L115.72888888888889,108.79316547857005L115.78666666666668,111.12127608565258L115.87333333333333,119.14323547288438L115.91666666666667,110.38616245918271L116.01777777777778,89.40151683946132L116.13333333333333,102.75981448508774L116.17666666666668,104.77611654351638L116.35000000000001,104.6593242005536L116.74000000000001,107.64550098375653L116.79777777777778,107.46925759207248L116.95666666666666,113.65137409345596L117.11555555555555,111.24796002628845L118.09777777777778,103.83630009273818L118.3,113.19115208968269L118.41555555555556,112.41493867914724L118.61777777777777,117.5072432063372L118.63222222222223,111.73955807252828L119.00777777777778,92.76662090154288L119.21000000000001,104.05463359105002L119.57111111111111,105.19440999006346L119.99000000000001,109.62286807803713L120.03333333333333,107.92406672098613L120.40888888888888,109.51834405096066L120.66888888888889,113.41244901894544L120.72666666666666,101.24165095694275L121.08777777777777,110.64071396077124L121.46333333333334,113.40523393634956L121.83888888888889,113.76392403983806L122.05555555555556,114.69696039868302L122.17111111111112,114.40911539989456L122.18555555555555,114.02909703031494L122.50333333333333,109.83393289316218L122.56111111111112,114.94820356328732L122.76333333333334,118.16761422820225L123.34111111111112,116.5033459044205L123.47111111111111,119.74847352663916L123.64444444444445,113.60327831502899L123.91888888888889,117.43743796422436L123.96222222222222,120.4694371273744L124.09222222222223,122.61919741419058L124.62666666666667,109.81925925349788L124.85777777777777,115.69951006446968L125.01666666666667,106.67919079897948L125.27666666666667,105.76297041356123L125.4211111111111,100.89986494777335L125.43555555555555,101.57397369899986L125.69555555555556,103.76107175514286L125.71,108.7361568752505L126.04222222222222,108.59486775343419L126.1,115.12517631001155L126.31666666666666,117.55828169974812L126.75,118.71052746255407L126.88,110.85682441924209L126.92333333333335,111.83461542408186L127.02444444444446,109.6259683463803L127.16888888888889,109.47656988315768L127.21222222222222,98.90138693578831L127.28444444444445,88.63258299883877L127.42888888888889,102.87796175722289L127.77555555555556,109.43780330382855L127.90555555555557,114.23850885634133L128.18,111.7141304383282L128.42555555555555,115.52125625735478L129.32111111111112,116.72204295534797L129.82666666666668,114.89730419294715L130.07222222222222,115.18928651027555L130.21666666666667,112.5573344327437L130.28888888888886,115.91313253402276L130.44777777777776,113.91364255864491L130.53444444444446,112.70244375938947L130.63555555555556,110.7950480054968L130.89555555555557,110.71941809134603L130.96777777777777,109.72661336593646L131.04,107.99997563014121L131.3,107.00557867331452L131.45888888888888,111.52051868888294L131.50222222222223,113.68208674121101L131.79111111111112,115.75660638180295L131.90666666666667,118.64232166393089L132.05111111111108,116.8479931884682L132.22444444444443,113.75508626817387L132.55666666666667,118.10144442364142L132.62888888888887,121.4865526240078L133.51,118.58245939664754L133.52444444444444,119.51718068412569L133.98666666666665,119.28781913808626L134.60777777777778,118.26225933752112L134.72333333333333,112.10696685108535L134.8388888888889,117.20331363248292L134.85333333333335,110.33567679081173L135.34444444444443,109.32014194818622L135.50333333333333,109.21471937181592L135.67666666666668,115.6727723854372L135.92222222222222,120.68085508370268L136.7888888888889,103.04185856045274L137.13555555555556,89.2916123081902L137.5688888888889,72.50385000432155L137.62666666666667,87.49845648432546L137.82888888888888,98.576096048867L138.07444444444442,110.81181919736913L138.16111111111113,114.43234646127904L138.76777777777778,114.05652978619374L138.9988888888889,115.68267752538387L139.1577777777778,113.9646206129209L139.28777777777776,111.24368397267357L139.40333333333334,116.43082890574817L139.6922222222222,114.62787379257027L139.72111111111113,115.09875697618676L139.76444444444445,117.4422538561348L139.79333333333332,117.17019913606852L139.88,96.99705365009909L140.1688888888889,103.01739468118896L140.2122222222222,115.17845342571349L140.28444444444446,118.92821123939972L140.38555555555556,117.55069163536362L140.41444444444443,114.0327312274827L141.1511111111111,114.33129438917823L141.42555555555555,117.03403884649204L141.71444444444444,114.49236482717548L141.7288888888889,116.54094703142286L141.7577777777778,117.03385548727377L141.96,114.47294381736386L142.01777777777778,98.93707718008625L142.14777777777778,95.97049523127397L142.16222222222223,97.0280336412065L142.23444444444442,107.33408891534111L142.30666666666667,117.3712085167585L142.52333333333334,118.68986249869178L142.9711111111111,100.95304461594819L143.14444444444445,104.32401077796194L143.24555555555557,105.37494759353834L143.31777777777776,115.91716115761831L143.52,115.49959626085317L143.65,115.76850170233568L144.02555555555557,99.54084504812856L144.12666666666667,94.29206239500253L144.14111111111112,105.3311590415686L144.2711111111111,110.1850989016364L144.82000000000002,109.86174584476306L144.93555555555554,108.66127460726989L144.95,114.89596783941656L145.0077777777778,110.90045299922826L145.47,108.35014996158324L146.14888888888888,108.5729879288509L146.20666666666668,112.95473921920001L146.46666666666667,111.59262707159009L146.53888888888886,114.27259116217544L146.79888888888888,120.59670067660046L146.84222222222223,123.59986413435027L147.14555555555557,121.83390313386452L147.30444444444444,121.03311577612875L147.6511111111111,121.43632949007714L147.75222222222223,116.90644637926981L147.99777777777777,118.09286376902534L148.02666666666667,113.06052504438274L148.07,115.24491165470613L148.37333333333333,117.95513574482587L148.40222222222224,125.21535777139286L148.47444444444443,120.33435574424836L148.63333333333333,112.61149075032813L148.80666666666667,103.96393812273205L149.0522222222222,105.30957727807649L149.31222222222223,109.80722657332886L149.39888888888888,98.44969817294718L149.4711111111111,97.22567529605254L149.54333333333335,105.04642252947741L149.80333333333334,105.03816337018058L149.81777777777776,104.11069714305111L150.20777777777778,111.9521560386623L150.32333333333335,116.58856428632966L150.4677777777778,124.2025821668264L150.62666666666667,118.9954826407049L150.93,122.84582670919912L151.19,126.84335245798718L151.65222222222224,115.60889260586515L151.66666666666669,116.821601834097L151.75333333333333,118.62879465484198L152.50444444444446,98.05127788429273L152.53333333333333,108.0965573423295L152.67777777777778,111.78152373415695L152.77888888888887,117.92716838657337L153.1688888888889,120.35386903999931L153.47222222222223,107.88062372556541L153.61666666666667,105.46624539362783L153.8477777777778,91.66135787209308L153.87666666666667,104.57426680527723L153.97777777777776,103.75236703894097L154.44,112.9286724789931L154.51222222222222,113.94083581716447L154.67111111111112,115.17499514480807L154.7433333333333,119.34887924404173L155.36444444444444,119.56374986991355L155.4077777777778,116.35621631375659L155.69666666666666,108.54557655525562L155.78333333333333,110.76388622750919L155.79777777777778,104.30141964711794L156.17333333333335,109.23532130299175L156.27444444444444,106.13326814360319L157.17000000000002,110.27655083456443L157.18444444444444,111.45908543561517L157.31444444444446,110.60957680086399L157.41555555555556,115.02035956405001L157.45888888888888,106.25518742511773L157.56,112.25919668966925L157.60333333333332,118.96758614189066L157.92111111111112,113.37639118556164L158.07999999999998,115.76091129012629L158.23888888888888,109.28698723802931L158.38333333333333,102.13407019764828L158.41222222222223,114.02674013271323L158.42666666666665,114.68476340575317L158.47,113.2999487831392L158.81666666666666,102.62275352082506L158.90333333333334,88.16384568778454L159.23555555555555,103.01929012153548L159.38,101.48843834742972L159.49555555555557,106.93463869840281L159.66888888888892,113.34505745275378L160.37666666666667,109.46765329856477L160.39111111111112,114.60823297170747L160.50666666666666,113.31227111105227L160.63666666666666,119.19667296918362L161.14222222222222,121.89559394423112L161.54666666666665,124.20430150279435L161.59,123.10957367111664L162.16777777777776,102.4399527195459L162.51444444444445,107.82569465140692L162.6588888888889,104.67537194649493L163.45333333333335,113.81266321776049L163.64111111111112,107.76730181630427L163.8,106.53786983520042L164.06,104.74490643714687L164.58,103.33769913039167L164.65222222222224,104.16119702289106L164.66666666666666,100.12071180569889L164.69555555555556,113.31784725275296L164.89777777777778,114.42874700611164L165.0711111111111,119.85127953850093L165.40333333333334,121.71331243098825L165.48999999999998,122.36314495217766L165.70666666666665,123.1238278961398L165.79333333333335,113.5588253623642L165.9377777777778,109.60590477620613L166.28444444444443,113.29028210856215L166.53,122.57567564181771L166.84777777777776,119.13103604849218L167.29555555555555,108.3897735546525L167.39666666666668,107.87412124911589L167.44,115.49489631601955L167.55555555555557,114.92299186778669L167.78666666666666,118.04299899394874L167.84444444444443,121.70916299247084L167.94555555555556,124.43406922983463L167.97444444444446,125.40962927336894L168.01777777777778,118.74729808827814L168.52333333333334,116.12758520059795L168.62444444444444,111.44935453108093L168.85555555555555,107.85208550661157L169.14444444444445,117.21578060612028L169.54888888888888,116.47074323212072L169.57777777777778,119.61115059195936L169.5922222222222,123.8044283135572L169.6211111111111,125.70627438364458L169.70777777777778,120.31527703970161L169.83777777777777,110.2570161304377L169.92444444444445,94.75942925005172L169.99666666666667,95.31757404539397L170.41555555555556,113.42297331430892L170.61777777777777,121.17344416268693L170.77666666666667,122.93880245655262L170.92111111111112,117.07663032089692L170.9788888888889,116.71421560236165L170.9933333333333,109.95420780317329L171.39777777777778,114.3322577723709L171.52777777777777,124.37125253119981L171.64333333333335,125.8350273593103L171.86,129.63704660014653L171.87444444444444,120.89573085641668L172.04777777777778,117.28729951234145L172.49555555555554,122.64179710160585L172.62555555555556,120.32316858056387L172.81333333333333,124.78667638954113L172.8711111111111,123.65063038182544L172.94333333333333,124.78754345917739L173.07333333333332,121.48716528306161L173.1888888888889,116.92671582785437L173.29,110.39043334188376L173.30444444444444,108.98212495499902L173.54999999999998,114.65966216871242L173.98333333333335,106.10033429436677L174.12777777777777,113.18369920681262L174.66222222222223,112.49995620411175L174.79222222222222,99.58252057151918L174.80666666666667,93.00925806641733L174.89333333333332,99.64552614196896L175.12444444444444,108.94493415260833L175.22555555555556,112.7108807611735L175.63,118.43385639428723L175.64444444444445,123.5172462532134L175.77444444444444,125.02110113102793L175.84666666666666,120.78939171836602L176.00555555555556,124.35113907496297L176.13555555555556,126.21821208952962L176.33777777777777,122.48646267316863L176.49666666666664,123.5847051999199L176.88666666666666,110.57581652800936L176.93,112.14594526086005L177.06,111.57909412049173L177.42111111111112,120.45747447064602L177.4788888888889,112.87560585618667L177.60888888888888,113.94267588262814L177.8111111111111,111.5415394484305L177.89777777777778,118.48755480449222L177.92666666666668,121.1365810618847L178.41777777777776,113.14493468072311L178.50444444444446,112.75681558052479L178.5911111111111,102.76514679107271L178.62,114.11093763276526L178.63444444444443,115.53151229148527L178.77888888888887,108.80949349577479L178.85111111111112,117.18728178383725L179.05333333333334,112.77254551733625L179.18333333333334,117.59784505633236L179.41444444444443,115.62212671012315L179.77555555555554,116.42241628884322L180.05,120.95938436696692L180.17999999999998,116.41082390635401L180.44,118.93959578136781L180.83,117.04261470161653L181.16222222222223,119.90770992158518L181.1911111111111,114.26078961022563L181.20555555555558,107.57515621354236L181.94222222222223,118.75975027260216L182.05777777777777,114.28164128607729L182.1011111111111,115.0277269339005L182.23111111111112,123.77405892278723L182.78,125.29322359351237L182.99666666666667,118.11780607799109L183.2277777777778,123.98422302406348L183.51666666666665,123.59704958343629L183.61777777777777,127.70365093093588L183.71888888888887,129.37791198424054L183.79111111111112,115.79940400049685L184.23888888888888,120.21658209527888L184.35444444444445,125.45403538832281L184.38333333333333,120.40703776757118L184.87444444444444,119.33179703306607L184.91777777777776,112.50484672176378L185.12,112.53775171116844L185.16333333333333,117.75430079993785L185.32222222222222,111.13495119579939L185.4088888888889,115.65617359852774L185.81333333333333,117.61750509049088L185.85666666666665,116.44614491833603L185.8711111111111,120.73897104495776L185.95777777777778,121.38298523694682L185.98666666666668,122.71949227621732L186.23222222222222,116.12029677115228L186.3477777777778,119.5341486531603L186.47777777777776,121.13971692593873L186.69444444444446,124.68649279836005L186.92555555555558,130.11284446343362L187.4888888888889,129.16452730761384L187.66222222222223,124.8061771138494L187.69111111111113,123.45133370597073L187.83555555555554,124.89521592289222L187.99444444444444,117.76512113105596L188.09555555555556,120.04415436040831L188.19666666666666,120.29791161554604L188.22555555555553,123.06767325168714L188.47111111111113,114.1203050082543L188.74555555555554,119.75237150856564L189.26555555555555,112.99985346434408L189.41,110.2440396232016L189.65555555555557,114.84784118388072L189.7422222222222,116.90111999676344L189.87222222222223,118.87960806907314L190.30555555555554,115.35134715490202L190.63777777777779,125.53186302106344L190.65222222222224,120.15112421478621L190.91222222222223,123.12316692833578L191.31666666666666,124.82688021903587L191.3888888888889,131.41917974623254L191.57666666666668,129.27244551941746L191.59111111111113,122.46488940728038L191.7788888888889,121.42220665000278L191.89444444444445,117.46687338788747L191.96666666666664,119.82731221681169L191.99555555555557,120.65066683703859L192.01000000000002,119.37578866496867L192.29888888888888,110.68176272099991L192.37111111111113,116.78171597662703L192.57333333333335,116.23547100486901L192.71777777777777,114.10975330631794L192.79000000000002,119.82910226073382L192.89111111111112,125.5604449381124L193.16555555555556,119.34219419427859L193.3388888888889,124.18980667075405L193.84444444444443,124.04599742854833L193.97444444444446,124.09243997187205L194.66777777777776,124.23368851617448L194.74,116.16213141860517L194.95666666666668,118.75670669639281L195.11555555555557,124.29274986980859L195.17333333333335,125.06454630531306L195.40444444444444,121.99352157151496L195.59222222222223,126.62277169315165L195.88111111111112,128.72279486869328L196.01111111111112,122.5638587167402L196.12666666666667,119.11699069367423L196.41555555555556,114.89454648325123L196.64666666666665,114.81201978366477L196.93555555555557,121.55568477226171L196.9788888888889,122.49238819598547L197.20999999999998,121.77217330781917L197.4411111111111,121.4351709148021L197.6,125.05827409482058L198.46666666666667,117.0621097240875L198.59666666666666,109.54569424183016L198.6111111111111,119.0219734693849L199.04444444444445,122.6127219232755L199.3188888888889,120.59771108558134L199.36222222222221,119.33817439352354L199.68,102.40592681280371L200.31555555555556,112.473910905225L200.6188888888889,116.10983328567453L200.70555555555555,118.69587228772942L200.73444444444445,122.34321379128507L201.0377777777778,119.07305965964707L201.35555555555555,121.2027336779915L201.77444444444447,113.68446492379339L202.4388888888889,115.32136978790422L202.67,117.42996219944115L202.84333333333333,120.86722137753195L203.69555555555556,114.88071799759484L203.92666666666668,114.53449604518529L204.37444444444444,120.12459143174412L204.48999999999998,109.49290695607961L204.79333333333332,116.91204559397876L205.15444444444444,124.74220494451102L205.22666666666666,127.5154619117232L205.41444444444443,126.48441893166547L205.60222222222222,127.6301123701905L205.6888888888889,126.3590714563454L206.29555555555555,116.24555933585249L206.31,109.14813959780292L206.38222222222223,113.25012522432316L206.5988888888889,118.7588103212833L207.43666666666667,115.45041843491313L207.68222222222224,118.6295297988671L208.07222222222222,120.66684758140485L208.08666666666667,124.69399439478222L208.20222222222222,109.78200456957602L208.37555555555554,115.89657022995767L208.41888888888892,110.9573105149714L208.54888888888888,112.9856338138993L208.76555555555555,117.19797133063634L208.82333333333335,116.03576100958601L208.85222222222222,113.48166724449325L209.0688888888889,116.68964103793327L209.32888888888888,118.44757788134417L209.5888888888889,121.47425148149345L209.80555555555557,121.65760169904439L209.95,101.48946626009483L209.99333333333334,114.50457025448311L210.16666666666666,116.90482742524377L210.18111111111114,116.27192236213293L210.23888888888888,119.6351617093256L210.64333333333335,121.66620433860912L211.01888888888888,118.02248677913019L211.49555555555554,125.99835293134583L211.7122222222222,126.78069006205585L212.23222222222222,126.20370316469595L212.30444444444444,114.05214800614473L212.99777777777777,115.69290526201672L213.05555555555554,121.69139094421475L213.34444444444446,124.6215251242438L214.03777777777776,124.92922452504682L214.0522222222222,116.85413368227564L214.42777777777778,116.86216191460183L214.4711111111111,121.44963031019464L215.07777777777778,121.89283490457552L215.3088888888889,125.29526265114926L215.81444444444443,127.72580433652033L216.0311111111111,126.93455784263682L216.14666666666668,126.08981394829502L216.21888888888887,127.1355465013513L216.23333333333332,130.2617603567975L216.71,130.3629770182049L216.95555555555555,126.72334364808124L216.99888888888887,126.10873755601294L217.04222222222222,129.7267833759124L217.23000000000002,127.56980504120465L217.62,125.26119957498423L217.88,129.34635801592498L217.9811111111111,128.75511589592446L218.0822222222222,128.83205810190026L218.31333333333333,130.21221913737196L218.4,114.80734274227041L218.70333333333332,117.4170102629877L218.89111111111112,125.79261169042424L219.05,113.3156746512361L219.39666666666668,120.73900726153697L219.7288888888889,115.36309736978887L219.77222222222224,120.28610489516252L219.95999999999998,116.41336517813416L220.01777777777778,117.61718647946483L220.10444444444443,120.35377492394785L220.4077777777778,121.92956610022695L220.72555555555553,127.0137254305935L220.73999999999998,128.26349107357728L221.01444444444445,123.44311036824904L221.05777777777777,121.14785764577488L221.17333333333335,119.73120909791027L221.1877777777778,122.02807671303385L221.20222222222222,124.47034008421733L221.2888888888889,129.56500368279822L221.57777777777778,128.17656255093777L221.60666666666668,125.11215889980268L221.86666666666667,128.1770043840136L222.34333333333333,129.2983923784139L222.5888888888889,123.75801130951233L222.79111111111112,119.43142160153197L222.87777777777777,122.39099253656616L223.3688888888889,119.76644581124475L223.9611111111111,127.63361098751433L224.36555555555555,130.43965943403714L224.75555555555556,118.99673592099153L224.82777777777775,121.52852779779992L224.91444444444446,117.18922028948033L225.24666666666664,115.83282688248985L225.60777777777776,119.95866084017653L225.7811111111111,120.81765563993963L225.79555555555555,114.34457885896751L225.88222222222223,120.04182992301406L226.01222222222222,118.47969388865643L226.2577777777778,116.82205729128846L226.43111111111114,121.36208660269935L226.51777777777778,126.4750007239722L226.80666666666664,116.71887029544966L226.86444444444444,113.24704035456189L227.21111111111114,119.34472535468929L227.24,114.96997378568526L227.37,116.59208460430708L228.09222222222223,111.22941460875911L228.4388888888889,117.37115288799946L228.45333333333335,117.63339487627714L228.7711111111111,124.02899891658961L229.27666666666667,118.83724385547576L229.29111111111112,123.73018974889082L229.59444444444446,122.12254947512272" style="fill: none;" fill="none"></path></g></g></g></g><g opacity="0.2"><g><g><g><path stroke="rgb(255, 112, 67)" stroke-width="2px" d="M36.19777777777778,-5.296679485175323L36.31333333333333,11.794038569761659L36.385555555555555,-51.78635097874535L36.41444444444444,1.5125274012486074L36.58777777777778,19.063207773698693L36.73222222222222,20.0799728822377L37.35333333333333,4.062687499655628L37.46888888888889,6.863564498722553L37.58444444444444,15.369169659912586L37.96,18.6049768883321L38.089999999999996,17.83918655332592L38.147777777777776,3.7883107629087256L38.17666666666667,33.765074421962126L38.37888888888889,10.645555681652489L38.40777777777778,23.10839506238699L38.50888888888889,45.29346539907988L38.62444444444444,25.812357909977457L38.71111111111111,52.06016931020554L38.72555555555555,-3.796264593799896L39.11555555555555,29.638869002461455L40.17,58.25766490317055L40.64666666666666,51.5401318230563L40.69,58.43274216436678L40.93555555555555,71.95580744246644L41.065555555555555,70.42605951180062L41.08,78.84820595963134L41.166666666666664,66.72821777313949L41.18111111111111,59.403357238405285L41.25333333333334,34.6357361285223L41.513333333333335,23.85628165221878L41.556666666666665,-3.6455378996001437L41.68666666666667,46.385658322936976L42.394444444444446,59.63369297236206L42.437777777777775,26.838452490667514L42.52444444444445,26.496651207407343L42.611111111111114,55.9656908089916L42.68333333333333,46.43174388921925L42.827777777777776,65.69815379215612L42.91444444444445,41.146915651857874L42.986666666666665,64.851474262774L43.73777777777778,11.199862631658707L43.81,31.89035705559786L43.82444444444444,65.29397490289479L44.08444444444444,51.79013957331579L44.272222222222226,74.64822126924993L44.46,70.85298647234839L45.00888888888889,84.19666432837647L45.254444444444445,54.79935943418079L45.54333333333333,73.80201143688627L45.73111111111111,55.15169666624733L46.04888888888889,64.17291863676577L46.092222222222226,50.62749209668903L46.294444444444444,75.30967439793879L46.352222222222224,81.31509614446098L47.04555555555555,88.54073088160821L47.132222222222225,75.3187644167079L47.14666666666667,66.01671888762051L47.464444444444446,75.92891005343863L47.63777777777778,81.84156203394136L47.782222222222224,67.0243018799358L48.215555555555554,46.47251543237105L48.37444444444444,60.92128906564581L48.49,80.56559324430096L48.57666666666666,78.27043257819282L49.03888888888889,73.1122015019258L49.096666666666664,62.28107114384573L49.45777777777777,68.17364127437276L49.68888888888889,77.63204065213603L49.70333333333333,69.02580981204909L49.92,92.95842934979333L49.977777777777774,68.32111692842513L50.22333333333333,30.62967183854847L50.72888888888889,60.85699583258896L50.84444444444445,64.08709301882321L51.13333333333333,76.22739790380002L51.33555555555556,78.89800305333402L51.465555555555554,83.60512237747511L51.55222222222222,81.62590663424798L51.62444444444445,69.68118450873429L51.72555555555556,80.5942447624273L51.855555555555554,70.59189018855494L52.05777777777778,110.85957737598156L52.086666666666666,87.86041619421708L52.13,90.16593321909508L52.260000000000005,71.30741373283996L52.76555555555556,71.46913686311909L53.11222222222222,89.65559359391531L53.41555555555556,90.35120106364292L53.67555555555556,85.5926222867436L53.80555555555555,88.17076159185835L53.99333333333333,87.30160107380816L54.03666666666667,76.17608120209643L54.15222222222222,91.47360195260912L54.73,83.17248997961482L54.97555555555555,102.695478786197L55.12,79.2351257859005L55.163333333333334,85.00541352108122L55.452222222222225,85.89667742823562L55.68333333333334,8.844249196350574L55.943333333333335,83.21414565833079L56.11666666666666,76.5342666225301L56.36222222222223,71.24711752931279L56.44888888888889,82.40031268613207L56.79555555555555,72.52776947451963L56.983333333333334,89.87363431768286L57.026666666666664,90.88222117225331L57.04111111111111,102.5217323332197L57.156666666666666,77.30089504437315L57.214444444444446,85.38094089221623L57.315555555555555,76.79222238312167L58.02333333333333,91.58406363965737L58.08111111111111,78.70632062107326L58.18222222222222,66.759134888649L58.31222222222222,78.81059335917236L58.63,69.272723087834L58.687777777777775,101.21434910181497L58.80333333333333,72.04969158768655L58.918888888888894,71.2822803374794L58.97666666666667,90.31583564107618L59.26555555555556,74.61872245454127L59.337777777777774,96.61122622340918L59.352222222222224,95.44588029136261L59.42444444444445,100.88994963260161L59.59777777777778,82.04322322540814L59.641111111111115,103.38242449031937L59.71333333333333,102.75361069954103L59.98777777777778,106.03292937038674L60.218888888888884,106.85683319924607L60.36333333333333,87.51635391844644L60.53666666666667,83.45889924880531L60.91222222222222,88.878700910757L61.04222222222222,81.32992843952444L61.547777777777775,67.91253578083384L61.562222222222225,101.41737333560985L61.59111111111111,89.2243518676195L62.22666666666667,96.63890611338948L62.342222222222226,98.19632472429012L62.47222222222222,82.1278699959318L62.501111111111115,99.10407868069082L62.57333333333333,101.80869081533616L62.934444444444445,85.97792580268451L62.94888888888889,95.67119671404362L63.093333333333334,89.76143198874264L63.12222222222223,77.77335498647558L63.19444444444444,85.84325169482166L63.39666666666667,94.79243503635129L63.483333333333334,111.65262855754959L63.61333333333334,85.09915031037399L63.83,102.73645754862164L63.88777777777778,102.78250167104935L63.916666666666664,101.82192061468959L64.27777777777779,87.25292296417886L64.59555555555555,74.32492236461904L64.68222222222222,93.54250219712657L64.92777777777778,95.34710577130318L65.01444444444444,90.6893092389736L65.39,100.88766561572751L58.095555555555556,69.52746464726L58.196666666666665,79.74593510809873L58.26888888888889,77.2714146491554L58.45666666666666,60.64695837762623L58.55777777777777,64.88934473610588L58.99111111111111,-2.42067859239048L59.19333333333333,51.05315732210877L59.69888888888889,32.05250383416813L59.727777777777774,57.555550748275394L60.897777777777776,85.46163668193752L61.02777777777778,36.46049983551106L61.15777777777778,78.06354485617744L61.24444444444444,35.83567386451696L61.59111111111111,84.78805431847772L62.269999999999996,83.00110582634808L62.385555555555555,53.26139641056459L62.90555555555555,80.2602901822991L63.13666666666667,47.49907050033411L63.18,62.47464157392582L63.29555555555555,88.9950982787543L63.33888888888889,90.64128962614471L63.68555555555555,64.72595464189848L63.74333333333333,94.48949427405995L64.17666666666666,79.30485276877882L64.50888888888889,80.14604328986671L64.72555555555556,104.28263106031551L64.98555555555555,48.56626817501255L65.07222222222222,-26.50683379669983L65.30333333333333,103.64668432167834L65.56333333333333,54.73003768010273L65.57777777777778,21.187619758976822L66.06888888888889,80.17072540769976L66.21333333333332,83.72891517107686L66.25666666666667,84.72162902934684L66.27111111111111,63.28660036292343L66.3,96.36892703009977L66.31444444444443,54.24215141435465L66.67555555555555,79.43672711402179L67.15222222222222,82.67392040913305L67.48444444444443,99.12398094063005L67.73,57.78561939961382L68.17777777777778,79.75836826446985L68.56777777777778,18.770033946467763L68.64,32.26437402847742L68.95777777777778,74.76971623135938L69.23222222222222,97.29618262251219L69.26111111111112,70.27584856334661L69.44888888888889,78.439643231531L69.68,45.70167815685274L70.0988888888889,84.56492060547075L70.14222222222223,107.5703812531299L70.50333333333333,93.9974728326003L70.8788888888889,94.15987287917072L71.12444444444445,89.68929205255377L71.41333333333334,118.84073358194696L71.67333333333333,74.60981663068137L71.70222222222222,42.22207054661381L71.73111111111112,98.18007412842577L71.81777777777778,97.70558804232215L72.22222222222223,98.14939186142551L72.42444444444445,101.18660013874373L73.23333333333333,58.997658741143034L73.29111111111112,44.53213258087637L73.44999999999999,57.46789239098629L73.89777777777778,94.02070441552335L74.01333333333334,28.99852461036711L74.20111111111112,67.18770118388866L74.27333333333334,109.31085276479524L74.50444444444445,92.4265112910006L74.57666666666667,101.78284366470247L74.60555555555555,65.11282841944033L74.75,98.73310092381304L74.80777777777777,32.65594477620392L75.22666666666666,60.35829732567074L75.39999999999999,54.81764077891907L76.1511111111111,87.85053413733841L76.31,99.21668163355857L76.55555555555556,84.80777238350775L76.96,108.17234863589209L77.33555555555556,41.076626874506495L77.50888888888889,107.94079261066186L77.66777777777777,110.41431381222277L77.71111111111111,84.48492936127717L78.53444444444445,110.43762367798223L78.60666666666667,111.96729332581162L78.6211111111111,84.90054214952721L78.76555555555557,93.68031222331857L79.82,92.15410543978214L79.97888888888889,37.499488059845255L79.99333333333333,101.49974990387759L80.02222222222221,111.74732776524293L80.09444444444445,106.02993159823949L80.10888888888888,97.99407410911387L80.47,94.44528749585152L80.54222222222222,112.6377581904332L80.58555555555556,116.02766748476361L80.7011111111111,87.54384961351754L80.99,97.99601736540598L81.03333333333333,107.97823943570256L81.04777777777778,118.43558306453957L81.26444444444444,116.96389797412688L81.58222222222221,96.36464910333356L81.77,59.745729525884L81.7988888888889,106.68805079907179L81.98666666666668,59.940985339383296L82.52111111111111,74.76524950481125L82.86777777777779,78.50014204945829L82.9688888888889,113.53828249664771L83.05555555555554,112.37218597034615L83.40222222222222,114.96509310230613L83.44555555555554,106.25598019568457L84.29777777777778,94.62873641567099L84.54333333333334,85.57239308084053L84.55777777777779,95.02175769830745L84.84666666666666,96.07940486694378L84.89,84.41785478509136L85.02000000000001,95.90023387389051L85.54,100.53402980955111L85.58333333333333,87.08104148465728L85.81444444444445,90.33309470406836L85.84333333333333,71.21259019358291L86.26222222222222,106.0217625540164L86.66666666666666,93.38168622677526L86.78222222222223,100.34530831045574L86.84,51.04785250872376L86.95555555555555,101.67886103358536L87.11444444444444,96.69668805640607L87.49000000000001,50.210364305310804L87.56222222222222,115.58370249511468L87.79333333333334,101.57458829548627L88.02444444444444,110.99325222646198L88.14,80.89391146020758L88.27000000000001,87.75255165538856L88.4,105.35906610969042L88.55888888888889,82.77720309959518L88.57333333333334,124.86715815299088L88.74666666666667,80.65459622442724L88.77555555555556,115.03102106518214L89.32444444444444,86.57072948871388L89.49777777777777,120.44180868876478L89.77222222222223,89.3144784366919L90.10444444444444,102.64660266704028L90.39333333333333,108.4848767432074L90.97111111111111,96.10999503648942L91.08666666666666,58.837372331155684L91.21666666666667,108.7266555858983L91.25999999999999,121.76204411995909L91.28888888888889,125.50173033711812L92.02555555555556,115.20558718550538L92.06888888888889,112.03038468708596L92.35777777777777,45.998517462776775L92.38666666666667,99.29934370393556L92.4011111111111,117.00454518571496L92.50222222222223,106.17317537425293L92.76222222222223,105.01715891435742L93.16666666666667,99.7904718000856L93.45555555555556,69.16437043249609L93.48444444444445,80.98573262244464L93.57111111111111,103.74855331621235L94.01888888888888,114.86357868297233L94.26444444444445,114.40017192065716L94.52444444444446,113.51559428870678L94.64,103.15679493629271L95.08777777777777,112.83947464037274L95.47777777777777,86.29557913334834L95.81,96.37087489126458L96.22888888888889,104.89172678606378L96.38777777777779,105.82169925338691L96.61888888888889,64.22474187446966L96.82111111111111,75.32309299707414L97.12444444444444,111.46064220368862L97.70222222222222,98.41722967889577L98.02,92.01495079075298L98.09222222222222,98.40458469837904L98.62666666666668,107.35889786812996L98.78555555555555,106.76627837700977L98.87222222222222,106.85542871306342L99.07444444444444,108.00226766160792L99.10333333333332,106.66461199687588L99.56555555555555,103.73404796711272L99.91222222222223,75.52378256039488L100.08555555555554,92.74093660588068L100.11444444444444,104.30947286345894L100.20111111111112,108.44470383351049L100.37444444444444,105.0246188081801L100.73555555555555,101.35153286531568L101.14,115.2844041871528L101.16888888888889,101.87174533762867L101.22666666666666,116.37638989173705L101.44333333333333,119.4769243788388L102.03555555555555,121.0371888010866L102.0788888888889,110.71265891152953L102.5988888888889,118.3111916374829L102.84444444444445,129.72569720467757L102.88777777777777,120.74071558254462L103.03222222222223,82.52772490969964L103.29222222222222,92.3429788996776L103.30666666666666,115.38515880248612L103.55222222222223,111.6453022050361L103.59555555555555,114.10460816447934L104.08666666666666,102.80936189368367L104.11555555555556,106.0943537677328L104.21666666666667,108.96817655571634L104.60666666666667,102.01911507960826L104.73666666666666,110.0693305619061L105.04,98.36239485442638L105.38666666666667,112.36613516757888L105.45888888888888,92.45893419989282L105.54555555555555,87.88944991678001L105.93555555555555,107.6898408614927L106.22444444444444,106.85189217080674L106.29666666666667,111.31247581872677L106.51333333333334,105.90373966594538L106.58555555555556,102.18927894160151L107.20666666666666,78.51855233063301L107.26444444444445,110.7828233573172L107.56777777777778,100.5588132345842L107.59666666666666,101.3195796534419L107.82777777777778,117.17102975439694L107.85666666666667,101.35871646677455L107.94333333333334,105.98668723843163L107.97222222222223,112.31923453882337L108.17444444444445,104.31543617364436L108.23222222222223,111.10352971860105L108.56444444444445,105.34059596517021L108.69444444444444,92.36425341169041L108.96888888888888,114.83913601852124L109.12777777777778,113.6780818278591L109.15666666666667,92.86199870995348L109.24333333333334,112.66885489597917L109.43111111111111,104.45441123263704L109.69111111111111,62.599498093128226L110.25444444444445,88.33195055690076L110.58666666666667,109.68472238174742L110.64444444444445,116.59022636670207L110.65888888888888,119.34585588632359L110.75999999999999,120.70161560819382L111.00555555555556,114.94755314207738L111.16444444444446,99.31569100212722L111.32333333333332,104.50710479128693L111.42444444444445,75.74283635616304L111.5111111111111,65.38888132986098L111.85777777777778,116.33094440276426L112.65222222222222,126.99009427655902L112.71,85.39002630611262L113.23,117.95345288970405L113.24444444444444,116.32869261999926L113.30222222222221,96.27618949818944L113.5911111111111,128.27120901147526L113.60555555555557,121.481598160954L113.62,114.38060581642722L113.73555555555556,108.07627717612519L114.3711111111111,103.6254005999201L114.47222222222221,118.4346068315208L114.51555555555557,111.01862968007725L114.79,110.465022670726L115.57000000000001,112.78346096848449L115.7,114.91463290693032L115.72888888888889,102.24188500766954L115.78666666666668,114.61344199627638L115.87333333333333,131.1761745537321L115.91666666666667,97.2505529386302L116.01777777777778,57.92454840987923L116.13333333333333,122.79726095352736L116.17666666666668,107.8005696311593L116.35000000000001,104.48413568610948L116.74000000000001,112.12476615856093L116.79777777777778,107.2048925045464L116.95666666666666,122.92454884553122L117.11555555555555,107.64283892553716L118.09777777777778,92.71881019241279L118.3,127.2234300850994L118.41555555555556,111.25061856334409L118.61777777777777,125.14569999712211L118.63222222222223,103.08803037181497L119.00777777777778,64.30721514506473L119.21000000000001,120.98665262531077L119.57111111111111,106.90407458858358L119.99000000000001,116.26555520999764L120.03333333333333,105.37586468540961L120.40888888888888,111.90976004592245L120.66888888888889,119.25360647092265L120.72666666666666,82.98545386393866L121.08777777777777,124.73930846651396L121.46333333333334,117.55201389971708L121.83888888888889,114.30195919507081L122.05555555555556,116.09651493695047L122.17111111111112,113.97734790171188L122.18555555555555,113.45906947594553L122.50333333333333,103.54118668743307L122.56111111111112,122.61960956847503L122.76333333333334,122.99673022557464L123.34111111111112,114.00694341874784L123.47111111111111,124.61616495996714L123.64444444444445,104.38548549761376L123.91888888888889,123.1886774380174L123.96222222222222,125.01743587209945L124.09222222222223,125.84383784441484L124.62666666666667,90.61935201245879L124.85777777777777,124.51988628092741L125.01666666666667,93.14871190074419L125.27666666666667,104.38863983543384L125.4211111111111,93.60520674909156L125.43555555555555,102.5851368258397L125.69555555555556,107.04171883935732L125.71,116.19878455541199L126.04222222222222,108.3829340707097L126.1,124.92063914487761L126.31666666666666,121.20793978435299L126.75,120.43889610676302L126.88,99.07626985427409L126.92333333333335,113.3013019313415L127.02444444444446,106.31299772982797L127.16888888888889,109.25247218832374L127.21222222222222,83.03861251473428L127.28444444444445,73.22937709341448L127.42888888888889,124.246029894799L127.77555555555556,119.27756562373703L127.90555555555557,121.4395671851105L128.18,107.92756281130845L128.42555555555555,121.2319449858947L129.32111111111112,118.52322300233776L129.82666666666668,112.16019604934587L130.07222222222222,115.62725998626816L130.21666666666667,108.60940631644594L130.28888888888886,120.94682968594134L130.44777777777776,110.91440759557818L130.53444444444446,110.88564556050633L130.63555555555556,107.93395437465774L130.89555555555557,110.60597322011989L130.96777777777777,108.23740627782213L131.04,105.41001902644834L131.3,105.51398323807453L131.45888888888888,118.29292871223556L131.50222222222223,116.92443881970313L131.79111111111112,118.86838584269088L131.90666666666667,122.97089458712274L132.05111111111108,114.1565004752742L132.22444444444443,109.11572588773238L132.55666666666667,124.62098165684277L132.62888888888887,126.56421492455733L133.51,114.2263195556071L133.52444444444444,120.91926261534294L133.98666666666665,118.94377681902712L134.60777777777778,116.72391963667339L134.72333333333333,102.87402812143168L134.8388888888889,124.84783380457925L134.85333333333335,100.03422152830495L135.34444444444443,107.79683968424797L135.50333333333333,109.05658550726044L135.67666666666668,125.35985190586912L135.92222222222222,128.19297913110088L136.7888888888889,76.58336377557781L137.13555555555556,68.6662429297964L137.5688888888889,47.32220654851862L137.62666666666667,109.99036620433134L137.82888888888888,115.19255539567935L138.07444444444442,129.16540392012232L138.16111111111113,119.8631373571439L138.76777777777778,113.49280477356582L138.9988888888889,118.12189913416904L139.1577777777778,111.38753524422646L139.28777777777776,107.16227901230258L139.40333333333334,124.21154630536007L139.6922222222222,111.92344112280344L139.72111111111113,115.8050817516115L139.76444444444445,120.95749917605686L139.79333333333332,116.76211705596911L139.88,66.73733542114498L140.1688888888889,112.04790622782379L140.2122222222222,133.42004154250026L140.28444444444446,124.55284795992905L140.38555555555556,115.4844122293095L140.41444444444443,108.75579061566128L141.1511111111111,114.77913913172152L141.42555555555555,121.08815553246274L141.71444444444444,110.6798537982007L141.7288888888889,119.61382033779388L141.7577777777778,117.77321817105016L141.96,110.63157631249892L142.01777777777778,75.63327722416984L142.14777777777778,91.52062230805558L142.16222222222223,98.61434125610525L142.23444444444442,122.79317182654309L142.30666666666667,132.42688791888457L142.52333333333334,120.66784347159168L142.9711111111111,74.34781779183282L143.14444444444445,109.38046002098257L143.24555555555557,106.95135281690294L143.31777777777776,131.73048150373828L143.52,114.87324891570543L143.65,116.17185986455944L144.02555555555557,75.19936006681787L144.12666666666667,86.41888841531345L144.14111111111112,121.88980401141777L144.2711111111111,117.46600869173807L144.82000000000002,109.37671625945305L144.93555555555554,106.86056775103015L144.95,124.24800768763656L145.0077777777778,104.90718073894581L145.47,104.5246954051157L146.14888888888888,108.9072448797524L146.20666666666668,119.52736615472371L146.46666666666667,109.54945885017514L146.53888888888886,118.2925372980535L146.79888888888888,130.08286494823795L146.84222222222223,128.10460932097502L147.14555555555557,119.18496163313588L147.30444444444444,119.83193473952514L147.6511111111111,122.04115006099974L147.75222222222223,110.11162171305882L147.99777777777777,119.87248985365862L148.02666666666667,105.5120169574188L148.07,118.52149157019126L148.37333333333333,122.02047188000547L148.40222222222224,136.10569081124333L148.47444444444443,113.01285270353159L148.63333333333333,101.02719325944781L148.80666666666667,90.9926091813379L149.0522222222222,107.3280360110932L149.31222222222223,116.55370051620736L149.39888888888888,81.41340557237467L149.4711111111111,95.3896409807106L149.54333333333335,116.77754337961477L149.80333333333334,105.02577463123535L149.81777777777776,102.7194978023569L150.20777777777778,123.71434438207912L150.32333333333335,123.54317665783068L150.4677777777778,135.6236089875715L150.62666666666667,111.18483335152268L150.93,128.62134281194042L151.19,132.83964108116925L151.65222222222224,98.75720282768211L151.66666666666669,118.64066567644477L151.75333333333333,121.33958388595944L152.50444444444446,67.18500272846886L152.53333333333333,123.16447652938467L152.67777777777778,117.30897332189812L152.77888888888887,127.14563536519807L153.1688888888889,123.99392002013823L153.47222222222223,89.17075575391453L153.61666666666667,101.84467789572149L153.8477777777778,70.954026589791L153.87666666666667,123.94363020505344L153.97777777777776,102.51951738943657L154.44,126.69313063907128L154.51222222222222,115.45908082442152L154.67111111111112,117.02623413627347L154.7433333333333,125.60970539289218L155.36444444444444,119.88605580872132L155.4077777777778,111.54491597952115L155.69666666666666,96.82961691750421L155.78333333333333,114.09135073588955L155.79777777777778,94.60771977653107L156.17333333333335,116.63617378680243L156.27444444444444,101.48018840452036L157.17000000000002,116.49147487100628L157.18444444444444,113.23288733719124L157.31444444444446,109.33531384873723L157.41555555555556,121.63653370882903L157.45888888888888,93.10742921671932L157.56,121.26521058649654L157.60333333333332,129.0301703202228L157.92111111111112,104.98959875106812L158.07999999999998,119.33769144697322L158.23888888888888,99.57610115988388L158.38333333333333,91.40469463707673L158.41222222222223,131.8657450353106L158.42666666666665,115.67179831531313L158.47,111.22272684921822L158.81666666666666,86.60696062735387L158.90333333333334,66.4754839382238L159.23555555555555,125.30245677216185L159.38,99.19216068627107L159.49555555555557,115.1039392248624L159.66888888888892,122.96068558428024L160.37666666666667,103.6515470672813L160.39111111111112,122.3191024814215L160.50666666666666,111.36832832006945L160.63666666666666,128.02327575638063L161.14222222222222,125.94397540680235L161.54666666666665,127.66736284063923L161.59,121.46748192360005L162.16777777777776,71.43552129218978L162.51444444444445,115.90430754919848L162.6588888888889,99.94988788912696L163.45333333333335,127.51860012465882L163.64111111111112,98.69925971411998L163.8,104.69372186354464L164.06,102.05546134006649L164.58,101.22688817025887L164.65222222222224,105.39644386164015L164.66666666666666,94.05998397991061L164.69555555555556,133.11355042333406L164.89777777777778,116.09509663614963L165.0711111111111,127.98507833708491L165.40333333333334,124.50636176971925L165.48999999999998,123.3378937339617L165.70666666666665,124.26485231208306L165.79333333333335,99.21132156170076L165.9377777777778,103.67652389696902L166.28444444444443,118.81684810709622L166.53,136.503765941701L166.84777777777776,113.96407665850388L167.29555555555555,92.27787981389298L167.39666666666668,107.10064279081094L167.44,126.92605891637504L167.55555555555557,114.06513519543742L167.78666666666666,122.72300968319178L167.84444444444443,127.20840899025401L167.94555555555556,128.52142858588033L167.97444444444446,126.87296933867037L168.01777777777778,108.7538013106419L168.52333333333334,112.19801586907774L168.62444444444444,104.43200852680539L168.85555555555555,102.45618196990758L169.14444444444445,131.2613232553833L169.54888888888888,115.35318717112145L169.57777777777778,124.3217616317173L169.5922222222222,130.09434489595395L169.6211111111111,128.5590434887757L169.70777777777778,112.22878102378714L169.83777777777777,95.16962476654186L169.92444444444445,71.51304892947277L169.99666666666667,96.15479123840731L170.41555555555556,140.58107221768134L170.61777777777777,132.79915043525398L170.77666666666667,125.58683989735114L170.92111111111112,108.28337211741342L170.9788888888889,116.17059352455868L170.9933333333333,99.81419610439076L171.39777777777778,120.89933272616732L171.52777777777777,139.4297446694432L171.64333333333335,128.030689601476L171.86,135.3400754614009L171.87444444444444,107.78375724082193L172.04777777777778,111.87465249622863L172.49555555555554,130.67354348550242L172.62555555555556,116.84522579900091L172.81333333333333,131.48193810300697L172.8711111111111,121.94656137025191L172.94333333333333,126.49291307520535L173.07333333333332,116.53659801888799L173.1888888888889,110.08604164504344L173.29,100.58600961292785L173.30444444444444,106.86966237467199L173.54999999999998,123.17596798928248L173.98333333333335,93.2613424828483L174.12777777777777,123.80874657548135L174.66222222222223,111.4743417000605L174.79222222222222,80.2063671226303L174.80666666666667,83.14936430876455L174.89333333333332,109.5999282552964L175.12444444444444,122.89404616856741L175.22555555555556,118.35980067402124L175.63,127.01831984395784L175.64444444444445,131.1423310416026L175.77444444444444,127.27688344774974L175.84666666666666,114.44182759937313L176.00555555555556,129.6937601098584L176.13555555555556,129.0188216113796L176.33777777777777,116.88883854862716L176.49666666666664,125.2320689900468L176.88666666666666,91.06248352014357L176.93,114.5011383601361L177.06,110.72881740993923L177.42111111111112,133.77504499587747L177.4788888888889,101.5028029344976L177.60888888888888,115.54328092229035L177.8111111111111,107.93983479713401L177.89777777777778,128.90657783858478L177.92666666666668,125.11012044797343L178.41777777777776,101.15746510898074L178.50444444444446,112.17463693022728L178.5911111111111,87.77764360689456L178.62,131.1296238953041L178.63444444444443,117.66237427956527L178.77888888888887,98.72646530220908L178.85111111111112,129.75396421593098L179.05333333333334,106.1504411175847L179.18333333333334,124.83579436482655L179.41444444444443,112.65854919080934L179.77555555555554,117.62285065692332L180.05,127.76483648415243L180.17999999999998,109.58798321543469L180.44,122.73275359388855L180.83,114.19714308198955L181.16222222222223,124.20535275153816L181.1911111111111,105.79040914318627L181.20555555555558,97.54670611851746L181.94222222222223,135.53664136119187L182.05777777777777,107.56447780629L182.1011111111111,116.14685540563529L182.23111111111112,136.89355690611734L182.78,127.57197059960002L182.99666666666667,107.35467980470925L183.2277777777778,132.78384844317205L183.51666666666665,123.01628942249549L183.61777777777777,133.86355295218527L183.71888888888887,131.8893035641975L183.79111111111112,95.4316420248813L184.23888888888888,126.84234923745197L184.35444444444445,133.31021532788873L184.38333333333333,112.83654133644372L184.87444444444444,117.71893593130841L184.91777777777776,102.26442125481039L185.12,112.58710919527545L185.16333333333333,125.57912443309193L185.32222222222222,101.20592678959173L185.4088888888889,122.43800720262033L185.81333333333333,120.5595023284356L185.85666666666665,114.68910466010374L185.8711111111111,127.1782102348904L185.95777777777778,122.34900652493042L185.98666666666668,124.72425283512307L186.23222222222222,106.22150351355475L186.3477777777778,124.65492647617226L186.47777777777776,123.54806933510636L186.69444444444446,130.0066566069921L186.92555555555558,138.25237196104396L187.4888888888889,127.74205157388415L187.66222222222223,118.26865182320279L187.69111111111113,121.41906859415275L187.83555555555554,127.06103924827444L187.99444444444444,107.06997894330158L188.09555555555556,123.4627042044368L188.19666666666666,120.67854749825266L188.22555555555553,127.22231570589875L188.47111111111113,100.69925264310508L188.74555555555554,128.2004712590327L189.26555555555555,102.87107639801174L189.41,106.11031886148785L189.65555555555557,121.75354352489943L189.7422222222222,119.98103821608757L189.87222222222223,121.84734017753767L190.30555555555554,110.05895578364533L190.63777777777779,140.80263682030557L190.65222222222224,112.08001600537037L190.91222222222223,127.58123099866015L191.31666666666666,127.38245015508598L191.3888888888889,141.30762903702757L191.57666666666668,126.05234417919483L191.59111111111113,112.25355523907477L191.7788888888889,119.85818251408637L191.89444444444445,111.5338734947145L191.96666666666664,123.36797046019798L191.99555555555557,121.88569876737893L192.01000000000002,117.4634714068638L192.29888888888888,97.64072380504673L192.37111111111113,125.93164586006766L192.57333333333335,115.41610354723203L192.71777777777777,110.92117675849134L192.79000000000002,128.40812569235763L192.89111111111112,134.1574589541803L193.16555555555556,110.01481807852787L193.3388888888889,131.46122538546723L193.84444444444443,123.83028356523978L193.97444444444446,124.1621037868576L194.66777777777776,124.44556133262813L194.74,104.05479577225118L194.95666666666668,122.64856961307427L195.11555555555557,132.59681462993225L195.17333333333335,126.22224095856977L195.40444444444444,117.3869844708178L195.59222222222223,133.56664687560666L195.88111111111112,131.87282963200576L196.01111111111112,113.32545448881059L196.12666666666667,113.94668865907525L196.41555555555556,108.56088016761674L196.64666666666665,114.68822973428502L196.93555555555557,131.67118225515716L196.9788888888889,123.8974433315711L197.20999999999998,120.69185097556975L197.4411111111111,120.92966732527648L197.6,130.4929288648483L198.46666666666667,105.06786316798794L198.59666666666666,98.27107101844418L198.6111111111111,133.23639231071704L199.04444444444445,127.99884460411137L199.3188888888889,117.57519482904011L199.36222222222221,117.44886935543683L199.68,77.00755544172394L200.31555555555556,127.57588704385692L200.6188888888889,121.56371685634886L200.70555555555555,122.57493079081178L200.73444444444445,127.81422604661849L201.0377777777778,114.16782846219009L201.35555555555555,124.39724470550817L201.77444444444447,102.4070617924962L202.4388888888889,117.77672708407044L202.67,120.59285081674656L202.84333333333333,126.02311014466817L203.69555555555556,105.90096292768916L203.92666666666668,114.01516311657097L204.37444444444444,128.50973451158237L204.48999999999998,93.54538024258285L204.79333333333332,128.0407535508275L205.15444444444444,136.48744397030939L205.22666666666666,131.6753473625415L205.41444444444443,124.93785446157885L205.60222222222222,129.34865252797803L205.6888888888889,124.45251008557779L206.29555555555555,101.07529115511312L206.31,98.50200999072855L206.38222222222223,119.4031036641035L206.5988888888889,127.02183796672357L207.43666666666667,110.48783060535789L207.68222222222224,123.398196844798L208.07222222222222,123.72282425521148L208.08666666666667,130.73471461484831L208.20222222222222,87.4140198317667L208.37555555555554,125.06841872053015L208.41888888888892,103.54842094249194L208.54888888888888,116.02811876229113L208.76555555555555,123.51647760574188L208.82333333333335,114.29244552801055L208.85222222222222,109.65052659685415L209.0688888888889,121.50160172809329L209.32888888888888,121.08448314646053L209.5888888888889,126.01426188171739L209.80555555555557,121.9326270253708L209.95,71.2372631016705L209.99333333333334,134.02722624606557L210.16666666666666,120.50521318138475L210.18111111111114,115.32256476746666L210.23888888888888,124.68002073011463L210.64333333333335,124.71276828253436L211.01888888888888,112.55691043991183L211.49555555555554,137.96215215966933L211.7122222222222,127.95419575812089L212.23222222222222,125.33822281865609L212.30444444444444,95.82481526831788L212.99777777777777,118.15404114582473L213.05555555555554,130.68911946751177L213.34444444444446,129.01672639428742L214.03777777777776,125.39077362625135L214.0522222222222,104.74149741811885L214.42777777777778,116.87420426309109L214.4711111111111,128.33083290358385L215.07777777777778,122.55764179614684L215.3088888888889,130.3989042710099L215.81444444444443,131.37161686457694L216.0311111111111,125.74768810181153L216.14666666666668,124.82269810678231L216.21888888888887,128.70414533093572L216.23333333333332,134.95108113996685L216.71,130.514802010316L216.95555555555555,121.26389359289574L216.99888888888887,125.18682841791046L217.04222222222222,135.1538521057616L217.23000000000002,124.33433753914302L217.62,121.79829137565362L217.88,135.47409567733607L217.9811111111111,127.86825271592373L218.0822222222222,128.94747141086393L218.31333333333333,132.28246069057948L218.4,91.70002814961805L218.70333333333332,121.33151154406369L218.89111111111112,138.35601383157902L219.05,94.60026909245386L219.39666666666668,131.8740061769883L219.7288888888889,107.29923253216678L219.77222222222224,127.670616183223L219.95999999999998,110.60425560259158L220.01777777777778,119.42291843146086L220.10444444444443,124.45865759067237L220.4077777777778,124.2932528646456L220.72555555555553,134.6399644261433L220.73999999999998,130.13813953805303L221.01444444444445,116.21253931025666L221.05777777777777,117.70497856206363L221.17333333333335,117.60623627611334L221.1877777777778,125.47337813571924L221.20222222222222,128.1337351409925L221.2888888888889,137.20699908066956L221.57777777777778,126.09390085314712L221.60666666666668,120.51555342310006L221.86666666666667,132.77427261032992L222.34333333333333,130.98047437001435L222.5888888888889,115.44743970615997L222.79111111111112,112.94153703956141L222.87777777777777,126.83034893911746L223.3688888888889,115.82962572326264L223.9611111111111,139.4343587519187L224.36555555555555,134.64873210382132L224.75555555555556,101.83235065142316L224.82777777777775,125.32621561301252L224.91444444444446,110.68025902700096L225.24666666666664,113.79823677200412L225.60777777777776,126.14741177670658L225.7811111111111,122.1061478395843L225.79555555555555,104.6349636875093L225.88222222222223,128.58770651908387L226.01222222222222,116.13648983712L226.2577777777778,114.33560239523649L226.43111111111114,128.17213056981564L226.51777777777778,134.14437190588148L226.80666666666664,102.08467465266585L226.86444444444444,108.03929544323022L227.21111111111114,128.49125285488037L227.24,108.40784643217921L227.37,119.0252508322398L228.09222222222223,103.18540961543721L228.4388888888889,126.58376030686003L228.45333333333335,118.0267578586936L228.7711111111111,133.62240497705838L229.27666666666667,111.04961126380498L229.29111111111112,131.06960858901343L229.59444444444446,119.71108906447058" style="fill: none;" fill="none"></path></g></g></g></g></g></g><g transform="translate(70, 178)" clip-path="url(#clip_1)"><clipPath id="clip_1"><rect width="260" height="21"></rect></clipPath><g><g><line x1="0" y1="0" x2="0" y2="5" style="visibility: inherit;" fill="rgb(0, 0, 0)" stroke="rgb(204, 204, 204)" stroke-width="1px"></line><line x1="28.888888888888886" y1="0" x2="28.888888888888886" y2="5" style="visibility: inherit;" fill="rgb(0, 0, 0)" stroke="rgb(204, 204, 204)" stroke-width="1px"></line><line x1="57.77777777777777" y1="0" x2="57.77777777777777" y2="5" style="visibility: inherit;" fill="rgb(0, 0, 0)" stroke="rgb(204, 204, 204)" stroke-width="1px"></line><line x1="86.66666666666666" y1="0" x2="86.66666666666666" y2="5" style="visibility: inherit;" fill="rgb(0, 0, 0)" stroke="rgb(204, 204, 204)" stroke-width="1px"></line><line x1="115.55555555555554" y1="0" x2="115.55555555555554" y2="5" style="visibility: inherit;" fill="rgb(0, 0, 0)" stroke="rgb(204, 204, 204)" stroke-width="1px"></line><line x1="144.44444444444446" y1="0" x2="144.44444444444446" y2="5" style="visibility: inherit;" fill="rgb(0, 0, 0)" stroke="rgb(204, 204, 204)" stroke-width="1px"></line><line x1="173.33333333333331" y1="0" x2="173.33333333333331" y2="5" style="visibility: inherit;" fill="rgb(0, 0, 0)" stroke="rgb(204, 204, 204)" stroke-width="1px"></line><line x1="202.22222222222223" y1="0" x2="202.22222222222223" y2="5" style="visibility: inherit;" fill="rgb(0, 0, 0)" stroke="rgb(204, 204, 204)" stroke-width="1px"></line><line x1="231.1111111111111" y1="0" x2="231.1111111111111" y2="5" style="visibility: inherit;" fill="rgb(0, 0, 0)" stroke="rgb(204, 204, 204)" stroke-width="1px"></line><line x1="260" y1="0" x2="260" y2="5" style="visibility: inherit;" fill="rgb(0, 0, 0)" stroke="rgb(204, 204, 204)" stroke-width="1px"></line></g><g transform="translate(0, 8)"><text x="0" y="0" dx="0em" dy="0.95em" style="text-anchor: middle; visibility: hidden; font-family: Roboto, sans-serif; font-size: 12px; font-weight: 200;" fill="rgb(50, 49, 63)" stroke="none" stroke-width="1px">-2k</text><text x="28.888888888888886" y="0" dx="0em" dy="0.95em" style="text-anchor: middle; visibility: inherit; font-family: Roboto, sans-serif; font-size: 12px; font-weight: 200;" fill="rgb(50, 49, 63)" stroke="none" stroke-width="1px">0</text><text x="57.77777777777777" y="0" dx="0em" dy="0.95em" style="text-anchor: middle; visibility: inherit; font-family: Roboto, sans-serif; font-size: 12px; font-weight: 200;" fill="rgb(50, 49, 63)" stroke="none" stroke-width="1px">2k</text><text x="86.66666666666666" y="0" dx="0em" dy="0.95em" style="text-anchor: middle; visibility: inherit; font-family: Roboto, sans-serif; font-size: 12px; font-weight: 200;" fill="rgb(50, 49, 63)" stroke="none" stroke-width="1px">4k</text><text x="115.55555555555554" y="0" dx="0em" dy="0.95em" style="text-anchor: middle; visibility: inherit; font-family: Roboto, sans-serif; font-size: 12px; font-weight: 200;" fill="rgb(50, 49, 63)" stroke="none" stroke-width="1px">6k</text><text x="144.44444444444446" y="0" dx="0em" dy="0.95em" style="text-anchor: middle; visibility: inherit; font-family: Roboto, sans-serif; font-size: 12px; font-weight: 200;" fill="rgb(50, 49, 63)" stroke="none" stroke-width="1px">8k</text><text x="173.33333333333331" y="0" dx="0em" dy="0.95em" style="text-anchor: middle; visibility: inherit; font-family: Roboto, sans-serif; font-size: 12px; font-weight: 200;" fill="rgb(50, 49, 63)" stroke="none" stroke-width="1px">10k</text><text x="202.22222222222223" y="0" dx="0em" dy="0.95em" style="text-anchor: middle; visibility: inherit; font-family: Roboto, sans-serif; font-size: 12px; font-weight: 200;" fill="rgb(50, 49, 63)" stroke="none" stroke-width="1px">12k</text><text x="231.1111111111111" y="0" dx="0em" dy="0.95em" style="text-anchor: middle; visibility: inherit; font-family: Roboto, sans-serif; font-size: 12px; font-weight: 200;" fill="rgb(50, 49, 63)" stroke="none" stroke-width="1px">14k</text><text x="260" y="0" dx="0em" dy="0.95em" style="text-anchor: middle; visibility: hidden; font-family: Roboto, sans-serif; font-size: 12px; font-weight: 200;" fill="rgb(50, 49, 63)" stroke="none" stroke-width="1px">16k</text></g><line x1="0" y1="0" x2="260" y2="0" fill="rgb(0, 0, 0)" stroke="rgb(204, 204, 204)" stroke-width="1px"></line></g></g></g></g></svg>