<svg viewBox="0 0 330.0000305175781 200.00001525878906" xmlns="http://www.w3.org/2000/svg"><g><g><g><g><g><line x1="58" y1="178" x2="53" y2="178" style="visibility: inherit;" fill="rgb(0, 0, 0)" stroke="rgb(204, 204, 204)" stroke-width="1px"></line><line x1="58" y1="165.28571428571428" x2="53" y2="165.28571428571428" style="visibility: inherit;" fill="rgb(0, 0, 0)" stroke="rgb(204, 204, 204)" stroke-width="1px"></line><line x1="58" y1="152.57142857142856" x2="53" y2="152.57142857142856" style="visibility: inherit;" fill="rgb(0, 0, 0)" stroke="rgb(204, 204, 204)" stroke-width="1px"></line><line x1="58" y1="139.85714285714286" x2="53" y2="139.85714285714286" style="visibility: inherit;" fill="rgb(0, 0, 0)" stroke="rgb(204, 204, 204)" stroke-width="1px"></line><line x1="58" y1="127.14285714285712" x2="53" y2="127.14285714285712" style="visibility: inherit;" fill="rgb(0, 0, 0)" stroke="rgb(204, 204, 204)" stroke-width="1px"></line><line x1="58" y1="114.42857142857142" x2="53" y2="114.42857142857142" style="visibility: inherit;" fill="rgb(0, 0, 0)" stroke="rgb(204, 204, 204)" stroke-width="1px"></line><line x1="58" y1="101.71428571428571" x2="53" y2="101.71428571428571" style="visibility: inherit;" fill="rgb(0, 0, 0)" stroke="rgb(204, 204, 204)" stroke-width="1px"></line><line x1="58" y1="89" x2="53" y2="89" style="visibility: inherit;" fill="rgb(0, 0, 0)" stroke="rgb(204, 204, 204)" stroke-width="1px"></line><line x1="58" y1="76.28571428571428" x2="53" y2="76.28571428571428" style="visibility: inherit;" fill="rgb(0, 0, 0)" stroke="rgb(204, 204, 204)" stroke-width="1px"></line><line x1="58" y1="63.571428571428584" x2="53" y2="63.571428571428584" style="visibility: inherit;" fill="rgb(0, 0, 0)" stroke="rgb(204, 204, 204)" stroke-width="1px"></line><line x1="58" y1="50.857142857142854" x2="53" y2="50.857142857142854" style="visibility: inherit;" fill="rgb(0, 0, 0)" stroke="rgb(204, 204, 204)" stroke-width="1px"></line><line x1="58" y1="38.142857142857125" x2="53" y2="38.142857142857125" style="visibility: inherit;" fill="rgb(0, 0, 0)" stroke="rgb(204, 204, 204)" stroke-width="1px"></line><line x1="58" y1="25.428571428571416" x2="53" y2="25.428571428571416" style="visibility: inherit;" fill="rgb(0, 0, 0)" stroke="rgb(204, 204, 204)" stroke-width="1px"></line><line x1="58" y1="12.714285714285689" x2="53" y2="12.714285714285689" style="visibility: inherit;" fill="rgb(0, 0, 0)" stroke="rgb(204, 204, 204)" stroke-width="1px"></line><line x1="58" y1="0" x2="53" y2="0" style="visibility: inherit;" fill="rgb(0, 0, 0)" stroke="rgb(204, 204, 204)" stroke-width="1px"></line></g><g transform="translate(48, 0)"><text x="0" y="178" dx="0em" dy="0.3em" style="text-anchor: end; visibility: hidden; font-family: Roboto, sans-serif; font-size: 12px; font-weight: 200;" fill="rgb(50, 49, 63)" stroke="none" stroke-width="1px">-0.2</text><text x="0" y="165.28571428571428" dx="0em" dy="0.3em" style="text-anchor: end; visibility: inherit; font-family: Roboto, sans-serif; font-size: 12px; font-weight: 200;" fill="rgb(50, 49, 63)" stroke="none" stroke-width="1px">-0.1</text><text x="0" y="152.57142857142856" dx="0em" dy="0.3em" style="text-anchor: end; visibility: hidden; font-family: Roboto, sans-serif; font-size: 12px; font-weight: 200;" fill="rgb(50, 49, 63)" stroke="none" stroke-width="1px">0</text><text x="0" y="139.85714285714286" dx="0em" dy="0.3em" style="text-anchor: end; visibility: inherit; font-family: Roboto, sans-serif; font-size: 12px; font-weight: 200;" fill="rgb(50, 49, 63)" stroke="none" stroke-width="1px">0.1</text><text x="0" y="127.14285714285712" dx="0em" dy="0.3em" style="text-anchor: end; visibility: hidden; font-family: Roboto, sans-serif; font-size: 12px; font-weight: 200;" fill="rgb(50, 49, 63)" stroke="none" stroke-width="1px">0.2</text><text x="0" y="114.42857142857142" dx="0em" dy="0.3em" style="text-anchor: end; visibility: inherit; font-family: Roboto, sans-serif; font-size: 12px; font-weight: 200;" fill="rgb(50, 49, 63)" stroke="none" stroke-width="1px">0.3</text><text x="0" y="101.71428571428571" dx="0em" dy="0.3em" style="text-anchor: end; visibility: hidden; font-family: Roboto, sans-serif; font-size: 12px; font-weight: 200;" fill="rgb(50, 49, 63)" stroke="none" stroke-width="1px">0.4</text><text x="0" y="89" dx="0em" dy="0.3em" style="text-anchor: end; visibility: inherit; font-family: Roboto, sans-serif; font-size: 12px; font-weight: 200;" fill="rgb(50, 49, 63)" stroke="none" stroke-width="1px">0.5</text><text x="0" y="76.28571428571428" dx="0em" dy="0.3em" style="text-anchor: end; visibility: hidden; font-family: Roboto, sans-serif; font-size: 12px; font-weight: 200;" fill="rgb(50, 49, 63)" stroke="none" stroke-width="1px">0.6</text><text x="0" y="63.571428571428584" dx="0em" dy="0.3em" style="text-anchor: end; visibility: inherit; font-family: Roboto, sans-serif; font-size: 12px; font-weight: 200;" fill="rgb(50, 49, 63)" stroke="none" stroke-width="1px">0.7</text><text x="0" y="50.857142857142854" dx="0em" dy="0.3em" style="text-anchor: end; visibility: hidden; font-family: Roboto, sans-serif; font-size: 12px; font-weight: 200;" fill="rgb(50, 49, 63)" stroke="none" stroke-width="1px">0.8</text><text x="0" y="38.142857142857125" dx="0em" dy="0.3em" style="text-anchor: end; visibility: inherit; font-family: Roboto, sans-serif; font-size: 12px; font-weight: 200;" fill="rgb(50, 49, 63)" stroke="none" stroke-width="1px">0.9</text><text x="0" y="25.428571428571416" dx="0em" dy="0.3em" style="text-anchor: end; visibility: hidden; font-family: Roboto, sans-serif; font-size: 12px; font-weight: 200;" fill="rgb(50, 49, 63)" stroke="none" stroke-width="1px">1</text><text x="0" y="12.714285714285689" dx="0em" dy="0.3em" style="text-anchor: end; visibility: inherit; font-family: Roboto, sans-serif; font-size: 12px; font-weight: 200;" fill="rgb(50, 49, 63)" stroke="none" stroke-width="1px">1.1</text><text x="0" y="0" dx="0em" dy="0.3em" style="text-anchor: end; visibility: hidden; font-family: Roboto, sans-serif; font-size: 12px; font-weight: 200;" fill="rgb(50, 49, 63)" stroke="none" stroke-width="1px">1.2</text></g><line x1="58" y1="0" x2="58" y2="178" fill="rgb(0, 0, 0)" stroke="rgb(204, 204, 204)" stroke-width="1px"></line></g></g><g transform="translate(58, 0)" clip-path="url(#clip_0)"><clipPath id="clip_0"><rect width="271" height="177"></rect></clipPath><g><g><g><line x1="0" y1="0" x2="0" y2="178" fill="rgb(0, 0, 0)" stroke="rgb(60, 60, 60)" stroke-width="1px" opacity="0.25"></line><line x1="19.428571428571427" y1="0" x2="19.428571428571427" y2="178" fill="rgb(0, 0, 0)" stroke="rgb(60, 60, 60)" stroke-width="1px" opacity="0.25"></line><line x1="38.857142857142854" y1="0" x2="38.857142857142854" y2="178" fill="rgb(0, 0, 0)" stroke="rgb(60, 60, 60)" stroke-width="1px" opacity="0.25"></line><line x1="58.285714285714285" y1="0" x2="58.285714285714285" y2="178" fill="rgb(0, 0, 0)" stroke="rgb(60, 60, 60)" stroke-width="1px" opacity="0.25"></line><line x1="77.71428571428571" y1="0" x2="77.71428571428571" y2="178" fill="rgb(0, 0, 0)" stroke="rgb(60, 60, 60)" stroke-width="1px" opacity="0.25"></line><line x1="97.14285714285714" y1="0" x2="97.14285714285714" y2="178" fill="rgb(0, 0, 0)" stroke="rgb(60, 60, 60)" stroke-width="1px" opacity="0.25"></line><line x1="116.57142857142857" y1="0" x2="116.57142857142857" y2="178" fill="rgb(0, 0, 0)" stroke="rgb(60, 60, 60)" stroke-width="1px" opacity="0.25"></line><line x1="136" y1="0" x2="136" y2="178" fill="rgb(0, 0, 0)" stroke="rgb(60, 60, 60)" stroke-width="1px" opacity="0.25"></line><line x1="155.42857142857142" y1="0" x2="155.42857142857142" y2="178" fill="rgb(0, 0, 0)" stroke="rgb(60, 60, 60)" stroke-width="1px" opacity="0.25"></line><line x1="174.85714285714286" y1="0" x2="174.85714285714286" y2="178" fill="rgb(0, 0, 0)" stroke="rgb(60, 60, 60)" stroke-width="1px" opacity="0.25"></line><line x1="194.28571428571428" y1="0" x2="194.28571428571428" y2="178" fill="rgb(0, 0, 0)" stroke="rgb(60, 60, 60)" stroke-width="1px" opacity="0.25"></line><line x1="213.71428571428572" y1="0" x2="213.71428571428572" y2="178" fill="rgb(0, 0, 0)" stroke="rgb(60, 60, 60)" stroke-width="1px" opacity="0.25"></line><line x1="233.14285714285714" y1="0" x2="233.14285714285714" y2="178" fill="rgb(0, 0, 0)" stroke="rgb(60, 60, 60)" stroke-width="1px" opacity="0.25"></line><line x1="252.57142857142858" y1="0" x2="252.57142857142858" y2="178" fill="rgb(0, 0, 0)" stroke="rgb(60, 60, 60)" stroke-width="1px" opacity="0.25"></line><line x1="272" y1="0" x2="272" y2="178" fill="rgb(0, 0, 0)" stroke="rgb(60, 60, 60)" stroke-width="1px" opacity="0.25"></line></g><g><line x1="0" y1="178" x2="272" y2="178" fill="rgb(0, 0, 0)" stroke="rgb(60, 60, 60)" stroke-width="1px" opacity="0.25"></line><line x1="0" y1="165.28571428571428" x2="272" y2="165.28571428571428" fill="rgb(0, 0, 0)" stroke="rgb(60, 60, 60)" stroke-width="1px" opacity="0.25"></line><line x1="0" y1="152.57142857142856" x2="272" y2="152.57142857142856" fill="rgb(0, 0, 0)" stroke="rgb(60, 60, 60)" stroke-width="1px" opacity="0.25"></line><line x1="0" y1="139.85714285714286" x2="272" y2="139.85714285714286" fill="rgb(0, 0, 0)" stroke="rgb(60, 60, 60)" stroke-width="1px" opacity="0.25"></line><line x1="0" y1="127.14285714285712" x2="272" y2="127.14285714285712" fill="rgb(0, 0, 0)" stroke="rgb(60, 60, 60)" stroke-width="1px" opacity="0.25"></line><line x1="0" y1="114.42857142857142" x2="272" y2="114.42857142857142" fill="rgb(0, 0, 0)" stroke="rgb(60, 60, 60)" stroke-width="1px" opacity="0.25"></line><line x1="0" y1="101.71428571428571" x2="272" y2="101.71428571428571" fill="rgb(0, 0, 0)" stroke="rgb(60, 60, 60)" stroke-width="1px" opacity="0.25"></line><line x1="0" y1="89" x2="272" y2="89" fill="rgb(0, 0, 0)" stroke="rgb(60, 60, 60)" stroke-width="1px" opacity="0.25"></line><line x1="0" y1="76.28571428571428" x2="272" y2="76.28571428571428" fill="rgb(0, 0, 0)" stroke="rgb(60, 60, 60)" stroke-width="1px" opacity="0.25"></line><line x1="0" y1="63.571428571428584" x2="272" y2="63.571428571428584" fill="rgb(0, 0, 0)" stroke="rgb(60, 60, 60)" stroke-width="1px" opacity="0.25"></line><line x1="0" y1="50.857142857142854" x2="272" y2="50.857142857142854" fill="rgb(0, 0, 0)" stroke="rgb(60, 60, 60)" stroke-width="1px" opacity="0.25"></line><line x1="0" y1="38.142857142857125" x2="272" y2="38.142857142857125" fill="rgb(0, 0, 0)" stroke="rgb(60, 60, 60)" stroke-width="1px" opacity="0.25"></line><line x1="0" y1="25.428571428571416" x2="272" y2="25.428571428571416" fill="rgb(0, 0, 0)" stroke="rgb(60, 60, 60)" stroke-width="1px" opacity="0.25"></line><line x1="0" y1="12.714285714285689" x2="272" y2="12.714285714285689" fill="rgb(0, 0, 0)" stroke="rgb(60, 60, 60)" stroke-width="1px" opacity="0.25"></line><line x1="0" y1="0" x2="272" y2="0" fill="rgb(0, 0, 0)" stroke="rgb(60, 60, 60)" stroke-width="1px" opacity="0.25"></line></g></g></g><g><g><line x1="0" y1="152.57142857142856" x2="272" y2="152.57142857142856" fill="rgb(0, 0, 0)" stroke="rgb(153, 153, 153)" stroke-width="1.5px"></line></g></g><g><g><line x1="19.428571428571427" y1="0" x2="19.428571428571427" y2="178" fill="rgb(0, 0, 0)" stroke="rgb(153, 153, 153)" stroke-width="1.5px"></line></g></g><g><g><g><g><g><path stroke="rgb(255, 112, 67)" stroke-width="2px" d="M24.674285714285716,-0.16554847518413052L24.77142857142857,0.7142250613390353L24.86857142857143,0.8565633044298893L24.965714285714288,1.6325673489730055L25.548571428571428,3.2282955225497414L25.74285714285714,4.970746403944869L25.93714285714286,6.3637935153767256L26.034285714285712,8.020363396475176L26.325714285714284,10.09530779379921L26.422857142857143,12.138380904193623L26.52,13.91182482194192L26.617142857142856,15.868986097932169L27.102857142857143,17.65802286603301L27.588571428571427,20.523753147585694L27.88,23.532947632200717L27.977142857142855,26.982192951896884L28.56,30.76925013701765L29.337142857142858,33.799821966976396L29.62857142857143,37.16711274076892L29.725714285714286,41.355476555814356L30.405714285714286,45.45251379012592L30.697142857142854,48.737851846774134L30.891428571428573,51.31360413067849L31.571428571428573,54.391027060343525L31.668571428571425,57.975287673020205L19.525714285714287,51.76639992395679L19.622857142857143,45.841989321541426L20.302857142857146,41.025204789403844L20.497142857142858,36.30737733502388L20.69142857142857,32.38100617532084L20.78857142857143,28.75438188962853L20.885714285714286,25.50873060036035L21.565714285714282,22.71431787477913L22.051428571428573,20.251276838001143L22.245714285714286,18.001309937580313L22.34285714285714,15.891236677910893L22.731428571428573,14.089321661172706L23.217142857142857,12.326246572247802L23.314285714285713,10.901209221871719L23.605714285714285,9.736411246757037L24.18857142857143,9.078767281572384L24.285714285714285,8.450432821752207L24.48,7.7115543570812015L24.77142857142857,7.565183257960069L24.965714285714288,7.556457631460139L25.06285714285714,7.626316143057386L25.25714285714286,8.133942332335474L25.451428571428572,8.73387964894546L25.548571428571428,8.852019370383248L26.22857142857143,9.944785524767056L27.005714285714284,12.9514968016624L27.102857142857143,15.564734054146236L27.200000000000003,18.17873260940951L27.588571428571427,21.610040568809392L28.56,24.832128357704438L28.65714285714286,27.779820006678342L28.85142857142857,31.318363443259255L29.24,35.14068023404132L29.53142857142857,38.554943356896445L29.62857142857143,41.2019705164913L29.725714285714286,44.60631437875132L30.017142857142858,48.04827423031327L31.18285714285714,51.906172938489924L31.765714285714285,55.283659763063824L32.05714285714286,57.85534706441634L32.251428571428576,60.868240000227246L32.348571428571425,63.43846173520007L32.542857142857144,65.3219836108751L32.93142857142857,67.9826912313911L33.32,69.87472122525674L33.51428571428572,71.96160184016296L34,73.88141140564116L34.582857142857144,75.95531534379758L35.26285714285714,78.22746315955004L35.36,79.56510058769251L35.84571428571429,82.12709977936703L35.94285714285714,83.69667197784328L36.33142857142857,84.9824047465497L36.42857142857143,85.3624308735066L36.81714285714286,86.0241669978003L36.91428571428571,87.65556107636763L37.10857142857143,88.22212105891319L37.400000000000006,88.98191363832004L37.885714285714286,88.76179941178066L37.98285714285714,89.65196906641418L38.080000000000005,90.78586247036259L38.565714285714286,91.0985360368856L38.66285714285715,91.98563250913425L38.76,92.71198499527092L39.05142857142857,93.69025048001107L39.92571428571429,94.46295451582145L40.12,94.27080052504145L40.50857142857143,95.19979483129056L40.70285714285714,95.8257137847103L40.8,96.84391688187148L41.285714285714285,97.03532393790995L41.38285714285714,98.38483154050606L41.965714285714284,99.28133501150002L42.25714285714286,100.18899805174979L42.645714285714284,100.05993789747475L43.034285714285716,99.70451224301054L43.22857142857143,100.42423341233378L43.61714285714286,100.64052815249664L43.714285714285715,101.429189542847L43.81142857142857,101.69759944000357L44.005714285714284,102.08920046056618L44.49142857142857,102.23800521257513L44.58857142857143,102.76710702839421L44.97714285714286,103.40698673598011L45.07428571428571,103.69825973672987L45.17142857142857,103.68393622971712L46.628571428571426,103.95750729318247L47.308571428571426,104.52873272306597L47.40571428571429,104.74197529669493L47.89142857142857,105.62359237912477L47.98857142857143,105.81304476982821L48.18285714285714,105.78514109554386L48.37714285714286,106.05480550206913L48.76571428571429,106.60844224206647L49.64,107.444236465206L49.83428571428571,107.13882616770447L49.931428571428576,107.2527359040875L50.222857142857144,107.35355976772624L50.80571428571428,107.22027168005184L51.582857142857144,107.27610565264621L51.68,107.5958222630364L51.97142857142857,107.95107247837554L52.068571428571424,108.11062369734184L52.36,107.95412983408112L52.45714285714286,108.18145161506274L52.94285714285714,108.67226246886939L53.04,108.8722851775216L54.10857142857143,108.9590109784391L54.400000000000006,109.17991639921297L54.497142857142855,108.8052463933026L54.691428571428574,109.40981876779301L54.885714285714286,109.95839865083701L55.177142857142854,110.35226991843723L56.245714285714286,109.94782541126608L56.73142857142857,110.37608148869488L56.92571428571429,110.70549728751567L57.21714285714285,110.76815918622745L57.41142857142857,110.83354731136147L57.89714285714285,110.09305669468976L57.994285714285716,110.40687119250342L58.57714285714286,110.55069400584794L58.77142857142857,111.30344331075446L58.868571428571435,111.73273955650883L59.06285714285714,111.54019945241582L59.16,111.5978784988461L59.25714285714286,111.7387187761414L59.45142857142857,112.09427087326225L59.645714285714284,112.43427524224975L60.131428571428565,112.46040668717399L60.22857142857143,112.8297575236445L60.325714285714284,113.09838668275462L60.52,113.05235012336647L61.10285714285715,113.45775529727051L61.29714285714286,113.55501143971675L61.68571428571428,113.30127612027108L61.78285714285715,113.36991605929289L61.88,113.83286397244122L62.26857142857143,114.05573680642358L62.65714285714285,114.31406828208755L62.754285714285714,114.69767535670721L63.04571428571429,114.43554976451934L63.24,114.80936440653191L63.33714285714285,115.08199735104884L63.434285714285714,114.6219503446622L63.53142857142857,114.99798193880767L63.628571428571426,114.6366638052167L63.72571428571429,114.7317248025856L63.919999999999995,114.67084184201106L64.01714285714286,114.98316792531811L64.50285714285715,114.79037446240845L64.6,114.7250292801065L64.98857142857143,114.58992744224604L65.28,114.8962811471902L65.47428571428571,114.65687671394159L66.05714285714285,115.03716335035719L66.25142857142858,115.16266361661032L66.73714285714286,115.10778812741404L67.12571428571428,115.1621100467352L67.22285714285714,115.35466132007316L67.41714285714286,115.5234396596208L67.70857142857143,115.64605911095231L68.58285714285715,115.86355869096L69.26285714285713,116.14243587547296L69.36,116.44247061476639L69.55428571428571,116.74042603886065L69.65142857142857,117.03925494128958L69.74857142857144,116.47084335976795L69.84571428571428,116.00610193443073L70.04,116.0089360430704L70.33142857142857,115.97744992141452L70.72,116.07805082717202L70.81714285714285,115.87498765153815L71.2057142857143,115.87589404252004L71.49714285714285,115.73854327736439L71.88571428571429,116.12490241332549L72.17714285714285,116.48057944552212L72.27428571428572,116.3573912860954L72.37142857142857,115.97490564547917L72.46857142857142,116.09352793559248L72.5657142857143,116.08039656177533L72.76,116.41594546303477L72.85714285714286,115.52236298937481L72.95428571428572,115.0263711556924L73.14857142857142,114.63133857183408L73.24571428571429,114.78550064231851L73.34285714285714,115.41668892206665L73.44,115.31289011765004L73.63428571428572,115.41270281038362L73.82857142857142,115.56427013635889L73.92571428571429,115.07983795784828L74.60571428571428,115.35046037080315L74.89714285714285,115.30275218524615L75.09142857142858,115.75441970383291L75.28571428571429,115.69808308101388L75.57714285714286,116.08076101803985L75.77142857142857,116.15144241177642L75.96571428571428,116.0592275307829L76.35428571428571,116.046635453068L76.74285714285715,115.75541721869142L77.03428571428572,115.97995445339433L77.13142857142857,116.19267108414165L77.22857142857143,116.65607299372712L77.3257142857143,117.12626260786222L77.90857142857142,117.48106842537157L78.49142857142857,117.48182749207024L78.6857142857143,117.67468926334448L78.78285714285714,117.78238816921476L78.88,117.76066897049786L79.17142857142858,117.8024987614327L79.46285714285715,117.63956641111848L79.56,117.6844356060181L79.85142857142858,117.75253212112733L79.94857142857143,117.92459826589929L80.04571428571428,118.41380313266596L80.24,118.40544239359875L80.4342857142857,117.45993540339366L81.01714285714286,117.29702818594063L81.30857142857143,117.4834747775265L81.40571428571428,117.55104263995909L81.69714285714286,115.06534663433034L81.7942857142857,115.257511396697L81.89142857142856,115.11653863571814L82.08571428571427,113.93788954736296L82.18285714285715,113.98736946478556L82.76571428571428,114.42616194171447L83.15428571428572,114.88053985550495L83.25142857142856,115.08689786979325L83.44571428571429,115.03853799264945L83.64,115.71964384385024L83.83428571428571,115.98646612364469L83.93142857142857,116.13411713300728L84.02857142857144,116.50040838881498L84.12571428571428,117.22095948246886L84.22285714285715,117.19068716404401L84.51428571428572,117.42105063591214L84.70857142857143,117.51514727672088L84.90285714285714,117.07133805189937L85.19428571428571,117.18942233499573L85.38857142857144,117.53371569348683L85.48571428571428,117.9607471293635L85.58285714285715,117.4240798668987L85.97142857142856,117.30877186083559L86.16571428571429,117.26248064454073L86.26285714285713,117.71470576998557L86.45714285714286,117.66040825248459L86.74857142857144,117.5051043320616L87.13714285714285,117.7726199766028L87.42857142857143,117.72267118922552L87.72,117.7711195087711L87.81714285714285,117.40188877779194L88.01142857142857,117.73243346680782L88.2057142857143,117.92989802031059L88.4,117.91906637848918L88.88571428571429,118.17750160478336L89.17714285714285,118.61491726859916L89.37142857142857,118.46010757493744L89.66285714285713,118.65310115863731L90.44,118.58798784198372L90.82857142857142,118.79528621768193L91.21714285714286,118.45957617446352L91.41142857142857,118.59619597714968L91.50857142857143,118.8717855953993L91.89714285714285,119.04148291443184L92.09142857142858,119.28574050953657L92.18857142857142,119.42971199806422L92.48,119.86325631276782L92.6742857142857,119.98927520447813L92.86857142857143,120.14089823084673L93.16000000000001,120.03184499173062L93.35428571428571,120.36419802878696L93.45142857142858,120.0550308097526L93.64571428571429,119.7985020077723L94.03428571428572,119.92695122031847L94.42285714285714,120.00597029772743L95.10285714285715,119.83721706815885L95.19999999999999,119.50049862287506L95.29714285714286,119.86185640584715L95.39428571428572,119.85333971735284L95.58857142857143,119.8934858440013L95.6857142857143,119.91564713193551L95.88,120.11759001814686L95.97714285714287,120.06285363472811L96.07428571428571,119.72101110679063L96.36571428571428,119.68743094108156L96.46285714285715,120.09013972764981L96.56,119.76483870395641L96.65714285714286,120.20806914858352L96.85142857142858,119.44581257791987L97.4342857142857,119.42353886081708L97.53142857142858,119.99917758873215L97.82285714285715,120.24815441744383L98.50285714285715,120.06285694629548L98.7942857142857,119.64193296057947L99.47428571428571,119.48299081414186L99.57142857142857,119.42752307784305L99.66857142857143,119.48530915156717L99.86285714285715,119.62361418532048L99.96,118.59557519038277L100.05714285714286,118.72933317051397L100.34857142857143,118.0678173096467L100.44571428571429,118.61320029463627L100.64,118.67140505232615L100.83428571428571,118.69857707188908L100.93142857142857,119.17739730259947L101.32,119.54664090948643L101.41714285714285,119.85233927591536L101.80571428571429,119.67980028786903L101.90285714285714,119.73063561727811L102,120.02251351416724L102.09714285714286,120.15336119973358L102.38857142857144,120.36496285528698L102.48571428571428,120.41830674816279L102.58285714285715,120.17660315215217L102.87428571428572,120.24422049691513L102.97142857142856,120.1669654801807L103.74857142857144,120.32608194760658L104.13714285714285,120.32361829785607L104.33142857142857,120.57900028810764L104.52571428571429,120.8651364854843L104.62285714285714,120.62132975820677L104.91428571428573,120.60284207746112L105.01142857142857,120.8126830782972L105.2057142857143,120.64653049986757L105.30285714285714,120.49146215349653L105.4,120.9540193169605L105.49714285714285,121.28112582128013L105.78857142857142,121.44550638282982L106.5657142857143,121.40210862695253L106.76,121.60221114819414L106.95428571428572,121.85156306086631L107.14857142857142,122.26613365992122L107.24571428571429,122.22891457892679L107.53714285714285,121.81471141081269L107.73142857142857,121.7975285780964L107.82857142857142,121.53678328813525L107.92571428571429,121.44129036896979L108.41142857142857,121.76818645456207L109.09142857142858,121.55678036878544L109.18857142857142,122.09663549298509L109.48,122.23656477243719L109.6742857142857,122.27475647923409L110.25714285714285,122.26646619044807L110.35428571428571,122.51480075847437L110.54857142857142,122.14017885572483L110.74285714285715,121.71448483917635L111.13142857142857,121.8283556861213L111.52,122.05752066549724L111.71428571428571,122.0247001534353L112.19999999999999,121.94271508667578L112.29714285714286,122.25234243958673L112.39428571428572,122.5694732063494L113.07428571428571,122.65988084104707L113.17142857142858,122.78704947104117L113.75428571428571,122.8240810863764L113.94857142857143,123.21629626957184L114.14285714285714,123.32572397485788L114.24,122.84122431738196L114.33714285714287,123.02372136061675L115.21142857142858,122.9115291903066L115.40571428571428,123.00441817923355L115.69714285714286,123.07867952421876L116.08571428571427,123.12850447167115L116.28,123.15821854389236L116.37714285714286,123.18736068966008L116.76571428571428,123.56687441459823L116.86285714285715,123.73183649813369L117.05714285714286,123.46745432433907L117.15428571428572,123.30227137777035L117.25142857142856,123.12281967300574L117.54285714285714,122.93038418210675L117.64,122.63459364544484L118.61142857142856,122.61881065598291L118.80571428571429,122.88734228817668L118.90285714285714,122.68878926148115L119.19428571428571,122.55109092444694L119.29142857142857,122.26628846094474L119.38857142857144,122.24388293729288L119.68,122.15333445984436L119.77714285714285,122.22027367672094L119.87428571428572,122.56307038398134L121.33142857142857,122.92525868048092L121.62285714285714,122.63608615527247L121.81714285714285,122.5605314120751L121.91428571428573,122.50650805297546L122.10857142857144,122.35014456481768L122.2057142857143,122.19455523294708L122.49714285714285,122.08240257588989L122.78857142857142,122.20826073444199L122.88571428571429,122.46009025577246L122.98285714285714,122.79775861189803L123.08,122.79985736310775L123.27428571428572,123.0274448294751L123.46857142857142,123.2371426100627L123.66285714285713,123.47468190566556L123.85714285714286,123.65641862055789L123.95428571428572,123.43166913472061L124.14857142857142,123.39278133406441L124.34285714285714,123.60978936790494L124.53714285714285,123.28962939740096L124.63428571428572,123.56601646499054L124.73142857142857,123.61176685822032L124.82857142857142,123.66709450695024L124.92571428571429,123.66013849721432L125.89714285714285,123.48248278876189L126.28571428571429,123.37038371494027L126.6742857142857,123.34829376218268L126.77142857142857,123.67526954354071L126.86857142857143,123.90011493894275L127.06285714285714,123.78635912332753L127.35428571428571,122.69202349827553L127.64571428571429,122.79266036585535L127.83999999999999,123.09358550129058L128.1314285714286,123.17864583193071L128.3257142857143,123.09662239570062L128.71428571428572,123.57071653186912L128.90857142857143,123.71515107996647L129.10285714285715,123.85925202957011L129.2,123.38266030942354L129.49142857142857,123.32606351881965L129.5885714285714,123.43869426535906L129.68571428571428,123.73491095365549L129.78285714285715,123.97606768782255L129.97714285714287,123.36315894811565L130.46285714285713,123.07635206174572L130.75428571428571,123.28525216154803L131.24,123.27060549694448L131.43428571428572,123.17996564507534L131.82285714285715,123.14649950989698L132.01714285714286,122.25556564675949L132.40571428571428,122.72611573138018L132.50285714285715,122.95926974575934L132.6,122.61914907165324L132.69714285714286,122.67056707809101L132.89142857142858,122.77871635371632L133.18285714285716,122.99453370873329L133.28,123.24478190549274L133.4742857142857,123.64453212728216L133.57142857142856,123.48027796767113L134.25142857142856,123.72505618915436L134.44571428571427,123.81759375780608L134.73714285714286,124.28909593839539L134.83428571428573,123.7824245437558L135.12571428571428,123.24839027283909L135.22285714285715,123.33617113050597L135.70857142857145,123.57616513684489L135.8057142857143,124.03897603708381L135.90285714285716,124.27316122332444L136.1942857142857,124.63373638930653L136.38857142857142,124.89585579233403L136.4857142857143,124.76399266836376L136.58285714285714,124.86246043548581L136.67999999999998,125.13419051137038L136.77714285714288,125.31848489961274L136.87428571428572,125.4551765961929L137.45714285714286,125.37843254469615L137.94285714285712,125.13078677591189L138.04,125.21018408139544L138.13714285714286,125.17408372308523L138.62285714285716,125.1737077935508L139.01142857142858,125.22560311250771L139.2057142857143,125.04089797256272L139.30285714285714,125.03724678289699L139.69142857142856,124.93139745021205L140.08,125.18229296450579L140.76,125.13441394249885L140.95428571428573,125.27494211754032L141.24571428571429,125.22513284256519L141.44,125.28431009794122L141.53714285714287,125.09251168942525L141.82857142857145,125.29379114683081L141.9257142857143,124.62578962304241L142.12,124.82039759934756L142.21714285714287,124.66144365242425L142.50857142857143,124.417487739068L144.16,124.57676687578545L144.25714285714287,124.8109173687628L144.3542857142857,124.74949731894455L144.45142857142855,125.09202306178234L144.84,124.81868558476971L145.1314285714286,124.61466225401108L145.52,124.54906748095856L145.61714285714285,124.6613153259898L145.71428571428572,124.80410697145054L146.10285714285715,124.49775623838332L146.2,125.04783803640296L146.29714285714283,125.31595733923072L146.49142857142857,125.53894700169964L146.68571428571428,125.61836852719463L146.88,125.57502578279447L147.0742857142857,125.62076947442227L147.85142857142858,125.7542751364973L148.33714285714285,125.55593416262694L148.43428571428572,125.12981432231393L149.30857142857144,125.04341959084556L149.40571428571428,124.70555569130828L150.47428571428574,124.38296855107872L150.86285714285714,124.28108888393406L150.96,124.22626071063154L151.25142857142856,124.41920872740955L151.3485714285714,124.75710218568923L151.64,124.80457553047194L151.8342857142857,124.89938476696327L151.93142857142857,124.64194351022114L152.02857142857144,124.51928416587545L152.70857142857142,123.94633622665502L152.8057142857143,123.43924163992287L152.90285714285716,123.40722699442792L153,123.5284409459425L153.29142857142858,122.83171491902154L153.4857142857143,122.36175331247819L153.58285714285714,122.08731468414939L153.67999999999998,122.23790658789412L153.77714285714288,121.87512028848624L154.45714285714286,122.0214607597868L154.94285714285712,122.20183619435808L155.04,122.35035201528234L155.33142857142857,122.56097621321244L156.01142857142858,122.91928808373675L156.2057142857143,123.33183578343551L157.17714285714285,123.82985558957652L157.3714285714286,124.19074462987132L157.66285714285715,124.41902861249449L157.76,124.5554869521056L157.95428571428573,124.80297545542156L158.05142857142857,125.18125413143062L158.6342857142857,125.19650396489753L158.73142857142855,125.27391821506053L159.31428571428572,125.55729336338855L159.4114285714286,125.46808403677171L160.28571428571428,125.86129722291865L160.67428571428573,125.96364298641147L160.8685714285714,126.15232773285622L161.25714285714287,125.95158687527342L161.84,125.9137088180451L162.1314285714286,126.04375479748519L162.32571428571427,126.1321725427015L162.61714285714285,125.81823935107236L162.81142857142856,125.50187106256517L162.90857142857143,125.13286506398298L163.29714285714283,125.21833335567344L163.39428571428573,125.34335602410579L163.5885714285714,124.98994424592037L163.68571428571428,125.14595705000936L163.88,125.17888642349241L164.17142857142855,124.90453678070067L164.3657142857143,125.22333895848041L164.75428571428571,125.69617359783084L164.94857142857143,125.40168596968586L165.04571428571427,125.44785814965464L165.14285714285714,125.74126234785939L165.33714285714285,125.85457886536663L165.53142857142856,125.55465970161757L165.7257142857143,124.62129203089103L166.01714285714286,124.92547129340193L166.30857142857144,124.91475007606049L166.40571428571428,125.06688509503537L166.50285714285712,125.51783072416707L166.7942857142857,125.31864868860552L167.0857142857143,125.15727136113102L167.47428571428574,125.22729711495764L167.7657142857143,125.51209218502957L168.15428571428572,125.61603550920286L168.25142857142856,125.79007405553432L168.3485714285714,126.03906194857088L169.02857142857144,126.21759672519048L169.22285714285712,125.59319368289455L169.32000000000002,125.97731542502875L169.41714285714286,125.5982688840865L169.70857142857142,125.89066589265813L169.8057142857143,124.8007820453749L170.38857142857142,124.87912197469228L170.4857142857143,125.21468025945323L170.58285714285714,125.54776892217426L170.87428571428572,125.64843122201349L171.26285714285714,125.51629219769617L171.36,125.29704831825954L171.5542857142857,125.55200850092196L171.6514285714286,125.76651839638578L171.74857142857144,124.99966658384517L171.84571428571428,124.63585301929253L172.04,124.47806305951914L172.33142857142857,124.21073781533235L172.62285714285716,124.17315840923236L173.01142857142858,124.13628364472405L173.10857142857142,123.75582167431504L173.59428571428572,123.95203486443442L173.78857142857143,124.19469761787933L173.88571428571427,124.33381707017791L173.98285714285714,124.41656409308256L174.3714285714286,124.21502318412226L174.66285714285715,124.4273878446789L174.85714285714286,124.18005331985866L175.24571428571429,124.99047087272875L175.34285714285716,125.09848307944125L175.44,125.18909411980104L175.53714285714287,125.37811313374607L175.73142857142855,125.57959419760495L176.21714285714287,125.4815106982594L176.31428571428572,125.74143838408463L176.50857142857143,125.75394887497612L176.60571428571427,125.84821633150848L176.70285714285717,125.9028302157198L176.9942857142857,126.36541410050124L177.18857142857144,126.80579389418361L177.28571428571428,126.70678701229994L177.38285714285715,126.83746416304375L178.16,127.04869843960284L178.25714285714287,127.0747497878969L178.54857142857145,127.04500577429579L179.42285714285717,127.0254726853424L180.0057142857143,126.85625386738579L180.10285714285715,127.07887878527802L180.68571428571428,126.89893876089444L180.78285714285713,127.04389703361035L180.88,126.79328063123765L181.0742857142857,126.74654260271797L181.17142857142855,126.9231878756941L181.26857142857145,127.21004550554359L181.65714285714284,127.10577073431786L182.04571428571427,126.43753018271593L182.24,126.31249729570534L182.33714285714285,126.12786694735823L183.11428571428573,126.30159039488063L183.21142857142857,126.2426793698767L183.50285714285712,125.96025089796221L183.7942857142857,126.34564161466385L184.18285714285716,126.55976682880235L184.37714285714284,126.570954301763L184.7657142857143,126.34354813034946L185.25142857142856,126.52169022468493L185.3485714285714,126.50175032005272L185.73714285714286,126.31376675950494L185.8342857142857,126.48191463816471L186.12571428571428,126.4365560477267L186.22285714285712,126.46507101642699L186.32000000000002,126.47455821767018L186.61142857142858,126.66504554579339L187,126.84886349151104L187.1942857142857,126.56008560619225L187.38857142857142,126.74791895848975L187.4857142857143,126.7086955605029L187.58285714285714,126.84615749657009L188.26285714285714,126.9657176755739L188.45714285714286,126.9227846843018L188.5542857142857,126.91126812407924L189.13714285714286,127.11845494300155L189.2342857142857,127.2052740551704L189.33142857142857,127.56822971808549L189.52571428571426,127.8210528750336L189.72,127.87459091136043L190.69142857142856,128.21450331490928L190.88571428571427,128.38782517327394L191.76,128.11697876175984L192.14857142857142,128.25535092870493L192.6342857142857,128.50054821692282L192.73142857142855,128.18857230619443L192.82857142857145,128.0448012123759L193.12,127.29569078162466L193.21714285714287,127.33530594628975L193.31428571428572,126.98332646027652L193.4114285714286,126.74558512664026L193.8,127.0099430974977L193.89714285714285,127.28518955933109L193.9942857142857,127.2139149476665L194.28571428571428,126.91907832478255L194.48,127.29551968597949L194.67428571428573,127.27327150153057L194.8685714285714,127.45689291144511L194.96571428571428,127.72414441708457L195.06285714285715,127.90954731953074L195.25714285714287,127.99401954884638L195.3542857142857,128.14388831538025L195.84,127.65222816923828L196.1314285714286,127.71702083751602L196.32571428571427,127.49664908856404L196.61714285714285,127.47229553180733L196.90857142857143,127.60147489874437L197.0057142857143,127.50931456861596L197.2,127.74096616665456L197.39428571428573,127.861921478918L197.97714285714287,128.04438497729927L198.0742857142857,128.29182744846364L198.26857142857145,127.82035010769451L198.46285714285713,127.71260399605725L199.33714285714285,127.94203823153624L199.43428571428572,127.96136594382072L199.53142857142856,127.68865939715506L199.6285714285714,127.72529464215852L200.7942857142857,127.79304566650184L200.98857142857142,127.65793522427782L201.18285714285716,127.73220090390801L201.37714285714284,127.47413307886156L201.7657142857143,127.50592120659243L201.86285714285714,127.35668816847874L201.96,127.68102521059716L202.15428571428572,127.63467015433051L202.25142857142856,127.46082816369298L202.54285714285714,127.36248877081965L202.64,127.42727632016269L202.73714285714286,127.74200236350163L202.93142857142857,127.78508738643235L203.41714285714286,127.66446222207053L203.70857142857142,127.59861525772435L203.90285714285716,127.83009143405594L204,127.93384431191946L204.1942857142857,127.75354373759966L204.4857142857143,127.92139914650821L204.77714285714288,127.55255012784734L204.97142857142856,127.61547480377173L205.26285714285714,127.5585732065801L205.5542857142857,127.68231925098574L205.6514285714286,127.83523571589079L205.94285714285712,127.78032195358115L206.13714285714286,127.39793045118937L206.2342857142857,127.30421758111257L207.01142857142858,127.47202533514786L207.10857142857142,127.41786667903034L207.30285714285714,127.3689952468L207.78857142857143,127.40343258243614L208.2742857142857,127.11177663534797L208.3714285714286,127.1453179836819L208.46857142857144,127.23037723954891L208.66285714285715,127.45581413608954L208.76,127.57623568277081L208.95428571428573,127.45878481145883L209.14857142857142,127.67065205948687L209.44,127.96482380812503L209.53714285714287,127.8662393984147L209.9257142857143,127.77191855667277L210.4114285714286,127.9064097882693L210.60571428571427,127.83046996639919L211.18857142857144,127.91651484710054L211.28571428571428,128.25587623254896L211.38285714285715,128.21453435406735L211.48,128.10310682990666L211.57714285714283,128.08310358826978L211.8685714285714,128.32152398237073L212.06285714285715,128.4393971047138L212.3542857142857,128.5575877411367L212.45142857142855,128.6375349017008L212.74285714285713,129.00012992489556L212.93714285714285,128.91376138458617L213.1314285714286,128.86483047746304L213.22857142857143,128.82480442617467L213.32571428571427,128.77571806651216L213.71428571428572,128.79001170106406L214.10285714285715,128.6761873661881L214.2,128.58671421786508L214.29714285714283,128.65094821605834L214.68571428571428,128.7885420709971L214.78285714285713,128.7176101275537L214.97714285714287,128.38639305886767L215.0742857142857,128.29127918183804L215.26857142857145,128.26038807481527L215.3657142857143,128.3671161459386L215.46285714285713,128.38396429400996L215.65714285714284,128.50819269589377L215.75428571428571,128.3592009379215L215.85142857142858,128.0762551027055L215.94857142857143,128.30400027695646L216.24,128.08227372217618L216.43428571428572,127.96662719293037L216.53142857142856,127.99872821233767L217.11428571428573,127.90904328861578L217.21142857142857,127.81872912364928L217.30857142857144,127.46464615739765L217.69714285714286,127.57377513188338L217.89142857142858,127.51307567217629L218.0857142857143,127.35195392431204L218.47428571428574,127.64001396991911L219.15428571428572,127.50716613984966L219.4457142857143,127.49989424577531L219.64,127.72957572300722L219.8342857142857,127.87190188005533L219.93142857142857,128.11771415631017L220.12571428571428,127.95487425291576L220.32000000000002,127.81763264487675L220.5142857142857,127.81988701818683L220.61142857142858,127.37242092812244L220.70857142857142,126.80103907355576L221,126.25513703599448L221.09714285714284,125.97344092448796L221.38857142857142,125.96169512456021L221.4857142857143,126.32531843087187L221.77714285714288,126.44954923115603L222.06857142857143,126.56212463369158L222.45714285714286,126.52122366990103L223.04,126.14799176832373L223.13714285714286,126.28022412308073L223.42857142857142,126.67449508301205L223.52571428571426,126.81047371414199L223.72,126.99352373826707L223.9142857142857,127.05866842572702L224.01142857142858,127.03444863736675L224.2057142857143,127.1865613669076L224.30285714285714,127.17419371097549L224.49714285714288,127.5204888317732L224.59428571428572,127.29429581169023L224.69142857142856,127.55374401487553L224.78857142857143,127.83932778206491L224.98285714285714,128.0318572514004L225.17714285714285,127.79777563830646L225.2742857142857,128.01218692431667L225.66285714285715,128.19535624953943L225.76,128.50991843318494L225.95428571428573,128.24341181886476L226.24571428571429,128.5863038256415L226.44,128.43192335983522L226.73142857142855,128.71421097364959L227.31428571428572,128.58114273317614L227.89714285714285,128.51529508246998L228.28571428571428,128.623311340253L228.57714285714283,128.57058030657467L229.06285714285715,128.48413199788436L229.25714285714287,128.37455249842927L229.54857142857145,128.45360127447137L230.1314285714286,128.4592815022468L230.22857142857143,128.06871847594118L230.42285714285717,128.21383170910013L230.71428571428572,128.22432354994075L231.0057142857143,128.24687591623263L231.10285714285715,128.11926026048442L231.2,127.99086373956962L232.0742857142857,128.00409618281947L232.17142857142855,128.00391173342982L232.26857142857145,127.91476752569952L232.3657142857143,127.96232425162803L232.56,128.3306542310467L232.75428571428571,128.48281403882316L233.04571428571427,128.59421291588174L233.14285714285714,128.63929085748833L233.53142857142856,128.4410983644069L233.7257142857143,128.309874112542L233.82285714285715,128.33794035604367L233.92,128.51100382247404L234.01714285714286,128.31921003069857L234.7942857142857,127.82520179405127L235.66857142857143,128.05307174348005L235.86285714285714,127.94322156824661L236.15428571428572,128.13451776686645L236.64,128.2766130636633L236.93142857142857,128.4132307430698L237.02857142857144,128.56507913117946L237.32000000000002,128.4335489352908L237.70857142857142,128.36523404073583L238,128.26152470000693L238.1942857142857,128.47679892737963L238.38857142857142,128.2143679673098L238.67999999999998,128.0900411874357L238.97142857142856,128.15638805745485L239.06857142857143,127.68749017489266L239.1657142857143,127.81052399508381L239.36,127.65734224084305L240.13714285714286,127.62865570009991L240.33142857142857,127.97218411915904L240.52571428571426,128.05365266579452L240.72,128.06886050604896L241.2057142857143,128.33963283877944L241.69142857142856,128.21139023117036L242.08,127.70134643769603L242.46857142857144,127.7618056932446L242.56571428571428,128.04840881052397L242.66285714285715,128.2025860560274L243.05142857142857,128.1984914995051L243.34285714285716,128.2161139394264L243.6342857142857,128.44938073394056L244.12,128.56599610898516L244.4114285714286,128.52966154682895L244.60571428571427,128.56944162182867L244.9942857142857,128.3790902113021L245.09142857142857,128.3791425279937L245.18857142857144,128.67169228662507L245.28571428571428,128.8693496660925L245.48,129.03352040779282L245.67428571428573,128.88129710911235L245.96571428571428,128.92203599679848L246.25714285714287,128.985933255228L246.3542857142857,128.71273057471532L246.54857142857145,128.72138997019493L246.74285714285713,128.82618686476965L247.42285714285717,128.89094792319705L247.71428571428572,128.86202155427458L247.81142857142856,128.48943175264884L248.0057142857143,128.3185039184615L248.2,127.95756118537963L248.39428571428573,127.69700100118841L248.49142857142857,127.66515055851998L248.68571428571428,127.7930563482617L248.97714285714287,127.87156019999497L249.17142857142855,128.16031765864244L249.46285714285713,128.07481358155394L249.65714285714284,127.63545590204872L249.94857142857143,127.55061319462762L250.04571428571427,126.68327582173619L250.14285714285714,126.6117078594457L251.11428571428573,126.80443804934157L251.21142857142857,127.15732276523335L251.40571428571428,127.2134919327364L251.50285714285712,127.22116310340668L251.60000000000002,127.30238077205956L251.69714285714286,127.39867651735602L251.98857142857142,127.65296721278432L252.0857142857143,127.69409679778765L252.28,127.85594761907004L252.57142857142858,127.68554954542341L252.7657142857143,127.45149370009814L252.96,127.59289321153393L253.15428571428572,127.65711150630443L254.02857142857144,127.89946943919433L254.12571428571428,128.0726850072878L254.41714285714286,128.49197948595065L254.61142857142858,128.55441290268888L254.8057142857143,128.00412961913915L255,127.92147111320037L255.1942857142857,127.98110362073963L255.29142857142858,127.61845339656082L255.58285714285714,127.23613234789217L256.1657142857143,127.5447512426768L256.2628571428572,127.78888823532493L256.6514285714286,127.88114557811706L256.9428571428571,127.90921287840216L257.2342857142857,127.97892058543555L257.42857142857144,127.32477527162689L257.5257142857143,127.4342788046285L257.9142857142857,127.15177094552934L258.30285714285714,127.1860767747225L258.4971428571429,127.27305800084767L258.5942857142857,127.45143364951204L258.69142857142856,127.3243443726595L258.7885714285714,127.55118155624616L258.88571428571424,127.6268153075955L259.1771428571428,128.04489840769858L259.5657142857143,127.91667256175874L259.66285714285715,127.89010995745971L259.76,128.17489752493867L260.1485714285714,128.08249745912806L260.24571428571426,128.0921775073224L260.44,128.10066466450132L260.53714285714284,128.349143528218L261.02285714285716,128.3720721959546L261.31428571428575,128.3293063830008L261.4114285714286,127.97105455740889L261.60571428571427,128.06364070612898L261.8,128.26654801709864L261.89714285714285,128.20111076525774L261.9942857142857,128.35420118116076L262.09142857142854,128.13735331773648L262.3828571428571,127.97788462480378L262.48,128.22198816761372L262.57714285714286,127.9791596030018L262.6742857142857,128.22663985614795L262.9657142857143,128.4243401852766L263.0628571428572,128.61766031349518L263.25714285714287,128.87571759575656L263.84,129.0146758597387L264.13142857142856,128.94550729167102L264.42285714285714,128.71592926204391L264.52,128.8474672064713L264.90857142857146,128.59499185270988" style="fill: none;" fill="none"></path></g></g></g></g><g opacity="0.2"><g><g><g><path stroke="rgb(255, 112, 67)" stroke-width="2px" d="M21.76,-2.9205180236271393L22.925714285714285,0.16918717111859438L23.314285714285713,-0.3087916714804626L23.799999999999997,-0.08876316887993463L23.994285714285716,1.7584789480481857L24.577142857142857,1.8117695876530182L24.674285714285716,3.9309364386967194L24.77142857142857,7.311694008963443L24.86857142857143,1.945329632077887L24.965714285714288,7.673163993018008L25.548571428571428,15.843819447926116L25.74285714285714,18.93688941001892L25.93714285714286,17.666568483625127L26.034285714285712,21.608105455126072L26.325714285714284,27.280208962304258L26.422857142857143,29.205992630549837L26.52,28.841567107609343L26.617142857142856,32.45916186060224L27.102857142857143,32.91669443675449L27.588571428571427,45.10050942216601L27.88,49.467628836631775L27.977142857142855,56.84103904451642L28.56,63.682444674628115L29.337142857142858,60.232080374445225L29.62857142857143,66.62984446116856L29.725714285714286,78.10717955657414L30.405714285714286,81.49515167304448L30.697142857142854,77.70638574872699L30.891428571428573,74.07235365254539L31.571428571428573,81.6329631464822L31.668571428571425,89.7568263581821L19.525714285714287,-3.3702297891889526L23.605714285714285,-0.7148675577981018L24.18857142857143,3.176182746887207L24.285714285714285,2.8093624796186205L24.48,1.0764011996132874L24.77142857142857,6.250473669597078L24.965714285714288,7.478068113327026L25.06285714285714,8.2540259020669L25.25714285714286,12.695928028651643L25.451428571428572,14.12624212673731L25.548571428571428,9.914023263113833L26.22857142857143,19.769244943346287L27.005714285714284,39.98605547632489L27.102857142857143,39.063654524939395L27.200000000000003,41.68652098519461L27.588571428571427,52.47031235694885L28.56,53.812748432159424L28.65714285714286,54.294084463800694L28.85142857142857,63.149091158594395L29.24,69.52581787109375L29.53142857142857,69.27067908218929L29.62857142857143,65.01640062672752L29.725714285714286,75.2352066380637L30.017142857142858,79.01662918499538L31.18285714285714,86.61789628437587L31.765714285714285,85.67366223675864L32.05714285714286,80.99547614370074L32.251428571428576,87.978944676263L32.348571428571425,86.56636381149292L32.542857142857144,82.27098063060215L32.93142857142857,91.92562731674738L33.32,86.90079440389361L33.51428571428572,90.74134667430606L34,91.15789198875427L34.582857142857144,94.61869540384836L35.26285714285714,98.67506263937268L35.36,91.60292036192757L35.84571428571429,105.18351165737424L35.94285714285714,97.82195012910026L36.33142857142857,96.55335705620902L36.42857142857143,88.78249507290977L36.81714285714286,91.97952422073908L36.91428571428571,102.33751337868827L37.10857142857143,93.32097511632102L37.400000000000006,95.81982261793954L37.885714285714286,86.78082983834403L37.98285714285714,97.66328316075462L38.080000000000005,100.99065915175848L38.565714285714286,93.91253759179797L38.66285714285715,99.96934616565704L38.76,99.24904344763074L39.05142857142857,102.49450175251279L39.92571428571429,101.41719267198019L40.12,92.54143657854624L40.50857142857143,103.56064799002237L40.70285714285714,101.45892639671054L40.8,106.00765988656454L41.285714285714285,98.75797308342797L41.38285714285714,110.53030885117394L41.965714285714284,107.34981177534375L42.25714285714286,108.35791577611651L42.645714285714284,98.89840286118644L43.034285714285716,96.50569709709711L43.22857142857143,106.9016952429499L43.61714285714286,102.5871730531965L43.714285714285715,108.52711658818382L43.81142857142857,104.1132807135582L44.005714285714284,105.6135994025639L44.49142857142857,103.57724447761264L44.58857142857143,107.52901216064181L44.97714285714286,109.16589190278735L45.07428571428571,106.31971174478531L45.17142857142857,103.55502488783426L46.628571428571426,106.41964306150165L47.308571428571426,109.66975444555283L47.40571428571429,106.66115605831146L47.89142857142857,113.55813718693597L47.98857142857143,107.51811455828803L48.18285714285714,105.53400825602668L48.37714285714286,108.48178316865649L48.76571428571429,111.59116922106061L49.64,114.96637947218757L49.83428571428571,104.39013513496943L49.931428571428576,108.27792297942298L50.222857142857144,108.26097410065788L50.80571428571428,106.02067941427231L51.582857142857144,107.77861120871134L51.68,110.47327073982783L51.97142857142857,111.14832339968L52.068571428571424,109.54658425705773L52.36,106.54568542752948L52.45714285714286,110.22734716960363L52.94285714285714,113.08955923148565L53.04,110.67248921734947L54.10857142857143,109.73954305478506L54.400000000000006,111.16806488377708L54.497142857142855,105.4332168017115L54.691428571428574,114.85096946784428L54.885714285714286,114.89561705078397L55.177142857142854,113.89711097308569L56.245714285714286,106.30782517365046L56.73142857142857,114.23038587399893L56.92571428571429,113.67023926121848L57.21714285714285,111.3321162377085L57.41142857142857,111.42204040288925L57.89714285714285,103.42864149808884L57.994285714285716,113.23120153801781L58.57714285714286,111.84509927034378L58.77142857142857,118.07818679298673L58.868571428571435,115.59640563385825L59.06285714285714,109.80733856984548L59.16,112.11698990208762L59.25714285714286,113.00628123964582L59.45142857142857,115.2942396742957L59.645714285714284,115.49431450026374L60.131428571428565,112.69558968714304L60.22857142857143,116.15391499655586L60.325714285714284,115.51604907853263L60.52,112.63802109445844L61.10285714285715,117.10640181813922L61.29714285714286,114.43031671217508L61.68571428571428,111.01765826770239L61.78285714285715,113.98767550502505L61.88,117.99939515760965L62.26857142857143,116.06159229789462L62.65714285714285,116.63905154807227L62.754285714285714,118.15013900824955L63.04571428571429,112.07641944714956L63.24,118.1736961688314L63.33714285714285,117.53569384132113L63.434285714285714,110.48152730294638L63.53142857142857,118.38226627452033L63.628571428571426,111.38480061292648L63.72571428571429,115.58727377653122L63.919999999999995,114.12289519820895L64.01714285714286,117.7941026687622L64.50285714285715,113.05523329973221L64.6,114.13692264045987L64.98857142857143,113.37401090349469L65.28,117.65346448762077L65.47428571428571,112.5022368175643L66.05714285714285,118.4597430740084L66.25142857142858,116.29216601167407L66.73714285714286,114.61390872512546L67.12571428571428,115.65100732019968L67.22285714285714,117.08762277875628L67.41714285714286,117.04244471447807L67.70857142857143,116.7496341722352L68.58285714285715,117.82105490991047L69.26285714285713,118.65233053479876L69.36,119.14278326715741L69.55428571428571,119.4220248545919L69.65142857142857,119.72871506214142L69.74857142857144,111.35513912779945L69.84571428571428,111.82342910766602L70.04,116.03444302082062L70.33142857142857,115.69407482658114L70.72,116.98345897878919L70.81714285714285,114.04741907119751L71.2057142857143,115.88405156135559L71.49714285714285,114.50238639116287L71.88571428571429,119.60213463647025L72.17714285714285,119.68167273487363L72.27428571428572,115.24869785138539L72.37142857142857,112.53253488029752L72.46857142857142,117.16112854651041L72.5657142857143,115.96221419743128L72.76,119.43588557413645L72.85714285714286,107.4801207269941L72.95428571428572,110.56244465282984L73.14857142857142,111.07604531730924L73.24571428571429,116.17295927660804L73.34285714285714,121.09738343954086L73.44,114.37870087793894L73.63428571428572,116.31101704495292L73.82857142857142,116.9283760700907L73.92571428571429,110.71994835138321L74.60571428571428,117.78606208733149L74.89714285714285,114.87337851524353L75.09142857142858,119.81942737102509L75.28571428571429,115.19105347565241L75.57714285714286,119.52486245121274L75.77142857142857,116.78757495539527L75.96571428571428,115.22929360185351L76.35428571428571,115.9333067536354L76.74285714285715,113.1344531093325L77.03428571428572,118.00078956569944L77.13142857142857,118.10712076084953L77.22857142857143,120.82669017996106L77.3257142857143,121.357969135046L77.90857142857142,120.6743207829339L78.49142857142857,117.48865909235816L78.6857142857143,119.41044520480293L78.78285714285714,118.75167832204274L78.88,117.5651961820466L79.17142857142858,118.17896687984467L79.46285714285715,116.17317525829587L79.56,118.08825836011341L79.85142857142858,118.3654007571084L79.94857142857143,119.47319356884275L80.04571428571428,122.8166469335556L80.24,118.33019574199405L80.4342857142857,108.95037249156408L81.01714285714286,115.83086322886604L81.30857142857143,119.16149410179682L81.40571428571428,118.15915340185165L81.69714285714286,92.6940825836999L81.7942857142857,116.98699425799506L81.89142857142856,113.84778378690991L82.08571428571427,103.330047752176L82.18285714285715,114.43268872158866L82.76571428571428,118.37529423407145L83.15428571428572,118.96994107961655L83.25142857142856,116.94411999838691L83.44571428571429,114.60329909835544L83.64,121.8495965046542L83.83428571428571,118.38786664179392L83.93142857142857,117.4629762172699L84.02857142857144,119.7970296910831L84.12571428571428,123.70591932535172L84.22285714285715,116.91823629822049L84.51428571428572,119.49432188272476L84.70857142857143,118.36201704399924L84.90285714285714,113.07705502850669L85.19428571428571,118.25218088286262L85.38857142857144,120.63235591990608L85.48571428571428,121.80403005225318L85.58285714285715,112.59407450471606L85.97142857142856,116.27099980626788L86.16571428571429,116.84585969788688L86.26285714285713,121.784731898989L86.45714285714286,117.17173059497561L86.74857142857144,116.10736904825482L87.13714285714285,120.18026077747345L87.42857142857143,117.27313210283008L87.72,118.20715438468116L87.81714285714285,114.07881219897952L88.01142857142857,120.70733566795077L88.2057142857143,119.7070790018354L88.4,117.82158160209656L88.88571428571429,120.503418641431L89.17714285714285,122.5516582429409L89.37142857142857,117.06682033198219L89.66285714285713,120.39004341193608L90.44,118.00196799210138L90.82857142857142,120.66097159896579L91.21714285714286,115.43818578549794L91.41142857142857,119.82577420132499L91.50857142857143,121.35209215964589L91.89714285714285,120.56875878572464L92.09142857142858,121.48405886547904L92.18857142857142,120.725455394813L92.48,123.76515514510017L92.6742857142857,121.12344522987094L92.86857142857143,121.50550546816416L93.16000000000001,119.05036583968571L93.35428571428571,123.35537536229405L93.45142857142858,117.27252583844322L93.64571428571429,117.48974278994969L94.03428571428572,121.08299413323402L94.42285714285714,120.71714199440818L95.10285714285715,118.31843800204139L95.19999999999999,116.47003261532102L95.29714285714286,123.11407645259585L95.39428571428572,119.776689520904L95.58857142857143,120.25480098383765L95.6857142857143,120.11509872334342L95.88,121.93507599404879L95.97714285714287,119.57022618395942L96.07428571428571,116.64442835535321L96.36571428571428,119.38520944969993L96.46285714285715,123.71451880676406L96.56,116.83712949071612L96.65714285714286,124.1971431502274L96.85142857142858,112.58550344194684L97.4342857142857,119.22307540689197L97.53142857142858,125.17992613996778L97.82285714285715,122.48894587584904L98.50285714285715,118.39517970596042L98.7942857142857,115.85361708913531L99.47428571428571,118.05251149620328L99.57142857142857,118.9283134511539L99.66857142857143,120.00538381508417L99.86285714285715,120.86835948910031L99.96,109.34322423594338L100.05714285714286,119.93315499169486L100.34857142857143,112.11417456184115L100.44571428571429,123.52164715954235L100.64,119.19524787153516L100.83428571428571,118.94312524795532L100.93142857142857,123.48677937899318L101.32,122.86983337146896L101.41714285714285,122.6036245737757L101.80571428571429,118.12694939545221L101.90285714285714,120.18815358195987L102,122.64941458616939L102.09714285714286,121.3309903698308L102.38857142857144,122.26937775526729L102.48571428571428,120.89840178404536L102.58285714285715,118.00127078805652L102.87428571428572,120.85277659978185L102.97142857142856,119.47167032957077L103.74857142857144,121.75813015443939L104.13714285714285,120.30144545010157L104.33142857142857,122.8774382003716L104.52571428571429,123.44036226187434L104.62285714285714,118.42706921270914L104.91428571428573,120.43645295075007L105.01142857142857,122.70125208582196L105.2057142857143,119.1511572940009L105.30285714285714,119.09584703615732L105.4,125.11703378813606L105.49714285714285,124.22508436015673L105.78857142857142,122.92493143677711L106.5657142857143,121.0115288240569L106.76,123.40313383936882L106.95428571428572,124.0957302749157L107.14857142857142,125.99726905141559L107.24571428571429,121.89394284997668L107.53714285714285,118.08688289778571L107.73142857142857,121.64288308365005L107.82857142857142,119.19007567848477L107.92571428571429,120.58185409648078L108.41142857142857,124.71025122489247L109.09142857142858,119.65412559679575L109.18857142857142,126.95533161078181L109.48,123.4959282875061L109.6742857142857,122.61848184040613L110.25714285714285,122.19185359137397L110.35428571428571,124.74981187071118L110.54857142857142,118.76858173097882L110.74285714285715,117.88323869024005L111.13142857142857,122.85319330862589L111.52,124.12000547988075L111.71428571428571,121.72931554487772L112.19999999999999,121.20484948584011L112.29714285714286,125.03898861578531L112.39428571428572,125.42365010721343L113.07428571428571,123.47354955332618L113.17142857142858,123.93156714098792L113.75428571428571,123.15736562439373L113.94857142857143,126.7462329183306L114.14285714285714,124.31057332243238L114.24,118.48072740009852L114.33714285714287,124.66619474972997L115.21142857142858,121.9017996575151L115.40571428571428,123.84041907957621L115.69714285714286,123.74703162908554L116.08571428571427,123.57692899874277L116.28,123.42564519388335L116.37714285714286,123.44964000156946L116.76571428571428,126.98249793904166L116.86285714285715,125.21649524995259L117.05714285714286,121.08801476018768L117.15428571428572,121.81562485865183L117.25142857142856,121.50775433012417L117.54285714285714,121.19846476401601L117.64,119.97247881548743L118.61142857142856,122.4767637508256L118.80571428571429,125.30412697792053L118.90285714285714,120.90181202122143L119.19428571428571,121.31180589113917L119.29142857142857,119.7030662894249L119.38857142857144,122.04223322442598L119.68,121.33839816280774L119.77714285714285,122.82272662861007L119.87428571428572,125.64824074932507L121.33142857142857,126.18495334897723L121.62285714285714,120.0335334283965L121.81714285714285,121.88053872329849L121.91428571428573,122.02029782107897L122.10857142857144,120.94287317139762L122.2057142857143,120.79425124611173L122.49714285714285,121.07302866237502L122.78857142857142,123.340984161411L122.88571428571429,124.72655594774655L122.98285714285714,125.83677381702832L123.08,122.8187461239951L123.27428571428572,125.07573202678135L123.46857142857142,125.1244226353509L123.66285714285713,125.61253556609154L123.85714285714286,125.29204905458859L123.95428571428572,121.40892376218524L124.14857142857142,123.04279112815857L124.34285714285714,125.56286167246955L124.53714285714285,120.40818966286521L124.63428571428572,126.05350007329669L124.73142857142857,124.02352039728846L124.82857142857142,124.16504334551948L124.92571428571429,123.59753440959113L125.89714285714285,121.88358141269002L126.28571428571429,122.36149205054555L126.6742857142857,123.14948418736458L126.77142857142857,126.61805157576289L126.86857142857143,125.92372349756103L127.06285714285714,122.7625567827906L127.35428571428571,112.84300287280765L127.64571428571429,123.69839217407363L127.83999999999999,125.80191172020774L128.1314285714286,123.94418880769184L128.3257142857143,122.35841146962981L128.71428571428572,127.83756375738552L128.90857142857143,125.0150620128427L129.10285714285715,125.15616057600293L129.2,119.09333482810429L129.49142857142857,122.81669240338462L129.5885714285714,124.45237098421369L129.68571428571428,126.40086114832333L129.78285714285715,126.14647829532623L129.97714285714287,117.8469802907535L130.46285714285713,120.49509008441653L130.75428571428571,125.16535305976868L131.24,123.13878551551274L131.43428571428572,122.36420697825294L131.82285714285715,122.8453042932919L132.01714285714286,114.23716087852206L132.40571428571428,126.96106649296622L132.50285714285715,125.05765587517193L132.6,119.55806300469807L132.69714285714286,123.13332913603101L132.89142857142858,123.75205983434405L133.18285714285716,124.93688990388598L133.28,125.49701567632812L133.4742857142857,127.24228412338665L133.57142857142856,122.00199053117207L134.25142857142856,125.92806018250327L134.44571428571427,124.65043187567166L134.73714285714286,128.53261556369918L134.83428571428573,119.22238199199948L135.12571428571428,118.44208183458872L135.22285714285715,124.12619884950774L135.70857142857145,125.73611119389534L135.8057142857143,128.204274139234L135.90285714285716,126.38082789949007L136.1942857142857,127.87891288314547L136.38857142857142,127.25493041958127L136.4857142857143,123.57722455263138L136.58285714285714,125.74867033958435L136.67999999999998,127.57976119433131L136.77714285714288,126.9771343937942L136.87428571428572,126.68540186541419L137.45714285714286,124.68773608122554L137.94285714285712,122.90197485685349L138.04,125.92475983074732L138.13714285714286,124.84918049829345L138.62285714285716,125.17032442774091L139.01142857142858,125.69266098311968L139.2057142857143,123.37855171305793L139.30285714285714,125.00438607590537L139.69142857142856,123.97875345604758L140.08,127.44035259314946L140.76,124.70350274443626L140.95428571428573,126.53969569291387L141.24571428571429,124.77684936778884L141.44,125.81690539632525L141.53714285714287,123.36632601278167L141.82857142857145,127.10530626348086L141.9257142857143,118.61377590894699L142.12,126.57186938609395L142.21714285714287,123.23085813011441L142.50857142857143,122.22188451886177L144.16,126.01027910624232L144.25714285714287,126.91827180555887L144.3542857142857,124.19671687058039L144.45142857142855,128.17475474732262L144.84,122.35864829165595L145.1314285714286,122.77845227718353L145.52,123.95871452348571L145.61714285714285,125.67154593127113L145.71428571428572,126.08923178059715L146.10285714285715,121.74059964077811L146.2,129.9985742185797L146.29714285714283,127.72903106468063L146.49142857142857,127.54585396392005L146.68571428571428,126.33316225664954L146.88,125.18494108319283L147.0742857142857,126.0324626990727L147.85142857142858,126.95582609517234L148.33714285714285,123.77086539779391L148.43428571428572,121.29473575949669L149.30857142857144,124.2658670076302L149.40571428571428,121.66478059547286L150.47428571428574,121.47968428901262L150.86285714285714,123.36417187963214L150.96,123.73280715090888L151.25142857142856,126.1557408784117L151.3485714285714,127.79814331020627L151.64,125.23183563351631L151.8342857142857,125.7526678953852L151.93142857142857,122.32497219954219L152.02857142857144,123.41535006676402L152.70857142857142,118.78980477367129L152.8057142857143,118.87539035933357L152.90285714285716,123.11909518497329L153,124.6193665095738L153.29142857142858,116.56118067673273L153.4857142857143,118.1320988535881L153.58285714285714,119.61736702919006L153.67999999999998,123.59323372159686L153.77714285714288,118.61004359381538L154.45714285714286,123.33852500149182L154.94285714285712,123.82521510549954L155.04,123.68699440360069L155.33142857142857,124.4565939945834L156.01142857142858,126.1440949184554L156.2057142857143,127.04476508072443L157.17714285714285,128.31203384484564L157.3714285714286,127.43874599252429L157.66285714285715,126.47358445610318L157.76,125.78361200860567L157.95428571428573,127.03037198526519L158.05142857142857,128.58576221551215L158.6342857142857,125.3337524660996L158.73142857142855,125.97064646652765L159.31428571428572,128.10766969834054L159.4114285714286,124.66520009722028L160.28571428571428,129.4002158982413L160.67428571428573,126.88475485784667L160.8685714285714,127.85049045085907L161.25714285714287,124.1449191570282L161.84,125.57280630299023L162.1314285714286,127.2141686124461L162.32571428571427,126.92793224964824L162.61714285714285,122.99284062641006L162.81142857142856,122.65455646600041L162.90857142857143,121.81181107674327L163.29714285714283,125.98754798088756L163.39428571428573,126.4685600399971L163.5885714285714,121.80923824225154L163.68571428571428,126.55007228681019L163.88,125.4752507848399L164.17142857142855,122.43538999557495L164.3657142857143,128.0925585584981L164.75428571428571,129.95168535198485L164.94857142857143,122.75129731638091L165.04571428571427,125.86340776937347L165.14285714285714,128.38190013170242L165.33714285714285,126.87442752293177L165.53142857142856,122.85538722787585L165.7257142857143,116.22098299435206L166.01714285714286,127.66308465600014L166.30857142857144,124.81825911998749L166.40571428571428,126.43610026580947L166.50285714285712,129.57634138635225L166.7942857142857,123.52601036855152L167.0857142857143,123.70487541386059L167.47428571428574,125.85752889939717L167.7657142857143,128.0752478156771L168.15428571428572,126.55152542676244L168.25142857142856,127.35642097251754L168.3485714285714,128.2799529858998L169.02857142857144,127.82440971476692L169.22285714285712,119.97356630223136L169.32000000000002,129.43441110423632L169.41714285714286,122.1868500156062L169.70857142857142,128.52223896980286L169.8057142857143,114.99182741982597L170.38857142857142,125.58418133854866L170.4857142857143,128.23470482230186L170.58285714285714,128.54556688666344L170.87428571428572,126.55439192056656L171.26285714285714,124.3270409788404L171.36,123.32385340332985L171.5542857142857,127.84665014488357L171.6514285714286,127.69710745556014L171.74857142857144,118.09800027097974L171.84571428571428,121.36153093831878L172.04,123.05795342155865L172.33142857142857,121.80481061765126L172.62285714285716,123.8349437543324L173.01142857142858,123.80441076414924L173.10857142857142,120.33166394063404L173.59428571428572,125.71795357550893L173.78857142857143,126.37866239888328L173.88571428571427,125.58589214086533L173.98285714285714,125.16128729922431L174.3714285714286,122.40115500347953L174.66285714285715,126.33866978968892L174.85714285714286,121.95404259647641L175.24571428571429,132.2842288485595L175.34285714285716,126.07059293985367L175.44,126.00459348303932L175.53714285714287,127.07928425925117L175.73142857142855,127.39292377233505L176.21714285714287,124.59875920414925L176.31428571428572,128.080787556512L176.50857142857143,125.86654329299927L176.60571428571427,126.6966234402997L176.70285714285717,126.39435517362185L176.9942857142857,130.52866906353404L177.18857142857144,130.7692120373249L177.28571428571428,125.81572507534709L177.38285714285715,128.01355851973807L178.16,128.94980692863464L178.25714285714287,127.30921192254338L178.54857142857145,126.7773096518857L179.42285714285717,126.84967488476208L180.0057142857143,125.33328450577598L180.10285714285715,129.08250304630823L180.68571428571428,125.27947854144233L180.78285714285713,128.34852148805345L180.88,124.53773300988334L181.0742857142857,126.32590034604073L181.17142857142855,128.51299533247948L181.26857142857145,129.79176417418887L181.65714285714284,126.16729779328618L182.04571428571427,120.42336521829877L182.24,125.18720131261009L182.33714285714285,124.46619381223407L183.11428571428573,127.86510142258234L183.21142857142857,125.71248014484134L183.50285714285712,123.41839465073176L183.7942857142857,129.81415806497847L184.18285714285716,128.48689375604903L184.37714285714284,126.67164155840874L184.7657142857143,124.29689258762768L185.25142857142856,128.1249690737043L185.3485714285714,126.3222911783627L185.73714285714286,124.62191471457481L185.8342857142857,127.99524554610252L186.12571428571428,126.02832873378482L186.22285714285712,126.72170573472977L186.32000000000002,126.55994302885871L186.61142857142858,128.3794314989022L187,128.50322500297L187.1942857142857,123.9610846383231L187.38857142857142,128.43841912916727L187.4857142857143,126.35568497862134L187.58285714285714,128.08331492117472L188.26285714285714,128.041759286608L188.45714285714286,126.53638776285308L188.5542857142857,126.80761908207622L189.13714285714286,128.98313631330217L189.2342857142857,127.98664606469016L189.33142857142857,130.83483068432128L189.52571428571426,130.0964612875666L189.72,128.35643323830195L190.69142857142856,131.273714946849L190.88571428571427,129.94772189855576L191.76,125.67936105813298L192.14857142857142,129.50070043121065L192.6342857142857,130.70732381088393L192.73142857142855,125.38078910963874L192.82857142857145,126.75086136800903L193.12,120.55369690486363L193.21714285714287,127.69184242827552L193.31428571428572,123.81551108615737L193.4114285714286,124.60591312391418L193.8,129.38916483521461L193.89714285714285,129.76240771583147L193.9942857142857,126.57244344268527L194.28571428571428,124.2655487188271L194.48,130.68349193675178L194.67428571428573,127.07303784149032L194.8685714285714,129.10948560067584L194.96571428571428,130.1294079678399L195.06285714285715,129.5781734415463L195.25714285714287,128.75426961268698L195.3542857142857,129.49270721418517L195.84,123.22728685396056L196.1314285714286,128.30015485201562L196.32571428571427,125.51330334799628L196.61714285714285,127.2531135209969L196.90857142857143,128.76408920117785L197.0057142857143,126.67987159746032L197.2,129.8258305490017L197.39428571428573,128.9505192892892L197.97714285714287,129.68655646273066L198.0742857142857,130.51880968894278L198.26857142857145,123.57705404077258L198.46285714285713,126.74288899132183L199.33714285714285,130.00694635084696L199.43428571428572,128.13531535438128L199.53142857142856,125.23430047716413L199.6285714285714,128.0550118471895L200.7942857142857,128.40280488559176L200.98857142857142,126.4419412442616L201.18285714285716,128.40059202057975L201.37714285714284,125.15152265344348L201.7657142857143,127.79201435617037L201.86285714285714,126.01359082545552L201.96,130.6000585896628L202.15428571428572,127.21747464793067L202.25142857142856,125.89625024795532L202.54285714285714,126.47743423495974L202.64,128.0103642642498L202.73714285714286,130.5745367535523L202.93142857142857,128.17285259280885L203.41714285714286,126.5788357428142L203.70857142857142,127.00599257860866L203.90285714285716,129.91337702104022L204,128.86762021269118L204.1942857142857,126.13083856872149L204.4857142857143,129.4320978266852L204.77714285714288,124.23290895989962L204.97142857142856,128.18179688709122L205.26285714285714,127.04645883185523L205.5542857142857,128.79603365063667L205.6514285714286,129.21148390003611L205.94285714285712,127.28609809279442L206.13714285714286,123.95640692966323L206.2342857142857,126.46080175042152L207.01142857142858,128.9822951214654L207.10857142857142,126.93043877397265L207.30285714285714,126.92915235672679L207.78857142857143,127.71336860316138L208.2742857142857,124.48687311155456L208.3714285714286,127.44719011868749L208.46857142857144,127.99591054235187L208.66285714285715,129.48474620495523L208.76,128.66002960290228L208.95428571428573,126.4017269696508L209.14857142857142,129.57745729173934L209.44,130.61236954586846L209.53714285714287,126.9789797110217L209.9257142857143,126.9230309809957L210.4114285714286,129.11683087263788L210.60571428571427,127.1470115695681L211.18857142857144,128.6909187734127L211.28571428571428,131.3101287015847L211.38285714285715,127.8424574477332L211.48,127.10025911246028L211.57714285714283,127.90307441353798L211.8685714285714,130.46730752927917L212.06285714285715,129.50025520580155L212.3542857142857,129.62130346894264L212.45142857142855,129.35705934677804L212.74285714285713,132.26348513364792L212.93714285714285,128.13644452180182L213.1314285714286,128.42445231335503L213.22857142857143,128.46456996457917L213.32571428571427,128.3339408295495L213.71428571428572,128.91865441203117L214.10285714285715,127.65176835230417L214.2,127.78145588295799L214.29714285714283,129.22905419979776L214.68571428571428,130.02688676544597L214.78285714285713,128.07922263656343L214.97714285714287,125.40543944069317L215.0742857142857,127.43525428857122L215.26857142857145,127.98236811161041L215.3657142857143,129.3276687860489L215.46285714285713,128.53559762665202L215.65714285714284,129.62624831284796L215.75428571428571,127.01827511617115L215.85142857142858,125.52974258576121L215.94857142857143,130.35370684521538L216.24,126.08673472915378L216.43428571428572,126.92580842971802L216.53142857142856,128.2876373870032L217.11428571428573,127.10187897511891L217.21142857142857,127.00590163895062L217.30857142857144,124.27789946113315L217.69714285714286,128.55593590225493L217.89142857142858,126.96678053481239L218.0857142857143,125.90185819353376L218.47428571428574,130.2325543803828L219.15428571428572,126.3115356692246L219.4457142857143,127.43444719910622L219.64,129.7967090180942L219.8342857142857,129.15283729348863L219.93142857142857,130.33002464260375L220.12571428571428,126.48931512236595L220.32000000000002,126.58245817252568L220.5142857142857,127.84017637797764L220.61142857142858,123.3452261175428L220.70857142857142,121.65860238245554L221,121.342018697943L221.09714285714284,123.43817592092923L221.38857142857142,125.85598292521067L221.4857142857143,129.59792818767684L221.77714285714288,127.5676264337131L222.06857142857143,127.57530325651169L222.45714285714286,126.15311499578613L223.04,122.78890465412822L223.13714285714286,127.4703153158937L223.42857142857142,130.22293372239386L223.52571428571426,128.03428139431136L223.72,128.64097395539284L223.9142857142857,127.64497061286654L224.01142857142858,126.81647054212432L224.2057142857143,128.5555759327752L224.30285714285714,127.06288480758667L224.49714285714288,130.63714491895266L224.59428571428572,125.2585586309433L224.69142857142856,129.88877784354347L224.78857142857143,130.4095816867692L224.98285714285714,129.7646224754197L225.17714285714285,125.69104112046104L225.2742857142857,129.94188849840845L225.66285714285715,129.8438801765442L225.76,131.34097808599472L225.95428571428573,125.84485228998321L226.24571428571429,131.6723318866321L226.44,127.04249916757855L226.73142857142855,131.25479949797904L227.31428571428572,127.38352856891494L227.89714285714285,127.92266622611454L228.28571428571428,129.59545766030038L228.57714285714283,128.09600100346972L229.06285714285715,127.70609721967152L229.25714285714287,127.38833700333323L229.54857142857145,129.16504025885035L230.1314285714286,128.51040355222565L230.22857142857143,124.55365123919077L230.42285714285717,129.51985080753053L230.71428571428572,128.31875011750628L231.0057142857143,128.44984721285957L231.10285714285715,126.97071935875076L231.2,126.83529505133629L232.0742857142857,128.1231881720679L232.17142857142855,128.00225168892314L232.26857142857145,127.11246965612683L232.3657142857143,128.3903347849846L232.56,131.64562404581477L232.75428571428571,129.85225230881144L233.04571428571427,129.59680280940873L233.14285714285714,129.04499233194758L233.53142857142856,126.65736592667442L233.7257142857143,127.1288558457579L233.82285714285715,128.59053654755866L233.92,130.0685750203473L234.01714285714286,126.5930659047195L234.7942857142857,123.37912766422544L235.66857142857143,130.10390128833907L235.86285714285714,126.9545699911458L236.15428571428572,129.85618355444498L236.64,129.55547073483467L236.93142857142857,129.64278985772813L237.02857142857144,129.9317146241665L237.32000000000002,127.24977717229298L237.70857142857142,127.75039998974118L238,127.32814063344684L238.1942857142857,130.4142669737339L238.38857142857142,125.85248932668141L238.67999999999998,126.97110016856875L238.97142857142856,128.7535098876272L239.06857142857143,123.46740923183303L239.1657142857143,128.91782837680407L239.36,126.27870645267623L240.13714285714286,127.37047683341163L240.33142857142857,131.06393989069122L240.52571428571426,128.78686958551407L240.72,128.20573106833865L241.2057142857143,130.77658383335387L241.69142857142856,127.0572067626885L242.08,123.1109522964273L242.46857142857144,128.30593899318148L242.56571428571428,130.6278368660382L242.66285714285715,129.5901812655585L243.05142857142857,128.1616404908044L243.34285714285716,128.37471589871814L243.6342857142857,130.5487818845681L244.12,129.61553448438644L244.4114285714286,128.20265048742294L244.60571428571427,128.9274622968265L244.9942857142857,126.6659275165626L245.09142857142857,128.37961337821824L245.18857142857144,131.3046401143074L245.28571428571428,130.64826608129908L245.48,130.5110570830958L245.67428571428573,127.51128742098808L245.96571428571428,129.2886859859739L246.25714285714287,129.56100858109338L246.3542857142857,126.25390645010131L246.54857142857145,128.79932452951158L246.74285714285713,129.76935891594206L247.42285714285717,129.47379744904381L247.71428571428572,128.601684233972L247.81142857142856,125.13612353801727L248.0057142857143,126.78015341077533L248.2,124.70907658764294L248.39428571428573,125.35195934346743L248.49142857142857,127.37849657450404L248.68571428571428,128.94420845593726L248.97714285714287,128.57809486559458L249.17142857142855,130.7591347864696L249.46285714285713,127.30527688775744L249.65714285714284,123.68123678650174L249.94857142857143,126.78702882783752L250.04571428571427,118.8772394657135L250.14285714285714,125.96759619883127L251.11428571428573,128.53900975840432L251.21142857142857,130.3332852082593L251.40571428571428,127.71901444026402L251.50285714285712,127.29020363943916L251.60000000000002,128.03333978993552L251.69714285714286,128.2653382250241L251.98857142857142,129.9415834716388L252.0857142857143,128.0642630628177L252.28,129.31260501061166L252.57142857142858,126.1519668826035L252.7657142857143,125.34499109217099L252.96,128.8654888144561L253.15428571428572,128.23507615923882L254.02857142857144,130.08069083520343L254.12571428571428,129.6316251201289L254.41714285714286,132.26562979391642L254.61142857142858,129.11631365333284L254.8057142857143,123.0515800671918L255,127.17754455975123L255.1942857142857,128.5177961885929L255.29142857142858,124.35460137895174L255.58285714285714,123.79524290987423L256.1657142857143,130.32232129573822L256.2628571428572,129.9861211691584L256.6514285714286,128.71146166324615L256.9428571428571,128.16181858096803L257.2342857142857,128.6062899487359L257.42857142857144,121.43746744734901L257.5257142857143,128.41981060164315L257.9142857142857,124.60920021363667L258.30285714285714,127.49482923746109L258.4971428571429,128.05588903597422L258.5942857142857,129.05681448749132L258.69142857142856,126.18054088098663L258.7885714285714,129.59271620852607L258.88571428571424,128.30751906973975L259.1771428571428,131.80764630862643L259.5657142857143,126.76263994829993L259.66285714285715,127.65104651876858L259.76,130.7379856322493L260.1485714285714,127.25089686683245L260.24571428571426,128.17929794107164L260.44,128.17704907911164L260.53714285714284,130.58545330166817L261.02285714285716,128.57843020558357L261.31428571428575,127.94441406641688L261.4114285714286,124.74678812708173L261.60571428571427,128.8969160446099L261.8,130.09271381582533L261.89714285714285,127.61217549868992L261.9942857142857,129.7320149242878L262.09142857142854,126.18572254691806L262.3828571428571,126.54266638840947L262.48,130.41892005290305L262.57714285714286,125.79370252149444L262.6742857142857,130.45396213446344L262.9657142857143,130.2036431474345L263.0628571428572,130.35754146746226L263.25714285714287,131.19823313610894L263.84,130.265300235578L264.13142857142856,128.3229901790619L264.42285714285714,126.6497269954L264.52,130.03130870631762L264.90857142857146,126.32271366885729" style="fill: none;" fill="none"></path></g></g></g></g></g></g><g transform="translate(58, 178)" clip-path="url(#clip_1)"><clipPath id="clip_1"><rect width="271" height="21"></rect></clipPath><g><g><line x1="0" y1="0" x2="0" y2="5" style="visibility: inherit;" fill="rgb(0, 0, 0)" stroke="rgb(204, 204, 204)" stroke-width="1px"></line><line x1="19.428571428571427" y1="0" x2="19.428571428571427" y2="5" style="visibility: inherit;" fill="rgb(0, 0, 0)" stroke="rgb(204, 204, 204)" stroke-width="1px"></line><line x1="38.857142857142854" y1="0" x2="38.857142857142854" y2="5" style="visibility: inherit;" fill="rgb(0, 0, 0)" stroke="rgb(204, 204, 204)" stroke-width="1px"></line><line x1="58.285714285714285" y1="0" x2="58.285714285714285" y2="5" style="visibility: inherit;" fill="rgb(0, 0, 0)" stroke="rgb(204, 204, 204)" stroke-width="1px"></line><line x1="77.71428571428571" y1="0" x2="77.71428571428571" y2="5" style="visibility: inherit;" fill="rgb(0, 0, 0)" stroke="rgb(204, 204, 204)" stroke-width="1px"></line><line x1="97.14285714285714" y1="0" x2="97.14285714285714" y2="5" style="visibility: inherit;" fill="rgb(0, 0, 0)" stroke="rgb(204, 204, 204)" stroke-width="1px"></line><line x1="116.57142857142857" y1="0" x2="116.57142857142857" y2="5" style="visibility: inherit;" fill="rgb(0, 0, 0)" stroke="rgb(204, 204, 204)" stroke-width="1px"></line><line x1="136" y1="0" x2="136" y2="5" style="visibility: inherit;" fill="rgb(0, 0, 0)" stroke="rgb(204, 204, 204)" stroke-width="1px"></line><line x1="155.42857142857142" y1="0" x2="155.42857142857142" y2="5" style="visibility: inherit;" fill="rgb(0, 0, 0)" stroke="rgb(204, 204, 204)" stroke-width="1px"></line><line x1="174.85714285714286" y1="0" x2="174.85714285714286" y2="5" style="visibility: inherit;" fill="rgb(0, 0, 0)" stroke="rgb(204, 204, 204)" stroke-width="1px"></line><line x1="194.28571428571428" y1="0" x2="194.28571428571428" y2="5" style="visibility: inherit;" fill="rgb(0, 0, 0)" stroke="rgb(204, 204, 204)" stroke-width="1px"></line><line x1="213.71428571428572" y1="0" x2="213.71428571428572" y2="5" style="visibility: inherit;" fill="rgb(0, 0, 0)" stroke="rgb(204, 204, 204)" stroke-width="1px"></line><line x1="233.14285714285714" y1="0" x2="233.14285714285714" y2="5" style="visibility: inherit;" fill="rgb(0, 0, 0)" stroke="rgb(204, 204, 204)" stroke-width="1px"></line><line x1="252.57142857142858" y1="0" x2="252.57142857142858" y2="5" style="visibility: inherit;" fill="rgb(0, 0, 0)" stroke="rgb(204, 204, 204)" stroke-width="1px"></line><line x1="272" y1="0" x2="272" y2="5" style="visibility: inherit;" fill="rgb(0, 0, 0)" stroke="rgb(204, 204, 204)" stroke-width="1px"></line></g><g transform="translate(0, 8)"><text x="0" y="0" dx="0em" dy="0.95em" style="text-anchor: middle; visibility: hidden; font-family: Roboto, sans-serif; font-size: 12px; font-weight: 200;" fill="rgb(50, 49, 63)" stroke="none" stroke-width="1px">-200</text><text x="19.428571428571427" y="0" dx="0em" dy="0.95em" style="text-anchor: middle; visibility: inherit; font-family: Roboto, sans-serif; font-size: 12px; font-weight: 200;" fill="rgb(50, 49, 63)" stroke="none" stroke-width="1px">0</text><text x="38.857142857142854" y="0" dx="0em" dy="0.95em" style="text-anchor: middle; visibility: hidden; font-family: Roboto, sans-serif; font-size: 12px; font-weight: 200;" fill="rgb(50, 49, 63)" stroke="none" stroke-width="1px">200</text><text x="58.285714285714285" y="0" dx="0em" dy="0.95em" style="text-anchor: middle; visibility: inherit; font-family: Roboto, sans-serif; font-size: 12px; font-weight: 200;" fill="rgb(50, 49, 63)" stroke="none" stroke-width="1px">400</text><text x="77.71428571428571" y="0" dx="0em" dy="0.95em" style="text-anchor: middle; visibility: hidden; font-family: Roboto, sans-serif; font-size: 12px; font-weight: 200;" fill="rgb(50, 49, 63)" stroke="none" stroke-width="1px">600</text><text x="97.14285714285714" y="0" dx="0em" dy="0.95em" style="text-anchor: middle; visibility: inherit; font-family: Roboto, sans-serif; font-size: 12px; font-weight: 200;" fill="rgb(50, 49, 63)" stroke="none" stroke-width="1px">800</text><text x="116.57142857142857" y="0" dx="0em" dy="0.95em" style="text-anchor: middle; visibility: hidden; font-family: Roboto, sans-serif; font-size: 12px; font-weight: 200;" fill="rgb(50, 49, 63)" stroke="none" stroke-width="1px">1k</text><text x="136" y="0" dx="0em" dy="0.95em" style="text-anchor: middle; visibility: inherit; font-family: Roboto, sans-serif; font-size: 12px; font-weight: 200;" fill="rgb(50, 49, 63)" stroke="none" stroke-width="1px">1.2k</text><text x="155.42857142857142" y="0" dx="0em" dy="0.95em" style="text-anchor: middle; visibility: hidden; font-family: Roboto, sans-serif; font-size: 12px; font-weight: 200;" fill="rgb(50, 49, 63)" stroke="none" stroke-width="1px">1.4k</text><text x="174.85714285714286" y="0" dx="0em" dy="0.95em" style="text-anchor: middle; visibility: inherit; font-family: Roboto, sans-serif; font-size: 12px; font-weight: 200;" fill="rgb(50, 49, 63)" stroke="none" stroke-width="1px">1.6k</text><text x="194.28571428571428" y="0" dx="0em" dy="0.95em" style="text-anchor: middle; visibility: hidden; font-family: Roboto, sans-serif; font-size: 12px; font-weight: 200;" fill="rgb(50, 49, 63)" stroke="none" stroke-width="1px">1.8k</text><text x="213.71428571428572" y="0" dx="0em" dy="0.95em" style="text-anchor: middle; visibility: inherit; font-family: Roboto, sans-serif; font-size: 12px; font-weight: 200;" fill="rgb(50, 49, 63)" stroke="none" stroke-width="1px">2k</text><text x="233.14285714285714" y="0" dx="0em" dy="0.95em" style="text-anchor: middle; visibility: hidden; font-family: Roboto, sans-serif; font-size: 12px; font-weight: 200;" fill="rgb(50, 49, 63)" stroke="none" stroke-width="1px">2.2k</text><text x="252.57142857142858" y="0" dx="0em" dy="0.95em" style="text-anchor: middle; visibility: inherit; font-family: Roboto, sans-serif; font-size: 12px; font-weight: 200;" fill="rgb(50, 49, 63)" stroke="none" stroke-width="1px">2.4k</text><text x="272" y="0" dx="0em" dy="0.95em" style="text-anchor: middle; visibility: hidden; font-family: Roboto, sans-serif; font-size: 12px; font-weight: 200;" fill="rgb(50, 49, 63)" stroke="none" stroke-width="1px">2.6k</text></g><line x1="0" y1="0" x2="272" y2="0" fill="rgb(0, 0, 0)" stroke="rgb(204, 204, 204)" stroke-width="1px"></line></g></g></g></g></svg>