<svg viewBox="0 0 330.0000305175781 200.00001525878906" xmlns="http://www.w3.org/2000/svg"><g><g><g><g><g><line x1="58" y1="178" x2="53" y2="178" style="visibility: inherit;" fill="rgb(0, 0, 0)" stroke="rgb(204, 204, 204)" stroke-width="1px"></line><line x1="58" y1="160.2" x2="53" y2="160.2" style="visibility: inherit;" fill="rgb(0, 0, 0)" stroke="rgb(204, 204, 204)" stroke-width="1px"></line><line x1="58" y1="142.39999999999998" x2="53" y2="142.39999999999998" style="visibility: inherit;" fill="rgb(0, 0, 0)" stroke="rgb(204, 204, 204)" stroke-width="1px"></line><line x1="58" y1="124.6" x2="53" y2="124.6" style="visibility: inherit;" fill="rgb(0, 0, 0)" stroke="rgb(204, 204, 204)" stroke-width="1px"></line><line x1="58" y1="106.79999999999998" x2="53" y2="106.79999999999998" style="visibility: inherit;" fill="rgb(0, 0, 0)" stroke="rgb(204, 204, 204)" stroke-width="1px"></line><line x1="58" y1="89" x2="53" y2="89" style="visibility: inherit;" fill="rgb(0, 0, 0)" stroke="rgb(204, 204, 204)" stroke-width="1px"></line><line x1="58" y1="71.2" x2="53" y2="71.2" style="visibility: inherit;" fill="rgb(0, 0, 0)" stroke="rgb(204, 204, 204)" stroke-width="1px"></line><line x1="58" y1="53.39999999999999" x2="53" y2="53.39999999999999" style="visibility: inherit;" fill="rgb(0, 0, 0)" stroke="rgb(204, 204, 204)" stroke-width="1px"></line><line x1="58" y1="35.59999999999997" x2="53" y2="35.59999999999997" style="visibility: inherit;" fill="rgb(0, 0, 0)" stroke="rgb(204, 204, 204)" stroke-width="1px"></line><line x1="58" y1="17.800000000000015" x2="53" y2="17.800000000000015" style="visibility: inherit;" fill="rgb(0, 0, 0)" stroke="rgb(204, 204, 204)" stroke-width="1px"></line><line x1="58" y1="0" x2="53" y2="0" style="visibility: inherit;" fill="rgb(0, 0, 0)" stroke="rgb(204, 204, 204)" stroke-width="1px"></line></g><g transform="translate(48, 0)"><text x="0" y="178" dx="0em" dy="0.3em" style="text-anchor: end; visibility: hidden; font-family: Roboto, sans-serif; font-size: 12px; font-weight: 200;" fill="rgb(50, 49, 63)" stroke="none" stroke-width="1px">0.12</text><text x="0" y="160.2" dx="0em" dy="0.3em" style="text-anchor: end; visibility: inherit; font-family: Roboto, sans-serif; font-size: 12px; font-weight: 200;" fill="rgb(50, 49, 63)" stroke="none" stroke-width="1px">0.14</text><text x="0" y="142.39999999999998" dx="0em" dy="0.3em" style="text-anchor: end; visibility: hidden; font-family: Roboto, sans-serif; font-size: 12px; font-weight: 200;" fill="rgb(50, 49, 63)" stroke="none" stroke-width="1px">0.16</text><text x="0" y="124.6" dx="0em" dy="0.3em" style="text-anchor: end; visibility: inherit; font-family: Roboto, sans-serif; font-size: 12px; font-weight: 200;" fill="rgb(50, 49, 63)" stroke="none" stroke-width="1px">0.18</text><text x="0" y="106.79999999999998" dx="0em" dy="0.3em" style="text-anchor: end; visibility: hidden; font-family: Roboto, sans-serif; font-size: 12px; font-weight: 200;" fill="rgb(50, 49, 63)" stroke="none" stroke-width="1px">0.2</text><text x="0" y="89" dx="0em" dy="0.3em" style="text-anchor: end; visibility: inherit; font-family: Roboto, sans-serif; font-size: 12px; font-weight: 200;" fill="rgb(50, 49, 63)" stroke="none" stroke-width="1px">0.22</text><text x="0" y="71.2" dx="0em" dy="0.3em" style="text-anchor: end; visibility: hidden; font-family: Roboto, sans-serif; font-size: 12px; font-weight: 200;" fill="rgb(50, 49, 63)" stroke="none" stroke-width="1px">0.24</text><text x="0" y="53.39999999999999" dx="0em" dy="0.3em" style="text-anchor: end; visibility: inherit; font-family: Roboto, sans-serif; font-size: 12px; font-weight: 200;" fill="rgb(50, 49, 63)" stroke="none" stroke-width="1px">0.26</text><text x="0" y="35.59999999999997" dx="0em" dy="0.3em" style="text-anchor: end; visibility: hidden; font-family: Roboto, sans-serif; font-size: 12px; font-weight: 200;" fill="rgb(50, 49, 63)" stroke="none" stroke-width="1px">0.28</text><text x="0" y="17.800000000000015" dx="0em" dy="0.3em" style="text-anchor: end; visibility: inherit; font-family: Roboto, sans-serif; font-size: 12px; font-weight: 200;" fill="rgb(50, 49, 63)" stroke="none" stroke-width="1px">0.3</text><text x="0" y="0" dx="0em" dy="0.3em" style="text-anchor: end; visibility: hidden; font-family: Roboto, sans-serif; font-size: 12px; font-weight: 200;" fill="rgb(50, 49, 63)" stroke="none" stroke-width="1px">0.32</text></g><line x1="58" y1="0" x2="58" y2="178" fill="rgb(0, 0, 0)" stroke="rgb(204, 204, 204)" stroke-width="1px"></line></g></g><g transform="translate(58, 0)" clip-path="url(#clip_0)"><clipPath id="clip_0"><rect width="271" height="177"></rect></clipPath><g><g><g><line x1="0" y1="0" x2="0" y2="178" fill="rgb(0, 0, 0)" stroke="rgb(60, 60, 60)" stroke-width="1px" opacity="0.25"></line><line x1="30.22222222222222" y1="0" x2="30.22222222222222" y2="178" fill="rgb(0, 0, 0)" stroke="rgb(60, 60, 60)" stroke-width="1px" opacity="0.25"></line><line x1="60.44444444444444" y1="0" x2="60.44444444444444" y2="178" fill="rgb(0, 0, 0)" stroke="rgb(60, 60, 60)" stroke-width="1px" opacity="0.25"></line><line x1="90.66666666666666" y1="0" x2="90.66666666666666" y2="178" fill="rgb(0, 0, 0)" stroke="rgb(60, 60, 60)" stroke-width="1px" opacity="0.25"></line><line x1="120.88888888888889" y1="0" x2="120.88888888888889" y2="178" fill="rgb(0, 0, 0)" stroke="rgb(60, 60, 60)" stroke-width="1px" opacity="0.25"></line><line x1="151.11111111111111" y1="0" x2="151.11111111111111" y2="178" fill="rgb(0, 0, 0)" stroke="rgb(60, 60, 60)" stroke-width="1px" opacity="0.25"></line><line x1="181.33333333333331" y1="0" x2="181.33333333333331" y2="178" fill="rgb(0, 0, 0)" stroke="rgb(60, 60, 60)" stroke-width="1px" opacity="0.25"></line><line x1="211.55555555555557" y1="0" x2="211.55555555555557" y2="178" fill="rgb(0, 0, 0)" stroke="rgb(60, 60, 60)" stroke-width="1px" opacity="0.25"></line><line x1="241.77777777777777" y1="0" x2="241.77777777777777" y2="178" fill="rgb(0, 0, 0)" stroke="rgb(60, 60, 60)" stroke-width="1px" opacity="0.25"></line><line x1="272" y1="0" x2="272" y2="178" fill="rgb(0, 0, 0)" stroke="rgb(60, 60, 60)" stroke-width="1px" opacity="0.25"></line></g><g><line x1="0" y1="178" x2="272" y2="178" fill="rgb(0, 0, 0)" stroke="rgb(60, 60, 60)" stroke-width="1px" opacity="0.25"></line><line x1="0" y1="160.2" x2="272" y2="160.2" fill="rgb(0, 0, 0)" stroke="rgb(60, 60, 60)" stroke-width="1px" opacity="0.25"></line><line x1="0" y1="142.39999999999998" x2="272" y2="142.39999999999998" fill="rgb(0, 0, 0)" stroke="rgb(60, 60, 60)" stroke-width="1px" opacity="0.25"></line><line x1="0" y1="124.6" x2="272" y2="124.6" fill="rgb(0, 0, 0)" stroke="rgb(60, 60, 60)" stroke-width="1px" opacity="0.25"></line><line x1="0" y1="106.79999999999998" x2="272" y2="106.79999999999998" fill="rgb(0, 0, 0)" stroke="rgb(60, 60, 60)" stroke-width="1px" opacity="0.25"></line><line x1="0" y1="89" x2="272" y2="89" fill="rgb(0, 0, 0)" stroke="rgb(60, 60, 60)" stroke-width="1px" opacity="0.25"></line><line x1="0" y1="71.2" x2="272" y2="71.2" fill="rgb(0, 0, 0)" stroke="rgb(60, 60, 60)" stroke-width="1px" opacity="0.25"></line><line x1="0" y1="53.39999999999999" x2="272" y2="53.39999999999999" fill="rgb(0, 0, 0)" stroke="rgb(60, 60, 60)" stroke-width="1px" opacity="0.25"></line><line x1="0" y1="35.59999999999997" x2="272" y2="35.59999999999997" fill="rgb(0, 0, 0)" stroke="rgb(60, 60, 60)" stroke-width="1px" opacity="0.25"></line><line x1="0" y1="17.800000000000015" x2="272" y2="17.800000000000015" fill="rgb(0, 0, 0)" stroke="rgb(60, 60, 60)" stroke-width="1px" opacity="0.25"></line><line x1="0" y1="0" x2="272" y2="0" fill="rgb(0, 0, 0)" stroke="rgb(60, 60, 60)" stroke-width="1px" opacity="0.25"></line></g></g></g><g><g><line x1="0" y1="284.8" x2="272" y2="284.8" fill="rgb(0, 0, 0)" stroke="rgb(153, 153, 153)" stroke-width="1.5px"></line></g></g><g><g><line x1="30.22222222222222" y1="0" x2="30.22222222222222" y2="178" fill="rgb(0, 0, 0)" stroke="rgb(153, 153, 153)" stroke-width="1.5px"></line></g></g><g><g><g><g><g><path stroke="rgb(255, 112, 67)" stroke-width="2px" d="M36.79555555555555,-10.964711969758678L37.03733333333333,11.02752500801879L37.14311111111112,12.880621707277967L37.15822222222222,24.271861040855033L37.65688888888889,29.12846054417793L37.86844444444444,34.09603015965216L37.989333333333335,40.77741131274672L38.064888888888895,24.292048187090643L38.09511111111111,26.1916693776058L38.276444444444444,26.910345999960327L38.42755555555556,37.97489127241287L39.077333333333335,34.11819367053358L39.19822222222222,37.89085433451442L39.31911111111111,47.34261079565269L39.711999999999996,20.18660944906647L39.848,32.48414915574927L39.90844444444445,-34.24607927635243L39.93866666666667,-15.053852961745484L40.15022222222222,5.1312242188892565L40.18044444444445,10.687972006803617L40.28622222222222,39.50935731529989L40.40711111111111,27.041368468938227L40.49777777777778,43.996105227721124L40.51288888888889,28.381071749810342L40.92088888888889,38.92846425503643L42.024,54.79649262030023L42.522666666666666,51.10439874886789L42.568,41.772767098897475L42.824888888888886,57.64427230605926L42.96088888888889,65.34209682374926L42.976,69.2154069008217L43.06666666666666,71.66760498176737L43.08177777777777,69.44733602458666L43.157333333333334,58.79195982131012L43.42933333333334,66.05200285382661L43.474666666666664,57.94699550788161L43.61066666666667,69.31843351316785L44.351111111111116,70.44825016374787L44.39644444444444,61.54097894498945L44.48711111111111,67.63352863114619L44.577777777777776,68.14220070434534L44.65333333333333,66.97889898295954L44.80444444444444,73.91572738454197L44.89511111111111,75.91006017902764L44.970666666666666,64.01207282769248L45.75644444444444,60.295829307005185L45.832,66.8011321443113L45.847111111111104,78.61575338469699L46.11911111111111,69.98334563032839L46.315555555555555,77.94436403188736L46.512,78.00643357797644L47.08622222222222,85.76921296336756L47.34311111111111,82.06826650749748L47.64533333333333,78.58073944360676L47.84177777777778,78.64176524705088L48.17422222222222,67.72772872582911L48.21955555555556,58.99446637234589L48.43111111111111,68.13290857077537L48.49155555555556,82.31887036562503L49.21688888888889,81.53703505516373L49.30755555555556,90.04345531416132L49.32266666666667,85.79247595281718L49.65511111111111,85.94629280931544L49.836444444444446,85.37217635134931L49.98755555555556,95.0716969097857L50.440888888888885,84.42440381319551L50.60711111111111,77.51775829715267L50.728,86.46672943784438L50.818666666666665,90.70750776978518L51.30222222222223,87.8551069572698L51.36266666666666,87.91152735919542L51.74044444444444,91.6610300396132L51.98222222222223,100.41809317912144L51.99733333333334,96.03341617968968L52.224000000000004,102.32142297021917L52.28444444444444,95.71862742181048L52.54133333333333,85.22424746796742L53.07022222222223,87.34567401674542L53.19111111111111,85.50105556885691L53.49333333333333,95.9289805426615L53.70488888888889,95.91309607353314L53.84088888888889,92.38357238487305L53.931555555555555,81.96243005821648L54.007111111111115,76.95092776435341L54.11288888888889,79.54290679822996L54.24888888888889,86.08624207336086L54.46044444444444,108.76758601998317L54.49066666666667,104.79341336449997L54.536,106.29623458123811L54.672000000000004,105.24828638158206L55.20088888888889,100.80216844512202L55.56355555555555,95.7066437413286L55.88088888888889,98.82458260834161L56.152888888888896,98.89407001960244L56.288888888888884,105.86547202007749L56.48533333333333,108.75620921454892L56.53066666666667,107.03505895854273L56.65155555555556,117.27856129122519L57.256,114.62429557390656L57.51288888888889,117.00113702623634L57.664,101.95708540683142L57.70933333333333,107.13468482974261L58.01155555555556,116.45347802688534L58.25333333333334,115.1461199882618L58.525333333333336,106.2319354225988L58.70666666666666,104.59597711144656L58.96355555555556,102.64393425928813L59.05422222222222,96.15850564329185L59.41688888888889,99.82033195309849L59.61333333333334,103.46433150418407L59.65866666666666,111.3558882763851L59.67377777777778,113.78161585395745L59.794666666666664,110.5301127032352L59.855111111111114,108.42255436872915L59.96088888888889,107.78516501602813L60.70133333333334,113.50857161055379L60.76177777777778,110.47631329161149L60.867555555555555,108.39805157817736L61.00355555555555,99.73694943807921L61.336,103.37862182034495L61.39644444444444,110.37511751397514L61.51733333333333,98.31170363750498L61.638222222222225,98.10377437309288L61.69866666666667,102.77161863825239L62.00088888888889,108.57769825805137L62.07644444444444,111.82223156660146L62.09155555555555,109.58941640120354L62.16711111111111,117.62047856367593L62.34844444444444,109.65787355015853L62.39377777777778,121.19725341266498L62.46933333333333,126.95179064194026L62.75644444444444,121.55987719487943L62.99822222222222,119.48505626315949L63.14933333333333,113.92904796239779L63.330666666666666,110.99234381459381L63.723555555555556,98.7769637485875L63.85955555555556,110.2771018565019L64.38844444444445,98.59500696303365L64.40355555555556,106.8469236328716L64.43377777777778,104.4085322472164L65.09866666666667,114.90170862512043L65.21955555555556,114.6284465398565L65.35555555555555,121.31221295155136L65.38577777777778,124.9382876035991L65.46133333333333,123.69129332288638L65.83911111111111,111.92026215544065L65.85422222222222,110.5319477018757L66.00533333333334,109.49394390684623L66.03555555555556,98.72382934631261L66.11111111111111,98.66356696451518L66.32266666666666,102.3307103691388L66.41333333333334,106.69836279737288L66.54933333333334,111.56238635890087L66.776,124.00119523830654L66.83644444444445,105.66514133112095L66.86666666666666,106.21620956597606L67.24444444444444,90.47463459216283L67.57688888888889,95.94017261053757L67.66755555555555,100.5866147934534L67.92444444444445,111.33156756038298L68.01511111111111,107.83840642377632L68.408,105.12664212706625L60.77688888888889,81.54606426431499L60.882666666666665,85.62689180298901L60.958222222222226,85.14034117653523L61.154666666666664,73.40905816909405L61.260444444444445,76.04000829909283L61.71377777777778,51.016753497445826L61.92533333333333,26.25806001110332L62.45422222222222,38.357428279420496L62.48444444444444,37.413378142655354L63.708444444444446,54.764899525249255L63.84444444444444,56.15438305449737L63.980444444444444,46.06916517205387L64.07111111111111,40.508878215475974L64.43377777777778,68.89241859693772L65.14399999999999,90.55759699690012L65.26488888888889,76.60024177281656L65.80888888888889,80.50095461874366L66.05066666666667,78.44991988104081L66.096,79.48446496344506L66.21688888888889,89.03203649054109L66.26222222222222,93.24656444746338L66.62488888888889,77.93718841766169L66.68533333333333,81.93731835064203L67.13866666666667,84.51620565519875L67.48622222222222,86.29678007284491L67.71288888888888,96.33040787887387L67.98488888888889,85.25072550363427L68.07555555555555,61.38309396974498L68.31733333333332,72.39233586115988L68.58933333333333,71.33536452128499L68.60444444444445,58.82944966121917L69.11822222222223,73.90183908918148L69.26933333333334,83.42307198273328L69.31466666666667,87.31001165763846L69.32977777777778,85.88473370347207L69.36,96.4630683533775L69.37511111111111,100.89359390690488L69.75288888888888,102.98902079555133L70.25155555555556,108.68646408493959L70.59911111111111,114.81222035035874L70.85600000000001,102.55837517228954L71.32444444444445,96.47119179038545L71.73244444444445,97.08080066364012L71.808,90.6898198742926L72.14044444444446,87.95062762136816L72.42755555555556,93.89018385908342L72.45777777777778,85.04542861283622L72.65422222222223,92.55023027122498L72.896,46.61994273579408L73.33422222222222,56.53601170966798L73.37955555555556,82.89592259281741L73.75733333333334,92.88895052882353L74.15022222222223,101.93120491154384L74.4071111111111,105.00322031287784L74.70933333333333,115.93066253965159L74.98133333333334,110.4825739020411L75.01155555555556,76.71867207731626L75.04177777777778,80.93254913834228L75.13244444444445,76.89217959134277L75.55555555555556,96.83478046350773L75.7671111111111,107.27976927812755L76.61333333333333,91.6193005255214L76.67377777777779,86.2122283298583L76.83999999999999,82.37251970999306L77.30844444444445,85.29555899520435L77.42933333333333,88.5529841769917L77.62577777777778,90.40104594881434L77.70133333333334,100.54139145764769L77.94311111111111,98.65537128301297L78.01866666666666,98.01678853423498L78.04888888888888,90.49991151327549L78.19999999999999,105.51978998085654L78.26044444444445,92.02059823215484L78.69866666666667,83.61922869169996L78.88,75.6548818724411L79.66577777777778,72.80863693338975L79.832,86.0745692144772L80.08888888888889,87.10013274019602L80.512,97.37271917382266L80.90488888888889,81.67946910690897L81.08622222222222,95.7930718841054L81.25244444444445,103.05842016350614L81.29777777777777,117.72531653291814L82.15911111111112,103.56387199191349L82.23466666666667,118.27754782693445L82.24977777777778,115.29556771669901L82.40088888888889,101.69561581465076L83.504,111.65979423435017L83.67022222222222,100.26122859425237L83.68533333333333,108.3687298208886L83.71555555555555,113.25760617437446L83.79111111111112,104.95800025333452L83.80622222222222,76.28243633669311L84.184,84.00500491715485L84.25955555555555,94.22154386435162L84.3048888888889,107.8898298549307L84.42577777777778,115.76014712617712L84.728,118.89890904644679L84.77333333333333,115.57335932624072L84.78844444444445,115.38154403431253L85.01511111111111,113.05045394458196L85.34755555555556,107.96730992530476L85.544,99.34256860336478L85.57422222222222,102.79471371126662L85.77066666666667,87.70044160337743L86.32977777777778,92.54089796335396L86.69244444444445,105.49033457631407L86.79822222222222,117.64998955604159L86.88888888888889,112.88314616845084L87.25155555555556,120.63171734432001L87.29688888888889,114.42682461273445L88.18844444444446,100.11312081534729L88.44533333333334,104.90375459980406L88.46044444444445,109.7287996291604L88.76266666666666,100.70603820082464L88.808,102.76297497509074L88.944,101.5153066215405L89.488,103.10406473979289L89.53333333333333,102.07427427115996L89.7751111111111,110.53364653672554L89.80533333333334,100.52831141046153L90.24355555555556,107.42603454048317L90.66666666666666,100.5994281783991L90.78755555555556,97.625140627342L90.848,98.17143413550708L90.96888888888888,100.10672784046561L91.13511111111112,111.69510360596318L91.528,108.0003872110709L91.60355555555556,123.68604000295785L91.84533333333333,116.29766060760969L92.08711111111111,119.86837095648856L92.20800000000001,104.31045445102939L92.34400000000001,106.5897234648376L92.48,115.26482976018843L92.64622222222222,100.95184590661202L92.66133333333333,118.74704631235403L92.84266666666666,113.74365806142212L92.8728888888889,129.65679661488366L93.44711111111111,121.49578567299744L93.62844444444444,125.47313990088405L93.91555555555556,120.7164567654854L94.26311111111112,122.77373860272921L94.56533333333334,121.70359067435953L95.16977777777778,121.08372378060751L95.29066666666667,128.96958914345225L95.42666666666666,123.1287691244228L95.472,128.9387761335816L95.50222222222222,134.17580905564105L96.27288888888889,127.61005056028054L96.31822222222222,125.25969475105099L96.62044444444444,107.66527013060265L96.65066666666667,111.27976121471414L96.66577777777778,117.0213537762528L96.77155555555557,109.88149846017156L97.04355555555556,114.37259007465714L97.46666666666667,106.26989684207365L97.7688888888889,108.92244827093556L97.79911111111112,87.35980021084474L97.88977777777777,100.33578976586534L98.35822222222222,111.5838033663933L98.61511111111112,121.74366488621858L98.88711111111111,117.25106288055315L99.008,123.0881242529138L99.47644444444444,125.86584027383233L99.88444444444444,115.56956400259436L100.232,116.12924544205727L100.67022222222222,123.18374899262466L100.83644444444445,131.8340132500784L101.07822222222222,115.11258176482062L101.28977777777777,110.46813481281008L101.60711111111111,117.41455787676456L102.21155555555555,117.14376295481853L102.544,108.15750343844132L102.61955555555555,113.15766495731376L103.17866666666667,116.7667332259828L103.34488888888887,123.15334681797113L103.43555555555555,109.37773753004123L103.6471111111111,116.3305500507167L103.67733333333334,119.09265846489734L104.16088888888888,101.73273514317789L104.52355555555556,87.65127180699896L104.70488888888889,96.27677915027375L104.73511111111111,98.63693049389504L104.82577777777777,98.57959877275455L105.0071111111111,92.11234961761849L105.38488888888888,105.48453171261438L105.808,114.23976198678191L105.83822222222223,111.78733511593923L105.89866666666666,129.13517660514705L106.12533333333333,133.3178289164078L106.74488888888888,127.44869566851686L106.79022222222223,121.19133248385091L107.33422222222222,124.40976286921679L107.5911111111111,134.33395476456747L107.63644444444444,137.09631436178842L107.78755555555556,128.67398524468996L108.05955555555556,125.34614808193359L108.07466666666666,121.38801755923936L108.33155555555555,114.43943524133506L108.37688888888889,120.6963713823041L108.89066666666666,117.94291159977202L108.92088888888888,122.48464565676264L109.02666666666666,117.71206443549283L109.43466666666666,121.06448913956335L109.57066666666667,122.85393752184302L109.888,120.09801933006521L110.25066666666666,129.4051412107711L110.32622222222221,125.23257345450905L110.41688888888889,129.66585080440632L110.82488888888889,131.64370309004659L111.1271111111111,134.0527230375378L111.20266666666666,133.060456549726L111.42933333333333,136.27346462464456L111.50488888888889,129.4067111233242L112.15466666666667,78.17182632323309L112.21511111111111,97.97726338646535L112.53244444444444,90.73297591651512L112.56266666666667,115.25356399324555L112.80444444444444,127.14987256829154L112.83466666666666,120.12681380453236L112.92533333333334,123.25289870943146L112.95555555555556,122.99519242552229L113.16711111111111,126.06238340680187L113.22755555555557,126.91307975378267L113.57511111111111,131.75590682462828L113.71111111111111,125.43299428007589L113.99822222222222,129.7639663134908L114.16444444444444,122.84286033123105L114.19466666666666,99.77327995425084L114.28533333333334,105.10542428568377L114.48177777777778,113.92716588542088L114.75377777777777,107.08049022653832L115.34311111111111,119.58053994595487L115.69066666666667,126.80708012354064L115.75111111111111,122.98882173640541L115.76622222222223,133.68726989235287L115.872,140.39688341501835L116.1288888888889,133.96142160823038L116.29511111111111,132.6363864131575L116.46133333333333,114.67612441228661L116.56711111111112,114.74662365345259L116.65777777777777,111.89392738955083L117.02044444444445,116.78622937570134L117.85155555555555,128.25416418057748L117.912,126.45825028027339L118.456,130.75686506512906L118.4711111111111,141.7808989839741L118.53155555555556,141.06368529063397L118.83377777777778,146.37981208838184L118.8488888888889,145.99545502589442L118.864,147.51328606084763L118.98488888888889,139.56218252107968L119.64977777777777,137.86164931491297L119.75555555555556,140.07720720312167L119.80088888888889,131.12391977751952L120.088,129.26346854236544L120.904,123.99527950922739L121.04,131.12024540329034L121.07022222222223,126.84534580602678L121.13066666666667,134.26988952335378L121.22133333333333,146.91201168404018L121.26666666666668,130.0440845805764L121.37244444444445,124.36780176391359L121.49333333333333,131.22778492587898L121.53866666666667,128.08206882845218L121.72,121.60694106799875L122.128,121.56454391230649L122.18844444444446,125.01359393685762L122.35466666666666,126.96976088100494L122.52088888888889,128.27479761727943L123.54844444444446,125.79076545887166L123.76,139.77667239101513L123.88088888888889,111.52943011517397L124.09244444444444,122.23413266894265L124.10755555555556,133.64887908313895L124.50044444444444,123.382011785592L124.712,133.90042627244316L125.08977777777778,137.5780648087807L125.528,133.1555091032593L125.57333333333334,137.94756242091705L125.96622222222221,144.1140703896001L126.23822222222222,148.50499607678145L126.29866666666666,134.50421902391844L126.67644444444444,140.27390134366473L127.06933333333333,140.8963518096931L127.46222222222221,136.0437003060536L127.68888888888888,123.99589455153682L127.80977777777778,127.48579873577441L127.82488888888889,122.02781952104382L128.15733333333333,125.53295483518491L128.2177777777778,131.09403698163538L128.42933333333335,137.37199840377158L129.03377777777777,133.74709072488778L129.1697777777778,142.22146880613704L129.35111111111112,143.1035376142677L129.63822222222223,144.87354292101958L129.68355555555556,145.7055240918833L129.81955555555555,152.75955771026838L130.37866666666667,141.00863881002564L130.62044444444444,134.99083384448704L130.78666666666666,139.85949189528478L131.05866666666668,133.94158386149795L131.20977777777776,130.50194305276148L131.2248888888889,124.81877988156839L131.4968888888889,134.44331772790648L131.512,136.28443643371043L131.85955555555554,136.17044879269466L131.92,140.01421284956854L132.14666666666668,137.88278269459678L132.6,136.72066232496425L132.736,123.67432563384727L132.78133333333335,126.00513515520306L132.88711111111112,126.70476475267536L133.03822222222223,125.6515072352226L133.08355555555556,106.13041194001053L133.15911111111112,96.4287989075137L133.31022222222222,109.82226302952486L133.6728888888889,118.85619281489203L133.8088888888889,126.30514845823379L134.096,123.27687366470772L134.35288888888888,131.53447086134602L135.28977777777777,130.30508090090183L135.81866666666667,133.47377888102187L136.07555555555558,136.9338701304129L136.22666666666666,126.43287544586249L136.3022222222222,131.4872847338795L136.46844444444443,131.36828762652155L136.55911111111112,131.4567339990239L136.6648888888889,125.06227858625057L136.9368888888889,120.36450150586485L137.01244444444444,121.18902725086998L137.088,132.72192412201403L137.36,125.15474206676384L137.52622222222223,133.2032218198198L137.57155555555556,129.58498319031108L137.8737777777778,137.5428172781545L137.99466666666666,133.484419915347L138.14577777777777,123.4376002581529L138.3271111111111,119.91853135535786L138.67466666666667,133.26813307350676L138.75022222222222,137.47476729241492L139.672,134.83854895643879L139.6871111111111,136.46842624552542L140.17066666666665,140.19655354623492L140.82044444444443,140.30514940622146L140.94133333333332,136.4827805292767L141.06222222222223,144.37477065635693L141.07733333333334,136.730524901825L141.5911111111111,133.79385928885807L141.75733333333332,139.77367274628082L141.93866666666668,145.76222228924036L142.19555555555556,148.79874977540732L143.10222222222222,125.14285177154396L143.4648888888889,128.6344308695975L143.91822222222223,129.8982042528262L143.97866666666667,127.32009608608904L144.19022222222222,126.04648212350855L144.4471111111111,136.36780349586874L144.5377777777778,141.22019729241413L145.17244444444444,149.12661402478625L145.41422222222224,137.85140237960107L145.58044444444445,144.59340184302857L145.71644444444445,133.89449868542988L145.83733333333333,144.3546273776474L146.13955555555555,139.32413144043582L146.1697777777778,135.45948803622423L146.21511111111113,137.3221203529769L146.24533333333332,143.72165468716227L146.336,131.39819773783447L146.63822222222223,121.50897276371815L146.68355555555556,136.19742768508254L146.7591111111111,139.46960714281832L146.86488888888888,130.4265728832557L146.8951111111111,136.07640164859737L147.66577777777778,134.99081352333812L147.95288888888888,136.90858707535617L148.2551111111111,138.94047089164465L148.27022222222223,133.81294366684563L148.30044444444445,137.72782656053903L148.512,131.7612438184035L148.57244444444447,113.54329821479391L148.70844444444444,107.26323952801269L148.72355555555555,124.0017827017739L148.7991111111111,135.27752973935807L148.87466666666666,145.30972978771808L149.10133333333334,137.74074380696464L149.56977777777777,130.53412909686952L149.75111111111113,128.60965468037364L149.8568888888889,122.0877242967381L149.93244444444443,131.57443449526394L150.144,140.0778313447795L150.28,137.24582080183993L150.6728888888889,136.12939596973996L150.77866666666668,136.28109221460306L150.7937777777778,137.54439945222072L150.9297777777778,134.90191353798585L151.50400000000002,128.5326898136179L151.62488888888888,130.4206466530824L151.64,135.12171408981467L151.70044444444446,132.5051224151277L152.184,120.23881755107777L152.89422222222223,126.58092730661713L152.95466666666667,136.15819085014152L153.22666666666666,141.09741631491357L153.3022222222222,140.3642658623658L153.5742222222222,146.73435550645604L153.61955555555556,144.53872978040943L153.9368888888889,148.93046347230296L154.10311111111113,152.76541003662123L154.4657777777778,145.31219480203254L154.57155555555556,130.50435665229955L154.82844444444444,134.02292281496526L154.85866666666666,136.60622273271082L154.904,142.17335749617098L155.22133333333332,141.74401143879223L155.25155555555557,152.19544808203295L155.3271111111111,147.415280385818L155.49333333333334,131.39036727905622L155.67466666666667,129.4182391176245L155.93155555555555,130.17607831535466L156.20355555555557,131.29116744266588L156.2942222222222,135.37116287748003L156.36977777777778,137.98263326764098L156.44533333333334,139.03382398295395L156.71733333333336,137.38056692366592L156.73244444444444,134.86366981318469L157.14044444444446,138.34787011892124L157.26133333333334,141.65075235337332L157.41244444444445,146.38195055705498L157.57866666666666,139.28307238329762L157.89600000000002,140.7763540763218L158.168,148.17592881551735L158.65155555555555,138.08988511342616L158.66666666666669,137.2421482025314L158.75733333333332,142.9993659578996L159.54311111111113,137.462382736399L159.57333333333332,137.60527568733346L159.72444444444443,141.5405553869942L159.8302222222222,154.63432085588806L160.23822222222222,153.90433120295546L160.55555555555557,125.08497044304097L160.70666666666665,129.53401763474395L160.94844444444445,106.87052712700039L160.97866666666667,124.10420449412626L161.08444444444444,114.50389325044608L161.56799999999998,127.91097865475449L161.64355555555557,133.62417819007177L161.80977777777778,135.7020441240307L161.88533333333334,138.81907112993218L162.5351111111111,138.81808867929826L162.58044444444445,141.10799561785728L162.88266666666667,135.67449556617183L162.97333333333333,139.5999031903043L162.98844444444444,147.7143661595401L163.38133333333334,152.01931733709674L163.48711111111112,149.81638619912923L164.424,146.5748367715672L164.4391111111111,143.38495759539578L164.5751111111111,145.70215455039008L164.6808888888889,131.75962047900953L164.72622222222222,132.76376911596176L164.832,141.53482744571994L164.87733333333333,137.9351457159366L165.20977777777776,136.74732172016178L165.376,149.18805534079L165.54222222222222,148.270221958365L165.69333333333333,137.18514393675682L165.72355555555555,140.6545564419529L165.73866666666666,137.884289002806L165.78400000000002,140.84019139313108L166.14666666666668,132.90456630053168L166.2373333333333,128.42751863278176L166.58488888888888,130.89413112328782L166.736,127.7726292200466L166.8568888888889,129.03189148352027L167.03822222222223,132.25432499078204L167.77866666666668,136.3333062590795L167.7937777777778,139.5819234241031L167.91466666666665,128.92504287415636L168.05066666666667,136.84409147413905L168.57955555555554,140.42620183892453L169.00266666666664,146.2939247433388L169.048,141.7515763440158L169.65244444444443,135.61029717435994L170.0151111111111,138.1574759025011L170.16622222222222,120.36928128353557L170.99733333333336,136.78283183784364L171.19377777777777,135.9411690605347L171.36,144.34784410552172L171.632,139.41142097327702L172.176,144.203103556714L172.25155555555557,142.88221791176886L172.26666666666665,126.219095957213L172.2968888888889,141.0594836735328L172.50844444444445,137.53696284196377L172.68977777777775,136.6865529340601L173.03733333333332,131.96148952496625L173.128,144.8242112270151L173.35466666666667,149.58981639094083L173.44533333333334,144.87125887362316L173.59644444444444,147.0461335247049L173.9591111111111,147.8538010230833L174.21599999999998,153.10207619852864L174.54844444444444,146.89638484589486L175.0168888888889,140.0177466051115L175.12266666666667,136.5149985490044L175.168,141.10315438853502L175.2888888888889,140.00220175949812L175.53066666666666,137.90609993677188L175.5911111111111,139.67439988458662L175.69688888888888,146.52433703186813L175.72711111111113,150.07661489869776L175.77244444444446,142.634172710333L176.30133333333333,142.1886578467808L176.4071111111111,132.4238073222233L176.6488888888889,128.03066468908747L176.95111111111112,138.17533179446673L177.37422222222222,143.06246972992787L177.40444444444447,146.49746843644837L177.41955555555555,149.00539288323438L177.4497777777778,148.08495132089448L177.54044444444443,147.03192791438573L177.67644444444446,148.42148118195814L177.76711111111112,133.83994531737497L177.84266666666667,138.73727428499893L178.2808888888889,154.39884483685518L178.49244444444446,153.98018221301092L178.65866666666668,150.46139995719344L178.80977777777778,140.73501794138758L178.87022222222222,147.74038073896892L178.88533333333334,151.2408538739653L179.30844444444446,142.058855342911L179.44444444444443,157.09979773762603L179.56533333333334,156.5296161675619L179.792,148.1479723587136L179.8071111111111,145.17721653309465L179.98844444444444,136.91527299599053L180.45688888888887,145.3732902986777L180.5928888888889,146.34322547334267L180.78933333333333,152.39483642946382L180.84977777777777,155.47423503143014L180.92533333333333,145.62735473240863L181.06133333333332,143.526363803896L181.1822222222222,146.05152279493373L181.28799999999998,133.44506703351237L181.30311111111112,141.92636555274902L181.56,144.2871868195568L182.01333333333335,144.07063521757334L182.16444444444446,145.31643334039813L182.72355555555555,139.87458485489347L182.85955555555554,106.78964498832977L182.87466666666666,120.77762943741772L182.96533333333332,124.19795328043159L183.20711111111112,133.3249119571582L183.3128888888889,145.9525697452864L183.736,146.54661892313013L183.75111111111113,155.52762994562534L183.8871111111111,155.11612866279452L183.96266666666668,154.85405082200154L184.1288888888889,154.0483861678492L184.2648888888889,151.42380024395294L184.47644444444444,158.75951190353578L184.64266666666666,156.33641318536488L185.05066666666667,148.91752471480777L185.096,148.48684231730707L185.23200000000003,151.37792710955387L185.6097777777778,153.88135154065756L185.6702222222222,154.6161710394458L185.80622222222223,153.4878936346195L186.01777777777778,137.98740069006809L186.10844444444444,144.77657739600497L186.13866666666667,142.6487565724907L186.65244444444443,142.25840821318968L186.74311111111112,141.6174314120599L186.83377777777778,141.29436525220802L186.864,140.7973554713436L186.87911111111111,138.47349600213215L187.03022222222222,130.5559255684462L187.10577777777777,136.66584817916433L187.31733333333332,139.31429079502988L187.45333333333335,143.35178767758705L187.69511111111112,147.52207328270734L188.07288888888888,145.84303317422186L188.36,152.0190054485471L188.49599999999998,148.75241953309003L188.76799999999997,144.8524765096642L189.176,141.4747035290323L189.52355555555556,144.46497151288523L189.55377777777778,150.03145406385144L189.5688888888889,138.30149338805603L190.33955555555556,149.2663772902723L190.46044444444445,150.52402280103178L190.50577777777775,145.71455579716573L190.64177777777778,153.59098922561768L191.21599999999998,151.38284283012845L191.44266666666667,145.68219479519544L191.68444444444447,151.3279601561929L191.98666666666665,151.99461241650013L192.09244444444442,154.34506694845814L192.19822222222223,156.12318603737626L192.27377777777778,150.50574860419914L192.7422222222222,126.6518950977688L192.8631111111111,146.03981049291878L192.89333333333332,131.45264428038948L193.4071111111111,128.58839564549658L193.45244444444444,122.4798693670495L193.664,129.40835983357812L193.70933333333332,136.07308183909643L193.87555555555554,138.12856031656972L193.96622222222223,131.92686498403972L194.38933333333333,141.5750490870501L194.43466666666666,137.63317590751802L194.4497777777778,136.1715306818399L194.54044444444443,138.8287428438612L194.57066666666668,140.78535706638982L194.82755555555556,143.3307949187737L194.94844444444445,143.5331327439774L195.08444444444444,133.465919878568L195.3111111111111,147.28512654214245L195.5528888888889,143.11970738595213L196.14222222222224,147.37837436929632L196.32355555555554,132.65796703300055L196.3537777777778,133.97575097919213L196.5048888888889,135.47981265092318L196.67111111111112,141.7798813587691L196.7768888888889,143.5177020505825L196.88266666666667,139.04497468446252L196.9128888888889,150.6065180967722L197.1697777777778,149.07960377874812L197.45688888888887,151.92275893654133L198.00088888888888,149.2487699935776L198.15200000000002,140.06189917742861L198.4088888888889,143.56547678959163L198.49955555555556,140.9850698867547L198.63555555555556,138.87142282003802L199.08888888888887,136.8749579696336L199.43644444444445,142.07859895399085L199.45155555555556,142.731445962017L199.72355555555555,148.96944576849057L200.14666666666668,149.14177204101986L200.22222222222223,162.84672523814265L200.41866666666667,163.9584674982895L200.43377777777778,159.59362681321318L200.63022222222222,147.7468403745414L200.75111111111113,151.45173938803202L200.82666666666665,152.7856132920523L200.8568888888889,151.42982275819418L200.872,141.61127387723707L201.17422222222223,149.5662326600634L201.24977777777778,149.79933802524104L201.46133333333333,147.88576103114426L201.61244444444444,144.41560783423984L201.68800000000002,146.16782442115547L201.7937777777778,152.5731327687669L202.08088888888886,148.30941178053428L202.26222222222222,155.74275275975353L202.7911111111111,153.39742975300481L202.92711111111112,155.7947473172303L203.65244444444443,151.0563988187287L203.728,143.76152666916687L203.95466666666667,137.49984031742954L204.12088888888889,139.49928309336985L204.18133333333336,143.42982955584338L204.4231111111111,132.47077885275726L204.61955555555556,145.6366968763211L204.92177777777778,121.37104751660458L205.0577777777778,134.74424296137116L205.17866666666666,134.46247226426854L205.4808888888889,137.64352681416185L205.72266666666667,141.34924995528408L206.0248888888889,153.5278398682281L206.0702222222222,157.55962697324782L206.31199999999998,148.22251132045764L206.55377777777778,151.82834761211024L206.72,149.66300495903937L207.62666666666667,140.37697843099386L207.7626666666667,134.17350088706462L207.77777777777777,140.54364676684645L208.23111111111112,147.5067673481137L208.51822222222222,140.32381421784345L208.56355555555555,144.0973260024773L208.89600000000002,139.9701090299837L209.5608888888889,145.63760103963327L209.87822222222223,141.6317704283149L209.9688888888889,143.91905329721874L209.99911111111112,142.2365666586024L210.31644444444444,145.73581063019407L210.6488888888889,147.730708959503L211.0871111111111,149.5535151450652L211.78222222222223,151.7490616446029L212.024,146.9805697038943L212.20533333333333,141.4204544517502L213.0968888888889,153.06730552989868L213.33866666666665,145.26949549721854L213.8071111111111,149.73145384912002L213.928,149.38165459945384L214.24533333333332,149.63390386768927L214.6231111111111,158.07774301689116L214.69866666666667,162.6464284868315L214.8951111111111,159.19279540367572L215.09155555555557,160.73250384323387L215.1822222222222,152.87988649840707L215.81688888888888,142.57020487925743L215.832,145.1377040251573L215.90755555555558,139.64860432293892L216.13422222222223,142.46109610883522L217.01066666666665,141.1052887039669L217.26755555555556,144.50684452755974L217.67555555555555,155.16883183660343L217.69066666666666,153.22233787979027L217.81155555555557,144.1393840849718L217.99288888888887,150.72167123915676L218.03822222222223,137.51843340851022L218.17422222222223,142.50442787919732L218.4008888888889,143.4803227908271L218.46133333333333,150.79431528132304L218.49155555555555,152.57703418422426L218.7182222222222,156.0376085763495L218.99022222222223,155.48017171891456L219.26222222222222,148.812658936214L219.48888888888888,151.85684265043233L219.64,149.31234579411685L219.68533333333332,153.91729049877844L219.86666666666667,150.51378309843852L219.88177777777778,152.16539369414994L219.9422222222222,156.18547215217797L220.36533333333335,157.51654679390458L220.7582222222222,151.35437990434568L221.25688888888888,149.34449846987488L221.48355555555554,150.95091642525531L222.02755555555555,149.1831914710208L222.10311111111113,151.15435813946752L222.82844444444444,147.73055977990165L222.88888888888889,146.51732179266176L223.19111111111113,152.91250205005383L223.91644444444444,156.7252292821716L223.93155555555555,151.56191571413936L224.32444444444445,135.86285794412768L224.36977777777778,134.56884838244721L225.00444444444443,134.42189058245066L225.24622222222223,142.63715462554003L225.7751111111111,146.95572903077905L226.0017777777778,152.19190137100875L226.12266666666667,154.64033462829985L226.19822222222223,150.17383358137369L226.21333333333334,158.74286400351858L226.71200000000002,145.52477404042446L226.9688888888889,142.86963124134758L227.0142222222222,153.26792768394122L227.05955555555553,153.07355677458744L227.256,148.60927362783613L227.664,153.94063774790683L227.93599999999998,153.25767493990847L228.04177777777778,155.96459712951057L228.14755555555556,144.00542565327092L228.38933333333333,149.59977564419032L228.48,140.15557917597724L228.7973333333333,148.0679936995675L228.99377777777778,154.1680053776842L229.16,146.99012479939114L229.52266666666665,153.7389193115118L229.87022222222222,154.51909416064518L229.91555555555556,155.02537781205712L230.112,156.6926335776266L230.17244444444444,156.84307105567552L230.2631111111111,157.5961593653351L230.58044444444445,156.18140766534745L230.9128888888889,152.15367905326806L230.928,150.2286389424093L231.21511111111113,150.72292379580065L231.26044444444443,151.8041190459855L231.38133333333334,152.20027933564947L231.39644444444446,156.7019155457447L231.41155555555554,162.4162965151566L231.50222222222223,167.98750474172223L231.80444444444444,156.69297374080054L231.8346666666667,157.03846576208133L232.10666666666668,161.326053676571L232.60533333333333,161.3354213890824L232.86222222222224,161.48524275883398L233.0737777777778,160.23749505677435L233.16444444444446,160.35506941317686L233.67822222222225,155.75157478236656L234.29777777777778,158.6987038372964L234.72088888888888,164.4604129576093L235.1288888888889,156.12929962297713L235.20444444444442,145.34039598357938L235.2951111111111,145.12680786163963L235.64266666666666,142.502427306839L236.02044444444442,149.36480759326705L236.20177777777778,148.11287871565872L236.2168888888889,145.0511780903724L236.30755555555555,149.57657052552622L236.44355555555558,135.61217832968188L236.70044444444446,141.79306486609906L236.88177777777778,151.08394209482273L236.97244444444445,157.41573054276705L237.27466666666666,152.01278785397292L237.3351111111111,140.03653560119676L237.6977777777778,144.6620308234561L237.728,151.80437234605958L237.864,152.41253366926674L238.61955555555556,154.1703047040663L238.98222222222222,154.4230864288546L238.99733333333336,151.50069037450177L239.3297777777778,149.36656872375502L239.85866666666666,155.29069010701L239.8737777777778,162.6364202289952L240.176,160.7909766262277" style="fill: none;" fill="none"></path></g></g></g></g><g opacity="0.2"><g><g><g><path stroke="rgb(255, 112, 67)" stroke-width="2px" d="M33.833777777777776,-90.91117997169493L34.64977777777778,11.706960308551784L34.66488888888889,-30.57319809198378L36.79555555555555,-6.076392126083358L37.03733333333333,44.01587318181991L37.14311111111112,15.660266387462611L37.15822222222222,41.358718681335446L37.65688888888889,36.41335945129394L37.86844444444444,41.54738436937332L37.989333333333335,50.799482870101926L38.064888888888895,-0.4359962463378748L38.09511111111111,29.04110114574432L38.276444444444444,27.988360929489133L38.42755555555556,54.571709144115445L39.077333333333335,28.333147275447843L39.19822222222222,43.549845325946805L39.31911111111111,61.52024548053741L39.711999999999996,-20.5473925590515L39.848,50.93045871257782L39.90844444444445,-134.34142191410064L39.93866666666667,13.734486508369441L40.15022222222222,35.40883998870849L40.18044444444445,19.023093688488004L40.28622222222222,82.741435277462L40.40711111111111,8.33938519954681L40.49777777777778,69.42821036577224L40.51288888888889,4.958521533012386L40.92088888888889,54.7495530128479L42.024,78.59853516817093L42.522666666666666,45.56625794172287L42.568,27.77531962394714L42.824888888888886,81.45153011679649L42.96088888888889,76.88883360028267L42.976,75.0253720164299L43.06666666666666,75.34590210318565L43.08177777777777,66.11693258881569L43.157333333333334,42.808895516395566L43.42933333333334,76.94206740260124L43.474666666666664,45.78948448896408L43.61066666666667,86.37559052109718L44.351111111111116,72.14297513961792L44.39644444444444,48.180072116851804L44.48711111111111,76.77235316038131L44.577777777777776,68.90520881414413L44.65333333333333,65.23394640088081L44.80444444444444,84.32096998691559L44.89511111111111,78.90155937075615L44.970666666666666,46.165091800689694L45.75644444444444,54.72146402597427L45.832,76.55908640027046L45.847111111111104,96.3376852452755L46.11911111111111,57.03473399877548L46.315555555555555,89.88589163422584L46.512,78.09953789710998L47.08622222222222,97.41338204145431L47.34311111111111,76.51684682369232L47.64533333333333,73.34944884777069L47.84177777777778,78.7333039522171L48.17422222222222,51.35667394399643L48.21955555555556,45.89457284212112L48.43111111111111,81.84057186841964L48.49155555555556,103.59781305789947L49.21688888888889,80.36428208947181L49.30755555555556,102.8030857026577L49.32266666666667,79.41600691080093L49.65511111111111,86.1770180940628L49.836444444444446,84.5110016644001L49.98755555555556,109.62097774744034L50.440888888888885,68.45346416831016L50.60711111111111,67.15779002308845L50.728,99.89018614888191L50.818666666666665,97.06867526769638L51.30222222222223,83.57650573849678L51.36266666666666,87.99615796208381L51.74044444444444,97.28528406023979L51.98222222222223,113.55368788838386L51.99733333333334,89.45640068054199L52.224000000000004,111.75343315601349L52.28444444444444,85.81443409919738L52.54133333333333,69.48267753720283L53.07022222222223,90.52781383991241L53.19111111111111,82.73412789702415L53.49333333333333,111.57086800336837L53.70488888888889,95.88926936984062L53.84088888888889,87.08928685188293L53.931555555555555,66.33071656823158L54.007111111111115,69.4336743235588L54.11288888888889,83.4308753490448L54.24888888888889,95.90124498605728L54.46044444444444,142.7896019399166L54.49066666666667,98.83215438127517L54.536,108.55046640634536L54.672000000000004,103.676364082098L55.20088888888889,94.13299154043197L55.56355555555555,88.06335668563842L55.88088888888889,103.50149090886116L56.152888888888896,98.99830113649368L56.288888888888884,116.3225750207901L56.48533333333333,113.0923150062561L56.53066666666667,104.45333357453346L56.65155555555556,132.64381479024885L57.256,110.64289699792862L57.51288888888889,120.56639920473098L57.664,79.39100797772407L57.70933333333333,114.90108396410942L58.01155555555556,130.4316678225994L58.25333333333334,113.18508293032646L58.525333333333336,92.8606585741043L58.70666666666666,102.14203964471817L58.96355555555556,99.71586998105049L59.05422222222222,86.4303627192974L59.41688888888889,105.31307141780853L59.61333333333334,108.93033083081245L59.65866666666666,123.19322343468666L59.67377777777778,117.42020722031593L59.794666666666664,105.65285797715187L59.855111111111114,105.26121686697006L59.96088888888889,106.82908098697662L60.70133333333334,122.09368150234222L60.76177777777778,105.92792581319809L60.867555555555555,105.28065900802612L61.00355555555555,86.74529622793197L61.336,108.84113039374351L61.39644444444444,120.86986105442047L61.51733333333333,80.21658282279968L61.638222222222225,97.79188047647476L61.69866666666667,109.77338503599167L62.00088888888889,117.28681768774986L62.07644444444444,116.68903152942657L62.09155555555555,106.24019365310669L62.16711111111111,129.66707180738447L62.34844444444444,97.71396602988243L62.39377777777778,138.5063232064247L62.46933333333333,135.58359648585318L62.75644444444444,113.47200702428817L62.99822222222222,116.3728248655796L63.14933333333333,105.59503551125526L63.330666666666666,106.58728759288788L63.723555555555556,80.45389364957809L63.85955555555556,127.52730901837349L64.38844444444445,81.07186462283134L64.40355555555556,119.22479863762855L64.43377777777778,100.7509451687336L65.09866666666667,130.64147319197653L65.21955555555556,114.2185534119606L65.35555555555555,131.3378625690937L65.38577777777778,130.37739958167074L65.46133333333333,121.82080190181732L65.83911111111111,94.26371540427208L65.85422222222222,108.44947602152824L66.00533333333334,107.93693821430206L66.03555555555556,82.56865750551223L66.11111111111111,98.573173391819L66.32266666666666,107.83142547607422L66.41333333333334,113.24984143972397L66.54933333333334,118.85842170119285L66.776,142.659408557415L66.83644444444445,78.16106047034263L66.86666666666666,107.04281191825866L67.24444444444444,66.86227213144302L67.57688888888889,104.13847963809967L67.66755555555555,107.55627806782722L67.92444444444445,127.44899671077728L68.01511111111111,102.59866471886635L68.408,101.05899568200111L60.77688888888889,46.17519747018814L60.882666666666665,91.74813311100006L60.958222222222226,84.41051523685455L61.154666666666664,55.81213365793228L61.260444444444445,79.98643349409103L61.71377777777778,13.481871294975276L61.92533333333333,-10.879980218410477L62.45422222222222,56.50648068189621L62.48444444444444,35.99730293750763L63.708444444444446,80.79218159914016L63.84444444444444,58.238608348369596L63.980444444444444,30.94133834838867L64.07111111111111,32.16844778060913L64.43377777777778,111.46772916913032L65.14399999999999,123.05536459684372L65.26488888888889,55.66420893669128L65.80888888888889,86.35202388763427L66.05066666666667,75.37336777448654L66.096,81.03628258705139L66.21688888888889,103.35339378118515L66.26222222222222,99.56835638284683L66.62488888888889,54.973124372959134L66.68533333333333,87.93751325011253L67.13866666666667,88.38453661203384L67.48622222222222,88.96764169931411L67.71288888888888,111.38084958791733L67.98488888888889,68.63120194077491L68.07555555555555,25.581646668910977L68.31733333333332,88.90619869828224L68.58933333333333,69.7499075114727L68.60444444444445,40.07057737112045L69.11822222222223,96.51042323112488L69.26933333333334,97.70492132306099L69.31466666666667,93.14042116999626L69.32977777777778,83.74681677222252L69.36,112.33057032823562L69.37511111111111,107.53938223719597L69.75288888888888,106.13216112852096L70.25155555555556,117.23262901902199L70.59911111111111,124.00085474848747L70.85600000000001,84.1776074051857L71.32444444444445,87.3404167175293L71.73244444444445,97.99521397352218L71.808,81.10334869027137L72.14044444444446,83.8418392419815L72.42755555555556,102.79951821565628L72.45777777777778,71.77829574346542L72.65422222222223,103.80743275880813L72.896,-22.27548856735228L73.33422222222222,71.41011517047882L73.37955555555556,122.4357889175415L73.75733333333334,107.87849243283272L74.15022222222223,115.49458648562431L74.4071111111111,109.61124341487884L74.70933333333333,132.32182587981222L74.98133333333334,102.3104409456253L75.01155555555556,26.07281934022903L75.04177777777778,87.25336472988128L75.13244444444445,70.8316252708435L75.55555555555556,126.74868177175522L75.7671111111111,122.94725250005722L76.61333333333333,68.12859739661216L76.67377777777779,78.1016200363636L76.83999999999999,76.61295678019523L77.30844444444445,89.68011792302131L77.42933333333333,93.4391219496727L77.62577777777778,93.1731386065483L77.70133333333334,115.75190972089767L77.94311111111111,95.82634102106094L78.01866666666666,97.05891441106796L78.04888888888888,79.22459598183632L78.19999999999999,128.04960768222807L78.26044444444445,71.77181060910225L78.69866666666667,71.01717438101768L78.88,63.70836164355278L79.66577777777778,68.5392695248127L79.832,105.9734676361084L80.08888888888889,88.63847802877426L80.512,112.78159882426262L80.90488888888889,58.13959400653839L81.08622222222222,116.96347604990005L81.25244444444445,113.95644258260727L81.29777777777777,139.72566108703612L82.15911111111112,82.32170518040657L82.23466666666667,140.34806157946585L82.24977777777778,110.82259755134582L82.40088888888889,81.29568796157837L83.504,126.60606186389923L83.67022222222222,83.16338013410568L83.68533333333333,120.52998166084289L83.71555555555555,120.59092070460319L83.79111111111112,92.50859137177467L83.80622222222222,33.269090461730954L84.184,95.58885778784752L84.25955555555555,109.54635228514671L84.3048888888889,128.39225884079931L84.42577777777778,127.56562303304672L84.728,123.60705192685127L84.77333333333333,110.58503474593162L84.78844444444445,115.09382109642029L85.01511111111111,109.55381880998611L85.34755555555556,100.342593896389L85.544,86.40545662045479L85.57422222222222,107.97293137311935L85.77066666666667,65.05903344154358L86.32977777777778,99.80158250331878L86.69244444444445,124.91448949575424L86.79822222222222,135.88947202563284L86.88888888888889,105.73288108706474L87.25155555555556,132.25457410812376L87.29688888888889,105.11948551535606L88.18844444444446,78.64256511926651L88.44533333333334,112.08970527648925L88.46044444444445,116.96636717319488L88.76266666666666,87.171896058321L88.808,105.84838013648987L88.944,99.64380409121513L89.488,105.48720191717148L89.53333333333333,100.5295885682106L89.7751111111111,123.22270493507385L89.80533333333334,85.52030872106552L90.24355555555556,117.77261923551559L90.66666666666666,90.35951863527298L90.78755555555556,93.16370930075645L90.848,98.99087439775467L90.96888888888888,103.00966839790344L91.13511111111112,129.0776672542095L91.528,102.45831261873245L91.60355555555556,147.21451919078825L91.84533333333333,105.2150915145874L92.08711111111111,125.2244364798069L92.20800000000001,80.97357969284057L92.34400000000001,110.00862698554992L92.48,128.27748920321463L92.64622222222222,79.4823701262474L92.66133333333333,145.43984692096708L92.84266666666666,106.23857568502426L92.8728888888889,153.52650444507597L93.44711111111111,109.25426926016807L93.62844444444444,131.4391712427139L93.91555555555556,113.58143206238746L94.26311111111112,125.85966135859489L94.56533333333334,120.09836878180504L95.16977777777778,120.15392343997955L95.29066666666667,140.79838718771933L95.42666666666666,114.3675390958786L95.472,137.65378664731978L95.50222222222222,142.03135843873022L96.27288888888889,117.76141281723976L96.31822222222222,121.73416103720665L96.62044444444444,81.27363319993019L96.65066666666667,116.70149784088134L96.66577777777778,125.63374261856079L96.77155555555557,99.17171548604965L97.04355555555556,121.10922749638557L97.46666666666667,94.11585699319839L97.7688888888889,112.90127541422844L97.79911111111112,55.01582812070846L97.88977777777777,119.7997740983963L98.35822222222222,128.4558237671852L98.61511111111112,136.98345716595648L98.88711111111111,110.51215987205505L99.008,131.84371631145476L99.47644444444444,130.0324143052101L99.88444444444444,100.12514959573745L100.232,116.9687676012516L100.67022222222222,133.7655043184757L100.83644444444445,144.80940963625906L101.07822222222222,90.0304345369339L101.28977777777777,103.50146438479423L101.60711111111111,127.8341924726963L102.21155555555555,116.73757057189941L102.544,94.67811416387558L102.61955555555555,120.6579072356224L103.17866666666667,122.18033562898636L103.34488888888887,132.73326720595358L103.43555555555555,88.71432359814644L103.6471111111111,126.75976883172989L103.67733333333334,123.23582108616829L104.16088888888888,75.69285016059875L104.52355555555556,66.52907680273056L104.70488888888889,109.21504016518593L104.73511111111111,102.17715750932693L104.82577777777777,98.49360119104385L105.0071111111111,82.4114758849144L105.38488888888888,125.54280485510826L105.808,127.37260739803314L105.83822222222223,108.10869480967521L105.89866666666666,155.15693883895872L106.12533333333333,139.59180738329886L106.74488888888888,118.64499579668045L106.79022222222223,111.80528770685196L107.33422222222222,129.2374084472656L107.5911111111111,149.22024260759352L107.63644444444444,141.23985375761984L107.78755555555556,116.0404915690422L108.05955555555556,120.35439233779907L108.07466666666666,115.45082177519798L108.33155555555555,104.01656176447868L108.37688888888889,130.0817755937576L108.89066666666666,113.81272192597389L108.92088888888888,129.29724674224852L109.02666666666666,110.5531926035881L109.43466666666666,126.09312619566917L109.57066666666667,125.53811009526252L109.888,115.96414204239845L110.25066666666666,143.36582403182982L110.32622222222221,118.97372182011604L110.41688888888889,136.31576682925223L110.82488888888889,134.610481518507L111.1271111111111,137.66625295877455L111.20266666666666,131.5720568180084L111.42933333333333,141.09297673702238L111.50488888888889,119.10658087134361L112.15466666666667,1.3194991230964621L112.21511111111111,127.6854189813137L112.53244444444444,79.86654471158981L112.56266666666667,152.0344461083412L112.80444444444444,144.9943354308605L112.83466666666666,109.59222565889358L112.92533333333334,127.94202606678009L112.95555555555556,122.60863299965858L113.16711111111111,130.66316987872122L113.22755555555557,128.18912427425383L113.57511111111111,139.02014743089674L113.71111111111111,115.9486254632473L113.99822222222222,136.2604243636131L114.16444444444444,112.46120135784149L114.19466666666666,65.16890938878059L114.28533333333334,113.1036407828331L114.48177777777778,127.15977828502655L114.75377777777777,96.81047673821449L115.34311111111111,138.3306145250797L115.69066666666667,137.64689038991926L115.75111111111111,117.26143415570259L115.76622222222223,149.7349421262741L115.872,150.46130369901655L116.1288888888889,124.3082288980484L116.29511111111111,130.64883362054823L116.46133333333333,87.73573141098022L116.56711111111112,114.85237251520157L116.65777777777777,107.61488299369812L117.02044444444445,124.12468235492706L117.85155555555555,145.45606638789175L117.912,123.7643794298172L118.456,137.20478724241255L118.4711111111111,158.31694986224173L118.53155555555556,139.9878647506237L118.83377777777778,154.35400228500365L118.8488888888889,145.41891943216322L118.864,149.79003261327742L118.98488888888889,127.63552721142769L119.64977777777777,135.3108495056629L119.75555555555556,143.4005440354347L119.80088888888889,117.69398863911628L120.088,126.47279168963432L120.904,116.09299595952034L121.04,141.80769424438475L121.07022222222223,120.43299641013145L121.13066666666667,145.40670509934424L121.22133333333333,165.8751949250698L121.26666666666668,104.7421939253807L121.37244444444445,115.85337753891945L121.49333333333333,141.51775966882704L121.53866666666667,123.36349468231201L121.72,111.89424942731857L122.128,121.50094817876816L122.18844444444446,130.1871689736843L122.35466666666666,129.90401129722594L122.52088888888889,130.23235272169111L123.54844444444446,122.06471722126007L123.76,160.75553278923033L123.88088888888889,69.1585667014122L124.09244444444444,138.29118649959563L124.10755555555556,150.77099870443342L124.50044444444444,107.98171083927154L124.712,149.67804800271986L125.08977777777778,143.09452261328695L125.528,126.52167554497719L125.57333333333334,145.1356423974037L125.96622222222221,153.36383234262465L126.23822222222222,155.09138460755347L126.29866666666666,113.50305344462394L126.67644444444444,148.92842482328413L127.06933333333333,141.83002750873564L127.46222222222221,128.7647230505943L127.68888888888888,105.92418591976165L127.80977777777778,132.72065501213072L127.82488888888889,113.8408506989479L128.15733333333333,130.79065780639647L128.2177777777778,139.4356602013111L128.42933333333335,146.78894053697584L129.03377777777777,128.30972920656203L129.1697777777778,154.93303592801092L129.35111111111112,144.42664082646368L129.63822222222223,147.52855088114737L129.68355555555556,146.95349584817885L129.81955555555555,163.34060813784598L130.37866666666667,123.38226045966148L130.62044444444444,125.9641263961792L130.78666666666666,147.1624789714813L131.05866666666668,125.06472181081772L131.20977777777776,125.34248183965683L131.2248888888889,116.29403512477874L131.4968888888889,148.88012449741362L131.512,139.04611449241636L131.85955555555554,135.99946733117102L131.92,145.7798589348793L132.14666666666668,134.6856374621391L132.6,134.97748177051542L132.736,104.10482059717178L132.78133333333335,129.50134943723677L132.88711111111112,127.75420914888382L133.03822222222223,124.0716209590435L133.08355555555556,76.84876899719238L133.15911111111112,81.87637935876846L133.31022222222222,129.91245921254156L133.6728888888889,132.4070874929428L133.8088888888889,137.47858192324637L134.096,118.73446147441864L134.35288888888888,143.9208666563034L135.28977777777777,128.46099596023558L135.81866666666667,138.226825851202L136.07555555555558,142.12400700449942L136.22666666666666,110.68138341903686L136.3022222222222,139.06889866590498L136.46844444444443,131.1897919654846L136.55911111111112,131.5894035577774L136.6648888888889,115.4705954670906L136.9368888888889,113.31783588528633L137.01244444444444,122.42581586837768L137.088,150.02126942873L137.36,113.80396898388862L137.52622222222223,145.27594144940375L137.57155555555556,124.15762524604797L137.8737777777778,149.47956840991972L137.99466666666666,127.39682387113571L138.14577777777777,108.36737077236175L138.3271111111111,114.63992800116539L138.67466666666667,153.29253565073012L138.75022222222222,143.7847186207771L139.672,130.88422145247458L139.6871111111111,138.91324217915533L140.17066666666665,145.78874449729918L140.82044444444443,140.4680431962013L140.94133333333332,130.74922721385954L141.06222222222223,156.21275584697722L141.07733333333334,125.26415627002716L141.5911111111111,129.38886086940764L141.75733333333332,148.743392932415L141.93866666666668,154.74504660367964L142.19555555555556,153.35354100465773L143.10222222222222,89.65900476574897L143.4648888888889,133.87179951667784L143.91822222222223,131.79386432766913L143.97866666666667,123.45293383598327L144.19022222222222,124.1360611796379L144.4471111111111,151.849785554409L144.5377777777778,148.4987879872322L145.17244444444444,160.9862391233444L145.41422222222224,120.93858491182327L145.58044444444445,154.70640103816984L145.71644444444445,117.84614394903183L145.83733333333333,160.04482041597365L146.13955555555555,131.77838753461836L146.1697777777778,129.66252292990683L146.21511111111113,140.1160688281059L146.24533333333332,153.3209561884403L146.336,112.91301231384277L146.63822222222223,106.67513530254364L146.68355555555556,158.23011006712912L146.7591111111111,144.37787632942198L146.86488888888888,116.86202149391174L146.8951111111111,144.55114479660986L147.66577777777778,133.3624313354492L147.95288888888888,139.78524740338324L148.2551111111111,141.9882966160774L148.27022222222223,126.12165282964706L148.30044444444445,143.60015090107916L148.512,122.81136970520019L148.57244444444447,86.21637980937957L148.70844444444444,97.84315149784088L148.72355555555555,149.10959746241568L148.7991111111111,152.1911502957344L148.87466666666666,160.35802986025809L149.10133333333334,126.3872648358345L149.56977777777777,119.72420703172683L149.75111111111113,125.72294305562973L149.8568888888889,112.30482872128486L149.93244444444443,145.80449979305266L150.144,152.83292661905287L150.28,132.99780498743056L150.6728888888889,134.45475872159003L150.77866666666668,136.50863658189772L150.7937777777778,139.43936030864714L150.9297777777778,130.9381846666336L151.50400000000002,118.97885422706604L151.62488888888888,133.2525819122791L151.64,142.17331524491308L151.70044444444446,128.58023490309714L152.184,101.83936025500297L152.89422222222223,136.09409193992613L152.95466666666667,150.52408616542814L153.22666666666666,148.5062545120716L153.3022222222222,139.26454018354414L153.5742222222222,156.28948997259138L153.61955555555556,141.24529119133948L153.9368888888889,155.51806401014326L154.10311111111113,158.51782988309859L154.4657777777778,134.13237195014952L154.57155555555556,108.29259942770004L154.82844444444444,139.30077205896376L154.85866666666666,140.4811726093292L154.904,150.52405964136122L155.22133333333332,141.09999235272406L155.25155555555557,167.87260304689406L155.3271111111111,140.2450288414955L155.49333333333334,107.35299761891365L155.67466666666667,126.46004687547683L155.93155555555555,131.3128371119499L156.20355555555557,132.96380113363264L156.2942222222222,141.49115602970122L156.36977777777778,141.89983885288237L156.44533333333334,140.61061005592344L156.71733333333336,134.90068133473395L156.73244444444444,131.08832414746283L157.14044444444446,143.57417057752608L157.26133333333334,146.6050757050514L157.41244444444445,153.47874786257742L157.57866666666666,128.63475512266157L157.89600000000002,143.01627661585806L158.168,159.27529092431067L158.65155555555555,122.96081956028938L158.66666666666669,135.97054283618925L158.75733333333332,151.6351925909519L159.54311111111113,129.15690790414808L159.57333333333332,137.81961511373518L159.72444444444443,147.44347493648527L159.8302222222222,174.27496905922888L160.23822222222222,152.8093467235565L160.55555555555557,81.85592930316925L160.70666666666665,136.20758842229841L160.94844444444445,72.87529136538505L160.97866666666667,149.95472054481505L161.08444444444444,100.10342638492584L161.56799999999998,148.0216067612171L161.64355555555557,142.1939774930477L161.80977777777778,138.81884302496908L161.88533333333334,143.4946116387844L162.5351111111111,138.81661500334738L162.58044444444445,144.54285602569578L162.88266666666667,127.52424548864364L162.97333333333333,145.48801462650297L162.98844444444444,159.88606061339377L163.38133333333334,158.47674410343168L163.48711111111112,146.51198949217795L164.424,141.7125126302242L164.4391111111111,138.6001388311386L164.5751111111111,149.17794998288153L164.6808888888889,110.8458193719387L164.72622222222222,134.26999207139013L164.832,154.6914149403572L164.87733333333333,132.53562312126158L165.20977777777776,134.96558572649954L165.376,167.8491557717323L165.54222222222222,146.89347188472746L165.69333333333333,120.55752690434456L165.72355555555555,145.85867519974707L165.73866666666666,133.72888784408568L165.78400000000002,145.2740449786186L166.14666666666668,121.00112866163253L166.2373333333333,121.71194713115692L166.58488888888888,134.59404985904692L166.736,123.09037636518478L166.8568888888889,130.92078487873076L167.03822222222223,137.08797525167464L167.77866666666668,142.4517781615257L167.7937777777778,144.45484917163847L167.91466666666665,112.9397220492363L168.05066666666667,148.72266437411307L168.57955555555554,145.79936738610266L169.00266666666664,155.0955090999603L169.048,134.93805374503134L169.65244444444443,126.3983784198761L170.0151111111111,141.9782439947128L170.16622222222222,93.68698935508728L170.99733333333336,161.40315766930578L171.19377777777777,134.6786748945713L171.36,156.95785667300223L171.632,132.00678627490996L172.176,151.3906274318695L172.25155555555557,140.90088944435118L172.26666666666665,101.22441302537918L172.2968888888889,163.32006524801253L172.50844444444445,132.2531815946102L172.68977777777775,135.41093807220457L173.03733333333332,124.87389441132545L173.128,164.1182937800884L173.35466666666667,156.73822413682936L173.44533333333334,137.7934225976467L173.59644444444444,150.3084455013275L173.9591111111111,149.06530227065085L174.21599999999998,160.9744889616966L174.54844444444444,137.5878478169441L175.0168888888889,129.69978924393652L175.12266666666667,131.26087646484373L175.168,147.98538814783095L175.2888888888889,138.35077281594275L175.53066666666666,134.76194720268248L175.5911111111111,142.32684980630873L175.69688888888888,156.79924275279043L175.72711111111113,155.40503169894217L175.77244444444446,131.47050942778586L176.30133333333333,141.52038555145262L176.4071111111111,117.77653153538704L176.6488888888889,121.4409507393837L176.95111111111112,153.3923324525356L177.37422222222222,150.39317663311957L177.40444444444447,151.64996649622915L177.41955555555555,152.76727955341337L177.4497777777778,146.70428897738455L177.54044444444443,145.45239280462263L177.67644444444446,150.5058110833168L177.76711111111112,111.96764152050018L177.84266666666667,146.08326773643492L178.2808888888889,177.89120066463946L178.49244444444446,153.35218827724455L178.65866666666668,145.18322657346724L178.80977777777778,126.14544491767883L178.87022222222222,158.24842493534086L178.88533333333334,156.49156357645987L179.30844444444446,128.28585754632948L179.44444444444443,179.66121132969857L179.56533333333334,155.67434381246565L179.792,135.57550664544104L179.8071111111111,140.72108279466627L179.98844444444444,124.52235769033432L180.45688888888887,158.06031625270842L180.5928888888889,147.7981282353401L180.78933333333333,161.47225286364554L180.84977777777777,160.09333293437956L180.92533333333333,130.8570342838764L181.06133333333332,140.37487741112707L181.1822222222222,149.8392612814903L181.28799999999998,114.53538339138031L181.30311111111112,154.648313331604L181.56,147.8284187197685L182.01333333333335,143.74580781459807L182.16444444444446,147.1851305246353L182.72355555555555,131.7118121266365L182.85955555555554,57.16223518848419L182.87466666666666,141.75960611104964L182.96533333333332,129.32843904495238L183.20711111111112,147.01534997224806L183.3128888888889,164.89405642747877L183.736,147.4376926898956L183.75111111111113,168.9991464793682L183.8871111111111,154.49887673854826L183.96266666666668,154.46093406081198L184.1288888888889,152.8398891866207L184.2648888888889,147.4869213581085L184.47644444444444,169.76307939291L184.64266666666666,152.7017651081085L185.05066666666667,137.78919200897215L185.096,147.84081872105597L185.23200000000003,155.71455429792402L185.6097777777778,157.63648818731306L185.6702222222222,155.71840028762816L185.80622222222223,151.79547752737997L186.01777777777778,114.73666127324104L186.10844444444444,154.96034245491026L186.13866666666667,139.45702533721922L186.65244444444443,141.6728856742382L186.74311111111112,140.65596621036528L186.83377777777778,140.80976601243017L186.864,140.0518408000469L186.87911111111111,134.98770679831503L187.03022222222222,118.67956991791725L187.10577777777777,145.83073209524153L187.31733333333332,143.28695471882818L187.45333333333335,149.40803300142287L187.69511111111112,153.7775016903877L188.07288888888888,143.32447301149367L188.36,161.28296386003493L188.49599999999998,143.85254065990446L188.76799999999997,139.00256197452543L189.176,136.40804405808447L189.52355555555556,148.9503734886646L189.55377777777778,158.38117789030073L189.5688888888889,120.70655237436294L190.33955555555556,165.71370314359663L190.46044444444445,152.41049106717108L190.50577777777775,138.50035529136656L190.64177777777778,165.40563936829565L191.21599999999998,148.0706232368946L191.44266666666667,137.13122274279593L191.68444444444447,159.79660819768904L191.98666666666665,152.99459080696104L192.09244444444442,157.8707487463951L192.19822222222223,158.79036467075346L192.27377777777778,142.07959245443342L192.7422222222222,90.87111483812332L192.8631111111111,175.12168358564375L192.89333333333332,109.57189496159553L193.4071111111111,124.2920226931572L193.45244444444444,113.31707994937896L193.664,139.80109553337095L193.70933333333332,146.07016484737395L193.87555555555554,141.21177803277968L193.96622222222223,122.62432198524475L194.38933333333333,156.0473252415657L194.43466666666666,131.72036613821982L194.4497777777778,133.97906284332274L194.54044444444443,142.81456108689306L194.57066666666668,143.7202784001827L194.82755555555556,147.14895169734953L194.94844444444445,143.8366394817829L195.08444444444444,118.36510058045387L195.3111111111111,168.01393653750418L195.5528888888889,136.87157865166662L196.14222222222224,153.76637484431265L196.32355555555554,110.57735602855682L196.3537777777778,135.95242689847944L196.5048888888889,137.73590515851973L196.67111111111112,151.22998442053793L196.7768888888889,146.1244330883026L196.88266666666667,132.3358836352825L196.9128888888889,167.94883321523665L197.1697777777778,146.78923230171202L197.45688888888887,156.1874916732311L198.00088888888888,145.23778657913206L198.15200000000002,126.2815929532051L198.4088888888889,148.82084320783613L198.49955555555556,137.1144595324993L198.63555555555556,135.70095221996306L199.08888888888887,133.88026069402693L199.43644444444445,149.88406043052672L199.45155555555556,143.71071647405623L199.72355555555555,158.3264454782009L200.14666666666668,149.40026144981383L200.22222222222223,183.40415503382684L200.41866666666667,165.62608088850973L200.43377777777778,153.04636578559874L200.63022222222222,129.97666071653364L200.75111111111113,157.00908790826796L200.82666666666665,154.78642414808272L200.8568888888889,149.39613695740698L200.872,126.88345055580139L201.17422222222223,161.49867083430289L201.24977777777778,150.14899607300757L201.46133333333333,145.015395539999L201.61244444444444,139.2103780388832L201.68800000000002,148.7961493015289L201.7937777777778,162.181095290184L202.08088888888886,141.91383029818533L202.26222222222222,166.89276422858237L202.7911111111111,149.87944524288176L202.92711111111112,159.39072366356848L203.65244444444443,143.94887607097624L203.728,132.8192184448242L203.95466666666667,128.10731078982352L204.12088888888889,142.49844725728033L204.18133333333336,149.32564924955366L204.4231111111111,116.03220279812813L204.61955555555556,165.38557391166685L204.92177777777778,84.9725734770298L205.0577777777778,154.80403612852095L205.17866666666666,134.03981621861456L205.4808888888889,142.41510863900183L205.72266666666667,146.90783466696737L206.0248888888889,171.79572473764418L206.0702222222222,163.60730763077734L206.31199999999998,134.21683784127234L206.55377777777778,157.23710204958914L206.72,146.41499097943304L207.62666666666667,126.44793863892555L207.7626666666667,124.8682845711708L207.77777777777777,150.09886558651922L208.23111111111112,157.95144822001456L208.51822222222222,129.54938452243803L208.56355555555555,149.75759367942808L208.89600000000002,133.77928357124327L209.5608888888889,154.13883905410765L209.87822222222223,135.62302451133726L209.9688888888889,147.34997760057448L209.99911111111112,139.71283670067785L210.31644444444444,150.98467658758162L210.6488888888889,150.7230564534664L211.0871111111111,152.2877244234085L211.78222222222223,155.04238139390944L212.024,139.8278317928314L212.20533333333333,133.080281573534L213.0968888888889,170.5375821471214L213.33866666666665,133.5727804481983L213.8071111111111,156.42439137697218L213.928,148.8569557249546L214.24533333333332,150.0122777700424L214.6231111111111,170.74350174069403L214.69866666666667,169.49945669174193L214.8951111111111,154.0123457789421L215.09155555555557,163.0420665025711L215.1822222222222,141.10096048116682L215.81688888888888,127.10568245053291L215.832,148.9889527440071L215.90755555555558,131.41495476961134L216.13422222222223,146.67983378767966L217.01066666666665,139.0715775966644L217.26755555555556,149.60917826294897L217.67555555555555,171.16181280016897L217.69066666666666,150.30259694457052L217.81155555555557,130.51495339274405L217.99288888888887,160.59510197043417L218.03822222222223,117.71357666254043L218.17422222222223,149.98341958522795L218.4008888888889,144.94416515827177L218.46133333333333,161.76530401706694L218.49155555555555,155.2511125385761L218.7182222222222,161.2284701645374L218.99022222222223,154.64401643276213L219.26222222222222,138.81138976216315L219.48888888888888,156.42311822175978L219.64,145.49560050964354L219.68533333333332,160.82470755577086L219.86666666666667,145.4085219979286L219.88177777777778,154.64280958771704L219.9422222222222,162.21558983922003L220.36533333333335,159.5131587564945L220.7582222222222,142.1111295700073L221.25688888888888,146.32967631816862L221.48355555555554,153.36054335832594L222.02755555555555,146.53160403966902L222.10311111111113,154.1111081421375L222.82844444444444,142.59486224055289L222.88888888888889,144.6974648118019L223.19111111111113,162.50527243614195L223.91644444444444,162.4443201303482L223.93155555555555,143.81694536209105L224.32444444444445,112.31427128911018L224.36977777777778,132.6278340399265L225.00444444444443,134.2014538824558L225.24622222222223,154.96005069017409L225.7751111111111,153.43359063863753L226.0017777777778,160.04615988135336L226.12266666666667,158.31298451423643L226.19822222222223,143.4740820109844L226.21333333333334,171.5964096367359L226.71200000000002,125.69763909578323L226.9688888888889,138.88691704273222L227.0142222222222,168.8653723478317L227.05955555555553,152.78200041055678L227.256,141.9128489077091L227.664,161.93768392801283L227.93599999999998,152.23323072791098L228.04177777777778,160.0249804139137L228.14755555555556,126.06666843891144L228.38933333333333,157.99130063056944L228.48,125.9892844736576L228.7973333333333,159.9366154849529L228.99377777777778,163.3180228948593L229.16,136.2233039319515L229.52266666666665,163.86211107969282L229.87022222222222,155.68935643434523L229.91555555555556,155.78480328917502L230.112,159.19351722598074L230.17244444444444,157.06872727274893L230.2631111111111,158.72579182982443L230.58044444444445,154.05928011536597L230.9128888888889,146.11208613514899L230.928,147.34107877612112L231.21511111111113,151.46435107588766L231.26044444444443,153.42591192126272L231.38133333333334,152.7945197701454L231.39644444444446,163.4543698608875L231.41155555555554,170.9878679692745L231.50222222222223,176.3443170815706L231.80444444444444,139.751177239418L231.8346666666667,157.55670379400252L232.10666666666668,167.7574355483055L232.60533333333333,161.34947295784949L232.86222222222224,161.7099748134613L233.0737777777778,158.36587350368498L233.16444444444446,160.5314309477806L233.67822222222225,148.8463328361511L234.29777777777778,163.11939741969107L234.72088888888888,173.10297663807867L235.1288888888889,143.63262962102888L235.20444444444442,129.1570405244827L235.2951111111111,144.80642567873L235.64266666666666,138.56585647463797L236.02044444444442,159.65837802290915L236.20177777777778,146.2349853992462L236.2168888888889,140.45862715244292L236.30755555555555,156.36465917825697L236.44355555555558,114.66559003591537L236.70044444444446,151.06439467072485L236.88177777777778,165.02025793790816L236.97244444444445,166.91341321468352L237.27466666666666,143.9083738207817L237.3351111111111,122.07215722203254L237.6977777777778,151.60027365684508L237.728,162.5178846299648L237.864,153.3247756540775L238.61955555555556,156.80696125626562L238.98222222222222,154.80225901603697L238.99733333333336,147.11709629297255L239.3297777777778,146.16538624763487L239.85866666666666,164.17687218189238L239.8737777777778,173.65501541197298L240.176,158.0228112220764" style="fill: none;" fill="none"></path></g></g></g></g></g></g><g transform="translate(58, 178)" clip-path="url(#clip_1)"><clipPath id="clip_1"><rect width="271" height="21"></rect></clipPath><g><g><line x1="0" y1="0" x2="0" y2="5" style="visibility: inherit;" fill="rgb(0, 0, 0)" stroke="rgb(204, 204, 204)" stroke-width="1px"></line><line x1="30.22222222222222" y1="0" x2="30.22222222222222" y2="5" style="visibility: inherit;" fill="rgb(0, 0, 0)" stroke="rgb(204, 204, 204)" stroke-width="1px"></line><line x1="60.44444444444444" y1="0" x2="60.44444444444444" y2="5" style="visibility: inherit;" fill="rgb(0, 0, 0)" stroke="rgb(204, 204, 204)" stroke-width="1px"></line><line x1="90.66666666666666" y1="0" x2="90.66666666666666" y2="5" style="visibility: inherit;" fill="rgb(0, 0, 0)" stroke="rgb(204, 204, 204)" stroke-width="1px"></line><line x1="120.88888888888889" y1="0" x2="120.88888888888889" y2="5" style="visibility: inherit;" fill="rgb(0, 0, 0)" stroke="rgb(204, 204, 204)" stroke-width="1px"></line><line x1="151.11111111111111" y1="0" x2="151.11111111111111" y2="5" style="visibility: inherit;" fill="rgb(0, 0, 0)" stroke="rgb(204, 204, 204)" stroke-width="1px"></line><line x1="181.33333333333331" y1="0" x2="181.33333333333331" y2="5" style="visibility: inherit;" fill="rgb(0, 0, 0)" stroke="rgb(204, 204, 204)" stroke-width="1px"></line><line x1="211.55555555555557" y1="0" x2="211.55555555555557" y2="5" style="visibility: inherit;" fill="rgb(0, 0, 0)" stroke="rgb(204, 204, 204)" stroke-width="1px"></line><line x1="241.77777777777777" y1="0" x2="241.77777777777777" y2="5" style="visibility: inherit;" fill="rgb(0, 0, 0)" stroke="rgb(204, 204, 204)" stroke-width="1px"></line><line x1="272" y1="0" x2="272" y2="5" style="visibility: inherit;" fill="rgb(0, 0, 0)" stroke="rgb(204, 204, 204)" stroke-width="1px"></line></g><g transform="translate(0, 8)"><text x="0" y="0" dx="0em" dy="0.95em" style="text-anchor: middle; visibility: hidden; font-family: Roboto, sans-serif; font-size: 12px; font-weight: 200;" fill="rgb(50, 49, 63)" stroke="none" stroke-width="1px">-2k</text><text x="30.22222222222222" y="0" dx="0em" dy="0.95em" style="text-anchor: middle; visibility: inherit; font-family: Roboto, sans-serif; font-size: 12px; font-weight: 200;" fill="rgb(50, 49, 63)" stroke="none" stroke-width="1px">0</text><text x="60.44444444444444" y="0" dx="0em" dy="0.95em" style="text-anchor: middle; visibility: inherit; font-family: Roboto, sans-serif; font-size: 12px; font-weight: 200;" fill="rgb(50, 49, 63)" stroke="none" stroke-width="1px">2k</text><text x="90.66666666666666" y="0" dx="0em" dy="0.95em" style="text-anchor: middle; visibility: inherit; font-family: Roboto, sans-serif; font-size: 12px; font-weight: 200;" fill="rgb(50, 49, 63)" stroke="none" stroke-width="1px">4k</text><text x="120.88888888888889" y="0" dx="0em" dy="0.95em" style="text-anchor: middle; visibility: inherit; font-family: Roboto, sans-serif; font-size: 12px; font-weight: 200;" fill="rgb(50, 49, 63)" stroke="none" stroke-width="1px">6k</text><text x="151.11111111111111" y="0" dx="0em" dy="0.95em" style="text-anchor: middle; visibility: inherit; font-family: Roboto, sans-serif; font-size: 12px; font-weight: 200;" fill="rgb(50, 49, 63)" stroke="none" stroke-width="1px">8k</text><text x="181.33333333333331" y="0" dx="0em" dy="0.95em" style="text-anchor: middle; visibility: inherit; font-family: Roboto, sans-serif; font-size: 12px; font-weight: 200;" fill="rgb(50, 49, 63)" stroke="none" stroke-width="1px">10k</text><text x="211.55555555555557" y="0" dx="0em" dy="0.95em" style="text-anchor: middle; visibility: inherit; font-family: Roboto, sans-serif; font-size: 12px; font-weight: 200;" fill="rgb(50, 49, 63)" stroke="none" stroke-width="1px">12k</text><text x="241.77777777777777" y="0" dx="0em" dy="0.95em" style="text-anchor: middle; visibility: inherit; font-family: Roboto, sans-serif; font-size: 12px; font-weight: 200;" fill="rgb(50, 49, 63)" stroke="none" stroke-width="1px">14k</text><text x="272" y="0" dx="0em" dy="0.95em" style="text-anchor: middle; visibility: hidden; font-family: Roboto, sans-serif; font-size: 12px; font-weight: 200;" fill="rgb(50, 49, 63)" stroke="none" stroke-width="1px">16k</text></g><line x1="0" y1="0" x2="272" y2="0" fill="rgb(0, 0, 0)" stroke="rgb(204, 204, 204)" stroke-width="1px"></line></g></g></g></g></svg>