<svg viewBox="0 0 330.0000305175781 200.00001525878906" xmlns="http://www.w3.org/2000/svg"><g><g><g><g><g><line x1="82" y1="178" x2="77" y2="178" style="visibility: inherit;" fill="rgb(0, 0, 0)" stroke="rgb(204, 204, 204)" stroke-width="1px"></line><line x1="82" y1="160.2" x2="77" y2="160.2" style="visibility: inherit;" fill="rgb(0, 0, 0)" stroke="rgb(204, 204, 204)" stroke-width="1px"></line><line x1="82" y1="142.39999999999998" x2="77" y2="142.39999999999998" style="visibility: inherit;" fill="rgb(0, 0, 0)" stroke="rgb(204, 204, 204)" stroke-width="1px"></line><line x1="82" y1="124.59999999999995" x2="77" y2="124.59999999999995" style="visibility: inherit;" fill="rgb(0, 0, 0)" stroke="rgb(204, 204, 204)" stroke-width="1px"></line><line x1="82" y1="106.80000000000007" x2="77" y2="106.80000000000007" style="visibility: inherit;" fill="rgb(0, 0, 0)" stroke="rgb(204, 204, 204)" stroke-width="1px"></line><line x1="82" y1="89.00000000000006" x2="77" y2="89.00000000000006" style="visibility: inherit;" fill="rgb(0, 0, 0)" stroke="rgb(204, 204, 204)" stroke-width="1px"></line><line x1="82" y1="71.20000000000005" x2="77" y2="71.20000000000005" style="visibility: inherit;" fill="rgb(0, 0, 0)" stroke="rgb(204, 204, 204)" stroke-width="1px"></line><line x1="82" y1="53.40000000000003" x2="77" y2="53.40000000000003" style="visibility: inherit;" fill="rgb(0, 0, 0)" stroke="rgb(204, 204, 204)" stroke-width="1px"></line><line x1="82" y1="35.60000000000003" x2="77" y2="35.60000000000003" style="visibility: inherit;" fill="rgb(0, 0, 0)" stroke="rgb(204, 204, 204)" stroke-width="1px"></line><line x1="82" y1="17.800000000000015" x2="77" y2="17.800000000000015" style="visibility: inherit;" fill="rgb(0, 0, 0)" stroke="rgb(204, 204, 204)" stroke-width="1px"></line><line x1="82" y1="0" x2="77" y2="0" style="visibility: inherit;" fill="rgb(0, 0, 0)" stroke="rgb(204, 204, 204)" stroke-width="1px"></line></g><g transform="translate(72, 0)"><text x="0" y="178" dx="0em" dy="0.3em" style="text-anchor: end; visibility: hidden; font-family: Roboto, sans-serif; font-size: 12px; font-weight: 200;" fill="rgb(50, 49, 63)" stroke="none" stroke-width="1px">0.0275</text><text x="0" y="160.2" dx="0em" dy="0.3em" style="text-anchor: end; visibility: inherit; font-family: Roboto, sans-serif; font-size: 12px; font-weight: 200;" fill="rgb(50, 49, 63)" stroke="none" stroke-width="1px">0.028</text><text x="0" y="142.39999999999998" dx="0em" dy="0.3em" style="text-anchor: end; visibility: hidden; font-family: Roboto, sans-serif; font-size: 12px; font-weight: 200;" fill="rgb(50, 49, 63)" stroke="none" stroke-width="1px">0.0285</text><text x="0" y="124.59999999999995" dx="0em" dy="0.3em" style="text-anchor: end; visibility: inherit; font-family: Roboto, sans-serif; font-size: 12px; font-weight: 200;" fill="rgb(50, 49, 63)" stroke="none" stroke-width="1px">0.029</text><text x="0" y="106.80000000000007" dx="0em" dy="0.3em" style="text-anchor: end; visibility: hidden; font-family: Roboto, sans-serif; font-size: 12px; font-weight: 200;" fill="rgb(50, 49, 63)" stroke="none" stroke-width="1px">0.0295</text><text x="0" y="89.00000000000006" dx="0em" dy="0.3em" style="text-anchor: end; visibility: inherit; font-family: Roboto, sans-serif; font-size: 12px; font-weight: 200;" fill="rgb(50, 49, 63)" stroke="none" stroke-width="1px">0.03</text><text x="0" y="71.20000000000005" dx="0em" dy="0.3em" style="text-anchor: end; visibility: hidden; font-family: Roboto, sans-serif; font-size: 12px; font-weight: 200;" fill="rgb(50, 49, 63)" stroke="none" stroke-width="1px">0.0305</text><text x="0" y="53.40000000000003" dx="0em" dy="0.3em" style="text-anchor: end; visibility: inherit; font-family: Roboto, sans-serif; font-size: 12px; font-weight: 200;" fill="rgb(50, 49, 63)" stroke="none" stroke-width="1px">0.031</text><text x="0" y="35.60000000000003" dx="0em" dy="0.3em" style="text-anchor: end; visibility: hidden; font-family: Roboto, sans-serif; font-size: 12px; font-weight: 200;" fill="rgb(50, 49, 63)" stroke="none" stroke-width="1px">0.0315</text><text x="0" y="17.800000000000015" dx="0em" dy="0.3em" style="text-anchor: end; visibility: inherit; font-family: Roboto, sans-serif; font-size: 12px; font-weight: 200;" fill="rgb(50, 49, 63)" stroke="none" stroke-width="1px">0.032</text><text x="0" y="0" dx="0em" dy="0.3em" style="text-anchor: end; visibility: hidden; font-family: Roboto, sans-serif; font-size: 12px; font-weight: 200;" fill="rgb(50, 49, 63)" stroke="none" stroke-width="1px">0.0325</text></g><line x1="82" y1="0" x2="82" y2="178" fill="rgb(0, 0, 0)" stroke="rgb(204, 204, 204)" stroke-width="1px"></line></g></g><g transform="translate(82, 0)" clip-path="url(#clip_0)"><clipPath id="clip_0"><rect width="247" height="177"></rect></clipPath><g><g><g><line x1="0" y1="0" x2="0" y2="178" fill="rgb(0, 0, 0)" stroke="rgb(60, 60, 60)" stroke-width="1px" opacity="0.25"></line><line x1="27.555555555555554" y1="0" x2="27.555555555555554" y2="178" fill="rgb(0, 0, 0)" stroke="rgb(60, 60, 60)" stroke-width="1px" opacity="0.25"></line><line x1="55.11111111111111" y1="0" x2="55.11111111111111" y2="178" fill="rgb(0, 0, 0)" stroke="rgb(60, 60, 60)" stroke-width="1px" opacity="0.25"></line><line x1="82.66666666666666" y1="0" x2="82.66666666666666" y2="178" fill="rgb(0, 0, 0)" stroke="rgb(60, 60, 60)" stroke-width="1px" opacity="0.25"></line><line x1="110.22222222222221" y1="0" x2="110.22222222222221" y2="178" fill="rgb(0, 0, 0)" stroke="rgb(60, 60, 60)" stroke-width="1px" opacity="0.25"></line><line x1="137.77777777777777" y1="0" x2="137.77777777777777" y2="178" fill="rgb(0, 0, 0)" stroke="rgb(60, 60, 60)" stroke-width="1px" opacity="0.25"></line><line x1="165.33333333333331" y1="0" x2="165.33333333333331" y2="178" fill="rgb(0, 0, 0)" stroke="rgb(60, 60, 60)" stroke-width="1px" opacity="0.25"></line><line x1="192.88888888888889" y1="0" x2="192.88888888888889" y2="178" fill="rgb(0, 0, 0)" stroke="rgb(60, 60, 60)" stroke-width="1px" opacity="0.25"></line><line x1="220.44444444444443" y1="0" x2="220.44444444444443" y2="178" fill="rgb(0, 0, 0)" stroke="rgb(60, 60, 60)" stroke-width="1px" opacity="0.25"></line><line x1="248" y1="0" x2="248" y2="178" fill="rgb(0, 0, 0)" stroke="rgb(60, 60, 60)" stroke-width="1px" opacity="0.25"></line></g><g><line x1="0" y1="178" x2="248" y2="178" fill="rgb(0, 0, 0)" stroke="rgb(60, 60, 60)" stroke-width="1px" opacity="0.25"></line><line x1="0" y1="160.2" x2="248" y2="160.2" fill="rgb(0, 0, 0)" stroke="rgb(60, 60, 60)" stroke-width="1px" opacity="0.25"></line><line x1="0" y1="142.39999999999998" x2="248" y2="142.39999999999998" fill="rgb(0, 0, 0)" stroke="rgb(60, 60, 60)" stroke-width="1px" opacity="0.25"></line><line x1="0" y1="124.59999999999995" x2="248" y2="124.59999999999995" fill="rgb(0, 0, 0)" stroke="rgb(60, 60, 60)" stroke-width="1px" opacity="0.25"></line><line x1="0" y1="106.80000000000007" x2="248" y2="106.80000000000007" fill="rgb(0, 0, 0)" stroke="rgb(60, 60, 60)" stroke-width="1px" opacity="0.25"></line><line x1="0" y1="89.00000000000006" x2="248" y2="89.00000000000006" fill="rgb(0, 0, 0)" stroke="rgb(60, 60, 60)" stroke-width="1px" opacity="0.25"></line><line x1="0" y1="71.20000000000005" x2="248" y2="71.20000000000005" fill="rgb(0, 0, 0)" stroke="rgb(60, 60, 60)" stroke-width="1px" opacity="0.25"></line><line x1="0" y1="53.40000000000003" x2="248" y2="53.40000000000003" fill="rgb(0, 0, 0)" stroke="rgb(60, 60, 60)" stroke-width="1px" opacity="0.25"></line><line x1="0" y1="35.60000000000003" x2="248" y2="35.60000000000003" fill="rgb(0, 0, 0)" stroke="rgb(60, 60, 60)" stroke-width="1px" opacity="0.25"></line><line x1="0" y1="17.800000000000015" x2="248" y2="17.800000000000015" fill="rgb(0, 0, 0)" stroke="rgb(60, 60, 60)" stroke-width="1px" opacity="0.25"></line><line x1="0" y1="0" x2="248" y2="0" fill="rgb(0, 0, 0)" stroke="rgb(60, 60, 60)" stroke-width="1px" opacity="0.25"></line></g></g></g><g><g><line x1="0" y1="1156.9999999999998" x2="248" y2="1156.9999999999998" fill="rgb(0, 0, 0)" stroke="rgb(153, 153, 153)" stroke-width="1.5px"></line></g></g><g><g><line x1="27.555555555555554" y1="0" x2="27.555555555555554" y2="178" fill="rgb(0, 0, 0)" stroke="rgb(153, 153, 153)" stroke-width="1.5px"></line></g></g><g><g><g><g><g><path stroke="rgb(255, 112, 67)" stroke-width="2px" d="M27.803555555555555,148.01003855466843L28.134222222222224,148.01484604179848L28.175555555555555,148.01618239466035L28.327111111111112,148.01314562482438L28.533777777777775,148.0021057234798L28.575111111111113,147.99408271517427L28.850666666666665,147.9786547692844L27.927555555555553,147.99287950397175L27.96888888888889,148.00174217234658L28.09288888888889,148.00809636621833L28.947111111111113,147.98270797547693L29.016000000000002,147.96519480912562L29.305333333333333,147.94772638709313L29.374222222222222,147.93611851755765L29.470666666666666,147.92746128146052L29.553333333333335,147.92020008462111L30.035555555555558,147.9157650920841L30.06311111111111,147.91339637142684L30.173333333333336,147.9124262296209L30.57288888888889,147.91025268016992L30.848444444444443,147.91104404861522L31.592444444444443,147.9193170368884L31.60622222222222,147.9246255757551L31.881777777777778,147.93510482521103L32.12977777777778,147.93709543204744L32.17111111111111,147.93762668972306L32.184888888888885,147.9377067269017L32.32266666666666,147.93738341199145L33.17688888888889,147.91154064100562L33.54888888888889,147.89271947540945L33.76933333333333,147.8814798268554L33.86577777777778,147.87433817764185L33.879555555555555,147.87013276068183L34.33422222222222,147.8688561418157L34.52711111111111,147.86456246955768L34.63733333333333,147.8597847686727L34.70622222222222,147.8565468112339L34.733777777777775,147.85497537372174L34.89911111111111,147.85519957016558L35.03688888888889,147.8565276710447L35.629333333333335,147.828731587403L35.739555555555555,147.8092158620697L35.849777777777774,147.79663113266704L36.208,147.7787889570592L36.332,147.75951637807873L36.38711111111111,147.74487603892837L36.41466666666667,147.73097269052195L36.60755555555556,147.67555046268527L36.635111111111115,147.6363822590598L36.73155555555555,147.59614465065496L36.84177777777778,147.56064978496832L36.92444444444444,147.53120997701043L36.93822222222222,147.51269732209406L37.31022222222222,147.47400469954232L38.316,147.39259532317772L38.77066666666666,147.30481236711296L38.812,147.24731521329377L39.04622222222222,147.18149199796378L39.17022222222222,147.12051357455644L39.184,147.0815924026228L39.266666666666666,147.0528022657428L39.28044444444444,147.03417545620175L39.349333333333334,147.01676621474957L39.59733333333334,146.9964271929153L39.638666666666666,146.98252623953147L39.76266666666667,146.9695970039231L40.43777777777778,146.94682684067857L40.47911111111111,146.93064495637404L40.56177777777778,146.91443742939455L40.644444444444446,146.90113216417203L40.71333333333333,146.89272461996774L40.85111111111111,146.88187132278858L40.93377777777778,146.87114201783996L41.00266666666667,146.8629007983201L41.71911111111111,146.77623541641202L41.788000000000004,146.71277779035546L41.80177777777777,146.67250171716685L42.04977777777778,146.6194248403053L42.22888888888889,146.54797828226927L42.408,146.47627868670017L42.931555555555555,146.363049724208L43.16577777777778,146.27442357451122L43.44133333333333,146.17456552690507L43.620444444444445,146.0797980744019L43.92355555555555,145.9823027323708L43.96488888888889,145.92141836112893L44.157777777777774,145.8592389656672L44.21288888888889,145.8164408465367L44.87422222222222,145.73959704996L44.95688888888889,145.68152841783072L44.97066666666667,145.64355739865601L45.27377777777778,145.57507381983936L45.43911111111111,145.51958110420904L45.576888888888895,145.46480098062162L45.99022222222222,145.35175065215475L46.141777777777776,145.24087189445518L46.252,145.13227746969227L46.334666666666664,145.0323742871627L46.775555555555556,144.77199000389245L46.830666666666666,144.59759044808672L47.17511111111111,144.4234046111258L47.39555555555556,144.30011406956632L47.409333333333336,144.22354038607193L47.616,144.15672173530527L47.67111111111111,144.1035276557842L47.90533333333333,143.9845592204237L48.38755555555556,143.72273535868555L48.49777777777778,143.52224766815317L48.77333333333333,143.33293943169494L48.96622222222222,143.17272518016557L49.09022222222222,143.00524688921962L49.17288888888889,142.85327670075054L49.241777777777784,142.7240590756986L49.33822222222222,142.59480657016354L49.46222222222222,142.44564008614492L49.65511111111111,142.27746981323418L49.68266666666667,142.16983053648866L49.724000000000004,142.095088252809L49.848000000000006,142.02878491245883L50.330222222222226,141.90484204389563L50.66088888888889,141.74689898787688L50.95022222222222,141.5899607413932L51.19822222222223,141.44752399169948L51.322222222222216,141.3313205483171L51.501333333333335,141.2138286377556L51.54266666666667,141.1336787310581L51.65288888888889,141.07195541664012L52.204,140.97134323957L52.43822222222222,140.8558058741238L52.576,140.7648663403121L52.617333333333335,140.70115181693592L52.89288888888889,140.59366876416894L53.11333333333334,140.4684122951834L53.361333333333334,140.28567679834418L53.526666666666664,140.10476533241305L53.76088888888889,139.9382633666231L53.843555555555554,139.82706293463914L54.17422222222222,139.69546480775L54.35333333333334,139.56414742350645L54.394666666666666,139.47549004006424L54.40844444444444,139.4175478020193L54.51866666666666,139.34055614464765L54.57377777777778,139.278711950739L54.67022222222222,139.22051880118838L55.345333333333336,139.0321081361628L55.400444444444446,138.90203328618156L55.49688888888889,138.78881746345007L55.620888888888885,138.6757705319717L55.924,138.52364888839693L55.97911111111111,138.42481654317842L56.08933333333333,138.33732205290593L56.199555555555555,138.2140591481865L56.254666666666665,138.08206674692278L56.53022222222222,137.76404860757143L56.59911111111111,137.52851814712486L56.61288888888889,137.3790304582441L56.68177777777778,137.25602361685787L56.84711111111111,137.13309694008092L56.888444444444445,137.0478294889692L56.95733333333333,136.9764311552383L57.21911111111111,136.8507574939929L57.43955555555555,136.70100633765466L57.57733333333333,136.57797403612852L57.742666666666665,136.46436855482526L58.10088888888889,136.27772225908922L58.22488888888889,136.0874089120179L58.70711111111111,135.82296206464474L58.72088888888889,135.660713207186L58.748444444444445,135.55766121832167L59.35466666666667,135.2810381310441L59.46488888888889,135.07559646709313L59.58888888888889,134.90397809471827L59.61644444444445,134.789071241177L59.68533333333333,134.69840391824053L60.029777777777774,134.5114362379874L60.04355555555556,134.38914996033705L60.181333333333335,134.23204171446451L60.20888888888889,134.12361291520287L60.27777777777778,134.02030793114005L60.47066666666667,133.86838182975956L60.553333333333335,133.75796969634354L60.67733333333334,133.64633973778524L60.884,133.49886121953273L60.93911111111111,133.39456576469385L60.96666666666666,133.32204196669372L61.31111111111112,133.04620338569703L61.614222222222224,132.6916366880574L61.696888888888886,132.4358215847872L61.931111111111115,132.1606931519069L62.01377777777777,131.95317758509862L62.372,131.6855974280198L55.41422222222222,134.25586116810788L55.510666666666665,135.53858751356694L55.57955555555556,136.11488939702573L55.75866666666666,136.03376566994237L55.85511111111111,135.72481076495671L56.26844444444445,134.19517158613695L56.46133333333333,132.43076638666454L56.943555555555555,129.99435713462626L56.97111111111111,128.45156013114803L58.08711111111111,125.1951325961564L58.21111111111111,123.01770471505021L58.33511111111111,121.4659003673296L58.41777777777777,120.34668255199796L58.748444444444445,118.94327328413615L59.396,116.98517455941376L59.50622222222222,115.66140921286303L60.00222222222222,114.13837474209997L60.22266666666667,112.86088257803287L60.263999999999996,112.02396588190653L60.37422222222222,111.34561648764772L60.41555555555556,110.87863593577474L60.74622222222222,110.10013995933004L60.80133333333333,109.53707829932848L61.214666666666666,108.64722242248335L61.531555555555556,107.82684897358585L61.73822222222222,106.81899704322444L61.986222222222224,105.64919063916929L62.068888888888885,104.75325672311266L62.28933333333333,103.76179001619036L62.53733333333333,102.80939209395416L62.55111111111111,102.2227285261975L63.019555555555556,101.19418101048633L63.15733333333333,100.37058916411497L63.198666666666675,99.8221923394304L63.21244444444444,99.47673584719311L63.24,99.23768611967454L63.25377777777777,99.0790314687485L63.59822222222222,98.64780527431925L64.05288888888889,98.06444150256615L64.36977777777777,97.4988090994805L64.604,96.9744242908269L65.03111111111112,96.38426139841742L65.40311111111112,95.74391593271662L65.47200000000001,95.23814885457863L65.77511111111112,94.39067999506291L66.0368888888889,93.51621960392181L66.06444444444445,92.95963491672632L66.24355555555556,92.43083830877755L66.464,91.84805443408858L66.86355555555556,90.84833227707605L66.90488888888889,90.16338325210612L67.24933333333334,89.22092458408001L67.60755555555556,88.25337105274758L67.84177777777778,87.46213174629541L68.11733333333333,86.71373936395842L68.36533333333334,86.10707140482062L68.39288888888889,85.71702399561765L68.42044444444444,85.45251939719887L68.50311111111111,85.2057832600234L68.88888888888889,84.7784166289304L69.08177777777777,84.39038423019258L69.85333333333334,83.37231978963386L69.90844444444446,82.6347756575976L70.05999999999999,81.8671702141424L70.4871111111111,80.85750571458696L70.59733333333334,80.16693609696125L70.77644444444445,79.59920564735836L70.84533333333334,79.21047924426134L71.06577777777778,78.8579646734413L71.13466666666666,78.61865870881172L71.16222222222223,78.46412069039397L71.3,78.27975722811732L71.35511111111111,78.13009572423778L71.75466666666667,77.74726093052195L71.92,77.42217950963001L72.63644444444444,76.73219156827341L72.788,76.21419793704632L73.02222222222223,75.71354248726065L73.408,74.92961547734556L73.76622222222223,74.25279593445197L73.93155555555555,73.77028837190471L74.08311111111111,73.45394147864813L74.12444444444444,73.26514125723746L74.90977777777778,73.06075095450352L74.97866666666667,72.91222928354429L74.99244444444444,72.8176523231821L75.13022222222223,72.70555041929214L76.136,71.28298902928907L76.28755555555556,70.23046864521551L76.30133333333333,69.58381117255722L76.32888888888888,69.16425304932139L76.39777777777779,68.8437677939102L76.41155555555555,68.63962038274786L76.756,68.19608462998977L76.82488888888888,67.87991226404723L76.86622222222223,67.66477226430075L76.97644444444444,67.49701617487611L77.252,67.2758106370469L77.29333333333332,67.12940089581612L77.30711111111111,67.03715205596805L77.51377777777778,66.8922575021202L77.81688888888888,66.08482101585959L77.996,65.1338007868916L78.02355555555556,64.51411912569932L78.20266666666667,63.910198019322955L78.71244444444444,63.26072233103338L79.04311111111112,62.667438180343055L79.13955555555556,62.27873699134326L79.22222222222221,62.03098108926854L79.55288888888889,61.81766187286051L79.59422222222221,61.669591624353394L80.40711111111112,61.0498967998112L80.64133333333334,60.49050170379201L80.65511111111111,60.13788924334841L80.93066666666667,59.58426740001688L80.97200000000001,59.21005364794161L81.096,58.88407084070828L81.592,58.50941718055722L81.63333333333333,58.26611118575282L81.85377777777778,57.937695056559775L81.88133333333333,57.70791468045844L82.2808888888889,57.28828129185281L82.66666666666666,56.81579449780605L82.77688888888889,56.485567015456105L82.83200000000001,56.267988384990176L82.94222222222221,56.10094409062167L83.09377777777777,55.958411627255124L83.452,55.76711417033797L83.52088888888889,55.61143558498934L83.74133333333333,55.42588382528257L83.96177777777778,55.30314742068062L84.072,55.2029815109944L84.19600000000001,55.099117254756436L84.32000000000001,55.00491677256979L84.47155555555555,54.92656717617852L84.48533333333333,54.87687848758424L84.65066666666667,54.80958676786267L84.67822222222222,54.76531269819167L85.20177777777778,54.57315850657609L85.36711111111111,54.364023842825766L85.6288888888889,54.2098174800958L85.94577777777778,54.08103526297128L86.22133333333333,53.97835587658226L86.77244444444445,53.858050484643805L86.88266666666667,53.74968842219496L87.00666666666666,53.65692701072203L87.048,53.59766289073646L87.07555555555555,53.55998249339112L87.77822222222223,53.366108354849004L87.81955555555555,53.23127007300998L88.09511111111111,53.05360730776401L88.12266666666666,52.937036599452554L88.13644444444444,52.86202807768306L88.2328888888889,52.778828308249345L88.4808888888889,52.62769260720303L88.86666666666667,52.4396943850273L89.14222222222223,52.115286445793764L89.16977777777778,51.905814728842586L89.25244444444444,51.730319500986646L89.67955555555555,51.53887219490051L89.91377777777778,51.352017493614284L90.16177777777779,51.21250531170887L90.27199999999999,51.107658321226374L90.69911111111111,51.00042841110517L91.07111111111111,50.86105387970145L91.388,50.72164904811585L91.78755555555556,50.58662903153068L91.93911111111112,50.510338305492205L92.15955555555556,50.42509605828464L92.35244444444444,50.3480897447082L92.64177777777778,50.244143062866456L93.19288888888889,50.14617975594797L93.496,50.074033642066716L93.56488888888889,49.99650340333769L94.07466666666667,49.781239146323095L94.22622222222222,49.64640444179241L94.30888888888889,49.54460265433716L94.50177777777778,49.42394852755027L94.52933333333333,49.34975241492716L94.97022222222222,49.033124344769284L95.30088888888889,48.65169678760967L95.46622222222221,48.373903349837185L95.49377777777778,48.19797038781676L95.57644444444445,48.05318151562231L95.74177777777777,47.85514582782273L96.08622222222222,47.69961510651874L96.47200000000001,47.628789082488936L96.49955555555556,47.58700961787789L96.55466666666666,47.5622071797805L96.76133333333333,47.56435416788802L97.32622222222221,47.393792931145214L97.36755555555555,47.25928249591937L97.86355555555556,46.8035524525306L98.09777777777778,46.5431377433576L98.1391111111111,46.39288335697881L98.27688888888889,46.314719603401585L98.5248888888889,46.25543461200118L98.53866666666666,46.21946575615718L98.77288888888889,46.177673103653824L98.81422222222221,46.150926495935494L99.28266666666666,45.989871457425316L99.31022222222222,45.88384891462784L99.40666666666667,45.781059342100946L99.77866666666667,45.652995859071446L99.90266666666666,45.546583434632296L100.19200000000001,45.3579667691535L100.52266666666667,45.10392745042721L100.59155555555554,44.92503284040013L100.67422222222223,44.80156944169357L101.04622222222223,44.73892327531436L101.32177777777778,44.71244915952833L101.39066666666666,44.69521196264354L101.59733333333334,44.681633708347825L101.66622222222222,44.68277017919425L102.25866666666667,44.70896821408391L102.31377777777777,44.70818906539029L102.6031111111111,44.68777547784655L102.63066666666667,44.67133652274615L102.85111111111111,44.58577346268192L102.87866666666666,44.528759476321305L102.96133333333334,44.478318355546854L102.9888888888889,44.442059243957196L103.18177777777778,44.40428324058061L103.2368888888889,44.38283774563317L103.55377777777778,44.36604488675995L103.67777777777778,44.36848853102443L103.93955555555556,44.38693012041527L104.0911111111111,44.407331545607335L104.11866666666667,44.41325967279431L104.20133333333334,44.391512589260195L104.38044444444444,44.303242085340386L104.62844444444444,44.13092148182569L105.16577777777778,43.754065989719706L105.48266666666667,43.478777074376985L105.53777777777778,43.29784842941781L105.55155555555555,43.184888247332765L105.648,43.08952710847963L105.88222222222223,43.02207213533458L106.03377777777779,42.98801797564355L106.18533333333333,42.94137970170691L106.28177777777779,42.8784910652716L106.36444444444444,42.81656793437467L106.69511111111112,42.70371436883252L107.45288888888888,42.415375040824614L107.508,42.225342993054106L108.004,41.98989658600881L108.01777777777777,41.847090345899936L108.07288888888888,41.75854200260677L108.34844444444444,41.71268059096841L108.36222222222223,41.6781613903172L108.376,41.650076179321296L108.48622222222222,41.58033606327526L109.09244444444444,41.3532479102431L109.18888888888888,41.212432878912594L109.23022222222222,41.1296944485313L109.492,41.10116454757502L110.236,40.98187590120605L110.36,40.900117471685256L110.38755555555556,40.84851610354807L110.44266666666667,40.81230351741454L110.52533333333334,40.79078815826984L110.56666666666668,40.78185755282192L110.66311111111112,40.77718881529296L110.77333333333333,40.76685473776883L110.81466666666667,40.75816102896349L110.98,40.76137945696256L111.352,40.70400270011755L111.40711111111112,40.663794399420865L111.55866666666665,40.625611663532496L111.71022222222221,40.613842130108075L112.64711111111112,40.63956415677261L112.84,40.66486432566768L112.95022222222222,40.68709982880673L113.14311111111111,40.66601289182156L113.15688888888889,40.649594312126986L113.51511111111111,40.63900049043626L113.708,40.64776291556905L114.05244444444445,40.68447791402196L114.452,40.701573436645674L114.49333333333334,40.71405877184164L114.85155555555555,40.700649008222186L115.09955555555555,40.566136398951784L115.15466666666666,40.4637851947789L115.4991111111111,40.35500248874703L115.85733333333333,40.123533061775454L116.21555555555555,39.83404775359218L116.42222222222222,39.645980524408685L116.53244444444445,39.51096606694926L116.54622222222223,39.42571354176558L116.84933333333333,39.30851710001202L116.90444444444445,39.24148821925873L117.09733333333334,39.22742362079485L117.64844444444445,39.29516198192527L117.77244444444445,39.35315173837234L117.93777777777778,39.397547304467665L118.19955555555555,39.459196412465815L118.24088888888889,39.50255165332653L118.3648888888889,39.54410790106122L118.87466666666667,39.56235758483684L119.09511111111111,39.4885364772099L119.24666666666667,39.430398249698754L119.49466666666666,39.41042183880395L119.63244444444445,39.39700369265315L119.64622222222222,39.388104034821026L119.89422222222223,39.382286806916966L119.908,39.38022876978872L120.22488888888888,39.4205306363163L120.28,39.453040313247314L120.48666666666666,39.501086015417314L120.89999999999999,39.31305266554008L121.024,39.1790664502076L121.06533333333334,39.090240067725794L121.16177777777779,39.01286038546887L121.29955555555556,38.95614123814789L121.34088888888888,38.924549963912405L121.40977777777778,38.90580739190632L121.54755555555556,38.89408441549792L121.87822222222222,38.901108385123294L122.00222222222223,38.89837346136431L122.264,38.83243816888256L122.49822222222222,38.748740946030175L123.35244444444444,38.581869765982276L123.83466666666668,38.44954684070653L124.06888888888889,38.3520636718983L124.20666666666668,38.23835066327531L124.27555555555554,38.14778959375072L124.4271111111111,38.05170407069595L124.50977777777778,37.97484933240934L124.60622222222223,37.92030183615512L124.85422222222223,37.762485838784094L124.9231111111111,37.62960158398962L124.992,37.52366525299073L125.24,37.408222379486205L125.39155555555556,37.33853227031239L125.43288888888888,37.30202301819341L125.70844444444445,37.32584495830064L125.81866666666666,37.32623951129628L125.95644444444443,37.29130533035112L126.12177777777778,37.20451208767608L126.43866666666668,37.03498757372678L126.50755555555554,36.899056819023926L127.34799999999998,36.576023260916784L127.36177777777777,36.382097029784745L127.80266666666667,36.30473166948534L128.3951111111111,36.27571224120863L128.50533333333334,36.24843363134619L128.61555555555557,36.239811492971036L128.62933333333334,36.234266873008934L129.09777777777776,36.17863464105543L129.24933333333334,36.15087840407134L129.41466666666668,36.13841546445501L129.6488888888889,36.13406754058245L130.47555555555556,36.24317815614713L130.80622222222223,36.33819233604039L131.21955555555556,36.45795678632131L131.27466666666666,36.53390016279616L131.46755555555555,36.59914704633951L131.70177777777778,36.659673574407115L131.78444444444446,36.7126466052766L132.3631111111111,36.8219867954873L132.58355555555556,36.892683530463174L132.7351111111111,36.9085244563898L132.8591111111111,36.858880342702854L132.96933333333334,36.78050178388411L133.24488888888888,36.66801325142159L133.27244444444446,36.59988355433798L133.31377777777777,36.555027126049055L133.34133333333332,36.5245059959739L133.424,36.499244012394534L133.69955555555555,36.47384853241389L133.7408888888889,36.459672207102514L133.80977777777778,36.453129192868L133.90622222222223,36.45371247570458L133.93377777777778,36.456237418894396L134.63644444444444,36.190920271542446L134.89822222222222,35.954014467040814L135.17377777777776,35.75277536323075L135.18755555555555,35.62922034985073L135.21511111111113,35.55073739484694L135.40800000000002,35.500836070750644L135.46311111111112,35.47185014270212L135.5871111111111,35.44013558973349L135.6008888888889,35.41940931766905L135.66977777777777,35.39928157502226L135.73866666666666,35.36370460613841L135.94533333333334,35.27419157281097L136.37244444444445,35.10966620120165L136.5377777777778,34.904854710535666L136.63422222222223,34.720538077137704L136.7031111111111,34.56952541910526L136.89600000000002,34.39642797614894L137.02,34.288007370863745L137.37822222222223,34.23165490164434L137.47466666666668,34.199116575324936L137.48844444444447,34.180866734745756L137.61244444444444,34.15983768496679L138.13600000000002,34.06446516629324L138.2462222222222,34.01583545277274L138.26,33.987506394802026L138.31511111111112,33.97597291780622L138.756,34.02109305091574L139.40355555555556,34.017185020612935L139.45866666666666,34.0122408438725L139.70666666666668,34.039299581587436L139.77555555555554,34.06699322112823L140.02355555555553,34.11114138632079L140.0648888888889,34.142086328679554L140.35422222222223,34.15540152884384L140.50577777777778,34.178191078286694L140.83644444444445,34.22342844759311L140.9328888888889,34.22786626788907L141.1671111111111,34.21371270163603L141.19466666666668,34.201666336916325L141.236,34.18722397188095L141.52533333333332,34.15229972660408L141.5528888888889,34.13367929732715L141.62177777777777,34.13120693371246L141.77333333333334,34.16500052455383L141.93866666666668,34.19578020956101L142.17288888888888,34.19302876702538L142.4208888888889,34.19111266083485L142.50355555555555,34.17983080355501L142.57244444444444,34.167385538865155L142.64133333333334,34.16193420913749L142.88933333333335,34.165771861236905L142.90311111111112,34.17014332971671L143.27511111111113,34.293238522778104L143.38533333333334,34.40645735393183L143.52311111111112,34.51666801530243L143.67466666666667,34.62655912255123L143.964,34.710052719204924L144.21200000000002,34.768583530479326L144.6528888888889,34.780732175286914L144.66666666666669,34.78627077375432L144.74933333333334,34.78184890529275L145.4657777777778,34.334970711354984L145.49333333333334,34.037614273240926L145.6311111111111,33.754218153483045L145.72755555555554,33.54333341856384L146.09955555555555,33.28656940901033L146.38888888888889,33.00758264806128L146.52666666666667,32.79594844786079L146.7471111111111,32.6198984039291L146.77466666666666,32.51246474101932L146.8711111111111,32.444556414573114L147.31199999999998,32.30466445653964L147.3808888888889,32.18041269999334L147.53244444444445,32.03456495417099L147.60133333333332,31.920850528555967L148.19377777777777,31.784720261858673L148.2351111111111,31.69789643285689L148.51066666666668,31.64558994292038L148.59333333333333,31.627361986153247L148.6071111111111,31.618441041179267L148.96533333333335,31.63966558925388L149.0617777777778,31.66449529261647L149.916,31.649633111544016L149.92977777777776,31.644110883467054L150.05377777777778,31.632097652669398L150.15022222222223,31.582239014575443L150.19155555555557,31.538319124382685L150.28799999999998,31.489368685246593L150.32933333333332,31.458725266552733L150.63244444444445,31.47264552885103L150.784,31.501792554699342L150.93555555555557,31.540871360685262L151.07333333333332,31.56914602445699L151.1008888888889,31.58664130405857L151.11466666666666,31.59772200129201L151.156,31.606280152450733L151.48666666666668,31.616507663995435L151.56933333333333,31.618400320214334L151.88622222222222,31.56049334097043L152.024,31.506970114041238L152.13422222222223,31.468119064884675L152.29955555555557,31.434145760486953L152.97466666666668,31.43370787617597L152.98844444444447,31.433179904920117L153.09866666666665,31.434613710583513L153.22266666666667,31.450698808396687L153.7048888888889,31.590370843151028L154.09066666666666,31.75151824315717L154.132,31.854784651758273L154.6831111111111,31.986449744798L155.0137777777778,32.07266334682531L155.15155555555555,32.114312362610335L155.90933333333334,31.891779179536833L156.08844444444443,31.757304403283275L156.24,31.70070339029924L156.488,31.68398342600996L156.984,31.608277857729917L157.0528888888889,31.56911419655634L157.06666666666666,31.548056214009254L157.09422222222224,31.539506130787622L157.28711111111113,31.531988914831032L157.45244444444444,31.46297205449566L157.76933333333332,31.38124535656826L157.85199999999998,31.31024741039782L158.05866666666665,31.211788957751462L158.14133333333334,31.140618911645923L158.27911111111112,31.08783773855088L158.60977777777777,31.045081974719245L158.844,31.03157653907198L159.14711111111112,31.004110708828335L159.57422222222223,30.954051741955237L159.67066666666668,30.88900459349031L159.71200000000002,30.84005630338123L159.82222222222222,30.804215456986086L160.04266666666666,30.798943678107072L160.09777777777776,30.79036970112715L160.1942222222222,30.775623602712074L160.2217777777778,30.766669847395345L160.26311111111113,30.762570749417694L160.74533333333332,30.868913013157766L160.84177777777776,30.94974682236758L161.06222222222223,31.027582725912684L161.33777777777777,31.09953517975228L161.72355555555555,31.09140910662291L161.75111111111113,31.08308533404521L161.7648888888889,31.07724230035695L161.79244444444444,31.0743200096163L161.8751111111111,31.084025032083577L161.99911111111112,31.10868013308073L162.08177777777777,31.136682179007735L162.15066666666667,31.159106508752004L162.55022222222223,31.129857358849137L162.74311111111112,31.134163700053854L162.89466666666667,31.165870930260155L163.03244444444445,31.210623613301312L163.08755555555555,31.24723607975458L163.10133333333332,31.272015110720357L163.48711111111112,31.314255366366716L163.61111111111111,31.341297060037537L163.72133333333335,31.358848279586283L163.928,31.37590393177923L163.94177777777776,31.386190371228803L164.1071111111111,31.382972715207142L164.5342222222222,31.1978669154098L164.65822222222224,31.08568942472064L164.83733333333333,31.0243243212981L164.89244444444444,30.98782354804783L164.96133333333333,30.96762062438093L165.08533333333332,30.929982717798545L165.19555555555556,30.867189488390935L165.292,30.785695792186385L165.3057777777778,30.730115509598285L165.54,30.606161127429477L165.95333333333335,30.473329454625524L166.0911111111111,30.387105530479435L166.6008888888889,30.319881120907667L166.72488888888887,30.27387032484259L166.73866666666666,30.246476039738983L166.8213333333333,30.23104738321979L167.04177777777778,30.233619923156926L167.13822222222223,30.24752366230624L167.524,30.234964941058987L167.5377777777778,30.22562607175979L167.66177777777776,30.217529487889166L167.73066666666668,30.216384906936337L167.88222222222223,30.2194115277343L168.00622222222222,30.22186407781918L168.1991111111111,30.230337961538183L168.35066666666665,30.233565607085172L168.72266666666667,30.26876337433712L168.764,30.296460003285656L168.888,30.326446110385202L169.23244444444447,30.37913125418295L169.28755555555554,30.39063709773226L169.41155555555557,30.376109157786207L169.60444444444445,30.3249538867385L169.6871111111111,30.27182136349138L169.71466666666666,30.2359101913705L170.1831111111111,30.263963493248013L170.26577777777777,30.28063632997297L170.34844444444445,30.2933454868343L170.376,30.30388862831285L170.38977777777777,30.312336438553988L170.52755555555555,30.34186031440327L170.59644444444444,30.381271326657664L170.78933333333333,30.46077761895447L170.91333333333336,30.519833694976718L171.13377777777777,30.597864992071592L171.47822222222223,30.68765275874704L171.74,30.79414916753162L171.86399999999998,30.88923931550621L172.112,30.961146881768908L172.484,30.967422968500852L172.8008888888889,30.984609798403895L172.82844444444444,30.996937725432222L172.84222222222223,31.00560763686162L173.5448888888889,31.02640573507119L173.6551111111111,31.06710620120502L173.69644444444444,31.100862952442995L173.82044444444443,31.100905664188755L174.344,31.078014497413207L174.55066666666667,31.069213273795743L174.7711111111111,31.065577031774616L175.04666666666665,31.083394433023525L175.1431111111111,31.097108617402526L175.23955555555554,31.100297555314064L175.30844444444443,31.099982896439187L175.73555555555555,31.122339558000494L175.84577777777778,31.072626275655615L175.8733333333333,31.023329641125862L176.34177777777776,30.837896243156408L176.3831111111111,30.71496561492763L176.576,30.456705828459768L176.6173333333333,30.19814695116975L176.76888888888888,29.776763041002056L176.85155555555556,29.43857824753689L177.23733333333334,29.068671846097626L177.27866666666665,28.83702019673944L177.29244444444444,28.69474022282588L177.3751111111111,28.597542504628976L177.40266666666668,28.534343445396818L177.6368888888889,28.43398635631592L177.7471111111111,28.345444399391575L177.8711111111111,28.253541039392445L178.07777777777778,28.17834682879763L178.29822222222222,28.128562066661832L178.83555555555557,28.04771195275035L179.00088888888888,27.992730012073668L179.02844444444446,27.954701274951944L179.16622222222222,27.912627560091362L179.3177777777778,27.899478305693048L179.41422222222224,27.901614850351574L179.51066666666668,27.916530147546265L179.5382222222222,27.931632909389492L179.77244444444446,27.994379277951925L180.0342222222222,28.052503678755325L180.53022222222222,28.1938989720084L180.668,28.31083026893951L180.90222222222224,28.374411078500863L180.9848888888889,28.408634002332928L181.10888888888888,28.432191500261467L181.5222222222222,28.497676592585385L181.83911111111112,28.488799942443848L181.85288888888888,28.48230689341442L182.1008888888889,28.46376977905398L182.48666666666668,28.46824366178966L182.55555555555557,28.478407778303875L182.73466666666667,28.52471673367088L182.74844444444446,28.556056331859136L182.92755555555556,28.593426937619526L183.0377777777778,28.615212723469657L183.10666666666665,28.614597776446253L183.13422222222223,28.61046239072887L183.14800000000002,28.60654885968447L183.42355555555557,28.579055925612902L183.49244444444446,28.566167438271847L183.68533333333335,28.558434345867134L183.8231111111111,28.53856967600941L183.89200000000002,28.52659782596094L183.98844444444447,28.535859637425236L184.25022222222222,28.598390420059015L184.41555555555556,28.66492621885523L184.89777777777778,28.7262260960745L185.02177777777777,28.78321736140291L185.6831111111111,28.796776396532415L185.752,28.819765295088082L185.95866666666666,28.842364624440556L186.11022222222223,28.875074598371985L186.16533333333334,28.90732603858711L186.38577777777778,28.91734043115851L186.5648888888889,28.836031838384045L186.84044444444444,28.745020368174945L186.96444444444447,28.680705677554762L187.07466666666664,28.64535279934755L187.35022222222224,28.607696150929705L187.57066666666665,28.60563178967913L187.84622222222222,28.623808789917764L187.88755555555556,28.63938322583971L188.10799999999998,28.693182223559315L188.32844444444444,28.763709326696947L188.48,28.834300243921568L189.30666666666667,28.914318969289962L189.43066666666667,28.975804430508926L189.44444444444443,29.01556030646827L189.85777777777778,29.107792876576692L190.11955555555556,29.217612852105603L190.16088888888888,29.288756602674205L190.464,29.37138809780439L191.07022222222224,29.54478133928883L191.35955555555557,29.6272266937024L191.44222222222223,29.665500750108176L191.46977777777778,29.68883652088869L191.7591111111111,29.736523548351613L192.06222222222223,29.75887608503525L192.4617777777778,29.825547933430833L193.09555555555556,29.83006184092241L193.316,29.879611687607206L193.48133333333334,29.90981902882252L194.29422222222223,30.08284398439401L194.51466666666667,30.274718859928207L194.94177777777776,30.436950528107413L195.052,30.539382149864746L195.34133333333332,30.665400701814615L195.68577777777776,30.831458901198854L195.75466666666668,30.949289330739983L195.93377777777778,31.041631227075538L196.1128888888889,31.12759208997454L196.19555555555556,31.174500371935082L196.77422222222222,31.087796131325845L196.78799999999998,31.0348187205512L196.8568888888889,31.003562755424912L197.06355555555558,31.004596130275168L197.86266666666666,31.014022145404553L198.09688888888888,31.05463647468944L198.46888888888887,31.12404293789895L198.48266666666666,31.16807398184802L198.5928888888889,31.20600405326288L198.7582222222222,31.221335357372983L198.79955555555557,31.228942695823243L198.92355555555557,31.238175334672345L199.13022222222222,31.27469502815038L199.18533333333335,31.308754866888815L199.21288888888887,31.33311633203669L199.41955555555555,31.361207437123333L199.66755555555557,31.415567130807244L199.91555555555556,31.487332469799L200.12222222222223,31.56773755942448L200.26,31.643088209597224L200.30133333333333,31.69975699661254L200.46666666666667,31.75646287010961L200.48044444444446,31.79244917516012L200.53555555555553,31.821732937598835L200.92133333333334,31.928477108064115L201.27955555555553,32.08201581214832L201.73422222222223,32.240767490714504L201.94088888888888,32.319997961431625L202.4368888888889,32.38334458774915L202.50577777777778,32.41901844565034L203.1671111111111,32.315335260772436L203.22222222222223,32.25540641960129L203.4977777777778,32.27440698156741L204.15911111111112,32.33726400858151L204.17288888888888,32.37465993598699L204.53111111111113,32.43518605253453L204.57244444444444,32.48195220483149L205.1511111111111,32.46290515335083L205.37155555555557,32.42314921898647L205.85377777777776,32.456322402256724L206.06044444444444,32.506782037316576L206.17066666666668,32.567613543450044L206.23955555555554,32.60443073593342L206.25333333333333,32.62609666635245L206.708,32.65623077183765L206.94222222222223,32.69420428532236L206.98355555555554,32.722982832538236L207.02488888888888,32.74714621826848L207.204,32.76631248548527L207.576,32.682643893688336L207.82399999999998,32.68771889408193L207.92044444444443,32.696652237175535L208.01688888888887,32.69490379309583L208.23733333333334,32.69942478070218L208.32,32.72298528986903L208.60933333333332,32.77574063681196L208.78844444444445,32.84166293944488L208.94,32.90911963942988L209.27066666666667,33.0435949526033L209.58755555555555,33.13573853741889L209.6288888888889,33.19595816475634L209.808,33.25373357976975L209.8631111111111,33.30091818836636L209.94577777777778,33.352092699213635L210.2351111111111,33.4388692832015L210.5382222222222,33.55438080167893L210.552,33.62565049371789L210.81377777777777,33.72114215398831L210.8551111111111,33.786977899700496L210.96533333333335,33.857936890500895L210.9791111111111,33.90480918382305L210.99288888888887,33.93733555492586L211.07555555555555,33.978282823662866L211.3511111111111,34.041841563285054L211.37866666666667,34.08321274322298L211.6266666666667,34.15217149854906L212.08133333333333,34.285266975171666L212.31555555555556,34.417058384184436L212.50844444444445,34.53342606768867L212.5911111111111,34.62685309735459L213.05955555555556,34.74752194218348L213.62444444444444,34.83127554972468L214.0102222222222,34.70471828412706L214.38222222222223,34.58650456209018L214.4511111111111,34.512552585238474L214.53377777777777,34.468552736064225L214.85066666666665,34.46872994161861L215.1951111111111,34.542838411672335L215.36044444444445,34.63356146642179L215.37422222222222,34.691443427971834L215.4568888888889,34.740495601041175L215.5808888888889,34.80424904748371L215.81511111111112,34.88589448883865L215.98044444444446,34.97933608981814L216.0631111111111,35.04500276263271L216.33866666666665,35.08997282037576L216.39377777777776,35.110270790156285L216.72444444444446,35.08229213470007L216.752,35.06953659959915L216.876,35.08411044662163L217.5648888888889,35.22085990181536L217.89555555555555,35.37892755073889L217.90933333333334,35.47541263224232L218.21244444444446,35.593778553733564L218.69466666666668,35.72516688294959L218.70844444444447,35.80490169875471L218.984,35.83804825516129" style="fill: none;" fill="none"></path></g></g></g></g><g opacity="0.2"><g><g><g><path stroke="rgb(255, 112, 67)" stroke-width="2px" d="M27.803555555555555,148.01003855466843L28.134222222222224,148.0177305340767L28.175555555555555,148.01746529340744L28.327111111111112,148.00957438349724L28.533777777777775,147.98769202828407L28.575111111111113,147.98298400640488L28.850666666666665,147.95659255981445L27.927555555555553,148.0136193037033L27.96888888888889,148.01481288671494L28.09288888888889,148.01753160357475L28.947111111111113,147.94485566020012L29.016000000000002,147.9390203654766L29.305333333333333,147.9215807914734L29.374222222222222,147.91872945427895L29.470666666666666,147.91448560357094L29.553333333333335,147.90931341052055L30.035555555555558,147.90911448001862L30.06311111111111,147.90984389185905L30.173333333333336,147.91097116470337L30.57288888888889,147.9069925546646L30.848444444444443,147.9122310578823L31.592444444444443,147.93172624707222L31.60622222222222,147.93258827924728L31.881777777777778,147.95082357525826L32.12977777777778,147.9400813281536L32.17111111111111,147.9384235739708L32.184888888888885,147.93782678246498L32.32266666666666,147.9368984401226L33.17688888888889,147.8727765083313L33.54888888888889,147.86448773741722L33.76933333333333,147.86462035775185L33.86577777777778,147.86362570524216L33.879555555555555,147.8638246357441L34.33422222222222,147.8669412136078L34.52711111111111,147.8581219613552L34.63733333333333,147.85261821746826L34.70622222222222,147.85168987512589L34.733777777777775,147.85261821746826L34.89911111111111,147.85553586483002L35.03688888888889,147.85851982235909L35.629333333333335,147.78703746199608L35.739555555555555,147.77994227409363L35.849777777777774,147.7777540385723L36.208,147.752025693655L36.332,147.73060750961304L36.38711111111111,147.72291553020477L36.41466666666667,147.71011766791344L36.60755555555556,147.59241712093353L36.635111111111115,147.57762995362282L36.73155555555555,147.53578823804855L36.84177777777778,147.50740748643875L36.92444444444444,147.48705026507378L36.93822222222222,147.48492833971977L37.31022222222222,147.41596576571465L38.316,147.27048125863075L38.77066666666666,147.17313793301582L38.812,147.16106948256493L39.04622222222222,147.08275717496872L39.17022222222222,147.0290459394455L39.184,147.02321064472198L39.266666666666666,147.0096170604229L39.28044444444444,147.00623524188995L39.349333333333334,146.9906523525715L39.59733333333334,146.96591866016388L39.638666666666666,146.96167480945587L39.76266666666667,146.9502031505108L40.43777777777778,146.91267159581184L40.47911111111111,146.90637212991714L40.56177777777778,146.89012613892555L40.644444444444446,146.88117426633835L40.71333333333333,146.88011330366135L40.85111111111111,146.86559137701988L40.93377777777778,146.85504806041718L41.00266666666667,146.85053896903992L41.71911111111111,146.64623734354973L41.788000000000004,146.61759135127068L41.80177777777777,146.61208760738373L42.04977777777778,146.53980952501297L42.22888888888889,146.44080844521523L42.408,146.3687292933464L42.931555555555555,146.1932062804699L43.16577777777778,146.14148434996605L43.44133333333333,146.02477845549583L43.620444444444445,145.93764689564705L43.92355555555555,145.8360597193241L43.96488888888889,145.83009180426598L44.157777777777774,145.76596987247467L44.21288888888889,145.75224366784096L44.87422222222222,145.6243313550949L44.95688888888889,145.59442546963692L44.97066666666667,145.58660086989403L45.27377777777778,145.47234845161438L45.43911111111111,145.43634203076363L45.576888888888895,145.3826307952404L45.99022222222222,145.18217515945435L46.141777777777776,145.07455375790596L46.252,144.96938583254814L46.334666666666664,144.8825195133686L46.775555555555556,144.38141357898712L46.830666666666666,144.33599111437798L47.17511111111111,144.16212585568428L47.39555555555556,144.11517825722694L47.409333333333336,144.1086798608303L47.616,144.05649375915527L47.67111111111111,144.02373653650284L47.90533333333333,143.8061065673828L48.38755555555556,143.3299995660782L48.49777777777778,143.22151613235474L48.77333333333333,143.0489770770073L48.96622222222222,142.9324038028717L49.09022222222222,142.75402945280075L49.17288888888889,142.62532141804695L49.241777777777784,142.53023263812065L49.33822222222222,142.40092781186104L49.46222222222222,142.22189036011696L49.65511111111111,142.02521440386772L49.68266666666667,142.00837162137032L49.724000000000004,141.98297482728958L49.848000000000006,141.92932990193367L50.330222222222226,141.71892774105072L50.66088888888889,141.50998440384865L50.95022222222222,141.35455337166786L51.19822222222223,141.2338688671589L51.322222222222216,141.15701538324356L51.501333333333335,141.03759077191353L51.54266666666667,141.01345387101173L51.65288888888889,140.97937044501305L52.204,140.8204249739647L52.43822222222222,140.68249982595444L52.576,140.62845703959465L52.617333333333335,140.6055800318718L52.89288888888889,140.43244418501854L53.11333333333334,140.28052759170532L53.361333333333334,140.01157355308533L53.526666666666664,139.83339813351634L53.76088888888889,139.68851041793826L53.843555555555554,139.66026228666308L54.17422222222222,139.4980676174164L54.35333333333334,139.3671713471413L54.394666666666666,139.342503964901L54.40844444444444,139.33063444495204L54.51866666666666,139.22506865859035L54.57377777777778,139.1859456598759L54.67022222222222,139.13322907686236L55.345333333333336,138.74949213862422L55.400444444444446,138.70692101120952L55.49688888888889,138.61899372935298L55.620888888888885,138.5062001347542L55.924,138.2954664230347L55.97911111111111,138.2765680253506L56.08933333333333,138.20608031749728L56.199555555555555,138.0291647911072L56.254666666666665,137.8840781450272L56.53022222222222,137.28702139854434L56.59911111111111,137.17522245645526L56.61288888888889,137.15479892492297L56.68177777777778,137.07151335477832L56.84711111111111,136.94870692491534L56.888444444444445,136.91992831230166L56.95733333333333,136.86933365464213L57.21911111111111,136.66224700212481L57.43955555555555,136.47637960314754L57.57733333333333,136.39342558383944L57.742666666666665,136.2939603328705L58.10088888888889,135.99775281548503L58.22488888888889,135.80193889141086L58.70711111111111,135.42629179358485L58.72088888888889,135.41733992099765L58.748444444444445,135.40308323502543L59.35466666666667,134.86610350012782L59.46488888888889,134.76743397116664L59.58888888888889,134.64655053615573L59.61644444444445,134.61671096086505L59.68533333333333,134.562402933836L60.029777777777774,134.23098471760753L60.04355555555556,134.20572054386142L60.181333333333335,133.99637934565547L60.20888888888889,133.96096971631053L60.27777777777778,133.86535045504573L60.47066666666667,133.64049267768863L60.553333333333335,133.59235149621966L60.67733333333334,133.47889479994774L60.884,133.27764344215393L60.93911111111111,133.2381225824356L60.96666666666666,133.21325626969337L61.31111111111112,132.63244551420212L61.614222222222224,132.15978664159775L61.696888888888886,132.05209892988205L61.931111111111115,131.74800050258636L62.01377777777777,131.64190423488617L62.372,131.2842271924019L55.41422222222222,138.11125677824023L55.510666666666665,137.46267703175548L55.57955555555556,136.97934222221377L55.75866666666666,135.91208007931712L55.85511111111111,135.26137840747836L56.26844444444445,131.90071281790733L56.46133333333333,129.78415858745575L56.943555555555555,126.33974325656892L56.97111111111111,126.1373646259308L58.08711111111111,120.31049129366876L58.21111111111111,119.75156289339067L58.33511111111111,119.13819384574892L58.41777777777777,118.66785582900049L58.748444444444445,116.8381593823433L59.396,114.04802647233011L59.50622222222222,113.67576119303705L60.00222222222222,111.85382303595544L60.22266666666667,110.94464433193208L60.263999999999996,110.76859083771707L60.37422222222222,110.32809239625932L60.41555555555556,110.17816510796548L60.74622222222222,108.93239599466325L60.80133333333333,108.69248580932619L61.214666666666666,107.3124386072159L61.531555555555556,106.59628880023958L61.73822222222222,105.3072191476822L61.986222222222224,103.89448103308679L62.068888888888885,103.40935584902765L62.28933333333333,102.27458995580675L62.53733333333333,101.38079521059991L62.55111111111111,101.34273317456247L63.019555555555556,99.65135973691942L63.15733333333333,99.13520139455797L63.198666666666675,98.99959710240365L63.21244444444444,98.95855110883714L63.24,98.87911152839662L63.25377777777777,98.84104949235918L63.59822222222222,98.00096598267557L64.05288888888889,97.18939584493639L64.36977777777777,96.65036049485208L64.604,96.18784707784654L65.03111111111112,95.49901705980302L65.40311111111112,94.7833977341652L65.47200000000001,94.47949823737146L65.77511111111112,93.11947670578958L66.0368888888889,92.20452901721002L66.06444444444445,92.12475788593294L66.24355555555556,91.63764339685441L66.464,90.97387862205507L66.86355555555556,89.34874904155733L66.90488888888889,89.13595971465112L67.24933333333334,87.8072365820408L67.60755555555556,86.80204075574876L67.84177777777778,86.2752727866173L68.11733333333333,85.59115079045297L68.36533333333334,85.19706946611406L68.39288888888889,85.13195288181306L68.42044444444444,85.05576249957086L68.50311111111111,84.83567905426027L68.88888888888889,84.13736668229105L69.08177777777777,83.80833563208581L69.85333333333334,81.84522312879564L69.90844444444446,81.52845945954324L70.05999999999999,80.71576204895975L70.4871111111111,79.34300896525384L70.59733333333334,79.1310816705227L70.77644444444445,78.74760997295381L70.84533333333334,78.62738963961603L71.06577777777778,78.32919281721117L71.13466666666666,78.25969976186754L71.16222222222223,78.23231366276742L71.3,78.00321203470232L71.35511111111111,77.90560346841814L71.75466666666667,77.17300873994829L71.92,76.9345573782921L72.63644444444444,75.69720965623857L72.788,75.43720749020578L73.02222222222223,74.96255931258203L73.408,73.75372496247293L73.76622222222223,73.23756662011148L73.93155555555555,73.04652702808382L74.08311111111111,72.97942113876344L74.12444444444444,72.98194092512132L74.90977777777778,72.75416550040246L74.97866666666667,72.68944677710535L74.99244444444444,72.67578688263895L75.13022222222223,72.5373975634575L76.136,69.14914694428445L76.28755555555556,68.65168806910516L76.30133333333333,68.61382496356966L76.32888888888888,68.53491586446764L76.39777777777779,68.36303991079332L76.41155555555555,68.33339926600458L76.756,67.5307810008526L76.82488888888888,67.40565371513368L76.86622222222223,67.34206226468088L76.97644444444444,67.24538204073907L77.252,66.9440023303032L77.29333333333332,66.9097862839699L77.30711111111111,66.898778796196L77.51377777777778,66.67491567134859L77.81688888888888,64.87366628646852L77.996,63.707270443439505L78.02355555555556,63.584596633911154L78.20266666666667,63.0043163597584L78.71244444444444,62.286508798599264L79.04311111111112,61.77751195430758L79.13955555555556,61.6956852078438L79.22222222222221,61.659347236156485L79.55288888888889,61.49768304824831L79.59422222222221,61.44748625159266L80.40711111111112,60.12035456299784L80.64133333333334,59.651409059762976L80.65511111111111,59.6089705526829L80.93066666666667,58.753834635019324L80.97200000000001,58.64873301982882L81.096,58.39509662985804L81.592,57.94743669033053L81.63333333333333,57.90115219354632L81.85377777777778,57.4450708627701L81.88133333333333,57.363244116306326L82.2808888888889,56.65883120894434L82.66666666666666,56.107064306736014L82.77688888888889,55.990225791931174L82.83200000000001,55.94162043929102L82.94222222222221,55.850377649068854L83.09377777777777,55.74461293220522L83.452,55.480167984962485L83.52088888888889,55.37791770696642L83.74133333333333,55.14755618572237L83.96177777777778,55.119042813777945L84.072,55.05273264646532L84.19600000000001,54.943320870399496L84.32000000000001,54.863616049289725L84.47155555555555,54.80904278159144L84.48533333333333,54.80234545469286L84.65066666666667,54.70864918828013L84.67822222222222,54.69890159368517L85.20177777777778,54.28492721915247L85.36711111111111,54.050321847200415L85.6288888888889,53.978507936000845L85.94577777777778,53.88786193728449L86.22133333333333,53.824336796999L86.77244444444445,53.677592396736166L86.88266666666667,53.58714532852175L87.00666666666666,53.51778489351275L87.048,53.50876671075823L87.07555555555555,53.50346189737322L87.77822222222223,53.07529714703562L87.81955555555555,53.02901265025141L88.09511111111111,52.787113159894965L88.12266666666666,52.76218053698542L88.13644444444444,52.74951529502871L88.2328888888889,52.65402865409853L88.4808888888889,52.400989055633566L88.86666666666667,52.157697051763556L89.14222222222223,51.62867453694346L89.16977777777778,51.5916071534157L89.25244444444444,51.4670766592026L89.67955555555555,51.2517012357712L89.91377777777778,51.071735441684744L90.16177777777779,51.003237038850806L90.27199999999999,50.950387835502646L90.69911111111111,50.839583545923276L91.07111111111111,50.65199208259587L91.388,50.512541800737424L91.78755555555556,50.384099006652875L91.93911111111112,50.39590221643452L92.15955555555556,50.29723268747334L92.35244444444444,50.23258027434353L92.64177777777778,50.088223040103955L93.19288888888889,49.999234795570416L93.496,49.965814471244855L93.56488888888889,49.88020804524426L94.07466666666667,49.45834276080136L94.22622222222222,49.44415238499646L94.30888888888889,49.39189997315411L94.50177777777778,49.24296733736996L94.52933333333333,49.2384582459927L94.97022222222222,48.55818223953251L95.30088888888889,48.07955545187001L95.46622222222221,47.95721319317822L95.49377777777778,47.934070944786114L95.57644444444445,47.835998207330746L95.74177777777777,47.55809229612355L96.08622222222222,47.46631902456288L96.47200000000001,47.52255004644398L96.49955555555556,47.52434042096142L96.55466666666666,47.52500352263455L96.76133333333333,47.56757465004925L97.32622222222221,47.137951076030774L97.36755555555555,47.05751684308056L97.86355555555556,46.1199573874474L98.09777777777778,46.1525156795979L98.1391111111111,46.16750177741055L98.27688888888889,46.197473973035855L98.5248888888889,46.16650712490086L98.53866666666666,46.16551247239117L98.77288888888889,46.11498412489895L98.81422222222221,46.11080658435826L99.28266666666666,45.74828889966015L99.31022222222222,45.724815100431485L99.40666666666667,45.62687498331074L99.77866666666667,45.46090063452725L99.90266666666666,45.386964797973675L100.19200000000001,45.0750417709351L100.52266666666667,44.722868472337765L100.59155555555554,44.65669092535977L100.67422222222223,44.616374343633694L101.04622222222223,44.644954025745434L101.32177777777778,44.67273798584942L101.39066666666666,44.66935616731648L101.59733333333334,44.66126632690434L101.66622222222222,44.68447488546376L102.25866666666667,44.7482652664185L102.31377777777777,44.70702034235005L102.6031111111111,44.65715509653096L102.63066666666667,44.64667809009556L102.85111111111111,44.45742887258534L102.87866666666666,44.44323849678044L102.96133333333334,44.40265667438511L102.9888888888889,44.38767057657246L103.18177777777778,44.34761923551564L103.2368888888889,44.35066950321202L103.55377777777778,44.34085559844975L103.67777777777778,44.37215399742131L103.93955555555556,44.414592504501385L104.0911111111111,44.43793368339543L104.11866666666667,44.422151863575024L104.20133333333334,44.35889196395878L104.38044444444444,44.17083632946019L104.62844444444444,43.87244057655339L105.16577777777778,43.188782751560254L105.48266666666667,43.06584370136265L105.53777777777778,43.026455461978955L105.55155555555555,43.01544797420506L105.648,42.94648540019993L105.88222222222223,42.92088967561726L106.03377777777779,42.936936736106915L106.18533333333333,42.871422290802045L106.28177777777779,42.784158110618634L106.36444444444444,42.72368323802952L106.69511111111112,42.5344340205193L107.45288888888888,41.98286604881291L107.508,41.940294921398205L108.004,41.63672697544102L108.01777777777777,41.63288098573689L108.07288888888888,41.625719487667126L108.34844444444444,41.643888473510785L108.36222222222223,41.62638258934025L108.376,41.607948362827344L108.48622222222222,41.475725889205975L109.09244444444444,41.01261568069462L109.18888888888888,41.00121033191685L109.23022222222222,41.005586802959485L109.492,41.05836969614033L110.236,40.80294293165211L110.36,40.777479827404065L110.38755555555556,40.77111405134205L110.44266666666667,40.757984638214154L110.52533333333334,40.758515119552655L110.56666666666668,40.76846164464955L110.66311111111112,40.770185708999676L110.77333333333333,40.75135362148289L110.81466666666667,40.745120465755505L110.98,40.76620709896092L111.352,40.617937564849896L111.40711111111112,40.603481948375745L111.55866666666665,40.568337559700055L111.71022222222221,40.596187829971356L112.64711111111112,40.67814719676976L112.84,40.70281457901005L112.95022222222222,40.72045308351521L113.14311111111111,40.634382486343426L113.15688888888889,40.624966442585034L113.51511111111111,40.62310975790028L113.708,40.660906553268475L114.05244444444445,40.739550411701245L114.452,40.7272167205811L114.49333333333334,40.73278677463536L114.85155555555555,40.68053436279301L115.09955555555555,40.36436748504643L115.15466666666666,40.31025838851933L115.4991111111111,40.19182842969899L115.85733333333333,39.7763289213181L116.21555555555555,39.39981979131703L116.42222222222222,39.36387968063359L116.53244444444445,39.308444380760236L116.54622222222223,39.297834753990216L116.84933333333333,39.13272243738179L116.90444444444445,39.14094489812855L117.09733333333334,39.2063267230988L117.64844444444445,39.39676952362065L117.77244444444445,39.4401363730431L117.93777777777778,39.46414065361027L118.19955555555555,39.55167007446293L118.24088888888889,39.56758451461796L118.3648888888889,39.60644227266316L118.87466666666667,39.58973211050038L119.09511111111111,39.37780481576924L119.24666666666667,39.34319090843205L119.49466666666666,39.38045722246174L119.63244444444445,39.37687647342686L119.64622222222222,39.37475454807286L119.89422222222223,39.37356096506123L119.908,39.37714171409611L120.22488888888888,39.48098343610768L120.28,39.50180482864384L120.48666666666666,39.57315456867222L120.89999999999999,39.031002640724225L121.024,38.97808712720875L121.06533333333334,38.95700049400334L121.16177777777779,38.89679086208348L121.29955555555556,38.87106251716618L121.34088888888888,38.87716305255894L121.40977777777778,38.87769353389744L121.54755555555556,38.876499950885815L121.87822222222222,38.911644339561505L122.00222222222223,38.8942710757256L122.264,38.7335352301598L122.49822222222222,38.6231951117516L123.35244444444444,38.33156299591069L123.83466666666668,38.251062452793164L124.06888888888889,38.205838918685956L124.20666666666668,38.06778115034108L124.27555555555554,38.01194798946385L124.4271111111111,37.90757578611378L124.50977777777778,37.85956722497944L124.60622222222223,37.83848059177403L124.85422222222223,37.525761842727704L124.9231111111111,37.43027520179753L124.992,37.36476075649266L125.24,37.23505806922917L125.39155555555556,37.23399710655217L125.43288888888888,37.24725914001469L125.70844444444445,37.36157786846165L125.81866666666666,37.32683134078984L125.95644444444443,37.2389040589333L126.12177777777778,37.07432222366337L126.43866666666668,36.78070080280308L126.50755555555554,36.6951606869698L127.34799999999998,36.09147292375569L127.36177777777777,36.09120768308644L127.80266666666667,36.18868362903599L128.3951111111111,36.23218309879307L128.50533333333334,36.20751571655278L128.61555555555557,36.22687828540806L128.62933333333334,36.225949943065686L129.09777777777776,36.095186293125195L129.24933333333334,36.10924404859547L129.41466666666668,36.119721055030865L129.6488888888889,36.127545654773755L130.47555555555556,36.40684407949452L130.80622222222223,36.48071360588078L131.21955555555556,36.637603461742444L131.27466666666666,36.64781522750859L131.46755555555555,36.69701737165455L131.70177777777778,36.75046336650853L131.78444444444446,36.79210615158085L132.3631111111111,36.98599708080296L132.58355555555556,36.99872863292698L132.7351111111111,36.932285845279736L132.8591111111111,36.78441417217259L132.96933333333334,36.662933945655865L133.24488888888888,36.499280452728314L133.27244444444446,36.49768900871281L133.31377777777777,36.48774248361592L133.34133333333332,36.4787243008614L133.424,36.461351037025494L133.69955555555555,36.43575531244282L133.7408888888889,36.43840771913533L133.80977777777778,36.44331467151646L133.90622222222223,36.45458739995961L133.93377777777778,36.46002483367924L134.63644444444444,35.792944550514264L134.89822222222222,35.59865576028828L135.17377777777776,35.45091670751576L135.18755555555555,35.44388782978062L135.21511111111113,35.43301296234135L135.40800000000002,35.42598408460621L135.46311111111112,35.42837125062947L135.5871111111111,35.39256376028065L135.6008888888889,35.388319909572644L135.66977777777777,35.36908996105198L135.73866666666666,35.310339152813L135.94533333333334,35.13992202281956L136.37244444444445,34.86287814378743L136.5377777777778,34.59763747453694L136.63422222222223,34.444063127040906L136.7031111111111,34.34300643205647L136.89600000000002,34.136781811714215L137.02,34.125376462936444L137.37822222222223,34.147126197814984L137.47466666666668,34.15030908584599L137.48844444444447,34.153491973876996L137.61244444444444,34.1282941102982L138.13600000000002,33.92140638828282L138.2462222222222,33.94289088249211L138.26,33.94501280784611L138.31511111111112,33.95867270231251L138.756,34.08877325057988L139.40355555555556,34.011322975158734L139.45866666666666,34.0048245787621L139.70666666666668,34.079887688159985L139.77555555555554,34.10853368043904L140.02355555555553,34.17736363410954L140.0648888888889,34.18850374221806L140.35422222222223,34.17537432909016L140.50577777777778,34.212375402450604L140.83644444444445,34.291284501552624L140.9328888888889,34.23452299833302L141.1671111111111,34.19248235225682L141.19466666666668,34.183596789836926L141.236,34.16556042432789L141.52533333333332,34.0999133586884L141.5528888888889,34.10574865341191L141.62177777777777,34.12749838829045L141.77333333333334,34.215690910816235L141.93866666666668,34.241949737072034L142.17288888888888,34.188901603221936L142.4208888888889,34.18823850154881L142.50355555555555,34.16290801763539L142.57244444444444,34.14871764183049L142.64133333333334,34.153757214546246L142.88933333333335,34.17152833938603L142.90311111111112,34.17670053243641L143.27511111111113,34.47788131237034L143.38533333333334,34.576285600662274L143.52311111111112,34.681984007358594L143.67466666666667,34.79139578342442L143.964,34.835293114185376L144.21200000000002,34.85637974739079L144.6528888888889,34.79895514249806L144.66666666666669,34.794578671455426L144.74933333333334,34.77521610260014L145.4657777777778,33.664653420448346L145.49333333333334,33.591579616069836L145.6311111111111,33.32912397384648L145.72755555555554,33.22700631618504L146.09955555555555,32.901423394680066L146.38888888888889,32.589102506637616L146.52666666666667,32.47849714756016L146.7471111111111,32.35582333803181L146.77466666666666,32.35131424665455L146.8711111111111,32.34269392490391L147.31199999999998,32.09482651948933L147.3808888888889,31.994035065174142L147.53244444444445,31.815793335437814L147.60133333333332,31.750278890132943L148.19377777777777,31.58052486181263L148.2351111111111,31.567660689353982L148.51066666666668,31.56713020801548L148.59333333333333,31.60002005100254L148.6071111111111,31.6050596237183L148.96533333333335,31.671502411365548L149.0617777777778,31.701739847660104L149.916,31.627339839935342L149.92977777777776,31.635827541351357L150.05377777777778,31.614077806472817L150.15022222222223,31.50745105743412L150.19155555555557,31.472439289093057L150.28799999999998,31.415943026542703L150.32933333333332,31.412760138511697L150.63244444444445,31.49352592229847L150.784,31.545513093471566L150.93555555555557,31.59948956966404L151.07333333333332,31.611558020114938L151.1008888888889,31.61288422346119L151.11466666666666,31.614343047142068L151.156,31.619117379188577L151.48666666666668,31.6318489313126L151.56933333333333,31.62123930454258L151.88622222222222,31.473632872104684L152.024,31.426685273647347L152.13422222222223,31.40984249114994L152.29955555555557,31.383185803890267L152.97466666666668,31.43305104970936L152.98844444444447,31.432387948036233L153.09866666666665,31.436764419078866L153.22266666666667,31.47482645511631L153.7048888888889,31.799878895282784L154.09066666666666,31.99323934316639L154.132,32.009684264659924L154.6831111111111,32.183947384357495L155.0137777777778,32.20198374986653L155.15155555555555,32.17678588628773L155.90933333333334,31.55797940492634L156.08844444444443,31.555592238903085L156.24,31.615801870822946L156.488,31.65890347957615L156.984,31.494719505310098L157.0528888888889,31.510368704795876L157.06666666666666,31.516469240188638L157.09422222222224,31.52668100595478L157.28711111111113,31.520713090896646L157.45244444444444,31.35944676399235L157.76933333333332,31.258655309677163L157.85199999999998,31.203750491142312L158.05866666666665,31.06410127878193L158.14133333333334,31.033863842487374L158.27911111111112,31.008665978908578L158.60977777777777,30.980948328971902L158.844,31.011318385601083L159.14711111111112,30.96291196346287L159.57422222222223,30.87896329164509L159.67066666666668,30.791433870792428L159.71200000000002,30.766633868217507L159.82222222222222,30.750454187393228L160.04266666666666,30.791036009788552L160.09777777777776,30.777508735656777L160.1942222222222,30.753504455089608L160.2217777777778,30.753239214420358L160.26311111111113,30.756422102451364L160.74533333333332,31.02842640876774L160.84177777777776,31.070997536182443L161.06222222222223,31.144336581230203L161.33777777777777,31.20746386051182L161.72355555555555,31.079219996929208L161.75111111111113,31.070599675178567L161.7648888888889,31.068477749824563L161.79244444444444,31.06993657350544L161.8751111111111,31.098582565784493L161.99911111111112,31.145662784576455L162.08177777777777,31.17868524789814L162.15066666666667,31.192743003368417L162.55022222222223,31.085983633995095L162.74311111111112,31.140623211860696L162.89466666666667,31.213431775569955L163.03244444444445,31.2777526378632L163.08755555555555,31.302154779434243L163.10133333333332,31.30918365716938L163.48711111111112,31.377615749836007L163.61111111111111,31.381859600544015L163.72133333333335,31.385175108909646L163.928,31.40148741006855L163.94177777777776,31.401620030403176L164.1071111111111,31.378146231174508L164.5342222222222,30.92020821571354L164.65822222222224,30.91742318868641L164.83733333333333,30.932276666164437L164.89244444444444,30.93307238817219L164.96133333333333,30.937316238880197L165.08533333333332,30.873525857925454L165.19555555555556,30.77299964427952L165.292,30.663455247879067L165.3057777777778,30.646745085716287L165.54,30.42022955417637L165.95333333333335,30.27408194541935L166.0911111111111,30.257769644260446L166.6008888888889,30.219044506549874L166.72488888888887,30.204854130744973L166.73866666666666,30.205384612083474L166.8213333333333,30.207904398441354L167.04177777777778,30.237478733062783L167.13822222222223,30.268379271030465L167.524,30.21612685918812L167.5377777777778,30.21161776781086L167.66177777777776,30.205384612083474L167.73066666666668,30.21466803550724L167.88222222222223,30.22395145893101L168.00622222222222,30.22554290294651L168.1991111111111,30.243048787117043L168.35066666666665,30.23840707540516L168.72266666666667,30.321560025215188L168.764,30.33800494670872L168.888,30.37142527103428L169.23244444444447,30.45815896987919L169.28755555555554,30.407895863056222L169.41155555555557,30.354317247867623L169.60444444444445,30.248220980167428L169.6871111111111,30.19212257862095L169.71466666666666,30.18204343318943L170.1831111111111,30.306043446064034L170.26577777777777,30.30564558506016L170.34844444444445,30.312409222126046L170.376,30.319703340530435L170.38977777777777,30.325008153915444L170.52755555555555,30.386146128177682L170.59644444444444,30.440387845039407L170.78933333333333,30.58003705739979L170.91333333333336,30.60841780900959L171.13377777777777,30.714911937713662L171.47822222222223,30.82233440876011L171.74,30.953893780708352L171.86399999999998,31.031874537467996L172.112,31.069008231163064L172.484,30.97683709859852L172.8008888888889,31.010390043258706L172.82844444444444,31.015429615974465L172.84222222222223,31.01861250400547L173.5448888888889,31.057602882385293L173.6551111111111,31.128156900405923L173.69644444444444,31.151498079299966L173.82044444444443,31.100969731807748L174.344,31.043677747249642L174.55066666666667,31.05601143836979L174.7711111111111,31.060122668743173L175.04666666666665,31.11012053489689L175.1431111111111,31.11767989397053L175.23955555555554,31.10508096218113L175.30844444444443,31.09951090812687L175.73555555555555,31.1558745503426L175.84577777777778,30.99805635213856L175.8733333333333,30.949384689331094L176.34177777777776,30.559746146202126L176.3831111111111,30.530569672584573L176.576,30.069316148757974L176.6173333333333,29.810308635234872L176.76888888888888,29.14468717575077L176.85155555555556,28.931301057338754L177.23733333333334,28.513812243938485L177.27866666666665,28.489542722702065L177.29244444444444,28.4813202619553L177.3751111111111,28.45174592733387L177.40266666666668,28.43954485654835L177.6368888888889,28.283450722694436L177.7471111111111,28.212631464004556L177.8711111111111,28.115685999393502L178.07777777777778,28.06555551290516L178.29822222222222,28.05388492345814L178.83555555555557,27.92643678188328L179.00088888888888,27.910257101059L179.02844444444446,27.8976581692696L179.16622222222222,27.849516987800637L179.3177777777778,27.879754424095193L179.41422222222224,27.904819667339364L179.51066666666668,27.93890309333805L179.5382222222222,27.95428705215458L179.77244444444446,28.088498830795327L180.0342222222222,28.13969027996067L180.53022222222222,28.40599191188816L180.668,28.486227214336434L180.90222222222224,28.469782292842904L180.9848888888889,28.459968388080636L181.10888888888888,28.467527747154275L181.5222222222222,28.59590423107151L181.83911111111112,28.47548496723179L181.85288888888888,28.472567319870034L182.1008888888889,28.435964107513467L182.48666666666668,28.47495448589329L182.55555555555557,28.493653953075448L182.73466666666667,28.594180166721383L182.74844444444446,28.603065729141274L182.92755555555556,28.64948284626011L183.0377777777778,28.647891402244607L183.10666666666665,28.613675355911294L183.13422222222223,28.6042593121529L183.14800000000002,28.60067856311802L183.42355555555557,28.537816524505654L183.49244444444446,28.54683470726017L183.68533333333335,28.54683470726017L183.8231111111111,28.508772671222726L183.89200000000002,28.5086400508881L183.98844444444447,28.549752354621926L184.25022222222222,28.69218659400944L184.41555555555556,28.764729917049447L184.89777777777778,28.81817591190342L185.02177777777777,28.86870425939564L185.6831111111111,28.81711494922642L185.752,28.854248642921487L185.95866666666666,28.876263618469277L186.11022222222223,28.92413955926899L186.16533333333334,28.9557031989098L186.38577777777778,28.932362020015756L186.5648888888889,28.714068949222604L186.84044444444444,28.60850316286091L186.96444444444447,28.58423364162449L187.07466666666664,28.59232348203663L187.35022222222224,28.551211178302804L187.57066666666665,28.602535247802773L187.84622222222222,28.651074290275613L187.88755555555556,28.662744879722634L188.10799999999998,28.77388072013859L188.32844444444444,28.86949998140339L188.48,28.940186619758645L189.30666666666667,29.03434705734257L189.43066666666667,29.06803262233738L189.44444444444443,29.075194120407144L189.85777777777778,29.246141731739083L190.11955555555556,29.38234281539921L190.16088888888888,29.395472228527108L190.464,29.495335340499917L191.07022222222224,29.804871201515237L191.35955555555557,29.750894725322762L191.44222222222223,29.722911834716836L191.46977777777778,29.723840177059213L191.7591111111111,29.808054089546243L192.06222222222223,29.792404890060464L192.4617777777778,29.92555570602421L193.09555555555556,29.83683270215992L193.316,29.95393645763401L193.48133333333334,29.95513004064564L194.29422222222223,30.34238141775135L194.51466666666667,30.562531173229257L194.94177777777776,30.680298030376473L195.052,30.693029582500497L195.34133333333332,30.85442852973942L195.68577777777776,31.08054620027546L195.75466666666668,31.12603497505192L195.93377777777778,31.18014407157902L196.1128888888889,31.25653338432316L196.19555555555556,31.244862794876138L196.77422222222222,30.957739770412484L196.78799999999998,30.95535260438923L196.8568888888889,30.956678807735482L197.06355555555558,31.0061461925507L197.86266666666666,31.02816116809849L198.09688888888888,31.115557968616525L198.46888888888887,31.228152632713357L198.48266666666666,31.234120547771493L198.5928888888889,31.26289916038517L198.7582222222222,31.244332313537637L198.79955555555557,31.24035370349888L198.92355555555557,31.2520242929459L199.13022222222222,31.329474568367043L199.18533333333335,31.359844624996224L199.21288888888887,31.369658529758492L199.41955555555555,31.403344094753304L199.66755555555557,31.497106671333352L199.91555555555556,31.594980478286782L200.12222222222223,31.688345193862954L200.26,31.756114184856454L200.30133333333333,31.784760177135507L200.46666666666667,31.84152168035511L200.48044444444446,31.846428632736245L200.53555555555553,31.865658581256906L200.92133333333334,32.088593363761944L201.27955555555553,32.31232386827473L201.73422222222223,32.47889500856404L201.94088888888888,32.438843667507214L202.4368888888889,32.47836452722554L202.50577777777778,32.472529232502026L203.1671111111111,32.1598104834557L203.22222222222223,32.165513157844586L203.4977777777778,32.30290782451634L204.15911111111112,32.431549549102826L204.17288888888888,32.430753827095074L204.53111111111113,32.525975227356L204.57244444444444,32.55210143327717L205.1511111111111,32.434334576129956L205.37155555555557,32.363515317440076L205.85377777777776,32.50608217716221L206.06044444444444,32.582471489906354L206.17066666666668,32.658860802650494L206.23955555555554,32.659656524658246L206.25333333333333,32.658595561981244L206.708,32.7014319300652L206.94222222222223,32.751164555549664L206.98355555555554,32.76615065336232L207.02488888888888,32.7833912968636L207.204,32.79506188631062L207.576,32.55714100599293L207.82399999999998,32.695331394672436L207.92044444444443,32.71005225181584L208.01688888888887,32.692281126976056L208.23733333333334,32.70620626211171L208.32,32.75832605361943L208.60933333333332,32.854873657226605L208.78844444444445,32.94054639339451L208.94,33.01030468940739L209.27066666666667,33.245307922363324L209.58755555555555,33.27395391464238L209.6288888888889,33.286287605762524L209.808,33.340396702289624L209.8631111111111,33.37169510126118L209.94577777777778,33.42885446548466L210.2351111111111,33.569034159183545L210.5382222222222,33.72764807939534L210.552,33.73255503177647L210.81377777777777,33.86437964439396L210.8551111111111,33.88573151826863L210.96533333333335,33.9643753767014L210.9791111111111,33.97511762380604L210.99288888888887,33.98612511157994L211.07555555555555,34.039703726768536L211.3511111111111,34.13717967271809L211.37866666666667,34.14526951313023L211.6266666666667,34.255609631538434L212.08133333333333,34.48491019010548L212.31555555555556,34.614745497703595L212.50844444444445,34.70797759294514L212.5911111111111,34.766993641853375L213.05955555555556,34.92852520942692L213.62444444444444,34.956905961036725L214.0102222222222,34.514882385730786L214.38222222222223,34.40918397903447L214.4511111111111,34.40162461996083L214.53377777777777,34.402552962303204L214.85066666666665,34.46899574995045L215.1951111111111,34.65400111675267L215.36044444444445,34.76964604854588L215.37422222222222,34.77826637029652L215.4568888888889,34.81407386064534L215.5808888888889,34.89987921714787L215.81511111111112,35.00836265087132L215.98044444444446,35.119498491287274L216.0631111111111,35.14350277185444L216.33866666666665,35.157427906990094L216.39377777777776,35.14071774482731L216.72444444444446,35.040324151516L216.752,35.05040329694752L216.876,35.1059712171555L217.5648888888889,35.42598408460621L217.89555555555555,35.61602902412419L217.90933333333334,35.62014025449757L218.21244444444446,35.77132743597035L218.69466666666668,35.92224937677388L218.70844444444447,35.924503922462506L218.984,35.88776808977131" style="fill: none;" fill="none"></path></g></g></g></g></g></g><g transform="translate(82, 178)" clip-path="url(#clip_1)"><clipPath id="clip_1"><rect width="247" height="21"></rect></clipPath><g><g><line x1="0" y1="0" x2="0" y2="5" style="visibility: inherit;" fill="rgb(0, 0, 0)" stroke="rgb(204, 204, 204)" stroke-width="1px"></line><line x1="27.555555555555554" y1="0" x2="27.555555555555554" y2="5" style="visibility: inherit;" fill="rgb(0, 0, 0)" stroke="rgb(204, 204, 204)" stroke-width="1px"></line><line x1="55.11111111111111" y1="0" x2="55.11111111111111" y2="5" style="visibility: inherit;" fill="rgb(0, 0, 0)" stroke="rgb(204, 204, 204)" stroke-width="1px"></line><line x1="82.66666666666666" y1="0" x2="82.66666666666666" y2="5" style="visibility: inherit;" fill="rgb(0, 0, 0)" stroke="rgb(204, 204, 204)" stroke-width="1px"></line><line x1="110.22222222222221" y1="0" x2="110.22222222222221" y2="5" style="visibility: inherit;" fill="rgb(0, 0, 0)" stroke="rgb(204, 204, 204)" stroke-width="1px"></line><line x1="137.77777777777777" y1="0" x2="137.77777777777777" y2="5" style="visibility: inherit;" fill="rgb(0, 0, 0)" stroke="rgb(204, 204, 204)" stroke-width="1px"></line><line x1="165.33333333333331" y1="0" x2="165.33333333333331" y2="5" style="visibility: inherit;" fill="rgb(0, 0, 0)" stroke="rgb(204, 204, 204)" stroke-width="1px"></line><line x1="192.88888888888889" y1="0" x2="192.88888888888889" y2="5" style="visibility: inherit;" fill="rgb(0, 0, 0)" stroke="rgb(204, 204, 204)" stroke-width="1px"></line><line x1="220.44444444444443" y1="0" x2="220.44444444444443" y2="5" style="visibility: inherit;" fill="rgb(0, 0, 0)" stroke="rgb(204, 204, 204)" stroke-width="1px"></line><line x1="248" y1="0" x2="248" y2="5" style="visibility: inherit;" fill="rgb(0, 0, 0)" stroke="rgb(204, 204, 204)" stroke-width="1px"></line></g><g transform="translate(0, 8)"><text x="0" y="0" dx="0em" dy="0.95em" style="text-anchor: middle; visibility: hidden; font-family: Roboto, sans-serif; font-size: 12px; font-weight: 200;" fill="rgb(50, 49, 63)" stroke="none" stroke-width="1px">-2k</text><text x="27.555555555555554" y="0" dx="0em" dy="0.95em" style="text-anchor: middle; visibility: inherit; font-family: Roboto, sans-serif; font-size: 12px; font-weight: 200;" fill="rgb(50, 49, 63)" stroke="none" stroke-width="1px">0</text><text x="55.11111111111111" y="0" dx="0em" dy="0.95em" style="text-anchor: middle; visibility: inherit; font-family: Roboto, sans-serif; font-size: 12px; font-weight: 200;" fill="rgb(50, 49, 63)" stroke="none" stroke-width="1px">2k</text><text x="82.66666666666666" y="0" dx="0em" dy="0.95em" style="text-anchor: middle; visibility: inherit; font-family: Roboto, sans-serif; font-size: 12px; font-weight: 200;" fill="rgb(50, 49, 63)" stroke="none" stroke-width="1px">4k</text><text x="110.22222222222221" y="0" dx="0em" dy="0.95em" style="text-anchor: middle; visibility: inherit; font-family: Roboto, sans-serif; font-size: 12px; font-weight: 200;" fill="rgb(50, 49, 63)" stroke="none" stroke-width="1px">6k</text><text x="137.77777777777777" y="0" dx="0em" dy="0.95em" style="text-anchor: middle; visibility: inherit; font-family: Roboto, sans-serif; font-size: 12px; font-weight: 200;" fill="rgb(50, 49, 63)" stroke="none" stroke-width="1px">8k</text><text x="165.33333333333331" y="0" dx="0em" dy="0.95em" style="text-anchor: middle; visibility: inherit; font-family: Roboto, sans-serif; font-size: 12px; font-weight: 200;" fill="rgb(50, 49, 63)" stroke="none" stroke-width="1px">10k</text><text x="192.88888888888889" y="0" dx="0em" dy="0.95em" style="text-anchor: middle; visibility: inherit; font-family: Roboto, sans-serif; font-size: 12px; font-weight: 200;" fill="rgb(50, 49, 63)" stroke="none" stroke-width="1px">12k</text><text x="220.44444444444443" y="0" dx="0em" dy="0.95em" style="text-anchor: middle; visibility: inherit; font-family: Roboto, sans-serif; font-size: 12px; font-weight: 200;" fill="rgb(50, 49, 63)" stroke="none" stroke-width="1px">14k</text><text x="248" y="0" dx="0em" dy="0.95em" style="text-anchor: middle; visibility: hidden; font-family: Roboto, sans-serif; font-size: 12px; font-weight: 200;" fill="rgb(50, 49, 63)" stroke="none" stroke-width="1px">16k</text></g><line x1="0" y1="0" x2="248" y2="0" fill="rgb(0, 0, 0)" stroke="rgb(204, 204, 204)" stroke-width="1px"></line></g></g></g></g></svg>