<svg viewBox="0 0 330.0000305175781 200.00001525878906" xmlns="http://www.w3.org/2000/svg"><g><g><g><g><g><line x1="58" y1="178" x2="53" y2="178" style="visibility: inherit;" fill="rgb(0, 0, 0)" stroke="rgb(204, 204, 204)" stroke-width="1px"></line><line x1="58" y1="164.30769230769232" x2="53" y2="164.30769230769232" style="visibility: inherit;" fill="rgb(0, 0, 0)" stroke="rgb(204, 204, 204)" stroke-width="1px"></line><line x1="58" y1="150.6153846153846" x2="53" y2="150.6153846153846" style="visibility: inherit;" fill="rgb(0, 0, 0)" stroke="rgb(204, 204, 204)" stroke-width="1px"></line><line x1="58" y1="136.9230769230769" x2="53" y2="136.9230769230769" style="visibility: inherit;" fill="rgb(0, 0, 0)" stroke="rgb(204, 204, 204)" stroke-width="1px"></line><line x1="58" y1="123.23076923076923" x2="53" y2="123.23076923076923" style="visibility: inherit;" fill="rgb(0, 0, 0)" stroke="rgb(204, 204, 204)" stroke-width="1px"></line><line x1="58" y1="109.53846153846155" x2="53" y2="109.53846153846155" style="visibility: inherit;" fill="rgb(0, 0, 0)" stroke="rgb(204, 204, 204)" stroke-width="1px"></line><line x1="58" y1="95.84615384615387" x2="53" y2="95.84615384615387" style="visibility: inherit;" fill="rgb(0, 0, 0)" stroke="rgb(204, 204, 204)" stroke-width="1px"></line><line x1="58" y1="82.15384615384616" x2="53" y2="82.15384615384616" style="visibility: inherit;" fill="rgb(0, 0, 0)" stroke="rgb(204, 204, 204)" stroke-width="1px"></line><line x1="58" y1="68.46153846153848" x2="53" y2="68.46153846153848" style="visibility: inherit;" fill="rgb(0, 0, 0)" stroke="rgb(204, 204, 204)" stroke-width="1px"></line><line x1="58" y1="54.769230769230774" x2="53" y2="54.769230769230774" style="visibility: inherit;" fill="rgb(0, 0, 0)" stroke="rgb(204, 204, 204)" stroke-width="1px"></line><line x1="58" y1="41.07692307692309" x2="53" y2="41.07692307692309" style="visibility: inherit;" fill="rgb(0, 0, 0)" stroke="rgb(204, 204, 204)" stroke-width="1px"></line><line x1="58" y1="27.384615384615387" x2="53" y2="27.384615384615387" style="visibility: inherit;" fill="rgb(0, 0, 0)" stroke="rgb(204, 204, 204)" stroke-width="1px"></line><line x1="58" y1="13.692307692307683" x2="53" y2="13.692307692307683" style="visibility: inherit;" fill="rgb(0, 0, 0)" stroke="rgb(204, 204, 204)" stroke-width="1px"></line><line x1="58" y1="0" x2="53" y2="0" style="visibility: inherit;" fill="rgb(0, 0, 0)" stroke="rgb(204, 204, 204)" stroke-width="1px"></line></g><g transform="translate(48, 0)"><text x="0" y="178" dx="0em" dy="0.3em" style="text-anchor: end; visibility: hidden; font-family: Roboto, sans-serif; font-size: 12px; font-weight: 200;" fill="rgb(50, 49, 63)" stroke="none" stroke-width="1px">-0.1</text><text x="0" y="164.30769230769232" dx="0em" dy="0.3em" style="text-anchor: end; visibility: inherit; font-family: Roboto, sans-serif; font-size: 12px; font-weight: 200;" fill="rgb(50, 49, 63)" stroke="none" stroke-width="1px">0</text><text x="0" y="150.6153846153846" dx="0em" dy="0.3em" style="text-anchor: end; visibility: hidden; font-family: Roboto, sans-serif; font-size: 12px; font-weight: 200;" fill="rgb(50, 49, 63)" stroke="none" stroke-width="1px">0.1</text><text x="0" y="136.9230769230769" dx="0em" dy="0.3em" style="text-anchor: end; visibility: inherit; font-family: Roboto, sans-serif; font-size: 12px; font-weight: 200;" fill="rgb(50, 49, 63)" stroke="none" stroke-width="1px">0.2</text><text x="0" y="123.23076923076923" dx="0em" dy="0.3em" style="text-anchor: end; visibility: hidden; font-family: Roboto, sans-serif; font-size: 12px; font-weight: 200;" fill="rgb(50, 49, 63)" stroke="none" stroke-width="1px">0.3</text><text x="0" y="109.53846153846155" dx="0em" dy="0.3em" style="text-anchor: end; visibility: inherit; font-family: Roboto, sans-serif; font-size: 12px; font-weight: 200;" fill="rgb(50, 49, 63)" stroke="none" stroke-width="1px">0.4</text><text x="0" y="95.84615384615387" dx="0em" dy="0.3em" style="text-anchor: end; visibility: hidden; font-family: Roboto, sans-serif; font-size: 12px; font-weight: 200;" fill="rgb(50, 49, 63)" stroke="none" stroke-width="1px">0.5</text><text x="0" y="82.15384615384616" dx="0em" dy="0.3em" style="text-anchor: end; visibility: inherit; font-family: Roboto, sans-serif; font-size: 12px; font-weight: 200;" fill="rgb(50, 49, 63)" stroke="none" stroke-width="1px">0.6</text><text x="0" y="68.46153846153848" dx="0em" dy="0.3em" style="text-anchor: end; visibility: hidden; font-family: Roboto, sans-serif; font-size: 12px; font-weight: 200;" fill="rgb(50, 49, 63)" stroke="none" stroke-width="1px">0.7</text><text x="0" y="54.769230769230774" dx="0em" dy="0.3em" style="text-anchor: end; visibility: inherit; font-family: Roboto, sans-serif; font-size: 12px; font-weight: 200;" fill="rgb(50, 49, 63)" stroke="none" stroke-width="1px">0.8</text><text x="0" y="41.07692307692309" dx="0em" dy="0.3em" style="text-anchor: end; visibility: hidden; font-family: Roboto, sans-serif; font-size: 12px; font-weight: 200;" fill="rgb(50, 49, 63)" stroke="none" stroke-width="1px">0.9</text><text x="0" y="27.384615384615387" dx="0em" dy="0.3em" style="text-anchor: end; visibility: inherit; font-family: Roboto, sans-serif; font-size: 12px; font-weight: 200;" fill="rgb(50, 49, 63)" stroke="none" stroke-width="1px">1</text><text x="0" y="13.692307692307683" dx="0em" dy="0.3em" style="text-anchor: end; visibility: hidden; font-family: Roboto, sans-serif; font-size: 12px; font-weight: 200;" fill="rgb(50, 49, 63)" stroke="none" stroke-width="1px">1.1</text><text x="0" y="0" dx="0em" dy="0.3em" style="text-anchor: end; visibility: hidden; font-family: Roboto, sans-serif; font-size: 12px; font-weight: 200;" fill="rgb(50, 49, 63)" stroke="none" stroke-width="1px">1.2</text></g><line x1="58" y1="0" x2="58" y2="178" fill="rgb(0, 0, 0)" stroke="rgb(204, 204, 204)" stroke-width="1px"></line></g></g><g transform="translate(58, 0)" clip-path="url(#clip_0)"><clipPath id="clip_0"><rect width="271" height="177"></rect></clipPath><g><g><g><line x1="0" y1="0" x2="0" y2="178" fill="rgb(0, 0, 0)" stroke="rgb(60, 60, 60)" stroke-width="1px" opacity="0.25"></line><line x1="19.428571428571427" y1="0" x2="19.428571428571427" y2="178" fill="rgb(0, 0, 0)" stroke="rgb(60, 60, 60)" stroke-width="1px" opacity="0.25"></line><line x1="38.857142857142854" y1="0" x2="38.857142857142854" y2="178" fill="rgb(0, 0, 0)" stroke="rgb(60, 60, 60)" stroke-width="1px" opacity="0.25"></line><line x1="58.285714285714285" y1="0" x2="58.285714285714285" y2="178" fill="rgb(0, 0, 0)" stroke="rgb(60, 60, 60)" stroke-width="1px" opacity="0.25"></line><line x1="77.71428571428571" y1="0" x2="77.71428571428571" y2="178" fill="rgb(0, 0, 0)" stroke="rgb(60, 60, 60)" stroke-width="1px" opacity="0.25"></line><line x1="97.14285714285714" y1="0" x2="97.14285714285714" y2="178" fill="rgb(0, 0, 0)" stroke="rgb(60, 60, 60)" stroke-width="1px" opacity="0.25"></line><line x1="116.57142857142857" y1="0" x2="116.57142857142857" y2="178" fill="rgb(0, 0, 0)" stroke="rgb(60, 60, 60)" stroke-width="1px" opacity="0.25"></line><line x1="136" y1="0" x2="136" y2="178" fill="rgb(0, 0, 0)" stroke="rgb(60, 60, 60)" stroke-width="1px" opacity="0.25"></line><line x1="155.42857142857142" y1="0" x2="155.42857142857142" y2="178" fill="rgb(0, 0, 0)" stroke="rgb(60, 60, 60)" stroke-width="1px" opacity="0.25"></line><line x1="174.85714285714286" y1="0" x2="174.85714285714286" y2="178" fill="rgb(0, 0, 0)" stroke="rgb(60, 60, 60)" stroke-width="1px" opacity="0.25"></line><line x1="194.28571428571428" y1="0" x2="194.28571428571428" y2="178" fill="rgb(0, 0, 0)" stroke="rgb(60, 60, 60)" stroke-width="1px" opacity="0.25"></line><line x1="213.71428571428572" y1="0" x2="213.71428571428572" y2="178" fill="rgb(0, 0, 0)" stroke="rgb(60, 60, 60)" stroke-width="1px" opacity="0.25"></line><line x1="233.14285714285714" y1="0" x2="233.14285714285714" y2="178" fill="rgb(0, 0, 0)" stroke="rgb(60, 60, 60)" stroke-width="1px" opacity="0.25"></line><line x1="252.57142857142858" y1="0" x2="252.57142857142858" y2="178" fill="rgb(0, 0, 0)" stroke="rgb(60, 60, 60)" stroke-width="1px" opacity="0.25"></line><line x1="272" y1="0" x2="272" y2="178" fill="rgb(0, 0, 0)" stroke="rgb(60, 60, 60)" stroke-width="1px" opacity="0.25"></line></g><g><line x1="0" y1="178" x2="272" y2="178" fill="rgb(0, 0, 0)" stroke="rgb(60, 60, 60)" stroke-width="1px" opacity="0.25"></line><line x1="0" y1="164.30769230769232" x2="272" y2="164.30769230769232" fill="rgb(0, 0, 0)" stroke="rgb(60, 60, 60)" stroke-width="1px" opacity="0.25"></line><line x1="0" y1="150.6153846153846" x2="272" y2="150.6153846153846" fill="rgb(0, 0, 0)" stroke="rgb(60, 60, 60)" stroke-width="1px" opacity="0.25"></line><line x1="0" y1="136.9230769230769" x2="272" y2="136.9230769230769" fill="rgb(0, 0, 0)" stroke="rgb(60, 60, 60)" stroke-width="1px" opacity="0.25"></line><line x1="0" y1="123.23076923076923" x2="272" y2="123.23076923076923" fill="rgb(0, 0, 0)" stroke="rgb(60, 60, 60)" stroke-width="1px" opacity="0.25"></line><line x1="0" y1="109.53846153846155" x2="272" y2="109.53846153846155" fill="rgb(0, 0, 0)" stroke="rgb(60, 60, 60)" stroke-width="1px" opacity="0.25"></line><line x1="0" y1="95.84615384615387" x2="272" y2="95.84615384615387" fill="rgb(0, 0, 0)" stroke="rgb(60, 60, 60)" stroke-width="1px" opacity="0.25"></line><line x1="0" y1="82.15384615384616" x2="272" y2="82.15384615384616" fill="rgb(0, 0, 0)" stroke="rgb(60, 60, 60)" stroke-width="1px" opacity="0.25"></line><line x1="0" y1="68.46153846153848" x2="272" y2="68.46153846153848" fill="rgb(0, 0, 0)" stroke="rgb(60, 60, 60)" stroke-width="1px" opacity="0.25"></line><line x1="0" y1="54.769230769230774" x2="272" y2="54.769230769230774" fill="rgb(0, 0, 0)" stroke="rgb(60, 60, 60)" stroke-width="1px" opacity="0.25"></line><line x1="0" y1="41.07692307692309" x2="272" y2="41.07692307692309" fill="rgb(0, 0, 0)" stroke="rgb(60, 60, 60)" stroke-width="1px" opacity="0.25"></line><line x1="0" y1="27.384615384615387" x2="272" y2="27.384615384615387" fill="rgb(0, 0, 0)" stroke="rgb(60, 60, 60)" stroke-width="1px" opacity="0.25"></line><line x1="0" y1="13.692307692307683" x2="272" y2="13.692307692307683" fill="rgb(0, 0, 0)" stroke="rgb(60, 60, 60)" stroke-width="1px" opacity="0.25"></line><line x1="0" y1="0" x2="272" y2="0" fill="rgb(0, 0, 0)" stroke="rgb(60, 60, 60)" stroke-width="1px" opacity="0.25"></line></g></g></g><g><g><line x1="0" y1="164.30769230769232" x2="272" y2="164.30769230769232" fill="rgb(0, 0, 0)" stroke="rgb(153, 153, 153)" stroke-width="1.5px"></line></g></g><g><g><line x1="19.428571428571427" y1="0" x2="19.428571428571427" y2="178" fill="rgb(0, 0, 0)" stroke="rgb(153, 153, 153)" stroke-width="1.5px"></line></g></g><g><g><g><g><g><path stroke="rgb(255, 112, 67)" stroke-width="2px" d="M19.914285714285715,4.827471586374123L20.01142857142857,4.810092416369471L20.497142857142858,5.217171640041461L20.78857142857143,5.3425021738458085L20.885714285714286,5.255995388749229L21.177142857142858,5.075810125156963L21.274285714285714,4.939941853412519L21.37142857142857,4.928485223029507L21.76,4.932693585215122L22.925714285714285,5.343282692348925L23.314285714285713,5.637512772324356L23.50857142857143,5.8604226766282235L23.702857142857145,6.134484195035839L23.799999999999997,6.407124945740665L23.994285714285716,6.800039140294577L24.577142857142857,7.291860031166601L24.674285714285716,7.9865027379934554L24.77142857142857,8.901858446568953L24.86857142857143,9.45692012591104L24.965714285714288,10.26672683747404L25.548571428571428,11.9253847052537L25.74285714285714,13.711651266634131L25.93714285714286,15.105648887282449L26.034285714285712,16.76398766374879L26.325714285714284,18.95423168808171L26.422857142857143,21.08924361762602L26.52,23.05901079606693L26.617142857142856,25.051046070132514L27.102857142857143,26.979667208970717L27.588571428571427,30.018389727741184L27.88,33.16138481520341L27.977142857142855,36.88848248874892L28.56,40.91791954734966L29.337142857142858,44.20286839719605L29.62857142857143,47.766718115358664L29.725714285714286,52.1962674906679L30.405714285714286,56.55836175147759L30.697142857142854,60.017052038023934L30.891428571428573,62.808214451522595L31.571428571428573,66.1297704287156L31.668571428571425,69.95682318972251L19.525714285714287,63.38546696079595L19.622857142857143,57.348418368380734L20.302857142857146,52.14358446006357L20.497142857142858,47.195455797329124L20.69142857142857,42.92360778681066L20.78857142857143,39.06843210305045L20.885714285714286,35.51422993933788L21.565714285714282,32.4907326318978L22.051428571428573,29.787830349228294L22.245714285714286,27.34724288734489L22.34285714285714,25.14208555860764L22.731428571428573,23.19673385620224L23.217142857142857,21.396719443965164L23.314285714285713,19.956752139713974L23.605714285714285,18.761038187080484L24.18857142857143,17.955401512027773L24.285714285714285,17.27772675380301L24.48,16.6320949085497L24.77142857142857,16.420294471682357L24.965714285714288,16.382674533465423L25.06285714285714,16.43936049208038L25.25714285714286,16.926224913477476L25.451428571428572,17.49524941432109L25.548571428571428,17.58331648447265L26.22857142857143,18.791817081572056L27.005714285714284,22.013763839676205L27.102857142857143,24.84472317319018L27.200000000000003,27.632757554550857L27.588571428571427,31.253779195500986L28.56,34.688707002807234L28.65714285714286,37.82236696000502L28.85142857142857,41.6455416363422L29.24,45.671676666705295L29.53142857142857,49.33446399243274L29.62857142857143,52.230117992291795L29.725714285714286,55.784191134600306L30.017142857142858,59.39154149801024L31.18285714285714,63.453942560447175L31.765714285714285,67.04179354206317L32.05714285714286,69.81859474469685L32.251428571428576,73.00759699693637L32.348571428571425,75.79709718988455L32.542857142857144,77.93607930648284L32.93142857142857,80.71765798447827L33.32,82.79311303519978L33.51428571428572,84.96819798758727L34,86.94440391504266L34.582857142857144,89.11779931508417L35.26285714285714,91.48521780197036L35.36,92.89071061326747L35.84571428571429,95.56332676896346L35.94285714285714,97.25064686431462L36.33142857142857,98.56153760413099L36.42857142857143,99.11647330955793L36.81714285714286,99.77687953836757L36.91428571428571,101.43652498817231L37.10857142857143,101.97750192361924L37.400000000000006,102.80246883469918L37.885714285714286,102.58427617074504L37.98285714285714,103.63947597199736L38.080000000000005,104.77848549574708L38.565714285714286,105.08258071606357L38.66285714285715,105.96659716009052L38.76,106.66213175037966L39.05142857142857,107.72546987374557L39.92571428571429,108.55497586854557L40.12,108.351617704557L40.50857142857143,109.27341127096958L40.70285714285714,109.96021065854059L40.8,110.97649069907396L41.285714285714285,111.12446864598039L41.38285714285714,112.46219253883488L41.965714285714284,113.33475351730795L42.25714285714286,114.26951765246454L42.645714285714284,114.08987294365805L43.034285714285716,113.69769689499884L43.22857142857143,114.44365116948332L43.61714285714286,114.66068850473971L43.714285714285715,115.48092936099282L43.81142857142857,115.7717302461917L44.005714285714284,116.2922836059345L44.49142857142857,116.38182909442703L44.58857142857143,116.94921028859648L44.97714285714286,117.63185428374501L45.07428571428571,117.97587212972032L45.17142857142857,118.07131855765113L46.628571428571426,118.29446174070218L47.308571428571426,118.80681079746924L47.40571428571429,118.98113568263585L47.89142857142857,119.84269037757382L47.98857142857143,120.12643153907565L48.18285714285714,120.11948345930503L48.37714285714286,120.36303852412884L48.76571428571429,120.88695040427747L49.64,121.7276034260065L49.83428571428571,121.45222515137179L49.931428571428576,121.51005965353288L50.222857142857144,121.59306511588149L50.80571428571428,121.43403128629201L51.582857142857144,121.47215333093204L51.68,121.79287747941332L51.97142857142857,122.1690619040735L52.068571428571424,122.27540878394088L52.36,122.06025312131169L52.45714285714286,122.30178451388119L52.94285714285714,122.8100608235246L53.04,123.03937023301505L54.10857142857143,123.11338582691586L54.400000000000006,123.30809316531747L54.497142857142855,122.89086854598091L54.691428571428574,123.50228174311185L54.885714285714286,124.04291557689146L55.177142857142854,124.43002606195373L56.245714285714286,123.96241536343209L56.73142857142857,124.39567830082359L56.92571428571429,124.70178215094982L57.21714285714285,124.7730382445846L57.41142857142857,124.8289352491853L57.89714285714285,124.02516551669724L57.994285714285716,124.3388201633714L58.57714285714286,124.47847065856925L58.77142857142857,125.2485609839949L58.868571428571435,125.68789080022522L59.06285714285714,125.49724366180536L59.16,125.57992543892993L59.25714285714286,125.82027197216455L59.45142857142857,126.17274617154703L59.645714285714284,126.54093874112291L60.131428571428565,126.54452926018286L60.22857142857143,126.99513645797533L60.325714285714284,127.26694083427834L60.52,127.20408921541528L61.10285714285715,127.62157904662857L61.29714285714286,127.69522239839239L61.68571428571428,127.38782750025928L61.78285714285715,127.49167574996487L61.88,127.96052021826381L62.26857142857143,128.17803905488796L62.65714285714285,128.4247877128844L62.754285714285714,128.82367726082484L63.04571428571429,128.5656111440725L63.24,128.93752969217144L63.33714285714285,129.22443981728344L63.434285714285714,128.73263054154083L63.53142857142857,129.0886698035548L63.628571428571426,128.7202169702873L63.72571428571429,128.80781536227474L63.919999999999995,128.72529332530155L64.01714285714286,129.04069264067095L64.50285714285715,128.8394937617009L64.6,128.75487015232233L64.98857142857143,128.58392984333105L65.28,128.87794957700572L65.47428571428571,128.63290596244605L66.05714285714285,129.0137597334072L66.25142857142858,129.16306566348155L66.73714285714286,129.09655241017524L67.12571428571428,129.17972906237355L67.22285714285714,129.3801244178716L67.41714285714286,129.52966355666348L67.70857142857143,129.65887765800275L68.58285714285715,129.88274808810303L69.26285714285713,130.1729881442386L69.36,130.47595736074945L69.55428571428571,130.80159046406567L69.65142857142857,131.098838409663L69.74857142857144,130.50272875993187L69.84571428571428,130.02850368761452L70.04,130.01829505484443L70.33142857142857,129.96285380131258L70.72,130.0618670695401L70.81714285714285,129.8295671009181L71.2057142857143,129.8109044282754L71.49714285714285,129.65080665053205L71.88571428571429,130.0395914398183L72.17714285714285,130.40819578913164L72.27428571428572,130.27622801071962L72.37142857142857,129.8826374801517L72.46857142857142,130.0061709622074L72.5657142857143,129.9809884196079L72.76,130.3240279685238L72.85714285714286,129.37042914921128L72.95428571428572,128.87220545286104L73.14857142857142,128.4460990326217L73.24571428571429,128.6170284802438L73.34285714285714,129.3141741765155L73.44,129.19905017543317L73.63428571428572,129.29101316984435L73.82857142857142,129.47722556210618L73.92571428571429,128.94967702961964L74.60571428571428,129.23341025104273L74.89714285714285,129.22876553590834L75.09142857142858,129.71053782321283L75.28571428571429,129.6297881734984L75.57714285714286,130.01337273481883L75.77142857142857,130.10148820532697L75.96571428571428,129.982704480078L76.35428571428571,129.96444419126908L76.74285714285715,129.65487492105882L77.03428571428572,129.8958629279983L77.13142857142857,130.11845338041334L77.22857142857143,130.59749805058678L77.3257142857143,131.08213852091808L77.90857142857142,131.4566813779641L78.49142857142857,131.44001663244217L78.6857142857143,131.64839160720797L78.78285714285714,131.74045142094292L78.88,131.7221596006796L79.17142857142858,131.76240194899677L79.46285714285715,131.61342637480416L79.56,131.63370700178325L79.85142857142858,131.67759772915426L79.94857142857143,131.86775322748483L80.04571428571428,132.35480317834288L80.24,132.37376713458568L80.4342857142857,131.3543380215634L81.01714285714286,131.18846063173683L81.30857142857143,131.3877598578928L81.40571428571428,131.43471020568506L81.69714285714286,128.7687778973216L81.7942857142857,128.99224791811483L81.89142857142856,128.8279047960446L82.08571428571427,127.5884547325771L82.18285714285715,127.66756875794498L82.76571428571428,128.10987062128112L83.15428571428572,128.60312126003745L83.25142857142856,128.8271935368958L83.44571428571429,128.7681474113233L83.64,129.48698539763012L83.83428571428571,129.75566578872935L83.93142857142857,129.93863388615156L84.02857142857144,130.31870528504837L84.12571428571428,131.0754476224869L84.22285714285715,131.05421331842152L84.51428571428572,131.3120671596566L84.70857142857143,131.3979504662549L84.90285714285714,130.91561905089247L85.19428571428571,131.03543347628897L85.38857142857144,131.389931100141L85.48571428571428,131.83006601984022L85.58285714285715,131.27301694630057L85.97142857142856,131.15590673856101L86.16571428571429,131.11564780352535L86.26285714285713,131.5783814283616L86.45714285714286,131.52151563581106L86.74857142857144,131.34344018556402L87.13714285714285,131.6169372813636L87.42857142857143,131.56446917298348L87.72,131.6068269945735L87.81714285714285,131.23459315429426L88.01142857142857,131.57948165469023L88.2057142857143,131.79038606147893L88.4,131.7966726634081L88.88571428571429,132.09920673304762L89.17714285714285,132.59716680706114L89.37142857142857,132.43214871868773L89.66285714285713,132.61606673117467L90.44,132.5475096865167L90.82857142857142,132.76429125800297L91.21714285714286,132.40119935646607L91.41142857142857,132.5256605981458L91.50857142857143,132.80867270256027L91.89714285714285,133.01888620976595L92.09142857142858,133.27899066320649L92.18857142857142,133.44329271012822L92.48,133.90765747209622L92.6742857142857,134.0262177958922L92.86857142857143,134.18730254544346L93.16000000000001,134.06200857560626L93.35428571428571,134.40205471204584L93.45142857142858,134.0862700904763L93.64571428571429,133.7916332397298L94.03428571428572,133.91652361435158L94.42285714285714,133.99033386235422L95.10285714285715,133.81816114881278L95.19999999999999,133.4508946290491L95.29714285714286,133.82180778678617L95.39428571428572,133.79814029504658L95.58857142857143,133.82733892753086L95.6857142857143,133.83930245381595L95.88,134.05977440942664L95.97714285714287,134.0272730936693L96.07428571428571,133.65421552578619L96.36571428571428,133.6411432710245L96.46285714285715,134.05217329674326L96.56,133.7183095039132L96.65714285714286,134.17233998277305L96.85142857142858,133.39914150083115L97.4342857142857,133.37361173141872L97.53142857142858,133.9803672955692L97.82285714285715,134.23278997293838L98.50285714285715,134.022012742693L98.7942857142857,133.5538395052015L99.47428571428571,133.38075681509767L99.57142857142857,133.3423585312425L99.66857142857143,133.42644385937888L99.86285714285715,133.55500862399373L99.96,132.45296537476912L100.05714285714286,132.58755725767227L100.34857142857143,131.90039574084244L100.44571428571429,132.4608398703715L100.64,132.52724603756403L100.83428571428571,132.5336912764543L100.93142857142857,133.02580504565037L101.32,133.40459285126173L101.41714285714285,133.71100487890052L101.80571428571429,133.51604676308682L101.90285714285714,133.58690755148015L102,133.88841502450796L102.09714285714286,134.02286002561056L102.38857142857144,134.24234295887663L102.48571428571428,134.30815887843497L102.58285714285715,134.0591970144332L102.87428571428572,134.14829793454638L102.97142857142856,134.1010151171629L103.74857142857144,134.29435461505977L104.13714285714285,134.29206285156755L104.33142857142857,134.57730875332538L104.52571428571429,134.8684707496845L104.62285714285714,134.6358465748499L104.91428571428573,134.61321404461984L105.01142857142857,134.82761581276748L105.2057142857143,134.63910337683348L105.30285714285714,134.49297515279392L105.4,134.97571470263537L105.49714285714285,135.32213528958525L105.78857142857142,135.53134933166666L106.5657142857143,135.50913044788874L106.76,135.70588486289955L106.95428571428572,135.95976672056617L107.14857142857142,136.39284806981655L107.24571428571429,136.33977933935566L107.53714285714285,135.88094749273645L107.73142857142857,135.84598596340183L107.82857142857142,135.56858148125153L107.92571428571429,135.47826792046342L108.41142857142857,135.80885815999866L109.09142857142858,135.57560851915446L109.18857142857142,136.13107537558605L109.48,136.26127474122464L109.6742857142857,136.3079978832638L110.25714285714285,136.2930695064994L110.35428571428571,136.56821969215036L110.54857142857142,136.18131593362514L110.74285714285715,135.74177651596642L111.13142857142857,135.87764111911116L111.52,136.11269714613132L111.71428571428571,136.07003846466438L112.19999999999999,135.98176551124132L112.29714285714286,136.31012411763265L112.39428571428572,136.63606343914677L113.07428571428571,136.73917291570967L113.17142857142858,136.86430060963477L113.75428571428571,136.910540892969L113.94857142857143,137.32350122601542L114.14285714285714,137.44345927173342L114.24,136.91173630619127L114.33714285714287,137.11382318709883L115.21142857142858,137.01537096496023L115.40571428571428,137.09799497582094L115.69714285714286,137.172077470799L116.08571428571427,137.21752858614482L116.28,137.23187155305578L116.37714285714286,137.25234223475596L116.76571428571428,137.6441559520481L116.86285714285715,137.8141299026691L117.05714285714286,137.52133360404656L117.15428571428572,137.36261352370715L117.25142857142856,137.17303269788644L117.54285714285714,136.98281172965943L117.64,136.6732298640435L118.61142857142856,136.64123348825936L118.80571428571429,136.92175674597044L118.90285714285714,136.70363033739997L119.19428571428571,136.54893813550532L119.29142857142857,136.27552602263194L119.38857142857144,136.2457852068553L119.68,136.1506053548991L119.77714285714285,136.23867673859147L119.87428571428572,136.59910364247762L121.33142857142857,136.97879359598312L121.62285714285714,136.669924691443L121.81714285714285,136.57701884301463L121.91428571428573,136.52347452619588L122.10857142857144,136.37584856656372L122.2057142857143,136.2029330457128L122.49714285714285,136.0977772352104L122.78857142857142,136.22231761263697L122.88571428571429,136.478712015021L122.98285714285714,136.8323717501085L123.08,136.8338030912934L123.27428571428572,137.08328637801654L123.46857142857142,137.31326203428753L123.66285714285713,137.5784773864285L123.85714285714286,137.7580892523424L123.95428571428572,137.5150269451773L124.14857142857142,137.46347695437396L124.34285714285714,137.67613619933806L124.53714285714285,137.32659116993523L124.63428571428572,137.61119624990613L124.73142857142857,137.64653347357356L124.82857142857142,137.71880637603206L124.92571428571429,137.72842995040483L125.89714285714285,137.53414798213927L126.28571428571429,137.41025775692134L126.6742857142857,137.42015190372777L126.77142857142857,137.76758513829952L126.86857142857143,137.99396981626563L127.06285714285714,137.87333484919318L127.35428571428571,136.69881886996362L127.64571428571429,136.79885078979083L127.83999999999999,137.10688408819286L128.1314285714286,137.2054550830425L128.3257142857143,137.11653811833526L128.71428571428572,137.61867021206464L128.90857142857143,137.77711559824175L129.10285714285715,137.93578146104375L129.2,137.42883127972942L129.49142857142857,137.37275348758996L129.5885714285714,137.50384336517308L129.68571428571428,137.8183879940409L129.78285714285715,138.07551089447108L129.97714285714287,137.45250826600267L130.46285714285713,137.1636981935226L130.75428571428571,137.37779399034153L131.24,137.36198410685108L131.43428571428572,137.25075098608883L131.82285714285715,137.21476045678742L132.01714285714286,136.2808192101343L132.40571428571428,136.7748972337102L132.50285714285715,137.02309859043254L132.6,136.65005046119825L132.69714285714286,136.7057844179481L132.89142857142858,136.81641475082998L133.18285714285716,137.0485695360122L133.28,137.31438807194667L133.4742857142857,137.74087548537076L133.57142857142856,137.56747187170564L134.25142857142856,137.81481152101986L134.44571428571427,137.9148299051387L134.73714285714286,138.40863231917862L134.83428571428573,137.86112273929785L135.12571428571428,137.29371172298207L135.22285714285715,137.37780463105423L135.70857142857145,137.6333232583526L135.8057142857143,138.11906302849835L135.90285714285716,138.374617311206L136.1942857142857,138.74890382521463L136.38857142857142,139.01520991414588L136.4857142857143,138.8683424136965L136.58285714285714,138.9879393282652L136.67999999999998,139.28893985569863L136.77714285714288,139.48090776768905L136.87428571428572,139.6180450287543L137.45714285714286,139.53823198152554L137.94285714285712,139.2738963144664L138.04,139.34855953163395L138.13714285714286,139.2967919063002L138.62285714285716,139.28916877440716L139.01142857142858,139.3518240665821L139.2057142857143,139.170052396338L139.30285714285714,139.15641354176063L139.69142857142856,139.05803512643246L140.08,139.33498130058055L140.76,139.27878088647986L140.95428571428573,139.42808935066824L141.24571428571429,139.36302822457134L141.44,139.45056858783246L141.53714285714287,139.22834756142495L141.82857142857145,139.44453042665293L141.9257142857143,138.728145105758L142.12,138.932544080148L142.21714285714287,138.7631450488353L142.50857142857143,138.5045088565652L144.16,138.66285650183573L144.25714285714287,138.944049854403L144.3542857142857,138.87069728084907L144.45142857142855,139.2343253700164L144.84,138.94592931114903L145.1314285714286,138.73746494409846L145.52,138.6550604380871L145.61714285714285,138.78030819441378L145.71428571428572,138.92683875081048L146.10285714285715,138.59450284590332L146.2,139.16479864396737L146.29714285714283,139.44968305652998L146.49142857142857,139.69264275165722L146.68571428571428,139.76546960816032L146.88,139.7269315041177L147.0742857142857,139.7762823915615L147.85142857142858,139.91095612147504L148.33714285714285,139.6953327404222L148.43428571428572,139.251235643542L149.30857142857144,139.15297917863796L149.40571428571428,138.8065681442164L150.47428571428574,138.46490314143705L150.86285714285714,138.3488724926285L150.96,138.29198868657008L151.25142857142856,138.49179744349289L151.3485714285714,138.8412675439001L151.64,138.88276719168644L151.8342857142857,138.98171269515774L151.93142857142857,138.70227070339948L152.02857142857144,138.58453480047646L152.70857142857142,137.9776960886588L152.8057142857143,137.42936056165914L152.90285714285716,137.3952931722888L153,137.52648482660754L153.29142857142858,136.8078848008174L153.4857142857143,136.31411274412613L153.58285714285714,136.0192579300207L153.67999999999998,136.20655403634464L153.77714285714288,135.8282354863611L154.45714285714286,136.01022006569679L154.94285714285712,136.19261220795298L155.04,136.35279387107101L155.33142857142857,136.57643918279356L156.01142857142858,136.96466689184498L156.2057142857143,137.3878242424205L157.17714285714285,137.91003668627354L157.3714285714286,138.29112145775267L157.66285714285715,138.53101584257405L157.76,138.67573611019372L157.95428571428573,138.94411414243956L158.05142857142857,139.3297698286288L158.6342857142857,139.33322413265108L158.73142857142855,139.42044041442796L159.31428571428572,139.71997113540286L159.4114285714286,139.62478206273823L160.28571428571428,140.03225061411115L160.67428571428573,140.12656116564997L160.8685714285714,140.31719558539695L161.25714285714287,140.10677429644088L161.84,140.06728712726212L162.1314285714286,140.20338325966654L162.32571428571427,140.29934673206185L162.61714285714285,139.97649994060419L162.81142857142856,139.63370418732802L162.90857142857143,139.26655207075345L163.29714285714283,139.3532442720828L163.39428571428573,139.4947454663694L163.5885714285714,139.11190040104808L163.68571428571428,139.26702959549786L163.88,139.2950168864732L164.17142857142855,139.00055840899253L164.3657142857143,139.33683984744974L164.75428571428571,139.8366451032961L164.94857142857143,139.55682478536133L165.04571428571427,139.61671222800695L165.14285714285714,139.92907000381962L165.33714285714285,140.04021598769367L165.53142857142856,139.73490719452556L165.7257142857143,138.72733337735835L166.01714285714286,139.04812931124349L166.30857142857144,139.0425623533944L166.40571428571428,139.21582340560272L166.50285714285712,139.6808116796188L166.7942857142857,139.47001151749797L167.0857142857143,139.30015912190376L167.47428571428574,139.37758860516473L167.7657142857143,139.6774411993735L168.15428571428572,139.80108196529747L168.25142857142856,139.98025842967562L168.3485714285714,140.23375632259808L169.02857142857144,140.4228330474287L169.22285714285712,139.75424479343891L169.32000000000002,140.15759346508926L169.41714285714286,139.78020528402095L169.70857142857142,140.08754422352877L169.8057142857143,138.95170353132036L170.38857142857142,139.02592633110388L170.4857142857143,139.36259270533733L170.58285714285714,139.71669064901602L170.87428571428572,139.8274523530444L171.26285714285714,139.67552569106815L171.36,139.44390266199028L171.5542857142857,139.70603274732954L171.6514285714286,139.92960715563822L171.74857142857144,139.09810692498257L171.84571428571428,138.70117183573836L172.04,138.53644682991134L172.33142857142857,138.2517216753679L172.62285714285716,138.23723529420673L173.01142857142858,138.19026735265732L173.10857142857142,137.78544730377828L173.59428571428572,137.9883009270688L173.78857142857143,138.25996475301923L173.88571428571427,138.40956908244968L173.98285714285714,138.5025495867051L174.3714285714286,138.28158068845957L174.66285714285715,138.51335302257107L174.85714285714286,138.24750499708816L175.24571428571429,139.09191272500644L175.34285714285716,139.224294956807L175.44,139.31068439518177L175.53714285714287,139.51554087083062L175.73142857142855,139.720731867263L176.21714285714287,139.63317706363617L176.31428571428572,139.91493835699364L176.50857142857143,139.9157036642433L176.60571428571427,140.01896876075597L176.70285714285717,140.0870814330694L176.9942857142857,140.57708561898502L177.18857142857144,141.03221671644727L177.28571428571428,140.9531093880973L177.38285714285715,141.08217725105519L178.16,141.292040307006L178.25714285714287,141.31462584799414L178.54857142857145,141.26687024780637L179.42285714285717,141.2375221498179L180.0057142857143,141.06175306496098L180.10285714285715,141.29557313167726L180.68571428571428,141.10053063954373L180.78285714285713,141.24748710061334L180.88,140.99121481394394L181.0742857142857,140.93860112942397L181.17142857142855,141.15059501881058L181.26857142857145,141.45293097386715L181.65714285714284,141.34037090927555L182.04571428571427,140.61849917173788L182.24,140.4876090345052L182.33714285714285,140.28094188120141L183.11428571428573,140.48231891166722L183.21142857142857,140.4190106266945L183.50285714285712,140.1103110017551L183.7942857142857,140.53047583053834L184.18285714285716,140.75512103586533L184.37714285714284,140.75879070704178L184.7657142857143,140.51294754566018L185.25142857142856,140.70674831734925L185.3485714285714,140.706382347897L185.73714285714286,140.50843806717162L185.8342857142857,140.67938349716508L186.12571428571428,140.62468809183588L186.22285714285712,140.6413196489329L186.32000000000002,140.63864362890786L186.61142857142858,140.85909388972138L187,141.0511994545276L187.1942857142857,140.75799009524854L187.38857142857142,140.94845812219836L187.4857142857143,140.9108480717677L187.58285714285714,141.0543450587795L188.26285714285714,141.17787679405953L188.45714285714286,141.13537001529699L188.5542857142857,141.12560321066363L189.13714285714286,141.33462709183183L189.2342857142857,141.43111956344035L189.33142857142857,141.81490032920777L189.52571428571426,142.07385741172666L189.72,142.16278863857318L190.69142857142856,142.51860277136817L190.88571428571427,142.69076917193155L191.76,142.413550272183L192.14857142857142,142.5787576608763L192.6342857142857,142.82414452970792L192.73142857142855,142.4842153798823L192.82857142857145,142.3257892747111L193.12,141.52413984572905L193.21714285714287,141.5659508794557L193.31428571428572,141.2070292787149L193.4114285714286,140.97847856443522L193.8,141.2616847247102L193.89714285714285,141.55811001823156L193.9942857142857,141.46360459022029L194.28571428571428,141.14696317993673L194.48,141.5357341402402L194.67428571428573,141.5022803579651L194.8685714285714,141.68548360091089L194.96571428571428,141.97296483751532L195.06285714285715,142.1709268244458L195.25714285714287,142.2613183542897L195.3542857142857,142.42128480101454L195.84,141.89538276387367L196.1314285714286,141.96439363257963L196.32571428571427,141.74683038825674L196.61714285714285,141.71208923251822L196.90857142857143,141.84714135400708L197.0057142857143,141.76093810109404L197.2,142.00791059343084L197.39428571428573,142.13064509398995L197.97714285714287,142.3214848809341L198.0742857142857,142.58626732492235L198.26857142857145,142.1064307802658L198.46285714285713,141.99160088308932L199.33714285714285,142.22132708960385L199.43428571428572,142.23697967002272L199.53142857142856,141.95156743024626L199.6285714285714,142.04141187619675L200.7942857142857,142.1262617093116L200.98857142857142,141.9707433725545L201.18285714285716,142.04421970858212L201.37714285714284,141.7607320324612L201.7657142857143,141.79539793561347L201.86285714285714,141.63637602590308L201.96,141.9728783594298L202.15428571428572,141.93291281150482L202.25142857142856,141.74038918591037L202.54285714285714,141.63476816766155L202.64,141.69280698165412L202.73714285714286,142.01652247225766L202.93142857142857,142.06897434457116L203.41714285714286,141.94591590296648L203.70857142857142,141.8947814507497L203.90285714285716,142.13103874537873L204,142.24377924628615L204.1942857142857,142.0542095566426L204.4857142857143,142.22039270474528L204.77714285714288,141.82105870358913L204.97142857142856,141.87801454232243L205.26285714285714,141.82545307023668L205.5542857142857,141.95551275266828L205.6514285714286,142.12864854590052L205.94285714285712,142.0822251575686L206.13714285714286,141.67719680750002L206.2342857142857,141.57239209933041L207.01142857142858,141.7429410708857L207.10857142857142,141.68875272141875L207.30285714285714,141.6316473047578L207.78857142857143,141.67060911211854L208.2742857142857,141.35801542827394L208.3714285714286,141.38601151432607L208.46857142857144,141.47047826366116L208.66285714285715,141.7059681695111L208.76,141.82104013189647L208.95428571428573,141.70241829825684L209.14857142857142,141.9291473736801L209.44,142.2400620701384L209.53714285714287,142.13818969170953L209.9257142857143,142.0349002718438L210.4114285714286,142.17958747639304L210.60571428571427,142.1022457513598L211.18857142857144,142.1989771515179L211.28571428571428,142.56998370934426L211.38285714285715,142.52550992257483L211.48,142.40510539013522L211.57714285714283,142.39104150995306L211.8685714285714,142.6406721503283L212.06285714285715,142.7675730361367L212.3542857142857,142.88040968266625L212.45142857142855,142.97558179016582L212.74285714285713,143.35007316610245L212.93714285714285,143.26486735731368L213.1314285714286,143.21820349656852L213.22857142857143,143.17825041536392L213.32571428571427,143.1119727773465L213.71428571428572,143.1141021477188L214.10285714285715,143.01342002165595L214.2,142.9175725017325L214.29714285714283,142.9827382842832L214.68571428571428,143.1384345607693L214.78285714285713,143.05549931561183L214.97714285714287,142.69316593531784L215.0742857142857,142.60203097215904L215.26857142857145,142.56836206319537L215.3657142857143,142.67688986785174L215.46285714285713,142.7087297095591L215.65714285714284,142.85729822125717L215.75428571428571,142.69716014991832L215.85142857142858,142.38441769955128L215.94857142857143,142.6117523047615L216.24,142.3795369565447L216.43428571428572,142.2655219502138L216.53142857142856,142.2931824193748L217.11428571428573,142.21216583432542L217.21142857142857,142.11179543804425L217.30857142857144,141.73109536757391L217.69714285714286,141.83506591325138L217.89142857142858,141.76405960940406L218.0857142857143,141.60464464753872L218.47428571428574,141.90977048141917L219.15428571428572,141.79542685730257L219.4457142857143,141.79298382404605L219.64,142.03102540206984L219.8342857142857,142.16797373158448L219.93142857142857,142.44455694213414L220.12571428571428,142.2755006907402L220.32000000000002,142.12113020411527L220.5142857142857,142.11622695695078L220.61142857142858,141.63943815328938L220.70857142857142,141.04740455696955L221,140.46610056781975L221.09714285714284,140.16759316956632L221.38857142857142,140.1566561791965L221.4857142857143,140.53528273979762L221.77714285714288,140.658786175874L222.06857142857143,140.76311197351626L222.45714285714286,140.7286946095818L223.04,140.34536246335037L223.13714285714286,140.48397378351723L223.42857142857142,140.887540270464L223.52571428571426,141.03055301798028L223.72,141.23121775531155L223.9142857142857,141.29499097016952L224.01142857142858,141.26068949161873L224.2057142857143,141.4139612915189L224.30285714285714,141.39196905237154L224.49714285714288,141.75712451314166L224.59428571428572,141.5118262621151L224.69142857142856,141.7926463045594L224.78857142857143,142.08946224120663L224.98285714285714,142.29585300239896L225.17714285714285,142.05919157903148L225.2742857142857,142.28390420358673L225.66285714285715,142.47252872182096L225.76,142.79610711683068L225.95428571428573,142.51408566136087L226.24571428571429,142.87307880173694L226.44,142.71935376162077L226.73142857142855,143.01330985123263L227.31428571428572,142.86934073619648L227.89714285714285,142.80055822552433L228.28571428571428,142.90625954481877L228.57714285714283,142.83915627683672L229.06285714285715,142.73909557341003L229.25714285714287,142.632497267691L229.54857142857145,142.72393561496048L230.1314285714286,142.71919364623258L230.22857142857143,142.32499699473132L230.42285714285717,142.47400793399035L230.71428571428572,142.48756711933686L231.0057142857143,142.5311759015444L231.10285714285715,142.3933191421408L231.2,142.2525415690779L232.0742857142857,142.29702400062985L232.17142857142855,142.2874718539728L232.26857142857145,142.1920983765669L232.3657142857143,142.24515327901048L232.56,142.62489382728376L232.75428571428571,142.78794156585133L233.04571428571427,142.9305698316569L233.14285714285714,143.0006927045715L233.53142857142856,142.7863974596646L233.7257142857143,142.6334353616556L233.82285714285715,142.65698540462458L233.92,142.82781759910463L234.01714285714286,142.6221358827661L234.7942857142857,142.08760550211142L235.66857142857143,142.33603609869584L235.86285714285714,142.21157748183802L236.15428571428572,142.405989314631L236.64,142.5547523497412L236.93142857142857,142.69877311118725L237.02857142857144,142.8650498932607L237.32000000000002,142.7310498093052L237.70857142857142,142.66024356861493L238,142.5592920361582L238.1942857142857,142.7760693343014L238.38857142857142,142.4975937255293L238.67999999999998,142.3613413308096L238.97142857142856,142.41761839487748L239.06857142857143,141.92778194405605L239.1657142857143,142.05070491384103L239.36,141.885569351516L240.13714285714286,141.8583628940232L240.33142857142857,142.23440865163218L240.52571428571426,142.31657776738226L240.72,142.34704621220914L241.2057142857143,142.6251473811558L241.69142857142856,142.4829259054119L242.08,141.94855869300991L242.46857142857144,142.00920027288686L242.56571428571428,142.31829407167498L242.66285714285715,142.47453531708408L243.05142857142857,142.49166270731905L243.34285714285716,142.49535086451166L243.6342857142857,142.74067844501587L244.12,142.86252645999343L244.4114285714286,142.8174360251555L244.60571428571427,142.85902884554184L244.9942857142857,142.67003723820844L245.09142857142857,142.67181033968723L245.18857142857144,142.98147663935148L245.28571428571428,143.1990356823804L245.48,143.36832128318247L245.67428571428573,143.19537370107074L245.96571428571428,143.23153395179568L246.25714285714287,143.30508683328964L246.3542857142857,143.0037139071869L246.54857142857145,143.00986737365915L246.74285714285713,143.11264761958222L247.42285714285717,143.18176255094875L247.71428571428572,143.16655958048355L247.81142857142856,142.7728641518543L248.0057142857143,142.58543463224402L248.2,142.19462083791194L248.39428571428573,141.9179884620734L248.49142857142857,141.88056079539174L248.68571428571428,142.01269538441716L248.97714285714287,142.08690958764396L249.17142857142855,142.39611867214705L249.46285714285713,142.3071646150885L249.65714285714284,141.84513797673029L249.94857142857143,141.7556571442772L250.04571428571427,140.8382315266056L250.14285714285714,140.76377125540378L251.11428571428573,140.96560270933028L251.21142857142857,141.3399485681059L251.40571428571428,141.40301823297483L251.50285714285712,141.40840483387947L251.60000000000002,141.48888064268573L251.69714285714286,141.59346501710104L251.98857142857142,141.86616872333596L252.0857142857143,141.89694666191735L252.28,142.0724131996052L252.57142857142858,141.8986841079135L252.7657142857143,141.64988991990694L252.96,141.80700847039435L253.15428571428572,141.87458358926563L254.02857142857144,142.13185822693123L254.12571428571428,142.31027626656038L254.41714285714286,142.7553920825718L254.61142857142858,142.83383785654837L254.8057142857143,142.23429850473306L255,142.13972225318452L255.1942857142857,142.20731961467496L255.29142857142858,141.81585742505848L255.58285714285714,141.42291923381407L256.1657142857143,141.76133775543326L256.2628571428572,142.02095470323357L256.6514285714286,142.10651650114096L256.9428571428571,142.13015875707362L257.2342857142857,142.20294754553794L257.42857142857144,141.50365394012502L257.5257142857143,141.63135511980573L257.9142857142857,141.3306456875202L258.30285714285714,141.3714791123328L258.4971428571429,141.45937086019615L258.5942857142857,141.6503880611003L258.69142857142856,141.51585957097706L258.7885714285714,141.7627017105589L258.88571428571424,141.83850718001634L259.1771428571428,142.28786131692488L259.5657142857143,142.16268848207133L259.66285714285715,142.1725000565407L259.76,142.4712762708415L260.1485714285714,142.36708040128082L260.24571428571426,142.37373606986893L260.44,142.383347114796L260.53714285714284,142.63429563077844L261.02285714285716,142.66356760136662L261.31428571428575,142.60934776595528L261.4114285714286,142.22203589786028L261.60571428571427,142.32683374493132L261.8,142.5419915796114L261.89714285714285,142.4619083206262L261.9942857142857,142.63214094046407L262.09142857142854,142.39544651451993L262.3828571428571,142.22469579306662L262.48,142.498485066792L262.57714285714286,142.24929628311955L262.6742857142857,142.5067273048335L262.9657142857143,142.71452254892122L263.0628571428572,142.92798806813784L263.25714285714287,143.19364031826296L263.84,143.34730923825015L264.13142857142856,143.27368397150747L264.42285714285714,143.03497501032584L264.52,143.1667361091798L264.90857142857146,142.88824622681" style="fill: none;" fill="none"></path></g></g></g></g><g opacity="0.2"><g><g><g><path stroke="rgb(255, 112, 67)" stroke-width="2px" d="M19.914285714285715,4.827471586374123L20.01142857142857,4.794451163365293L20.497142857142858,5.913277112520659L20.78857142857143,5.648183345794678L20.885714285714286,4.988248238196725L21.177142857142858,4.411721119513864L21.274285714285714,4.3669811395498375L21.37142857142857,4.8746925867520785L21.76,4.954264787527225L22.925714285714285,7.606948962578402L23.314285714285713,7.362258324256295L23.50857142857143,7.237048405867346L23.702857142857145,7.904410252204293L23.799999999999997,8.23717711522028L23.994285714285716,9.527291407951937L24.577142857142857,10.806894008929905L24.674285714285716,13.079818835625277L24.77142857142857,15.766160011291504L24.86857142857143,13.702669217036318L24.965714285714288,16.570451332972596L25.548571428571428,25.038418843195984L25.74285714285714,28.02898698586683L25.93714285714286,26.416136008042546L26.034285714285712,30.366238795793976L26.325714285714284,37.094056129455566L26.422857142857143,38.92490229239829L26.52,39.6415009681995L26.617142857142856,41.93683659113372L27.102857142857143,43.42885208129883L27.588571428571427,56.07874272419857L27.88,60.249223782466025L27.977142857142855,69.15259405282828L28.56,75.93762991978573L29.337142857142858,72.85377051280096L29.62857142857143,78.94927857472348L29.725714285714286,91.06430528714108L30.405714285714286,94.93277107752289L30.697142857142854,90.5141226878533L30.891428571428573,87.47027789629425L31.571428571428573,95.53281892262973L31.668571428571425,103.8911930689445L19.525714285714287,5.030017522665164L19.622857142857143,3.665488940018865L20.302857142857146,5.804830404428322L20.497142857142858,3.0941686997046824L20.69142857142857,4.812536496382482L20.78857142857143,4.644398395831761L20.885714285714286,3.752553169543919L21.565714285714282,5.452394925631011L22.051428571428573,5.601011312924897L22.245714285714286,5.495159882765539L22.34285714285714,5.387725169842048L22.731428571428573,5.761657384725711L23.217142857142857,5.257455275608946L23.314285714285713,7.040868245638335L23.605714285714285,8.032362351050729L24.18857142857143,10.724530660189117L24.285714285714285,11.193688355959381L24.48,10.834299491002012L24.77142857142857,14.5178966155419L24.965714285714288,16.044703520261322L25.06285714285714,16.94870901107788L25.25714285714286,21.301626682281494L25.451428571428572,22.609761018019444L25.548571428571428,18.374985621525695L26.22857142857143,29.656781214934117L27.005714285714284,50.983591886667114L27.102857142857143,50.30145817536575L27.200000000000003,52.7056567302117L27.588571428571427,63.820285411981445L28.56,65.5836869936723L28.65714285714286,66.00940234844502L28.85142857142857,76.03665038255545L29.24,81.89034056663513L29.53142857142857,82.28599803264325L29.62857142857143,78.28136176329394L29.725714285714286,87.76019818966205L30.017142857142858,91.84796496538016L31.18285714285714,100.00569066634546L31.765714285714285,99.3246138370954L32.05714285714286,94.80434562609747L32.251428571428576,101.70297387013068L32.348571428571425,100.89815614773676L32.542857142857144,97.18385231494904L32.93142857142857,105.74827765501465L33.32,101.46979875747974L33.51428571428572,104.5416896893428L34,104.72839871736674L34.582857142857144,108.67651832103729L35.26285714285714,112.79018074732562L35.36,105.53918231450595L35.84571428571429,119.6152230684574L35.94285714285714,112.43559069816882L36.33142857142857,110.35889907983633L36.42857142857143,104.11064503743097L36.81714285714286,105.7202682403418L36.91428571428571,116.37272933813243L37.10857142857143,106.84611694629376L37.400000000000006,110.22692756469434L37.885714285714286,100.6206001501817L37.98285714285714,113.1360219350228L38.080000000000005,115.0293261546355L38.565714285714286,107.81937881616446L38.66285714285715,113.92259109937228L38.76,112.92183397366449L39.05142857142857,117.29536288518173L39.92571428571429,116.02042443935687L40.12,106.52141748024866L40.50857142857143,117.56945851215949L40.70285714285714,116.14134153952966L40.8,120.12292635440826L41.285714285714285,112.45625906724197L41.38285714285714,124.50161725741168L41.965714285714284,121.18774930330424L42.25714285714286,122.6823437488996L42.645714285714284,112.47307940629813L43.034285714285716,110.16812982926001L43.22857142857143,121.15720990070929L43.61714285714286,116.61401673463675L43.714285714285715,122.86307057967554L43.81142857142857,118.38892976137309L44.005714285714284,120.97725022756137L44.49142857142857,117.18773638285126L44.58857142857143,122.05562901496887L44.97714285714286,123.77563722317035L45.07428571428571,121.0720268396231L45.17142857142857,118.9303349348215L46.628571428571426,120.30274728628306L47.308571428571426,123.4179458984962L47.40571428571429,120.55005768629222L47.89142857142857,127.5966739012645L47.98857142857143,122.68009940477519L48.18285714285714,120.05695079840149L48.37714285714286,122.55503230828506L48.76571428571429,125.6021538422658L49.64,129.2934755912194L49.83428571428571,118.97382216270154L49.931428571428576,122.03056989266321L50.222857142857144,122.34011391492992L50.80571428571428,120.00272744435532L51.582857142857144,121.81525159799136L51.68,124.67939379582037L51.97142857142857,125.55472064935245L52.068571428571424,123.23253042881305L52.36,120.1238526564378L52.45714285714286,124.4755665430656L52.94285714285714,127.384546655875L53.04,125.10315453089203L54.10857142857143,123.77952605944415L54.400000000000006,125.06045894439404L54.497142857142855,119.13584748598247L54.691428571428574,129.00499983934256L54.885714285714286,128.9086195413883L55.177142857142854,127.91402007983282L56.245714285714286,119.75391945472131L56.73142857142857,128.29504442214966L56.92571428571429,127.45671660166522L57.21714285714285,125.41434304530804L57.41142857142857,125.33200826094702L57.89714285714285,116.79123830795288L57.994285714285716,127.16171184869914L58.57714285714286,125.73532506135794L58.77142857142857,132.17937364486548L58.868571428571435,129.6418590087157L59.06285714285714,123.78141946976001L59.16,126.3240614120777L59.25714285714286,127.983390716406L59.45142857142857,129.34501389356763L59.645714285714284,129.85467179921957L60.131428571428565,126.57684393112476L60.22857142857143,131.05060117061322L60.325714285714284,129.71318018436432L60.52,126.63842465327338L61.10285714285715,131.3789874819609L61.29714285714286,128.35801255702972L61.68571428571428,124.62127344424908L61.78285714285715,128.4263099890489L61.88,132.18012039936508L62.26857142857143,130.13570857048035L62.65714285714285,130.64552562053387L62.754285714285714,132.4136831714557L63.04571428571429,126.24301610543176L63.24,132.28479660932834L63.33714285714285,131.80663093236777L63.434285714285714,124.30634707670947L63.53142857142857,132.29302315070078L63.628571428571426,125.40414148110611L63.72571428571429,129.5962008879735L63.919999999999995,127.98259499439826L64.01714285714286,131.879286472614L64.50285714285715,127.02870385463422L64.6,127.99325766930212L64.98857142857143,127.04546706493085L65.28,131.52412717617477L65.47428571428571,126.42751343433673L66.05714285714285,132.441443667962L66.25142857142858,130.50681903270575L66.73714285714286,128.49793313099786L67.12571428571428,129.92831893150623L67.22285714285714,131.1836826159404L67.41714285714286,130.87551580484097L67.70857142857143,130.82180456931775L68.58285714285715,131.89758195785376L69.26285714285713,132.7851486481153L69.36,133.20268030808523L69.55428571428571,133.73228839269052L69.65142857142857,133.77406991903598L69.74857142857144,125.13774191416229L69.84571428571428,125.76047803805426L70.04,129.926417359939L70.33142857142857,129.46388251964862L70.72,130.95298648339053L70.81714285714285,127.73886738373682L71.2057142857143,129.64294037452112L71.49714285714285,128.20992665107434L71.88571428571429,133.5386545428863L72.17714285714285,133.725634932518L72.27428571428572,129.088518005151L72.37142857142857,126.34032270541559L72.46857142857142,131.11797230060284L72.5657142857143,129.754345536232L72.76,133.41138390852853L72.85714285714286,120.78803977599512L72.95428571428572,124.3881921859888L73.14857142857142,124.61114125068372L73.24571428571429,130.1553935087644L73.34285714285714,135.58848544267508L73.44,128.1629341657345L73.63428571428572,130.11868011951447L73.82857142857142,131.15313709240695L73.92571428571429,124.20174023738275L74.60571428571428,131.78700924378177L74.89714285714285,129.18696309969977L75.09142857142858,134.04648840885898L75.28571428571429,128.90304132608267L75.57714285714286,133.46563378664166L75.77142857142857,130.89452743988772L75.96571428571428,128.9136509528527L76.35428571428571,129.80010159199054L76.74285714285715,126.86875148919913L77.03428571428572,132.06475499043097L77.13142857142857,132.12176745212997L77.22857142857143,134.90890008211136L77.3257142857143,135.44390275386664L77.90857142857142,134.82756709135498L78.49142857142857,131.29003392274564L78.6857142857143,133.52376638009L78.78285714285714,132.56898974455322L78.88,131.55753321831043L79.17142857142858,132.1245830838497L79.46285714285715,130.27264620707587L79.56,131.81623264459463L79.85142857142858,132.07261427549216L79.94857142857143,133.57915271245517L80.04571428571428,136.73825273605493L80.24,132.54444274077048L80.4342857142857,122.17947600438043L81.01714285714286,129.69556412330041L81.30857142857143,133.18145289329382L81.40571428571428,131.85726333581485L81.69714285714286,104.77538712208087L81.7942857142857,131.00347810525162L81.89142857142856,127.34881669741412L82.08571428571427,116.43340416137988L82.18285714285715,128.37959498625537L82.76571428571428,132.09058739130313L83.15428571428572,133.04237700884158L83.25142857142856,130.84384402861963L83.44571428571429,128.23673228117138L83.64,135.95652727438855L83.83428571428571,132.17378930862134L83.93142857142857,131.58534676295062L84.02857142857144,133.73934787511826L84.12571428571428,137.88612865943176L84.22285714285715,130.86310458183289L84.51428571428572,133.63275173077216L84.70857142857143,132.17090022563934L84.90285714285714,126.57463631263147L85.19428571428571,132.11376330485712L85.38857142857144,134.58040971480884L85.48571428571428,135.79128029713263L85.58285714285715,126.25957528444438L85.97142857142856,130.101914868905L86.16571428571429,130.75331738820444L86.26285714285713,135.74298405188782L86.45714285714286,131.00972350285605L86.74857142857144,129.7407611333407L87.13714285714285,134.0784111435597L87.42857142857143,131.0922561975626L87.72,131.98804738888373L87.81714285714285,127.88448859178104L88.01142857142857,134.6834781582539L88.2057142857143,133.68852572257703L88.4,131.85325208077063L88.88571428571429,134.82201335980344L89.17714285714285,137.07880747318268L89.37142857142857,130.94698592332693L89.66285714285713,134.27132884355692L90.44,131.9304962845949L90.82857142857142,134.71532540137952L91.21714285714286,129.13337224263412L91.41142857142857,133.6458117732635L91.50857142857143,135.35578164229025L91.89714285714285,134.91080777461713L92.09142857142858,135.61993074417114L92.18857142857142,134.9220111324237L92.48,138.08694032980847L92.6742857142857,135.09326071005603L92.86857142857143,135.63706529140472L93.16000000000001,132.93436284707144L93.35428571428571,137.46246994000217L93.45142857142858,131.2442084963505L93.64571428571429,131.13990158301135L94.03428571428572,135.04053698594754L94.42285714285714,134.65462609437796L95.10285714285715,132.26860672693988L95.19999999999999,130.1454959511757L95.29714285714286,137.16002620642L95.39428571428572,133.58513286939035L95.58857142857143,134.0901266198892L95.6857142857143,133.94697419038187L95.88,136.0440220099229L95.97714285714287,133.73476125185306L96.07428571428571,130.29669741483838L96.36571428571428,133.52349297816937L96.46285714285715,137.75144352821204L96.56,130.71353536844254L96.65714285714286,138.2586142925116L96.85142857142858,126.44035516335413L97.4342857142857,133.14384380670697L97.53142857142858,139.44116737292364L97.82285714285715,136.50459406926083L98.50285714285715,132.12501767048468L98.7942857142857,129.3402803677779L99.47428571428571,131.82301260416324L99.57142857142857,132.99677397654608L99.66857142857143,134.18321181260623L99.86285714285715,134.7120915055275L99.96,122.53457613174731L100.05714285714286,133.7988842038008L100.34857142857143,125.71594208937427L100.44571428571429,137.5048370361328L100.64,133.12490154229678L100.83428571428571,132.59169842646673L100.93142857142857,137.45482896841492L101.32,136.8136831017641L101.41714285714285,136.46871312764975L101.80571428571429,131.76142372076328L101.90285714285714,134.2246546470202L102,136.60198228175824L102.09714285714286,135.2328650355339L102.38857142857144,136.2176893582711L102.48571428571428,134.90050215446033L102.58285714285715,131.8185402384171L102.87428571428572,134.95020621556503L102.97142857142856,133.6754697607114L103.74857142857144,136.03441009613184L104.13714285714285,134.27143698013748L104.33142857142857,137.1445218691459L104.52571428571429,137.48892871691632L104.62285714285714,132.54222900133868L104.91428571428573,134.40952127254928L105.01142857142857,136.75723172609622L105.2057142857143,132.94249145342752L105.30285714285714,133.17782113643796L105.4,139.32037065120844L105.49714285714285,138.43992057213416L105.78857142857142,137.41427571039935L106.5657142857143,135.3091604938874L106.76,137.47667459799695L106.95428571428572,138.2447034395658L107.14857142857142,140.29058021306992L107.24571428571429,135.86216076520773L107.53714285714285,131.75146087316367L107.73142857142857,135.53133219939014L107.82857142857142,133.07194114189883L107.92571428571429,134.66544587337054L108.41142857142857,138.78417031581586L109.09142857142858,133.4763617515564L109.18857142857142,141.13027708347028L109.48,137.43306903197217L109.6742857142857,136.7285061616164L110.25714285714285,136.15871411561966L110.35428571428571,139.04457136300894L110.54857142857142,132.69918210689838L110.74285714285715,131.78592175703784L111.13142857142857,137.10042254741376L111.52,138.22820138931274L111.71428571428571,135.68611033146198L112.19999999999999,135.18730893043372L112.29714285714286,139.26535157515454L112.39428571428572,139.56951733277396L113.07428571428571,137.6671582047756L113.17142857142858,137.99044985496081L113.75428571428571,137.32670344297702L113.94857142857143,141.0401442234333L114.14285714285714,138.52308168319556L114.24,132.1262296163119L114.33714285714287,138.93260511526694L115.21142857142858,136.12930096571262L115.40571428571428,137.84161107356732L115.69714285714286,137.83881992560168L116.08571428571427,137.62658862425732L116.28,137.3609582552543L116.37714285714286,137.43657837005762L116.76571428571428,141.1704794076773L116.86285714285715,139.34389545825812L117.05714285714286,134.88616691644376L117.15428571428572,135.93413280065243L117.25142857142856,135.4668052655L117.54285714285714,135.2708230156165L117.64,133.88699307350012L118.61142857142856,136.35326610620206L118.80571428571429,139.44646606537012L118.90285714285714,134.74049266026572L119.19428571428571,135.15670831845358L119.29142857142857,133.8148170067714L119.38857142857144,135.97811786486554L119.68,135.29398668729343L119.77714285714285,137.03131919182266L119.87428571428572,139.8429457774529L121.33142857142857,140.3960031775328L121.62285714285714,133.89010455058173L121.81714285714285,135.74086620715948L121.91428571428573,136.0415756748273L122.10857142857144,135.04721492987414L122.2057142857143,134.64669335805453L122.49714285714285,135.1513749406888L122.78857142857142,137.343181009476L122.88571428571429,138.78626163647726L122.98285714285714,140.0153093658961L123.08,136.8466851619574L123.27428571428572,139.32863595852484L123.46857142857142,139.38304294072665L123.66285714285713,139.96541555569723L123.85714285714286,139.37459604556744L123.95428571428572,135.32746618069137L124.14857142857142,136.9995270371437L124.34285714285714,139.5900694040152L124.53714285714285,134.18068590530982L124.63428571428572,140.1726419696441L124.73142857142857,137.9645684865805L124.82857142857142,138.3692624981587L124.92571428571429,137.8150421197598L125.89714285714285,135.7856102677492L126.28571428571429,136.29524572995993L126.6742857142857,137.50919922498557L126.77142857142857,140.8944842494451L126.86857142857143,140.03143191796084L127.06285714285714,136.78762014554098L127.35428571428571,126.12817505689769L127.64571428571429,137.69913806823584L127.83999999999999,139.87918377381106L128.1314285714286,138.09259403668918L128.3257142857143,136.31628543597003L128.71428571428572,142.13785905562915L128.90857142857143,139.2031240738355L129.10285714285715,139.36377422626202L129.2,132.8662796479005L129.49142857142857,136.86805335833478L129.5885714285714,138.6836522634213L129.68571428571428,140.64928965385144L129.78285714285715,140.38961699834238L129.97714285714287,131.8454846097873L130.46285714285713,134.56440754120166L130.75428571428571,139.30465616171176L131.24,137.2196951554372L131.43428571428572,136.2496528992286L131.82285714285715,136.89084569307474L132.01714285714286,127.8753479902561L132.40571428571428,141.22159944589322L132.50285714285715,139.25691080093384L132.6,133.29261729808957L132.69714285714286,137.2073900286968L132.89142857142858,137.8120877467669L133.18285714285716,139.13796260265204L133.28,139.706754895357L133.4742857142857,141.57926220618762L133.57142857142856,136.00683934871967L134.25142857142856,140.04086836484763L134.44571428571427,138.81499536220844L134.73714285714286,142.8528540455378L134.83428571428573,132.9335365203711L135.12571428571428,132.1870125761399L135.22285714285715,138.13464080370392L135.70857142857145,139.93299090403778L135.8057142857143,142.49072095981012L135.90285714285716,140.67460585557498L136.1942857142857,142.11748245129218L136.38857142857142,141.41196471452713L136.4857142857143,137.54653490965183L136.58285714285714,140.0643115593837L136.67999999999998,141.99794460259952L136.77714285714288,141.20861897560266L136.87428571428572,140.85228037834167L137.45714285714286,138.8199145564666L137.94285714285712,136.8948753109345L138.04,140.0205284861418L138.13714285714286,138.83088327829654L138.62285714285716,139.22056058736948L139.01142857142858,139.91572169615674L139.2057142857143,137.53410736414102L139.30285714285714,139.03366385056424L139.69142857142856,138.1726293884791L140.08,141.82749686791348L140.76,138.7729771595735L140.95428571428573,140.77186552836346L141.24571428571429,138.7774780896994L141.44,140.23843185718243L141.53714285714287,137.22835832375748L141.82857142857145,141.39017621370462L141.9257142857143,132.2806772177036L142.12,140.77213484965839L142.21714285714287,137.2385537670209L142.50857142857143,136.17678312613415L144.16,140.08798530927072L144.25714285714287,141.4747900275084L144.3542857142857,138.21052411886362L144.45142857142855,142.50697817252234L144.84,136.35036478134302L145.1314285714286,136.8612856406432L145.52,137.9134198839848L145.61714285714285,139.90753800135394L145.71428571428572,140.2456137583806L146.10285714285715,135.6034797017391L146.2,144.29746082654367L146.29714285714283,142.01364276959347L146.49142857142857,141.87928000780252L146.68571428571428,140.42091131668826L146.88,139.38008856773376L147.0742857142857,140.2204403785559L147.85142857142858,141.12301969069702L148.33714285714285,137.75472231094653L148.43428571428572,135.25436177162024L149.30857142857144,138.26867099450186L149.40571428571428,135.68886883442218L150.47428571428574,135.3899181164228L150.86285714285714,137.30459665335144L150.96,137.7800344320444L151.25142857142856,140.29007625579834L151.3485714285714,141.98649844756494L151.64,139.25626402176346L151.8342857142857,139.87222222639966L151.93142857142857,136.18729277757498L152.02857142857144,137.5249116741694L152.70857142857142,132.5161476823L152.8057142857143,132.4943408186619L152.90285714285716,137.08868666795584L153,138.7072097154764L153.29142857142858,130.34048456870593L153.4857142857143,131.87016423390463L153.58285714285714,133.36556460307196L153.67999999999998,137.89221899326031L153.77714285714288,132.423368536509L154.45714285714286,137.64808127971796L154.94285714285712,137.83414148825867L155.04,137.79442883913333L155.33142857142857,138.5892469882965L156.01142857142858,140.4587162733078L156.2057142857143,141.19624039760004L157.17714285714285,142.60994868095105L157.3714285714286,141.72088440106467L157.66285714285715,140.6900653059666L157.76,139.97821851877066L157.95428571428573,141.35951643265213L158.05142857142857,142.80067100433203L158.6342857142857,139.3643128688519L158.73142857142855,140.2053869504195L159.31428571428572,142.41574762417721L159.4114285714286,138.76808040875656L160.28571428571428,143.69946757646707L160.67428571428573,140.97535612949957L160.8685714285714,142.03290536311957L161.25714285714287,138.2129826958363L161.84,139.7119026046533L162.1314285714286,141.42824845130627L162.32571428571427,141.16301798362L162.61714285714285,137.07087881748492L162.81142857142856,136.54854240784277L162.90857142857143,135.9621830215821L163.29714285714283,140.13347408404718L163.39428571428573,140.7682562149488L163.5885714285714,135.66629481315613L163.68571428571428,140.66319234554584L163.88,139.54690250525107L164.17142857142855,136.35043211166675L164.3657142857143,142.36337279356445L164.75428571428571,144.33489240591342L164.94857142857143,137.03844192394843L165.04571428571427,140.15569921181753L165.14285714285714,142.74028998613358L165.33714285714285,141.04052984256012L165.53142857142856,136.98712805601266L165.7257142857143,129.65916902285358L166.01714285714286,141.93529271620972L166.30857142857144,138.9924597327526L166.40571428571428,140.77517287547772L166.50285714285712,143.8657061457634L166.7942857142857,137.57281005841037L167.0857142857143,137.771487561556L167.47428571428574,140.07445395451327L167.7657142857143,142.37611454725266L168.15428571428572,140.91384885861325L168.25142857142856,141.59284660907892L168.3485714285714,142.5152373589002L169.02857142857144,142.1245235709044L169.22285714285712,133.73695050753082L169.32000000000002,143.78773150994226L169.41714285714286,136.38371165440634L169.70857142857142,142.85359467909888L169.8057142857143,128.729137301445L170.38857142857142,139.69393152915515L170.4857142857143,142.39259007343878L170.58285714285714,142.90357214212418L170.87428571428572,140.82430768929996L171.26285714285714,138.30818573328165L171.36,137.3592954002894L171.5542857142857,142.0652035153829L171.6514285714286,141.94177683041647L171.74857142857144,131.6146048490818L171.84571428571428,135.12875603254025L172.04,137.05392177746847L172.33142857142857,135.68919528447665L172.62285714285716,138.10685786375632L173.01142857142858,137.76755587871259L173.10857142857142,134.14206686386694L173.59428571428572,139.8139835366836L173.78857142857143,140.70493918657303L173.88571428571427,139.75600804732397L173.98285714285714,139.33937412500381L174.3714285714286,136.2928606042495L174.66285714285715,140.59930402957477L174.85714285714286,135.85487276774188L175.24571428571429,146.69158227627094L175.34285714285716,140.41573504301218L175.44,140.08818934055475L175.53714285714287,141.35924915167L175.73142857142855,141.5674508351546L176.21714285714287,138.84518383099484L176.31428571428572,142.45078999721088L176.50857142857143,139.92259142949032L176.60571428571427,140.94835462936987L176.70285714285717,140.70009548388995L176.9942857142857,144.98712329222604L177.18857142857144,145.1283965936074L177.28571428571428,140.2411434329473L177.38285714285715,142.24378801767642L178.16,143.18080781056332L178.25714285714287,141.51789571688727L178.54857142857145,140.83706984611658L179.42285714285717,140.97338926792145L180.0057142857143,139.479831301249L180.10285714285715,143.39995373212375L180.68571428571428,139.34514821034213L180.78285714285713,142.57009525023975L180.88,138.68476423391928L181.0742857142857,140.46507796874414L181.17142857142855,143.0585400232902L181.26857142857145,144.17395456937643L181.65714285714284,140.327330327951L182.04571428571427,134.12165353389886L182.24,139.3095977994112L182.33714285714285,138.4209375014672L183.11428571428573,142.29471218585968L183.21142857142857,139.84923606193985L183.50285714285712,137.33201437730057L183.7942857142857,144.31195928958746L184.18285714285716,142.77692788380844L184.37714285714284,140.7918177476296L184.7657142857143,138.30035909322592L185.25142857142856,142.45095526255096L185.3485714285714,140.7030886228268L185.73714285714286,138.72693954064297L185.8342857142857,142.21789236710623L186.12571428571428,140.1324294438729L186.22285714285712,140.7910036628063L186.32000000000002,140.61455944868234L186.61142857142858,142.84314623704324L187,142.78014953778342L187.1942857142857,138.11910586173718L187.38857142857142,142.6626703647467L187.4857142857143,140.57235761789175L187.58285714285714,142.34581794188574L188.26285714285714,142.28966241157974L188.45714285714286,140.75280900643423L188.5542857142857,141.03770196896335L189.13714285714286,143.2158420223456L189.2342857142857,142.29955180791708L189.33142857142857,145.26892722111484L189.52571428571426,144.40447115439636L189.72,142.96316968019192L190.69142857142856,145.7209299665231L190.88571428571427,144.2402667770019L191.76,139.9185801744461L192.14857142857142,144.065624159116L192.6342857142857,145.0326263491924L192.73142857142855,139.4248530314519L192.82857142857145,140.8999543281702L193.12,134.30929498489087L193.21714285714287,141.94225018299545L193.31428571428572,137.97673487204773L193.4114285714286,138.92152213591797L193.8,143.81054016718497L193.89714285714285,144.22593765992386L193.9942857142857,140.613055738119L194.28571428571428,138.2971904873848L194.48,145.0346727829713L194.67428571428573,141.20119631748935L194.8685714285714,143.3343127874228L194.96571428571428,144.56029596695532L195.06285714285715,143.95258470681998L195.25714285714287,143.0748421228849L195.3542857142857,143.8609828215379L195.84,137.16226442960593L196.1314285714286,142.58549145093332L196.32571428571427,139.78876118935074L196.61714285714285,141.39941883087158L196.90857142857143,143.06261044740677L197.0057142857143,140.98510882487665L197.2,144.2306630244622L197.39428571428573,143.2352555990219L197.97714285714287,144.03904296343143L198.0742857142857,144.96930932081662L198.26857142857145,137.78790187835693L198.46285714285713,140.95813180850104L199.33714285714285,144.28886294823428L199.43428571428572,142.37785289379266L199.53142857142856,139.38285727225818L199.6285714285714,142.85001188975116L200.7942857142857,142.88991020734494L200.98857142857142,140.57107834174084L201.18285714285716,142.70550673283066L201.37714285714284,139.20934294737305L201.7657142857143,142.10739106398364L201.86285714285714,140.2051788385098L201.96,145.00139936117026L202.15428571428572,141.57322288018008L202.25142857142856,140.00767655556018L202.54285714285714,140.6841790034221L202.64,142.21515630758728L202.73714285714286,144.92996188768973L202.93142857142857,142.5410411953926L203.41714285714286,140.83838992852432L203.70857142857142,141.43457138079864L203.90285714285716,144.25735439704016L204,143.25844375445294L204.1942857142857,140.34808234985059L204.4857142857143,143.71604103766956L204.77714285714288,138.22705269318362L204.97142857142856,142.39061709092215L205.26285714285714,141.35239982146484L205.5542857142857,143.12604989455298L205.6514285714286,143.68687068499054L205.94285714285712,141.66441466258124L206.13714285714286,138.03194165688296L206.2342857142857,140.62914972580398L207.01142857142858,143.2778818148833L207.10857142857142,141.2010575762162L207.30285714285714,141.1176985548093L207.78857142857143,142.02126537836517L208.2742857142857,138.54467227367255L208.3714285714286,141.63797628879547L208.46857142857144,142.23067900767694L208.66285714285715,143.82537732216028L208.76,142.8566877933649L208.95428571428573,140.63482179550024L209.14857142857142,143.96970905248935L209.44,145.038294338263L209.53714285714287,141.22133828584964L209.9257142857143,141.10529549305255L210.4114285714286,143.48177231733615L210.60571428571427,141.40617022606042L211.18857142857144,143.06955975294113L211.28571428571428,145.90904272978122L211.38285714285715,142.12524584164987L211.48,141.32146459817886L211.57714285714283,142.26446658831378L211.8685714285714,144.88734791370538L212.06285714285715,143.9096810084123L212.3542857142857,143.89593950143228L212.45142857142855,143.83213075766196L212.74285714285713,146.72049554953207L212.93714285714285,142.4980150782145L213.1314285714286,142.7982287498621L213.22857142857143,142.81867268452277L213.32571428571427,142.5154740351897L213.71428571428572,143.13326648106943L214.10285714285715,142.10728088709024L214.2,142.05494482242145L214.29714285714283,143.5692303272394L214.68571428571428,144.53970104914447L214.78285714285713,142.30908210919455L214.97714285714287,139.43216551267184L215.0742857142857,141.78181630373L215.26857142857145,142.2653418825223L215.3657142857143,143.65364010975912L215.46285714285713,142.99528828492532L215.65714285714284,144.19441482653986L215.75428571428571,141.25591750786856L215.85142857142858,139.56973564624786L215.94857142857143,144.65776375165353L216.24,140.2895988225937L216.43428571428572,141.23938689323572L216.53142857142856,142.5421266418237L217.11428571428573,141.48301656888083L217.21142857142857,141.20846187151398L217.30857142857144,138.30479473334094L217.69714285714286,142.77080082434875L217.89142857142858,141.12500287477786L218.0857142857143,140.16990999075082L218.47428571428574,144.6559029863431L219.15428571428572,140.76633424025317L219.4457142857143,141.77099652473743L219.64,144.17339960428384L219.8342857142857,143.40050869721634L219.93142857142857,144.93380583708102L220.12571428571428,140.7539944281945L220.32000000000002,140.73179582449106L220.5142857142857,142.07209773247058L220.61142857142858,137.34833892033652L220.70857142857142,135.71910219009106L221,135.2343646654716L221.09714285714284,137.4810265852855L221.38857142857142,140.05822326586798L221.4857142857143,143.9429217852079L221.77714285714288,141.77031710056158L222.06857142857143,141.7020441522965L222.45714285714286,140.4189383341716L223.04,136.89537314726758L223.13714285714286,141.7314756650191L223.42857142857142,144.51963865298492L223.52571428571426,142.3176677456269L223.72,143.03720039129257L223.9142857142857,141.86894990389163L224.01142857142858,140.9519761846616L224.2057142857143,142.79340749062027L224.30285714285714,141.19403890004526L224.49714285714288,145.0435236600729L224.59428571428572,139.304142002876L224.69142857142856,144.32002668655835L224.78857142857143,144.76080567103168L224.98285714285714,144.15336985312976L225.17714285714285,139.9292387687243L225.2742857142857,144.3063178245838L225.66285714285715,144.1701493859291L225.76,145.70831267191812L225.95428571428573,139.97589256213263L226.24571428571429,146.10401706512158L226.44,141.3358284005752L226.73142857142855,145.6589146577395L227.31428571428572,141.57361870087112L227.89714285714285,142.18151562947494L228.28571428571428,143.85757141846878L228.57714285714283,142.23522686499817L229.06285714285715,141.83854924256985L229.25714285714287,141.67311251621982L229.54857142857145,143.5468807403858L230.1314285714286,142.67651592768158L230.22857142857143,138.77722713122L230.42285714285717,143.81510638732178L230.71428571428572,142.60959978745535L231.0057142857143,142.9236549414121L231.10285714285715,141.15260830750833L231.2,140.98554341151166L232.0742857142857,142.6973658845975L232.17142857142855,142.2015025340594L232.26857142857145,141.33373707991382L232.3657142857143,142.72264740100275L232.56,146.0425587617434L232.75428571428571,144.2553712129593L233.04571428571427,144.2142242239072L233.14285714285714,143.63179856080276L233.53142857142856,140.85774025550256L233.7257142857143,141.25677647957434L233.82285714285715,142.86893579134573L233.92,144.3653073494251L234.01714285714286,140.77100043571915L234.7942857142857,137.27683207621942L235.66857142857143,144.57191146795566L235.86285714285714,141.09144993011768L236.15428571428572,144.1556958097678L236.64,143.89361966573276L236.93142857142857,143.994959964202L237.02857142857144,144.36154093192175L237.32000000000002,141.52504905370566L237.70857142857142,142.02298740240244L238,141.6507282440479L238.1942857142857,144.72706501759015L238.38857142857142,139.99131324658026L238.67999999999998,141.13506977833237L238.97142857142856,142.92411197148837L239.06857142857143,137.519253886663L239.1657142857143,143.15701164190585L239.36,140.39934929059103L240.13714285714286,141.61350477658786L240.33142857142857,145.618820470113L240.52571428571426,143.0560998091331L240.72,142.621262215651L241.2057142857143,145.1280579016759L241.69142857142856,141.2029326237165L242.08,137.13925378139203L242.46857142857144,142.55497449177963L242.56571428571428,145.100138260768L242.66285714285715,143.88070652576593L243.05142857142857,142.64580921943372L243.34285714285716,142.52854427924524L243.6342857142857,144.94862666955362L244.12,143.95915859479172L244.4114285714286,142.41162211161395L244.60571428571427,143.2333642290189L244.9942857142857,140.969112772208L245.09142857142857,142.6877682529963L245.18857142857144,145.76847333632983L245.28571428571428,145.15706706964053L245.48,144.89189169040094L245.67428571428573,141.6388454620655L245.96571428571428,143.55697620832004L246.25714285714287,143.96706276673538L246.3542857142857,140.29135757226211L246.54857142857145,143.0652485719094L246.74285714285713,144.03766983288986L247.42285714285717,143.8037969332475L247.71428571428572,143.02973284629675L247.81142857142856,139.22960529419092L248.0057142857143,140.89856895575156L248.2,138.6772966889235L248.39428571428573,139.42829707952646L248.49142857142857,141.54371179525668L248.68571428571428,143.20190668564578L248.97714285714287,142.75483741668555L249.17142857142855,145.1790004326747L249.46285714285713,141.50657810156162L249.65714285714284,137.68689823150635L249.94857142857143,140.9503296521994L250.04571428571427,132.5814009675613L250.14285714285714,140.09362881458725L251.11428571428573,142.78208579466894L251.21142857142857,144.70906129708658L251.40571428571428,141.9706452167951L251.50285714285712,141.45688424202112L251.60000000000002,142.2131629219422L251.69714285714286,142.53472438683877L251.98857142857142,144.32050207945016L252.0857142857143,142.17394810914993L252.28,143.65161203879578L252.57142857142858,140.33512228268845L252.7657142857143,139.41074222784778L252.96,143.22107542478122L253.15428571428572,142.48275965910693L254.02857142857144,144.44732996592154L254.12571428571428,143.91603862322293L254.41714285714286,146.76143442667447L254.61142857142858,143.53984982233783L254.8057142857143,136.83844433839505L255,141.28853598924783L255.1942857142857,142.81569586808865L255.29142857142858,138.29269771851028L255.58285714285714,137.88647551261462L256.1657142857143,144.80710445000574L256.2628571428572,144.3575072334363L256.6514285714286,142.8765726823073L256.9428571428571,142.34293906046796L257.2342857142857,142.8580466417166L257.42857142857144,135.21001149140872L257.5257142857143,142.78066573693204L257.9142857142857,138.6242607969504L258.30285714285714,141.73897993564606L258.4971428571429,142.25039659096646L258.5942857142857,143.36954286923776L258.69142857142856,140.3051031598678L258.7885714285714,143.9842809667954L258.88571428571424,142.52075640513348L259.1771428571428,146.3320485491019L259.5657142857143,141.03613296838907L259.66285714285715,142.2608042267653L259.76,145.16026219954858L260.1485714285714,141.42931757523465L260.24571428571426,142.43363708716174L260.44,142.4698465191401L260.53714285714284,144.89283227462036L261.02285714285716,142.92701533666025L261.31428571428575,142.12136924725314L261.4114285714286,138.73622908500525L261.60571428571427,143.27001436857077L261.8,144.47841209173203L261.89714285714285,141.74115898975958L261.9942857142857,144.16423451900482L262.09142857142854,140.26519668102264L262.3828571428571,140.6879392999869L262.48,144.96258853032037L262.57714285714286,140.00659723006763L262.6742857142857,144.82360650025882L262.9657142857143,144.58467974571082L263.0628571428572,144.8491777410874L263.25714285714287,145.58451056938907L263.84,144.7303295181348L264.13142857142856,142.6110565708234L264.42285714285714,140.88659435969134L264.52,144.35258599886527L264.90857142857146,140.38183728548196" style="fill: none;" fill="none"></path></g></g></g></g></g></g><g transform="translate(58, 178)" clip-path="url(#clip_1)"><clipPath id="clip_1"><rect width="271" height="21"></rect></clipPath><g><g><line x1="0" y1="0" x2="0" y2="5" style="visibility: inherit;" fill="rgb(0, 0, 0)" stroke="rgb(204, 204, 204)" stroke-width="1px"></line><line x1="19.428571428571427" y1="0" x2="19.428571428571427" y2="5" style="visibility: inherit;" fill="rgb(0, 0, 0)" stroke="rgb(204, 204, 204)" stroke-width="1px"></line><line x1="38.857142857142854" y1="0" x2="38.857142857142854" y2="5" style="visibility: inherit;" fill="rgb(0, 0, 0)" stroke="rgb(204, 204, 204)" stroke-width="1px"></line><line x1="58.285714285714285" y1="0" x2="58.285714285714285" y2="5" style="visibility: inherit;" fill="rgb(0, 0, 0)" stroke="rgb(204, 204, 204)" stroke-width="1px"></line><line x1="77.71428571428571" y1="0" x2="77.71428571428571" y2="5" style="visibility: inherit;" fill="rgb(0, 0, 0)" stroke="rgb(204, 204, 204)" stroke-width="1px"></line><line x1="97.14285714285714" y1="0" x2="97.14285714285714" y2="5" style="visibility: inherit;" fill="rgb(0, 0, 0)" stroke="rgb(204, 204, 204)" stroke-width="1px"></line><line x1="116.57142857142857" y1="0" x2="116.57142857142857" y2="5" style="visibility: inherit;" fill="rgb(0, 0, 0)" stroke="rgb(204, 204, 204)" stroke-width="1px"></line><line x1="136" y1="0" x2="136" y2="5" style="visibility: inherit;" fill="rgb(0, 0, 0)" stroke="rgb(204, 204, 204)" stroke-width="1px"></line><line x1="155.42857142857142" y1="0" x2="155.42857142857142" y2="5" style="visibility: inherit;" fill="rgb(0, 0, 0)" stroke="rgb(204, 204, 204)" stroke-width="1px"></line><line x1="174.85714285714286" y1="0" x2="174.85714285714286" y2="5" style="visibility: inherit;" fill="rgb(0, 0, 0)" stroke="rgb(204, 204, 204)" stroke-width="1px"></line><line x1="194.28571428571428" y1="0" x2="194.28571428571428" y2="5" style="visibility: inherit;" fill="rgb(0, 0, 0)" stroke="rgb(204, 204, 204)" stroke-width="1px"></line><line x1="213.71428571428572" y1="0" x2="213.71428571428572" y2="5" style="visibility: inherit;" fill="rgb(0, 0, 0)" stroke="rgb(204, 204, 204)" stroke-width="1px"></line><line x1="233.14285714285714" y1="0" x2="233.14285714285714" y2="5" style="visibility: inherit;" fill="rgb(0, 0, 0)" stroke="rgb(204, 204, 204)" stroke-width="1px"></line><line x1="252.57142857142858" y1="0" x2="252.57142857142858" y2="5" style="visibility: inherit;" fill="rgb(0, 0, 0)" stroke="rgb(204, 204, 204)" stroke-width="1px"></line><line x1="272" y1="0" x2="272" y2="5" style="visibility: inherit;" fill="rgb(0, 0, 0)" stroke="rgb(204, 204, 204)" stroke-width="1px"></line></g><g transform="translate(0, 8)"><text x="0" y="0" dx="0em" dy="0.95em" style="text-anchor: middle; visibility: hidden; font-family: Roboto, sans-serif; font-size: 12px; font-weight: 200;" fill="rgb(50, 49, 63)" stroke="none" stroke-width="1px">-200</text><text x="19.428571428571427" y="0" dx="0em" dy="0.95em" style="text-anchor: middle; visibility: inherit; font-family: Roboto, sans-serif; font-size: 12px; font-weight: 200;" fill="rgb(50, 49, 63)" stroke="none" stroke-width="1px">0</text><text x="38.857142857142854" y="0" dx="0em" dy="0.95em" style="text-anchor: middle; visibility: hidden; font-family: Roboto, sans-serif; font-size: 12px; font-weight: 200;" fill="rgb(50, 49, 63)" stroke="none" stroke-width="1px">200</text><text x="58.285714285714285" y="0" dx="0em" dy="0.95em" style="text-anchor: middle; visibility: inherit; font-family: Roboto, sans-serif; font-size: 12px; font-weight: 200;" fill="rgb(50, 49, 63)" stroke="none" stroke-width="1px">400</text><text x="77.71428571428571" y="0" dx="0em" dy="0.95em" style="text-anchor: middle; visibility: hidden; font-family: Roboto, sans-serif; font-size: 12px; font-weight: 200;" fill="rgb(50, 49, 63)" stroke="none" stroke-width="1px">600</text><text x="97.14285714285714" y="0" dx="0em" dy="0.95em" style="text-anchor: middle; visibility: inherit; font-family: Roboto, sans-serif; font-size: 12px; font-weight: 200;" fill="rgb(50, 49, 63)" stroke="none" stroke-width="1px">800</text><text x="116.57142857142857" y="0" dx="0em" dy="0.95em" style="text-anchor: middle; visibility: hidden; font-family: Roboto, sans-serif; font-size: 12px; font-weight: 200;" fill="rgb(50, 49, 63)" stroke="none" stroke-width="1px">1k</text><text x="136" y="0" dx="0em" dy="0.95em" style="text-anchor: middle; visibility: inherit; font-family: Roboto, sans-serif; font-size: 12px; font-weight: 200;" fill="rgb(50, 49, 63)" stroke="none" stroke-width="1px">1.2k</text><text x="155.42857142857142" y="0" dx="0em" dy="0.95em" style="text-anchor: middle; visibility: hidden; font-family: Roboto, sans-serif; font-size: 12px; font-weight: 200;" fill="rgb(50, 49, 63)" stroke="none" stroke-width="1px">1.4k</text><text x="174.85714285714286" y="0" dx="0em" dy="0.95em" style="text-anchor: middle; visibility: inherit; font-family: Roboto, sans-serif; font-size: 12px; font-weight: 200;" fill="rgb(50, 49, 63)" stroke="none" stroke-width="1px">1.6k</text><text x="194.28571428571428" y="0" dx="0em" dy="0.95em" style="text-anchor: middle; visibility: hidden; font-family: Roboto, sans-serif; font-size: 12px; font-weight: 200;" fill="rgb(50, 49, 63)" stroke="none" stroke-width="1px">1.8k</text><text x="213.71428571428572" y="0" dx="0em" dy="0.95em" style="text-anchor: middle; visibility: inherit; font-family: Roboto, sans-serif; font-size: 12px; font-weight: 200;" fill="rgb(50, 49, 63)" stroke="none" stroke-width="1px">2k</text><text x="233.14285714285714" y="0" dx="0em" dy="0.95em" style="text-anchor: middle; visibility: hidden; font-family: Roboto, sans-serif; font-size: 12px; font-weight: 200;" fill="rgb(50, 49, 63)" stroke="none" stroke-width="1px">2.2k</text><text x="252.57142857142858" y="0" dx="0em" dy="0.95em" style="text-anchor: middle; visibility: inherit; font-family: Roboto, sans-serif; font-size: 12px; font-weight: 200;" fill="rgb(50, 49, 63)" stroke="none" stroke-width="1px">2.4k</text><text x="272" y="0" dx="0em" dy="0.95em" style="text-anchor: middle; visibility: hidden; font-family: Roboto, sans-serif; font-size: 12px; font-weight: 200;" fill="rgb(50, 49, 63)" stroke="none" stroke-width="1px">2.6k</text></g><line x1="0" y1="0" x2="272" y2="0" fill="rgb(0, 0, 0)" stroke="rgb(204, 204, 204)" stroke-width="1px"></line></g></g></g></g></svg>