<svg viewBox="0 0 330.0000305175781 200.00001525878906" xmlns="http://www.w3.org/2000/svg"><g><g><g><g><g><line x1="70" y1="178" x2="65" y2="178" style="visibility: inherit;" fill="rgb(0, 0, 0)" stroke="rgb(204, 204, 204)" stroke-width="1px"></line><line x1="70" y1="152.57142857142856" x2="65" y2="152.57142857142856" style="visibility: inherit;" fill="rgb(0, 0, 0)" stroke="rgb(204, 204, 204)" stroke-width="1px"></line><line x1="70" y1="127.14285714285712" x2="65" y2="127.14285714285712" style="visibility: inherit;" fill="rgb(0, 0, 0)" stroke="rgb(204, 204, 204)" stroke-width="1px"></line><line x1="70" y1="101.71428571428571" x2="65" y2="101.71428571428571" style="visibility: inherit;" fill="rgb(0, 0, 0)" stroke="rgb(204, 204, 204)" stroke-width="1px"></line><line x1="70" y1="76.28571428571428" x2="65" y2="76.28571428571428" style="visibility: inherit;" fill="rgb(0, 0, 0)" stroke="rgb(204, 204, 204)" stroke-width="1px"></line><line x1="70" y1="50.857142857142854" x2="65" y2="50.857142857142854" style="visibility: inherit;" fill="rgb(0, 0, 0)" stroke="rgb(204, 204, 204)" stroke-width="1px"></line><line x1="70" y1="25.428571428571416" x2="65" y2="25.428571428571416" style="visibility: inherit;" fill="rgb(0, 0, 0)" stroke="rgb(204, 204, 204)" stroke-width="1px"></line><line x1="70" y1="0" x2="65" y2="0" style="visibility: inherit;" fill="rgb(0, 0, 0)" stroke="rgb(204, 204, 204)" stroke-width="1px"></line></g><g transform="translate(60, 0)"><text x="0" y="178" dx="0em" dy="0.3em" style="text-anchor: end; visibility: hidden; font-family: Roboto, sans-serif; font-size: 12px; font-weight: 200;" fill="rgb(50, 49, 63)" stroke="none" stroke-width="1px">-0.05</text><text x="0" y="152.57142857142856" dx="0em" dy="0.3em" style="text-anchor: end; visibility: inherit; font-family: Roboto, sans-serif; font-size: 12px; font-weight: 200;" fill="rgb(50, 49, 63)" stroke="none" stroke-width="1px">0</text><text x="0" y="127.14285714285712" dx="0em" dy="0.3em" style="text-anchor: end; visibility: inherit; font-family: Roboto, sans-serif; font-size: 12px; font-weight: 200;" fill="rgb(50, 49, 63)" stroke="none" stroke-width="1px">0.05</text><text x="0" y="101.71428571428571" dx="0em" dy="0.3em" style="text-anchor: end; visibility: inherit; font-family: Roboto, sans-serif; font-size: 12px; font-weight: 200;" fill="rgb(50, 49, 63)" stroke="none" stroke-width="1px">0.1</text><text x="0" y="76.28571428571428" dx="0em" dy="0.3em" style="text-anchor: end; visibility: inherit; font-family: Roboto, sans-serif; font-size: 12px; font-weight: 200;" fill="rgb(50, 49, 63)" stroke="none" stroke-width="1px">0.15</text><text x="0" y="50.857142857142854" dx="0em" dy="0.3em" style="text-anchor: end; visibility: inherit; font-family: Roboto, sans-serif; font-size: 12px; font-weight: 200;" fill="rgb(50, 49, 63)" stroke="none" stroke-width="1px">0.2</text><text x="0" y="25.428571428571416" dx="0em" dy="0.3em" style="text-anchor: end; visibility: inherit; font-family: Roboto, sans-serif; font-size: 12px; font-weight: 200;" fill="rgb(50, 49, 63)" stroke="none" stroke-width="1px">0.25</text><text x="0" y="0" dx="0em" dy="0.3em" style="text-anchor: end; visibility: hidden; font-family: Roboto, sans-serif; font-size: 12px; font-weight: 200;" fill="rgb(50, 49, 63)" stroke="none" stroke-width="1px">0.3</text></g><line x1="70" y1="0" x2="70" y2="178" fill="rgb(0, 0, 0)" stroke="rgb(204, 204, 204)" stroke-width="1px"></line></g></g><g transform="translate(70, 0)" clip-path="url(#clip_0)"><clipPath id="clip_0"><rect width="260" height="177"></rect></clipPath><g><g><g><line x1="0" y1="0" x2="0" y2="178" fill="rgb(0, 0, 0)" stroke="rgb(60, 60, 60)" stroke-width="1px" opacity="0.25"></line><line x1="28.888888888888886" y1="0" x2="28.888888888888886" y2="178" fill="rgb(0, 0, 0)" stroke="rgb(60, 60, 60)" stroke-width="1px" opacity="0.25"></line><line x1="57.77777777777777" y1="0" x2="57.77777777777777" y2="178" fill="rgb(0, 0, 0)" stroke="rgb(60, 60, 60)" stroke-width="1px" opacity="0.25"></line><line x1="86.66666666666666" y1="0" x2="86.66666666666666" y2="178" fill="rgb(0, 0, 0)" stroke="rgb(60, 60, 60)" stroke-width="1px" opacity="0.25"></line><line x1="115.55555555555554" y1="0" x2="115.55555555555554" y2="178" fill="rgb(0, 0, 0)" stroke="rgb(60, 60, 60)" stroke-width="1px" opacity="0.25"></line><line x1="144.44444444444446" y1="0" x2="144.44444444444446" y2="178" fill="rgb(0, 0, 0)" stroke="rgb(60, 60, 60)" stroke-width="1px" opacity="0.25"></line><line x1="173.33333333333331" y1="0" x2="173.33333333333331" y2="178" fill="rgb(0, 0, 0)" stroke="rgb(60, 60, 60)" stroke-width="1px" opacity="0.25"></line><line x1="202.22222222222223" y1="0" x2="202.22222222222223" y2="178" fill="rgb(0, 0, 0)" stroke="rgb(60, 60, 60)" stroke-width="1px" opacity="0.25"></line><line x1="231.1111111111111" y1="0" x2="231.1111111111111" y2="178" fill="rgb(0, 0, 0)" stroke="rgb(60, 60, 60)" stroke-width="1px" opacity="0.25"></line><line x1="260" y1="0" x2="260" y2="178" fill="rgb(0, 0, 0)" stroke="rgb(60, 60, 60)" stroke-width="1px" opacity="0.25"></line></g><g><line x1="0" y1="178" x2="260" y2="178" fill="rgb(0, 0, 0)" stroke="rgb(60, 60, 60)" stroke-width="1px" opacity="0.25"></line><line x1="0" y1="152.57142857142856" x2="260" y2="152.57142857142856" fill="rgb(0, 0, 0)" stroke="rgb(60, 60, 60)" stroke-width="1px" opacity="0.25"></line><line x1="0" y1="127.14285714285712" x2="260" y2="127.14285714285712" fill="rgb(0, 0, 0)" stroke="rgb(60, 60, 60)" stroke-width="1px" opacity="0.25"></line><line x1="0" y1="101.71428571428571" x2="260" y2="101.71428571428571" fill="rgb(0, 0, 0)" stroke="rgb(60, 60, 60)" stroke-width="1px" opacity="0.25"></line><line x1="0" y1="76.28571428571428" x2="260" y2="76.28571428571428" fill="rgb(0, 0, 0)" stroke="rgb(60, 60, 60)" stroke-width="1px" opacity="0.25"></line><line x1="0" y1="50.857142857142854" x2="260" y2="50.857142857142854" fill="rgb(0, 0, 0)" stroke="rgb(60, 60, 60)" stroke-width="1px" opacity="0.25"></line><line x1="0" y1="25.428571428571416" x2="260" y2="25.428571428571416" fill="rgb(0, 0, 0)" stroke="rgb(60, 60, 60)" stroke-width="1px" opacity="0.25"></line><line x1="0" y1="0" x2="260" y2="0" fill="rgb(0, 0, 0)" stroke="rgb(60, 60, 60)" stroke-width="1px" opacity="0.25"></line></g></g></g><g><g><line x1="0" y1="152.57142857142856" x2="260" y2="152.57142857142856" fill="rgb(0, 0, 0)" stroke="rgb(153, 153, 153)" stroke-width="1.5px"></line></g></g><g><g><line x1="28.888888888888886" y1="0" x2="28.888888888888886" y2="178" fill="rgb(0, 0, 0)" stroke="rgb(153, 153, 153)" stroke-width="1.5px"></line></g></g><g><g><g><g><g><path stroke="rgb(255, 112, 67)" stroke-width="2px" d="M33.684444444444445,-4.057153141295032L33.727777777777774,1.0184445951603636L33.74222222222222,0.6136829799202639L33.88666666666666,3.1500409342687785L34.782222222222224,2.7081333242381245L35.172222222222224,3.690772186091608L35.40333333333333,15.666162719696391L35.504444444444445,16.45955311520995L35.51888888888889,22.724957784766435L35.995555555555555,25.450731778353674L36.19777777777778,28.146846593600213L36.31333333333333,31.703518736286043L36.385555555555555,22.780535700230946L36.41444444444444,23.61614150086495L36.58777777777778,23.696339171414735L36.73222222222222,29.810175410762522L37.35333333333333,27.6462561813936L37.46888888888889,29.797236781607186L37.58444444444444,35.107870320510756L37.96,19.50280082468252L38.089999999999996,26.485553365571874L38.147777777777776,-11.528092830221814L38.17666666666667,-0.798613747287753L38.37888888888889,10.831685737266193L38.40777777777778,13.936442260141854L38.50888888888889,30.135542221657477L38.62444444444444,23.049356426012586L38.71111111111111,32.490944582803515L38.72555555555555,23.994507172270325L39.11555555555555,29.933942519768554L40.17,38.655261589976355L40.64666666666666,36.40746892156221L40.69,30.92146932792038L40.93555555555555,39.76006805043647L41.065555555555555,44.036370010026L41.08,46.08962436709532L41.166666666666664,47.51957686744091L41.18111111111111,46.34343131611488L41.25333333333334,40.565032858174284L41.513333333333335,45.01088077763567L41.556666666666665,40.84069726857025L41.68666666666667,47.100871782598624L42.394444444444446,47.46775546990839L42.437777777777775,42.54800955505118L42.52444444444445,46.13514780347401L42.611111111111114,46.186166888827884L42.68333333333333,45.47570197279825L42.827777777777776,49.2140895396207L42.91444444444445,50.47098455333827L42.986666666666665,43.49870330480922L43.73777777777778,41.82409296437444L43.81,45.59813000647546L43.82444444444444,52.03982601610104L44.08444444444444,47.06062237052487L44.272222222222226,51.347390710795395L44.46,51.2648745959479L45.00888888888889,55.49371207865943L45.254444444444445,53.557335093864445L45.54333333333333,51.47674250660118L45.73111111111111,51.65131068945308L46.04888888888889,45.406326386794575L46.092222222222226,40.55021451662743L46.294444444444444,45.59926629003062L46.352222222222224,53.540090621840285L47.04555555555555,52.92047245411528L47.132222222222225,57.81374096339019L47.14666666666667,55.499810174750856L47.464444444444446,55.55552193859077L47.63777777777778,55.147536990789L47.782222222222224,60.79488106320857L48.215555555555554,54.9861051919238L48.37444444444444,51.05668431669674L48.49,55.979266741489866L48.57666666666666,58.31200449554482L49.03888888888889,56.6836414798826L49.096666666666664,56.82849469911292L49.45777777777777,58.97902147592702L49.68888888888889,63.89080935576234L49.70333333333333,61.418490792181416L49.92,64.78569672908648L49.977777777777774,61.13070661412294L50.22333333333333,55.593667314824295L50.72888888888889,56.77356913469841L50.84444444444445,55.66749442941654L51.13333333333333,61.47121739156497L51.33555555555556,61.34228584968377L51.465555555555554,59.20610459925727L51.55222222222222,53.2006717221856L51.62444444444445,50.4300645988195L51.72555555555556,51.85555035052183L51.855555555555554,55.66511359490869L52.05777777777778,68.25513325311918L52.086666666666666,65.99838982926713L52.13,66.84210370978997L52.260000000000005,66.42853196093782L52.76555555555556,63.99858282413261L53.11222222222222,60.96739969665938L53.41555555555556,62.67114047161678L53.67555555555556,62.713722313866924L53.80555555555555,66.67302698731262L53.99333333333333,68.3198860610203L54.03666666666667,67.44794599050056L54.15222222222222,73.2111737513852L54.73,71.72661880842432L54.97555555555555,72.90409314065414L55.12,64.44067732266414L55.163333333333334,67.41999369212796L55.452222222222225,72.7492557776329L55.68333333333334,72.79814255992432L55.943333333333335,67.41848077205165L56.11666666666666,66.38186869688663L56.36222222222223,65.2605578521957L56.44888888888889,61.43652728404736L56.79555555555555,63.56063048366389L56.983333333333334,65.48422877640877L57.026666666666664,69.88824071591196L57.04111111111111,71.09145200826072L57.156666666666666,69.38371665821877L57.214444444444446,68.18666901318076L57.315555555555555,67.91545431519823L58.02333333333333,71.09182360933248L58.08111111111111,69.43531446300419L58.18222222222222,68.41684920489557L58.31222222222222,63.44580455532955L58.63,65.6129632842362L58.687777777777775,69.3342480349774L58.80333333333333,62.575223788343536L58.918888888888894,62.54592312515281L58.97666666666667,65.07202499592603L59.26555555555556,68.46991272176173L59.337777777777774,70.14643876197856L59.352222222222224,68.77614962296866L59.42444444444445,73.25317248502823L59.59777777777778,68.83037244047112L59.641111111111115,75.28133453246329L59.71333333333333,78.4906167824052L59.98777777777778,75.32956426886896L60.218888888888884,74.0885622253054L60.36333333333333,71.07986967776704L60.53666666666667,69.54375975396073L60.91222222222222,62.59469207990243L61.04222222222222,69.26365514318985L61.547777777777775,62.786798860384636L61.562222222222225,67.27678232706234L61.59111111111111,65.87367405654406L62.22666666666667,71.79073548583467L62.342222222222226,71.5717084287558L62.47222222222222,75.51923898929083L62.501111111111115,77.49378247645588L62.57333333333333,76.69520556680615L62.934444444444445,70.08202185823728L62.94888888888889,69.25701349646658L63.093333333333334,68.70683842020004L63.12222222222223,62.70178042464375L63.19444444444444,62.674459636458685L63.39666666666667,64.68347522716374L63.483333333333334,66.95423661274957L63.61333333333334,69.87242545589613L63.83,76.88330070745403L63.88777777777778,66.34709772723077L63.916666666666664,66.63694067750669L64.27777777777779,57.77989576516838L64.59555555555555,61.12162072642192L64.68222222222222,63.71081569048747L64.92777777777778,69.79441595058009L65.01444444444444,67.8130165303286L65.39,66.1693967423418L58.095555555555556,52.92190959190514L58.196666666666665,55.28868755523333L58.26888888888889,55.05980007798994L58.45666666666666,48.56278751804206L58.55777777777777,50.150217783107415L58.99111111111111,36.613163226125785L59.19333333333333,22.384587086349487L59.69888888888889,29.46517879790649L59.727777777777774,28.764564290375443L60.897777777777776,38.329285160398186L61.02777777777778,39.42021904246038L61.15777777777778,33.41099708164775L61.24444444444444,30.522977807006907L61.59111111111111,46.4226596359842L62.269999999999996,58.645391743787926L62.385555555555555,50.88336303318072L62.90555555555555,52.97321063568908L63.13666666666667,52.05988164291639L63.18,52.653231519308285L63.29555555555555,57.84003489400029L63.33888888888889,60.070887381941574L63.68555555555555,51.48987679360368L63.74333333333333,53.57122182228429L64.17666666666666,55.08627893894727L64.50888888888889,56.12403526356282L64.72555555555556,61.628811881502365L64.98555555555555,55.7414857659101L65.07222222222222,43.144143138557816L65.30333333333333,48.727682174921966L65.56333333333333,48.20747437747602L65.57777777777778,41.45672490827185L66.06888888888889,49.709795599685066L66.21333333333332,54.901018476362026L66.25666666666667,56.963001376486254L66.27111111111111,56.27378905864059L66.3,62.05387076936491L66.31444444444443,64.86031256438689L66.67555555555555,65.96818403537763L67.15222222222222,69.14149557262647L67.48444444444443,72.42638604553248L67.73,65.72270154014821L68.17777777777778,62.20135009747671L68.56777777777778,63.15531853883054L68.64,59.72964060335507L68.95777777777778,57.8707453491041L69.23222222222222,60.862121900253996L69.26111111111112,55.844761112956874L69.44888888888889,60.07410538004132L69.68,34.133285075123L70.0988888888889,39.5921927220365L70.14222222222223,54.29513902227526L70.50333333333333,59.936722710578024L70.8788888888889,65.06656851802029L71.12444444444445,66.8487040971316L71.41333333333334,72.81304291846223L71.67333333333333,69.98910021418597L71.70222222222222,51.20249854959748L71.73111111111112,53.33952646942129L71.81777777777778,50.874341200452484L72.22222222222223,62.175695573826324L72.42444444444445,68.05825172567181L73.23333333333333,59.50296582743667L73.29111111111112,56.799941425456296L73.44999999999999,54.70945106868538L73.89777777777778,56.073809777389386L74.01333333333334,58.42163901012566L74.20111111111112,59.378927243922426L74.27333333333334,64.68158038788351L74.50444444444445,63.48412763930491L74.57666666666667,62.95154877645622L74.60555555555555,58.93292174083842L74.75,67.33724754997658L74.80777777777777,60.19655701572553L75.22666666666666,55.45889943955965L75.39999999999999,51.004072072531834L76.1511111111111,49.102686491777405L76.31,56.40281963775748L76.55555555555556,56.97153661166887L76.96,62.59777655482873L77.33555555555556,54.17699783526495L77.50888888888889,61.88333431173943L77.66777777777777,65.79475735513401L77.71111111111111,74.29840487771054L78.53444444444445,66.01405141160295L78.60666666666667,74.29124376930326L78.6211111111111,72.78735711259732L78.76555555555557,65.04650227562156L79.82,70.79370653488719L79.97888888888889,64.87727833050435L79.99333333333333,69.21028922098503L80.02222222222221,71.7190681889086L80.09444444444445,66.86530723027676L80.10888888888888,50.49541811344113L80.47,54.959089426806656L80.54222222222222,60.64117159164613L80.58555555555556,68.32355113712094L80.7011111111111,73.0375625024608L80.99,74.85536599595716L81.03333333333333,72.86711015281983L81.04777777777778,72.59723964575812L81.26444444444444,71.18544268157414L81.58222222222221,68.45511634420014L81.77,64.01460588565433L81.7988888888889,65.79787334045065L81.98666666666668,57.54308437763115L82.52111111111111,60.3829909564846L82.86777777777779,67.7915220568227L82.9688888888889,74.38528111123638L83.05555555555554,71.46080254299743L83.40222222222222,75.74247164682244L83.44555555555554,72.19903371512028L84.29777777777778,64.14827951742402L84.54333333333334,67.05871678648025L84.55777777777779,69.82269395487941L84.84666666666666,64.66492553751982L84.89,65.95972171290366L85.02000000000001,65.20175927711003L85.54,66.03750953404162L85.58333333333333,65.54442843138864L85.81444444444445,70.40473409582701L85.84333333333333,64.9003628906409L86.26222222222222,68.61568695577212L86.66666666666666,64.71219277033262L86.78222222222223,62.94009694162723L86.84,63.71610009067912L86.95555555555555,64.58002980756388L87.11444444444444,71.10863510664306L87.49000000000001,69.42102953303883L87.56222222222222,77.96662892917497L87.79333333333334,73.639530381252L88.02444444444444,75.52012148966344L88.14,66.84396545911656L88.27000000000001,68.20493360738567L88.4,73.016614926427L88.55888888888889,64.98303788116878L88.57333333333334,74.8059984211233L88.74666666666667,72.19477660612336L88.77555555555556,81.08318351174464L89.32444444444444,76.59196031881697L89.49777777777777,78.62101115631486L89.77222222222223,76.07725015447139L90.10444444444444,77.22083337831427L90.39333333333333,76.53042970903898L90.97111111111111,76.25701059925325L91.08666666666666,81.19558334537435L91.21666666666667,77.60464218115519L91.25999999999999,80.63862148352176L91.28888888888889,83.4211597408516L92.02555555555556,79.65161812441382L92.06888888888889,78.33087307807192L92.35777777777777,68.97087052053612L92.38666666666667,70.90457329929286L92.4011111111111,73.92441397093269L92.50222222222223,69.79980781101986L92.76222222222223,72.35266735976649L93.16666666666667,67.76962170241558L93.45555555555556,69.63163840487002L93.48444444444445,57.39651188339573L93.57111111111111,64.62977416821927L94.01888888888888,70.83516158764725L94.26444444444445,76.513363275133L94.52444444444446,73.87919008667274L94.64,77.28132156946404L95.08777777777777,78.80962500480841L95.47777777777777,73.16475903864948L95.81,73.524974723487L96.22888888888889,77.49344721000556L96.38777777777779,82.38922140762477L96.61888888888889,73.23419406103821L96.82111111111111,70.70648648961452L97.12444444444444,74.38075219083554L97.70222222222222,74.18360736831688L98.02,69.08920545241888L98.09222222222222,71.90556867125339L98.62666666666668,73.8536794819312L98.78555555555555,77.44081941728197L98.87222222222222,69.5310121641762L99.07444444444444,73.47028650780615L99.10333333333332,75.04216076440528L99.56555555555555,65.15235015541178L99.91222222222223,57.416785473081916L100.08555555555554,62.35584566603169L100.11444444444444,63.59176475599019L100.20111111111112,63.4493857652479L100.37444444444444,59.72481091885682L100.73555555555555,67.38695927388534L101.14,72.25885877225183L101.16888888888889,70.91676784966135L101.22666666666666,80.71620355835658L101.44333333333333,83.00598409136511L102.03555555555555,79.57841731524691L102.0788888888889,76.0651724627304L102.5988888888889,77.86891006431252L102.84444444444445,83.40106653571885L102.88777777777777,84.98860257336524L103.03222222222223,80.57414446071489L103.29222222222222,78.81072775684929L103.30666666666666,76.39485770050281L103.55222222222223,72.37054900363952L103.59555555555555,75.88845178421148L104.08666666666666,74.39880751418272L104.11555555555556,77.01068414273466L104.21666666666667,74.26445726254859L104.60666666666667,76.24113029913812L104.73666666666666,77.21789409325547L105.04,75.73781243327869L105.38666666666667,80.97097850828963L105.45888888888888,78.74067915416374L105.54555555555555,81.4136265708347L105.93555555555555,82.42379246569853L106.22444444444444,83.73681143430323L106.29666666666667,83.08580585935469L106.51333333333334,84.9270890715559L106.58555555555556,81.04447049021617L107.20666666666666,52.03524375544214L107.26444444444445,63.181722951023524L107.56777777777778,59.04502659734838L107.59666666666666,73.05076437326609L107.82777777777778,79.68307535301479L107.85666666666667,75.73327401293672L107.94333333333334,77.5102628342539L107.97222222222223,77.29234571717134L108.17444444444445,79.0851874694089L108.23222222222223,79.52556078786527L108.56444444444445,82.32477624764113L108.69444444444444,78.86410807613855L108.96888888888888,81.19898991696347L109.12777777777778,77.17190665039517L109.15666666666667,64.16018922518978L109.24333333333334,67.10630044574312L109.43111111111111,72.17236373138716L109.69111111111111,68.70723346743075L110.25444444444445,75.85770304808585L110.58666666666667,79.77277686141814L110.64444444444445,77.39148570946301L110.65888888888888,83.3569448922022L110.75999999999999,87.08869741080153L111.00555555555556,83.40923380172732L111.16444444444446,82.81152709144811L111.32333333333332,72.59117313685519L111.42444444444445,72.95340734825606L111.5111111111111,71.62331259143566L111.85777777777778,74.07602719174582L112.65222222222222,80.3169181125056L112.71,79.53148002655881L113.23,81.79911051360286L113.24444444444444,88.0020573574923L113.30222222222221,87.74061539403334L113.5911111111111,90.53824329582464L113.60555555555557,90.24445101316765L113.62,91.14043302610257L113.73555555555556,86.67973309152737L114.3711111111111,85.80610091154395L114.47222222222221,86.97873436949281L114.51555555555557,81.8827862882541L114.79,80.8371937156361L115.57000000000001,77.81492408994683L115.7,81.857433651334L115.72888888888889,79.52767738794613L115.78666666666668,83.71092533696319L115.87333333333333,90.72902425817111L115.91666666666667,81.31551926888756L116.01777777777778,78.61160286060752L116.13333333333333,82.18823992060122L116.17666666666668,80.33896409777697L116.35000000000001,76.64184704436174L116.74000000000001,76.5416523874599L116.79777777777778,78.51764422336298L116.95666666666666,79.47703298820218L117.11555555555555,80.28473819175117L118.09777777777778,79.05550948734903L118.3,86.8065436701185L118.41555555555556,70.68490330952785L118.61777777777777,76.67123106892507L118.63222222222223,83.34249159815414L119.00777777777778,77.96373546111373L119.21000000000001,83.68387104095265L119.57111111111111,85.75554663721896L119.99000000000001,83.11425244424107L120.03333333333333,85.89607243988645L120.40888888888888,89.3789862298762L120.66888888888889,91.78987426524985L120.72666666666666,84.10385558669856L121.08777777777777,87.16068254169024L121.46333333333334,87.44858627301743L121.83888888888889,84.67055486396042L122.05555555555556,77.76479022782668L122.17111111111112,79.76835216077001L122.18555555555555,76.66049516792198L122.50333333333333,78.77298144627102L122.56111111111112,81.82018960280027L122.76333333333334,85.32501285871408L123.34111111111112,83.29546476364457L123.47111111111111,88.05369003050859L123.64444444444445,88.71511365348388L123.91888888888889,89.6270727852583L123.96222222222222,90.02390530600888L124.09222222222223,93.99890785580295L124.62666666666667,87.61297640473325L124.85777777777777,84.02408091757529L125.01666666666667,87.03895503430438L125.27666666666667,83.68113828645615L125.4211111111111,81.8408705018463L125.43555555555555,78.57614118505815L125.69555555555556,84.01972203812011L125.71,84.94388941145544L126.04222222222222,84.881809860056L126.1,86.90985784250475L126.31666666666666,85.62864849331196L126.75,84.93763385290376L126.88,77.68645136571041L126.92333333333335,78.99446815687654L127.02444444444446,79.45215615635911L127.16888888888889,78.85494561113681L127.21222222222222,67.97241819741414L127.28444444444445,62.692961319765544L127.42888888888889,69.98022863621097L127.77555555555556,74.97369476512674L127.90555555555557,79.1068323939947L128.18,77.44224312160144L128.42555555555555,82.06416668872845L129.32111111111112,81.33316420543676L129.82666666666668,83.19266243764282L130.07222222222222,85.16374283170668L130.21666666666667,79.23247565878441L130.28888888888886,82.03571135859067L130.44777777777776,82.02050050447892L130.53444444444446,82.10328670438153L130.63555555555556,78.49913634289344L130.89555555555557,75.81889330830171L130.96777777777777,76.31747985601592L131.04,82.95361938224619L131.3,78.65673561353742L131.45888888888888,83.14076245530573L131.50222222222223,81.01813501709606L131.79111111111112,85.51178645930743L131.90666666666667,83.11849237756591L132.05111111111108,77.42409062465312L132.22444444444443,75.4939643796529L132.55666666666667,83.01296582386935L132.62888888888887,85.33165390658576L133.51,83.90453459499341L133.52444444444444,84.81462642443728L133.98666666666665,86.95198912811946L134.60777777777778,87.04083283266742L134.72333333333333,85.01528878607853L134.8388888888889,89.39407146759501L134.85333333333335,85.20260518747885L135.34444444444443,83.55142179021514L135.50333333333333,86.97156556352967L135.67666666666668,90.2277065407676L135.92222222222222,91.83414713689342L136.7888888888889,78.76850491339867L137.13555555555556,81.11591331535095L137.5688888888889,82.2680449303683L137.62666666666667,80.40818154741079L137.82888888888888,79.39461610274763L138.07444444444442,84.97701823958393L138.16111111111113,87.65595839171789L138.76777777777778,92.18201110383806L138.9988888888889,85.6962059560389L139.1577777777778,89.59273000751901L139.28777777777776,83.54975013508522L139.40333333333334,89.39470314299963L139.6922222222222,86.56810061864452L139.72111111111113,84.34859949276004L139.76444444444445,85.35334173055723L139.79333333333332,89.01764792585854L139.88,82.4947713517218L140.1688888888889,76.68933986017946L140.2122222222222,84.77023160519677L140.28444444444446,86.54371789901371L140.38555555555556,81.4116845766667L140.41444444444443,84.7305848503091L141.1511111111111,84.10636404010098L141.42555555555555,85.13611872193394L141.71444444444444,86.36542554104348L141.7288888888889,83.3844961096799L141.7577777777778,85.61001798757219L141.96,82.2671071297255L142.01777777777778,72.25676097566985L142.14777777777778,68.74489169347775L142.16222222222223,78.28287524768236L142.23444444444442,84.46143675831355L142.30666666666667,89.93653458775093L142.52333333333334,85.57876676231372L142.9711111111111,81.91914270721864L143.14444444444445,80.73568732808398L143.24555555555557,76.98447674588864L143.31777777777776,82.13652653569453L143.52,87.00882173735867L143.65,85.38516442444731L144.02555555555557,85.1652963121173L144.12666666666667,85.38741262739096L144.14111111111112,85.82570009222742L144.2711111111111,84.1911953871061L144.82000000000002,80.56131422938847L144.93555555555554,81.6717120366042L144.95,84.19811839458956L145.0077777777778,82.80583016717715L145.47,75.86144626184017L146.14888888888888,79.47983569103137L146.20666666666668,84.83995491724662L146.46666666666667,87.69700729270505L146.53888888888886,87.20875598357242L146.79888888888888,90.68555563991652L146.84222222222223,89.35324551730301L147.14555555555557,91.90802928931598L147.30444444444444,94.11969589496476L147.6511111111111,89.84970093040275L147.75222222222223,81.50449643295174L147.99777777777777,83.48479814216763L148.02666666666667,85.0905437641458L148.07,88.21580110968705L148.37333333333333,87.90126950814968L148.40222222222224,93.68709207511162L148.47444444444443,91.0811155511256L148.63333333333333,82.122128703877L148.80666666666667,81.21712405432909L149.0522222222222,81.61561045020612L149.31222222222223,82.13717602217926L149.39888888888888,84.76081326150307L149.4711111111111,86.28473628742682L149.54333333333335,86.68439285779196L149.80333333333334,85.73983113235184L149.81777777777776,84.32539098080706L150.20777777777778,86.1129675425095L150.32333333333335,87.87948765089699L150.4677777777778,90.38566614569434L150.62666666666667,86.46149121835272L150.93,87.21459444403742L151.19,91.33929394337164L151.65222222222224,85.86455068466356L151.66666666666669,85.34886581756476L151.75333333333333,88.59229758245999L152.50444444444446,85.96382811754329L152.53333333333333,85.7914216157587L152.67777777777778,87.94944542695403L152.77888888888887,95.27657975328414L153.1688888888889,94.8007090594148L153.47222222222223,78.65723062532655L153.61666666666667,81.26464845013837L153.8477777777778,68.67158286989206L153.87666666666667,78.18888526690287L153.97777777777776,72.72509563201325L154.44,80.15232630255868L154.51222222222222,83.39276206985657L154.67111111111112,84.55046217736927L154.7433333333333,86.22591495486776L155.36444444444444,86.22177157385755L155.4077777777778,87.61401040816756L155.69666666666666,84.71074403716085L155.78333333333333,86.89705157429037L155.79777777777778,91.70019296326844L156.17333333333335,94.03299171978257L156.27444444444444,92.85358741179378L157.17000000000002,90.89494251529395L157.18444444444444,89.04182467736527L157.31444444444446,90.387954413162L157.41555555555556,82.30808583454272L157.45888888888888,83.10790242884148L157.56,87.96624742825978L157.60333333333332,85.73722387395676L157.92111111111112,85.20203999731936L158.07999999999998,92.24929727518386L158.23888888888888,91.89073713662522L158.38333333333333,85.73993622941296L158.41222222222223,87.41639601313865L158.42666666666665,85.81630807422448L158.47,87.5408788928985L158.81666666666666,83.28064767009188L158.90333333333334,81.09410892589021L159.23555555555555,82.12243290172466L159.38,80.37884595733465L159.49555555555557,80.95893435068734L159.66888888888892,82.63597045516511L160.37666666666667,85.06652541776111L160.39111111111112,86.79070078197316L160.50666666666666,80.73435743539876L160.63666666666666,85.1079853528103L161.14222222222222,87.08351074179177L161.54666666666665,90.3748247637418L161.59,87.8058707586226L162.16777777777776,84.82619369284666L162.51444444444445,86.14200338448326L162.6588888888889,76.05773122402317L163.45333333333335,85.20512483038733L163.64111111111112,84.88154682315042L163.8,89.71778328212378L164.06,86.9433157247696L164.58,89.71868821056194L164.65222222222224,88.94327922250586L164.66666666666666,79.52569441889041L164.69555555555556,87.66668225208366L164.89777777777778,85.62535303503796L165.0711111111111,85.00095428372593L165.40333333333334,82.25420558573194L165.48999999999998,89.58863621171007L165.70666666666665,92.29368677182693L165.79333333333335,89.84434373472916L165.9377777777778,91.18952948967348L166.28444444444443,91.55692192983467L166.53,94.31736115345178L166.84777777777776,90.86022109483116L167.29555555555555,87.20649101637179L167.39666666666668,85.21910970561558L167.44,87.64565037665196L167.55555555555557,87.03175027101551L167.78666666666666,85.75382265406438L167.84444444444443,86.67012877353865L167.94555555555556,90.51452136177834L167.97444444444446,92.51943731731441L168.01777777777778,88.4379909745147L168.52333333333334,88.24925558378895L168.62444444444444,82.78848357564569L168.85555555555555,80.36950253160045L169.14444444444445,85.9246462506726L169.54888888888888,88.73657094290189L169.57777777777778,90.61879284037208L169.5922222222222,91.94415095871805L169.6211111111111,91.36932198999853L169.70777777777778,90.90608028479107L169.83777777777777,91.95839754798908L169.92444444444445,84.02420273543453L169.99666666666667,86.8080050177637L170.41555555555556,95.29232372718914L170.61777777777777,94.85372918090226L170.77666666666667,92.79714842582348L170.92111111111112,87.38931823765569L170.9788888888889,91.40117741905564L170.9933333333333,93.57492357746223L171.39777777777778,88.21488578301516L171.52777777777777,96.55117643413624L171.64333333333335,96.18746553128429L171.86,91.29994527940943L171.87444444444444,89.8269994830361L172.04777777777778,85.19872489679624L172.49555555555554,89.8968363436302L172.62555555555556,90.51230804942064L172.81333333333333,93.85647282409164L172.8711111111111,95.64586386497741L172.94333333333333,89.99012900242762L173.07333333333332,88.87496599295044L173.1888888888889,90.43607993906578L173.29,83.40163113381256L173.30444444444444,88.28509470730212L173.54999999999998,89.48991112910363L173.98333333333335,89.58816375308255L174.12777777777777,90.1191376224681L174.66222222222223,87.0280516252234L174.79222222222222,68.45518970436027L174.80666666666667,76.6177436961644L174.89333333333332,78.40178714460468L175.12444444444444,83.37802757183512L175.22555555555556,90.49679589060256L175.63,90.68926923148219L175.64444444444445,95.69069400915649L175.77444444444444,95.41699670078413L175.84666666666666,95.37606824147224L176.00555555555556,94.82405660233553L176.13555555555556,93.27624826411827L176.33777777777777,97.56392267215502L176.49666666666664,96.15100737987056L176.88666666666666,92.24565622469922L176.93,91.95878065724713L177.06,93.62497473759038L177.42111111111112,94.82644839543791L177.4788888888889,95.44114235146628L177.60888888888888,94.7691816208418L177.8111111111111,85.97423146472312L177.89777777777778,89.6759081092405L177.92666666666668,88.3924043233777L178.41777777777776,88.37444880680607L178.50444444444446,88.01791685439397L178.5911111111111,88.09005747124189L178.62,87.51415189776458L178.63444444444443,86.14958118431522L178.77888888888887,81.79768753837628L178.85111111111112,85.07307844633509L179.05333333333334,86.69886101392554L179.18333333333334,88.88108011292861L179.41444444444443,91.31379068362041L179.77555555555554,90.33247686732774L180.05,93.74341632056469L180.17999999999998,91.99240353098737L180.44,89.69780954015135L180.83,87.81634107491216L181.16222222222223,89.45114651648137L181.1911111111111,92.77702405392742L181.20555555555558,86.24598458185989L181.94222222222223,92.22373125844886L182.05777777777777,93.05695528409807L182.1011111111111,90.2890215893758L182.23111111111112,94.5649325955017L182.78,93.26439637760373L182.99666666666667,90.19152072816266L183.2277777777778,93.26687452303021L183.51666666666665,93.65752212639069L183.61777777777777,94.89484476962083L183.71888888888887,95.86781282716883L183.79111111111112,93.0070161550873L184.23888888888888,79.26233759358469L184.35444444444445,90.20717974036472L184.38333333333333,82.00213950081108L184.87444444444444,80.39572409257214L184.91777777777776,77.08244271981245L185.12,81.04442534050999L185.16333333333333,84.72239304645707L185.32222222222222,86.07318443523727L185.4088888888889,82.41792792019517L185.81333333333333,87.88602642464716L185.85666666666665,85.66695655902498L185.8711111111111,84.7233753124662L185.95777777777778,86.22661001544778L185.98666666666668,87.31120920303132L186.23222222222222,88.93687216286887L186.3477777777778,88.96597459223884L186.47777777777776,83.17330887670953L186.69444444444446,90.97986984873623L186.92555555555558,88.46080804924765L187.4888888888889,90.91987222213761L187.66222222222223,82.62106777979179L187.69111111111113,83.40946923347259L187.83555555555554,84.2324034712686L187.99444444444444,88.01597737920127L188.09555555555556,88.95038335456414L188.19666666666666,86.3878013870867L188.22555555555553,92.92295807150656L188.47111111111113,92.27961786034582L188.74555555555554,93.75862242843438L189.26555555555555,92.40224218918604L189.41,87.22179479929045L189.65555555555557,89.10454942901272L189.7422222222222,87.57674533199872L189.87222222222223,86.31773568775078L190.30555555555554,85.26669113559447L190.63777777777779,87.97854244118116L190.65222222222224,88.49005248532659L190.91222222222223,91.97846426001766L191.31666666666666,92.03306251425491L191.3888888888889,99.69480242696201L191.57666666666668,100.38462245172056L191.59111111111113,98.06503203761622L191.7788888888889,91.32171990425613L191.89444444444445,93.54020190720779L191.96666666666664,94.24172798173356L191.99555555555557,93.44587554900737L192.01000000000002,87.86811188679275L192.29888888888888,92.63775754209018L192.37111111111113,92.61428876404219L192.57333333333335,91.53497217194503L192.71777777777777,89.60697305089562L192.79000000000002,90.46134049143477L192.89111111111112,93.97400571033154L193.16555555555556,91.69660062779148L193.3388888888889,95.8186220870053L193.84444444444443,94.48126170822083L193.97444444444446,95.84914770170337L194.66777777777776,93.13769204029867L194.74,89.17641884111168L194.95666666666668,85.5312740412436L195.11555555555557,86.53099166026774L195.17333333333335,88.75671115832452L195.40444444444444,82.57322161812309L195.59222222222223,89.97872776468402L195.88111111111112,76.05994130778197L196.01111111111112,83.86105775088512L196.12666666666667,83.78918319664095L196.41555555555556,85.71604486878584L196.64666666666665,87.83575242590148L196.93555555555557,94.62128025533359L196.9788888888889,96.9008492467158L197.20999999999998,91.58310560210663L197.4411111111111,93.65124066111773L197.6,92.31972826213605L198.46666666666667,87.21789874420573L198.59666666666666,83.86545461969892L198.6111111111111,87.26129507158588L199.04444444444445,91.14657194098467L199.3188888888889,87.09227204898804L199.36222222222221,89.2799375193959L199.68,87.3557473196602L200.31555555555556,90.33294621551131L200.6188888888889,87.9492275341142L200.70555555555555,89.18920142451799L200.73444444444445,88.13365816473885L201.0377777777778,90.21663462076825L201.35555555555555,91.30149384624589L201.77444444444447,92.53547354596665L202.4388888888889,93.7479154896776L202.67,90.96813511528528L202.84333333333333,87.70210546574056L203.69555555555556,94.50891611256549L203.92666666666668,90.05918558405845L204.37444444444444,92.4628147089218L204.48999999999998,92.53485134181078L204.79333333333332,92.48641675587797L205.15444444444444,97.10774942222163L205.22666666666666,99.6454305988384L205.41444444444443,97.69711961058914L205.60222222222222,98.54626136163043L205.6888888888889,94.09106705186552L206.29555555555555,88.46112023692855L206.31,90.11152412917842L206.38222222222223,86.8698621962636L206.5988888888889,88.33533410872037L207.43666666666667,87.64552772429593L207.68222222222224,89.50694352789355L208.07222222222222,95.54612783434172L208.08666666666667,94.3296615795538L208.20222222222222,89.52230977001967L208.37555555555554,93.12616591869276L208.41888888888892,85.70836100282786L208.54888888888888,88.50521110221115L208.76555555555555,88.95402766216702L208.82333333333335,93.16285086584291L208.85222222222222,94.24687549249222L209.0688888888889,96.14145543356557L209.32888888888888,95.77693666326891L209.5888888888889,91.88807510406222L209.80555555555557,93.62174488262886L209.95,92.6852808271952L209.99333333333334,94.98119327277585L210.16666666666666,92.97380146124917L210.18111111111114,93.93333919488761L210.23888888888888,96.14362488942793L210.64333333333335,96.85048814101062L211.01888888888888,93.4207531387306L211.49555555555554,92.06488899863513L211.7122222222222,92.96159233309307L212.23222222222222,91.96539561374047L212.30444444444444,93.40373467970014L212.99777777777777,91.40656765271667L213.05555555555554,90.55990078090439L213.34444444444446,94.1386712945118L214.03777777777776,96.30856242091568L214.0522222222222,93.56520555375116L214.42777777777778,84.59324566441494L214.4711111111111,83.73518164449422L215.07777777777778,83.6400812868173L215.3088888888889,88.24759501412309L215.81444444444443,90.65237779222521L216.0311111111111,93.66410206353505L216.14666666666668,95.08405803456552L216.21888888888887,92.50435541672582L216.23333333333332,97.32024709345741L216.71,89.76401798361788L216.95555555555555,88.33984087112951L216.99888888888887,94.29711815580627L217.04222222222222,94.09267043220511L217.23000000000002,91.59684502910936L217.62,94.70389597656008L217.88,94.20851220683687L217.9811111111111,95.77040229693058L218.0822222222222,88.93463580368673L218.31333333333333,92.09585192536541L218.4,87.09495555600661L218.70333333333332,91.54847626233777L218.89111111111112,94.81788339139119L219.05,91.03611079747988L219.39666666666668,94.69975955764619L219.7288888888889,95.2824921815405L219.77222222222224,95.44434590903067L219.95999999999998,96.49582287104643L220.01777777777778,96.55015616333655L220.10444444444443,96.90939168675729L220.4077777777778,96.05920205440515L220.72555555555553,93.62525677807396L220.73999999999998,92.49207989223586L221.01444444444445,92.89711722555715L221.05777777777777,93.57302452305444L221.17333333333335,93.83481603712389L221.1877777777778,96.34744634368916L221.20222222222222,99.54954106720201L221.2888888888889,102.601497655071L221.57777777777778,96.1822757137418L221.60666666666668,96.45790858173541L221.86666666666667,98.82816274994546L222.34333333333333,98.80277718155514L222.5888888888889,99.02897396031662L222.79111111111112,98.42556934731817L222.87777777777777,98.41531603697649L223.3688888888889,95.85051008305037L223.9611111111111,97.33108991357905L224.36555555555555,100.55314798850038L224.75555555555556,96.08844747704056L224.82777777777775,89.85931260750337L224.91444444444446,89.84947555027645L225.24666666666664,88.38470416523363L225.60777777777776,92.19891273362418L225.7811111111111,91.46014153589593L225.79555555555555,89.87621965528258L225.88222222222223,92.3149556855177L226.01222222222222,84.37456226160445L226.2577777777778,87.94795596827117L226.43111111111114,93.13894968509959L226.51777777777778,96.6247024884922L226.80666666666664,93.78753844719034L226.86444444444444,87.03295091113561L227.21111111111114,89.51969193326389L227.24,93.71370686833232L227.37,94.0193075692732L228.09222222222223,95.15969118469573L228.4388888888889,95.14394971213623L228.45333333333335,93.46588790363343L228.7711111111111,92.08023864169112L229.27666666666667,95.59707578503604L229.29111111111112,99.66767946940202L229.58,98.5428411385253" style="fill: none;" fill="none"></path></g></g></g></g><g opacity="0.2"><g><g><g><path stroke="rgb(255, 112, 67)" stroke-width="2px" d="M32.34111111111111,-39.95713363374982L33.12111111111111,16.2162173475538L33.135555555555555,-2.0453450679779053L33.42444444444445,-4.457883255822324L33.684444444444445,5.380605527332854L33.727777777777774,8.631819554737639L33.74222222222222,0.0065415927341949676L33.88666666666666,6.954573971884585L34.782222222222224,2.045272316251471L35.172222222222224,5.16472993578229L35.40333333333333,33.62924454893384L35.504444444444445,17.649638550622107L35.51888888888889,32.123064041137695L35.995555555555555,29.53939257349286L36.19777777777778,32.19101870059967L36.31333333333333,37.03852685860224L36.385555555555555,9.39606128420148L36.41444444444444,24.869550194059087L36.58777777777778,23.816635676792693L36.73222222222222,38.9809297493526L37.35333333333333,24.400377341679167L37.46888888888889,33.023707679339815L37.58444444444444,43.07382062503269L37.96,-3.9048034123012054L38.089999999999996,36.95968217509134L38.147777777777776,-68.54856211798534L38.17666666666667,15.295604876109529L38.37888888888889,28.277134963444304L38.40777777777778,18.593577044350745L38.50888888888889,54.43419216360364L38.62444444444444,12.420077732631135L38.71111111111111,46.65332681792123L38.72555555555555,11.249851056507659L39.11555555555555,38.843095541000366L40.17,51.73724019527435L40.64666666666666,33.03577991894312L40.69,22.692469937460757L40.93555555555555,53.01796613420758L41.065555555555555,50.450822949409485L41.08,49.169505902699065L41.166666666666664,49.664505617959165L41.18111111111111,44.57921298912592L41.25333333333334,31.897435171263552L41.513333333333335,51.67965265682764L41.556666666666665,34.58542200497217L41.68666666666667,56.49113355364118L42.394444444444446,48.01808100087302L42.437777777777775,35.16839068276541L42.52444444444445,51.51585517610822L42.611111111111114,46.26269551685877L42.68333333333333,44.41000459875379L42.827777777777776,54.82167088985443L42.91444444444445,52.35632707391467L42.986666666666665,33.04028143201556L43.73777777777778,39.31217745372226L43.81,51.25918556962695L43.82444444444444,61.70237003053937L44.08444444444444,39.591816902160645L44.272222222222226,57.777543221201206L44.46,51.14110042367663L45.00888888888889,61.836968302726746L45.254444444444445,50.65276961667197L45.54333333333333,48.35585362570627L45.73111111111111,51.913162963730954L46.04888888888889,36.038849932806826L46.092222222222226,33.26604671137674L46.294444444444444,53.17284395013537L46.352222222222224,65.45132711955479L47.04555555555555,51.991045202527715L47.132222222222225,65.15364372730255L47.14666666666667,52.02891399179187L47.464444444444446,55.639089584350586L47.63777777777778,54.53555956908634L47.782222222222224,69.26589717183795L48.215555555555554,46.27294138499668L48.37444444444444,45.16255300385611L48.49,63.36314037867954L48.57666666666666,61.81111112662723L49.03888888888889,54.241096956389285L49.096666666666664,57.045774527958464L49.45777777777777,62.20481164114816L49.68888888888889,71.25849117551532L49.70333333333333,57.71001294681003L49.92,69.8365056344441L49.977777777777774,55.64822144167764L50.22333333333333,47.28810836587634L50.72888888888889,58.54342186450958L50.84444444444445,54.008382371493745L51.13333333333333,70.17680183478764L51.33555555555556,61.14888853686197L51.465555555555554,56.001832723617554L51.55222222222222,44.192522406578064L51.62444444444445,46.27415391377039L51.72555555555556,53.99377897807529L51.855555555555554,61.37945846148899L52.05777777777778,87.14016274043492L52.086666666666666,62.613274693489075L52.13,68.10767453057426L52.260000000000005,65.80817433765955L52.76555555555556,60.35365911892481L53.11222222222222,56.42062500544956L53.41555555555556,65.22675163405282L53.67555555555556,62.77759507724216L53.80555555555555,72.6119839974812L53.99333333333333,70.79017467158181L54.03666666666667,66.14003588472094L54.15222222222222,81.85601539271218L54.73,69.49978639398303L54.97555555555555,74.67030463899884L55.12,51.74555359567914L55.163333333333334,71.88896824632373L55.452222222222225,80.74314890589032L55.68333333333334,72.87147273336139L55.943333333333335,59.34898809024265L56.11666666666666,64.82695058413914L56.36222222222223,63.5785915851593L56.44888888888889,55.70048143182483L56.79555555555555,66.74678528308868L56.983333333333334,68.36962621552604L57.026666666666664,76.49425862516675L57.04111111111111,72.89626894678388L57.156666666666666,66.82211363315582L57.214444444444446,66.39109754562378L57.315555555555555,67.50863226822445L58.02333333333333,75.85637755053384L58.08111111111111,66.95055074351174L58.18222222222222,66.88915131773267L58.31222222222222,55.989237580980564L58.63,68.86370137759617L58.687777777777775,74.91617516108921L58.80333333333333,52.43668741839273L58.918888888888894,62.50197213036673L58.97666666666667,68.86117780208588L59.26555555555556,73.56674431051526L59.337777777777774,72.66122782230377L59.352222222222224,66.72071591445378L59.42444444444445,79.96870677811759L59.59777777777778,62.196172373635434L59.641111111111115,84.95777767045158L59.71333333333333,83.30454015731812L59.98777777777778,70.58798549856458L60.218888888888884,72.22705915996006L60.36333333333333,66.56683085645948L60.53666666666667,67.23959486825126L60.91222222222222,52.17109056881495L61.04222222222222,79.26709973812103L61.547777777777775,53.07151443617685L61.562222222222225,74.0117575270789L61.59111111111111,63.769011650766636L62.22666666666667,80.66632762977055L62.342222222222226,71.24316784313747L62.47222222222222,81.44053483009338L62.501111111111115,80.45559770720345L62.57333333333333,75.49734020233154L62.934444444444445,60.162246295384L62.94888888888889,68.01950095381055L63.093333333333334,67.8815758058003L63.12222222222223,53.694193431309294L63.19444444444444,62.63347845418112L63.39666666666667,67.69699861322131L63.483333333333334,70.36037869112832L63.61333333333334,74.24970872061593L63.83,87.39961358479091L63.88777777777778,50.54279325689588L63.916666666666664,67.07170510292053L64.27777777777779,44.49432839666095L64.59555555555555,66.13420816830225L64.68222222222222,67.59460813658578L64.92777777777778,78.91981634071895L65.01444444444444,64.8409173999514L65.39,63.70396706036158L58.095555555555556,33.05067886625018L58.196666666666665,58.838854500225615L58.26888888888889,54.71646886212485L58.45666666666666,38.81726867812021L58.55777777777777,52.531363180705476L58.99111111111111,16.307581390653326L59.19333333333333,1.0417228766850006L59.69888888888889,40.086066365242004L59.727777777777774,27.71364252907889L60.897777777777776,52.67636646543231L61.02777777777778,41.056619865553714L61.15777777777778,24.397164140428806L61.24444444444444,26.190948895045686L61.59111111111111,70.27218237945011L62.269999999999996,76.9794899054936L62.385555555555555,39.2403199672699L62.90555555555555,56.1079820394516L63.13666666666667,50.68988815375736L63.18,53.54325633389609L63.29555555555555,65.62023995603833L63.33888888888889,63.417166113853455L63.68555555555555,38.618360911096836L63.74333333333333,56.69323936530521L64.17666666666666,57.35886461394174L64.50888888888889,57.68066975048609L64.72555555555556,69.88597680841174L64.98555555555555,46.91049659252167L65.07222222222222,24.248129197529387L65.30333333333333,57.1029907294682L65.56333333333333,47.4271626813071L65.57777777777778,31.33060070446558L66.06888888888889,62.089401636804844L66.21333333333332,62.68785279137747L66.25666666666667,60.05597572667258L66.27111111111111,55.23997058187213L66.3,70.7239933354514L66.31444444444443,69.06997525691986L66.67555555555555,67.62999124186379L67.15222222222222,73.90146287849971L67.48444444444443,77.35372175489154L67.73,55.66717478207178L68.17777777777778,56.91932293346949L68.56777777777778,64.58627120086125L68.64,54.59112370014191L68.95777777777778,55.08240246772766L69.23222222222222,65.34918672697884L69.26111111111112,48.3187199320112L69.44888888888889,66.41812178066797L69.68,-4.777945382254458L70.0988888888889,47.7805541924068L70.14222222222223,76.34955847263336L70.50333333333333,68.39909824303218L70.8788888888889,72.76133722918374L71.12444444444445,69.52190746579852L71.41333333333334,81.7595511504582L71.67333333333333,65.75318615777152L71.70222222222222,23.022596052714754L71.73111111111112,56.54506834915705L71.81777777777778,47.17656329699924L72.22222222222223,79.12772713388715L72.42444444444445,76.88208595343998L73.23333333333333,46.670036980084014L73.29111111111112,52.74540482248578L73.44999999999999,51.573715533529L73.89777777777778,58.120347840445376L74.01333333333334,61.94338285923004L74.20111111111112,60.81485959461756L74.27333333333334,72.63556010382516L74.50444444444445,61.68794851643698L74.57666666666667,62.15268048218317L74.60555555555555,52.904981187411714L74.75,79.94373626368386L74.80777777777777,49.485521214348935L75.22666666666666,48.35241307531085L75.39999999999999,44.321831021990086L76.1511111111111,46.250608120645786L76.31,67.3530193567276L76.55555555555556,57.82461207253592L76.96,71.03713646956852L77.33555555555556,41.545829755919314L77.50888888888889,73.44283902645111L77.66777777777777,71.66189192022595L77.71111111111111,87.05387616157532L78.53444444444445,53.58752121244159L78.60666666666667,86.7070323058537L78.6211111111111,70.53152712753841L78.76555555555557,53.435220020157956L79.82,79.41451292378562L79.97888888888889,56.002636023930144L79.99333333333333,75.70980555670602L80.02222222222221,75.48223664079394L80.09444444444445,59.58466579232898L80.10888888888888,25.94058443818774L80.47,61.65459639685495L80.54222222222222,69.16429483890533L80.58555555555556,79.84712045533317L80.7011111111111,80.10857955047062L80.99,77.5820712362017L81.03333333333333,69.88472638811383L81.04777777777778,72.19243388516563L81.26444444444444,69.06774723529816L81.58222222222221,64.35962683813912L81.77,57.35384019783564L81.7988888888889,68.47277452264514L81.98666666666668,45.16090093340192L82.52111111111111,64.64285082476479L82.86777777777779,78.90431870732989L82.9688888888889,84.27591969285693L83.05555555555554,67.07408469063895L83.40222222222222,82.16497530256L83.44555555555554,66.88387681756701L84.29777777777778,52.0721482208797L84.54333333333334,71.42437269006457L84.55777777777779,73.96865970747811L84.84666666666666,56.9282729114805L84.89,67.90191597597939L85.02000000000001,64.06481562341962L85.54,67.29113491943905L85.58333333333333,64.80480677740914L85.81444444444445,77.69519259248462L85.84333333333333,56.64380608286176L86.26222222222222,74.18867305346897L86.66666666666666,58.85695149217334L86.78222222222223,60.281953198569155L86.84,64.88010481425694L86.95555555555555,65.87592438289097L87.11444444444444,80.90154305526188L87.49000000000001,66.88962117263249L87.56222222222222,90.78502802337918L87.79333333333334,67.14888255936759L88.02444444444444,78.34100815228054L88.14,53.829731413296294L88.27000000000001,70.2463858297893L88.4,80.23413690498897L88.55888888888889,52.932672313281465L88.57333333333334,89.54043923105512L88.74666666666667,68.2779438836234L88.77555555555556,94.4157938701766L89.32444444444444,69.85512552942548L89.49777777777777,81.66458741256169L89.77222222222223,72.26160865170615L90.10444444444444,78.93620821407863L90.39333333333333,75.49482420512608L90.97111111111111,75.84688193457467L91.08666666666666,88.60344246455601L91.21666666666667,72.21823043482644L91.25999999999999,85.18959043707166L91.28888888888889,87.59496712684631L92.02555555555556,73.99730569975716L92.06888888888889,76.34975550855908L92.35777777777777,54.93086668423243L92.38666666666667,73.80512746742794L92.4011111111111,78.45417497839246L92.50222222222223,63.61289857115064L92.76222222222223,76.1819566828864L93.16666666666667,60.89505321638925L93.45555555555556,72.42466345855168L93.48444444444445,39.0438221011843L93.57111111111111,75.47966759545463L94.01888888888888,80.14324271678925L94.26444444444445,85.03066580636161L94.52444444444446,69.92793030398232L94.64,82.38451879365104L95.08777777777777,81.10208015782493L95.47777777777777,64.69746008941105L95.81,74.06529825074333L96.22888888888889,83.44615593978337L96.38777777777779,89.7328827040536L96.61888888888889,59.50165304115839L96.82111111111111,66.91492513247898L97.12444444444444,79.89215074266706L97.70222222222222,73.88789013453892L98.02,61.44760257857187L98.09222222222222,76.13011349950519L98.62666666666668,76.77584569794791L98.78555555555555,82.82152932030814L98.87222222222222,57.66630128451755L99.07444444444444,79.37919802325112L99.10333333333332,77.39997214930398L99.56555555555555,50.31763424192157L99.91222222222223,45.81343844958713L100.08555555555554,69.76443595545632L100.11444444444444,65.44564339092798L100.20111111111112,63.235817279134466L100.37444444444444,54.1379486492702L100.73555555555555,78.8801818064281L101.14,79.56670801980155L101.16888888888889,68.90363146577563L101.22666666666666,95.41535712139947L101.44333333333333,86.44065489087787L102.03555555555555,74.43706715106964L102.0788888888889,70.7953051839556L102.5988888888889,80.57451646668571L102.84444444444445,91.69930124282837L102.88777777777777,87.36990662983486L103.03222222222223,73.95245729173932L103.29222222222222,76.1656027010509L103.30666666666666,72.77105261598315L103.55222222222223,66.3340859583446L103.59555555555555,81.1653059550694L104.08666666666666,72.16434110913958L104.11555555555556,80.92849908556256L104.21666666666667,70.14511694226947L104.60666666666667,79.20613985402244L104.73666666666666,78.68303978443146L105.04,73.5176899433136L105.38666666666667,88.82072762080601L105.45888888888888,75.39523012297494L105.54555555555555,85.4230476958411L105.93555555555555,83.9390413079943L106.22444444444444,85.7063398872103L106.29666666666667,82.10929749693189L106.51333333333334,87.6890138898577L106.58555555555556,75.22054261820657L107.20666666666666,8.52140365328107L107.26444444444445,79.90144174439567L107.56777777777778,52.83998206683567L107.59666666666666,94.05937103714261L107.82777777777778,89.63154182263784L107.85666666666667,69.8085720028196L107.94333333333334,80.17574606622968L107.97222222222223,76.9654700415475L108.17444444444445,81.77445009776524L108.23222222222223,80.1861207655498L108.56444444444445,86.52359943730491L108.69444444444444,73.67310581888471L108.96888888888888,84.70131267820086L109.12777777777778,71.13128175054278L109.15666666666667,44.642613087381626L109.24333333333334,71.52546727657318L109.43111111111111,79.77145865985325L109.69111111111111,63.50953807149615L110.25444444444445,86.58340741906848L110.58666666666667,85.64538758141654L110.64444444444445,73.81954898153033L110.65888888888888,92.30513366631098L110.75999999999999,92.68632618870053L111.00555555555556,77.89003838811603L111.16444444444446,81.91496702602932L111.32333333333332,57.260642204965855L111.42444444444445,73.49675866535732L111.5111111111111,69.6281704562051L111.85777777777778,77.75509909221104L112.65222222222222,89.67825449364526L112.71,78.35332289763859L113.23,85.20055624416896L113.24444444444444,97.30647762332644L113.30222222222221,87.34845244884491L113.5911111111111,94.7346851485116L113.60555555555557,89.80376258918218L113.62,92.48440604550498L113.73555555555556,79.98868318966457L114.3711111111111,84.49565264156887L114.47222222222221,88.7376845564161L114.51555555555557,74.238864166396L114.79,79.26880485670907L115.57000000000001,73.28151965141296L115.7,87.92119799341474L115.72888888888889,76.03304299286434L115.78666666666668,89.9857972604888L115.87333333333333,101.25617263998303L115.91666666666667,67.19526178496224L116.01777777777778,74.55572824818748L116.13333333333333,87.55319551059178L116.17666666666668,77.56505036354065L116.35000000000001,71.09617146423885L116.74000000000001,76.39136040210724L116.79777777777778,81.48163197721753L116.95666666666666,80.916116135461L117.11555555555555,81.49629599707467L118.09777777777778,77.21166643074581L118.3,98.43309494427271L118.41555555555556,46.50244276864188L118.61777777777777,85.6507227080209L118.63222222222223,93.34938239199775L119.00777777777778,69.8956012555531L119.21000000000001,92.264074410711L119.57111111111111,88.86306003161839L119.99000000000001,79.15231115477425L120.03333333333333,90.06880243335452L120.40888888888888,94.60335691486087L120.66888888888889,95.40620631831032L120.72666666666666,72.57482756887164L121.08777777777777,91.74592297417777L121.46333333333334,87.8804418700082L121.83888888888889,80.50350775037494L122.05555555555556,67.40614327362606L122.17111111111112,82.77369506018502L122.18555555555555,71.9987096786499L122.50333333333333,81.9417108637946L122.56111111111112,86.39100183759417L122.76333333333334,90.58224774258477L123.34111111111112,80.25114262104034L123.47111111111111,95.19102793080467L123.64444444444445,89.70724908794675L123.91888888888889,90.99501148291998L123.96222222222222,90.61915408713477L124.09222222222223,99.96141168049402L124.62666666666667,78.0340792281287L124.85777777777777,78.64073768683842L125.01666666666667,91.56126620939798L125.27666666666667,78.64441316468375L125.4211111111111,79.08046882493156L125.43555555555555,73.67904720987592L125.69555555555556,92.18509331771307L125.71,86.33014047145844L126.04222222222222,84.7886905329568L126.1,89.95192981617791L126.31666666666666,83.70683446952275L126.75,83.90111189229148L126.88,66.80967763492039L126.92333333333335,80.95649334362575L127.02444444444446,80.13868815558297L127.16888888888889,77.95912979330335L127.21222222222222,51.648627076830174L127.28444444444445,54.77377600329263L127.42888888888889,80.91112961087909L127.77555555555556,82.46389395850045L127.90555555555557,85.30653883729663L128.18,74.9453592130116L128.42555555555555,88.9970520394189L129.32111111111112,80.23666048049927L129.82666666666668,85.98190978595188L130.07222222222222,88.12036342280251L130.21666666666667,70.33557489940098L130.28888888888886,86.24056490830013L130.44777777777776,81.99768422331128L130.53444444444446,82.22746600423541L130.63555555555556,73.09291080066136L130.89555555555557,71.79852875641414L130.96777777777777,77.06535967758724L131.04,92.90782867159162L131.3,72.21140996047428L131.45888888888888,89.86680271795817L131.50222222222223,77.83419385978154L131.79111111111112,92.25226362262454L131.90666666666667,79.52855125495365L132.05111111111108,68.88248799528394L132.22444444444443,72.59877501215253L132.55666666666667,94.29146799019404L132.62888888888887,88.80968603066036L133.51,81.7638556276049L133.52444444444444,86.17976416860309L133.98666666666665,90.1580331836428L134.60777777777778,87.17409838948932L134.72333333333333,81.97697271619525L134.8388888888889,95.96224548986979L134.85333333333335,78.91540576730456L135.34444444444443,81.07464669431958L135.50333333333333,92.10178122350149L135.67666666666668,95.1119180066245L135.92222222222222,94.24380803108215L136.7888888888889,59.170041578156614L137.13555555555556,84.63702591827938L137.5688888888889,83.99624235289437L137.62666666666667,77.6183864729745L137.82888888888888,77.87426793575287L138.07444444444442,93.35062144483838L138.16111111111113,91.67436861991882L138.76777777777778,98.97109017201834L138.9988888888889,75.96749823434013L139.1577777777778,95.43751608473914L139.28777777777776,74.48528032643455L139.40333333333334,98.16213265487127L139.6922222222222,82.3281968321119L139.72111111111113,81.01934780393329L139.76444444444445,86.86045508725303L139.79333333333332,94.5141072188105L139.88,72.71045649051666L140.1688888888889,67.98119262286595L140.2122222222222,96.89156922272272L140.28444444444446,89.20394733973913L140.38555555555556,73.71363459314618L140.41444444444443,89.7089352607727L141.1511111111111,83.17003282478878L141.42555555555555,86.68075074468341L141.71444444444444,88.20938576970782L141.7288888888889,78.9131019626345L141.7577777777778,88.94830080441066L141.96,77.25274084295545L142.01777777777778,57.2412417445864L142.14777777777778,63.47708777018955L142.16222222222223,92.58985057898931L142.23444444444442,93.72927902426038L142.30666666666667,98.14918133190699L142.52333333333334,79.04211502415794L142.9711111111111,76.42970662457603L143.14444444444445,78.96050425938198L143.24555555555557,71.35766087259564L143.31777777777776,89.86460122040339L143.52,94.31726453985486L143.65,82.9496784550803L144.02555555555557,84.83549414362226L144.12666666666667,85.72058710030147L144.14111111111112,86.48313128948212L144.2711111111111,81.73943832942417L144.82000000000002,75.11649249281201L144.93555555555554,83.3373087474278L144.95,87.9877279315676L145.0077777777778,80.71739782605853L145.47,65.44487040383476L146.14888888888888,84.90741983481816L146.20666666666668,92.88013375656945L146.46666666666667,91.98258585589272L146.53888888888886,86.47637901987348L146.79888888888888,95.9007551244327L146.84222222222223,87.35478033338275L147.14555555555557,95.74020494733539L147.30444444444444,97.4371958034379L147.6511111111111,83.44470848355975L147.75222222222223,68.98668968677521L147.99777777777777,86.45525070599147L148.02666666666667,87.49916219711304L148.07,92.9036871279989L148.37333333333333,87.42947210584369L148.40222222222224,102.36582592555456L148.47444444444443,87.17215076514653L148.63333333333333,68.68364843300411L148.80666666666667,79.85961708000728L149.0522222222222,82.2133400440216L149.31222222222223,82.91952438013894L149.39888888888888,88.69626912048885L149.4711111111111,88.57062082631248L149.54333333333335,87.28387771333966L149.80333333333334,84.32298854419163L149.81777777777776,82.2037307534899L150.20777777777778,88.79433238506317L150.32333333333335,90.52926781347819L150.4677777777778,94.1449338878904L150.62666666666667,80.57522882734027L150.93,88.34424928256443L151.19,97.52634319237299L151.65222222222224,77.65243579660144L151.66666666666669,84.57533851691655L151.75333333333333,93.4574452298028L152.50444444444446,82.0211239201682L152.53333333333333,85.53281186308179L152.67777777777778,91.18648114374705L152.77888888888887,106.26728124277932L153.1688888888889,94.08690301861081L153.47222222222223,54.44201297419412L153.61666666666667,85.17577518735614L153.8477777777778,49.781984499522615L153.87666666666667,92.46483886241913L153.97777777777776,64.52941117967877L154.44,91.29317230837685L154.51222222222222,88.2534157208034L154.67111111111112,86.2870123386383L154.7433333333333,88.73909412111554L155.36444444444444,86.21555650234222L155.4077777777778,89.70236865963254L155.69666666666666,80.35584448065076L155.78333333333333,90.17651287998471L155.79777777777778,98.90490504673548L156.17333333333335,97.53218985455376L156.27444444444444,91.08448094981057L157.17000000000002,87.95697517054421L157.18444444444444,86.26214792047229L157.31444444444446,92.40714901685715L157.41555555555556,70.18828296661377L157.45888888888888,84.30762732028961L157.56,95.25376492738724L157.60333333333332,82.39368854250226L157.92111111111112,84.39926418236324L158.07999999999998,102.82018319198065L158.23888888888888,91.35289692878723L158.38333333333333,76.51373486859458L158.41222222222223,89.93108568872724L158.42666666666665,83.41617616585323L158.47,90.12773512090955L158.81666666666666,76.89030083588192L158.90333333333334,77.81430080958775L159.23555555555555,83.66491886547634L159.38,77.76346554074969L159.49555555555557,81.82906694071633L159.66888888888892,85.1515246118818L160.37666666666667,88.7123578616551L160.39111111111112,89.37696382829122L160.50666666666666,71.64984241553715L160.63666666666666,91.66842722892761L161.14222222222222,90.04679882526398L161.54666666666665,95.31179579666681L161.59,83.95243975094387L162.16777777777776,80.3566780941827L162.51444444444445,88.11571792193821L162.6588888888889,60.93132298333304L163.45333333333335,98.92621523993355L163.64111111111112,84.3961798122951L163.8,96.97213797058377L164.06,82.78161438873836L164.58,93.8817469392504L164.65222222222224,87.78016574042184L164.66666666666666,65.39931721346719L164.69555555555556,99.87816400187356L164.89777777777778,82.56335920946938L165.0711111111111,84.0643561567579L165.40333333333334,78.13408253874097L165.48999999999998,100.59028215067727L165.70666666666665,96.35126261200223L165.79333333333335,86.1703291790826L165.9377777777778,93.20730812208993L166.28444444444443,92.10801059007645L166.53,98.45801998887744L166.84777777777776,85.67451100690025L167.29555555555555,81.72589589868274L167.39666666666668,82.23803773948124L167.44,91.28546138320651L167.55555555555557,86.11090011256081L167.78666666666666,83.8369312286377L167.84444444444443,88.04458795275006L167.94555555555556,96.2811102441379L167.97444444444446,95.52681125061852L168.01777777777778,82.31582146031516L168.52333333333334,87.96615249770028L168.62444444444444,74.59732556343079L168.85555555555555,76.74103096553257L169.14444444444445,94.25736182928085L169.54888888888888,92.95445798124585L169.57777777777778,93.44212568657738L169.5922222222222,93.932188136237L169.6211111111111,90.50707853691918L169.70777777777778,90.21121772697992L169.83777777777777,93.53687344278607L169.92444444444445,72.12291051660266L169.99666666666667,90.98370844125748L170.41555555555556,108.01880179132733L170.61777777777777,94.19583736147199L170.77666666666667,89.71227729320526L170.92111111111112,79.27757295540401L170.9788888888889,97.41896619115558L170.9933333333333,96.8355428150722L171.39777777777778,80.17482909134456L171.52777777777777,109.05561241081782L171.64333333333335,95.64189917700631L171.86,83.96866490159717L171.87444444444444,87.61758078847613L172.04777777777778,78.25631301743644L172.49555555555554,96.94400351388114L172.62555555555556,91.43551560810633L172.81333333333333,98.87271998609815L172.8711111111111,98.32995042630606L172.94333333333333,81.5065267086029L173.07333333333332,87.2022214787347L173.1888888888889,92.77775085823876L173.29,72.84995792593274L173.30444444444444,95.6102900675365L173.54999999999998,91.29713576180595L173.98333333333335,89.73554268905096L174.12777777777777,90.91559842654638L174.66222222222223,82.39142262935638L174.79222222222222,40.595896823065615L174.80666666666667,88.86157468387059L174.89333333333332,81.0778523172651L175.12444444444444,90.84238821268082L175.22555555555556,101.17494836875372L175.63,90.97797924280167L175.64444444444445,103.1928311756679L175.77444444444444,95.00645073822565L175.84666666666666,95.3146755525044L176.00555555555556,93.99603914363044L176.13555555555556,90.95453575679235L176.33777777777777,103.9954342842102L176.49666666666664,94.03163444144386L176.88666666666666,86.38762949194226L176.93,91.52846730606896L177.06,96.12426585810525L177.42111111111112,96.62865888220924L177.4788888888889,96.36318328550882L177.60888888888888,93.76124052490506L177.8111111111111,72.78180623054504L177.89777777777778,95.22842307601657L177.92666666666668,86.46714864458356L178.41777777777776,88.34751553194863L178.50444444444446,87.4831189257758L178.5911111111111,88.1982683965138L178.62,86.6502935375486L178.63444444444443,84.1027251141412L178.77888888888887,75.26984706946782L178.85111111111112,89.98616480827332L179.05333333333334,89.13753486531121L179.18333333333334,92.15440876143319L179.41444444444443,94.96285653965813L179.77555555555554,88.86050614288875L180.05,98.85982550042016L180.17999999999998,89.36588434662137L180.44,86.25591855389732L180.83,84.9941383770534L181.16222222222223,91.9033546788352L181.1911111111111,97.76584036009652L181.20555555555558,76.44942537375859L181.94222222222223,101.19035127333231L182.05777777777777,94.3067913225719L182.1011111111111,86.13712104729244L182.23111111111112,100.97879910469055L182.78,91.31359205075674L182.99666666666667,85.58220725400108L183.2277777777778,97.87990521533149L183.51666666666665,94.24349353143148L183.61777777777777,96.75082873446601L183.71888888888887,97.32726491349084L183.79111111111112,88.71582114696503L184.23888888888888,58.64531975133078L184.35444444444445,106.62444296053476L184.38333333333333,69.69457914148059L184.87444444444444,77.9861009802137L184.91777777777776,72.11252066067287L185.12,86.98739927155631L185.16333333333333,90.23934460537774L185.32222222222222,88.09937151840755L185.4088888888889,76.93504314763206L185.81333333333333,96.0881741813251L185.85666666666665,82.33835176059178L185.8711111111111,83.30800344262805L185.95777777777778,88.48146206992013L185.98666666666668,88.93810798440661L186.23222222222222,91.37536660262518L186.3477777777778,89.00962823629379L186.47777777777776,74.48431030341557L186.69444444444446,102.68971130677633L186.92555555555558,84.68221535001483L187.4888888888889,94.60846848147256L187.66222222222223,70.17286111627307L187.69111111111113,84.59207141399384L187.83555555555554,85.4668048279626L187.99444444444444,93.69133824110031L188.09555555555556,90.35199231760842L188.19666666666666,82.54392843587058L188.22555555555553,102.72569309813636L188.47111111111113,91.31460754360471L188.74555555555554,95.97712928056717L189.26555555555555,90.36767183031354L189.41,79.45112371444702L189.65555555555557,91.92868137359619L189.7422222222222,85.28503918647766L189.87222222222223,84.42922122137887L190.30555555555554,83.69012430735997L190.63777777777779,92.04631939956121L190.65222222222224,89.25731755154473L190.91222222222223,97.21108192205429L191.31666666666666,92.11495989561081L191.3888888888889,111.1874122960227L191.57666666666668,101.41935248885837L191.59111111111113,94.58564641645975L191.7788888888889,81.206751704216L191.89444444444445,96.86792491163526L191.96666666666664,95.29401709352221L191.99555555555557,92.25209689991814L192.01000000000002,79.50146639347076L192.29888888888888,99.7922260250364L192.37111111111113,92.57908559697015L192.57333333333335,89.91599728379931L192.71777777777777,86.71497436932155L192.79000000000002,91.74289165224347L192.89111111111112,99.24300353867667L193.16555555555556,88.28049300398145L193.3388888888889,102.00165427582604L193.84444444444443,92.47522114004407L193.97444444444446,97.90097669192724L194.66777777777776,89.07050854819161L194.74,83.23450904233115L194.95666666666668,80.06355684144157L195.11555555555557,88.03056808880397L195.17333333333335,92.09529040540967L195.40444444444444,73.297987307821L195.59222222222223,101.0869869845254L195.88111111111112,55.181761622428894L196.01111111111112,95.56273241553988L196.12666666666667,83.6813713652747L196.41555555555556,88.60633737700326L196.64666666666665,91.01531376157489L196.93555555555557,104.79957199948174L196.9788888888889,100.32020273378916L197.20999999999998,83.60649013519287L197.4411111111111,96.75344324963433L197.6,90.32245966366358L198.46666666666667,79.56515446731022L198.59666666666666,78.83678843293872L198.6111111111111,92.35505574941635L199.04444444444445,96.97448724508286L199.3188888888889,81.01082221099308L199.36222222222221,92.56143572500773L199.68,84.46946202005658L200.31555555555556,94.79874455928802L200.6188888888889,84.37364951201847L200.70555555555555,91.04916226012367L200.73444444444445,86.55034327507019L201.0377777777778,93.34109930481229L201.35555555555555,92.9287826844624L201.77444444444447,94.38644309554782L202.4388888888889,95.56657840524402L202.67,86.79846455369677L202.84333333333333,82.80306099142346L203.69555555555556,104.71913208280291L203.92666666666668,83.38458979129791L204.37444444444444,96.0682583962168L204.48999999999998,92.64290629114423L204.79333333333332,92.41376487697873L205.15444444444444,104.03974842173713L205.22666666666666,103.45195236376352L205.41444444444443,94.77465312821525L205.60222222222222,99.81997398819242L205.6888888888889,87.40827558721814L206.29555555555555,80.0162000145231L206.31,92.58712996755328L206.38222222222223,82.00736929689135L206.5988888888889,90.53354197740555L207.43666666666667,86.6108181476593L207.68222222222224,92.29906723329L208.07222222222222,104.60490429401398L208.08666666666667,92.5049621973719L208.20222222222222,82.31128205571856L208.37555555555554,98.53195014170237L208.41888888888892,74.5816536290305L208.54888888888888,92.7004862512861L208.76555555555555,89.6272525021008L208.82333333333335,99.47608567135674L208.85222222222222,95.87291243246622L209.0688888888889,98.9833253451756L209.32888888888888,95.23015850782394L209.5888888888889,86.05478276525226L209.80555555555557,96.2222495504788L209.95,91.28058474404472L209.99333333333334,98.42506194114685L210.16666666666666,89.96271374395914L210.18111111111114,95.3726457953453L210.23888888888888,99.45905343123846L210.64333333333335,97.91078301838465L211.01888888888888,88.27615063531059L211.49555555555554,90.03109278849192L211.7122222222222,94.30664733478002L212.23222222222222,90.47110053471155L212.30444444444444,95.56124327863965L212.99777777777777,88.41081711224147L213.05555555555554,89.28990047318595L213.34444444444446,99.50682706492287L214.03777777777776,99.5633991105216L214.0522222222222,89.45017025300436L214.42777777777778,71.13530583041054L214.4711111111111,82.44808561461312L215.07777777777778,83.4974307503019L215.3088888888889,95.15886560508184L215.81444444444443,94.25955195937838L216.0311111111111,98.18168847049985L216.14666666666668,97.21399199111121L216.21888888888887,88.63480148996625L216.23333333333332,104.54408460855484L216.71,78.42967431885856L216.95555555555555,86.20357520239693L216.99888888888887,103.23303408282143L217.04222222222222,93.78599884680338L217.23000000000002,87.85310692446572L217.62,99.36447239773614L217.88,93.4654365522521L217.9811111111111,98.11323743207114L218.0822222222222,78.68098606382098L218.31333333333333,96.83767610788345L218.4,79.59361100196838L218.70333333333332,98.22875732183456L218.89111111111112,99.72199408497129L219.05,85.36345190661294L219.39666666666668,100.19523269789559L219.7288888888889,96.15659111738205L219.77222222222224,95.68712650026593L219.95999999999998,98.07303831407003L220.01777777777778,96.63165610177177L220.10444444444443,97.4482449718884L220.4077777777778,94.78391760587692L220.72555555555553,89.97433886357717L220.73999999999998,90.79231456347875L221.01444444444445,93.50467322553907L221.05777777777777,94.58688546930041L221.17333333333335,94.22750330822808L221.1877777777778,100.11639180353708L221.20222222222222,104.35268315247126L221.2888888888889,107.17943253687449L221.57777777777778,86.553442801748L221.60666666666668,96.87135788372584L221.86666666666667,102.38354400226049L222.34333333333333,98.76469882896967L222.5888888888889,99.36826912845883L222.79111111111112,97.52046242782049L222.87777777777777,98.399936071464L223.3688888888889,92.00330115216119L223.9611111111111,99.55195965937205L224.36555555555555,105.38623510088239L224.75555555555556,89.39139670985085L224.82777777777775,80.51561030319759L224.91444444444446,89.83471996443612L225.24666666666664,86.18754708766937L225.60777777777776,97.92022558620997L225.7811111111111,90.35198473930359L225.79555555555555,87.50033683436257L225.88222222222223,95.97305973087039L226.01222222222222,72.4639721257346L226.2577777777778,93.30804652827126L226.43111111111114,100.92544026034219L226.51777777777778,101.85333169358117L226.80666666666664,89.53179238523755L226.86444444444444,76.90106960705349L227.21111111111114,93.24980346645627L227.24,100.00472927093506L227.37,94.47770862068448L228.09222222222223,96.8702666078295L228.4388888888889,95.120337503297L228.45333333333335,90.94879519087928L228.7711111111111,90.00176474877767L229.27666666666667,100.8723315000534L229.29111111111112,105.77358499595098L229.58,96.85558364221029" style="fill: none;" fill="none"></path></g></g></g></g></g></g><g transform="translate(70, 178)" clip-path="url(#clip_1)"><clipPath id="clip_1"><rect width="260" height="21"></rect></clipPath><g><g><line x1="0" y1="0" x2="0" y2="5" style="visibility: inherit;" fill="rgb(0, 0, 0)" stroke="rgb(204, 204, 204)" stroke-width="1px"></line><line x1="28.888888888888886" y1="0" x2="28.888888888888886" y2="5" style="visibility: inherit;" fill="rgb(0, 0, 0)" stroke="rgb(204, 204, 204)" stroke-width="1px"></line><line x1="57.77777777777777" y1="0" x2="57.77777777777777" y2="5" style="visibility: inherit;" fill="rgb(0, 0, 0)" stroke="rgb(204, 204, 204)" stroke-width="1px"></line><line x1="86.66666666666666" y1="0" x2="86.66666666666666" y2="5" style="visibility: inherit;" fill="rgb(0, 0, 0)" stroke="rgb(204, 204, 204)" stroke-width="1px"></line><line x1="115.55555555555554" y1="0" x2="115.55555555555554" y2="5" style="visibility: inherit;" fill="rgb(0, 0, 0)" stroke="rgb(204, 204, 204)" stroke-width="1px"></line><line x1="144.44444444444446" y1="0" x2="144.44444444444446" y2="5" style="visibility: inherit;" fill="rgb(0, 0, 0)" stroke="rgb(204, 204, 204)" stroke-width="1px"></line><line x1="173.33333333333331" y1="0" x2="173.33333333333331" y2="5" style="visibility: inherit;" fill="rgb(0, 0, 0)" stroke="rgb(204, 204, 204)" stroke-width="1px"></line><line x1="202.22222222222223" y1="0" x2="202.22222222222223" y2="5" style="visibility: inherit;" fill="rgb(0, 0, 0)" stroke="rgb(204, 204, 204)" stroke-width="1px"></line><line x1="231.1111111111111" y1="0" x2="231.1111111111111" y2="5" style="visibility: inherit;" fill="rgb(0, 0, 0)" stroke="rgb(204, 204, 204)" stroke-width="1px"></line><line x1="260" y1="0" x2="260" y2="5" style="visibility: inherit;" fill="rgb(0, 0, 0)" stroke="rgb(204, 204, 204)" stroke-width="1px"></line></g><g transform="translate(0, 8)"><text x="0" y="0" dx="0em" dy="0.95em" style="text-anchor: middle; visibility: hidden; font-family: Roboto, sans-serif; font-size: 12px; font-weight: 200;" fill="rgb(50, 49, 63)" stroke="none" stroke-width="1px">-2k</text><text x="28.888888888888886" y="0" dx="0em" dy="0.95em" style="text-anchor: middle; visibility: inherit; font-family: Roboto, sans-serif; font-size: 12px; font-weight: 200;" fill="rgb(50, 49, 63)" stroke="none" stroke-width="1px">0</text><text x="57.77777777777777" y="0" dx="0em" dy="0.95em" style="text-anchor: middle; visibility: inherit; font-family: Roboto, sans-serif; font-size: 12px; font-weight: 200;" fill="rgb(50, 49, 63)" stroke="none" stroke-width="1px">2k</text><text x="86.66666666666666" y="0" dx="0em" dy="0.95em" style="text-anchor: middle; visibility: inherit; font-family: Roboto, sans-serif; font-size: 12px; font-weight: 200;" fill="rgb(50, 49, 63)" stroke="none" stroke-width="1px">4k</text><text x="115.55555555555554" y="0" dx="0em" dy="0.95em" style="text-anchor: middle; visibility: inherit; font-family: Roboto, sans-serif; font-size: 12px; font-weight: 200;" fill="rgb(50, 49, 63)" stroke="none" stroke-width="1px">6k</text><text x="144.44444444444446" y="0" dx="0em" dy="0.95em" style="text-anchor: middle; visibility: inherit; font-family: Roboto, sans-serif; font-size: 12px; font-weight: 200;" fill="rgb(50, 49, 63)" stroke="none" stroke-width="1px">8k</text><text x="173.33333333333331" y="0" dx="0em" dy="0.95em" style="text-anchor: middle; visibility: inherit; font-family: Roboto, sans-serif; font-size: 12px; font-weight: 200;" fill="rgb(50, 49, 63)" stroke="none" stroke-width="1px">10k</text><text x="202.22222222222223" y="0" dx="0em" dy="0.95em" style="text-anchor: middle; visibility: inherit; font-family: Roboto, sans-serif; font-size: 12px; font-weight: 200;" fill="rgb(50, 49, 63)" stroke="none" stroke-width="1px">12k</text><text x="231.1111111111111" y="0" dx="0em" dy="0.95em" style="text-anchor: middle; visibility: inherit; font-family: Roboto, sans-serif; font-size: 12px; font-weight: 200;" fill="rgb(50, 49, 63)" stroke="none" stroke-width="1px">14k</text><text x="260" y="0" dx="0em" dy="0.95em" style="text-anchor: middle; visibility: hidden; font-family: Roboto, sans-serif; font-size: 12px; font-weight: 200;" fill="rgb(50, 49, 63)" stroke="none" stroke-width="1px">16k</text></g><line x1="0" y1="0" x2="260" y2="0" fill="rgb(0, 0, 0)" stroke="rgb(204, 204, 204)" stroke-width="1px"></line></g></g></g></g></svg>