<svg viewBox="0 0 330.0000305175781 200.00001525878906" xmlns="http://www.w3.org/2000/svg"><g><g><g><g><g><line x1="70" y1="178" x2="65" y2="178" style="visibility: inherit;" fill="rgb(0, 0, 0)" stroke="rgb(204, 204, 204)" stroke-width="1px"></line><line x1="70" y1="158.2222222222222" x2="65" y2="158.2222222222222" style="visibility: inherit;" fill="rgb(0, 0, 0)" stroke="rgb(204, 204, 204)" stroke-width="1px"></line><line x1="70" y1="138.44444444444446" x2="65" y2="138.44444444444446" style="visibility: inherit;" fill="rgb(0, 0, 0)" stroke="rgb(204, 204, 204)" stroke-width="1px"></line><line x1="70" y1="118.66666666666669" x2="65" y2="118.66666666666669" style="visibility: inherit;" fill="rgb(0, 0, 0)" stroke="rgb(204, 204, 204)" stroke-width="1px"></line><line x1="70" y1="98.8888888888889" x2="65" y2="98.8888888888889" style="visibility: inherit;" fill="rgb(0, 0, 0)" stroke="rgb(204, 204, 204)" stroke-width="1px"></line><line x1="70" y1="79.1111111111111" x2="65" y2="79.1111111111111" style="visibility: inherit;" fill="rgb(0, 0, 0)" stroke="rgb(204, 204, 204)" stroke-width="1px"></line><line x1="70" y1="59.33333333333332" x2="65" y2="59.33333333333332" style="visibility: inherit;" fill="rgb(0, 0, 0)" stroke="rgb(204, 204, 204)" stroke-width="1px"></line><line x1="70" y1="39.55555555555557" x2="65" y2="39.55555555555557" style="visibility: inherit;" fill="rgb(0, 0, 0)" stroke="rgb(204, 204, 204)" stroke-width="1px"></line><line x1="70" y1="19.777777777777768" x2="65" y2="19.777777777777768" style="visibility: inherit;" fill="rgb(0, 0, 0)" stroke="rgb(204, 204, 204)" stroke-width="1px"></line><line x1="70" y1="0" x2="65" y2="0" style="visibility: inherit;" fill="rgb(0, 0, 0)" stroke="rgb(204, 204, 204)" stroke-width="1px"></line></g><g transform="translate(60, 0)"><text x="0" y="178" dx="0em" dy="0.3em" style="text-anchor: end; visibility: hidden; font-family: Roboto, sans-serif; font-size: 12px; font-weight: 200;" fill="rgb(50, 49, 63)" stroke="none" stroke-width="1px">-5e-3</text><text x="0" y="158.2222222222222" dx="0em" dy="0.3em" style="text-anchor: end; visibility: inherit; font-family: Roboto, sans-serif; font-size: 12px; font-weight: 200;" fill="rgb(50, 49, 63)" stroke="none" stroke-width="1px">0</text><text x="0" y="138.44444444444446" dx="0em" dy="0.3em" style="text-anchor: end; visibility: hidden; font-family: Roboto, sans-serif; font-size: 12px; font-weight: 200;" fill="rgb(50, 49, 63)" stroke="none" stroke-width="1px">5e-3</text><text x="0" y="118.66666666666669" dx="0em" dy="0.3em" style="text-anchor: end; visibility: inherit; font-family: Roboto, sans-serif; font-size: 12px; font-weight: 200;" fill="rgb(50, 49, 63)" stroke="none" stroke-width="1px">0.01</text><text x="0" y="98.8888888888889" dx="0em" dy="0.3em" style="text-anchor: end; visibility: hidden; font-family: Roboto, sans-serif; font-size: 12px; font-weight: 200;" fill="rgb(50, 49, 63)" stroke="none" stroke-width="1px">0.015</text><text x="0" y="79.1111111111111" dx="0em" dy="0.3em" style="text-anchor: end; visibility: inherit; font-family: Roboto, sans-serif; font-size: 12px; font-weight: 200;" fill="rgb(50, 49, 63)" stroke="none" stroke-width="1px">0.02</text><text x="0" y="59.33333333333332" dx="0em" dy="0.3em" style="text-anchor: end; visibility: hidden; font-family: Roboto, sans-serif; font-size: 12px; font-weight: 200;" fill="rgb(50, 49, 63)" stroke="none" stroke-width="1px">0.025</text><text x="0" y="39.55555555555557" dx="0em" dy="0.3em" style="text-anchor: end; visibility: inherit; font-family: Roboto, sans-serif; font-size: 12px; font-weight: 200;" fill="rgb(50, 49, 63)" stroke="none" stroke-width="1px">0.03</text><text x="0" y="19.777777777777768" dx="0em" dy="0.3em" style="text-anchor: end; visibility: hidden; font-family: Roboto, sans-serif; font-size: 12px; font-weight: 200;" fill="rgb(50, 49, 63)" stroke="none" stroke-width="1px">0.035</text><text x="0" y="0" dx="0em" dy="0.3em" style="text-anchor: end; visibility: hidden; font-family: Roboto, sans-serif; font-size: 12px; font-weight: 200;" fill="rgb(50, 49, 63)" stroke="none" stroke-width="1px">0.04</text></g><line x1="70" y1="0" x2="70" y2="178" fill="rgb(0, 0, 0)" stroke="rgb(204, 204, 204)" stroke-width="1px"></line></g></g><g transform="translate(70, 0)" clip-path="url(#clip_0)"><clipPath id="clip_0"><rect width="260" height="177"></rect></clipPath><g><g><g><line x1="0" y1="0" x2="0" y2="178" fill="rgb(0, 0, 0)" stroke="rgb(60, 60, 60)" stroke-width="1px" opacity="0.25"></line><line x1="18.57142857142857" y1="0" x2="18.57142857142857" y2="178" fill="rgb(0, 0, 0)" stroke="rgb(60, 60, 60)" stroke-width="1px" opacity="0.25"></line><line x1="37.14285714285714" y1="0" x2="37.14285714285714" y2="178" fill="rgb(0, 0, 0)" stroke="rgb(60, 60, 60)" stroke-width="1px" opacity="0.25"></line><line x1="55.71428571428571" y1="0" x2="55.71428571428571" y2="178" fill="rgb(0, 0, 0)" stroke="rgb(60, 60, 60)" stroke-width="1px" opacity="0.25"></line><line x1="74.28571428571428" y1="0" x2="74.28571428571428" y2="178" fill="rgb(0, 0, 0)" stroke="rgb(60, 60, 60)" stroke-width="1px" opacity="0.25"></line><line x1="92.85714285714286" y1="0" x2="92.85714285714286" y2="178" fill="rgb(0, 0, 0)" stroke="rgb(60, 60, 60)" stroke-width="1px" opacity="0.25"></line><line x1="111.42857142857142" y1="0" x2="111.42857142857142" y2="178" fill="rgb(0, 0, 0)" stroke="rgb(60, 60, 60)" stroke-width="1px" opacity="0.25"></line><line x1="130" y1="0" x2="130" y2="178" fill="rgb(0, 0, 0)" stroke="rgb(60, 60, 60)" stroke-width="1px" opacity="0.25"></line><line x1="148.57142857142856" y1="0" x2="148.57142857142856" y2="178" fill="rgb(0, 0, 0)" stroke="rgb(60, 60, 60)" stroke-width="1px" opacity="0.25"></line><line x1="167.14285714285717" y1="0" x2="167.14285714285717" y2="178" fill="rgb(0, 0, 0)" stroke="rgb(60, 60, 60)" stroke-width="1px" opacity="0.25"></line><line x1="185.71428571428572" y1="0" x2="185.71428571428572" y2="178" fill="rgb(0, 0, 0)" stroke="rgb(60, 60, 60)" stroke-width="1px" opacity="0.25"></line><line x1="204.28571428571428" y1="0" x2="204.28571428571428" y2="178" fill="rgb(0, 0, 0)" stroke="rgb(60, 60, 60)" stroke-width="1px" opacity="0.25"></line><line x1="222.85714285714283" y1="0" x2="222.85714285714283" y2="178" fill="rgb(0, 0, 0)" stroke="rgb(60, 60, 60)" stroke-width="1px" opacity="0.25"></line><line x1="241.42857142857144" y1="0" x2="241.42857142857144" y2="178" fill="rgb(0, 0, 0)" stroke="rgb(60, 60, 60)" stroke-width="1px" opacity="0.25"></line><line x1="260" y1="0" x2="260" y2="178" fill="rgb(0, 0, 0)" stroke="rgb(60, 60, 60)" stroke-width="1px" opacity="0.25"></line></g><g><line x1="0" y1="178" x2="260" y2="178" fill="rgb(0, 0, 0)" stroke="rgb(60, 60, 60)" stroke-width="1px" opacity="0.25"></line><line x1="0" y1="158.2222222222222" x2="260" y2="158.2222222222222" fill="rgb(0, 0, 0)" stroke="rgb(60, 60, 60)" stroke-width="1px" opacity="0.25"></line><line x1="0" y1="138.44444444444446" x2="260" y2="138.44444444444446" fill="rgb(0, 0, 0)" stroke="rgb(60, 60, 60)" stroke-width="1px" opacity="0.25"></line><line x1="0" y1="118.66666666666669" x2="260" y2="118.66666666666669" fill="rgb(0, 0, 0)" stroke="rgb(60, 60, 60)" stroke-width="1px" opacity="0.25"></line><line x1="0" y1="98.8888888888889" x2="260" y2="98.8888888888889" fill="rgb(0, 0, 0)" stroke="rgb(60, 60, 60)" stroke-width="1px" opacity="0.25"></line><line x1="0" y1="79.1111111111111" x2="260" y2="79.1111111111111" fill="rgb(0, 0, 0)" stroke="rgb(60, 60, 60)" stroke-width="1px" opacity="0.25"></line><line x1="0" y1="59.33333333333332" x2="260" y2="59.33333333333332" fill="rgb(0, 0, 0)" stroke="rgb(60, 60, 60)" stroke-width="1px" opacity="0.25"></line><line x1="0" y1="39.55555555555557" x2="260" y2="39.55555555555557" fill="rgb(0, 0, 0)" stroke="rgb(60, 60, 60)" stroke-width="1px" opacity="0.25"></line><line x1="0" y1="19.777777777777768" x2="260" y2="19.777777777777768" fill="rgb(0, 0, 0)" stroke="rgb(60, 60, 60)" stroke-width="1px" opacity="0.25"></line><line x1="0" y1="0" x2="260" y2="0" fill="rgb(0, 0, 0)" stroke="rgb(60, 60, 60)" stroke-width="1px" opacity="0.25"></line></g></g></g><g><g><line x1="0" y1="158.2222222222222" x2="260" y2="158.2222222222222" fill="rgb(0, 0, 0)" stroke="rgb(153, 153, 153)" stroke-width="1.5px"></line></g></g><g><g><line x1="18.57142857142857" y1="0" x2="18.57142857142857" y2="178" fill="rgb(0, 0, 0)" stroke="rgb(153, 153, 153)" stroke-width="1.5px"></line></g></g><g><g><g><g><g><path stroke="rgb(255, 112, 67)" stroke-width="2px" d="M19.03571428571429,13.588518791728553L19.128571428571426,20.179377154997216L19.59285714285714,21.133684933943147L19.87142857142857,29.29608356510509L19.964285714285715,34.87323486515285L20.242857142857144,34.11692248452094L20.335714285714285,38.24675914461028L20.428571428571427,38.29291652679257L20.8,37.97548816026006L21.914285714285715,40.718135372584086L22.285714285714285,41.78479261254785L22.47142857142857,41.965188245984315L22.65714285714286,40.3389617393937L22.75,38.947441344328524L22.935714285714287,40.314922984622285L23.492857142857144,37.14615823437503L23.585714285714285,34.46023165991095L23.678571428571427,35.38737982998603L23.771428571428572,23.780632613119465L23.864285714285714,24.52864476286103L24.42142857142857,26.256887955944183L24.607142857142858,28.863364639713804L24.792857142857144,31.931725881489605L24.885714285714286,35.56208090523808L25.164285714285715,36.842413840479374L25.257142857142856,38.72677883297314L25.35,36.99641202283631L25.44285714285714,40.33840451691152L25.90714285714286,40.281860190606956L26.37142857142857,41.65291787060917L26.65,44.47498497140125L26.742857142857144,44.11342951632117L27.3,45.52738905645922L28.042857142857144,44.91374288888411L28.321428571428573,46.718651567149486L28.414285714285715,49.05890992843655L29.064285714285713,50.506623656899755L29.34285714285714,52.799790145507224L29.52857142857143,52.30106195671129L30.17857142857143,52.08740180628459L30.27142857142857,53.03874598508527L18.664285714285715,49.71197470274387L18.75714285714286,39.80011377720286L19.40714285714286,40.30600748389138L19.59285714285714,36.474688163350194L19.77857142857143,37.72949879793917L19.87142857142857,36.272607687113194L19.964285714285715,37.97344369557196L20.614285714285714,38.381342605691L21.07857142857143,39.83693863216053L21.264285714285712,40.34355258976375L21.357142857142858,38.401124537028444L21.728571428571428,38.54033115769608L22.192857142857143,35.68929374780228L22.285714285714285,32.95363332859765L22.564285714285713,31.258161691674836L23.12142857142857,34.07192510721556L23.214285714285715,34.10086034079168L23.4,29.76499614672996L23.678571428571427,31.329845711940965L23.864285714285714,32.145101899147924L23.957142857142856,32.68087886536896L24.142857142857142,34.40871365062289L24.32857142857143,36.63497074688488L24.42142857142857,37.76633009609352L25.071428571428573,36.851455756890104L25.814285714285713,37.315443264640926L25.90714285714286,36.83318123779956L26,37.614651863982374L26.37142857142857,39.75946458653166L27.3,40.77137331970405L27.392857142857142,41.94980614610876L27.578571428571426,41.590946072492734L27.95,44.19733103675675L28.228571428571428,44.60540795355712L28.321428571428573,43.30552433275251L28.414285714285715,46.545572310286396L28.692857142857143,49.41677963670318L29.807142857142857,52.08245512459181L30.364285714285714,53.511245946476926L30.642857142857142,53.300990487358035L30.82857142857143,54.90910381743086L30.92142857142857,54.28633805531557L31.107142857142858,51.0923031605761L31.478571428571428,53.51348783900439L31.849999999999998,52.41939256987544L32.035714285714285,54.50910095722973L32.5,57.14644802535282L33.05714285714286,58.88124492309449L33.707142857142856,61.17850200460113L33.800000000000004,62.191036185162034L34.26428571428571,64.6890101935803L34.35714285714286,64.77556031498375L34.72857142857143,66.90613160082783L34.82142857142857,62.697827437081095L35.19285714285714,64.2068605051376L35.285714285714285,67.01611018448841L35.47142857142857,69.01426227405132L35.75,68.81992063030266L36.214285714285715,68.27530018731244L36.30714285714286,65.48595840299338L36.400000000000006,67.85795571916584L36.864285714285714,68.80063980632103L36.95714285714286,70.86096364849358L37.05,73.36539651686553L37.32857142857143,73.08169544376564L38.16428571428572,73.15791513006648L38.35,73.05462442982882L38.721428571428575,75.32712502061523L38.90714285714285,74.95934092888778L39,77.27761640904275L39.46428571428571,78.95763523756163L39.55714285714286,82.2970071405785L40.114285714285714,84.98093371685755L40.392857142857146,86.21503819093161L40.76428571428571,87.3895382078271L41.135714285714286,87.6613375397859L41.32142857142857,88.50281174780973L41.69285714285714,88.96192600641368L41.78571428571429,89.80212833322436L41.878571428571426,89.75165985447065L42.06428571428572,86.89649818014261L42.528571428571425,88.93900011668174L42.62142857142857,89.00883755632843L42.99285714285715,89.195268560902L43.08571428571428,88.31870483545522L43.17857142857142,85.11563977826377L44.57142857142857,87.18030536289544L45.221428571428575,90.15048327075688L45.31428571428572,91.74855362348151L45.77857142857143,94.28715278972464L45.871428571428574,91.98414844679058L46.05714285714286,91.31663000362862L46.24285714285714,92.67001858381207L46.61428571428572,94.75887628391781L47.449999999999996,96.4755671699998L47.635714285714286,94.92904501572038L47.72857142857143,96.80191001446829L48.00714285714285,97.54055368805942L48.56428571428571,97.98799501174973L49.30714285714286,98.62369512826596L49.4,99.3050380707473L49.67857142857142,99.48969389034211L49.77142857142857,101.38125927507977L50.050000000000004,102.72817803422355L50.142857142857146,102.822837747182L50.60714285714286,103.40898131625883L50.7,103.00741833484L51.72142857142857,103.56729837677145L52,104.81501448706719L52.09285714285714,105.21174280564533L52.278571428571425,106.35758359801194L52.464285714285715,107.80619136425905L52.74285714285714,108.87676081245598L53.76428571428572,109.80294582780739L54.22857142857143,110.61023507974066L54.41428571428572,112.01598764340629L54.69285714285714,111.90724655155468L54.87857142857143,112.32705312724487L55.34285714285714,112.50999345010194L55.43571428571428,113.21236401283437L55.99285714285714,113.65296500855106L56.17857142857143,114.82521884321606L56.27142857142857,115.48975996116533L56.457142857142856,115.00759573341522L56.55,114.41382679332138L56.642857142857146,111.85250603229238L56.82857142857143,112.7318551045207L57.01428571428571,112.67339320254098L57.47857142857143,113.3829620391132L57.57142857142857,111.85661846222425L57.66428571428571,112.3620959443419L57.85,112.74579345241256L58.40714285714286,113.2977790578169L58.59285714285715,114.1962229980474L58.964285714285715,115.18270030474632L59.05714285714286,114.31825164401884L59.15,115.17681484158592L59.52142857142857,115.8268725900263L59.89285714285714,116.73563974983045L59.98571428571428,117.1466896848281L60.26428571428571,116.44698199646199L60.45,117.3325373981593L60.54285714285714,117.52602189989821L60.635714285714286,117.42134690537686L60.72857142857143,118.83459607777897L60.82142857142857,118.23784713231242L60.91428571428572,118.66473798515189L61.099999999999994,119.15462710774418L61.19285714285714,119.75994411483195L61.65714285714286,119.57436381796953L61.75,119.9861036915172L62.121428571428574,120.72122482690335L62.4,121.75834077454343L62.58571428571429,121.38924637479919L63.14285714285714,122.21794080605478L63.32857142857143,121.80911919054232L63.792857142857144,122.02336863896525L64.16428571428571,121.31050235257771L64.25714285714285,121.51178865351181L64.44285714285715,122.44266325944604L64.72142857142858,122.52466535250942L65.55714285714286,122.8240430054867L66.20714285714286,123.11565443436791L66.3,123.69774754034661L66.4857142857143,123.56042337016875L66.57857142857142,124.27027029563385L66.67142857142858,123.80740070255241L66.76428571428572,123.04871139029267L66.95,123.43186857716042L67.22857142857143,124.05398950970586L67.60000000000001,124.32345263248197L67.69285714285714,124.71686320197976L68.06428571428572,125.2842188151251L68.34285714285714,125.63612806018145L68.71428571428572,126.42458096333405L68.99285714285713,126.84150010247225L69.08571428571429,126.82139182016975L69.17857142857143,126.29224890597739L69.27142857142856,126.41400500370052L69.36428571428571,126.73300331495373L69.55,127.26231220645691L69.64285714285714,127.01042295548422L69.7357142857143,125.97273933680768L69.92142857142856,125.99264242032658L70.01428571428572,125.85090278437626L70.10714285714285,125.34817739391056L70.2,125.44477199108448L70.38571428571429,125.8934909807322L70.57142857142857,125.22967990942894L70.66428571428571,125.39899735703482L71.31428571428572,125.6220372799322L71.59285714285714,124.27237703051769L71.77857142857142,124.40679594674582L71.96428571428572,124.98725380337918L72.24285714285715,125.81186267340519L72.42857142857143,125.46567919462989L72.61428571428571,126.02869267504869L72.98571428571428,126.16485493531631L73.35714285714286,126.04824008910792L73.63571428571429,126.07235431073836L73.72857142857143,126.26016794741835L73.82142857142857,126.8383656342764L73.91428571428573,127.46604519163454L74.47142857142858,127.68460184344846L75.02857142857144,128.18994000413576L75.21428571428572,128.1706485716604L75.30714285714286,128.86203200664687L75.39999999999999,128.7149999534937L75.67857142857143,128.85402280940997L75.95714285714286,128.08894540851676L76.05,128.89918059139185L76.32857142857144,129.75000749736446L76.42142857142858,129.61002353194797L76.5142857142857,130.759609812687L76.7,129.95189806431821L76.88571428571429,129.98658557343083L77.44285714285715,129.71077333718668L77.72142857142858,129.75425751231236L77.8142857142857,130.50045084779467L78.09285714285714,130.1839497560508L78.18571428571428,129.70706858123182L78.27857142857142,130.069440989326L78.46428571428571,129.2073255876039L78.55714285714286,128.46183893658008L79.11428571428571,129.33671546647565L79.48571428571428,129.22487584835272L79.57857142857142,129.17307715492825L79.7642857142857,129.37571511846104L79.95,129.80065832449205L80.13571428571429,130.34131313840786L80.22857142857143,129.65046653762982L80.32142857142857,130.06760717063136L80.41428571428571,130.62449353932774L80.50714285714287,130.29723948579183L80.78571428571429,130.01615301369327L80.97142857142858,130.46363379985596L81.15714285714286,130.5912953558477L81.43571428571428,130.8047715032552L81.62142857142858,131.27610636318823L81.71428571428571,131.84747689085137L81.80714285714286,131.24458168766793L82.17857142857143,131.04128384157724L82.36428571428571,130.76502621604234L82.45714285714286,131.46721215825858L82.64285714285714,131.42154853868905L82.92142857142858,131.73510384315168L83.29285714285714,132.1576625325136L83.57142857142858,132.12028645039274L83.85000000000001,132.40470045751607L83.94285714285714,131.6717038881611L84.12857142857143,131.9926116764858L84.31428571428572,132.04390566666424L84.5,131.52605476254436L84.96428571428572,130.8272144742819L85.24285714285713,130.05101943544656L85.42857142857143,130.0026988996787L85.70714285714286,130.69448168218312L86.45,130.65004771551648L86.82142857142857,130.83757469736247L87.19285714285714,130.88346518929905L87.37857142857143,131.53919166909816L87.47142857142856,131.93802427487353L87.84285714285714,131.14559942447244L88.02857142857142,131.2314844148039L88.12142857142857,130.96491737663857L88.4,131.03877736007274L88.58571428571427,131.53505432502354L88.77142857142857,131.59934903803466L89.05000000000001,131.82679700679944L89.23571428571428,132.34367002690462L89.32857142857144,131.84830415982503L89.51428571428572,132.3796091639133L89.88571428571429,132.76835132913308L90.25714285714285,133.09493390999435L90.90714285714286,132.8193161534334L91,132.95412365850723L91.09285714285714,133.4816423684977L91.18571428571428,133.90092970083754L91.37142857142857,134.30693005573957L91.46428571428572,134.65128389643615L91.64999999999999,134.56528073738636L91.74285714285715,133.80179145937058L91.83571428571429,133.94438765401048L92.11428571428571,133.27780825835762L92.20714285714286,133.93277945781483L92.3,133.4576824820531L92.39285714285715,134.13103535976774L92.57857142857144,132.75363240509654L93.13571428571429,132.79879941583488L93.22857142857144,133.17966085410845L93.50714285714287,133.6340799985302L94.15714285714286,133.9592524129161L94.43571428571428,134.38975979268957L95.08571428571429,134.44622573464153L95.17857142857142,133.83093495382005L95.27142857142857,133.2006319775365L95.45714285714286,133.79044814153815L95.55,133.64484033132467L95.64285714285715,133.9189572657683L95.92142857142858,133.19077540019998L96.0142857142857,133.96859178680708L96.2,133.86202763341873L96.38571428571429,134.52222360429542L96.47857142857143,135.20321214396066L96.85,135.74918989757836L96.94285714285714,136.40901280479096L97.31428571428572,136.67435322080533L97.40714285714286,136.2098146499399L97.5,136.58117531818644L97.59285714285714,136.76890270891369L97.87142857142858,137.0123520444763L97.96428571428571,136.7714373969375L98.05714285714286,136.44478615759198L98.33571428571429,135.9751672491386L98.42857142857143,134.93832317429704L99.17142857142858,134.30398935495944L99.54285714285714,134.2943015189027L99.72857142857143,133.99977477783457L99.91428571428571,134.49108439606144L100.00714285714285,133.62684297624108L100.28571428571429,133.70608405833363L100.37857142857143,134.04117495740547L100.56428571428572,134.31839385851475L100.65714285714286,133.71599788742094L100.75,134.16130710615857L100.84285714285714,134.33066733977924L101.12142857142857,133.4011654662247L101.86428571428571,132.69322419147758L102.05,133.23492556826568L102.2357142857143,133.65845570744406L102.42142857142856,134.04522333239382L102.51428571428572,134.42064061479815L102.79285714285714,134.78968857861565L102.97857142857143,135.2652976611254L103.07142857142857,135.16726565004365L103.16428571428571,134.80554479147207L103.62857142857143,135.42536460176134L104.27857142857142,135.5867919620559L104.37142857142857,136.33567004174162L104.65,136.9279956585151L104.83571428571427,136.76670982392798L105.39285714285714,136.9404904787602L105.48571428571428,136.71808150174311L105.67142857142856,136.24082017915993L105.85714285714286,135.69526172069834L106.22857142857143,135.31344635055444L106.6,135.65303858955087L106.78571428571428,135.8648263245534L107.25,135.86475634766023L107.34285714285714,136.01213807776398L107.43571428571428,136.46282656389818L108.08571428571429,136.2972684712891L108.17857142857143,136.6392824777811L108.73571428571428,136.45607032081793L108.92142857142858,136.72884140360202L109.10714285714286,136.66827122274103L109.2,136.95625136350017L109.29285714285714,136.7962867384054L110.12857142857143,136.15081643818897L110.3142857142857,136.65458917485182L110.59285714285714,136.82559726450035L110.96428571428571,137.0635937577175L111.14999999999999,137.57461517194426L111.24285714285715,137.89076976553164L111.61428571428571,138.3797089774295L111.70714285714286,138.60235758187L111.89285714285715,138.8365250667479L111.98571428571428,138.28353076840355L112.07857142857142,138.1781102721733L112.35714285714286,137.68727447607696L112.45,137.42910950978654L113.37857142857142,137.863551400503L113.56428571428572,138.1149905136828L113.65714285714286,138.24028059513475L113.93571428571428,138.4263766612013L114.02857142857142,137.4655140254921L114.12142857142858,137.62866902567848L114.4,137.56237254412088L114.49285714285713,137.10172020859852L114.58571428571429,137.35520546357435L115.97857142857143,137.6560216361305L116.25714285714285,137.58400004176153L116.44285714285714,137.91892297750778L116.53571428571429,137.78650903512167L116.72142857142858,137.1880917253913L116.81428571428572,137.34428405596543L117.09285714285714,136.8944807879662L117.37142857142857,137.21393101762882L117.46428571428572,137.6432801190287L117.55714285714285,137.93319901803565L117.65,137.958570946238L117.83571428571429,137.8331923269564L118.02142857142856,137.71481559160688L118.20714285714286,137.44455027987564L118.39285714285714,137.9111546567977L118.4857142857143,137.94202221576145L118.67142857142856,138.22265750141005L118.85714285714285,138.8317736864814L119.04285714285714,138.97040834718175L119.13571428571429,139.34830976417234L119.22857142857143,139.75184726708312L119.32142857142857,139.386243968396L119.41428571428571,138.892730049643L120.34285714285714,138.9794229611269L120.71428571428572,139.07223890623052L121.08571428571427,138.1005650129802L121.17857142857143,138.23751254158205L121.27142857142857,138.69398118376853L121.45714285714286,138.64124230457455L121.73571428571428,138.52709691421984L122.01428571428572,138.76961234354758L122.19999999999999,139.23436217353813L122.47857142857143,139.03447356359626L122.66428571428573,139.05268188631686L123.03571428571428,139.2975723713756L123.22142857142858,139.2150142577564L123.40714285714286,139.11560747873926L123.5,138.93457477275126L123.77857142857144,138.79488226193754L123.87142857142857,138.51290148746682L123.96428571428572,138.6426096442826L124.05714285714286,138.7181411106691L124.24285714285715,137.64863426775153L124.70714285714286,137.07031016327977L124.98571428571428,137.38568594166208L125.45,137.38826238394822L125.63571428571429,137.7832541520689L126.00714285714287,137.78345907725537L126.19285714285715,137.0476938553772L126.5642857142857,137.41540428222643L126.65714285714286,137.5004688815039L126.75,137.69744407435445L126.84285714285714,137.68851137802173L127.02857142857142,137.85866063292477L127.30714285714286,137.8678195641447L127.39999999999999,137.97555566664283L127.58571428571429,138.09290208851797L127.67857142857142,137.99352869540738L128.32857142857142,138.4649357479671L128.5142857142857,138.45586994095046L128.79285714285714,138.8608481075008L128.8857142857143,138.9159994472638L129.1642857142857,138.694727122249L129.25714285714287,138.99750726307326L129.7214285714286,139.0836091149655L129.81428571428572,139.45087363409596L129.90714285714287,139.3550732435005L130.18571428571428,139.76145427109586L130.37142857142857,140.22418705151586L130.46428571428572,140.36573961210084L130.55714285714285,139.97522135483206L130.64999999999998,139.73447503579607L130.74285714285716,139.92327362843344L130.8357142857143,140.21502596625706L131.39285714285714,140.1339497993236L131.85714285714286,140.0665400672483L131.95,140.38046324566915L132.04285714285714,140.75352489104856L132.50714285714287,140.9628363688627L132.87857142857143,140.76807738104017L133.06428571428572,140.27363535214826L133.15714285714284,140.55478386713656L133.52857142857144,140.1045172526131L133.9,139.91031161735333L134.54999999999998,140.04541698183505L134.7357142857143,140.10513724016445L135.0142857142857,140.43611934874193L135.20000000000002,139.7493141157034L135.29285714285714,140.202975099543L135.57142857142858,140.2207462932335L135.6642857142857,140.13503475390542L135.85,140.2856843446268L135.94285714285715,140.23522806569432L136.22142857142856,140.11829600497128L137.8,140.50117043629427L137.89285714285714,139.66434076290287L137.98571428571427,139.87426266545916L138.07857142857142,140.0273812035128L138.45,139.85654463527572L138.72857142857143,139.53299017325548L139.1,139.87430017438655L139.19285714285715,139.74955749360134L139.28571428571428,139.9601564168533L139.65714285714284,140.03144636836055L139.75,140.67121208739212L139.84285714285713,140.7839528234012L140.02857142857144,140.70382135643757L140.2142857142857,141.07205504267523L140.4,140.83813508174683L140.5857142857143,140.83672857059054L141.32857142857142,141.10124528122324L141.79285714285714,141.16159391493738L141.88571428571427,140.7357397388123L142.72142857142856,140.8888113746675L142.81428571428572,140.38715832362595L143.8357142857143,140.22464605035407L144.20714285714286,140.41054497353718L144.3,140.35137954832683L144.57857142857142,140.58533123615797L144.67142857142855,141.00497771155574L144.95,141.28646605051955L145.13571428571427,141.3810058748092L145.22857142857143,141.44759965295552L145.32142857142858,141.03569097993568L145.97142857142856,140.74517476899774L146.06428571428572,140.8131134872703L146.15714285714287,140.80448493372015L146.25,140.78865094591728L146.52857142857144,139.8755874055816L146.71428571428572,139.52252853294615L146.80714285714285,139.505762001879L146.89999999999998,138.78322257928343L146.99285714285716,138.4287695954978L147.64285714285714,137.72848010579736L148.10714285714286,138.07565390303392L148.2,138.07294233179283L148.47857142857143,138.16904729926824L149.12857142857143,138.10557782691532L149.31428571428572,138.7200904487749L150.24285714285713,139.13247736722352L150.42857142857144,139.35527400088418L150.70714285714286,139.53110848495595L150.79999999999998,139.59924823972557L150.9857142857143,139.5490073467097L151.07857142857142,140.17946462384404L151.63571428571427,140.55682386595066L151.72857142857143,140.44813261561177L152.2857142857143,140.6137379448711L152.37857142857143,140.59065812440275L153.21428571428572,141.0552500024478L153.5857142857143,141.517257275378L153.77142857142857,141.88247791261384L154.14285714285714,141.71843023769875L154.7,141.68360781733065L154.97857142857143,141.80084671265533L155.1642857142857,141.78240342571985L155.44285714285715,141.34545971201047L155.6285714285714,141.4090649506771L155.7214285714286,140.53852967015814L156.09285714285713,140.69636476527702L156.18571428571428,140.5012302552688L156.37142857142857,140.56928727266111L156.4642857142857,140.94452828223402L156.65,141.16360690758697L156.92857142857142,141.13815030920304L157.11428571428573,141.3449240677077L157.4857142857143,141.62010871273114L157.67142857142858,140.5455124891796L157.7642857142857,140.25525165641955L157.85714285714283,140.36288305337416L158.04285714285714,140.68048634543518L158.22857142857143,140.1726749804919L158.4142857142857,140.24520087951498L158.69285714285712,140.44421461250388L158.97142857142856,140.27471084568305L159.06428571428572,140.00557699780728L159.15714285714284,140.60497751930976L159.43571428571428,140.50110429738623L159.71428571428572,140.39051350580186L160.0857142857143,140.33568258233078L160.3642857142857,140.53696894835255L160.7357142857143,140.20238977336294L160.82857142857142,140.44393600537114L160.92142857142855,140.86993672971784L161.57142857142858,140.96526879259983L161.75714285714284,140.85708867480494L161.85000000000002,141.15796379076727L161.94285714285715,140.27027252559424L162.22142857142856,140.4908320019984L162.31428571428572,139.39877813592315L162.87142857142857,139.6946381611753L162.96428571428572,140.4110197053832L163.05714285714285,140.5469174748991L163.3357142857143,140.48185595900156L163.70714285714286,140.7635505884287L163.8,140.63754546001132L163.98571428571427,141.00070418862782L164.07857142857145,141.21909750252254L164.17142857142858,141.38604067981433L164.2642857142857,141.53773252229567L164.45,141.39088835075106L164.72857142857143,141.30320098362841L165.00714285714287,140.55651539143156L165.37857142857143,140.77052652531472L165.4714285714286,140.63287010034833L165.93571428571428,140.88195135303823L166.12142857142857,140.58820136667265L166.2142857142857,140.59899681155426L166.30714285714288,140.49154559342486L166.67857142857144,140.60955992344267L166.95714285714286,140.52547645488968L167.14285714285717,140.51516197574765L167.5142857142857,141.3386151034703L167.60714285714286,140.87872900881666L167.70000000000002,141.2058422095971L167.79285714285714,141.17186610314485L167.97857142857143,141.51577593499007L168.44285714285715,140.99695664654726L168.5357142857143,140.9468687598192L168.72142857142856,141.31687445530676L168.81428571428572,141.26911306221066L168.90714285714287,141.00298120177357L169.18571428571428,141.24116907727628L169.3714285714286,141.79586625760516L169.46428571428572,141.00301395413757L169.55714285714285,141.3417698958026L170.3,141.85282678877206L170.39285714285714,142.01274852279062L170.67142857142858,142.46888256026716L171.50714285714287,142.7114326328841L172.06428571428572,142.52744988463584L172.15714285714284,142.70141058312726L172.7142857142857,142.74087421921905L172.80714285714285,143.00810426679965L172.9,142.6172131721703L173.0857142857143,142.6856162306327L173.17857142857142,142.05934278883794L173.27142857142857,142.25189083984924L173.64285714285714,142.2619759761223L174.0142857142857,142.32888409021524L174.20000000000002,142.2227254992133L174.29285714285714,142.45134259894806L175.0357142857143,142.04115389623695L175.12857142857143,142.03973712039928L175.40714285714284,142.1735211894659L175.68571428571428,142.0278981044564L176.05714285714285,142.2024048938393L176.24285714285713,142.446966203506L176.6142857142857,142.47684547118976L177.07857142857142,142.42308891306027L177.17142857142855,141.81582768533693L177.54285714285714,141.68838794178424L177.63571428571427,141.98359998401165L177.9142857142857,142.15487020912315L178.00714285714284,142.56370836983743L178.10000000000002,142.9382271447519L178.37857142857143,142.49809697692913L178.75,142.66948028885116L178.93571428571428,142.15807875958924L179.12142857142857,142.50165547919167L179.21428571428572,142.37002933845955L179.30714285714285,142.5031998189135L179.95714285714286,142.65668963627607L180.14285714285714,142.55144765994214L180.23571428571427,142.47760229576764L180.79285714285714,142.88732177888906L180.8857142857143,142.80297046689196L180.97857142857143,143.0099232370327L181.1642857142857,143.39641523995695L181.35,142.49460812674457L182.27857142857144,142.79223634685755L182.4642857142857,143.21231415529658L183.29999999999998,142.7961253274015L183.67142857142858,142.33014073822352L184.13571428571427,142.87154583071444L184.22857142857143,142.98772444256937L184.32142857142858,143.0934254518242L184.6,142.94841427342584L184.69285714285715,142.97480042345333L184.7857142857143,142.39490375736L184.87857142857143,141.60274469773083L185.25,141.64756227039396L185.34285714285716,141.6491607912162L185.43571428571428,142.1635940705572L185.71428571428572,142.1401768413369L185.9,142.62233702305778L186.0857142857143,142.89836499671082L186.27142857142857,143.32021585054147L186.3642857142857,143.33131396040076L186.45714285714288,143.3820247144826L186.64285714285714,143.40017625007647L186.73571428571427,143.44283684755948L187.2,143.34103345629933L187.47857142857143,143.36481615886882L187.6642857142857,142.7956967776406L187.94285714285715,143.0434967782695L188.2214285714286,143.16282121548448L188.31428571428572,142.78774982555166L188.5,142.86175546880008L188.68571428571428,143.08099338294133L189.24285714285713,143.24673336691782L189.3357142857143,143.29777135656852L189.52142857142857,142.4935571672445L189.70714285714286,142.46072481321622L190.54285714285714,142.9649029157817L190.63571428571427,143.11663246074818L190.72857142857143,142.88016755972524L190.82142857142856,141.4268135654575L191.93571428571428,141.08728185667414L192.12142857142857,141.38051277191045L192.30714285714285,141.57230119716667L192.49285714285713,141.7371317683944L192.8642857142857,141.72903453363577L192.95714285714286,141.68432082714213L193.05,142.05748186161202L193.2357142857143,141.77360523096462L193.32857142857142,141.93048519508605L193.60714285714286,141.92589978580583L193.7,142.26818156007513L193.79285714285714,142.71100808534914L193.97857142857143,142.5391828436173L194.44285714285715,142.34466137563177L194.72142857142856,141.77649304155665L194.90714285714287,142.15579705225832L195,142.12953254291085L195.18571428571428,141.99929941698377L195.46428571428572,142.42318545008553L195.74285714285716,142.48665093657738L195.92857142857142,142.801285685471L196.20714285714286,142.55184660411626L196.48571428571427,142.64685407844922L196.57857142857145,142.4047918943329L196.85714285714286,142.0397111480422L197.04285714285714,141.846042643685L197.1357142857143,141.96019334888686L197.87857142857143,142.2562751563467L197.9714285714286,142.1389808079802L198.15714285714284,142.27043873248823L198.62142857142857,142.218781051889L199.0857142857143,142.17839556897957L199.17857142857144,142.41580647621305L199.27142857142857,142.62442815494413L199.45714285714286,142.83740754067256L199.54999999999998,143.26187921104747L199.7357142857143,143.0370862033711L199.92142857142858,143.0810332617814L200.20000000000002,143.25372178681917L200.29285714285714,143.13214528680248L200.6642857142857,143.18432735374435L201.12857142857143,143.19148135246115L201.31428571428572,143.06595544265525L201.8714285714286,142.9514479644312L201.96428571428572,142.79418396161583L202.05714285714285,142.79538792767553L202.15,142.8095227195182L202.24285714285713,142.59572721127233L202.52142857142857,142.80390239467096L202.70714285714288,142.8071947316466L202.98571428571427,143.2266880980175L203.07857142857142,142.96657578406436L203.35714285714286,143.43081912339L203.54285714285712,143.20745215014855L203.72857142857143,143.0353233448494L203.82142857142856,142.94620257842664L203.9142857142857,143.33556970686027L204.28571428571428,143.72079214626496L204.65714285714284,143.0903296912533L204.75,143.0776846029202L204.84285714285713,143.19543506178314L205.2142857142857,142.98027963630773L205.30714285714285,143.17133266319675L205.49285714285713,143.3361103242638L205.5857142857143,143.01160481956956L205.77142857142857,143.02504200342085L205.86428571428573,143.21199685364968L205.95714285714286,142.81805955620612L206.14285714285714,142.39276101384036L206.2357142857143,142.38538910265558L206.32857142857142,142.61906316570983L206.42142857142858,143.13861889200038L206.70000000000002,142.950799037029L206.88571428571427,142.64867960887685L206.97857142857143,142.8502504792953L207.5357142857143,142.40317502332366L207.62857142857143,142.4954957887915L207.72142857142856,142.4799358548736L208.09285714285716,142.87394509693618L208.2785714285714,143.03924857041974L208.46428571428572,142.6343003942625L208.8357142857143,142.78404333390966L209.4857142857143,141.95744643711404L209.76428571428573,141.8049340329371L209.95,142.0767425937658L210.13571428571427,142.5511330942033L210.22857142857143,142.2109683746344L210.4142857142857,142.03113639088025L210.60000000000002,142.22340996253055L210.78571428571428,142.43759159721077L210.87857142857143,142.2926040470212L210.97142857142856,141.62171170198073L211.25,141.43407322764233L211.34285714285713,141.2964222165762L211.62142857142857,141.25020337944594L211.71428571428572,141.62817397107676L211.99285714285716,141.92945106456838L212.27142857142857,142.42273600950486L212.64285714285714,142.15029095062795L213.2,141.61994746844897L213.29285714285714,141.73640609667206L213.57142857142856,142.3510799488785L213.6642857142857,142.45668882631352L213.85,142.3611721705508L214.03571428571428,142.55201188230683L214.12857142857143,142.7954840949799L214.31428571428572,143.10593798772786L214.40714285714284,143.36203957256012L214.59285714285716,143.5921198758718L214.68571428571428,143.64642264101204L214.77857142857144,143.6102612735129L214.87142857142857,143.9248119165914L215.05714285714288,143.95646523514972L215.24285714285713,143.51487243329444L215.3357142857143,143.69752660999993L215.70714285714286,143.95078112395376L215.79999999999998,144.39286651593704L215.9857142857143,144.25222210662926L216.2642857142857,144.5524261635505L216.45000000000002,144.1937234512071L216.72857142857143,144.48720109785495L217.2857142857143,144.51000000706887L217.84285714285716,144.45230434106705L218.21428571428572,144.76334241482343L218.49285714285713,145.0654445385266L218.95714285714288,145.27098308884064L219.14285714285714,144.94551506326923L219.42142857142858,144.76745124671388L219.97857142857143,145.0856205638052L220.07142857142856,144.32680986681456L220.25714285714287,144.5406504692931L220.53571428571428,144.47914883304657L220.81428571428572,143.9246265777593L220.90714285714284,143.9402687761301L221,144.01575696900184L221.8357142857143,143.1460586041168L221.92857142857142,143.41965555378567L222.02142857142857,143.404645761161L222.11428571428573,143.35440083881522L222.29999999999998,143.84610820063722L222.4857142857143,143.87244445626663L222.7642857142857,143.22053277673245L222.85714285714283,142.59971078805194L223.22857142857143,142.62717129677392L223.4142857142857,142.96618498808846L223.50714285714287,143.16150342186657L223.6,143.61291522210834L223.69285714285712,143.59019193860456L224.43571428571428,143.66652454073702L225.27142857142857,143.58424843323158L225.45714285714286,143.76740123472018L225.7357142857143,144.10770199768837L226.2,144.23622625473425L226.47857142857143,144.3310667470143L226.57142857142858,144.2563633398173L226.85000000000002,144.0399173850015L227.22142857142856,143.96436408617686L227.5,143.65832891783182L227.68571428571428,144.09724417352635L227.87142857142857,143.98136003717678L228.14999999999998,144.05327041415944L228.42857142857142,144.49543339631674L228.52142857142857,144.0619185500795L228.61428571428573,144.34185193956154L228.8,144.34993156073554L229.54285714285714,144.24724024046054L229.72857142857143,144.07499203085302L229.9142857142857,144.23952231174832L230.1,143.83607229992265L230.56428571428572,144.22996388302803L231.02857142857144,144.3527814382537L231.4,143.9259652451477L231.77142857142857,144.05902759670926L231.86428571428573,144.0499348613528L231.95714285714286,144.33646159650056L232.32857142857142,143.71813134256055L232.60714285714286,144.16388834760664L232.88571428571427,144.33805541289155L233.35,144.45060037490137L233.62857142857143,144.62724460967482L233.81428571428572,144.6675306950406L234.18571428571428,144.2096462786154L234.2785714285714,144.1641666936504L234.3714285714286,144.32368075644285L234.46428571428572,144.19164785849497L234.65,144.4123424240371L234.8357142857143,144.6763115980388L235.1142857142857,144.90263203231945L235.39285714285714,144.76906009700835L235.48571428571427,144.97886516370622L235.67142857142858,145.07348388210525L235.85714285714286,145.36743164457909L236.50714285714287,145.38888814983164L236.78571428571428,144.9317747275232L236.8785714285714,144.71696276886718L237.06428571428572,144.81735316848037L237.25,144.88182597226648L237.43571428571428,144.7709796688713L237.52857142857144,144.86508341404283L237.7142857142857,145.0310398947388L237.99285714285713,145.33366268029522L238.17857142857142,145.38881447193333L238.45714285714286,145.30293944229263L238.64285714285714,144.98589037557065L238.92142857142858,144.93592262736286L239.0142857142857,144.459843837379L239.10714285714283,144.3885022653153L240.0357142857143,144.55961738528904L240.12857142857143,144.72912698120925L240.31428571428572,144.659618853542L240.40714285714284,144.74728344669262L240.5,144.9534575919604L240.59285714285716,144.93192619662474L240.87142857142857,144.96886940240424L240.96428571428572,145.36281281109257L241.15,145.33255366308202L241.42857142857144,145.05366579292985L241.6142857142857,144.96276183336704L241.8,144.8262464340156L241.9857142857143,144.87528238151432L242.82142857142858,144.98720767059493L242.9142857142857,145.2258527772315L243.19285714285715,145.41577442825857L243.37857142857143,145.0958796475356L243.56428571428572,145.2997194939808L243.75,145.4639637346543L243.93571428571428,145.37011669907432L244.02857142857144,145.40017745975103L244.30714285714285,144.86128204994836L244.86428571428573,144.69154142479195L244.95714285714286,144.79194579158641L245.32857142857145,145.19601087429598L245.60714285714286,145.39201800530282L245.8857142857143,145.463907995245L246.07142857142856,145.32035343278187L246.1642857142857,145.043463993346L246.53571428571428,144.94738260763165L246.90714285714284,144.8412864321293L247.09285714285716,145.01434757882745L247.18571428571428,145.0512347286389L247.27857142857144,144.9891137715165L247.37142857142857,144.92039535143832L247.4642857142857,145.08839160174767L247.74285714285713,145.11921501191367L248.11428571428573,144.75156973579246L248.20714285714286,143.64688930504036L248.29999999999998,143.8804816853662L248.67142857142858,144.02106133854988L248.7642857142857,144.13478212490784L248.95000000000002,144.12593439208896L249.04285714285714,144.61122762458544L249.50714285714287,144.48393035821437L249.7857142857143,144.72487907048483L249.87857142857143,144.7730223473686L250.06428571428572,144.63064230520857L250.25,144.73229796789155L250.34285714285716,145.01438577274672L250.43571428571428,144.86353765170782L250.5285714285714,144.9589444796682L250.80714285714285,144.93461399425863L250.9,144.62335639365665L250.99285714285713,144.27115147967805L251.0857142857143,144.53711861792078L251.3642857142857,144.688449585783L251.45714285714288,144.53948251637757L251.64285714285714,144.89690578486005L252.2,144.7845131876644L252.47857142857143,144.76336794821609L252.75714285714287,144.52082168365885L252.85,144.81028550825846L253.2214285714286,145.00478804752495" style="fill: none;" fill="none"></path></g></g></g></g><g opacity="0.2"><g><g><g><path stroke="rgb(255, 112, 67)" stroke-width="2px" d="M19.03571428571429,13.588518791728553L19.128571428571426,26.11114968193903L19.59285714285714,22.765551235940723L19.87142857142857,49.204173826509056L19.964285714285715,52.13507585393059L20.242857142857144,31.32946513758766L20.335714285714285,55.66240836514366L20.428571428571427,38.5096405711439L20.8,36.34841539131271L21.914285714285715,55.83894076612259L22.285714285714285,48.03742432925436L22.47142857142857,43.079258395565894L22.65714285714286,29.836572766304016L22.75,29.60711011621687L22.935714285714287,49.80673431687885L23.492857142857144,14.499060538080006L23.585714285714285,14.766261041164398L23.678571428571427,42.340113696124824L23.771428571428572,-65.00109792417949L23.864285714285714,30.351345962948265L24.42142857142857,39.920050462087005L24.607142857142858,49.75487239824402L24.792857142857144,56.8275074760119L24.885714285714286,65.33947104546759L25.164285714285715,47.446261819865974L25.257142857142856,54.468560112847214L25.35,22.429314480887527L25.44285714285714,68.66731310221884L25.90714285714286,39.79959435926544L26.37142857142857,53.41122975945473L26.65,68.79691264033318L26.742857142857144,40.98357713222504L27.3,57.81606681810484L28.042857142857144,39.56159980098408L28.321428571428573,62.51103296213678L28.414285714285715,69.59401242600546L29.064285714285713,63.242515153355065L29.34285714285714,73.01983143885928L29.52857142857143,47.894415401750145L30.17857142857143,50.19604130917126L30.27142857142857,61.474288231796685L18.664285714285715,20.16933135853874L18.75714285714286,-48.33860540390015L19.40714285714286,44.809990601407165L19.59285714285714,2.3272104329533003L19.77857142857143,48.924227035707894L19.87142857142857,23.263584799236718L19.964285714285715,53.17274892661306L20.614285714285714,42.02907480465042L21.07857142857143,52.862284723255364L21.264285714285712,44.87957943810358L21.357142857142858,21.000359846485996L21.728571428571428,39.78796060880026L22.192857142857143,10.126361807187404L22.285714285714285,8.415942615932885L22.564285714285713,16.045354697439404L23.12142857142857,59.32643560237354L23.214285714285715,34.36063550578224L23.4,-9.171208348539123L23.678571428571427,45.38537129097515L23.864285714285714,39.46922237012121L23.957142857142856,37.495072907871666L24.142857142857142,49.93659172786608L24.32857142857143,56.645036631160295L24.42142857142857,47.9365591969755L25.071428571428573,28.62632379929226L25.814285714285713,41.48734284109539L25.90714285714286,32.49655355347529L26,44.64244691199726L26.37142857142857,59.049340148766824L27.3,49.87284555368954L27.392857142857142,52.54972069793278L27.578571428571426,38.362844596306495L27.95,67.64408091041777L28.228571428571428,48.27659036715826L28.321428571428573,31.610900223255157L28.414285714285715,75.69629398650592L28.692857142857143,75.24990130795372L29.807142857142857,76.06706360313628L30.364285714285714,66.36724179983139L30.642857142857142,51.40910477439564L30.82857142857143,69.37927800085808L30.92142857142857,48.68243806229698L31.107142857142858,22.350567473305606L31.478571428571428,75.30102644695175L31.849999999999998,42.57380546132725L32.035714285714285,73.31429278850555L32.5,80.88009131617015L33.05714285714286,74.49294864469103L33.707142857142856,81.85206574863857L33.800000000000004,71.30314962069193L34.26428571428571,87.16923492815759L34.35714285714286,65.55446334348784L34.72857142857143,86.08020831478966L34.82142857142857,24.824982941150665L35.19285714285714,77.78754720422957L35.285714285714285,92.29833373758528L35.47142857142857,86.99697584907213L35.75,67.07090319196382L36.214285714285715,63.37386085920862L36.30714285714286,40.382549143499794L36.400000000000006,89.20542123582626L36.864285714285714,77.2846140563488L36.95714285714286,89.40351917677457L37.05,95.9048995309406L37.32857142857143,70.52842583258945L38.16428571428572,73.843882623646L38.35,72.12501993775368L38.721428571428575,95.77939648760689L38.90714285714285,71.64931816524928L39,98.14190249641734L39.46428571428571,94.07767866386307L39.55714285714286,112.35112880832618L40.114285714285714,109.13610981735918L40.392857142857146,97.32191096742946L40.76428571428571,97.95998055239517L41.135714285714286,90.10751948753992L41.32142857142857,96.07604607277447L41.69285714285714,93.09393786059485L41.78571428571429,97.36392214232022L41.878571428571426,89.29744501246346L42.06428571428572,61.200117793348085L42.528571428571425,107.32146946258014L42.62142857142857,89.63737303349707L42.99285714285715,90.87314404712782L43.08571428571428,80.42964634961551L43.17857142857142,56.2881037361092L44.57142857142857,105.76226692398387L45.221428571428575,116.88204728232489L45.31428571428572,106.13116880423492L45.77857142857143,117.13451956046951L45.871428571428574,71.25713036457697L46.05714285714286,85.3089694943693L46.24285714285714,104.85050580733353L46.61428571428572,113.55858169661627L47.449999999999996,111.92577487230301L47.635714285714286,81.01035395595763L47.72857142857143,113.65768592556316L48.00714285714285,104.18834352824423L48.56428571428571,102.0149651683039L49.30714285714286,104.34499393072392L49.4,105.4371223863628L49.67857142857142,101.151595738199L49.77142857142857,118.40534286532137L50.050000000000004,114.85044374399716L50.142857142857146,103.67477496630615L50.60714285714286,108.68427233729098L50.7,99.39335218071938L51.72142857142857,108.60621790256764L52,116.04445777171189L52.09285714285714,108.78229718406993L52.278571428571425,116.67014945877922L52.464285714285715,120.84365981486107L52.74285714285714,118.51188488470183L53.76428571428572,118.13861021730635L54.22857142857143,117.87583775983916L54.41428571428572,124.66775979598361L54.69285714285714,110.9285767889685L54.87857142857143,116.10531208581394L55.34285714285714,114.15645626849597L55.43571428571428,119.53369877570206L55.99285714285714,117.61837379965517L56.17857142857143,125.37550294730399L56.27142857142857,121.4706298145983L56.457142857142856,110.66811781956089L56.55,109.06990648309389L56.642857142857146,88.80061976777182L56.82857142857143,120.64599657389853L57.01428571428571,112.14723609553442L57.47857142857143,119.76908145017093L57.57142857142857,98.11952649884755L57.66428571428571,116.9113932152589L57.85,116.19907097849581L58.40714285714286,118.26564944618279L58.59285714285715,122.28221837182838L58.964285714285715,124.06099597778584L59.05714285714286,106.53821376628345L59.15,122.90388355818058L59.52142857142857,121.67739228407541L59.89285714285714,124.91454413533211L59.98571428571428,120.84613907833892L60.26428571428571,110.1496128340562L60.45,125.3025359759728L60.54285714285714,119.26738240818182L60.635714285714286,116.47927195827165L60.72857142857143,131.55383858581382L60.82142857142857,112.86710663967663L60.91428571428572,122.50675565004349L61.099999999999994,123.56362920006114L61.19285714285714,125.20779716637398L61.65714285714286,117.90414114958709L61.75,123.69176254669824L62.121428571428574,127.33731503453518L62.4,131.0923842895362L62.58571428571429,118.06739678151077L63.14285714285714,129.67619067844416L63.32857142857143,118.12972465488646L63.792857142857144,123.95161367290551L64.16428571428571,114.89470578067834L64.25714285714285,123.32336536049843L64.44285714285715,130.82053470694356L64.72142857142858,123.26268418961102L65.55714285714286,125.5184418807427L66.20714285714286,125.74015729294884L66.3,128.93658549173009L66.4857142857143,122.32450583908293L66.57857142857142,130.65889262242447L66.67142857142858,119.64157436622513L66.76428571428572,116.22050758202869L66.95,126.88028325802749L67.22857142857143,129.65307790123754L67.60000000000001,126.7486207369301L67.69285714285714,128.2575583267543L68.06428571428572,130.3904193325175L68.34285714285714,128.8033112651772L68.71428571428572,133.52065709067713L68.99285714285713,130.5937723542253L69.08571428571429,126.64041727946865L69.17857142857143,121.52996267875034L69.27142857142856,127.50980988310444L69.36428571428571,129.60398811598617L69.55,132.02609222961794L69.64285714285714,124.74341969688732L69.7357142857143,116.63358676930267L69.92142857142856,126.1717701719867L70.01428571428572,124.57524606088796L70.10714285714285,120.8236488799254L70.2,126.31412336561415L70.38571428571429,129.9319618874126L70.57142857142857,119.25538026789823L70.66428571428571,126.92285438544219L71.31428571428572,127.62939658595455L71.59285714285714,112.12543478608131L71.77857142857142,125.61656619277264L71.96428571428572,130.21137451297707L72.24285714285715,133.2333425035079L72.42857142857143,122.3500278857019L72.61428571428571,131.09581399874557L72.98571428571428,127.3903152777089L73.35714285714286,124.99870647324455L73.63571428571429,126.28938230541016L73.72857142857143,127.9504906775223L73.82142857142857,132.04214481595488L73.91428571428573,133.115161207815L74.47142857142858,129.65161170976032L75.02857142857144,132.73798345029354L75.21428571428572,127.99702567938301L75.30714285714286,135.08448292149436L75.39999999999999,127.39171147512066L75.67857142857143,130.1052285126514L75.95714285714286,121.20324880050289L76.05,136.1912972372439L76.32857142857144,137.4074496510956L76.42142857142858,128.35016784320274L76.5142857142857,141.10588633931346L76.7,122.68249232901466L76.88571428571429,130.2987731554442L77.44285714285715,127.22846321099335L77.72142857142858,130.14561508844295L77.8142857142857,137.216190867126L78.09285714285714,127.33543993035951L78.18571428571428,125.41513800786602L78.27857142857142,133.33079266217018L78.46428571428571,121.44828697211211L78.55714285714286,121.75245907737148L79.11428571428571,137.2106042355299L79.48571428571428,128.21831928524705L79.57857142857142,128.70688891410828L79.7642857142857,131.1994567902552L79.95,133.6251471787691L80.13571428571429,135.2072064636482L80.22857142857143,123.43284713062975L80.32142857142857,133.82187286764383L80.41428571428571,135.63647085759374L80.50714285714287,127.35195300396944L80.78571428571429,127.48637476480668L80.97142857142858,134.4909608753191L81.15714285714286,131.7402493597733L81.43571428571428,132.72605682992273L81.62142857142858,135.51812010258436L81.71428571428571,136.98981163981887L81.80714285714286,125.81852485901778L82.17857142857143,129.211603226761L82.36428571428571,128.27870758622885L82.45714285714286,137.78688563820387L82.64285714285714,131.01057596256334L82.92142857142858,134.55710158331524L83.29285714285714,135.96069073677063L83.57142857142858,131.78390171130496L83.85000000000001,134.96442652162577L83.94285714285714,125.07473476396667L84.12857142857143,134.88078177140818L84.31428571428572,132.5055515782701L84.5,126.8653966254658L84.96428571428572,124.53765187991989L85.24285714285713,123.06526408592859L85.42857142857143,129.56781407776805L85.70714285714286,136.92052672472263L86.45,130.25014201551676L86.82142857142857,132.5253175339765L87.19285714285714,131.29647961672808L87.37857142857143,137.44072998729015L87.47142857142856,135.5275177268518L87.84285714285714,124.01377577086288L88.02857142857142,132.00444932778674L88.12142857142857,128.56581403315067L88.4,131.70351721098024L88.58571428571427,136.00154700958066L88.77142857142857,132.17800145513482L89.05000000000001,133.87382872568236L89.23571428571428,136.9955272078514L89.32857142857144,127.39001135610873L89.51428571428572,137.16135420070754L89.88571428571429,136.2670308161113L90.25714285714285,136.03417713774573L90.90714285714286,130.33875634438462L91,134.1673912041717L91.09285714285714,138.22931075841188L91.18571428571428,137.67451569189626L91.37142857142857,137.96093324985767L91.46428571428572,137.7504684627056L91.64999999999999,133.79125230593812L91.74285714285715,126.93038795722855L91.83571428571429,135.22775340576965L92.11428571428571,127.2785936974817L92.20714285714286,139.8275202529298L92.3,129.18180970019765L92.39285714285715,140.1912112591995L92.57857142857144,120.35700581305558L93.13571428571429,133.20530251248013L93.22857142857144,136.60741379857063L93.50714285714287,137.72385229832597L94.15714285714286,136.88580414238902L94.43571428571428,138.26432621065112L95.08571428571429,134.95441921220885L95.17857142857142,128.2933179264267L95.27142857142857,127.5279051909844L95.45714285714286,139.09879361755318L95.55,132.33437003940344L95.64285714285715,136.38600967576104L95.92142857142858,126.63713861008483L96.0142857142857,140.96893926627106L96.2,132.9029502529237L96.38571428571429,140.46398734218545L96.47857142857143,141.33210900094775L96.85,140.66298968013788L96.94285714285714,142.34741896970402L97.31428571428572,139.06241696493493L97.40714285714286,132.0289675121506L97.5,139.92342133240567L97.59285714285714,138.45844922545882L97.87142857142858,139.20339606453973L97.96428571428571,134.60320556908846L98.05714285714286,133.5049250034822L98.33571428571429,131.74859707305828L98.42857142857143,125.6067265007231L99.17142857142858,128.59498498092094L99.54285714285714,134.20711099439197L99.72857142857143,131.34903410822153L99.91428571428571,138.91287096010313L100.00714285714285,125.84867019785774L100.28571428571429,134.41925379716687L100.37857142857143,137.056993049052L100.56428571428572,136.81336396849818L100.65714285714286,128.29443414757648L100.75,138.16909007479745L100.84285714285714,135.85490944236517L101.12142857142857,125.03564860423404L101.86428571428571,126.32175271875327L102.05,138.11023795935841L102.2357142857143,137.47022696004973L102.42142857142856,137.52613195694155L102.51428571428572,137.79939615643687L102.79285714285714,138.1111202529735L102.97857142857143,139.545779403713L103.07142857142857,134.2849775503079L103.16428571428571,131.55005706432792L103.62857142857143,141.0037428943647L104.27857142857142,137.03963820470702L104.37142857142857,143.07557275891304L104.65,142.25892620947627L104.83571428571427,135.31513731264405L105.39285714285714,138.50451637225018L105.48571428571428,134.71640070858928L105.67142857142856,131.94546827591128L105.85714285714286,130.78523559454413L106.22857142857143,131.87710801925923L106.6,138.70936874051887L106.78571428571428,137.7709159395761L107.25,135.86412655562162L107.34285714285714,137.3385736486978L107.43571428571428,140.5190229391058L108.08571428571429,134.80724563780757L108.17857142857143,139.71740853620898L108.73571428571428,134.80716090814934L108.92142857142858,139.18378114865885L109.10714285714286,136.12313959499198L109.2,139.54807263033257L109.29285714285714,135.35660511255264L110.12857142857143,130.34158373624086L110.3142857142857,141.18854380481773L110.59285714285714,138.36467007133695L110.96428571428571,139.20556219667196L111.14999999999999,142.17380789998504L111.24285714285715,140.73616110781828L111.61428571428571,142.78016188450985L111.70714285714286,140.60619502183462L111.89285714285715,140.9440324306488L111.98571428571428,133.3065820833047L112.07857142857142,137.22932580610114L112.35714285714286,133.26975231120983L112.45,135.10562481317254L113.37857142857142,141.77352841695148L113.56428571428572,140.37794253230095L113.65714285714286,139.36789132820235L113.93571428571428,140.10124125579992L114.02857142857142,128.81775030410952L114.12142857142858,139.09706402735577L114.4,136.96570421010256L114.49285714285713,132.95584918889733L114.58571428571429,139.63657275835672L115.97857142857143,140.3633671891358L116.25714285714285,136.93580569244094L116.44285714285714,140.9332293992241L116.53571428571429,136.59478355364666L116.72142857142858,131.80233593781787L116.81428571428572,138.75001503113242L117.09285714285714,132.84625137597322L117.37142857142857,140.08898308459254L117.46428571428572,141.50742203162775L117.55714285714285,140.5424691090981L117.65,138.1869183000591L117.83571428571429,136.70478475342193L118.02142857142856,136.64942497346135L118.20714285714286,135.01216247429448L118.39285714285714,142.1105940490961L118.4857142857143,138.21983024643527L118.67142857142856,140.74837507224746L118.85714285714285,144.31381935212346L119.04285714285714,140.2181202934848L119.13571428571429,142.74942251708774L119.22857142857143,143.38368479328022L119.32142857142857,136.09581428021193L119.41428571428571,134.45110478086602L120.34285714285714,139.7596591644817L120.71428571428572,139.9075824121634L121.08571428571427,129.35549997372758L121.17857142857143,139.47004029899836L121.27142857142857,142.80219896344673L121.45714285714286,138.1665923918287L121.73571428571428,137.4997884010275L122.01428571428572,140.9522512074974L122.19999999999999,143.41711064345307L122.47857142857143,137.2354760741194L122.66428571428573,139.2165567908022L123.03571428571428,141.50158673690424L123.22142857142858,138.47199123518334L123.40714285714286,138.22094646758504L123.5,137.30528041885958L123.77857142857144,137.53764966461392L123.87142857142857,135.97507451723018L123.96428571428572,139.80998305562468L124.05714285714286,139.39792430814768L124.24285714285715,128.02307268149323L124.70714285714286,131.86539322303403L124.98571428571428,140.2240679471029L125.45,137.41145036452346L125.63571428571429,141.33818006515503L126.00714285714287,137.78530340393382L126.19285714285715,130.42580685847335L126.5642857142857,140.72479812386962L126.65714285714286,138.26605027500125L126.75,139.47022081000935L126.84285714285714,137.60811711102724L127.02857142857142,139.39000392705202L127.30714285714286,137.95024994512397L127.39999999999999,138.9451805891262L127.58571428571429,139.1490198853943L127.67857142857142,137.09916815741192L128.32857142857142,142.70759922100436L128.5142857142857,138.3742776778009L128.79285714285714,142.50565160645377L128.8857142857143,139.41236150513092L129.1642857142857,136.70327619711557L129.25714285714287,141.7225285304917L129.7214285714286,139.85852578199572L129.81428571428572,142.75625430627L129.90714285714287,138.49286972814136L130.18571428571428,143.4188835194541L130.37142857142857,144.38878207529584L130.46428571428572,141.63971265736552L130.55714285714285,136.46055703941317L130.64999999999998,137.56775816447205L130.74285714285716,141.6224609621697L130.8357142857143,142.84079700666996L131.39285714285714,139.4042642969224L131.85714285714286,139.4598524785704L131.95,143.20577185145683L132.04285714285714,144.11107969946332L132.50714285714287,142.84663966918984L132.87857142857143,139.01524649063745L133.06428571428572,135.8236570921209L133.15714285714284,143.08512050203151L133.52857142857144,136.052117721902L133.9,138.1624609000153L134.54999999999998,141.2613652621706L134.7357142857143,140.64261956512928L135.0142857142857,143.41495832593904L135.20000000000002,133.56806701835657L135.29285714285714,144.28592395409942L135.57142857142858,140.38068703644805L135.6642857142857,139.3636308999525L135.85,141.64153066111933L135.94285714285715,139.78112155530187L136.22142857142856,139.0659074584643L137.8,143.94704031820098L137.89285714285714,132.13287370238038L137.98571428571427,141.7635597884655L138.07857142857142,141.4054480459955L138.45,138.3190155211422L138.72857142857143,136.62100001507335L139.1,142.94609018456606L139.19285714285715,138.6268733665347L139.28571428571428,141.85554672612082L139.65714285714284,140.67305593192577L139.75,146.4291035586761L139.84285714285713,141.79861944748293L140.02857142857144,139.98263815376492L140.2142857142857,144.38615821881424L140.4,138.7328554333912L140.5857142857143,140.8240699701839L141.32857142857142,143.4818956769175L141.79285714285714,141.70473161836463L141.88571428571427,136.90305215368667L142.72142857142856,142.26645609736443L142.81428571428572,135.87228086425196L143.8357142857143,138.76203559090692L144.20714285714286,142.08363528218536L144.3,139.8188907214337L144.57857142857142,142.69089642663795L144.67142857142855,144.78179599013595L144.95,143.81986110119354L145.13571428571427,142.23186429341632L145.22857142857143,142.04694365627236L145.32142857142858,137.3285129227572L145.97142857142856,138.13052887055608L146.06428571428572,141.42456195172338L146.15714285714287,140.72682795176902L146.25,140.6461450556914L146.52857142857144,131.65801554256015L146.71428571428572,136.3449986792273L146.80714285714285,139.3548632222745L146.89999999999998,132.28036777592368L146.99285714285716,135.23869274142714L147.64285714285714,131.4258746984932L148.10714285714286,141.20021807816295L148.2,138.0485381906231L148.47857142857143,139.03399200654692L149.12857142857143,137.5343525757392L149.31428571428572,144.25070404551096L150.24285714285713,142.84395963326097L150.42857142857144,141.36044370383024L150.70714285714286,141.11361884160172L150.79999999999998,140.21250603265233L150.9857142857143,139.09683930956655L151.07857142857142,145.8535801180535L151.63571428571427,143.95305704491005L151.72857142857143,139.4699113625619L152.2857142857143,142.10418590820498L152.37857142857143,140.3829397401876L153.21428571428572,145.23657690485317L153.5857142857143,145.67532273174987L153.77142857142857,145.16946364773642L154.14285714285714,140.2420011634628L154.7,141.3702060340179L154.97857142857143,142.8559967705773L155.1642857142857,141.61641384330062L155.44285714285715,137.4129662886262L155.6285714285714,141.98151209867663L155.7214285714286,132.70371214548746L156.09285714285713,142.11688062134715L156.18571428571428,138.74501966519486L156.37142857142857,141.18180042919187L156.4642857142857,144.32169736839003L156.65,143.13531453576354L156.92857142857142,140.90904092374774L157.11428571428573,143.20588789424963L157.4857142857143,144.096770517942L157.67142857142858,130.87414647721582L157.7642857142857,137.64290416157908L157.85714285714283,141.3315656259656L158.04285714285714,143.53891597398453L158.22857142857143,135.6023726960023L158.4142857142857,140.89793397072287L158.69285714285712,142.23533820940386L158.97142857142856,138.74917694429556L159.06428571428572,137.58337236692506L159.15714285714284,145.99958221283225L159.43571428571428,139.5662453000744L159.71428571428572,139.3951963815424L160.0857142857143,139.84220427109133L160.3642857142857,142.34854624254834L160.7357142857143,137.1911771984564L160.82857142857142,142.61785209344492L160.92142857142855,144.7039432488382L161.57142857142858,141.82325735853777L161.75714285714284,139.88346761465073L161.85000000000002,143.8658398344285L161.94285714285715,132.2810511390368L162.22142857142856,142.47586728963586L162.31428571428572,129.5702933412459L162.87142857142857,142.35737838844457L162.96428571428572,146.85845360325442L163.05714285714285,141.76999740054208L163.3357142857143,139.8963023159239L163.70714285714286,143.2988022532728L163.8,139.50349930425483L163.98571428571427,144.26913274617658L164.07857142857145,143.18463732757502L164.17142857142858,142.8885292754405L164.2642857142857,142.90295910462737L164.45,140.06929080684978L164.72857142857143,140.51401467952462L165.00714285714287,133.8363450616598L165.37857142857143,142.69662673026323L165.4714285714286,139.39396227565075L165.93571428571428,143.12368262724743L166.12142857142857,137.94445148938232L166.2142857142857,140.69615581548877L166.30714285714288,139.5244846302602L166.67857142857144,141.67168889360295L166.95714285714286,139.7687252379126L167.14285714285717,140.42233166346946L167.5142857142857,148.74969325297408L167.60714285714286,136.73975415693388L167.70000000000002,144.14986101662117L167.79285714285714,140.86608114507462L167.97857142857143,144.6109644215968L168.44285714285715,136.32758305056225L168.5357142857143,140.49607777926656L168.72142857142856,144.6469257146948L168.81428571428572,140.83926052434575L168.90714285714287,138.6077944578396L169.18571428571428,143.38485995680094L169.3714285714286,146.78814088056484L169.46428571428572,133.86734322292935L169.55714285714285,144.39057337078782L170.3,146.45233882549735L170.39285714285714,143.4520441289577L170.67142857142858,146.57408889755607L171.50714285714287,144.89438328643638L172.06428571428572,140.8716051504016L172.15714285714284,144.26705686954986L172.7142857142857,143.09604694404536L172.80714285714285,145.41317469502488L172.9,139.09919332050615L173.0857142857143,143.30124375679426L173.17857142857142,136.42288181268506L173.27142857142857,143.98482329895097L173.64285714285714,142.35274220257998L174.0142857142857,142.93105711705155L174.20000000000002,141.267298180196L174.29285714285714,144.50889649656085L175.0357142857143,138.3494555718369L175.12857142857143,142.02698613786035L175.40714285714284,143.37757781106563L175.68571428571428,140.71729033937055L176.05714285714285,143.77296599828534L176.24285714285713,144.64801799050636L176.6142857142857,142.74575888034371L177.07857142857142,141.93927988989483L177.17142857142855,136.35047663582694L177.54285714285714,140.54143024981022L177.63571428571427,144.6405083640582L177.9142857142857,143.6963022351265L178.00714285714284,146.2432518162661L178.10000000000002,146.30889611898195L178.37857142857143,138.53692546652422L178.75,144.21193009614944L178.93571428571428,137.5554649962319L179.12142857142857,145.59384595561357L179.21428571428572,141.18539407187038L179.30714285714285,143.70173414299884L179.95714285714286,144.0380979925394L180.14285714285714,141.60426987293692L180.23571428571427,141.81299401819706L180.79285714285714,146.57479712698193L180.8857142857143,142.04380865891773L180.97857142857143,144.8724981682996L181.1642857142857,146.8748432662752L181.35,134.37834410783316L182.27857142857144,145.47089032787414L182.4642857142857,146.9930144312481L183.29999999999998,139.05042587634588L183.67142857142858,138.13627943562136L184.13571428571427,147.7441916631328L184.22857142857143,144.0333319492638L184.32142857142858,144.04473453511793L184.6,141.64331366784043L184.69285714285715,143.21227577370075L184.7857142857143,137.1758337625199L184.87857142857143,134.4733131610685L185.25,142.050920424362L185.34285714285716,141.66354747861624L185.43571428571428,146.79349358462625L185.71428571428572,141.92942177835437L185.9,146.96177865854568L186.0857142857143,145.3826167595883L186.27142857142857,147.11687353501716L186.3642857142857,143.43119694913426L186.45714285714288,143.83842150121927L186.64285714285714,143.56354007042117L186.73571428571427,143.8267822249068L187.2,142.42480293495785L187.47857142857143,143.578860481994L187.6642857142857,137.67362234658665L187.94285714285715,145.27369678393006L188.2214285714286,144.2367411504189L188.31428571428572,139.4121073161562L188.5,143.527806258036L188.68571428571428,145.05413461021251L189.24285714285713,144.73839322270618L189.3357142857143,143.7571132634249L189.52142857142857,135.25562946332823L189.70714285714286,142.1652336269617L190.54285714285714,147.502505838871L190.63571428571427,144.4821983654466L190.72857142857143,140.7519834505187L190.82142857142856,128.34662761704791L191.93571428571428,138.03149647762376L192.12142857142857,144.01959100903736L192.30714285714285,143.29839702447254L192.49285714285713,143.22060690944392L192.8642857142857,141.65615942080814L192.95714285714286,141.28189746869933L193.05,145.4159311718411L193.2357142857143,139.21871555513806L193.32857142857142,143.34240487217903L193.60714285714286,141.88463110228378L193.7,145.34871752849884L193.79285714285714,146.69644681281514L193.97857142857143,140.99275566803084L194.44285714285715,140.59396816376182L194.72142857142856,136.6629780348804L194.90714285714287,145.5695331485735L195,141.89315195878345L195.18571428571428,140.82720128364033L195.46428571428572,146.2381597480012L195.74285714285716,143.05784031500417L195.92857142857142,145.6329984255135L196.20714285714286,140.30689487192365L196.48571428571427,143.50192134744591L196.57857142857145,140.22623223728604L196.85714285714286,138.75398443142572L197.04285714285714,140.10302610447008L197.1357142857143,142.9875496957037L197.87857142857143,144.92101142348514L197.9714285714286,141.08333167268168L198.15714285714284,143.45356005306044L198.62142857142857,141.75386192649603L199.0857142857143,141.81492622279458L199.17857142857144,144.55250464131433L199.27142857142857,144.50202326352397L199.45714285714286,144.75422201222844L199.54999999999998,147.08212424442172L199.7357142857143,141.0139491342836L199.92142857142858,143.47655678747427L200.20000000000002,144.80791851215892L200.29285714285714,142.0379567866524L200.6642857142857,143.65396595622101L201.12857142857143,143.2558673409124L201.31428571428572,141.9362222544021L201.8714285714286,141.9208806604147L201.96428571428572,141.37880793627767L202.05714285714285,142.8062236222128L202.15,142.93673584610224L202.24285714285713,140.6715676370594L202.52142857142857,144.67747904525862L202.70714285714288,142.83682576442757L202.98571428571427,147.0021283953554L203.07857142857142,140.62556495848628L203.35714285714286,147.60900917732053L203.54285714285712,141.19714939097562L203.72857142857143,141.4861640971568L203.82142857142856,142.14411568062172L203.9142857142857,146.83987386276323L204.28571428571428,147.18779410090713L204.65714285714284,137.4161675961481L204.75,142.96387880792219L204.84285714285713,144.25518919155002L205.2142857142857,141.04388080702887L205.30714285714285,144.8908099051979L205.49285714285713,144.81910927386747L205.5857142857143,140.09105527732106L205.77142857142857,143.14597665808267L205.86428571428573,144.89459050570923L205.95714285714286,139.2726238792141L206.14285714285714,138.56507413254843L206.2357142857143,142.31904190199242L206.32857142857142,144.72212973319822L206.42142857142858,147.81462042861514L206.70000000000002,141.2604203422864L206.88571428571427,139.92960475550757L206.97857142857143,144.66438831306166L207.5357142857143,138.3794959195786L207.62857142857143,143.32638267800212L207.72142857142856,142.33989644961224L208.09285714285716,146.42002827549973L208.2785714285714,144.5269798317717L208.46428571428572,138.98976680884758L208.8357142857143,144.1317297907339L209.4857142857143,134.5180743659536L209.76428571428573,140.43232239534456L209.95,144.52301964122387L210.13571428571427,146.82064759814077L210.22857142857143,139.14948589851457L210.4142857142857,140.41264853709274L210.60000000000002,143.9538721073833L210.78571428571428,144.36522630933257L210.87857142857143,140.98771609531508L210.97142857142856,135.58368059661652L211.25,139.7453269585967L211.34285714285713,140.0575631169809L211.62142857142857,140.83423384527364L211.71428571428572,145.0299092957543L211.99285714285716,144.64094490599302L212.27142857142857,146.8623005139331L212.64285714285714,139.69828542073566L213.2,136.8468561288383L213.29285714285714,142.78453375067977L213.57142857142856,147.8831446187364L213.6642857142857,143.4071687232289L213.85,141.50152226868602L214.03571428571428,144.2695692881114L214.12857142857143,144.9867340090374L214.31428571428572,145.9000230224596L214.40714285714284,145.6669538360503L214.59285714285716,145.66284260567693L214.68571428571428,144.13514752727417L214.77857142857144,143.28480896602073L214.87142857142857,146.75576770429808L215.05714285714288,144.2413451021744L215.24285714285713,139.54053721659713L215.3357142857143,145.34141420034896L215.70714285714286,146.23007174953818L215.79999999999998,148.37163504378665L215.9857142857143,142.9864224228594L216.2642857142857,147.25426267584163L216.45000000000002,140.96539904011618L216.72857142857143,147.12849991768599L217.2857142857143,144.71519018999405L217.84285714285716,143.93304334705073L218.21428571428572,147.56268507863084L218.49285714285713,147.7843636518551L218.95714285714288,147.1208300416668L219.14285714285714,142.01630283312664L219.42142857142858,143.16487689771586L219.97857142857143,147.94914441762697L220.07142857142856,137.49751359389887L220.25714285714287,146.46521589159966L220.53571428571428,143.92563410682808L220.81428571428572,138.93392628017398L220.90714285714284,144.08104856146704L221,144.69515070484744L221.8357142857143,135.31877332015168L221.92857142857142,145.88202810080514L222.02142857142857,143.26955762753883L222.11428571428573,142.90219653770328L222.29999999999998,148.27147445703545L222.4857142857143,144.10947075693142L222.7642857142857,137.35332766092486L222.85714285714283,137.01231288992696L223.22857142857143,142.87431587527195L223.4142857142857,146.01730820991926L223.50714285714287,144.9193693258696L223.6,147.67562142428426L223.69285714285712,143.38568238707052L224.43571428571428,144.35351795992918L225.27142857142857,142.84376346568266L225.45714285714286,145.41577644811736L225.7357142857143,147.1704088644021L226.2,145.39294456814724L226.47857142857143,145.18463117753464L226.57142857142858,143.5840326750444L226.85000000000002,142.0919037916594L227.22142857142856,143.28438439675503L227.5,140.90401240272652L227.68571428571428,148.04748147477704L227.87142857142857,142.9384028100305L228.14999999999998,144.70046380700336L228.42857142857142,148.47490023573238L228.52142857142857,140.16028493394452L228.61428571428573,146.86125244489975L228.8,144.42264815130167L229.54285714285714,143.32301835798555L229.72857142857143,142.5247581443853L229.9142857142857,145.72029483980603L230.1,140.20502219349146L230.56428571428572,147.77498813097674L231.02857142857144,145.45813943528466L231.4,140.08461950719357L231.77142857142857,145.2565887607634L231.86428571428573,143.96810024314456L231.95714285714286,146.91520221283037L232.32857142857142,138.1531590571006L232.60714285714286,148.17570139302146L232.88571428571427,145.90555900045567L233.35,145.4635050329897L233.62857142857143,146.2170427226358L233.81428571428572,145.0301054633326L234.18571428571428,140.08868653078872L234.2785714285714,143.75485042896537L234.3714285714286,145.75930732157497L234.46428571428572,143.00335177696414L234.65,146.39859351391593L234.8357142857143,147.0520341640545L235.1142857142857,146.939515940845L235.39285714285714,143.56691267920863L235.48571428571427,146.8671107639869L235.67142857142858,145.9250523476965L235.85714285714286,148.01296150684357L236.50714285714287,145.58199669710464L236.78571428571428,140.81775392674737L236.8785714285714,142.78365514096288L237.06428571428572,145.7208667649991L237.25,145.46208120634157L237.43571428571428,143.77336293831468L237.52857142857144,145.7120171205865L237.7142857142857,146.52464822100268L237.99285714285713,148.05726775030294L238.17857142857142,145.88518059667615L238.45714285714286,144.5300641755263L238.64285714285714,142.13244877507287L238.92142857142858,144.48621289349265L239.0142857142857,140.17513472752438L239.10714285714283,143.7464281167421L240.0357142857143,146.09965346505243L240.12857142857143,146.2547133444912L240.31428571428572,144.03404570453696L240.40714285714284,145.53626478504805L240.5,146.80902489937014L240.59285714285716,144.7381436386042L240.87142857142857,145.30135825441943L240.96428571428572,148.90830348928768L241.15,145.06022133098708L241.42857142857144,142.5436749615603L241.6142857142857,144.14462619730168L241.8,143.59760783985257L241.9857142857143,145.31660590900313L242.82142857142858,145.9945352723201L242.9142857142857,147.37365873696078L243.19285714285715,147.1250692875021L243.37857142857143,142.2168266210291L243.56428571428572,147.13427811198764L243.75,146.9421619007157L243.93571428571428,144.52549337885446L244.02857142857144,145.67072430584165L244.30714285714285,140.01122336172395L244.86428571428573,143.16387579838434L244.95714285714286,145.6955850927366L245.32857142857145,148.83259661868215L245.60714285714286,147.15608218436438L245.8857142857143,146.11091790472466L246.07142857142856,144.02836237061354L246.1642857142857,142.55145903842316L246.53571428571428,144.08265013620257L246.90714285714284,143.88642085260815L247.09285714285716,146.5718978991111L247.18571428571428,145.3832190769414L247.27857142857144,144.4300251574152L247.37142857142857,144.3019295707345L247.4642857142857,146.60035785453186L247.74285714285713,145.39662570340764L248.11428571428573,141.44276225070158L248.20714285714286,133.70476542827154L248.29999999999998,145.9828131082985L248.67142857142858,145.2862782172031L248.7642857142857,145.1582692021297L248.95000000000002,144.04630479671889L249.04285714285714,148.97886671705376L249.50714285714287,143.3382549608747L249.7857142857143,146.89341748091908L249.87857142857143,145.20631183932224L250.06428571428572,143.34922192576857L250.25,145.6471989320384L250.34285714285716,147.5531760164433L250.43571428571428,143.5059045623574L250.5285714285714,145.81760593131185L250.80714285714285,144.7156396255725L250.9,141.82203798823886L250.99285714285713,141.1013072538707L251.0857142857143,146.93082286210523L251.3642857142857,146.05042829654283L251.45714285714288,143.19877889172898L251.64285714285714,148.11371520120235L252.2,143.77297981290351L252.47857142857143,144.57306079318124L252.75714285714287,142.33790530264378L252.85,147.415459929655L253.2214285714286,146.7553109009233" style="fill: none;" fill="none"></path></g></g></g></g></g></g><g transform="translate(70, 178)" clip-path="url(#clip_1)"><clipPath id="clip_1"><rect width="260" height="21"></rect></clipPath><g><g><line x1="0" y1="0" x2="0" y2="5" style="visibility: inherit;" fill="rgb(0, 0, 0)" stroke="rgb(204, 204, 204)" stroke-width="1px"></line><line x1="18.57142857142857" y1="0" x2="18.57142857142857" y2="5" style="visibility: inherit;" fill="rgb(0, 0, 0)" stroke="rgb(204, 204, 204)" stroke-width="1px"></line><line x1="37.14285714285714" y1="0" x2="37.14285714285714" y2="5" style="visibility: inherit;" fill="rgb(0, 0, 0)" stroke="rgb(204, 204, 204)" stroke-width="1px"></line><line x1="55.71428571428571" y1="0" x2="55.71428571428571" y2="5" style="visibility: inherit;" fill="rgb(0, 0, 0)" stroke="rgb(204, 204, 204)" stroke-width="1px"></line><line x1="74.28571428571428" y1="0" x2="74.28571428571428" y2="5" style="visibility: inherit;" fill="rgb(0, 0, 0)" stroke="rgb(204, 204, 204)" stroke-width="1px"></line><line x1="92.85714285714286" y1="0" x2="92.85714285714286" y2="5" style="visibility: inherit;" fill="rgb(0, 0, 0)" stroke="rgb(204, 204, 204)" stroke-width="1px"></line><line x1="111.42857142857142" y1="0" x2="111.42857142857142" y2="5" style="visibility: inherit;" fill="rgb(0, 0, 0)" stroke="rgb(204, 204, 204)" stroke-width="1px"></line><line x1="130" y1="0" x2="130" y2="5" style="visibility: inherit;" fill="rgb(0, 0, 0)" stroke="rgb(204, 204, 204)" stroke-width="1px"></line><line x1="148.57142857142856" y1="0" x2="148.57142857142856" y2="5" style="visibility: inherit;" fill="rgb(0, 0, 0)" stroke="rgb(204, 204, 204)" stroke-width="1px"></line><line x1="167.14285714285717" y1="0" x2="167.14285714285717" y2="5" style="visibility: inherit;" fill="rgb(0, 0, 0)" stroke="rgb(204, 204, 204)" stroke-width="1px"></line><line x1="185.71428571428572" y1="0" x2="185.71428571428572" y2="5" style="visibility: inherit;" fill="rgb(0, 0, 0)" stroke="rgb(204, 204, 204)" stroke-width="1px"></line><line x1="204.28571428571428" y1="0" x2="204.28571428571428" y2="5" style="visibility: inherit;" fill="rgb(0, 0, 0)" stroke="rgb(204, 204, 204)" stroke-width="1px"></line><line x1="222.85714285714283" y1="0" x2="222.85714285714283" y2="5" style="visibility: inherit;" fill="rgb(0, 0, 0)" stroke="rgb(204, 204, 204)" stroke-width="1px"></line><line x1="241.42857142857144" y1="0" x2="241.42857142857144" y2="5" style="visibility: inherit;" fill="rgb(0, 0, 0)" stroke="rgb(204, 204, 204)" stroke-width="1px"></line><line x1="260" y1="0" x2="260" y2="5" style="visibility: inherit;" fill="rgb(0, 0, 0)" stroke="rgb(204, 204, 204)" stroke-width="1px"></line></g><g transform="translate(0, 8)"><text x="0" y="0" dx="0em" dy="0.95em" style="text-anchor: middle; visibility: hidden; font-family: Roboto, sans-serif; font-size: 12px; font-weight: 200;" fill="rgb(50, 49, 63)" stroke="none" stroke-width="1px">-200</text><text x="18.57142857142857" y="0" dx="0em" dy="0.95em" style="text-anchor: middle; visibility: inherit; font-family: Roboto, sans-serif; font-size: 12px; font-weight: 200;" fill="rgb(50, 49, 63)" stroke="none" stroke-width="1px">0</text><text x="37.14285714285714" y="0" dx="0em" dy="0.95em" style="text-anchor: middle; visibility: hidden; font-family: Roboto, sans-serif; font-size: 12px; font-weight: 200;" fill="rgb(50, 49, 63)" stroke="none" stroke-width="1px">200</text><text x="55.71428571428571" y="0" dx="0em" dy="0.95em" style="text-anchor: middle; visibility: inherit; font-family: Roboto, sans-serif; font-size: 12px; font-weight: 200;" fill="rgb(50, 49, 63)" stroke="none" stroke-width="1px">400</text><text x="74.28571428571428" y="0" dx="0em" dy="0.95em" style="text-anchor: middle; visibility: hidden; font-family: Roboto, sans-serif; font-size: 12px; font-weight: 200;" fill="rgb(50, 49, 63)" stroke="none" stroke-width="1px">600</text><text x="92.85714285714286" y="0" dx="0em" dy="0.95em" style="text-anchor: middle; visibility: inherit; font-family: Roboto, sans-serif; font-size: 12px; font-weight: 200;" fill="rgb(50, 49, 63)" stroke="none" stroke-width="1px">800</text><text x="111.42857142857142" y="0" dx="0em" dy="0.95em" style="text-anchor: middle; visibility: hidden; font-family: Roboto, sans-serif; font-size: 12px; font-weight: 200;" fill="rgb(50, 49, 63)" stroke="none" stroke-width="1px">1k</text><text x="130" y="0" dx="0em" dy="0.95em" style="text-anchor: middle; visibility: inherit; font-family: Roboto, sans-serif; font-size: 12px; font-weight: 200;" fill="rgb(50, 49, 63)" stroke="none" stroke-width="1px">1.2k</text><text x="148.57142857142856" y="0" dx="0em" dy="0.95em" style="text-anchor: middle; visibility: hidden; font-family: Roboto, sans-serif; font-size: 12px; font-weight: 200;" fill="rgb(50, 49, 63)" stroke="none" stroke-width="1px">1.4k</text><text x="167.14285714285717" y="0" dx="0em" dy="0.95em" style="text-anchor: middle; visibility: inherit; font-family: Roboto, sans-serif; font-size: 12px; font-weight: 200;" fill="rgb(50, 49, 63)" stroke="none" stroke-width="1px">1.6k</text><text x="185.71428571428572" y="0" dx="0em" dy="0.95em" style="text-anchor: middle; visibility: hidden; font-family: Roboto, sans-serif; font-size: 12px; font-weight: 200;" fill="rgb(50, 49, 63)" stroke="none" stroke-width="1px">1.8k</text><text x="204.28571428571428" y="0" dx="0em" dy="0.95em" style="text-anchor: middle; visibility: inherit; font-family: Roboto, sans-serif; font-size: 12px; font-weight: 200;" fill="rgb(50, 49, 63)" stroke="none" stroke-width="1px">2k</text><text x="222.85714285714283" y="0" dx="0em" dy="0.95em" style="text-anchor: middle; visibility: hidden; font-family: Roboto, sans-serif; font-size: 12px; font-weight: 200;" fill="rgb(50, 49, 63)" stroke="none" stroke-width="1px">2.2k</text><text x="241.42857142857144" y="0" dx="0em" dy="0.95em" style="text-anchor: middle; visibility: inherit; font-family: Roboto, sans-serif; font-size: 12px; font-weight: 200;" fill="rgb(50, 49, 63)" stroke="none" stroke-width="1px">2.4k</text><text x="260" y="0" dx="0em" dy="0.95em" style="text-anchor: middle; visibility: hidden; font-family: Roboto, sans-serif; font-size: 12px; font-weight: 200;" fill="rgb(50, 49, 63)" stroke="none" stroke-width="1px">2.6k</text></g><line x1="0" y1="0" x2="260" y2="0" fill="rgb(0, 0, 0)" stroke="rgb(204, 204, 204)" stroke-width="1px"></line></g></g></g></g></svg>