<svg viewBox="0 0 330.0000305175781 200.00001525878906" xmlns="http://www.w3.org/2000/svg"><g><g><g><g><g><line x1="82" y1="178" x2="77" y2="178" style="visibility: inherit;" fill="rgb(0, 0, 0)" stroke="rgb(204, 204, 204)" stroke-width="1px"></line><line x1="82" y1="163.16666666666728" x2="77" y2="163.16666666666728" style="visibility: inherit;" fill="rgb(0, 0, 0)" stroke="rgb(204, 204, 204)" stroke-width="1px"></line><line x1="82" y1="148.33333333333348" x2="77" y2="148.33333333333348" style="visibility: inherit;" fill="rgb(0, 0, 0)" stroke="rgb(204, 204, 204)" stroke-width="1px"></line><line x1="82" y1="133.49999999999974" x2="77" y2="133.49999999999974" style="visibility: inherit;" fill="rgb(0, 0, 0)" stroke="rgb(204, 204, 204)" stroke-width="1px"></line><line x1="82" y1="118.666666666667" x2="77" y2="118.666666666667" style="visibility: inherit;" fill="rgb(0, 0, 0)" stroke="rgb(204, 204, 204)" stroke-width="1px"></line><line x1="82" y1="103.83333333333324" x2="77" y2="103.83333333333324" style="visibility: inherit;" fill="rgb(0, 0, 0)" stroke="rgb(204, 204, 204)" stroke-width="1px"></line><line x1="82" y1="89.00000000000051" x2="77" y2="89.00000000000051" style="visibility: inherit;" fill="rgb(0, 0, 0)" stroke="rgb(204, 204, 204)" stroke-width="1px"></line><line x1="82" y1="74.16666666666676" x2="77" y2="74.16666666666676" style="visibility: inherit;" fill="rgb(0, 0, 0)" stroke="rgb(204, 204, 204)" stroke-width="1px"></line><line x1="82" y1="59.33333333333401" x2="77" y2="59.33333333333401" style="visibility: inherit;" fill="rgb(0, 0, 0)" stroke="rgb(204, 204, 204)" stroke-width="1px"></line><line x1="82" y1="44.500000000000256" x2="77" y2="44.500000000000256" style="visibility: inherit;" fill="rgb(0, 0, 0)" stroke="rgb(204, 204, 204)" stroke-width="1px"></line><line x1="82" y1="29.6666666666665" x2="77" y2="29.6666666666665" style="visibility: inherit;" fill="rgb(0, 0, 0)" stroke="rgb(204, 204, 204)" stroke-width="1px"></line><line x1="82" y1="14.833333333333755" x2="77" y2="14.833333333333755" style="visibility: inherit;" fill="rgb(0, 0, 0)" stroke="rgb(204, 204, 204)" stroke-width="1px"></line><line x1="82" y1="0" x2="77" y2="0" style="visibility: inherit;" fill="rgb(0, 0, 0)" stroke="rgb(204, 204, 204)" stroke-width="1px"></line></g><g transform="translate(72, 0)"><text x="0" y="178" dx="0em" dy="0.3em" style="text-anchor: end; visibility: hidden; font-family: Roboto, sans-serif; font-size: 12px; font-weight: 200;" fill="rgb(50, 49, 63)" stroke="none" stroke-width="1px">0.0283</text><text x="0" y="163.16666666666728" dx="0em" dy="0.3em" style="text-anchor: end; visibility: inherit; font-family: Roboto, sans-serif; font-size: 12px; font-weight: 200;" fill="rgb(50, 49, 63)" stroke="none" stroke-width="1px">0.0283</text><text x="0" y="148.33333333333348" dx="0em" dy="0.3em" style="text-anchor: end; visibility: hidden; font-family: Roboto, sans-serif; font-size: 12px; font-weight: 200;" fill="rgb(50, 49, 63)" stroke="none" stroke-width="1px">0.0284</text><text x="0" y="133.49999999999974" dx="0em" dy="0.3em" style="text-anchor: end; visibility: inherit; font-family: Roboto, sans-serif; font-size: 12px; font-weight: 200;" fill="rgb(50, 49, 63)" stroke="none" stroke-width="1px">0.0284</text><text x="0" y="118.666666666667" dx="0em" dy="0.3em" style="text-anchor: end; visibility: hidden; font-family: Roboto, sans-serif; font-size: 12px; font-weight: 200;" fill="rgb(50, 49, 63)" stroke="none" stroke-width="1px">0.0284</text><text x="0" y="103.83333333333324" dx="0em" dy="0.3em" style="text-anchor: end; visibility: inherit; font-family: Roboto, sans-serif; font-size: 12px; font-weight: 200;" fill="rgb(50, 49, 63)" stroke="none" stroke-width="1px">0.0285</text><text x="0" y="89.00000000000051" dx="0em" dy="0.3em" style="text-anchor: end; visibility: hidden; font-family: Roboto, sans-serif; font-size: 12px; font-weight: 200;" fill="rgb(50, 49, 63)" stroke="none" stroke-width="1px">0.0285</text><text x="0" y="74.16666666666676" dx="0em" dy="0.3em" style="text-anchor: end; visibility: inherit; font-family: Roboto, sans-serif; font-size: 12px; font-weight: 200;" fill="rgb(50, 49, 63)" stroke="none" stroke-width="1px">0.0286</text><text x="0" y="59.33333333333401" dx="0em" dy="0.3em" style="text-anchor: end; visibility: hidden; font-family: Roboto, sans-serif; font-size: 12px; font-weight: 200;" fill="rgb(50, 49, 63)" stroke="none" stroke-width="1px">0.0286</text><text x="0" y="44.500000000000256" dx="0em" dy="0.3em" style="text-anchor: end; visibility: inherit; font-family: Roboto, sans-serif; font-size: 12px; font-weight: 200;" fill="rgb(50, 49, 63)" stroke="none" stroke-width="1px">0.0287</text><text x="0" y="29.6666666666665" dx="0em" dy="0.3em" style="text-anchor: end; visibility: hidden; font-family: Roboto, sans-serif; font-size: 12px; font-weight: 200;" fill="rgb(50, 49, 63)" stroke="none" stroke-width="1px">0.0288</text><text x="0" y="14.833333333333755" dx="0em" dy="0.3em" style="text-anchor: end; visibility: inherit; font-family: Roboto, sans-serif; font-size: 12px; font-weight: 200;" fill="rgb(50, 49, 63)" stroke="none" stroke-width="1px">0.0288</text><text x="0" y="0" dx="0em" dy="0.3em" style="text-anchor: end; visibility: hidden; font-family: Roboto, sans-serif; font-size: 12px; font-weight: 200;" fill="rgb(50, 49, 63)" stroke="none" stroke-width="1px">0.0289</text></g><line x1="82" y1="0" x2="82" y2="178" fill="rgb(0, 0, 0)" stroke="rgb(204, 204, 204)" stroke-width="1px"></line></g></g><g transform="translate(82, 0)" clip-path="url(#clip_0)"><clipPath id="clip_0"><rect width="247" height="177"></rect></clipPath><g><g><g><line x1="0" y1="0" x2="0" y2="178" fill="rgb(0, 0, 0)" stroke="rgb(60, 60, 60)" stroke-width="1px" opacity="0.25"></line><line x1="17.71428571428571" y1="0" x2="17.71428571428571" y2="178" fill="rgb(0, 0, 0)" stroke="rgb(60, 60, 60)" stroke-width="1px" opacity="0.25"></line><line x1="35.42857142857142" y1="0" x2="35.42857142857142" y2="178" fill="rgb(0, 0, 0)" stroke="rgb(60, 60, 60)" stroke-width="1px" opacity="0.25"></line><line x1="53.14285714285714" y1="0" x2="53.14285714285714" y2="178" fill="rgb(0, 0, 0)" stroke="rgb(60, 60, 60)" stroke-width="1px" opacity="0.25"></line><line x1="70.85714285714285" y1="0" x2="70.85714285714285" y2="178" fill="rgb(0, 0, 0)" stroke="rgb(60, 60, 60)" stroke-width="1px" opacity="0.25"></line><line x1="88.57142857142857" y1="0" x2="88.57142857142857" y2="178" fill="rgb(0, 0, 0)" stroke="rgb(60, 60, 60)" stroke-width="1px" opacity="0.25"></line><line x1="106.28571428571428" y1="0" x2="106.28571428571428" y2="178" fill="rgb(0, 0, 0)" stroke="rgb(60, 60, 60)" stroke-width="1px" opacity="0.25"></line><line x1="124" y1="0" x2="124" y2="178" fill="rgb(0, 0, 0)" stroke="rgb(60, 60, 60)" stroke-width="1px" opacity="0.25"></line><line x1="141.7142857142857" y1="0" x2="141.7142857142857" y2="178" fill="rgb(0, 0, 0)" stroke="rgb(60, 60, 60)" stroke-width="1px" opacity="0.25"></line><line x1="159.42857142857144" y1="0" x2="159.42857142857144" y2="178" fill="rgb(0, 0, 0)" stroke="rgb(60, 60, 60)" stroke-width="1px" opacity="0.25"></line><line x1="177.14285714285714" y1="0" x2="177.14285714285714" y2="178" fill="rgb(0, 0, 0)" stroke="rgb(60, 60, 60)" stroke-width="1px" opacity="0.25"></line><line x1="194.85714285714286" y1="0" x2="194.85714285714286" y2="178" fill="rgb(0, 0, 0)" stroke="rgb(60, 60, 60)" stroke-width="1px" opacity="0.25"></line><line x1="212.57142857142856" y1="0" x2="212.57142857142856" y2="178" fill="rgb(0, 0, 0)" stroke="rgb(60, 60, 60)" stroke-width="1px" opacity="0.25"></line><line x1="230.2857142857143" y1="0" x2="230.2857142857143" y2="178" fill="rgb(0, 0, 0)" stroke="rgb(60, 60, 60)" stroke-width="1px" opacity="0.25"></line><line x1="248" y1="0" x2="248" y2="178" fill="rgb(0, 0, 0)" stroke="rgb(60, 60, 60)" stroke-width="1px" opacity="0.25"></line></g><g><line x1="0" y1="178" x2="248" y2="178" fill="rgb(0, 0, 0)" stroke="rgb(60, 60, 60)" stroke-width="1px" opacity="0.25"></line><line x1="0" y1="163.16666666666728" x2="248" y2="163.16666666666728" fill="rgb(0, 0, 0)" stroke="rgb(60, 60, 60)" stroke-width="1px" opacity="0.25"></line><line x1="0" y1="148.33333333333348" x2="248" y2="148.33333333333348" fill="rgb(0, 0, 0)" stroke="rgb(60, 60, 60)" stroke-width="1px" opacity="0.25"></line><line x1="0" y1="133.49999999999974" x2="248" y2="133.49999999999974" fill="rgb(0, 0, 0)" stroke="rgb(60, 60, 60)" stroke-width="1px" opacity="0.25"></line><line x1="0" y1="118.666666666667" x2="248" y2="118.666666666667" fill="rgb(0, 0, 0)" stroke="rgb(60, 60, 60)" stroke-width="1px" opacity="0.25"></line><line x1="0" y1="103.83333333333324" x2="248" y2="103.83333333333324" fill="rgb(0, 0, 0)" stroke="rgb(60, 60, 60)" stroke-width="1px" opacity="0.25"></line><line x1="0" y1="89.00000000000051" x2="248" y2="89.00000000000051" fill="rgb(0, 0, 0)" stroke="rgb(60, 60, 60)" stroke-width="1px" opacity="0.25"></line><line x1="0" y1="74.16666666666676" x2="248" y2="74.16666666666676" fill="rgb(0, 0, 0)" stroke="rgb(60, 60, 60)" stroke-width="1px" opacity="0.25"></line><line x1="0" y1="59.33333333333401" x2="248" y2="59.33333333333401" fill="rgb(0, 0, 0)" stroke="rgb(60, 60, 60)" stroke-width="1px" opacity="0.25"></line><line x1="0" y1="44.500000000000256" x2="248" y2="44.500000000000256" fill="rgb(0, 0, 0)" stroke="rgb(60, 60, 60)" stroke-width="1px" opacity="0.25"></line><line x1="0" y1="29.6666666666665" x2="248" y2="29.6666666666665" fill="rgb(0, 0, 0)" stroke="rgb(60, 60, 60)" stroke-width="1px" opacity="0.25"></line><line x1="0" y1="14.833333333333755" x2="248" y2="14.833333333333755" fill="rgb(0, 0, 0)" stroke="rgb(60, 60, 60)" stroke-width="1px" opacity="0.25"></line><line x1="0" y1="0" x2="248" y2="0" fill="rgb(0, 0, 0)" stroke="rgb(60, 60, 60)" stroke-width="1px" opacity="0.25"></line></g></g></g><g><g><line x1="0" y1="8558.833333333336" x2="248" y2="8558.833333333336" fill="rgb(0, 0, 0)" stroke="rgb(153, 153, 153)" stroke-width="1.5px"></line></g></g><g><g><line x1="17.71428571428571" y1="0" x2="17.71428571428571" y2="178" fill="rgb(0, 0, 0)" stroke="rgb(153, 153, 153)" stroke-width="1.5px"></line></g></g><g><g><g><g><g><path stroke="rgb(255, 112, 67)" stroke-width="2px" d="M18.15714285714286,150.5499469538532L18.245714285714286,150.55081945605502L18.68857142857143,150.55518733300391L18.954285714285714,150.55960875079012L19.042857142857144,150.56291679250407L19.30857142857143,150.56734266624392L19.397142857142857,150.5708930179471L19.485714285714284,150.57400695048207L19.84,150.57882929948494L20.902857142857144,150.5880542045432L21.257142857142856,150.59651287376425L21.434285714285714,150.60365385565837L21.611428571428572,150.60934466784065L21.7,150.6140383839133L21.877142857142857,150.61737954610615L22.408571428571427,150.61595306230086L22.497142857142858,150.61373472376562L22.585714285714285,150.61091068352272L22.674285714285713,150.60731216105978L22.762857142857143,150.60298341206288L23.294285714285714,150.5917540956012L23.47142857142857,150.57908711400555L23.64857142857143,150.5650365374612L23.737142857142857,150.55132707067358L24.002857142857142,150.53474747464733L24.091428571428573,150.51864979657734L24.18,150.50302229021946L24.268571428571427,150.48774028648603L24.71142857142857,150.46834696552355L25.154285714285713,150.4455345697688L25.419999999999998,150.4216325201435L25.50857142857143,150.39915563279627L26.04,150.37223527883992L26.74857142857143,150.3403257194576L27.014285714285716,150.30962633618174L27.102857142857143,150.28158094196232L27.72285714285714,150.25285288533075L27.988571428571426,150.22575950839945L28.165714285714287,150.20045971300965L28.78571428571429,150.17401216505655L28.874285714285712,150.1497246129639L17.802857142857142,150.1898403236993L17.891428571428573,150.22590807541283L18.511428571428574,150.25946627898986L18.68857142857143,150.29005224454343L18.865714285714283,150.31802975462196L18.954285714285714,150.3433900681182L19.042857142857144,150.36651374120603L19.662857142857142,150.3896311541269L20.105714285714285,150.4121334301389L20.282857142857143,150.43302953298613L20.37142857142857,150.45215047342347L20.725714285714286,150.47056436762549L21.16857142857143,150.48817715624875L21.257142857142856,150.5042944516361L21.52285714285714,150.51884608281725L22.054285714285715,150.53093784913074L22.142857142857142,150.5415378562747L22.32,150.54991063607494L22.585714285714285,150.5553393536449L22.762857142857143,150.558286163352L22.85142857142857,150.55983060478766L23.02857142857143,150.55884094321658L23.205714285714286,150.55540560420474L23.294285714285714,150.5508763230356L23.914285714285715,150.53662360567412L24.622857142857143,150.51345652485034L24.71142857142857,150.49150391333143L24.8,150.47069914926615L25.154285714285713,150.44727770028686L26.04,150.41398217306508L26.12857142857143,150.38285875064904L26.305714285714284,150.3526393240908L26.66,150.32140893642082L26.925714285714285,150.29015312904434L27.014285714285716,150.26114067028L27.102857142857143,150.23420216793102L27.36857142857143,150.20725065446476L28.431428571428572,150.17542342493914L28.962857142857143,150.14252455444264L29.228571428571428,150.1113693953755L29.405714285714286,150.08250189255068L29.494285714285713,150.05596943803118L29.671428571428574,150.03126203605498L30.025714285714283,150.00687068877025L30.38,149.9820452999015L30.557142857142857,149.95826612719097L31,149.9339916330669L31.53142857142857,149.9101555487353L32.151428571428575,149.88787451595763L32.24,149.86798769575367L32.682857142857145,149.84975824534368L32.77142857142857,149.83335195370077L33.12571428571428,149.82079691372974L33.214285714285715,149.81021588944512L33.56857142857143,149.8029587471318L33.65714285714285,149.79692471924818L33.83428571428571,149.79210199905893L34.1,149.78859048249296L34.542857142857144,149.78554065715616L34.63142857142857,149.78290634933057L34.720000000000006,149.78064600357786L35.16285714285714,149.77877748026822L35.251428571428576,149.77720633503645L35.339999999999996,149.77562653151136L35.605714285714285,149.77337582425494L36.402857142857144,149.77030026943763L36.58,149.76731124110833L36.934285714285714,149.76395801361022L37.11142857142857,149.76005597166468L37.199999999999996,149.75615732824585L37.64285714285714,149.75209596647082L37.731428571428566,149.7486065231997L38.26285714285714,149.74717905179716L38.52857142857143,149.74705476345576L38.88285714285714,149.74920851261206L39.23714285714286,149.7529151638015L39.41428571428571,149.75730106191918L39.768571428571434,149.76367974842952L39.85714285714286,149.77002840710222L39.94571428571428,149.77629478234752L40.12285714285714,149.78292917171729L40.565714285714286,149.7907236527484L40.65428571428571,149.79807023372823L41.00857142857143,149.80606361810575L41.097142857142856,149.8139207639614L41.18571428571428,149.821434261134L42.51428571428571,149.82709123539243L43.13428571428572,149.83361923282055L43.222857142857144,149.83993649723374L43.66571428571429,149.84904806263665L43.754285714285714,149.85796683054693L43.93142857142857,149.86731992455495L44.10857142857143,149.87756123865228L44.462857142857146,149.89031496451088L45.26,149.90991631652878L45.43714285714286,149.92799959913557L45.52571428571429,149.94421929313245L45.79142857142857,149.95688296884492L46.32285714285714,149.96595941916968L47.03142857142857,149.96998383686537L47.12,149.9730532276155L47.385714285714286,149.9744342168929L47.47428571428571,149.97517978078326L47.74,149.97441406762346L47.82857142857143,149.9735591503604L48.27142857142857,149.973121275755L48.36,149.9732245149667L49.33428571428571,149.97547251101875L49.6,149.97716415651874L49.68857142857143,149.97879715438273L49.86571428571428,149.98043262785959L50.042857142857144,149.98157300308395L50.308571428571426,149.98210201446585L51.28285714285715,149.97097384448296L51.72571428571429,149.9522829108138L51.902857142857144,149.93247711304554L52.168571428571425,149.9106180265516L52.34571428571429,149.88729778955684L52.78857142857143,149.85663934330134L52.87714285714286,149.82777579702153L53.40857142857143,149.79373086826968L53.58571428571429,149.7608800936556L53.674285714285716,149.73026448570516L53.85142857142857,149.70121845992583L53.94,149.67452445213968L54.02857142857143,149.65005777746697L54.205714285714286,149.62671156699412L54.38285714285714,149.60442903276373L54.825714285714284,149.58105924361254L54.91428571428571,149.55980539955607L55.00285714285714,149.5406769399671L55.18,149.52384813569842L55.71142857142857,149.5090337627355L55.88857142857143,149.4957008270995L56.24285714285714,149.48320385879464L56.331428571428575,149.47212236275868L56.42,149.46220427481734L56.77428571428571,149.45377532194098L57.128571428571426,149.44668659062205L57.21714285714285,149.44047250786073L57.48285714285714,149.4348245749083L57.660000000000004,149.42852574885143L57.748571428571424,149.4224147376194L57.83714285714286,149.4168043105709L57.925714285714285,149.4116996677575L58.01428571428571,149.4069949722823L58.10285714285715,149.40259497093803L58.279999999999994,149.39869022820437L58.36857142857143,149.39534173516475L58.81142857142857,149.39326748546836L58.9,149.39162169463347L59.254285714285714,149.3905825506647L59.519999999999996,149.38997887193122L59.69714285714286,149.3898223703809L60.22857142857143,149.38973677745756L60.40571428571429,149.38899664215455L60.848571428571425,149.38976724067405L61.20285714285714,149.38990819461296L61.29142857142857,149.39003505315907L61.46857142857143,149.38948612417667L61.73428571428571,149.38761062627296L62.53142857142858,149.38061786477144L63.15142857142857,149.37006947701667L63.24,149.36024437720152L63.41714285714286,149.35051765180322L63.505714285714284,149.3418188574197L63.59428571428572,149.33404520094714L63.682857142857145,149.32704891012145L63.86,149.32152586699894L64.12571428571428,149.3173287468067L64.48,149.3139934064171L64.56857142857143,149.3108810831199L64.92285714285714,149.30940619550054L65.18857142857142,149.31039965249795L65.54285714285714,149.3136146196507L65.80857142857143,149.31435300965165L65.89714285714287,149.31402290814273L65.98571428571428,149.3127864227488L66.07428571428571,149.31084470880285L66.16285714285715,149.30832354763223L66.34,149.3052808839592L66.42857142857143,149.30198990192525L66.51714285714286,149.29869646725896L66.69428571428571,149.2940746218774L66.78285714285714,149.2894728932507L66.87142857142857,149.28428142650378L66.96000000000001,149.27784083530386L67.13714285714286,149.26668423136644L67.3142857142857,149.24918339399972L67.40285714285714,149.23011713200464L68.02285714285715,149.1989771025997L68.28857142857143,149.16791186013407L68.46571428571428,149.13779806147653L68.64285714285715,149.10843004530247L68.90857142857143,149.07824125459803L69.08571428571429,149.04858471168916L69.26285714285714,149.0192966748512L69.61714285714285,148.98989822569547L69.97142857142858,148.96073195629106L70.23714285714286,148.93155361476963L70.32571428571428,148.90501681503864L70.41428571428571,148.88124421222477L70.50285714285715,148.85962783580118L71.03428571428572,148.8384600843649L71.5657142857143,148.81559627345064L71.74285714285715,148.79413470806432L71.83142857142857,148.7745982653253L71.92,148.75668391602488L72.1857142857143,148.74150039569037L72.45142857142858,148.72717212571618L72.53999999999999,148.7127847039751L72.80571428571429,148.6960784482606L72.89428571428572,148.67971661477029L72.98285714285714,148.6636095028104L73.16,148.64568707673627L73.33714285714285,148.62447311377488L73.86857142857143,148.59482617881255L74.13428571428571,148.5608498189425L74.22285714285714,148.52850282393092L74.48857142857143,148.4947488167095L74.57714285714286,148.46017056627912L74.66571428571427,148.4225848995788L74.84285714285714,148.37494318135887L74.93142857142857,148.32565565212116L75.46285714285713,148.23858207636226L75.81714285714285,148.13186826165438L75.90571428571428,148.0290290362665L76.08285714285714,147.92415109399138L76.26,147.81821192513777L76.43714285714286,147.71303066501804L76.52571428571429,147.61411262850876L76.61428571428571,147.52033416699095L76.70285714285714,147.43145761533285L76.79142857142858,147.34737959185546L77.05714285714286,147.26065767617308L77.23428571428572,147.17774520645747L77.41142857142857,147.09947692451144L77.67714285714285,147.02024937359056L77.85428571428572,146.9430319211769L77.94285714285714,146.8712706166205L78.03142857142858,146.8049171713906L78.38571428571429,146.73873382937253L78.56285714285714,146.6735324573333L78.65142857142857,146.61181200649665L78.82857142857142,146.55162188903157L79.09428571428572,146.4894935632355L79.44857142857143,146.42440516354037L79.71428571428572,146.3620680276689L79.98,146.30170970298107L80.06857142857143,146.24534264726898L80.24571428571429,146.18947325916184L80.42285714285714,146.1338307380084L80.60000000000001,146.07844765558406L81.04285714285714,146.0162802419775L81.30857142857143,145.95380906994654L81.48571428571428,145.89421424827793L81.75142857142856,145.83947373932315L82.46000000000001,145.78086859936536L82.8142857142857,145.7191721008184L83.16857142857143,145.65292510840933L83.34571428571428,145.5868928324015L83.4342857142857,145.52381672479225L83.78857142857143,145.4535099021176L83.96571428571428,145.38653144403423L84.05428571428571,145.32503514535887L84.32000000000001,145.2651572817852L84.49714285714285,145.2078964377307L84.67428571428572,145.1557538348812L84.94000000000001,145.10982014482602L85.11714285714285,145.0680377559951L85.2057142857143,145.03004679673694L85.38285714285715,144.9947497639509L85.73714285714286,144.95828546425852L86.09142857142857,144.92060484893133L86.71142857142857,144.87553008364026L86.8,144.8326419390216L86.88857142857142,144.7914454606448L86.97714285714285,144.7518267403592L87.15428571428572,144.71224654053646L87.24285714285715,144.67402721247666L87.42,144.63504336398248L87.50857142857143,144.59780281990038L87.59714285714286,144.56246280062538L87.86285714285714,144.52590455461987L87.95142857142858,144.49151015445128L88.03999999999999,144.45950528331693L88.12857142857143,144.42992728067756L88.30571428571429,144.3995495021539L88.83714285714285,144.3546925656178L88.92571428571429,144.31023219575104L89.19142857142857,144.2590003929003L89.81142857142858,144.19404863112266L90.07714285714286,144.12553500348037L90.69714285714285,144.0385643580793L90.78571428571428,143.9570305273253L90.87428571428572,143.87878733404395L91.05142857142857,143.7975377994296L91.14,143.72071090060058L91.22857142857143,143.64852747565337L91.49428571428572,143.574831554505L91.58285714285714,143.50297937819553L91.76,143.42637658940086L91.93714285714286,143.34881375773406L92.02571428571429,143.27513911614204L92.38,143.18849682073215L92.46857142857142,143.1056560092603L92.82285714285715,143.02308680038567L92.91142857142857,142.94739305057897L93,142.87733462920687L93.08857142857143,142.81146386786085L93.35428571428572,142.74372563631647L93.44285714285714,142.6804403720717L93.53142857142858,142.62127329534079L93.79714285714286,142.56432060860885L93.88571428571429,142.51240008887737L94.59428571428572,142.45705129936738L94.94857142857143,142.4009379229137L95.12571428571428,142.3491096807586L95.30285714285715,142.30075125016396L95.39142857142856,142.2554051330283L95.65714285714286,142.2112781192405L95.74571428571429,142.17117699752097L95.92285714285714,142.13337297531857L96.01142857142857,142.09791263504422L96.10000000000001,142.06445109155993L96.18857142857142,142.03317527449627L96.4542857142857,142.00331402648382L97.16285714285715,141.9785387252365L97.34,141.9555778524419L97.51714285714286,141.93480254998136L97.69428571428571,141.91555219303936L97.78285714285714,141.89723221928085L98.04857142857142,141.88013639969822L98.22571428571429,141.8662421408386L98.3142857142857,141.85545032052002L98.40285714285714,141.84678759321562L98.84571428571428,141.83893588016943L99.46571428571428,141.824962029333L99.55428571428571,141.8098436738326L99.82000000000001,141.78850096769597L99.99714285714285,141.76547969755296L100.52857142857142,141.73282472430756L100.61714285714285,141.7018880111494L100.7942857142857,141.67034265163272L100.97142857142858,141.636757531628L101.32571428571428,141.59818689423685L101.67999999999999,141.55943945207295L101.85714285714285,141.5211407288141L102.3,141.4857877423181L102.38857142857142,141.45220178334262L102.47714285714285,141.4205929584451L103.09714285714286,141.38490615610587L103.1857142857143,141.35107502134574L103.71714285714286,141.31184090289216L103.89428571428572,141.27525925140964L104.07142857142857,141.24045697700313L104.16,141.2085270868356L104.24857142857144,141.17746932982948L105.0457142857143,141.11906993003316L105.22285714285714,141.0586085086113L105.48857142857143,140.99767272954625L105.84285714285714,140.92873961783403L106.02,140.85868733874253L106.10857142857144,140.79254581308456L106.46285714285713,140.72467441060607L106.55142857142857,140.66088248320952L106.72857142857143,140.59866226142321L106.81714285714285,140.53984587970538L106.90571428571428,140.48420347099344L107.17142857142858,140.42605756612983L107.26,140.3712396204788L108.14571428571428,140.28648278835345L108.32285714285715,140.20202338547202L108.41142857142857,140.1218102789482L108.67714285714285,140.03519602168728L108.76571428571428,139.95354087247625L108.85428571428572,139.87585159425717L109.12,139.79112197316007L109.20857142857142,139.71000256856965L109.29714285714286,139.63240865119874L110.62571428571428,139.51549390677346L110.89142857142856,139.39711912027363L111.06857142857143,139.2793090839803L111.15714285714286,139.16841730571412L111.33428571428573,139.05767352766745L111.42285714285714,138.9517599200037L111.68857142857142,138.83516316109365L111.9542857142857,138.7083989813347L112.04285714285714,138.5882327875475L112.13142857142857,138.47455736586323L112.22,138.36749725768877L112.39714285714287,138.26125189370845L112.57428571428571,138.1536952360098L112.75142857142856,138.04827392232974L112.92857142857143,137.94632165550527L113.01714285714286,137.8509728146339L113.19428571428571,137.75648327762607L113.37142857142857,137.6629881479873L113.54857142857142,137.57298513319813L113.63714285714286,137.48927475472354L113.72571428571429,137.41117249045837L113.8142857142857,137.33806227050854L113.90285714285714,137.2696106658621L114.78857142857143,137.18208799795534L115.14285714285715,137.0851928177736L115.49714285714285,136.98041496127203L115.58571428571429,136.88053378467225L115.67428571428572,136.7845070352551L115.85142857142857,136.6854840289908L116.11714285714285,136.58133301876154L116.38285714285715,136.47649015653036L116.55999999999999,136.3731797079361L116.82571428571428,136.26843024950256L117.00285714285715,136.16829833879956L117.35714285714285,136.06839886948916L117.53428571428572,135.9761132327804L117.71142857142857,135.8912326301411L117.8,135.81356914289316L118.0657142857143,135.7334491869091L118.15428571428572,135.65913088761326L118.24285714285715,135.5897025285002L118.33142857142857,135.52417778929612L118.50857142857143,135.455590549752L118.95142857142858,135.36888520447414L119.21714285714286,135.2753780213512L119.66,135.1611609473599L119.83714285714285,135.04902689887098L120.19142857142857,134.92533976445227L120.36857142857143,134.801367153215L120.72285714285714,134.67045133763492L120.81142857142858,134.54699073939054L120.89999999999999,134.43012931980314L120.98857142857143,134.3184888008626L121.16571428571427,134.20651857148087L121.43142857142857,134.09170971295666L121.52,133.9840163209371L121.69714285714285,133.87769832774978L121.78571428571428,133.7785861085696L122.40571428571428,133.66987887042336L122.58285714285714,133.5644719453234L122.84857142857143,133.4576146241444L122.93714285714286,133.35856959450072L123.20285714285714,133.26445580527283L123.29142857142858,133.17632736965544L123.73428571428572,133.08098682050007L123.82285714285715,132.99192007636705L123.91142857142857,132.90800243050026L124.17714285714284,132.81728046921066L124.35428571428572,132.72750770855413L124.44285714285714,132.64306516476046L124.53142857142856,132.5632540407263L124.61999999999999,132.48832955462095L124.70857142857143,132.4183003689063L124.79714285714286,132.35334005521648L125.32857142857142,132.2927206924582L125.77142857142857,132.23556611775632L125.85999999999999,132.1815851107763L125.94857142857144,132.13117867489382L126.39142857142858,132.0726613660825L126.7457142857143,132.01540933491347L126.92285714285714,131.9587434688943L127.01142857142857,131.90415238874775L127.36571428571429,131.84557121777436L127.72,131.78373051589264L128.34,131.70066568170967L128.51714285714286,131.61916579726773L128.78285714285713,131.5395716938485L128.96,131.45948245443867L129.04857142857142,131.3838103382405L129.31428571428572,131.30708511191168L129.40285714285716,131.23405379817666L129.57999999999998,131.1560029763899L129.66857142857145,131.07923673699628L129.93428571428572,130.9972718973888L131.44,130.84636271376786L131.52857142857144,130.70744997403486L131.61714285714285,130.58032868631017L131.70571428571427,130.46249350204664L132.06,130.34588746791266L132.3257142857143,130.23077447820393L132.68,130.12131538935355L132.76857142857142,130.01843679003994L132.85714285714286,129.92098330505516L133.21142857142857,129.81664236826683L133.29999999999998,129.71759648719097L133.38857142857142,129.62397925793027L133.56571428571428,129.53044032817135L133.74285714285713,129.43824281283733L133.92000000000002,129.34835773994206L134.09714285714284,129.2618800685876L134.8057142857143,129.14332466994304L135.24857142857144,129.00568006641706L135.33714285714285,128.87555571582277L136.1342857142857,128.69633327690457L136.22285714285715,128.52851258209265L137.19714285714286,128.2877894554716L137.55142857142857,128.0258819523216L137.64000000000001,127.77905824646243L137.90571428571428,127.52564061560727L137.9942857142857,127.28529736688405L138.26,127.0288707918087L138.43714285714285,126.7780833071018L138.5257142857143,126.54491467704334L138.61428571428573,126.32760301616804L139.2342857142857,126.05449488409705L139.32285714285715,125.7981431969354L139.4114285714286,125.55709334408401L139.5,125.32865471418334L139.7657142857143,125.08028988935634L139.94285714285715,124.82216974306452L140.03142857142856,124.57455501444613L140.11999999999998,124.3379423989726L140.20857142857145,124.11090013449272L140.82857142857142,123.79372429508352L141.27142857142857,123.4488631813981L141.35999999999999,123.12881794634751L141.62571428571428,122.81259541369393L142.24571428571429,122.47400760641989L142.42285714285714,122.15607180488257L143.30857142857144,121.8130686150281L143.4857142857143,121.49408766822654L143.75142857142856,121.19816346046265L143.84,120.93011866082038L144.01714285714286,120.68583912514052L144.1057142857143,120.46477185662751L144.63714285714286,120.2613906371441L144.72571428571428,120.07796073030087L145.25714285714287,119.88281320496004L145.34571428571428,119.70176510182336L146.14285714285714,119.50632982701687L146.49714285714288,119.32303344434058L146.6742857142857,119.15447489920241L147.02857142857144,118.97547452303404L147.56,118.76066294895992L147.8257142857143,118.53340383001792L148.00285714285712,118.30417008564628L148.26857142857142,118.06553350914699L148.44571428571427,117.82644686228333L148.53428571428572,117.59889098220745L148.88857142857142,117.35413881433291L148.97714285714287,117.12303120258478L149.15428571428572,116.88878657744999L149.24285714285713,116.66232826703857L149.42000000000002,116.42740526750352L149.68571428571428,116.1811064716106L149.86285714285714,115.9350685688197L150.21714285714287,115.66589113584268L150.3942857142857,115.40014659523963L150.48285714285714,115.1486538692713L150.57142857142856,114.91076139509283L150.74857142857144,114.67963855872209L150.92571428571426,114.45632140903285L151.10285714285715,114.2359402503747L151.3685714285714,114.00361324683423L151.6342857142857,113.76158489388276L151.72285714285715,113.52944743178074L151.81142857142856,113.30621177144383L152.07714285714286,113.07225511043086L152.34285714285716,112.83295970968372L152.69714285714286,112.57493430803925L152.96285714285713,112.31966866341901L153.31714285714287,112.05909535546003L153.40571428571428,111.81728525989242L153.4942857142857,111.59346722493262L154.11428571428573,111.3582680666113L154.29142857142855,111.13901841335496L154.38000000000002,110.93511796716587L154.46857142857144,110.7448107734464L154.7342857142857,110.56121165967282L154.82285714285715,110.39110971167281L155.3542857142857,110.17900190956551L155.44285714285715,109.97611379907929L155.53142857142856,109.77848419505084L155.79714285714286,109.55326104026996L156.15142857142857,109.27629281357675L156.24,109.00773620256004L156.41714285714284,108.72928836825845L156.5057142857143,108.46183148319545L156.59428571428572,108.20470852022942L156.68285714285713,107.95533884991322L156.85999999999999,107.69625908420717L157.12571428571428,107.41849370755388L157.39142857142858,107.12186671755576L157.74571428571429,106.7937865556849L157.83428571428573,106.48337358846395L158.27714285714285,106.11702508183983L158.4542857142857,105.75631142266039L158.54285714285714,105.41558891382526L158.6314285714286,105.09307947419079L158.9857142857143,104.74601526852233L159.25142857142856,104.39630275583514L159.42857142857144,104.05995543156617L159.78285714285713,103.72497189163278L159.8714285714286,103.41668991354278L159.96,103.13199727333065L160.04857142857142,102.86847977873464L160.22571428571428,102.61744415693553L160.66857142857145,102.36946396668469L160.75714285714287,102.1411980159656L160.93428571428572,101.92393334714734L161.02285714285713,101.7226482640435L161.11142857142858,101.53729204532085L161.37714285714284,101.36019337253673L161.55428571428573,101.19306838084474L161.64285714285714,101.04022451552026L161.73142857142858,100.89990211309076L162.44,100.74752995176081L162.52857142857144,100.60437183303318L162.79428571428573,100.46199120035217L163.5914285714286,100.2808557555616L164.12285714285716,100.06854329754776L164.21142857142857,99.8691733144212L164.74285714285713,99.64183123372318L164.83142857142855,99.42987398421836L164.92000000000002,99.23176308278727L165.09714285714284,99.04230106000219L165.18571428571428,98.86531999818128L165.27428571428572,98.69763775468329L165.6285714285714,98.51356865187951L165.98285714285714,98.32265333730422L166.16,98.13662812668701L166.24857142857144,97.96461898389293L166.95714285714286,97.76654337120657L167.0457142857143,97.58164430305676L167.31142857142856,97.39722087960291L167.57714285714286,97.20687081200687L167.93142857142857,97.01312081122923L168.10857142857142,96.82393653983006L168.46285714285713,96.62858334893744L168.90571428571428,96.42353374504313L168.9942857142857,96.23445790677273L169.34857142857143,96.04351246657099L169.43714285714285,95.86630149853106L169.70285714285714,95.69122873797694L169.79142857142855,95.52813740620208L169.88000000000002,95.37389531378255L170.1457142857143,95.21197938899088L170.5,95.03829426946145L170.67714285714285,94.86528960311138L170.8542857142857,94.6943893233876L170.94285714285715,94.53339547017691L171.03142857142856,94.38032274831822L171.65142857142857,94.19028278341509L171.82857142857142,94.0046033197204L171.91714285714284,93.8320212135916L172.44857142857143,93.65404134424365L172.53714285714287,93.49137283055597L172.62571428571428,93.34171091834419L172.80285714285714,93.20165512549684L172.98,93.07505232720612L173.8657142857143,92.95138431753871L174.04285714285714,92.83632553269004L174.84,92.71613982602538L175.1942857142857,92.58415628826785L175.63714285714286,92.43381851633868L175.72571428571428,92.28972842443504L175.81428571428572,92.15275322331635L176.07999999999998,92.01190334797218L176.16857142857145,91.87773382481234L176.25714285714287,91.74802938138043L176.34571428571428,91.62322764526964L176.70000000000002,91.48382943111642L176.78857142857143,91.35085588608402L176.87714285714284,91.22278040769507L177.14285714285714,91.08330926607631L177.32,90.94772819657692L177.49714285714288,90.81642181060317L177.6742857142857,90.68686281783833L177.76285714285714,90.56517594485574L177.85142857142858,90.45123708135074L178.02857142857144,90.34338729081072L178.11714285714285,90.24344903874153L178.56,90.12615166786297L178.8257142857143,90.00151986097018L179.00285714285712,89.87194481584747L179.26857142857142,89.73460534795136L179.53428571428572,89.59088574276002L179.62285714285716,89.45413346273791L179.79999999999998,89.31674446627213L179.97714285714287,89.17822984028147L180.50857142857143,89.00958093257177L180.59714285714284,88.85232632683078L180.77428571428572,88.70029807183879L180.95142857142858,88.55313930793915L181.74857142857144,88.34642903303954L181.83714285714285,88.15044326053311L181.92571428571426,87.96317014614328L182.0142857142857,87.78395945794966L183.07714285714286,87.49325449537028L183.25428571428571,87.199514856376L183.43142857142857,86.90320978402484L183.60857142857142,86.60586676652672L183.96285714285713,86.27587123503169L184.05142857142857,85.96638684184245L184.14000000000001,85.67746229509412L184.31714285714287,85.39825551297116L184.40571428571428,85.13547564672716L184.67142857142858,84.86642652665171L184.76,84.61521992905095L184.84857142857143,84.38051366945945L185.0257142857143,84.15352937109104L185.46857142857144,83.91034153773549L185.7342857142857,83.67152417904902L185.9114285714286,83.44382384902343L186,83.2328703784697L186.17714285714285,83.03334202223854L186.44285714285715,82.84111231136816L186.70857142857145,82.65721965245059L186.88571428571427,82.47933836152681L187.15142857142857,82.30012576812081L187.41714285714284,82.11965974400606L187.5057142857143,81.95182499197286L187.77142857142857,81.78480401651571L187.94857142857143,81.6242070626702L188.03714285714287,81.47613326195267L188.74571428571429,81.29882583851594L188.83428571428573,81.13399960251145L189.01142857142855,80.96957577453358L189.4542857142857,80.78042676714682L189.89714285714285,80.56543329756302L189.9857142857143,80.36486609042488L190.07428571428574,80.17844294741435L190.25142857142856,79.99601862342364L190.34,79.82194546520756L190.51714285714286,79.64350778454637L190.6942857142857,79.45815807615458L190.96,79.25863032272734L191.04857142857142,79.07032450594646L191.40285714285716,78.86824677191527L191.84571428571428,78.65581887585012L192.02285714285713,78.45126121898414L192.55428571428573,78.22593650712533L192.64285714285714,78.01640273277529L192.73142857142858,77.82179916233008L192.82,77.64052225845177L192.9085714285714,77.47289710866796L193.1742857142857,77.30728046163601L193.35142857142858,77.14540551362639L193.61714285714285,76.98209060760743L193.70571428571427,76.82753678142231L193.97142857142856,76.66655598264262L194.14857142857142,76.50537201427571L194.3257142857143,76.3477627694298L194.4142857142857,76.20259894070263L194.50285714285712,76.0670334907729L194.85714285714286,75.91347199788969L195.21142857142857,75.7528869728272L195.29999999999998,75.60034797172048L195.38857142857142,75.45604504468314L195.74285714285713,75.303240144154L195.83142857142855,75.15925049236532L196.00857142857143,75.01706087396487L196.09714285714284,74.88124351427379L196.27428571428572,74.74342500123234L196.36285714285714,74.61032594996335L196.45142857142858,74.48186122359722L196.6285714285714,74.34717879676535L196.71714285714287,74.21822842642955L196.8057142857143,74.09438164846893L196.8942857142857,73.9743544850265L197.16,73.832180301762L197.33714285714285,73.68145704604672L197.42571428571426,73.53497545524189L197.95714285714286,73.33666608078644L198.0457142857143,73.14912525424371L198.1342857142857,72.9727128411143L198.48857142857145,72.78703079306348L198.66571428571427,72.60416828508036L198.84285714285716,72.42384336315942L199.19714285714286,72.2271249049014L199.81714285714287,71.98813354450472L200.08285714285716,71.7522088759166L200.26,71.53313514051062L200.43714285714285,71.32696164758472L200.5257142857143,71.13759266933086L200.70285714285714,70.95340122918616L200.88000000000002,70.77176975137313L201.05714285714285,70.59227646424003L201.1457142857143,70.4214490823975L201.2342857142857,70.25333723582202L201.5,70.04688861808805L201.5885714285714,69.84599929906334L201.8542857142857,69.6023700284134L201.94285714285715,69.35149583840968L202.20857142857145,69.03641137542448L202.4742857142857,68.67663392480127L202.82857142857142,68.24535648972117L203.35999999999999,67.69966489230855L203.44857142857143,67.18306829869496L203.7142857142857,66.654086794513L203.80285714285714,66.15601056859107L203.98,65.66292734385287L204.15714285714284,65.1788137564731L204.24571428571429,64.72559459196539L204.42285714285714,64.2823871798149L204.51142857142855,63.86648089926974L204.68857142857144,63.46221515454206L204.77714285714285,63.08522446777106L204.8657142857143,62.73311288399593L204.9542857142857,62.40272939124513L205.1314285714286,62.084054477283345L205.30857142857144,61.77912227565249L205.39714285714285,61.49567616312425L205.75142857142856,61.21029301877739L205.84,60.94571200267825L206.01714285714286,60.69172990650592L206.28285714285713,60.43916384277306L206.46,60.19190607674748L206.72571428571428,59.94716018127482L207.25714285714287,59.67820616084781L207.78857142857143,59.389288357561874L208.14285714285714,59.079971776902546L208.4085714285714,58.77384710098265L208.85142857142858,58.4436842630947L209.02857142857144,58.13101007814985L209.29428571428573,57.81650348651531L209.8257142857143,57.48183614048723L209.9142857142857,57.1717389149467L210.0914285714286,56.874360857476184L210.35714285714286,56.589977288507725L210.62285714285716,56.31563100500583L210.71142857142857,56.06192255770447L210.79999999999998,55.826953938402085L211.59714285714284,55.55149286957408L211.68571428571428,55.29749947562461L211.77428571428572,55.06271647212049L211.86285714285714,54.8442834259811L212.04,54.632000278192166L212.21714285714287,54.42608091600955L212.48285714285714,54.22246293556115L212.57142857142856,54.033073062681176L212.92571428571426,53.83040648747003L213.10285714285715,53.63225790504291L213.19142857142856,53.446574803980674L213.28,53.26923719556466L213.3685714285714,53.098636911911434L214.07714285714286,52.8369005669578L214.87428571428572,52.43815958643702L215.05142857142857,52.04514296780324L215.31714285714287,51.65484690206443L215.76,51.2510296353053L216.0257142857143,50.8673694941912L216.11428571428573,50.516383744493766L216.38000000000002,50.17960886706365L216.7342857142857,49.8579446305292L217,49.550487814001336L217.17714285714285,49.25427043824139L217.3542857142857,48.970323639610314L217.61999999999998,48.694546919811394L217.88571428571427,48.407998491897274L217.9742857142857,48.13910847069502L218.06285714285715,47.88964755779032L218.24,47.653252164531665L218.94857142857143,47.36716831724638L219.12571428571428,47.08642903765766L219.30285714285714,46.80674229284831L219.48,46.535573240107894L219.92285714285714,46.24344622134007L220.3657142857143,45.945940100499925L220.72,45.650776389254574L221.07428571428574,45.352416033260454L221.16285714285715,45.07173484885873L221.25142857142856,44.80635707568911L221.6057142857143,44.51767393740646L221.8714285714286,44.21348655932599L222.13714285714286,43.89722415350061L222.57999999999998,43.55495340116785L222.84571428571428,43.222319703690026L223.02285714285713,42.90322210118491L223.37714285714284,42.57326420101334L223.46571428571428,42.26447677768735L223.55428571428573,41.97314028781376L223.64285714285714,41.69795170582924L223.82,41.42541566930063L223.99714285714288,41.15974285997625L224.26285714285714,40.89577101884257L224.52857142857144,40.64300028181261L224.61714285714285,40.409649220372934L224.79428571428573,40.18603968077813L224.97142857142856,39.97583922255562L225.5914285714286,39.7268138841555L225.85714285714286,39.455113534549L225.94571428571427,39.19654756782176L226.12285714285716,38.93316974538477L226.29999999999998,38.66104057498864L226.47714285714287,38.370757115495834L226.56571428571428,38.088448523830664L226.74285714285713,37.7970160637465L227.00857142857143,37.4785842413465L227.18571428571428,37.156685437092214L227.45142857142858,36.82133301476336L227.6285714285714,36.49000781021297L227.8942857142857,36.146171627617655L227.98285714285714,35.82041781381709L228.07142857142856,35.50950141163933L228.95714285714286,35.077992141951725L229.0457142857143,34.67979779108243L229.22285714285715,34.303574388598314L229.31142857142856,33.956960847812546L229.4,33.63754876728247L229.48857142857145,33.343060068764714L229.75428571428571,33.059398134777815L229.84285714285716,32.79708456814934L230.02,32.541054049518095L230.2857142857143,32.275205901710784L230.46285714285713,32.01682313710835L230.64000000000001,31.764219823354086L230.81714285714287,31.516154913689835L231.61428571428573,31.195586324460866L231.70285714285714,30.894641437784475L231.96857142857144,30.586546829134946L232.1457142857143,30.29069483450314L232.32285714285715,30.010060836416574L232.5,29.73676831085295L232.67714285714285,29.456821077098596L232.7657142857143,29.186412236816945L233.03142857142856,28.887122706129084L233.56285714285715,28.48829152683263L233.65142857142857,28.107240076362032L234.0057142857143,27.685826739618445L234.27142857142857,27.25063316211548L234.53714285714287,26.801213838327758L234.7142857142857,26.364797049663323L234.80285714285714,25.95406293621829L235.15714285714284,25.51245570258312L235.51142857142855,25.04411257176067L235.68857142857144,24.588675051745085L235.77714285714285,24.16143012328386L235.8657142857143,23.75745870525725L235.9542857142857,23.373328277166287L236.04285714285714,23.007165256963333L236.30857142857144,22.622249549074326L236.66285714285715,22.209846795498475L236.75142857142856,21.822714618652313L236.84,21.459044321009063L237.1942857142857,21.07322233047604L237.28285714285713,20.71028913273326L237.46,20.353312353219437L237.54857142857142,20.018439667358L237.99142857142857,19.64328418894764L238.25714285714287,19.261326963223635L238.34571428571428,18.905187562173182L238.52285714285713,18.556038212338027L238.70000000000002,18.20710147659277L238.78857142857143,17.8775860420492L238.87714285714284,17.565107710805183L238.96571428571428,17.268957425040004L239.23142857142858,16.960315211607206L239.32,16.669385703002245L239.4085714285714,16.394010819430726L239.49714285714288,16.133298200063347L239.76285714285714,15.861191598100262L239.85142857142858,15.605409737200594L240.02857142857144,15.352439571613864L240.56,15.068513297314897L240.8257142857143,14.78275326584569L241.0914285714286,14.494237683468326L241.18,14.22401929103151L241.53428571428572,13.92180668892986" style="fill: none;" fill="none"></path></g></g></g></g><g opacity="0.2"><g><g><g><path stroke="rgb(255, 112, 67)" stroke-width="2px" d="M18.15714285714286,150.5499469538532L18.245714285714286,150.55160470803602L18.68857142857143,150.56265640258812L18.954285714285714,150.57039258877458L19.042857142857144,150.57315551241263L19.30857142857143,150.5836546222371L19.397142857142857,150.58586496114754L19.485714285714284,150.58862788478555L19.84,150.6035476724309L20.902857142857144,150.63891309499763L21.257142857142856,150.6460966964565L21.434285714285714,150.64775445063933L21.611428571428572,150.6460966964565L21.7,150.6455441117289L21.877142857142857,150.64057084918045L22.408571428571427,150.60575801134132L22.497142857142858,150.59746924042724L22.585714285714285,150.58973305424078L22.674285714285713,150.5797865291439L22.762857142857143,150.56928741931938L23.294285714285714,150.50297725200676L23.47142857142857,150.4775583545369L23.64857142857143,150.45103428761186L23.737142857142857,150.43887742360457L24.002857142857142,150.39743356903418L24.091428571428573,150.38417153557165L24.18,150.37146208683671L24.268571428571427,150.3582000533742L24.71142857142857,150.3029415806137L25.154285714285713,150.2498934467636L25.419999999999998,150.21563319365205L25.50857142857143,150.20458149909996L26.04,150.13827133178734L26.74857142857143,150.06201463937782L27.014285714285716,150.04101641972883L27.102857142857143,150.03549057245277L27.72285714285714,150.00012514988603L27.988571428571426,149.9868631164235L28.165714285714287,149.9769165913266L28.78571428571429,149.93989341457709L28.874285714285712,149.93436756730102L17.802857142857142,150.54607886075996L17.891428571428573,150.54663144548758L18.511428571428574,150.5582357247673L18.68857142857143,150.56265640258812L18.865714285714283,150.56762966513656L18.954285714285714,150.569840004047L19.042857142857144,150.57315551241263L19.662857142857142,150.59636407097204L20.105714285714285,150.61349419752779L20.282857142857143,150.62012521425905L20.37142857142857,150.62344072262468L20.725714285714286,150.635597586632L21.16857142857143,150.6460966964565L21.257142857142856,150.64885962009453L21.52285714285714,150.64941220482214L22.054285714285715,150.63946567972525L22.142857142857142,150.6367027560872L22.32,150.6250984768075L22.585714285714285,150.6041002571585L22.762857142857143,150.58475979169233L22.85142857142857,150.5737080971402L23.02857142857143,150.5499469538532L23.205714285714286,150.52452805638336L23.294285714285714,150.51016085346564L23.914285714285715,150.40848526358627L24.622857142857143,150.3051519195241L24.71142857142857,150.294100224972L24.8,150.2836011151475L25.154285714285713,150.23663141330107L26.04,150.1145101885003L26.12857142857143,150.1029059092206L26.305714285714284,150.0808025201164L26.66,150.04046383500122L26.925714285714285,150.00896650552772L27.014285714285716,150.00012514988603L27.102857142857143,149.99183637897195L27.36857142857143,149.96475972731932L28.431428571428572,149.8890556196374L28.962857142857143,149.8465065956118L29.228571428571428,149.83103422323885L29.405714285714286,149.82274545232477L29.494285714285713,149.81721960504873L29.671428571428574,149.80893083413466L30.025714285714283,149.78738002975805L30.38,149.75864562392258L30.557142857142857,149.74427842100485L31,149.71554401516937L31.53142857142857,149.69565096497558L32.151428571428575,149.6873621940615L32.24,149.68901994824432L32.682857142857145,149.6857044398787L32.77142857142857,149.6857044398787L33.12571428571428,149.7078078289829L33.214285714285715,149.71499143044176L33.56857142857143,149.7376474042736L33.65714285714285,149.74262066682203L33.83428571428571,149.74869909882568L34.1,149.75698786973976L34.542857142857144,149.75809303919496L34.63142857142857,149.7591982086502L34.720000000000006,149.7603033781054L35.16285714285714,149.7619611322882L35.251428571428576,149.7630663017434L35.339999999999996,149.7614085475606L35.605714285714285,149.7531197766465L36.402857142857144,149.74262066682203L36.58,149.7404103279116L36.934285714285714,149.73377931118034L37.11142857142857,149.72493795553865L37.199999999999996,149.72106986244543L37.64285714285714,149.71554401516937L37.731428571428566,149.7172017693522L38.26285714285714,149.73433189590796L38.52857142857143,149.74593617518767L38.88285714285714,149.76859214901947L39.23714285714286,149.78627486030283L39.41428571428571,149.79677397012733L39.768571428571434,149.82108769814195L39.85714285714286,149.82716613014563L39.94571428571428,149.83269197742166L40.12285714285714,149.84263850251855L40.565714285714286,149.86087379852952L40.65428571428571,149.86418930689516L41.00857142857143,149.8780039250853L41.097142857142856,149.88463494181656L41.18571428571428,149.8890556196374L42.51428571428571,149.8780039250853L43.13428571428572,149.89237112800302L43.222857142857144,149.89679180582388L43.66571428571429,149.9310520589354L43.754285714285714,149.93823566039427L43.93142857142857,149.9514976938568L44.10857142857143,149.96973298986777L44.462857142857146,150.00509841243448L45.26,150.08632836739244L45.43714285714286,150.0907490452133L45.52571428571429,150.09019646048569L45.79142857142857,150.0708559950195L46.32285714285714,150.0476474364601L47.03142857142857,150.0062035818897L47.12,150.00067773461365L47.385714285714286,149.9868631164235L47.47428571428571,149.98188985387506L47.74,149.96752265095733L47.82857142857143,149.96586489677452L48.27142857142857,149.96918040514015L48.36,149.9741536676886L49.33428571428571,149.9957044720652L49.6,149.99238896369957L49.68857142857143,149.99349413315477L49.86571428571428,149.99515188733758L50.042857142857144,149.99183637897195L50.308571428571426,149.9868631164235L51.28285714285715,149.87082032362642L51.72571428571429,149.78406452139242L51.902857142857144,149.75422494610174L52.168571428571425,149.71388626098656L52.34571428571429,149.6774156689646L52.78857142857143,149.5807133416337L52.87714285714286,149.5680038928988L53.40857142857143,149.48732652266844L53.58571428571429,149.46522313356422L53.674285714285716,149.45472402373971L53.85142857142857,149.43980423609437L53.94,149.43427838881834L54.02857142857143,149.42985771099748L54.205714285714286,149.41659567753496L54.38285714285714,149.40388622880005L54.825714285714284,149.37073114514374L54.91428571428571,149.3685208062333L55.00285714285714,149.3685208062333L55.18,149.37238889932655L55.71142857142857,149.37570440769218L55.88857142857143,149.37570440769218L56.24285714285714,149.37073114514374L56.331428571428575,149.37238889932655L56.42,149.37294148405417L56.77428571428571,149.3779147466026L57.128571428571426,149.38288800915106L57.21714285714285,149.38454576333388L57.48285714285714,149.38399317860626L57.660000000000004,149.37183631459894L57.748571428571424,149.3674156367781L57.83714285714286,149.3663104673229L57.925714285714285,149.3657578825953L58.01428571428571,149.3646527131401L58.10285714285715,149.36299495895727L58.279999999999994,149.36354754368486L58.36857142857143,149.36520529786767L58.81142857142857,149.37459923823698L58.9,149.37680957714738L59.254285714285714,149.38123025496824L59.519999999999996,149.38454576333388L59.69714285714286,149.3884138564271L60.22857142857143,149.3889664411547L60.40571428571429,149.38233542442345L60.848571428571425,149.39670262734117L61.20285714285714,149.39117678006514L61.29142857142857,149.39117678006514L61.46857142857143,149.38454576333388L61.73428571428571,149.37073114514374L62.53142857142858,149.31768301129364L63.15142857142857,149.27513398726805L63.24,149.27181847890242L63.41714285714286,149.26297712326073L63.505714285714284,149.26352970798834L63.59428571428572,149.26408229271593L63.682857142857145,149.26408229271593L63.86,149.27181847890242L64.12571428571428,149.27955466508888L64.48,149.2839753429097L64.56857142857143,149.2828701734545L64.92285714285714,149.29613220691704L65.18857142857142,149.31934076547645L65.54285714285714,149.34254932403587L65.80857142857143,149.32099851965927L65.89714285714287,149.31105199456238L65.98571428571428,149.3016580541931L66.07428571428571,149.29336928327902L66.16285714285715,149.28563309709253L66.34,149.27789691090607L66.42857142857143,149.27237106363L66.51714285714286,149.26905555526437L66.69428571428571,149.25247801343622L66.78285714285714,149.24805733561539L66.87142857142857,149.23755822579088L66.96000000000001,149.21987551450752L67.13714285714286,149.1662747959298L67.3142857142857,149.0916758577031L67.40285714285714,149.0585207740468L68.02285714285715,148.9187168379627L68.28857142857143,148.8883246779444L68.46571428571428,148.8667738735678L68.64285714285715,148.844117899736L68.90857142857143,148.80654213825883L69.08571428571429,148.7816758255166L69.26285714285714,148.75570434331917L69.61714285714285,148.72531218330087L69.97142857142858,148.69823553164824L70.23714285714286,148.66894854108514L70.32571428571428,148.66618561744713L70.41428571428571,148.66729078690233L70.50285714285715,148.66508044799193L71.03428571428572,148.64795032143616L71.5657142857143,148.6098219752314L71.74285714285715,148.6009806195897L71.83142857142857,148.5987702806793L71.92,148.59545477231367L72.1857142857143,148.60484871268295L72.45142857142858,148.5982176959517L72.53999999999999,148.58329790830635L72.80571428571429,148.5457221468292L72.89428571428572,148.53246011336668L72.98285714285714,148.51864549517654L73.16,148.48438524206503L73.33714285714285,148.43354744712533L73.86857142857143,148.32800376415275L74.13428571428571,148.25506258010887L74.22285714285714,148.2373798688255L74.48857142857143,148.19096275170668L74.57714285714286,148.14896631240867L74.66571428571427,148.08431389927887L74.84285714285714,147.94616771737756L74.93142857142857,147.88206788897537L75.46285714285713,147.45491989453657L75.81714285714285,147.1714439292751L75.90571428571428,147.10347600777968L76.08285714285714,146.9802496135237L76.26,146.86475940545424L76.43714285714286,146.7663993239405L76.52571428571429,146.72385029991491L76.61428571428571,146.67632801334085L76.70285714285714,146.63156865040483L76.79142857142858,146.59067738056206L77.05714285714286,146.48016043504103L77.23428571428572,146.43153297901176L77.41142857142857,146.39506238698982L77.67714285714285,146.3072014153006L77.85428571428572,146.24807484944685L77.94285714285714,146.22541887561502L78.03142857142858,146.20773616433166L78.38571428571429,146.14308375120186L78.56285714285714,146.08672010898613L78.65142857142857,146.05632794896783L78.82857142857142,146.009910831849L79.09428571428572,145.93033863107385L79.44857142857143,145.8386095662914L79.71428571428572,145.80103380481424L79.98,145.75848478078865L80.06857142857143,145.73803914586725L80.24571428571429,145.68664876619997L80.42285714285714,145.63304804762228L80.60000000000001,145.57999991377218L81.04285714285714,145.45677351951622L81.30857142857143,145.3915685216588L81.48571428571428,145.3578608532749L81.75142857142856,145.34680915872278L82.46000000000001,145.25342233975752L82.8142857142857,145.16390361388548L83.16857142857143,145.05670217673006L83.34571428571428,144.99260234832786L83.4342857142857,144.95613175630592L83.78857142857143,144.82074849804266L83.96571428571428,144.7837253212931L84.05428571428571,144.77156845728578L84.32000000000001,144.72625650962217L84.49714285714285,144.69254884123825L84.67428571428572,144.6864704092346L84.94000000000001,144.6964169343315L85.11714285714285,144.69199625651063L85.2057142857143,144.68812816341742L85.38285714285715,144.6770764688653L85.73714285714286,144.63010676701887L86.09142857142857,144.5814793109896L86.71142857142857,144.46985719601335L86.8,144.44664863745393L86.88857142857142,144.4206771552565L86.97714285714285,144.39525825778665L87.15428571428572,144.3560247421267L87.24285714285715,144.33005325992926L87.42,144.284188727538L87.50857142857143,144.2626379231614L87.59714285714286,144.24440262715044L87.86285714285714,144.1968803405764L87.95142857142858,144.18196055293106L88.03999999999999,144.17146144310655L88.12857142857143,144.1637252569201L88.30571428571429,144.12614949544295L88.83714285714285,143.95098013679208L88.92571428571429,143.9100888669493L89.19142857142857,143.79791416724547L89.81142857142858,143.60948277513208L90.07714285714286,143.50891235470795L90.69714285714285,143.25582854946478L90.78571428571428,143.22322605053606L90.87428571428572,143.17459859450682L91.05142857142857,143.0662919878962L91.14,143.02926881114664L91.22857142857143,142.99887665112837L91.49428571428572,142.91156826416673L91.58285714285714,142.85630979140623L91.76,142.7369514902435L91.93714285714286,142.6507482727371L92.02571428571429,142.61206734180473L92.38,142.40871616204603L92.46857142857142,142.36008870601677L92.82285714285715,142.279963920514L92.91142857142857,142.2661493023239L93,142.2468088368577L93.08857142857143,142.21862701574983L93.35428571428572,142.13408155242624L93.44285714285714,142.11087299386682L93.53142857142858,142.08876960476263L93.79714285714286,142.05174642801308L93.88571428571429,142.0451154112818L94.59428571428572,141.9589121937754L94.94857142857143,141.8959175348284L95.12571428571428,141.8826555013659L95.30285714285715,141.86552537481012L95.39142857142856,141.84729007879915L95.65714285714286,141.81413499514284L95.74571428571429,141.81026690204962L95.92285714285714,141.79313677549385L96.01142857142857,141.77876957257612L96.10000000000001,141.76329720020317L96.18857142857142,141.75169292092346L96.4542857142857,141.7345627943677L97.16285714285715,141.7555610140167L97.34,141.74892999728544L97.51714285714286,141.74782482783021L97.69428571428571,141.74229898055418L97.78285714285714,141.7323524554573L98.04857142857142,141.7262740234536L98.22571428571429,141.74119381109895L98.3142857142857,141.75832393765472L98.40285714285714,141.76882304747923L98.84571428571428,141.76827046275162L99.46571428571428,141.69919737180098L99.55428571428571,141.67377847433113L99.82000000000001,141.5964166124664L99.99714285714285,141.55828826626166L100.52857142857142,141.43892996509894L100.61714285714285,141.42345759272598L100.7942857142857,141.38643441597642L100.97142857142858,141.33449145158156L101.32571428571428,141.25105115771316L101.67999999999999,141.21071247259798L101.85714285714285,141.17645221948646L102.3,141.16761086384477L102.38857142857142,141.14992815256142L102.47714285714285,141.13611353437128L103.09714285714286,141.063724935055L103.1857142857143,141.04659480849924L103.71714285714286,140.95873383681L103.89428571428572,140.9460243880751L104.07142857142857,140.92723650733652L104.16,140.92115807533287L104.24857142857144,140.89794951677345L105.0457142857143,140.593475331863L105.22285714285714,140.51445571581544L105.48857142857143,140.44925071795805L105.84285714285714,140.30834161241873L106.02,140.22821682691597L106.10857142857144,140.1972720821701L106.46285714285713,140.1138317883017L106.55142857142857,140.08675513664903L106.72857142857143,140.03868026534738L106.81714285714285,140.01049844423952L106.90571428571428,139.98342179258688L107.17142857142858,139.9027444223565L107.26,139.87787810961427L108.14571428571428,139.52367129921936L108.32285714285715,139.44188875953378L108.41142857142857,139.3998923202358L108.67714285714285,139.25566770633085L108.76571428571428,139.2186445295813L108.85428571428572,139.1766480902833L109.12,139.02855538328512L109.20857142857142,138.97992792725586L109.29714285714286,138.93406339486464L110.62571428571428,138.46326120694502L110.89142857142856,138.33174604177498L111.06857142857143,138.21901875734352L111.15714285714286,138.17039130131425L111.33428571428573,138.06097952524843L111.42285714285714,137.99853745102905L111.68857142857142,137.78579233090105L111.9542857142857,137.567521363497L112.04285714285714,137.50673704346045L112.13142857142857,137.45147857069992L112.22,137.40395628412588L112.39714285714287,137.30504361788454L112.57428571428571,137.18568531672182L112.75142857142856,137.0994820992154L112.92857142857143,137.02875125408195L113.01714285714286,136.99283324678763L113.19428571428571,136.9060774445536L113.37142857142857,136.82153198123L113.54857142857142,136.76295800010385L113.63714285714286,136.73588134845122L113.72571428571429,136.70825211207094L113.8142857142857,136.68007029096307L113.90285714285714,136.65354622403802L114.78857142857143,136.3943839867912L115.14285714285715,136.2131361961367L115.49714285714285,136.03741425275825L115.58571428571429,135.98160319527014L115.67428571428572,135.92026629050596L115.85142857142857,135.79427697261198L116.11714285714285,135.64397392670335L116.38285714285715,135.5329043964547L116.55999999999999,135.44338567058267L116.82571428571428,135.32568512360277L117.00285714285715,135.26711114247664L117.35714285714285,135.16930364569052L117.53428571428572,135.1455425024035L117.71142857142857,135.12730720639252L117.8,135.1145977576576L118.0657142857143,135.01236958305063L118.15428571428572,134.99026619394644L118.24285714285715,134.9648472964766L118.33142857142857,134.9344551364583L118.50857142857143,134.838305393855L118.95142857142858,134.58853709697746L119.21714285714286,134.433813373248L119.66,134.1332072814308L119.83714285714285,134.0398204624655L120.19142857142857,133.81215555469217L120.36857142857143,133.6856136520706L120.72285714285714,133.49220899740877L120.81142857142858,133.43584535519304L120.89999999999999,133.3783765435221L120.98857142857143,133.3137241303923L121.16571428571427,133.19878650705041L121.43142857142857,133.0584299862387L121.52,133.0147757927579L121.69714285714285,132.92083638906502L121.78571428571428,132.8865761359535L122.40571428571428,132.69151372710886L122.58285714285714,132.61580961942695L122.84857142857143,132.49589873353662L122.93714285714286,132.46716432770117L123.20285714285714,132.4174317022167L123.29142857142858,132.38317144910516L123.73428571428572,132.22292187809967L123.82285714285715,132.19031937917097L123.91142857142857,132.1527436176938L124.17714285714284,132.00078281760238L124.35428571428572,131.91955286264442L124.44285714285714,131.88308227062248L124.53142857142856,131.84495392441772L124.61999999999999,131.81400917967184L124.70857142857143,131.78803769747438L124.79714285714286,131.7686972320082L125.32857142857142,131.7471464276316L125.77142857142857,131.72117494543417L125.85999999999999,131.69575604796432L125.94857142857144,131.67752075195335L126.39142857142858,131.5460055867833L126.7457142857143,131.5001410543921L126.92285714285714,131.4487506747248L127.01142857142857,131.41283266743048L127.36571428571429,131.31834067901L127.72,131.22716419895514L128.34,130.95308217406296L128.51714285714286,130.88566683729513L128.78285714285713,130.82322476307573L128.96,130.73867929975214L129.04857142857142,130.7027612924578L129.31428571428572,130.6165580749514L129.40285714285716,130.57677197456383L129.57999999999998,130.45354558030786L129.66857142857145,130.38834058245047L129.93428571428572,130.25958834091844L131.44,129.48818006118162L131.52857142857144,129.4572353164357L131.61714285714285,129.43623709678673L131.70571428571427,129.40197684367521L132.06,129.2964331607026L132.3257142857143,129.19475757082327L132.68,129.1361835896971L132.76857142857142,129.0925293962163L132.85714285714286,129.04390194018706L133.21142857142857,128.87757393717789L133.29999999999998,128.8261835575106L133.38857142857142,128.78142419457458L133.56571428571428,128.6885899603369L133.74285714285713,128.60846517483415L133.92000000000002,128.5393920838835L134.09714285714284,128.4835810263954L134.8057142857143,128.07632608215036L135.24857142857144,127.76687863469148L135.33714285714285,127.70443656047208L136.1342857142857,127.08333132664384L136.22285714285715,127.01812632878644L137.19714285714286,126.12128131588322L137.55142857142857,125.66871442397458L137.64000000000001,125.55764489372594L137.90571428571428,125.2448819379014L137.9942857142857,125.12220812837305L138.26,124.72103161613168L138.43714285714285,124.52099594473863L138.5257142857143,124.44639700651193L138.61428571428573,124.37179806828523L139.2342857142857,123.59652169545514L139.32285714285715,123.49097801248254L139.4114285714286,123.38764466842038L139.5,123.27270704507852L139.7657142857143,122.8450064659121L139.94285714285715,122.49908842643124L140.03142857142856,122.34602245688463L140.11999999999998,122.20842885971093L140.20857142857145,122.06751975417161L140.82857142857142,120.93914174040181L141.27142857142857,120.34511315822625L141.35999999999999,120.24841083089532L141.62571428571428,119.96659261981668L142.24571428571429,119.42671734094644L142.42285714285714,119.29464959104878L143.30857142857144,118.72603990634305L143.4857142857143,118.62325914700848L143.75142857142856,118.53484559059167L143.84,118.51771546403589L144.01714285714286,118.48732330401761L144.1057142857143,118.47516644001031L144.63714285714286,118.43095966180188L144.72571428571428,118.42709156870866L145.25714285714287,118.12648547689142L145.34571428571428,118.07233217358613L146.14285714285714,117.74741235375429L146.49714285714288,117.67336600025517L146.6742857142857,117.63744799296083L147.02857142857144,117.36447113752389L147.56,116.82735878229165L147.8257142857143,116.48807175954205L148.00285714285712,116.24106638630253L148.26857142857142,115.9178043206535L148.44571428571427,115.67466704050722L148.53428571428572,115.55088806152365L148.88857142857142,115.1513693034651L148.97714285714287,115.04306269685449L149.15428571428572,114.78058495124203L149.24285714285713,114.62420347332976L149.42000000000002,114.31309827168805L149.68571428571428,113.96441730856917L149.86285714285714,113.72072744369528L150.21714285714287,113.2432942390444L150.3942857142857,113.00844572981221L150.48285714285714,112.88521933555624L150.57142857142856,112.76972912748677L150.74857142857144,112.59953303138437L150.92571428571426,112.44646706183774L151.10285714285715,112.25250982244832L151.3685714285714,111.91267021497113L151.6342857142857,111.58332971731843L151.72285714285715,111.4402102728687L151.81142857142856,111.29709082841894L152.07714285714286,110.96664516131105L152.34285714285716,110.67930110295636L152.69714285714286,110.25270569324515L152.96285714285713,110.02227786183379L153.31714285714287,109.7139355838301L153.40571428571428,109.64099439978621L153.4942857142857,109.57910491029443L154.11428571428573,109.24147564172766L154.29142857142855,109.16577153404576L154.38000000000002,109.10001395146074L154.46857142857144,109.0320460299653L154.7342857142857,108.90881963570935L154.82285714285715,108.86019217968008L155.3542857142857,108.27003169059775L155.44285714285715,108.15012080470743L155.53142857142856,107.99981775879881L155.79714285714286,107.52625264724118L156.15142857142857,106.78357877333981L156.24,106.5907267034056L156.41714285714284,106.22325785954816L156.5057142857143,106.05471951762857L156.59428571428572,105.89060185352983L156.68285714285713,105.71101181705815L156.85999999999999,105.3645411928497L157.12571428571428,104.91860531767232L157.39142857142858,104.45222380757353L157.74571428571429,103.84106509884221L157.83428571428573,103.68965688347838L158.27714285714285,102.81988852222783L158.4542857142857,102.50988849004132L158.54285714285714,102.34908633430821L158.6314285714286,102.19049451748552L158.9857142857143,101.62243741750738L159.25142857142856,101.24889014164629L159.42857142857144,101.03282951315266L159.78285714285713,100.71012003223123L159.8714285714286,100.6421521107358L159.96,100.56976351141951L160.04857142857142,100.49682232737563L160.22571428571428,100.35812356074673L160.66857142857145,100.13764225443227L160.75714285714287,100.08680445949258L160.93428571428572,99.96855132778508L161.02285714285713,99.91108251611413L161.11142857142858,99.86908607681615L161.37714285714284,99.76630531748158L161.55428571428573,99.68894345561685L161.64285714285714,99.66462972760222L161.73142857142858,99.63700049122197L162.44,99.37618049979231L162.52857142857144,99.31594876448335L162.79428571428573,99.18056550622008L163.5914285714286,98.65063675244672L164.12285714285716,98.15773117542288L164.21142857142857,98.0748434662821L164.74285714285713,97.59575250744841L164.83142857142855,97.52225873867692L164.92000000000002,97.44876496990544L165.09714285714284,97.33714285492918L165.18571428571428,97.27249044179938L165.27428571428572,97.1884975632034L165.6285714285714,96.85694672664029L165.98285714285714,96.60441550612471L166.16,96.46240123113019L166.24857142857144,96.41653669873895L166.95714285714286,95.98386285702409L167.0457142857143,95.91755268971147L167.31142857142856,95.73741006851218L167.57714285714286,95.49372020363829L167.93142857142857,95.26937080423059L168.10857142857142,95.1212780972324L168.46285714285713,94.87040463089964L168.90571428571428,94.5780873099965L168.9942857142857,94.53277536233288L169.34857142857143,94.32500350475333L169.43714285714285,94.27140278617563L169.70285714285714,94.11557389299097L169.79142857142855,94.06031542023045L169.88000000000002,93.98571648200375L170.1457142857143,93.75473606586478L170.5,93.47512819369656L170.67714285714285,93.30824760595979L170.8542857142857,93.15628680586836L170.94285714285715,93.08445079127969L171.03142857142856,93.00266825159413L171.65142857142857,92.47992309927962L171.82857142857142,92.33348814646425L171.91714285714284,92.27878225843133L172.44857142857143,92.0522225201132L172.53714285714287,92.02735620737097L172.62571428571428,91.99475370844227L172.80285714285714,91.94115298986456L172.98,91.93562714258852L173.8657142857143,91.83837223053L174.04285714285714,91.80079646905286L174.84,91.63446846604369L175.1942857142857,91.39630444844586L175.63714285714286,91.08077856898329L175.72571428571428,90.99291759729407L175.81428571428572,90.91997641325018L176.07999999999998,90.74425446987173L176.16857142857145,90.67020811637265L176.25714285714287,90.58068939050061L176.34571428571428,90.50001202027025L176.70000000000002,90.22924550374371L176.78857142857143,90.1540939807894L176.87714285714284,90.07010110219342L177.14285714285714,89.82806899150235L177.32,89.7274985710782L177.49714285714288,89.63466433684053L177.6742857142857,89.52083188295386L177.76285714285714,89.46999408801419L177.85142857142858,89.42578730980577L178.02857142857144,89.37273917595567L178.11714285714285,89.34400477012021L178.56,89.07047532995564L178.8257142857143,88.87983359893185L179.00285714285712,88.70576940973622L179.26857142857142,88.49855013688428L179.53428571428572,88.29740929603598L179.62285714285716,88.2233629425369L179.79999999999998,88.08024349808714L179.97714285714287,87.93159820636136L180.50857142857143,87.49174076318762L180.59714285714284,87.43703487515471L180.77428571428572,87.33204377690973L180.95142857142858,87.22871043284756L181.74857142857144,86.4860365589462L181.83714285714285,86.38657130797726L181.92571428571426,86.27771211663904L182.0142857142857,86.17106326421124L183.07714285714286,84.8769098321599L183.25428571428571,84.55585810542128L183.43142857142857,84.23646413286548L183.60857142857142,83.9297796090446L183.96285714285713,83.30591145157835L184.05142857142857,83.18102730313959L184.14000000000001,83.07714137434981L184.31714285714287,82.8853944738708L184.40571428571428,82.77045685052893L184.67142857142858,82.44498444596948L184.76,82.35436055064223L184.84857142857143,82.26815733313582L185.0257142857143,82.11067068576834L185.46857142857144,81.72165103753429L185.7342857142857,81.52216795086882L185.9114285714286,81.39452087879202L186,81.33428914348306L186.17714285714285,81.23758681615215L186.44285714285715,81.11104491353056L186.70857142857145,81.00218572219234L186.88571428571427,80.87840674320879L187.15142857142857,80.68721242745738L187.41714285714284,80.49546552697839L187.5057142857143,80.44131222367308L187.77142857142857,80.28161523739519L187.94857142857143,80.17883447806062L188.03714285714287,80.14346905549388L188.74571428571429,79.70305902759256L188.83428571428573,79.65056347847006L189.01142857142855,79.48976132273695L189.4542857142857,79.0780857006711L189.89714285714285,78.6304920713109L189.9857142857143,78.55976122617743L190.07428571428574,78.50063466032367L190.25142857142856,78.3541997075083L190.34,78.25528704126697L190.51714285714286,78.03756865859053L190.6942857142857,77.79001070062341L190.96,77.46288054188113L191.04857142857142,77.37557215491952L191.40285714285716,77.04954716563246L191.84571428571428,76.7439678112668L192.02285714285713,76.61024230718634L192.55428571428573,76.19801410039287L192.64285714285714,76.13059876362504L192.73142857142858,76.07036702831607L192.82,76.0090301235519L192.9085714285714,75.96427076061588L193.1742857142857,75.81673063834529L193.35142857142858,75.6885309815409L193.61714285714285,75.51225645343484L193.70571428571427,75.43655234575293L193.97142857142856,75.21772879362128L194.14857142857142,75.05471629897775L194.3257142857143,74.92927956581137L194.4142857142857,74.89612448215506L194.50285714285712,74.8469444413982L194.85714285714286,74.53141856193564L195.21142857142857,74.30762174725554L195.29999999999998,74.22749696175279L195.38857142857142,74.15731870134692L195.74285714285713,73.92799603939078L195.83142857142855,73.86334362626097L196.00857142857143,73.73735430836699L196.09714285714284,73.65888727704706L196.27428571428572,73.5030583838624L196.36285714285714,73.41243448853514L196.45142857142858,73.32567868630113L196.6285714285714,73.13503695527734L196.71714285714287,73.05767509341261L196.8057142857143,72.97976064682028L196.8942857142857,72.89411001404147L197.16,72.55261265238147L197.33714285714285,72.32494774460814L197.42571428571426,72.21664113799753L197.95714285714286,71.55188171068849L198.0457142857143,71.46125781536124L198.1342857142857,71.38500112295172L198.48857142857145,71.115892360608L198.66571428571427,70.95840571324052L198.84285714285716,70.80091906587305L199.19714285714286,70.45665878057501L199.81714285714287,69.8372113009296L200.08285714285716,69.62888685862245L200.26,69.56147152185461L200.43714285714285,69.47140021125497L200.5257142857143,69.43327186505022L200.70285714285714,69.29567826787653L200.88000000000002,69.13708645105383L201.05714285714285,68.97683688004832L201.1457142857143,68.88400264581065L201.2342857142857,68.74033061663332L201.5,68.18885105848334L201.5885714285714,68.03799542784712L201.8542857142857,67.40970659256003L201.94285714285715,67.09362812836986L202.20857142857145,66.20065120855989L202.4742857142857,65.43863686919234L202.82857142857142,64.36385957400026L203.35999999999999,62.78844051559786L203.44857142857143,62.53369895617188L203.7142857142857,61.893253256877465L203.80285714285714,61.67332453529061L203.98,61.2251783212028L204.15714285714284,60.82179147005101L204.24571428571429,60.64662211140017L204.42285714285714,60.29352047046046L204.51142857142855,60.12332437435807L204.68857142857144,59.82382345199605L204.77714285714285,59.69230828682603L204.8657142857143,59.564108630021614L204.9542857142857,59.42927795648595L205.1314285714286,59.21598025163035L205.30857142857144,59.034732460975846L205.39714285714285,58.94466115037621L205.75142857142856,58.64184471964856L205.84,58.56448285778384L206.01714285714286,58.40589104096116L206.28285714285713,58.1660692691805L206.46,57.96658618251504L206.72571428571428,57.74444712201775L207.25714285714287,57.257619976997574L207.78857142857143,56.78902812798838L208.14285714285714,56.296122550964554L208.4085714285714,56.018725017706764L208.85142857142858,55.472218722105225L209.02857142857144,55.31694241364817L209.29428571428573,54.985944161812675L209.8257142857143,54.469830026229424L209.9142857142857,54.380863885085L210.0914285714286,54.19795834024767L210.35714285714286,54.0305251677833L210.62285714285716,53.84651445349078L210.71142857142857,53.77854653199534L210.79999999999998,53.71223636468272L211.59714285714284,53.072343250115914L211.68571428571428,53.01155893007935L211.77428571428572,52.94966944058756L211.86285714285714,52.878386010726494L212.04,52.72145194808663L212.21714285714287,52.572806656360825L212.48285714285714,52.38990111152352L212.57142857142856,52.328564206759346L212.92571428571426,52.006407310565514L213.10285714285715,51.84892066319804L213.19142857142856,51.775426894426545L213.28,51.67319871981959L213.3685714285714,51.563234359026154L214.07714285714286,50.481273462375206L214.87428571428572,48.849490761757096L215.05142857142857,48.50799340009709L215.31714285714287,48.14218231042246L215.76,47.61667423446993L216.0257142857143,47.414428224166436L216.11428571428573,47.3575119972231L216.38000000000002,47.14863497018834L216.7342857142857,46.962966501713L217,46.783376465241325L217.17714285714285,46.58831405639668L217.3542857142857,46.41480245192866L217.61999999999998,46.21255644162516L217.88571428571427,45.82906264066716L217.9742857142857,45.71909827987374L218.06285714285715,45.64449934164704L218.24,45.525693625211915L218.94857142857143,44.79241369167985L219.12571428571428,44.559775521358056L219.30285714285714,44.28956158955912L219.48,44.09505176544209L219.92285714285714,43.61430305242558L220.3657142857143,43.26838501294474L220.72,42.99430298805257L221.07428571428574,42.66717282931031L221.16285714285715,42.54560418923716L221.25142857142856,42.41795711716036L221.6057142857143,41.919525692860496L221.8714285714286,41.47580015659352L222.13714285714286,41.05086250106515L222.57999999999998,40.47451663017293L222.84571428571428,40.22861642638863L223.02285714285713,40.03134367863358L223.37714285714284,39.60364309946717L223.46571428571428,39.48538996775965L223.55428571428573,39.35111187895159L223.64285714285714,39.22125446796437L223.82,38.97259134054204L223.99714285714288,38.768687576055726L224.26285714285714,38.52002444863339L224.52857142857144,38.36806364854197L224.61714285714285,38.30948966741582L224.79428571428573,38.17355382442494L224.97142857142856,38.0840350985529L225.5914285714286,37.48558583855649L225.85714285714286,37.009810388088425L225.94571428571427,36.86945386727671L226.12285714285716,36.562769343455834L226.29999999999998,36.21187804142653L226.47714285714287,35.758205980062684L226.56571428571428,35.54767119884511L226.74285714285713,35.174123922983995L227.00857142857143,34.61269783973714L227.18571428571428,34.259596198797425L227.45142857142858,33.80316121379553L227.6285714285714,33.508080969254365L227.8942857142857,33.051645984252495L227.98285714285714,32.888633489608964L228.07142857142856,32.7112537920477L228.95714285714286,31.19440871477147L229.0457142857143,31.096048633257737L229.22285714285715,30.917563766241273L229.31142857142856,30.83743898073851L229.4,30.76284004251181L229.48857142857145,30.69266178210597L229.75428571428571,30.506440728903016L229.84285714285716,30.436262468497148L230.02,30.236779381831692L230.2857142857143,29.882572571436754L230.46285714285713,29.691378255685375L230.64000000000001,29.490789999564694L230.81714285714287,29.28357072671275L231.61428571428573,28.31046902140002L231.70285714285714,28.186137457688854L231.96857142857144,27.813695351282945L232.1457142857143,27.628026882807603L232.32285714285715,27.484354853630265L232.5,27.27713558077832L232.67714285714285,26.937295973301133L232.7657142857143,26.752732674280992L233.03142857142856,26.19351692994456L233.56285714285715,24.898810913165615L233.65142857142857,24.677777022123536L234.0057142857143,23.893106708924165L234.27142857142857,23.333890964587734L234.53714285714287,22.75643992424031L234.7142857142857,22.43704595168452L234.80285714285714,22.25745591521283L235.15714285714284,21.53799059987088L235.51142857142855,20.829024394353436L235.68857142857144,20.489737371603837L235.77714285714285,20.31622576713582L235.8657142857143,20.121715943018785L235.9542857142857,19.916154424349656L236.04285714285714,19.711698075135754L236.30857142857144,19.15800817807536L236.66285714285715,18.49822201331477L236.75142857142856,18.338525027036866L236.84,18.186011642217835L237.1942857142857,17.600824415683945L237.28285714285713,17.44389035304408L237.46,17.140521337588833L237.54857142857142,17.004585494597958L237.99142857142857,16.266884883245037L238.25714285714287,15.823711931705672L238.34571428571428,15.699932952722119L238.52285714285713,15.41369406382262L238.70000000000002,15.066670854886578L238.78857142857143,14.911947131157119L238.87714285714284,14.752802729606826L238.96571428571428,14.603604853153426L239.23142857142858,14.182535290718276L239.32,14.051020125548236L239.4085714285714,13.915636867284972L239.49714285714288,13.786884625752972L239.76285714285714,13.412232180436657L239.85142857142858,13.303372989098422L240.02857142857144,13.0757080813251L240.56,12.513176828623015L240.8257142857143,12.210912982622974L241.0914285714286,11.897597442070834L241.18,11.79205375909825L241.53428571428572,11.201893270015914" style="fill: none;" fill="none"></path></g></g></g></g></g></g><g transform="translate(82, 178)" clip-path="url(#clip_1)"><clipPath id="clip_1"><rect width="247" height="21"></rect></clipPath><g><g><line x1="0" y1="0" x2="0" y2="5" style="visibility: inherit;" fill="rgb(0, 0, 0)" stroke="rgb(204, 204, 204)" stroke-width="1px"></line><line x1="17.71428571428571" y1="0" x2="17.71428571428571" y2="5" style="visibility: inherit;" fill="rgb(0, 0, 0)" stroke="rgb(204, 204, 204)" stroke-width="1px"></line><line x1="35.42857142857142" y1="0" x2="35.42857142857142" y2="5" style="visibility: inherit;" fill="rgb(0, 0, 0)" stroke="rgb(204, 204, 204)" stroke-width="1px"></line><line x1="53.14285714285714" y1="0" x2="53.14285714285714" y2="5" style="visibility: inherit;" fill="rgb(0, 0, 0)" stroke="rgb(204, 204, 204)" stroke-width="1px"></line><line x1="70.85714285714285" y1="0" x2="70.85714285714285" y2="5" style="visibility: inherit;" fill="rgb(0, 0, 0)" stroke="rgb(204, 204, 204)" stroke-width="1px"></line><line x1="88.57142857142857" y1="0" x2="88.57142857142857" y2="5" style="visibility: inherit;" fill="rgb(0, 0, 0)" stroke="rgb(204, 204, 204)" stroke-width="1px"></line><line x1="106.28571428571428" y1="0" x2="106.28571428571428" y2="5" style="visibility: inherit;" fill="rgb(0, 0, 0)" stroke="rgb(204, 204, 204)" stroke-width="1px"></line><line x1="124" y1="0" x2="124" y2="5" style="visibility: inherit;" fill="rgb(0, 0, 0)" stroke="rgb(204, 204, 204)" stroke-width="1px"></line><line x1="141.7142857142857" y1="0" x2="141.7142857142857" y2="5" style="visibility: inherit;" fill="rgb(0, 0, 0)" stroke="rgb(204, 204, 204)" stroke-width="1px"></line><line x1="159.42857142857144" y1="0" x2="159.42857142857144" y2="5" style="visibility: inherit;" fill="rgb(0, 0, 0)" stroke="rgb(204, 204, 204)" stroke-width="1px"></line><line x1="177.14285714285714" y1="0" x2="177.14285714285714" y2="5" style="visibility: inherit;" fill="rgb(0, 0, 0)" stroke="rgb(204, 204, 204)" stroke-width="1px"></line><line x1="194.85714285714286" y1="0" x2="194.85714285714286" y2="5" style="visibility: inherit;" fill="rgb(0, 0, 0)" stroke="rgb(204, 204, 204)" stroke-width="1px"></line><line x1="212.57142857142856" y1="0" x2="212.57142857142856" y2="5" style="visibility: inherit;" fill="rgb(0, 0, 0)" stroke="rgb(204, 204, 204)" stroke-width="1px"></line><line x1="230.2857142857143" y1="0" x2="230.2857142857143" y2="5" style="visibility: inherit;" fill="rgb(0, 0, 0)" stroke="rgb(204, 204, 204)" stroke-width="1px"></line><line x1="248" y1="0" x2="248" y2="5" style="visibility: inherit;" fill="rgb(0, 0, 0)" stroke="rgb(204, 204, 204)" stroke-width="1px"></line></g><g transform="translate(0, 8)"><text x="0" y="0" dx="0em" dy="0.95em" style="text-anchor: middle; visibility: hidden; font-family: Roboto, sans-serif; font-size: 12px; font-weight: 200;" fill="rgb(50, 49, 63)" stroke="none" stroke-width="1px">-200</text><text x="17.71428571428571" y="0" dx="0em" dy="0.95em" style="text-anchor: middle; visibility: inherit; font-family: Roboto, sans-serif; font-size: 12px; font-weight: 200;" fill="rgb(50, 49, 63)" stroke="none" stroke-width="1px">0</text><text x="35.42857142857142" y="0" dx="0em" dy="0.95em" style="text-anchor: middle; visibility: hidden; font-family: Roboto, sans-serif; font-size: 12px; font-weight: 200;" fill="rgb(50, 49, 63)" stroke="none" stroke-width="1px">200</text><text x="53.14285714285714" y="0" dx="0em" dy="0.95em" style="text-anchor: middle; visibility: inherit; font-family: Roboto, sans-serif; font-size: 12px; font-weight: 200;" fill="rgb(50, 49, 63)" stroke="none" stroke-width="1px">400</text><text x="70.85714285714285" y="0" dx="0em" dy="0.95em" style="text-anchor: middle; visibility: hidden; font-family: Roboto, sans-serif; font-size: 12px; font-weight: 200;" fill="rgb(50, 49, 63)" stroke="none" stroke-width="1px">600</text><text x="88.57142857142857" y="0" dx="0em" dy="0.95em" style="text-anchor: middle; visibility: inherit; font-family: Roboto, sans-serif; font-size: 12px; font-weight: 200;" fill="rgb(50, 49, 63)" stroke="none" stroke-width="1px">800</text><text x="106.28571428571428" y="0" dx="0em" dy="0.95em" style="text-anchor: middle; visibility: hidden; font-family: Roboto, sans-serif; font-size: 12px; font-weight: 200;" fill="rgb(50, 49, 63)" stroke="none" stroke-width="1px">1k</text><text x="124" y="0" dx="0em" dy="0.95em" style="text-anchor: middle; visibility: inherit; font-family: Roboto, sans-serif; font-size: 12px; font-weight: 200;" fill="rgb(50, 49, 63)" stroke="none" stroke-width="1px">1.2k</text><text x="141.7142857142857" y="0" dx="0em" dy="0.95em" style="text-anchor: middle; visibility: hidden; font-family: Roboto, sans-serif; font-size: 12px; font-weight: 200;" fill="rgb(50, 49, 63)" stroke="none" stroke-width="1px">1.4k</text><text x="159.42857142857144" y="0" dx="0em" dy="0.95em" style="text-anchor: middle; visibility: inherit; font-family: Roboto, sans-serif; font-size: 12px; font-weight: 200;" fill="rgb(50, 49, 63)" stroke="none" stroke-width="1px">1.6k</text><text x="177.14285714285714" y="0" dx="0em" dy="0.95em" style="text-anchor: middle; visibility: hidden; font-family: Roboto, sans-serif; font-size: 12px; font-weight: 200;" fill="rgb(50, 49, 63)" stroke="none" stroke-width="1px">1.8k</text><text x="194.85714285714286" y="0" dx="0em" dy="0.95em" style="text-anchor: middle; visibility: inherit; font-family: Roboto, sans-serif; font-size: 12px; font-weight: 200;" fill="rgb(50, 49, 63)" stroke="none" stroke-width="1px">2k</text><text x="212.57142857142856" y="0" dx="0em" dy="0.95em" style="text-anchor: middle; visibility: hidden; font-family: Roboto, sans-serif; font-size: 12px; font-weight: 200;" fill="rgb(50, 49, 63)" stroke="none" stroke-width="1px">2.2k</text><text x="230.2857142857143" y="0" dx="0em" dy="0.95em" style="text-anchor: middle; visibility: inherit; font-family: Roboto, sans-serif; font-size: 12px; font-weight: 200;" fill="rgb(50, 49, 63)" stroke="none" stroke-width="1px">2.4k</text><text x="248" y="0" dx="0em" dy="0.95em" style="text-anchor: middle; visibility: hidden; font-family: Roboto, sans-serif; font-size: 12px; font-weight: 200;" fill="rgb(50, 49, 63)" stroke="none" stroke-width="1px">2.6k</text></g><line x1="0" y1="0" x2="248" y2="0" fill="rgb(0, 0, 0)" stroke="rgb(204, 204, 204)" stroke-width="1px"></line></g></g></g></g></svg>